<svg width="65" height="65" viewBox="0 0 65 65" fill="none" xmlns="http://www.w3.org/2000/svg">
<circle cx="32.4151" cy="32.415" r="32.415" transform="rotate(90 32.4151 32.415)" fill="#FDF9EF"/>
<path fill-rule="evenodd" clip-rule="evenodd" d="M16.084 22.2726C16.084 18.7374 18.9494 15.8716 22.484 15.8716H41.684C45.2185 15.8716 48.084 18.7374 48.084 22.2726V41.4755C48.084 45.0106 45.2185 47.8765 41.684 47.8765H22.484C18.9494 47.8765 16.084 45.0106 16.084 41.4755V22.2726ZM22.484 19.0721C20.7167 19.0721 19.284 20.505 19.284 22.2726V41.4755C19.284 43.2432 20.7167 44.676 22.484 44.676H41.684C43.4513 44.676 44.884 43.2432 44.884 41.4755V22.2726C44.884 20.505 43.4513 19.0721 41.684 19.0721H22.484ZM32.084 27.0733C29.4329 27.0733 27.284 29.2226 27.284 31.8741C27.284 34.5255 29.4329 36.6748 32.084 36.6748C34.735 36.6748 36.884 34.5255 36.884 31.8741C36.884 29.2226 34.735 27.0733 32.084 27.0733ZM24.084 31.8741C24.084 27.4551 27.6657 23.8728 32.084 23.8728C36.5022 23.8728 40.084 27.4551 40.084 31.8741C40.084 36.293 36.5022 39.8753 32.084 39.8753C27.6657 39.8753 24.084 36.293 24.084 31.8741ZM40.884 25.4731C42.2094 25.4731 43.284 24.3984 43.284 23.0727C43.284 21.747 42.2094 20.6723 40.884 20.6723C39.5585 20.6723 38.484 21.747 38.484 23.0727C38.484 24.3984 39.5585 25.4731 40.884 25.4731Z" fill="#FF5757"/>
</svg>
