<svg version="1.2" xmlns="http://www.w3.org/2000/svg" viewBox="0 0 366 392" width="366" height="392">
	<style>
		.s0 { fill: #67cd8a } 
		.s1 { fill: #ffffff } 
		.s2 { fill: #dafee7 } 
		.s3 { fill: #a6edbe } 
	</style>
	<g>
		<path class="s0" d="m355.53 189.5l-3.33 3.02-2.75 2.44-23.71 21.49-6.54 5.87-79.91 72.04-4.38 3.94-23.25 20.99-1.22 1.09-1.29 1.18-1.87 1.68-17.7 15.95-1.63 1.59-0.18 0.09-0.17 0.17-6.6 5.96-0.24 0.16-5.43-4.86-0.99-0.93-0.18-0.17-7.53-6.8-12.38-11.16-1.41-1.26-2.97-2.69-23.25-20.99-4.38-3.94-70.68-63.81-8.35-7.47-6.66-6.05-30.14-27.2-0.41-0.33 0.41-0.34 0.29-0.25 29.85-26.95 6.66-6.04 42.52-38.37 4.32-3.95 23.25-20.99 4.32-3.86 58.94-53.22h8.41l53.44 48.27 41.88 37.78 38.91 35.09 4.44 4.03 2.1 1.93 15.18 13.69 14.32 12.93z"/>
		<path class="s1" d="m326.1 15.9v284.29c0 0.19 0 0.44-0.06 0.63-0.12 2.97-1.4 5.57-3.33 7.59-2.23 2.22-5.27 3.61-8.66 3.61h-265.54c-3.39 0-6.43-1.39-8.66-3.61-2.1-2.15-3.39-5-3.39-8.22v-284.29c0-6.58 5.44-11.9 12.05-11.9h265.54c6.67 0 12.05 5.32 12.05 11.9z"/>
		<path class="s2" d="m181 284.52l-2.04 1.09-4.96 2.74-34.52 18.91-4.84 2.67-54.52 29.84-8.63 4.71-56.92 31.15-4.37 2.35-3.67 2.02v-190.96l0.29 0.17 29.8 16.28 18.25 10 26.82 14.71 3.44 1.85 47.12 25.8 4.72 2.57 21.75 11.91 3.21 1.75 4.67 2.57 6.06 3.28 1.75 0.98 0.93 0.5 5.49 3z"/>
		<path class="s2" d="m356 189.04v190.96l-0.06-0.05-0.29-0.19-0.23-0.14h-0.06l-169.27-92.31-2.98-1.64-2.11-1.17 6.67-3.62 0.17-0.09 0.18-0.1 6.14-3.33z"/>
		<path class="s0" d="m356 350.52v29.26h-0.35l-5.03 0.22h-325.99l-0.24-4.53c5.91-3.77 13.74-8.85 18.83-12.07l0.7-0.43 17.08-10.98 26.66-17.2 7.72-4.96 80.99-52.14 5.44-3.55c1.28-0.76 2.74-1.42 4.32-1.86 1.87-0.6 3.92-0.98 5.97-1.14 0.7-0.06 1.34-0.11 2.04-0.06 0.7-0.11 1.41-0.11 2.11-0.11q2.8-0.07 5.44 0.44 2.8 0.49 5.08 1.64l61.4 31.88 30.35 15.78 7.89 4.09 28.6 14.85 18.82 9.78c0.53 0.27 1.12 0.54 1.7 0.87 0.12 0.05 0.29 0.16 0.47 0.22z"/>
		<path class="s3" d="m356 360.84v19.16h-349.47v-19.16c6.13-3.49 14.19-8.24 19.44-11.19l0.7-0.44 13.38-7.8 4.2-2.4 27.51-15.94 7.94-4.64 71.78-41.65 1.46-0.82 2.98-1.75 3.03-1.74 4.21-2.46 5.61-3.27c2.92-1.64 6.71-2.46 10.45-2.52 0.7-0.05 1.34-0.05 2.04 0q1.05-0.08 2.11 0 2.45 0 4.73 0.5c2.1 0.38 4.03 1.09 5.66 2.02l8.12 4.69 1.75 1.04 3.04 1.74 2.57 1.48 1.87 1.09 42.28 24.56 29.43 17.09 7.65 4.47 27.8 16.11 4.15 2.4 14.13 8.24c0.53 0.28 1.05 0.55 1.64 0.88 3.74 2.23 8.52 5.02 13.02 7.58 1.64 0.98 3.27 1.91 4.79 2.73z"/>
		<path class="s1" d="m140.21 207.86q-0.23 0-0.39-0.1-0.15-0.11-0.24-0.33l-2.27-5.09q-0.1-0.22-0.05-0.38 0.04-0.17 0.18-0.26 0.14-0.1 0.33-0.1 0.25 0 0.37 0.11 0.13 0.11 0.22 0.33l2.06 4.76h-0.38l2.05-4.77q0.1-0.21 0.23-0.32 0.13-0.11 0.36-0.11 0.2 0 0.32 0.1 0.13 0.09 0.16 0.26 0.04 0.16-0.06 0.38l-2.26 5.09q-0.1 0.22-0.25 0.33-0.14 0.1-0.38 0.1zm4.35-0.07q-0.29 0-0.44-0.15-0.15-0.15-0.15-0.44v-4.94q0-0.28 0.15-0.43 0.15-0.16 0.44-0.16h3.1q0.22 0 0.33 0.11 0.12 0.12 0.12 0.32 0 0.22-0.12 0.34-0.11 0.12-0.33 0.12h-2.62v1.68h2.43q0.22 0 0.34 0.11 0.11 0.12 0.11 0.33 0 0.22-0.11 0.33-0.12 0.12-0.34 0.12h-2.43v1.78h2.62q0.22 0 0.33 0.11 0.12 0.11 0.12 0.33 0 0.22-0.12 0.33-0.11 0.11-0.33 0.11zm5.14 0.07q-0.26 0-0.41-0.15-0.14-0.15-0.14-0.42v-5.05q0-0.28 0.15-0.42 0.15-0.15 0.41-0.15h2.1q1 0 1.55 0.49 0.55 0.47 0.55 1.34 0 0.57-0.25 0.98-0.25 0.4-0.72 0.62-0.47 0.22-1.13 0.22l0.07-0.13h0.29q0.36 0 0.62 0.17 0.27 0.17 0.47 0.55l0.65 1.2q0.1 0.19 0.09 0.36-0.01 0.18-0.13 0.29-0.12 0.1-0.35 0.1-0.24 0-0.39-0.09-0.14-0.11-0.26-0.32l-0.87-1.61q-0.16-0.3-0.38-0.39-0.2-0.11-0.53-0.11h-0.83v1.95q0 0.27-0.14 0.42-0.14 0.15-0.42 0.15zm0.56-3.34h1.36q0.59 0 0.9-0.24 0.31-0.26 0.31-0.75 0-0.49-0.31-0.73-0.31-0.25-0.9-0.25h-1.36zm6.7 3.34q-0.26 0-0.41-0.15-0.14-0.15-0.14-0.42v-4.69h-1.7q-0.22 0-0.35-0.12-0.12-0.13-0.12-0.35 0-0.23 0.12-0.34 0.13-0.12 0.35-0.12h4.5q0.23 0 0.35 0.12 0.13 0.11 0.13 0.34 0 0.22-0.13 0.35-0.12 0.12-0.35 0.12h-1.69v4.69q0 0.27-0.14 0.42-0.14 0.15-0.42 0.15zm3.95-0.07q-0.28 0-0.44-0.15-0.15-0.15-0.15-0.44v-4.94q0-0.29 0.15-0.43 0.16-0.16 0.44-0.16h3.1q0.22 0 0.33 0.11 0.13 0.12 0.13 0.32 0 0.22-0.13 0.34-0.11 0.12-0.33 0.12h-2.62v1.68h2.43q0.23 0 0.34 0.11 0.12 0.12 0.12 0.33 0 0.22-0.12 0.33-0.11 0.12-0.34 0.12h-2.43v1.78h2.62q0.22 0 0.33 0.11 0.13 0.11 0.13 0.33 0 0.21-0.13 0.33-0.11 0.11-0.33 0.11zm5.16 0q-0.27 0-0.42-0.15-0.14-0.15-0.14-0.42v-5.01q0-0.28 0.13-0.42 0.15-0.15 0.42-0.15 0.27 0 0.41 0.15 0.15 0.14 0.15 0.42v4.63h2.51q0.24 0.01 0.36 0.13 0.13 0.12 0.13 0.34 0 0.23-0.13 0.36-0.12 0.12-0.36 0.12zm7.19 0.07q-0.24 0-0.37-0.14-0.13-0.14-0.13-0.38v-5.22q0-0.25 0.14-0.38 0.14-0.14 0.38-0.14 0.22 0 0.34 0.09 0.13 0.08 0.23 0.28l2.15 3.96h-0.28l2.15-3.96q0.1-0.2 0.22-0.28 0.12-0.09 0.34-0.09 0.24 0 0.37 0.14 0.13 0.13 0.13 0.38v5.22q0 0.24-0.13 0.38-0.12 0.14-0.37 0.14-0.24 0-0.37-0.14-0.13-0.14-0.13-0.38v-4.02h0.19l-1.83 3.32q-0.08 0.15-0.18 0.22-0.09 0.07-0.26 0.07-0.16 0-0.27-0.07-0.1-0.08-0.18-0.22l-1.84-3.33h0.21v4.03q0 0.24-0.13 0.38-0.12 0.14-0.38 0.14zm7.61-0.07q-0.29 0-0.44-0.15-0.15-0.15-0.15-0.44v-4.94q0-0.29 0.15-0.43 0.15-0.16 0.44-0.16h3.1q0.22 0 0.33 0.11 0.12 0.12 0.12 0.32 0 0.22-0.12 0.34-0.11 0.12-0.33 0.12h-2.62v1.68h2.43q0.23 0 0.34 0.11 0.11 0.12 0.11 0.33 0 0.22-0.11 0.33-0.11 0.12-0.34 0.12h-2.43v1.78h2.62q0.22 0 0.33 0.11 0.12 0.11 0.12 0.33 0 0.21-0.12 0.33-0.11 0.11-0.33 0.11zm7.01 0.07q-0.21 0-0.34-0.1-0.12-0.09-0.15-0.25-0.02-0.16 0.06-0.36l2.3-5.08q0.11-0.25 0.27-0.36 0.16-0.11 0.37-0.11 0.2 0 0.35 0.11 0.17 0.11 0.28 0.36l2.3 5.08q0.1 0.2 0.07 0.36-0.02 0.17-0.15 0.26-0.12 0.09-0.32 0.09-0.24 0-0.38-0.11-0.13-0.12-0.23-0.37l-0.57-1.31 0.47 0.31h-3.66l0.47-0.31-0.56 1.31q-0.11 0.26-0.23 0.37-0.12 0.11-0.35 0.11zm2.49-4.98l-1.21 2.89-0.23-0.28h2.9l-0.22 0.28-1.22-2.89zm4.47 4.91q-0.27 0-0.42-0.15-0.14-0.15-0.14-0.42v-5.01q0-0.28 0.14-0.42 0.14-0.15 0.41-0.15 0.27 0 0.41 0.15 0.15 0.14 0.15 0.42v4.63h2.52q0.23 0.01 0.35 0.13 0.13 0.12 0.13 0.34 0 0.23-0.13 0.36-0.12 0.12-0.35 0.12zm4.87 0q-0.27 0-0.42-0.15-0.14-0.15-0.14-0.42v-5.01q0-0.28 0.14-0.42 0.14-0.15 0.41-0.15 0.27 0 0.41 0.15 0.15 0.14 0.15 0.42v4.63h2.52q0.23 0.01 0.35 0.13 0.13 0.12 0.13 0.34 0 0.23-0.13 0.36-0.12 0.12-0.35 0.12zm4.9 0q-0.29 0-0.45-0.15-0.14-0.15-0.14-0.44v-4.94q0-0.29 0.14-0.43 0.16-0.16 0.45-0.16h3.1q0.22 0 0.33 0.11 0.12 0.12 0.12 0.32 0 0.22-0.12 0.34-0.11 0.12-0.33 0.12h-2.62v1.68h2.43q0.22 0 0.33 0.11 0.12 0.12 0.12 0.33 0 0.22-0.12 0.33-0.11 0.12-0.33 0.12h-2.43v1.78h2.62q0.22 0 0.33 0.11 0.12 0.11 0.12 0.33 0 0.21-0.12 0.33-0.11 0.11-0.33 0.11zm6.61 0.09q-0.38 0-0.76-0.06-0.38-0.05-0.72-0.17-0.34-0.12-0.61-0.29-0.16-0.11-0.22-0.25-0.06-0.15-0.04-0.29 0.03-0.15 0.11-0.25 0.1-0.12 0.24-0.14 0.14-0.03 0.3 0.08 0.38 0.22 0.81 0.33 0.42 0.1 0.89 0.1 0.69 0 1-0.23 0.31-0.23 0.31-0.59 0-0.31-0.22-0.48-0.22-0.18-0.76-0.29l-0.95-0.2q-0.83-0.17-1.24-0.58-0.39-0.42-0.39-1.09 0-0.43 0.17-0.78 0.17-0.34 0.49-0.6 0.32-0.25 0.75-0.38 0.44-0.14 0.97-0.14 0.52 0 0.99 0.13 0.47 0.13 0.85 0.39 0.13 0.09 0.18 0.23 0.05 0.14 0.02 0.28-0.02 0.13-0.12 0.22-0.09 0.1-0.24 0.12-0.14 0.01-0.32-0.09-0.32-0.18-0.65-0.26-0.33-0.08-0.72-0.08-0.39 0-0.68 0.11-0.29 0.12-0.44 0.32-0.15 0.2-0.15 0.48 0 0.32 0.21 0.51 0.21 0.18 0.71 0.28l0.94 0.2q0.87 0.18 1.28 0.58 0.43 0.39 0.43 1.04 0 0.41-0.18 0.75-0.16 0.34-0.48 0.58-0.32 0.25-0.76 0.38-0.44 0.13-1 0.13zm3.79-1.85q-0.17 0-0.26-0.11-0.09-0.1-0.11-0.29l-0.26-3.32q-0.02-0.32 0.14-0.51 0.17-0.2 0.49-0.2 0.31 0 0.47 0.2 0.16 0.19 0.14 0.51l-0.27 3.32q0 0.19-0.1 0.29-0.09 0.11-0.24 0.11zm0 1.8q-0.3 0-0.48-0.18-0.17-0.18-0.17-0.47 0-0.27 0.17-0.45 0.18-0.18 0.48-0.18 0.3 0 0.47 0.18 0.17 0.18 0.17 0.45 0 0.29-0.17 0.47-0.17 0.18-0.47 0.18z"/>
	</g>
</svg>