<svg width="65" height="65" viewBox="0 0 65 65" fill="none" xmlns="http://www.w3.org/2000/svg">
<circle cx="32.416" cy="32.416" r="32.416" transform="rotate(90 32.416 32.416)" fill="#BB76FF"/>
<path fill-rule="evenodd" clip-rule="evenodd" d="M16.5766 21.0612C17.4198 19.8398 18.7921 19.0195 20.362 19.0195H44.528C46.0979 19.0195 47.4702 19.8398 48.3135 21.0612C48.8901 21.8964 49.2269 22.9266 49.2269 24.0308V41.9781C49.2269 44.6854 47.1802 46.9894 44.528 46.9894H20.362C17.7099 46.9894 15.6631 44.6854 15.6631 41.9781V24.0308C15.6631 22.9266 16 21.8964 16.5766 21.0612ZM20.5847 22.5158L31.2028 34.6909C31.8687 35.4545 33.0213 35.4545 33.6872 34.6909L44.3053 22.5158H20.5847ZM45.8706 25.9205L36.1714 37.0419C34.1737 39.3325 30.7163 39.3325 28.7186 37.0419L19.0195 25.9205V41.9781C19.0195 42.8754 19.6776 43.4932 20.362 43.4932H44.528C45.2125 43.4932 45.8706 42.8754 45.8706 41.9781V25.9205Z" fill="#FFF3DB"/>
</svg>
