<svg width="65" height="65" viewBox="0 0 65 65" fill="none" xmlns="http://www.w3.org/2000/svg">
<circle cx="32.416" cy="32.416" r="32.416" transform="rotate(90 32.416 32.416)" fill="#FF5757"/>
<path d="M15.6636 40.5557C15.6637 38.3829 17.0687 36.6563 18.8091 35.4336C20.5804 34.1892 22.984 33.2463 25.6948 32.6475C26.6299 32.4412 27.5547 33.0317 27.7612 33.9668C27.9676 34.9019 27.377 35.8267 26.4419 36.0332C24.014 36.5695 22.0825 37.373 20.8032 38.2715C19.4933 39.1918 19.1324 40.0049 19.1323 40.5557C19.1323 40.9491 19.304 41.4548 19.8804 42.0605C20.4652 42.6751 21.3936 43.3072 22.6733 43.876C25.2284 45.0115 28.8801 45.7588 33.0054 45.7588C37.1305 45.7587 40.7815 45.0114 43.3364 43.876C44.6162 43.3072 45.5446 42.6751 46.1294 42.0605C46.7058 41.4548 46.8784 40.9491 46.8784 40.5557C46.8783 40.0049 46.5166 39.1918 45.2065 38.2715C43.9273 37.3729 41.9951 36.5695 39.5669 36.0332C38.6322 35.8265 38.0414 34.9017 38.2476 33.9668C38.4541 33.0316 39.3807 32.4409 40.3159 32.6475C43.0265 33.2463 45.4296 34.1893 47.2007 35.4336C48.9411 36.6563 50.3461 38.3829 50.3462 40.5557C50.3462 42.0776 49.6452 43.3972 48.6421 44.4512C47.6475 45.4964 46.29 46.3584 44.7456 47.0449C41.652 48.4199 37.4995 49.2265 33.0054 49.2266C28.511 49.2266 24.3578 48.4199 21.2642 47.0449C19.7198 46.3584 18.3622 45.4964 17.3677 44.4512C16.3646 43.3972 15.6636 42.0776 15.6636 40.5557ZM38.2075 23.2148C38.2075 20.3418 35.8784 18.013 33.0054 18.0127C30.1321 18.0127 27.8022 20.3416 27.8022 23.2148C27.8024 26.0879 30.1322 28.417 33.0054 28.417C35.8784 28.4167 38.2074 26.0878 38.2075 23.2148ZM41.6753 23.2148C41.6752 27.4095 38.6964 30.9076 34.7388 31.7109V38.8223C34.7385 39.7797 33.9628 40.5554 33.0054 40.5557C32.0478 40.5557 31.2712 39.7798 31.271 38.8223V31.7109C27.3133 30.9076 24.3346 27.4095 24.3345 23.2148C24.3345 18.4262 28.2167 14.5439 33.0054 14.5439C37.7938 14.5442 41.6753 18.4263 41.6753 23.2148Z" fill="#FFF3DB"/>
</svg>
