<svg width="65" height="65" viewBox="0 0 65 65" fill="none" xmlns="http://www.w3.org/2000/svg">
<circle cx="32.416" cy="32.416" r="32.416" transform="rotate(90 32.416 32.416)" fill="#67CD8A"/>
<path d="M18.9633 18.9187C22.1645 15.828 27.6436 16.016 29.9239 19.961L31.0936 21.9851C32.5706 24.5405 31.9416 27.7304 29.8317 29.8231C29.8285 29.828 29.8245 29.8349 29.8197 29.8435C29.7937 29.8902 29.7465 29.9943 29.738 30.1623C29.7235 30.4478 29.8055 31.3669 31.4034 32.9098C33.0007 34.452 33.9529 34.5318 34.249 34.5178C34.4233 34.5096 34.5314 34.4634 34.58 34.4383C34.5879 34.4342 34.5941 34.4303 34.599 34.4274C36.7664 32.3897 40.0713 31.7827 42.7183 33.209L44.8146 34.3383C48.837 36.5056 49.0883 41.6659 46.042 44.7749L45.8941 44.9211C44.2371 46.521 41.9809 47.9964 39.2868 48.0949C35.4316 48.2361 29.0738 47.2693 22.8025 41.2142C16.5312 35.1591 15.53 29.0205 15.6761 25.2983C15.7783 22.6971 17.3062 20.5186 18.9633 18.9187ZM26.7755 21.6574C25.8671 20.0858 23.3334 19.6225 21.5124 21.3806C20.1518 22.6944 19.3315 24.0856 19.2787 25.4302C19.1641 28.3503 19.9038 33.492 25.3516 38.7523C30.7999 44.0128 36.1258 44.7273 39.1502 44.6165C40.5428 44.5656 41.9843 43.7736 43.345 42.4598C45.1088 40.7565 44.713 38.4077 43.207 37.4652L43.0577 37.3782L40.9613 36.2489C39.8531 35.6517 38.238 35.835 37.0777 36.9553L37.077 36.956L35.8032 35.724C37.0497 36.9292 37.0755 36.9564 37.0749 36.958C37.0745 36.9584 37.0729 36.9593 37.0721 36.9601L37.0566 36.975C37.0494 36.9817 37.0418 36.9891 37.0334 36.9968C37.0163 37.0123 36.9964 37.0295 36.9742 37.0484C36.9297 37.0865 36.8745 37.1315 36.8087 37.1803C36.6776 37.2778 36.5018 37.3941 36.2813 37.5081C35.8373 37.7375 35.2121 37.9577 34.4251 37.9949C32.798 38.0716 30.9129 37.3588 28.8543 35.3711H28.8536C26.7948 33.3831 26.0571 31.5627 26.1368 29.9917C26.1754 29.2316 26.4038 28.6281 26.6417 28.1994C26.7598 27.9866 26.8801 27.8168 26.9811 27.6902C27.0318 27.6267 27.0783 27.5734 27.1177 27.5304C27.1374 27.509 27.1552 27.4898 27.1713 27.4733C27.1793 27.4651 27.1867 27.4572 27.1938 27.4502C27.1973 27.4467 27.2011 27.4438 27.2044 27.4407C27.206 27.4391 27.2077 27.4374 27.2093 27.4359C27.2101 27.4351 27.211 27.4336 27.2114 27.4332C27.2129 27.4325 27.2349 27.4514 28.4332 28.6081L27.2135 27.4311C28.3737 26.3109 28.5636 24.7514 27.9452 23.6815L26.7755 21.6574ZM34.5539 34.4682C34.5513 34.4706 34.549 34.4737 34.5462 34.4763L34.5335 34.4886C34.5404 34.4819 34.547 34.4748 34.5539 34.4682ZM29.7655 29.8904L29.7803 29.8761C29.7854 29.871 29.79 29.8662 29.7943 29.8618C29.8011 29.8549 29.807 29.8488 29.812 29.8435C29.7963 29.8589 29.7813 29.8751 29.7655 29.8904ZM34.5708 34.4532C34.5677 34.456 34.5645 34.4595 34.561 34.4628C34.5589 34.4647 34.5562 34.4661 34.5539 34.4682C34.5594 34.463 34.5654 34.4584 34.5708 34.4532Z" fill="#FFF3DB"/>
</svg>
