<svg width="148" height="55" viewBox="0 0 148 55" fill="none" xmlns="http://www.w3.org/2000/svg">
<path d="M10.3618 29.591C10.4982 28.8179 10.5665 28.4313 10.7438 28.279C10.8977 28.1466 11.1023 28.103 11.2969 28.1611C11.5208 28.2279 11.7408 28.553 12.1806 29.2033L15.6838 34.3827C15.8139 34.5749 15.8789 34.671 15.962 34.7375C16.0355 34.7964 16.119 34.8382 16.2068 34.8603C16.3062 34.8852 16.4128 34.8751 16.626 34.8549L22.3708 34.3115C23.092 34.2432 23.4525 34.2091 23.6468 34.3519C23.8154 34.476 23.9243 34.6768 23.9411 34.8947C23.9605 35.1456 23.7532 35.4624 23.3387 36.0961L20.0368 41.1435C19.9143 41.3307 19.853 41.4245 19.8238 41.5288C19.798 41.6213 19.7904 41.7193 19.8016 41.8166C19.8143 41.9266 19.8599 42.0346 19.9514 42.2508L22.4151 48.0726C22.7244 48.8035 22.8791 49.1689 22.8218 49.4095C22.7721 49.6186 22.6348 49.7863 22.4506 49.8629C22.2386 49.9511 21.8906 49.8219 21.1945 49.5632L15.6506 47.5032C15.4448 47.4267 15.342 47.3886 15.2408 47.3866C15.1514 47.3849 15.0632 47.4036 14.9822 47.4417C14.8907 47.4848 14.8123 47.5616 14.6557 47.7153L10.4336 51.8569C9.90354 52.3769 9.63849 52.6368 9.40893 52.6427C9.20951 52.6479 9.01572 52.5508 8.88508 52.3801C8.73474 52.1838 8.72694 51.7871 8.71131 50.9935L8.58684 44.6731C8.58221 44.4385 8.57991 44.3212 8.54662 44.2156C8.51717 44.1221 8.47029 44.0357 8.409 43.9618C8.33978 43.8785 8.24562 43.8179 8.05736 43.6969L2.98429 40.4346C2.34739 40.025 2.02894 39.8203 1.94428 39.5833C1.87073 39.3775 1.88829 39.1497 1.99175 38.9677C2.11086 38.7581 2.45404 38.6422 3.14041 38.4104L8.60742 36.5641C8.81033 36.4956 8.91177 36.4613 8.99233 36.398C9.0636 36.342 9.12271 36.2698 9.16583 36.1861C9.21456 36.0915 9.23473 35.9772 9.27508 35.7487L10.3618 29.591Z" stroke="#FF5757" stroke-width="3.71556" stroke-linecap="round" stroke-linejoin="round"/>
<path d="M40.0757 23.2575C40.2121 22.4844 40.2804 22.0978 40.4577 21.9455C40.6116 21.8131 40.8162 21.7695 41.0107 21.8276C41.2347 21.8944 41.4547 22.2195 41.8945 22.8698L45.3977 28.0492C45.5278 28.2414 45.5928 28.3375 45.6759 28.404C45.7494 28.4629 45.8328 28.5047 45.9207 28.5268C46.0201 28.5517 46.1267 28.5416 46.3399 28.5214L52.0846 27.978C52.8059 27.9097 53.1664 27.8756 53.3607 28.0184C53.5293 28.1425 53.6382 28.3433 53.655 28.5612C53.6744 28.8121 53.4671 29.1289 53.0526 29.7626L49.7506 34.81C49.6282 34.9972 49.5668 35.091 49.5377 35.1953C49.5118 35.2878 49.5042 35.3858 49.5155 35.4831C49.5281 35.5931 49.5738 35.7011 49.6653 35.9173L52.129 41.7391C52.4383 42.47 52.5929 42.8355 52.5357 43.076C52.486 43.2851 52.3486 43.4528 52.1645 43.5294C51.9525 43.6176 51.6044 43.4884 50.9084 43.2297L45.3644 41.1697C45.1587 41.0932 45.0559 41.0551 44.9547 41.0531C44.8652 41.0514 44.7771 41.0701 44.6961 41.1082C44.6046 41.1513 44.5262 41.2281 44.3695 41.3818L40.1475 45.5234C39.6174 46.0434 39.3524 46.3033 39.1228 46.3092C38.9234 46.3144 38.7296 46.2173 38.5989 46.0466C38.4486 45.8503 38.4408 45.4536 38.4252 44.66L38.3007 38.3396C38.2961 38.105 38.2938 37.9877 38.2605 37.8821C38.231 37.7887 38.1842 37.7022 38.1229 37.6283C38.0536 37.545 37.9595 37.4844 37.7712 37.3634L32.6982 34.1011C32.0613 33.6915 31.7428 33.4868 31.6581 33.2498C31.5846 33.044 31.6022 32.8162 31.7056 32.6342C31.8247 32.4246 32.1679 32.3087 32.8543 32.0769L38.3213 30.2306C38.5242 30.1621 38.6256 30.1278 38.7062 30.0645C38.7775 30.0085 38.8366 29.9363 38.8797 29.8526C38.9284 29.758 38.9486 29.6437 38.9889 29.4152L40.0757 23.2575Z" stroke="white" stroke-width="3.71556" stroke-linecap="round" stroke-linejoin="round"/>
<path d="M100.604 10.3561C100.74 9.58301 100.808 9.19645 100.985 9.04411C101.139 8.91177 101.344 8.86816 101.539 8.92623C101.763 8.99304 101.983 9.31816 102.422 9.96842L105.926 15.1478C106.056 15.34 106.121 15.4361 106.204 15.5026C106.277 15.5615 106.361 15.6033 106.448 15.6254C106.548 15.6503 106.655 15.6402 106.868 15.6201L112.612 15.0766C113.334 15.0084 113.694 14.9743 113.888 15.1171C114.057 15.2411 114.166 15.4419 114.183 15.6599C114.202 15.9107 113.995 16.2275 113.58 16.8612L110.278 21.9086C110.156 22.0959 110.095 22.1896 110.065 22.2939C110.04 22.3864 110.032 22.4844 110.043 22.5817C110.056 22.6918 110.102 22.7998 110.193 23.0159L112.657 28.8377C112.966 29.5687 113.121 29.9341 113.064 30.1746C113.014 30.3838 112.876 30.5514 112.692 30.6281C112.48 30.7162 112.132 30.587 111.436 30.3284L105.892 28.2684C105.687 28.1919 105.584 28.1538 105.483 28.1517C105.393 28.15 105.305 28.1688 105.224 28.2068C105.132 28.25 105.054 28.3267 104.897 28.4804L100.675 32.6221C100.145 33.142 99.8802 33.4019 99.6506 33.4079C99.4512 33.413 99.2574 33.3159 99.1268 33.1452C98.9764 32.9489 98.9686 32.5522 98.953 31.7587L98.8285 25.4383C98.8239 25.2036 98.8216 25.0863 98.7883 24.9807C98.7589 24.8873 98.712 24.8009 98.6507 24.727C98.5815 24.6436 98.4873 24.583 98.2991 24.462L93.226 21.1997C92.5891 20.7901 92.2706 20.5854 92.186 20.3485C92.1124 20.1426 92.13 19.9148 92.2335 19.7328C92.3526 19.5232 92.6957 19.4073 93.3821 19.1755L98.8491 17.3292C99.052 17.2607 99.1535 17.2264 99.234 17.1632C99.3053 17.1072 99.3644 17.035 99.4075 16.9512C99.4563 16.8566 99.4764 16.7424 99.5168 16.5138L100.604 10.3561Z" stroke="#BB76FF" stroke-width="3.71556" stroke-linecap="round" stroke-linejoin="round"/>
<path d="M70.8901 16.6906C71.0266 15.9175 71.0948 15.5309 71.2721 15.3786C71.426 15.2462 71.6307 15.2026 71.8252 15.2607C72.0492 15.3275 72.2691 15.6526 72.7089 16.3029L76.2122 21.4823C76.3423 21.6745 76.4072 21.7706 76.4904 21.8371C76.5638 21.896 76.6473 21.9378 76.7351 21.9599C76.8345 21.9848 76.9411 21.9747 77.1544 21.9545L82.8991 21.4111C83.6203 21.3428 83.9809 21.3087 84.1751 21.4515C84.3438 21.5756 84.4527 21.7764 84.4695 21.9944C84.4888 22.2452 84.2816 22.562 83.867 23.1957L80.5651 28.2431C80.4426 28.4303 80.3813 28.5241 80.3521 28.6284C80.3263 28.7209 80.3187 28.8189 80.3299 28.9162C80.3426 29.0262 80.3883 29.1343 80.4797 29.3504L82.9434 35.1722C83.2527 35.9031 83.4074 36.2686 83.3502 36.5091C83.3004 36.7182 83.1631 36.8859 82.9789 36.9625C82.7669 37.0507 82.4189 36.9215 81.7229 36.6629L76.1789 34.6028C75.9731 34.5263 75.8703 34.4882 75.7692 34.4862C75.6797 34.4845 75.5916 34.5033 75.5105 34.5413C75.419 34.5844 75.3407 34.6612 75.184 34.8149L70.9619 38.9565C70.4319 39.4765 70.1668 39.7364 69.9372 39.7423C69.7378 39.7475 69.544 39.6504 69.4134 39.4797C69.2631 39.2834 69.2553 38.8867 69.2396 38.0931L69.1152 31.7727C69.1105 31.5381 69.1082 31.4208 69.0749 31.3152C69.0455 31.2218 68.9986 31.1353 68.9373 31.0615C68.8681 30.9781 68.7739 30.9175 68.5857 30.7965L63.5126 27.5342C62.8757 27.1246 62.5573 26.9199 62.4726 26.6829C62.3991 26.4771 62.4166 26.2493 62.5201 26.0673C62.6392 25.8577 62.9824 25.7418 63.6687 25.51L69.1357 23.6637C69.3386 23.5952 69.4401 23.5609 69.5206 23.4976C69.5919 23.4416 69.651 23.3694 69.6942 23.2857C69.7429 23.1911 69.7631 23.0768 69.8034 22.8483L70.8901 16.6906Z" stroke="#5763FF" stroke-width="3.71556" stroke-linecap="round" stroke-linejoin="round"/>
<path d="M131.418 3.78871C131.554 3.01563 131.623 2.62907 131.8 2.47673C131.954 2.34439 132.158 2.30078 132.353 2.35884C132.577 2.42566 132.797 2.75078 133.237 3.40104L136.74 8.58043C136.87 8.77265 136.935 8.86877 137.018 8.93526C137.092 8.99413 137.175 9.03594 137.263 9.05801C137.362 9.08296 137.469 9.07286 137.682 9.05268L143.427 8.50922C144.148 8.44098 144.509 8.40688 144.703 8.54968C144.872 8.67373 144.98 8.87455 144.997 9.0925C145.017 9.34335 144.809 9.66013 144.395 10.2938L141.093 15.3412C140.97 15.5285 140.909 15.6222 140.88 15.7266C140.854 15.819 140.847 15.917 140.858 16.0143C140.87 16.1244 140.916 16.2324 141.008 16.4485L143.471 22.2703C143.781 23.0013 143.935 23.3667 143.878 23.6072C143.828 23.8164 143.691 23.984 143.507 24.0607C143.295 24.1488 142.947 24.0196 142.251 23.761L136.707 21.701C136.501 21.6245 136.398 21.5864 136.297 21.5843C136.208 21.5826 136.119 21.6014 136.038 21.6394C135.947 21.6826 135.868 21.7593 135.712 21.913L131.49 26.0547C130.96 26.5746 130.695 26.8345 130.465 26.8405C130.266 26.8456 130.072 26.7485 129.941 26.5778C129.791 26.3815 129.783 25.9848 129.767 25.1913L129.643 18.8709C129.638 18.6362 129.636 18.519 129.603 18.4133C129.573 18.3199 129.526 18.2335 129.465 18.1596C129.396 18.0762 129.302 18.0156 129.114 17.8946L124.04 14.6323C123.404 14.2228 123.085 14.018 123 13.7811C122.927 13.5752 122.944 13.3475 123.048 13.1654C123.167 12.9558 123.51 12.8399 124.197 12.6081L129.664 10.7618C129.866 10.6933 129.968 10.6591 130.048 10.5958C130.12 10.5398 130.179 10.4676 130.222 10.3839C130.271 10.2893 130.291 10.175 130.331 9.94645L131.418 3.78871Z" stroke="url(#paint0_linear_512_26872)" stroke-width="3.71556" stroke-linecap="round" stroke-linejoin="round"/>
<defs>
<linearGradient id="paint0_linear_512_26872" x1="132.061" y1="2.34639" x2="136.987" y2="25.456" gradientUnits="userSpaceOnUse">
<stop stop-color="#5ACA81"/>
<stop offset="1" stop-color="#2D6440"/>
</linearGradient>
</defs>
</svg>
