<svg width="148" height="28" viewBox="0 0 148 28" fill="none" xmlns="http://www.w3.org/2000/svg">
  <defs>
    <radialGradient id="starShine" cx="40%" cy="35%" r="60%">
      <stop offset="0%" stop-color="#FFF5D4"/>
      <stop offset="35%" stop-color="#FFDB8D"/>
      <stop offset="100%" stop-color="#FFBA30"/>
    </radialGradient>
  </defs>
  <path d="M14 2l3.09 6.26L24 9.27l-5 4.87 1.18 6.88L14 17.77l-6.18 3.25L9 14.14l-5-4.87 6.91-1.01L14 2z" fill="url(#starShine)"/>
  <path d="M44 2l3.09 6.26L54 9.27l-5 4.87 1.18 6.88L44 17.77l-6.18 3.25L39 14.14l-5-4.87 6.91-1.01L44 2z" fill="url(#starShine)"/>
  <path d="M74 2l3.09 6.26L84 9.27l-5 4.87 1.18 6.88L74 17.77l-6.18 3.25L69 14.14l-5-4.87 6.91-1.01L74 2z" fill="url(#starShine)"/>
  <path d="M104 2l3.09 6.26L114 9.27l-5 4.87 1.18 6.88L104 17.77l-6.18 3.25L99 14.14l-5-4.87 6.91-1.01L104 2z" fill="url(#starShine)"/>
  <path d="M134 2l3.09 6.26L144 9.27l-5 4.87 1.18 6.88L134 17.77l-6.18 3.25L129 14.14l-5-4.87 6.91-1.01L134 2z" fill="url(#starShine)"/>
</svg>
