<svg width="65" height="65" viewBox="0 0 65 65" fill="none" xmlns="http://www.w3.org/2000/svg">
<circle cx="32.4151" cy="32.415" r="32.415" transform="rotate(90 32.4151 32.415)" fill="#FDF9EF"/>
<path d="M33.1215 16.8079C34.8083 16.7827 36.4827 16.7958 38.1561 16.7827C38.2118 18.8287 39.0608 20.6701 40.4117 22.0341L40.4096 22.032C41.8635 23.3124 43.7554 24.1424 45.8409 24.2835L45.8698 24.2855V29.3585C43.8996 29.3102 42.047 28.8659 40.3767 28.1024L40.4612 28.1366C39.6533 27.7568 38.9701 27.367 38.321 26.9318L38.3746 26.9661C38.3622 30.6419 38.3869 34.3177 38.3488 37.9805C38.2427 39.8471 37.6079 41.5495 36.5899 42.9709L36.6105 42.9397C34.9083 45.3231 32.1509 46.8875 29.0153 46.9802H29.0009C28.8742 46.9862 28.7248 46.9893 28.5743 46.9893C26.7917 46.9893 25.1255 46.5037 23.7056 45.6606L23.7468 45.6837C21.1626 44.1636 19.38 41.5626 19.0502 38.5376L19.0461 38.4962C19.0203 37.8667 19.008 37.2371 19.0337 36.6206C19.5386 31.8064 23.6644 28.0822 28.6794 28.0822C29.2431 28.0822 29.7954 28.1296 30.3322 28.2192L30.2745 28.2112C30.3003 30.0738 30.223 31.9374 30.223 33.8C29.7871 33.6458 29.2843 33.5562 28.7598 33.5562C26.835 33.5562 25.1977 34.759 24.5918 36.4382L24.5825 36.4684C24.4455 36.8986 24.3661 37.3932 24.3661 37.9049C24.3661 38.1124 24.3795 38.3179 24.4042 38.5194L24.4022 38.4952C24.7443 40.5563 26.5516 42.1116 28.7309 42.1116C28.7938 42.1116 28.8556 42.1106 28.9175 42.1076H28.9082C30.4157 42.0633 31.7243 41.2705 32.4641 40.0989L32.4744 40.0808C32.7496 39.7061 32.9381 39.2528 33.001 38.7602L33.002 38.7461C33.1308 36.4926 33.0793 34.2523 33.0917 31.9988C33.104 26.9258 33.0793 21.8648 33.1174 16.8049L33.1215 16.8079Z" fill="#5763FF"/>
</svg>
