<?xml version="1.0" encoding="UTF-8"?>
<svg id="Layer_1" data-name="Layer 1" xmlns="http://www.w3.org/2000/svg" xmlns:xlink="http://www.w3.org/1999/xlink" viewBox="0 0 860 590">
  <defs>
    <style>
      .cls-1 {
        fill: url(#linear-gradient-2);
      }

      .cls-2 {
        fill: #fff;
      }

      .cls-3 {
        fill: #f5ca78;
      }

      .cls-4 {
        fill: url(#linear-gradient);
      }
    </style>
    <linearGradient id="linear-gradient" x1="1556.59" y1="3115.4" x2="-1003.41" y2="-2449.6" gradientTransform="translate(194 696) scale(1 -1)" gradientUnits="userSpaceOnUse">
      <stop offset=".48" stop-color="#f8f5e3" stop-opacity="0"/>
      <stop offset=".5" stop-color="#f8f5e3" stop-opacity=".6"/>
      <stop offset=".51" stop-color="#f8f5e3" stop-opacity="0"/>
      <stop offset=".68" stop-color="#f8f5e3" stop-opacity="0"/>
      <stop offset=".9" stop-color="#f8f5e3" stop-opacity="0"/>
      <stop offset="1" stop-color="#f8f5e3" stop-opacity="0"/>
    </linearGradient>
    <linearGradient id="linear-gradient-2" x1="1675.8" y1="3079.97" x2="-1131.7" y2="-2465.03" xlink:href="#linear-gradient"/>
  </defs>
  <path class="cls-2" d="M736.9,557.44c-19.23,0-45.77-3.06-63.17-17.45-12.45-10.35-21.48-28.71-22.52-45.7-2.07-34.44,16.9-89.72,27.53-111.66,6.04-12.5,13.18-22.98,20.14-33.01-.55-15.89.24-32.23.97-48.11.31-6.45.61-12.83.8-19.01-31.37,14.32-63.05,29.49-93.74,44.14-40.28,19.27-81.96,39.13-123.46,57.55-.61.26-1.53.72-2.57,1.24-10.56,5.08-18.12,8.46-26.54,8.46h-1.41l-1.64-.13c-7.82-.78-14.04-4.43-20.08-7.88-1.03-.59-2.01-1.17-2.81-1.63-37.59-16.41-75-34.25-111.19-51.5l-26.91-12.83c-47.23-22.46-95.08-45.7-141.28-68.23l-74.88-36.46L453.68,35.48l12.14,5.47c55.35,24.87,110.76,51.76,164.41,77.74,35.88,17.38,73.05,35.42,109.66,52.54,1.59.72,3.29,1.3,5.07,1.95,7.44,2.67,17.64,6.38,26.18,15.24l9.15,9.51.85,150.2c22.52,32.55,37.41,69.08,44.43,108.79l.86,4.56c3.41,18.36,9.82,52.61-19.1,76.57-21.05,17.51-56.27,19.4-70.36,19.4h-.06Z"/>
  <path class="cls-2" d="M453.98,70.97c92.02,41.34,182.22,87.24,273.64,130.08,7.39,3.45,16.9,5.21,22.21,10.68l.86,147.53c23,30.54,38.08,64.98,44.92,103.65,3.17,17.84,8.48,36.59-7.02,49.41-9.82,8.14-31.12,12.51-51.69,12.51-18.12,0-35.7-3.39-44.42-10.62-5.49-4.56-10.37-14.52-10.8-22.07-1.46-24.55,13.37-72.34,24.17-94.6,6.71-13.8,15.74-25.72,24.16-38.28-3.17-36.53,4.34-81.71.12-117.26-.55-4.56-2.87-6.25-6.04-6.25-7.75,0-20.62,10.03-25.2,12.11-75.92,34.38-150.92,72.4-227.08,106.19-3.6,1.63-14.16,7.16-17.39,7.16h-.24c-2.5-.26-10.25-5.53-13.73-7.03-46.32-20.18-91.36-42.12-137.62-64.13-51.57-24.48-102.89-49.55-154.21-74.55L453.98,70.9M731.52,211.66h-213.1c-2.56,0-10.37,15.69,5.8,17.25h205.84l1.46-17.25ZM453.36,0l-24.1,11.46L123.88,156.06,0,214.72l123.27,60.03,12.69,6.19c46.44,22.66,94.47,46.03,142.07,68.62,9.03,4.3,18.06,8.59,27.1,12.89,35.88,17.12,72.99,34.83,110.52,51.24.37.2.73.46,1.16.65,7.51,4.36,17.76,10.35,31.86,11.72l2.8.26h3.05c15.62,0,28.07-5.99,39.06-11.26.73-.39,1.46-.72,1.95-.91,41.62-18.49,83.48-38.48,123.94-57.82,16.05-7.68,32.41-15.5,48.82-23.24v6.19c-5.55,8.4-11.35,17.64-16.54,28.39-11.23,23.18-33.56,85.1-30.88,128.72,1.59,26.11,15.01,53.33,34.24,69.27,24.23,20.12,57.91,24.35,81.9,24.35,21.48,0,61.57-3.39,89.1-26.24,43.82-36.33,33.99-88.87,30.27-108.66-.24-1.43-.55-2.86-.79-4.24-7.27-41.02-22.03-79.04-43.94-113.22l-.73-126.31-.19-27.22-18.25-19.01c-13.49-14.06-28.68-19.53-37.71-22.79-.98-.33-1.89-.65-2.81-1.04-36.37-17.06-73.35-34.96-109.06-52.28-53.76-26.04-109.36-53-165.07-78.06l-24.35-10.94h-.13Z"/>
  <path class="cls-2" d="M471.43,529c-40.95,0-141.58-5.41-191.38-55.28-5-5.02-21.36-22.79-21.36-40.95v-156.32l30.7-.46c14.22,0,23.98,6.9,29.23,10.55.61.39,1.16.85,1.77,1.24,21.85,11.07,45.1,21.81,67.56,32.23,21.73,10.09,44.12,20.51,66.15,31.58,52.66-21.29,106.98-48.57,159.46-75l22.64-11.39c6.29-3.12,14.65-6.9,23.55-7.81l33.38-3.39v172.53c0,25.2-23.38,46.88-28.07,50.98-36.99,32.29-109.43,51.5-193.76,51.5h.12Z"/>
  <path class="cls-2" d="M662.69,289.79v136.73c0,7.81-11.23,20.83-16.9,25.72-33.14,28.9-104.05,44.14-174.41,44.14s-139.08-14.98-170.51-46.49c-2.56-2.54-11.72-14.52-11.72-17.19v-124.22h.18c7.38,0,11.9,5.6,17.51,8.4,47.66,24.16,96.97,44.86,144.51,69.34,1.22.65,2.44.98,3.54.98,4.39,0,7.75-4.36,9.7-5.14,61.58-24.87,125.16-57.68,184.55-87.5,3.97-1.95,9.27-4.43,13.49-4.82M723.71,218.17l-66.82,6.77c-13.54,1.37-25.08,6.45-33.63,10.74-7.44,3.78-15.01,7.55-22.64,11.39-48.03,24.15-97.58,49.09-145.49,69.14-18.49-9.05-36.98-17.64-55.11-26.04-22.52-10.48-43.82-20.38-64.93-30.99-6.9-4.88-22.7-15.76-45.77-15.76h-1.1l-60.17.91v188.42c0,20.96,8.79,36.13,17.39,48.18,2.75,3.84,8.24,11.13,13.55,16.54,57.73,57.88,167.7,64.13,212.25,64.13s152.14-5.73,213.04-58.86c11.78-10.28,39.24-38.34,39.24-76.17v-208.34l.19-.07Z"/>
  <path class="cls-3" d="M692.47,514.28c-5.49-4.56-10.37-14.52-10.81-22.07-1.46-24.55,13.37-72.33,24.17-94.6,6.71-13.8,15.74-25.72,24.16-38.28-3.17-36.52,4.34-81.71.12-117.26-1.89-15.76-24.78,2.93-31.25,5.86-75.91,34.38-150.92,72.4-227.08,106.19-3.72,1.63-14.71,7.42-17.64,7.16-2.5-.26-10.26-5.53-13.73-7.03-46.32-20.18-91.36-42.12-137.62-64.13-51.57-24.48-102.89-49.55-154.21-74.55L453.97,70.97c92.03,41.34,182.23,87.24,273.65,130.08,7.39,3.45,16.9,5.21,22.21,10.68l.86,147.53c23,30.53,38.08,64.98,44.92,103.65,3.17,17.84,8.48,36.59-7.02,49.41-18.55,15.37-77.57,17.26-96.05,1.96h-.06ZM731.52,211.66h-213.1c-2.57,0-10.37,15.69,5.8,17.25h205.84l1.46-17.25Z"/>
  <path class="cls-4" d="M692.47,514.28c-5.49-4.56-10.37-14.52-10.81-22.07-1.46-24.55,13.37-72.33,24.17-94.6,6.71-13.8,15.74-25.72,24.16-38.28-3.17-36.52,4.34-81.71.12-117.26-1.89-15.76-24.78,2.93-31.25,5.86-75.91,34.38-150.92,72.4-227.08,106.19-3.72,1.63-14.71,7.42-17.64,7.16-2.5-.26-10.26-5.53-13.73-7.03-46.32-20.18-91.36-42.12-137.62-64.13-51.57-24.48-102.89-49.55-154.21-74.55L453.97,70.97c92.03,41.34,182.23,87.24,273.65,130.08,7.39,3.45,16.9,5.21,22.21,10.68l.86,147.53c23,30.53,38.08,64.98,44.92,103.65,3.17,17.84,8.48,36.59-7.02,49.41-18.55,15.37-77.57,17.26-96.05,1.96h-.06ZM731.52,211.66h-213.1c-2.57,0-10.37,15.69,5.8,17.25h205.84l1.46-17.25Z"/>
  <path class="cls-3" d="M662.69,289.79v136.72c0,7.81-11.23,20.83-16.9,25.72-66.03,57.62-281.82,60.94-344.92-2.28-2.56-2.54-11.72-14.52-11.72-17.19v-124.22c7.51-.13,12.08,5.53,17.76,8.4,47.66,24.15,96.97,44.86,144.51,69.34,6.17,3.32,10.74-3.19,13.18-4.17,61.58-24.87,125.17-57.69,184.55-87.5,3.97-1.95,9.28-4.43,13.49-4.82h.06Z"/>
  <path class="cls-1" d="M662.69,289.79v136.72c0,7.81-11.23,20.83-16.9,25.72-66.03,57.62-281.82,60.94-344.92-2.28-2.56-2.54-11.72-14.52-11.72-17.19v-124.22c7.51-.13,12.08,5.53,17.76,8.4,47.66,24.15,96.97,44.86,144.51,69.34,6.17,3.32,10.74-3.19,13.18-4.17,61.58-24.87,125.17-57.69,184.55-87.5,3.97-1.95,9.28-4.43,13.49-4.82h.06Z"/>
  <path class="cls-3" d="M795.54,462.91c-6.83-38.74-21.91-73.18-44.91-103.65l-.86-147.53c-4.21-4.36-11.17-6.38-17.52-8.79l-2.19,25.91c-1.04,2.54-2.07,5.08-3.17,7.55,1.64.85,2.87,2.54,3.23,5.6,4.27,35.48-3.29,80.67-.12,117.26-8.42,12.57-17.45,24.48-24.16,38.28-10.8,22.27-25.69,70.06-24.17,94.6.49,7.55,5.31,17.51,10.8,22.07,18.49,15.36,77.57,13.41,96.05-1.95,15.44-12.83,10.13-31.58,7.02-49.42v.07Z"/>
</svg>