<?xml version="1.0" encoding="UTF-8"?>
<svg id="Layer_1" data-name="Layer 1" xmlns="http://www.w3.org/2000/svg" xmlns:xlink="http://www.w3.org/1999/xlink" viewBox="0 0 830.56 905.22">
  <defs>
    <style>
      .cls-1, .cls-2 {
        fill: #f5ca78;
      }

      .cls-1, .cls-3, .cls-4 {
        stroke: #fff;
        stroke-width: .8px;
      }

      .cls-5 {
        fill: url(#linear-gradient-2);
      }

      .cls-6 {
        mask: url(#mask-1);
      }

      .cls-7, .cls-3 {
        fill: #fff;
      }

      .cls-8 {
        mask: url(#mask);
      }

      .cls-9 {
        fill: url(#linear-gradient-4);
      }

      .cls-10 {
        mask: url(#mask-2);
      }

      .cls-11 {
        fill: url(#linear-gradient-3);
      }

      .cls-4 {
        fill: none;
      }

      .cls-12 {
        fill: url(#linear-gradient);
      }
    </style>
    <mask id="mask" x="159.34" y="352.92" width="512.67" height="552.3" maskUnits="userSpaceOnUse">
      <g id="path-2-inside-1_512_25523" data-name="path-2-inside-1 512 25523">
        <path class="cls-7" d="M478.98,417.72c17.82,0,35.28.36,52.32,1.38,45.66,2.7,69.36,28.2,72.66,57.54,4.14,37.2,4.92,104.46,0,141.24-.9,6.78-2.16,16.68-11.28,26.88-17.46,19.62-50.7,26.28-68.34,28.74-3.18,35.16,4.14,73.56-.06,108.3-3.84,31.26-30.66,55.14-78.12,57.6-11.28.6-22.56,1.02-33.54,1.02-47.88,0-89.94-8.16-102.3-47.4l-.24-119.52c-19.14-3-54.66-10.74-70.92-31.86-6.9-8.94-7.86-17.04-8.4-22.08-10.68-100.68-6.96-123.36.78-146.22,7.5-22.2,16.44-37.5,37.02-46.68,11.82-5.28,23.94-6.9,31.92-7.5,13.8.6,27.84.84,42.06.84,44.94,0,91.5-2.28,136.32-2.28M478.98,357.72c-23.16,0-46.8.6-69.66,1.14-22.14.54-45,1.14-66.72,1.14-14.64,0-27.54-.24-39.42-.78l-3.48-.18-3.48.24c-18.96,1.38-36.48,5.58-52.08,12.54-43.38,19.32-59.88,54.12-69.42,82.26-11.7,34.62-14.82,66.12-3.6,171.78,1.38,12.78,4.98,32.16,20.52,52.38,13.68,17.76,33.24,31.56,58.5,41.4l.12,73.44v9.18l2.76,8.76c7.86,24.96,27,58.5,73.5,76.44,23.04,8.88,50.34,12.96,86.04,12.96,10.56,0,22.2-.36,36.6-1.08,74.04-3.78,126.9-47.04,134.58-110.22,2.82-23.34,1.68-46.5.66-66.96,0-.72-.06-1.38-.12-2.1,21.96-8.52,39.72-20.34,53.1-35.34,21.24-23.88,24.48-48.24,25.86-58.62,5.76-43.08,4.74-115.44.18-156.12-5.76-51.66-47.82-105.96-128.7-110.76-16.74-1.02-35.04-1.5-55.92-1.5h.18Z"/>
      </g>
    </mask>
    <mask id="mask-1" x="0" y="217.48" width="389.27" height="569" maskUnits="userSpaceOnUse">
      <g id="path-5-inside-2_512_25523" data-name="path-5-inside-2 512 25523">
        <path class="cls-7" d="M188.64,292.86c11.76,0,21.06,0,23.34.12,1.8.06,14.64.12,29.16.12,20.52,0,44.46-.06,45.6-.12,1.02,11.28,3,20.64,4.86,27.54,3.24,12.06,6.9,26.4,17.34,40.86,9.9,13.68,16.32,15.18,15.3,19.86-2.04,9.72-30.24,5.7-66.36,19.56,0,0-19.26,3.6-35.04,18.54-49.8,46.92-15.54,155.04-25.38,208.38,5.28,24.54,19.74,39.72,43.2,54.24,12.72,7.92,26.7,6.78,24.36,24.24-1.2,9.06-12.12,13.56-22.2,14.34-9.18.72-18.36,1.14-27.36,1.14-37.92,0-72.24-8.4-83.64-44.16v-125.04c-1.26.06-2.64.12-3.96.12-28.74,0-54.54-17.52-63.06-39.66v-180.42c6.84-19.74,35.88-39.54,61.26-39.54,5.88,0,39-.12,62.52-.12M341.52,230.28l-56.64,2.76c-4.32,0-24,.12-43.68.12-20.7,0-25.86-.06-27-.06-2.52-.12-7.26-.18-25.56-.18-15.72,0-35.76.06-49.14.12h-13.38c-50.52,0-102.36,35.04-117.96,79.8l-3.36,9.6v201.66l4.02,10.38c11.04,28.8,34.38,52.14,63.06,65.58v86.76l2.82,8.88c12.48,39.24,46.98,85.98,140.82,85.98,9.6,0,19.98-.42,31.86-1.32,41.34-3.12,72.36-29.76,77.16-66.3,2.88-21.78.18-61.44-50.4-82.5-.84-.36-1.86-.78-2.46-1.08-7.14-4.5-10.86-7.62-12.84-9.96,1.5-20.4,0-42.12-1.56-64.86-2.1-30.3-5.58-81,6.78-92.7,1.68-1.56,4.68-2.94,6.42-3.48l3.96-.78,4.98-1.92c11.64-4.44,22.86-6.3,32.76-7.92,8.28-1.38,16.08-2.64,24.18-5.28,34.98-11.4,44.28-38.7,46.68-49.92,3.36-15.9,2.46-39.72-21.12-62.7-1.92-1.86-2.76-2.7-4.26-4.74-3.6-4.98-5.22-10.74-7.86-20.52l-.18-.66c-1.5-5.64-2.52-11.46-3.06-17.4l-5.1-57.42.06.06Z"/>
      </g>
    </mask>
    <mask id="mask-2" x="54.39" y="0" width="329.01" height="330" maskUnits="userSpaceOnUse">
      <g id="path-8-inside-3_512_25523" data-name="path-8-inside-3 512 25523">
        <path class="cls-7" d="M220.38,64.8c121.38,0,135.42,185.04,13.02,199.44-5.4.66-10.68.96-15.72.96-124.2,0-134.04-185.58-11.82-199.5,4.98-.54,9.84-.84,14.52-.84M220.38,4.8c-6.96,0-14.16.42-21.3,1.26C101.76,17.16,55.2,99,59.46,174.12c4.26,75.06,60,151.08,158.22,151.08,7.44,0,15.06-.48,22.68-1.38,84.96-9.96,142.98-80.16,137.94-166.86C373.86,81.36,318.18,4.8,220.38,4.8Z"/>
      </g>
    </mask>
    <linearGradient id="linear-gradient" x1="3235.93" y1="3750.83" x2="-2593.07" y2="-2678.17" gradientTransform="translate(194 1010.4) scale(1 -1)" gradientUnits="userSpaceOnUse">
      <stop offset=".48" stop-color="#f8f5e3" stop-opacity="0"/>
      <stop offset=".5" stop-color="#f8f5e3" stop-opacity=".5"/>
      <stop offset=".51" stop-color="#f8f5e3" stop-opacity="0"/>
      <stop offset=".69" stop-color="#f8f5e3" stop-opacity="0"/>
      <stop offset=".9" stop-color="#f8f5e3" stop-opacity="0"/>
      <stop offset="1" stop-color="#f8f5e3" stop-opacity="0"/>
    </linearGradient>
    <linearGradient id="linear-gradient-2" x1="1806.97" y1="2448.33" x2="-1880.03" y2="-863.67" xlink:href="#linear-gradient"/>
    <linearGradient id="linear-gradient-3" x1="1909.3" y1="2549.37" x2="-1585.7" y2="-1215.63" xlink:href="#linear-gradient"/>
    <linearGradient id="linear-gradient-4" x1="3044.11" y1="3184.48" x2="-2256.89" y2="-2221.52" xlink:href="#linear-gradient"/>
  </defs>
  <path class="cls-3" d="M478.98,390.06c20.24,0,37.89.48,53.98,1.44,54.91,3.25,93.25,35.64,98.44,82.05,4.24,37.96,5.26,108.13-.05,147.97-1.12,8.42-3.33,25.15-18.01,41.63-13.39,15.02-33.55,26.11-60.29,32.87l-1.84.46.03,1.9c.06,4.1.2,8.27.37,12.49l.59,12.86c1.02,20.19,2.03,40.87-.46,61.39-2.25,18.57-10.78,38.09-27.42,53.42-16.1,14.84-39.95,25.87-73.43,28.16l-3.27.19c-13.89.72-25,1.02-34.97,1.02h-3.88l.05.11c-15.48-.05-40.19-.69-63.98-8.42-25-8.13-48.77-24.01-59.74-55.22l-1.02-3.07-1.28-4.03-.17-99.41v-1.84s-1.78-.48-1.78-.48l-5.41-1.52c-26.55-7.89-45.92-19.81-58.05-35.54h0c-11.77-15.31-13.33-29.76-13.97-36.04h0c-10.56-100.01-7.97-128.28,2.11-157.98h0c7.97-23.55,20.27-48.97,51.93-63.08h0c12.13-5.4,25.95-8.7,41.19-9.82h0s1.66-.11,1.66-.11h1.54l9.49.39c9.7.34,20.05.51,31.37.51,22.11,0,45.24-.6,67.49-1.14h0c22.68-.6,46.05-1.14,68.82-1.14Z"/>
  <path class="cls-7" d="M478.98,417.72c17.82,0,35.28.36,52.32,1.38,45.66,2.7,69.36,28.2,72.66,57.54,4.14,37.2,4.92,104.46,0,141.24-.9,6.78-2.16,16.68-11.28,26.88-17.46,19.62-50.7,26.28-68.34,28.74-3.18,35.16,4.14,73.56-.06,108.3-3.84,31.26-30.66,55.14-78.12,57.6-11.28.6-22.56,1.02-33.54,1.02-47.88,0-89.94-8.16-102.3-47.4l-.24-119.52c-19.14-3-54.66-10.74-70.92-31.86-6.9-8.94-7.86-17.04-8.4-22.08-10.68-100.68-6.96-123.36.78-146.22,7.5-22.2,16.44-37.5,37.02-46.68,11.82-5.28,23.94-6.9,31.92-7.5,13.8.6,27.84.84,42.06.84,44.94,0,91.5-2.28,136.32-2.28M478.98,357.72c-23.16,0-46.8.6-69.66,1.14-22.14.54-45,1.14-66.72,1.14-14.64,0-27.54-.24-39.42-.78l-3.48-.18-3.48.24c-18.96,1.38-36.48,5.58-52.08,12.54-43.38,19.32-59.88,54.12-69.42,82.26-11.7,34.62-14.82,66.12-3.6,171.78,1.38,12.78,4.98,32.16,20.52,52.38,13.68,17.76,33.24,31.56,58.5,41.4l.12,73.44v9.18l2.76,8.76c7.86,24.96,27,58.5,73.5,76.44,23.04,8.88,50.34,12.96,86.04,12.96,10.56,0,22.2-.36,36.6-1.08,74.04-3.78,126.9-47.04,134.58-110.22,2.82-23.34,1.68-46.5.66-66.96,0-.72-.06-1.38-.12-2.1,21.96-8.52,39.72-20.34,53.1-35.34,21.24-23.88,24.48-48.24,25.86-58.62,5.76-43.08,4.74-115.44.18-156.12-5.76-51.66-47.82-105.96-128.7-110.76-16.74-1.02-35.04-1.5-55.92-1.5h.18Z"/>
  <g class="cls-8">
    <path class="cls-7" d="M531.3,419.1l-.29,4.79h0s.28-4.79.28-4.79ZM603.96,476.64l4.77-.53h0s-4.77.53-4.77.53ZM603.96,617.88l-4.76-.64h0s4.76.64,4.76.64ZM592.68,644.76l-3.58-3.2h-.01s3.59,3.2,3.59,3.2ZM524.34,673.5l-.66-4.75-3.78.52-.34,3.8,4.78.43ZM524.28,781.8l4.76.58h0s-4.76-.58-4.76-.58ZM446.16,839.4l-.25-4.79h0l.25,4.79ZM310.32,793.02h-4.8s0,.74,0,.74l.22.7,4.58-1.44ZM310.08,673.5h4.8s0-4.11,0-4.11l-4.05-.63-.74,4.74ZM239.16,641.64l3.8-2.93h0s-3.8,2.93-3.8,2.93ZM230.76,619.56l-4.77.5h0s4.77-.5,4.77-.5ZM231.54,473.34l4.55,1.54h0s-4.55-1.54-4.55-1.54ZM268.56,426.66l1.96,4.38h0s-1.96-4.38-1.96-4.38ZM300.48,419.16l.21-4.8h-.28s-.28,0-.28,0l.36,4.79ZM409.32,358.86l-.11-4.8h0l.12,4.8ZM303.18,359.22l-.25,4.79h.03s.22-4.79.22-4.79ZM299.7,359.04l.25-4.79h-.29s-.29,0-.29,0l.33,4.79ZM296.22,359.28l-.33-4.79h-.02s.35,4.79.35,4.79ZM244.14,371.82l1.95,4.38h0s-1.96-4.38-1.96-4.38ZM174.72,454.08l-4.55-1.54h0s4.55,1.54,4.55,1.54ZM171.12,625.86l-4.77.5h0s4.77-.5,4.77-.5ZM191.64,678.24l-3.81,2.92h0s3.8-2.92,3.8-2.92ZM250.14,719.64h4.8s0-3.28,0-3.28l-3.05-1.19-1.74,4.47ZM250.26,793.08h4.8s-4.8,0-4.8,0ZM250.26,802.26h-4.8v.74l.22.7,4.58-1.44ZM253.02,811.02l4.58-1.44h0l-4.58,1.44ZM326.52,887.46l-1.73,4.48h0l1.73-4.48ZM449.16,899.34l.24,4.79h0l-.24-4.79ZM583.74,789.12l4.76.58h0l-4.76-.58ZM584.4,722.16h-4.8v.24s4.8-.24,4.8-.24ZM584.28,720.06l-1.73-4.48-3.35,1.3.3,3.58,4.78-.4ZM637.38,684.72l3.58,3.19h0l-3.59-3.19ZM663.24,626.1l-4.76-.64h0s4.76.64,4.76.64ZM663.42,469.98l-4.77.53h0s4.77-.53,4.77-.53ZM534.72,359.22l-.29,4.79h.01l.28-4.79ZM478.98,417.72v4.8c17.76,0,35.12.36,52.03,1.37l.29-4.79.29-4.79c-17.17-1.03-34.73-1.39-52.61-1.39v4.8ZM531.3,419.1l-.28,4.79c21.98,1.3,38.26,8.06,49.36,17.62,11.09,9.56,17.29,22.14,18.81,35.66l4.77-.54,4.77-.54c-1.78-15.82-9.08-30.66-22.08-41.86-12.99-11.19-31.39-18.54-55.07-19.94l-.28,4.79ZM603.96,476.64l-4.77.53c4.11,36.91,4.87,103.77.01,140.07l4.76.64,4.76.64c4.99-37.25,4.18-104.92.01-142.41l-4.77.53ZM603.96,617.88l-4.76-.63c-.88,6.61-2,15.25-10.1,24.31l3.58,3.2,3.58,3.2c10.15-11.34,11.54-22.5,12.46-29.45l-4.76-.63ZM592.68,644.76l-3.59-3.19c-7.95,8.94-19.75,15.16-32.09,19.46-12.28,4.28-24.65,6.5-33.32,7.72l.66,4.75.67,4.75c8.97-1.25,22.03-3.58,35.15-8.15,13.05-4.55,26.6-11.47,36.11-22.15l-3.59-3.19ZM524.34,673.5l-4.78-.43c-1.63,17.98-.56,36.74.34,54.98.91,18.38,1.66,36.28-.38,53.18l4.77.58,4.76.58c2.16-17.84,1.35-36.52.44-54.8-.91-18.44-1.92-36.46-.37-53.64l-4.78-.43ZM524.28,781.8l-4.76-.59c-3.47,28.24-27.68,51.01-73.6,53.39l.25,4.79.25,4.79c49-2.54,78.42-27.53,82.63-61.81l-4.76-.58ZM446.16,839.4l-.25-4.79c-11.23.6-22.42,1.01-33.29,1.01v9.6c11.1,0,22.47-.43,33.79-1.03l-.25-4.79ZM412.62,840.42v-4.8c-23.78,0-45.55-2.05-62.75-8.66-16.98-6.53-29.32-17.43-34.98-35.38l-4.58,1.44-4.58,1.44c6.71,21.29,21.57,34.1,40.68,41.45,18.89,7.27,42.1,9.31,66.19,9.31v-4.8ZM310.32,793.02h4.8s-.24-119.53-.24-119.53h-4.8s-4.8.02-4.8.02l.24,119.52h4.8ZM310.08,673.5l.74-4.74c-9.43-1.48-22.74-4.1-35.61-8.89-12.96-4.82-24.92-11.64-32.25-21.16l-3.8,2.93-3.8,2.93c8.93,11.6,22.86,19.22,36.51,24.29,13.74,5.11,27.76,7.86,37.47,9.38l.74-4.74ZM239.16,641.64l3.8-2.93c-6.08-7.87-6.92-14.89-7.43-19.66l-4.77.51-4.77.51c.57,5.31,1.65,14.5,9.37,24.5l3.8-2.93ZM230.76,619.56l4.77-.5c-10.68-100.64-6.82-122.39.55-144.18l-4.55-1.54-4.55-1.54c-8.1,23.94-11.69,47.54-1.01,148.26l4.77-.5ZM231.54,473.34l4.55,1.54c7.32-21.67,15.64-35.45,34.43-43.83l-1.96-4.38-1.96-4.38c-22.37,9.98-31.93,26.8-39.61,49.53l4.55,1.54ZM268.56,426.66l1.96,4.38c11.09-4.95,22.58-6.51,30.32-7.1l-.36-4.79-.36-4.79c-8.22.62-20.97,2.3-33.52,7.9l1.96,4.38ZM300.48,419.16l-.21,4.8c13.88.6,28,.84,42.27.84v-9.6c-14.17,0-28.14-.24-41.85-.84l-.21,4.8ZM342.54,420v4.8c22.54,0,45.48-.57,68.32-1.14,22.87-.57,45.66-1.14,68-1.14v-9.6c-22.48,0-45.39.57-68.23,1.14-22.87.57-45.69,1.14-68.09,1.14v4.8ZM478.98,357.72v-4.8c-23.23,0-46.93.6-69.77,1.14l.11,4.8.11,4.8c22.88-.54,46.46-1.14,69.55-1.14v-4.8ZM409.32,358.86l-.12-4.8c-22.16.54-44.95,1.14-66.6,1.14v9.6c21.79,0,44.72-.6,66.84-1.14l-.12-4.8ZM342.6,360v-4.8c-14.59,0-27.41-.24-39.2-.77l-.22,4.79-.22,4.8c11.97.54,24.95.78,39.64.78v-4.8ZM303.18,359.22l.25-4.79-3.48-.18-.25,4.79-.25,4.79,3.48.18.25-4.79ZM299.7,359.04l-.33-4.79-3.48.24.33,4.79.33,4.79,3.48-.24-.33-4.79ZM296.22,359.28l-.35-4.79c-19.45,1.42-37.52,5.73-53.69,12.94l1.96,4.38,1.96,4.38c15.03-6.71,32-10.79,50.47-12.14l-.35-4.79ZM244.14,371.82l-1.95-4.38c-45.2,20.13-62.31,56.48-72.01,85.1l4.55,1.54,4.55,1.54c9.38-27.66,25.26-60.91,66.83-79.42l-1.95-4.38ZM174.72,454.08l-4.55-1.54c-12.06,35.67-15.06,68.06-3.83,173.82l4.77-.5,4.77-.51c-11.21-105.56-7.97-136.16,3.37-169.73l-4.55-1.54ZM171.12,625.86l-4.77.52c1.43,13.24,5.2,33.6,21.49,54.79l3.81-2.92,3.81-2.93c-14.79-19.25-18.22-37.65-19.55-49.97l-4.77.52ZM191.64,678.24l-3.8,2.93c14.32,18.59,34.66,32.86,60.56,42.94l1.74-4.47,1.74-4.47c-24.62-9.59-43.4-22.93-56.44-39.86l-3.8,2.93ZM250.14,719.64h-4.8s.12,73.45.12,73.45h4.8s4.8-.01,4.8-.01l-.12-73.44h-4.8ZM250.26,793.08h-4.8v9.18h9.6v-9.18h-4.8ZM250.26,802.26l-4.58,1.44,2.76,8.76,4.58-1.44,4.58-1.44-2.76-8.76-4.58,1.44ZM253.02,811.02l-4.58,1.44c8.18,25.97,28.15,60.88,76.35,79.48l1.73-4.48,1.73-4.48c-44.8-17.29-63.11-49.45-70.65-73.4l-4.58,1.44ZM326.52,887.46l-1.73,4.48c23.78,9.17,51.72,13.28,87.77,13.28v-9.6c-35.36,0-62.02-4.04-84.31-12.64l-1.73,4.48ZM412.56,900.42v4.8c10.67,0,22.39-.37,36.84-1.09l-.24-4.79-.24-4.79c-14.35.72-25.91,1.07-36.36,1.07v4.8ZM449.16,899.34l.24,4.79c75.81-3.87,131.08-48.43,139.1-114.44l-4.76-.58-4.76-.58c-7.34,60.35-57.79,102.32-130.06,106.01l.24,4.79ZM583.74,789.12l4.76.58c2.88-23.81,1.71-47.36.69-67.78l-4.79.24-4.79.24c1.02,20.51,2.13,43.27-.63,66.14l4.76.58ZM584.4,722.16h4.8c0-.96-.08-1.84-.14-2.5l-4.78.4-4.78.4c.07.78.1,1.22.1,1.7h4.8ZM584.28,720.06l1.73,4.48c22.55-8.75,40.98-20.96,54.95-36.62l-3.58-3.19-3.58-3.2c-12.79,14.35-29.88,25.77-51.25,34.06l1.73,4.48ZM637.38,684.72l3.59,3.19c22.22-24.99,25.62-50.55,27.03-61.18l-4.76-.63-4.76-.63c-1.35,10.13-4.43,33.29-24.69,56.06l3.59,3.19ZM663.24,626.1l4.76.64c5.83-43.55,4.79-116.32.19-157.29l-4.77.53-4.77.54c4.53,40.39,5.53,112.34-.17,154.95l4.76.64ZM663.42,469.98l4.77-.53c-6.01-53.91-49.9-110.08-133.19-115.02l-.28,4.79-.28,4.79c78.47,4.66,118.7,57.09,124.21,106.5l4.77-.53ZM534.72,359.22l.29-4.79c-16.86-1.03-35.26-1.51-56.21-1.51v9.6c20.81,0,39.01.48,55.63,1.49l.29-4.79ZM478.8,357.72v4.8h.18v-9.6h-.18v4.8Z"/>
  </g>
  <path class="cls-3" d="M104.34,577.45l-1.79-.47c-28.03-7.39-51.81-26.6-62.43-51.66l-.99-2.44-1.82-4.74v-190.22l1.49-4.42h0c5.43-15.54,18.1-30.08,34.11-40.75,16.02-10.67,35.15-17.32,53.26-17.32h13.51c13.32-.06,33.35-.12,49.01-.12,18.53,0,22.81.06,24.63.18h.23s.11,0,.2,0c.18,0,.45,0,.83,0,.77,0,2.02.01,3.99.02,3.95.02,10.82.03,22.67.03,21.04,0,41.35-.06,44.57-.12h.07l26.07-1.27,2.32,26.44c.67,7.75,2.02,15.45,4.04,22.86l.18.66h0c2.81,10.58,5.6,21,12.9,31.12h0c3.13,4.39,5.67,6.8,7.96,9.03,4.56,4.44,15.71,15.42,12.05,32.7-2.49,11.72-9.43,18.47-17.81,22.7-8.5,4.29-18.39,5.93-26.61,7.29-10.07,1.63-22.65,3.72-36.3,8.6l-2.75,1.01-2.28.87-2.44.45h-.06s-.05.02-.05.02h-.02s-.02,0-.04.01c-.03,0-.07.02-.12.03-.1.02-.24.06-.41.11-.35.09-.86.24-1.49.43-1.26.39-3.02,1-5.06,1.88-4.07,1.75-9.34,4.6-14.02,8.99h0c-12.06,11.37-16.92,30.17-18.52,51.18-1.6,21.1.07,45.07,1.62,67.31h0c1.69,24.8,3.34,48.07.8,67.94l-.06.52.16.51c3.42,10.78,10.66,19.93,29.46,31.61h0c1.65,1.02,4.11,2.02,6.39,2.99h.02c4.54,1.9,13.35,5.59,20.47,13.01,6.58,6.86,11.84,17.01,10.62,32.23l-.33,3.11c-2.67,20.02-20.37,35.29-45.07,38.02l-2.41.23c-11.05.84-20.71,1.25-29.46,1.25h-.57l-.12.05c-29.83-.07-53.8-5.48-71.95-16.01-17.07-9.89-29.12-24.37-36.08-43.47l-1.32-3.88-1.27-4.07v-104.45Z"/>
  <path class="cls-7" d="M188.64,292.86c11.76,0,21.06,0,23.34.12,1.8.06,14.64.12,29.16.12,20.52,0,44.46-.06,45.6-.12,1.02,11.28,3,20.64,4.86,27.54,3.24,12.06,6.9,26.4,17.34,40.86,9.9,13.68,16.32,15.18,15.3,19.86-2.04,9.72-30.24,5.7-66.36,19.56,0,0-19.26,3.6-35.04,18.54-49.8,46.92-15.54,155.04-25.38,208.38,5.28,24.54,19.74,39.72,43.2,54.24,12.72,7.92,26.7,6.78,24.36,24.24-1.2,9.06-12.12,13.56-22.2,14.34-9.18.72-18.36,1.14-27.36,1.14-37.92,0-72.24-8.4-83.64-44.16v-125.04c-1.26.06-2.64.12-3.96.12-28.74,0-54.54-17.52-63.06-39.66v-180.42c6.84-19.74,35.88-39.54,61.26-39.54,5.88,0,39-.12,62.52-.12M341.52,230.28l-56.64,2.76c-4.32,0-24,.12-43.68.12-20.7,0-25.86-.06-27-.06-2.52-.12-7.26-.18-25.56-.18-15.72,0-35.76.06-49.14.12h-13.38c-50.52,0-102.36,35.04-117.96,79.8l-3.36,9.6v201.66l4.02,10.38c11.04,28.8,34.38,52.14,63.06,65.58v86.76l2.82,8.88c12.48,39.24,46.98,85.98,140.82,85.98,9.6,0,19.98-.42,31.86-1.32,41.34-3.12,72.36-29.76,77.16-66.3,2.88-21.78.18-61.44-50.4-82.5-.84-.36-1.86-.78-2.46-1.08-7.14-4.5-10.86-7.62-12.84-9.96,1.5-20.4,0-42.12-1.56-64.86-2.1-30.3-5.58-81,6.78-92.7,1.68-1.56,4.68-2.94,6.42-3.48l3.96-.78,4.98-1.92c11.64-4.44,22.86-6.3,32.76-7.92,8.28-1.38,16.08-2.64,24.18-5.28,34.98-11.4,44.28-38.7,46.68-49.92,3.36-15.9,2.46-39.72-21.12-62.7-1.92-1.86-2.76-2.7-4.26-4.74-3.6-4.98-5.22-10.74-7.86-20.52l-.18-.66c-1.5-5.64-2.52-11.46-3.06-17.4l-5.1-57.42.06.06Z"/>
  <g class="cls-6">
    <path class="cls-7" d="M211.98,292.98l-.25,4.79h.05s.05,0,.05,0l.16-4.8ZM286.74,292.98l4.78-.43-.42-4.6-4.62.24.25,4.79ZM291.6,320.52l4.64-1.25h0s-4.63,1.25-4.63,1.25ZM308.94,361.38l-3.89,2.81h0s3.89-2.81,3.89-2.81ZM324.24,381.24l-4.69-1.02v.04s4.69.99,4.69.99ZM257.88,400.8l.88,4.72.43-.08.41-.16-1.72-4.48ZM222.84,419.34l3.29,3.49h0s-3.3-3.49-3.3-3.49ZM197.46,627.72l-4.72-.87-.17.94.2.94,4.69-1.01ZM240.66,681.96l2.54-4.07h-.01s-2.53,4.07-2.53,4.07ZM265.02,706.2l-4.76-.64h0s4.76.64,4.76.64ZM242.82,720.54l-.37-4.79h0l.38,4.79ZM131.82,677.52h-4.8v.74l.23.71,4.57-1.46ZM131.82,552.48h4.8v-5.03l-5.03.24.23,4.79ZM64.8,512.94h-4.8v.89l.32.83,4.48-1.72ZM64.8,332.52l-4.54-1.57-.26.76v.81h4.8ZM341.52,230.28l.23,4.79,10.82-.53-7.66-7.66-3.39,3.39ZM284.88,233.04v4.8h.23s-.23-4.8-.23-4.8ZM214.2,233.1l-.23,4.79h.11s.11,0,.11,0v-4.8ZM139.5,233.04v4.8h.02s-.02-4.8-.02-4.8ZM8.16,312.84l4.53,1.59h0s-4.53-1.59-4.53-1.59ZM4.8,322.44l-4.53-1.59-.27.77v.82h4.8ZM4.8,524.1H0v.9l.32.84,4.48-1.73ZM8.82,534.48l4.48-1.72v-.02s-4.48,1.73-4.48,1.73ZM71.88,600.06h4.8v-3.05l-2.76-1.29-2.04,4.34ZM71.88,686.82h-4.8v.74l.23.71,4.58-1.45ZM74.7,695.7l-4.57,1.45h0l4.57-1.45ZM247.38,780.36l-.36-4.79h0l.36,4.79ZM324.54,714.06l-4.76-.63h0s4.76.63,4.76.63ZM274.14,631.56l-1.89,4.41.05.02,1.84-4.43ZM271.68,630.48l-2.56,4.06.2.13.21.1,2.15-4.29ZM258.84,620.52l-4.79-.35-.14,1.96,1.27,1.5,3.66-3.1ZM257.28,555.66l4.79-.33h0l-4.79.33ZM264.06,462.96l-3.27-3.52-.03.03,3.3,3.49ZM270.48,459.48l-.93-4.71-.25.05-.24.08,1.42,4.58ZM274.44,458.7l.93,4.71.41-.08.39-.15-1.73-4.48ZM279.42,456.78l-1.71-4.48h-.02s1.73,4.48,1.73,4.48ZM312.18,448.86l.78,4.74h.01s-.79-4.74-.79-4.74ZM336.36,443.58l-1.49-4.56h0l1.49,4.56ZM383.04,393.66l4.69,1h0s-4.7-1-4.7-1ZM361.92,330.96l3.35-3.44h-.01s-3.34,3.44-3.34,3.44ZM357.66,326.22l-3.89,2.81.02.03,3.87-2.84ZM349.8,305.7l4.63-1.25h0s-4.63,1.25-4.63,1.25ZM349.62,305.04l-4.64,1.23v.03s4.64-1.26,4.64-1.26ZM346.56,287.64l-4.78.42h0s4.78-.42,4.78-.42ZM341.46,230.22l3.39-3.39-9.34-9.34,1.17,13.16,4.78-.42ZM188.64,292.86v4.8c11.88,0,20.97,0,23.09.11l.25-4.79.25-4.79c-2.45-.13-11.96-.13-23.59-.13v4.8ZM211.98,292.98l-.16,4.8c1.9.06,14.86.12,29.32.12v-9.6c-14.58,0-27.3-.06-29-.12l-.16,4.8ZM241.14,293.1v4.8c20.38,0,44.55-.06,45.85-.13l-.25-4.79-.25-4.79s-.03,0-.3,0c-.23,0-.54,0-.94.01-.79,0-1.9.01-3.26.02-2.72.01-6.46.03-10.8.04-8.69.02-19.8.04-30.06.04v4.8ZM286.74,292.98l-4.78.43c1.05,11.6,3.09,21.23,5.01,28.36l4.63-1.25,4.63-1.25c-1.8-6.67-3.72-15.76-4.71-26.72l-4.78.43ZM291.6,320.52l-4.64,1.25c3.23,12.01,7.06,27.16,18.08,42.42l3.89-2.81,3.89-2.81c-9.86-13.66-13.34-27.18-16.6-39.3l-4.64,1.25ZM308.94,361.38l-3.89,2.81c5.21,7.21,9.57,11.26,12.27,13.91,1.43,1.41,2,2.05,2.25,2.47.08.13.03.09,0-.08-.03-.18,0-.3-.02-.28l4.69,1.02,4.69,1.02c.55-2.51.02-4.73-1.15-6.66-.98-1.61-2.45-3.08-3.73-4.34-2.73-2.68-6.54-6.22-11.22-12.7l-3.89,2.81ZM324.24,381.24l-4.7-.99s-.01.04-.02.05c-.02.03-.08.12-.27.28-.42.34-1.24.81-2.72,1.32-3.03,1.05-7.43,1.83-13.46,2.82-11.79,1.94-28.32,4.46-46.9,11.59l1.72,4.48,1.72,4.48c17.54-6.73,33.16-9.13,45.02-11.08,5.79-.95,11.08-1.85,15.04-3.22,3.8-1.31,8.21-3.68,9.28-8.76l-4.7-.99ZM257.88,400.8q-.88-4.72-.88-4.72s0,0,0,0c0,0,0,0,0,0,0,0-.01,0-.02,0-.02,0-.04,0-.06.01-.05.01-.12.02-.21.04-.18.04-.42.09-.74.16-.62.14-1.51.36-2.61.67-2.2.61-5.28,1.59-8.87,3.05-7.16,2.92-16.48,7.84-24.93,15.83l3.3,3.49,3.3,3.49c7.34-6.95,15.53-11.3,21.95-13.91,3.2-1.3,5.92-2.16,7.82-2.69.95-.26,1.69-.45,2.18-.56.24-.06.43-.09.54-.12.06-.01.1-.02.12-.02.01,0,.02,0,.02,0t0,0s0,0,0,0h0s0,0-.88-4.72ZM222.84,419.34l-3.29-3.49c-26.6,25.07-30.29,65.92-29.18,105.41.56,19.85,2.38,40.14,3.41,58.27,1.05,18.38,1.3,34.61-1.04,47.32l4.72.87,4.72.87c2.58-13.96,2.24-31.24,1.19-49.61-1.06-18.61-2.85-38.29-3.4-57.99-1.11-39.63,2.97-76.3,26.17-98.15l-3.29-3.49ZM197.46,627.72l-4.69,1.01c5.66,26.3,21.31,42.42,45.37,57.31l2.53-4.08,2.53-4.08c-22.86-14.15-36.13-28.39-41.03-51.17l-4.69,1.01ZM240.66,681.96l-2.54,4.07c3.54,2.2,7.11,3.74,10.19,5.03,3.22,1.34,5.68,2.33,7.7,3.55,1.9,1.15,3,2.27,3.65,3.61.66,1.38,1.11,3.57.6,7.34l4.76.64,4.76.64c.66-4.96.25-9.17-1.46-12.74-1.72-3.6-4.47-5.96-7.36-7.7-2.77-1.67-6.05-2.97-8.95-4.18-3.05-1.27-5.99-2.56-8.82-4.32l-2.54,4.07ZM265.02,706.2l-4.76-.63c-.34,2.54-2.04,4.83-5.38,6.73-3.37,1.91-7.88,3.1-12.43,3.45l.37,4.79.37,4.79c5.53-.43,11.52-1.88,16.43-4.68,4.94-2.81,9.29-7.3,10.16-13.82l-4.76-.63ZM242.82,720.54l-.38-4.79c-9.08.71-18.13,1.13-26.98,1.13v9.6c9.15,0,18.45-.43,27.74-1.15l-.38-4.79ZM215.46,721.68v-4.8c-18.71,0-35.97-2.09-49.81-8.26-13.62-6.07-24.01-16.12-29.26-32.56l-4.57,1.46-4.57,1.46c6.16,19.31,18.63,31.34,34.49,38.42,15.65,6.97,34.5,9.08,53.72,9.08v-4.8ZM131.82,677.52h4.8v-125.04h-9.6v125.04h4.8ZM131.82,552.48l-.23-4.79c-1.26.06-2.54.11-3.73.11v9.6c1.45,0,2.93-.07,4.19-.13l-.23-4.79ZM127.86,552.6v-4.8c-26.99,0-50.85-16.51-58.58-36.58l-4.48,1.72-4.48,1.72c9.31,24.21,37.05,42.74,67.54,42.74v-4.8ZM64.8,512.94h4.8v-180.42h-9.6v180.42h4.8ZM64.8,332.52l4.54,1.57c2.95-8.52,11-17.65,21.78-24.73,10.71-7.04,23.42-11.58,34.95-11.58v-9.6c-13.85,0-28.36,5.36-40.22,13.16-11.8,7.75-21.69,18.39-25.58,29.61l4.54,1.57ZM126.06,292.98v4.8c2.95,0,12.71-.03,24.66-.06,11.95-.03,26.11-.06,37.86-.06v-9.6c-11.77,0-25.93.03-37.89.06-11.96.03-21.7.06-24.63.06v4.8ZM341.52,230.28l-.23-4.79-56.64,2.76.23,4.79.23,4.79,56.64-2.76-.23-4.79ZM284.88,233.04v-4.8c-2.17,0-8.19.03-16.1.06-7.92.03-17.75.06-27.58.06v9.6c9.85,0,19.7-.03,27.62-.06,7.94-.03,13.91-.06,16.06-.06v-4.8ZM241.2,233.16v-4.8c-10.35,0-16.8-.01-20.82-.03-3.97-.02-5.61-.03-6.18-.03v9.6c.57,0,2.08.02,6.15.03,4.03.01,10.5.03,20.85.03v-4.8ZM214.2,233.1l.23-4.79c-2.66-.13-7.55-.19-25.79-.19v9.6c18.36,0,22.96.06,25.33.17l.23-4.79ZM188.64,232.92v-4.8c-15.73,0-35.78.06-49.16.12l.02,4.8.02,4.8c13.38-.06,33.41-.12,49.12-.12v-4.8ZM139.5,233.04v-4.8h-13.38v9.6h13.38v-4.8ZM126.12,233.04v-4.8c-52.38,0-106.16,36.16-122.49,83.02l4.53,1.58,4.53,1.58c14.87-42.66,64.77-76.58,113.43-76.58v-4.8ZM8.16,312.84l-4.53-1.59-3.36,9.6,4.53,1.59,4.53,1.59,3.36-9.6-4.53-1.59ZM4.8,322.44H0v10.14h9.6v-10.14h-4.8ZM4.8,332.58H0v180.42h9.6v-180.42h-4.8ZM4.8,513H0v11.1h9.6v-11.1h-4.8ZM4.8,524.1l-4.48,1.73,4.02,10.38,4.48-1.73,4.48-1.73-4.02-10.38-4.48,1.73ZM8.82,534.48l-4.48,1.72c11.54,30.1,35.84,54.31,65.5,68.21l2.04-4.34,2.04-4.34c-27.7-12.98-50.07-35.45-60.62-62.95l-4.48,1.72ZM71.88,600.06h-4.8v77.46h9.6v-77.46h-4.8ZM71.88,677.52h-4.8v9.3h9.6v-9.3h-4.8ZM71.88,686.82l-4.58,1.45,2.82,8.88,4.57-1.45,4.58-1.45-2.82-8.88-4.57,1.45ZM74.7,695.7l-4.57,1.45c6.46,20.32,18.68,42.75,41.58,60.08,22.91,17.35,56.08,29.25,103.82,29.25v-9.6c-46.1,0-77.11-11.47-98.02-27.3-20.94-15.85-32.2-36.41-38.22-55.34l-4.57,1.46ZM215.52,781.68v4.8c9.74,0,20.24-.43,32.22-1.33l-.36-4.79-.36-4.79c-11.78.89-22.04,1.31-31.5,1.31v4.8ZM247.38,780.36l.36,4.79c43.2-3.26,76.41-31.29,81.56-70.46l-4.76-.62-4.76-.62c-4.45,33.91-33.28,59.16-72.76,62.14l.36,4.79ZM324.54,714.06l4.76.63c1.51-11.4,1.6-27.72-5.51-44.06-7.17-16.49-21.45-32.53-47.8-43.5l-1.84,4.43-1.84,4.43c24.23,10.09,36.58,24.41,42.69,38.47,6.17,14.2,6.17,28.6,4.8,38.98l4.76.63ZM274.14,631.56l1.89-4.41c-.99-.43-1.77-.75-2.2-.97l-2.15,4.3-2.15,4.29c.77.38,2.03.91,2.72,1.2l1.89-4.41ZM271.68,630.48l2.56-4.06c-7.02-4.42-10.24-7.23-11.74-9l-3.66,3.1-3.66,3.1c2.46,2.91,6.69,6.34,13.94,10.92l2.56-4.06ZM258.84,620.52l4.79.35c1.53-20.81,0-42.88-1.56-65.54l-4.79.33-4.79.33c1.57,22.82,3.03,44.18,1.56,64.18l4.79.35ZM257.28,555.66l4.79-.33c-1.05-15.19-2.43-35.22-2.02-52.89.2-8.84.85-16.9,2.15-23.38,1.35-6.71,3.22-10.78,5.16-12.62l-3.3-3.49-3.3-3.49c-4.24,4.01-6.56,10.67-7.98,17.7-1.46,7.27-2.13,15.96-2.34,25.05-.42,18.18,1,38.66,2.04,53.77l4.79-.33ZM264.06,462.96l3.27,3.52c.39-.36,1.13-.86,2.12-1.37.96-.5,1.89-.86,2.45-1.04l-1.42-4.58-1.42-4.58c-2.09.65-5.85,2.3-8.26,4.55l3.27,3.52ZM270.48,459.48l.93,4.71,3.96-.78-.93-4.71-.93-4.71-3.96.78.93,4.71ZM274.44,458.7l1.73,4.48,4.98-1.92-1.73-4.48-1.73-4.48-4.98,1.92,1.73,4.48ZM279.42,456.78l1.71,4.48c11.13-4.24,21.9-6.04,31.82-7.67l-.78-4.74-.78-4.74c-9.88,1.62-21.54,3.54-33.7,8.17l1.71,4.48ZM312.18,448.86l.79,4.74c8.21-1.37,16.38-2.68,24.88-5.45l-1.49-4.56-1.49-4.56c-7.7,2.51-15.13,3.72-23.48,5.11l.79,4.73ZM336.36,443.58l1.49,4.56c37.28-12.15,47.31-41.42,49.89-53.48l-4.69-1-4.69-1c-2.22,10.38-10.79,35.71-43.47,46.36l1.49,4.56ZM383.04,393.66l4.7.99c3.63-17.17,2.52-42.78-22.47-67.13l-3.35,3.44-3.35,3.44c22.17,21.61,22.87,43.64,19.77,58.27l4.7.99ZM361.92,330.96l3.34-3.45c-1.85-1.79-2.47-2.41-3.73-4.14l-3.87,2.84-3.87,2.84c1.73,2.36,2.79,3.41,4.79,5.34l3.34-3.45ZM357.66,326.22l3.89-2.81c-2.98-4.13-4.42-8.96-7.12-18.96l-4.63,1.25-4.63,1.25c2.58,9.56,4.39,16.25,8.6,22.08l3.89-2.81ZM349.8,305.7l4.63-1.26-.18-.66-4.63,1.26-4.63,1.26.18.66,4.63-1.26ZM349.62,305.04l4.64-1.23c-1.43-5.37-2.4-10.92-2.92-16.6l-4.78.43-4.78.43c.56,6.2,1.63,12.29,3.2,18.2l4.64-1.23ZM346.56,287.64l4.78-.42-5.1-57.42-4.78.42-4.78.42,5.1,57.42,4.78-.42ZM341.46,230.22l-3.39,3.39.06.06,3.39-3.39,3.39-3.39-.06-.06-3.39,3.39Z"/>
  </g>
  <path class="cls-3" d="M220.32,37.2c77.71,0,122.04,61.05,125.58,121.64,3.36,57.52-29.47,123.42-109.36,132.77h-.01c-6.37.77-12.75,1.12-18.89,1.12-81.73-.02-122.53-62.27-125.84-120.49-3.42-60.09,33.66-125.21,110.91-134.04h0c5.98-.66,11.89-1,17.61-1Z"/>
  <path class="cls-7" d="M220.38,64.8c121.38,0,135.42,185.04,13.02,199.44-5.4.66-10.68.96-15.72.96-124.2,0-134.04-185.58-11.82-199.5,4.98-.54,9.84-.84,14.52-.84M220.38,4.8c-6.96,0-14.16.42-21.3,1.26C101.76,17.16,55.2,99,59.46,174.12c4.26,75.06,60,151.08,158.22,151.08,7.44,0,15.06-.48,22.68-1.38,84.96-9.96,142.98-80.16,137.94-166.86C373.86,81.36,318.18,4.8,220.38,4.8Z"/>
  <g class="cls-10">
    <path class="cls-7" d="M220.38,4.8h-2.4v60h4.8V4.8h-2.4ZM233.4,264.24l-.56-4.77h-.02s.58,4.77.58,4.77ZM205.86,65.7l-.52-4.77h-.03s.54,4.77.54,4.77ZM199.08,6.06l.54,4.77h.02s-.56-4.77-.56-4.77ZM59.46,174.12l-4.79.27h0l4.79-.27ZM240.36,323.82l-.56-4.77h0s.56,4.77.56,4.77ZM378.3,156.96l4.79-.28h0s-4.79.28-4.79.28ZM220.38,64.8v4.8c57.6,0,89.89,43.7,93.14,89.86,1.62,23.06-4.08,46.39-17.34,64.73-13.19,18.25-34.04,31.83-63.34,35.28l.56,4.77.56,4.77c31.9-3.75,55.19-18.7,70-39.19,14.74-20.4,20.89-46.03,19.13-71.03-3.52-49.96-38.94-98.78-102.72-98.78v4.8ZM233.4,264.24l-.58-4.76c-5.2.64-10.29.92-15.14.92v9.6c5.23,0,10.7-.31,16.3-1l-.58-4.76ZM217.68,265.2v-4.8c-59.03,0-90.93-43.85-93.52-90-2.6-46.17,24.2-93.32,82.25-99.93l-.54-4.77-.54-4.77c-64.17,7.31-93.56,59.91-90.75,110.01,2.82,50.12,37.94,99.06,103.11,99.06v-4.8ZM205.86,65.7l.52,4.77c4.84-.52,9.52-.81,14-.81v-9.6c-4.88,0-9.92.31-15.04.87l.52,4.77ZM220.38,4.8V0c-7.15,0-14.54.43-21.86,1.29l.56,4.77.56,4.77c6.96-.82,13.97-1.23,20.74-1.23v-4.8ZM199.08,6.06l-.54-4.77C98.18,12.74,50.3,97.27,54.67,174.39l4.79-.27,4.79-.27C60.11,100.73,105.34,21.58,199.62,10.83l-.54-4.77ZM59.46,174.12l-4.79.27c4.37,77.07,61.75,155.61,163.01,155.61v-9.6c-95.18,0-149.28-73.51-153.43-146.55l-4.79.27ZM217.68,325.2v4.8c7.64,0,15.45-.49,23.24-1.41l-.56-4.77-.56-4.77c-7.45.88-14.88,1.35-22.12,1.35v4.8ZM240.36,323.82l.56,4.77c87.55-10.26,147.36-82.73,142.17-171.91l-4.79.28-4.79.28c4.9,84.23-51.33,152.16-133.71,161.81l.56,4.77ZM378.3,156.96l4.79-.28C378.54,79.12,321.26,0,220.38,0v9.6c94.72,0,148.8,74,153.13,147.64l4.79-.28Z"/>
  </g>
  <path class="cls-3" d="M613.92,37.32c41.93,0,81.1,20.49,104.83,54.76,24.38,35.22,29.58,78.85,14.18,119.89-18.2,48.52-64.29,80.24-118,81.16v-.04h-2.39c-39.01,0-75.04-17.09-98.87-46.75-29.27-36.45-36.28-86.16-18.37-129.76,17.97-43.72,56.53-73.03,103.11-78.39,5.19-.59,10.38-.88,15.51-.88Z"/>
  <path class="cls-3" d="M613.92,7.32c51.71,0,100.12,25.29,129.55,67.66,28.68,41.38,35.8,94.44,19.28,142.82l-1.67,4.67c-22.91,61.12-81.15,100.62-148.47,100.62-48.13,0-92.67-21.16-122.27-58.03-35.54-44.27-44.53-104.35-23.77-157.42l1.01-2.52c22.23-53.98,69.85-90.13,127.48-96.75h0c6.27-.72,12.6-1.06,18.87-1.06ZM613.92,62.52c-3.13,0-6.29.14-9.47.42l-3.17.32c-79.21,9.14-117,101.79-70.25,164.37l2.29,2.96c20.36,25.41,49.88,37.32,79.21,37.32,40.57,0,81.04-22.87,96.8-64.8h0c26.14-69.71-23.96-140.58-95.43-140.58Z"/>
  <path class="cls-3" d="M416.28,153.12c41.93,0,81.09,20.49,104.83,54.76,24.38,35.22,29.58,78.85,14.19,119.89-18.04,48.09-63.47,79.67-116.56,81.12h-3.77c-39.01,0-75.04-17.09-98.87-46.75-29.26-36.45-36.28-86.16-18.37-129.76,17.97-43.72,56.53-73.03,103.11-78.39,5.13-.59,10.38-.89,15.45-.89Z"/>
  <path class="cls-3" d="M416.28,123.12h.06c51.72,0,100.12,25.29,129.48,67.66,28.68,41.38,35.8,94.44,19.28,142.82l-1.67,4.67c-22.91,61.12-81.15,100.62-148.47,100.62-48.13,0-92.67-21.16-122.27-58.03-35.54-44.27-44.53-104.35-23.77-157.42l1.01-2.52c22.23-53.98,69.85-90.13,127.48-96.75h0c6.27-.72,12.6-1.06,18.87-1.06ZM416.28,178.32c-3.13,0-6.29.14-9.46.42l-3.17.32c-79.21,9.14-117,101.79-70.25,164.37l2.29,2.96c20.36,25.41,49.89,37.32,79.21,37.32,40.57,0,81.04-22.87,96.8-64.8h0c26.14-69.71-23.96-140.58-95.43-140.58Z"/>
  <path class="cls-3" d="M551.58,265.44h.11c1.55,0,7.41.03,15.53.06,8.11.03,18.46.06,28.99.06,11.85,0,18.74-.02,22.73-.04,2-.01,3.28-.02,4.09-.04.58-.01,1-.04,1.28-.06h0c1.7-.05,5.99-.17,24.46-.17,15.71,0,35.69.06,49.01.12h13.51c18.1,0,37.24,6.65,53.25,17.32,15.03,10.01,27.1,23.42,33.02,37.87l1.1,2.9,1.54,4.42v190.17l-1.87,4.8v.02c-10.07,26.24-34.48,46.46-63.47,54.1l-1.79.47v104.46l-1.21,4.06c-6.7,21.05-19.2,36.82-37.4,47.37-18.26,10.58-42.42,16-72.52,16h-.05c-8.75,0-18.34-.41-29.46-1.25-25.19-1.91-43.55-16.62-47.18-36.32l-.31-1.93c-2.24-16.96,3.26-28.01,10.28-35.32,7.13-7.42,15.94-11.11,20.49-13.03h0c2.28-.98,4.75-1.97,6.4-2.99h0c18.79-11.68,26.11-20.84,29.47-31.63l.15-.5-.07-.52c-2.48-19.88-.89-43.15.79-67.94,1.53-22.27,3.2-46.25,1.61-67.34-1.54-20.34-6.13-38.61-17.38-50.06l-1.11-1.08-1.79-1.59c-4.24-3.54-8.78-5.93-12.4-7.46-2.08-.88-3.88-1.49-5.17-1.88-.64-.2-1.17-.34-1.55-.44-.19-.05-.34-.08-.46-.11-.05-.01-.11-.03-.16-.04-.02,0-.05-.01-.09-.02l-2.38-.43-1.92-.8-.07-.03-2.75-1.01c-13.66-4.88-26.23-6.96-36.31-8.59h0c-8.22-1.36-18.11-3-26.62-7.29-8.38-4.23-15.32-10.99-17.81-22.71-3.67-17.35,7.49-28.32,12.05-32.76,2.31-2.25,4.77-4.64,7.89-9.01,7.31-10.13,10.04-20.57,12.91-31.08l.02-.05.16-.67c2.02-7.46,3.36-15.16,4.03-22.86l2.32-26.44,26.08,1.27Z"/>
  <path class="cls-3" d="M552.36,235.49h.05c4.37.13,23.08.12,43.75.12,10.35,0,16.84-.01,20.87-.03,4.05-.01,5.59-.03,6.13-.03h.11c2.45-.12,7.12-.18,25.45-.18,7.85,0,16.79.03,25.44.06,8.65.03,17,.06,23.7.06h13.38c49.65,0,100.46,34.48,115.69,78.19h0s3.23,9.22,3.23,9.22v200.81l-3.8,9.96c-10.79,28.1-33.59,51.06-61.83,64.27l-1.39.65v87.9l-2.71,8.54c-6.13,19.27-17.66,40.3-39.09,56.52-21.42,16.21-52.97,27.79-99.44,27.79-9.47,0-19.85-.42-31.68-1.31-39.09-2.95-68.4-27.4-74.45-60.95l-.51-3.28c-1.41-10.64-1.43-25.51,4.97-40.24,6.37-14.66,19.21-29.42,43.97-39.73h.04s.04-.04.04-.04c.34-.16.77-.33,1.23-.53.42-.18.91-.4,1.29-.59l.11-.05.11-.06c7.18-4.52,11.17-7.76,13.4-10.46l.62-.74-.07-.97c-1.12-15.14-.56-31.05.45-47.66l1.11-16.85c1.04-15.13,2.47-35.49,2.06-53.55-.2-9.02-.86-17.57-2.29-24.64-1.4-6.95-3.62-12.96-7.3-16.43h-.02s-.82-.71-.82-.71c-2.05-1.57-4.84-2.8-6.52-3.32l-.11-.04-.13-.02-3.77-.74-4.77-1.84h-.01c-11.89-4.54-23.34-6.43-33.23-8.05h0c-8.23-1.32-15.92-2.62-23.82-5.19-33.82-11.02-42.76-37.33-45.08-48.13h0c-3.23-15.33-2.43-38.19,20.44-60.48,1.96-1.89,2.91-2.84,4.52-5.04v-.02c3.92-5.4,5.69-11.61,8.24-21.29l.18-.66h0c1.54-5.79,2.58-11.81,3.13-17.81h0s4.89-55.07,4.89-55.07l54.22,2.64ZM775.02,332.11l-.14-.38c-3.68-10.54-13.12-20.8-24.67-28.39-11.58-7.6-25.64-12.76-38.91-12.76-2.94,0-12.7-.03-24.66-.06-11.96-.03-26.13-.06-37.86-.06s-21.11,0-23.47.12h-.02c-1.7.11-14.4.12-29,.12-10.26,0-21.37-.03-30.06-.06-8.68-.03-14.96-.06-15.54-.06h-2.19l-.2,2.19c-1.01,11.12-2.96,20.34-4.79,27.13v.02c-2.99,11.31-6.37,24.27-15.14,37.43l-1.82,2.64c-4.79,6.65-8.73,10.32-11.46,13-1.32,1.29-2.57,2.55-3.37,3.86-.89,1.47-1.27,3.06-.88,4.89h0c.79,3.75,4.07,5.71,7.71,6.97,3.72,1.28,8.78,2.15,14.62,3.12,11.83,1.95,27.68,4.4,45.52,11.23.1.04.19.06.2.06.06.02.12.04.14.04.05.01.13.03.19.05.14.03.35.08.62.14.53.13,1.31.33,2.3.6,1.98.56,4.79,1.45,8.09,2.79,6.61,2.69,15.08,7.17,22.7,14.35,24.05,22.66,28.03,60.38,26.92,99.97-.55,19.74-2.35,39.57-3.4,58.06-1.04,18.14-1.36,34.97,1.06,48.53-5.17,23.4-19,37.96-42.01,52.26-3.01,1.86-6.11,3.2-9.17,4.48-2.98,1.24-6.05,2.47-8.64,4.03-2.65,1.6-4.98,3.66-6.43,6.7-1.26,2.65-1.75,5.81-1.43,9.69l.19,1.7c.73,5.52,4.42,9.46,8.96,12.04,4.52,2.57,10.15,3.96,15.43,4.37h.01c9.15.67,18.45,1.15,27.53,1.15,19.09,0,37.54-2.11,52.73-8.88,15.29-6.82,27.22-18.36,33.08-36.96l.11-.35v-122.91c.58.01,1.15.02,1.67.02,29.62,0,56.33-17.97,65.3-41.2l.16-.42v-181.28Z"/>
  <path class="cls-2" d="M413.42,421.3c39.19-.97,78.13-1.81,114.8.38,22.4,1.33,39.22,8.23,50.79,18.2,10.84,9.35,17.21,21.49,19.28,34.58l.35,2.63c4.12,37.06,4.9,104.11,0,140.65h0c-.89,6.71-2.08,15.98-10.69,25.6h0c-8.34,9.38-20.58,15.77-33.1,20.14-12.49,4.35-25.03,6.61-33.78,7.82l.17,2.35-2.16-.19c-1.61,17.78-.56,36.35.35,54.64.91,18.36,1.67,36.44-.4,53.58-3.54,28.82-27.6,51.62-71.55,55.21l-4.31.29c-30.32,1.56-60.16,1.99-84.26-3.87-23.88-5.81-41.74-17.68-49.06-40.51l-.23-119.13v-2.05l-2.03-.32-3.74-.61c-9.12-1.57-20.88-4.15-32.34-8.41-13.13-4.88-25.58-11.9-33.31-21.94h0c-5.68-7.36-7.07-14.06-7.69-18.91l-.22-1.96c-10.68-100.66-6.89-122.88.67-145.2,7.41-21.94,16.04-36.48,35.72-45.26,11.39-5.09,23.12-6.69,30.98-7.29,37.35,1.65,76.69.53,115.78-.44Z"/>
  <path class="cls-12" d="M413.42,421.3c39.19-.97,78.13-1.81,114.8.38,22.4,1.33,39.22,8.23,50.79,18.2,10.84,9.35,17.21,21.49,19.28,34.58l.35,2.63c4.12,37.06,4.9,104.11,0,140.65h0c-.89,6.71-2.08,15.98-10.69,25.6h0c-8.34,9.38-20.58,15.77-33.1,20.14-12.49,4.35-25.03,6.61-33.78,7.82l.17,2.35-2.16-.19c-1.61,17.78-.56,36.35.35,54.64.91,18.36,1.67,36.44-.4,53.58-3.54,28.82-27.6,51.62-71.55,55.21l-4.31.29c-30.32,1.56-60.16,1.99-84.26-3.87-23.88-5.81-41.74-17.68-49.06-40.51l-.23-119.13v-2.05l-2.03-.32-3.74-.61c-9.12-1.57-20.88-4.15-32.34-8.41-13.13-4.88-25.58-11.9-33.31-21.94h0c-5.68-7.36-7.07-14.06-7.69-18.91l-.22-1.96c-10.68-100.66-6.89-122.88.67-145.2,7.41-21.94,16.04-36.48,35.72-45.26,11.39-5.09,23.12-6.69,30.98-7.29,37.35,1.65,76.69.53,115.78-.44Z"/>
  <path class="cls-4" d="M413.42,421.3c39.19-.97,78.13-1.81,114.8.38,22.4,1.33,39.22,8.23,50.79,18.2,10.84,9.35,17.21,21.49,19.28,34.58l.35,2.63c4.12,37.06,4.9,104.11,0,140.65h0c-.89,6.71-2.08,15.98-10.69,25.6h0c-8.34,9.38-20.58,15.77-33.1,20.14-12.49,4.35-25.03,6.61-33.78,7.82l.17,2.35-2.16-.19c-1.61,17.78-.56,36.35.35,54.64.91,18.36,1.67,36.44-.4,53.58-3.54,28.82-27.6,51.62-71.55,55.21l-4.31.29c-30.32,1.56-60.16,1.99-84.26-3.87-23.88-5.81-41.74-17.68-49.06-40.51l-.23-119.13v-2.05l-2.03-.32-3.74-.61c-9.12-1.57-20.88-4.15-32.34-8.41-13.13-4.88-25.58-11.9-33.31-21.94h0c-5.68-7.36-7.07-14.06-7.69-18.91l-.22-1.96c-10.68-100.66-6.89-122.88.67-145.2,7.41-21.94,16.04-36.48,35.72-45.26,11.39-5.09,23.12-6.69,30.98-7.29,37.35,1.65,76.69.53,115.78-.44Z"/>
  <path class="cls-1" d="M123.24,295.56c8.86,0,78.94-.36,85.73,0,2.28.12,20.6.16,38.44.14,14.44-.01,28.82-.08,34.34-.13.94,9.07,2.45,16.84,4,23.02l.71,2.74c3.23,12.03,6.98,26.78,17.71,41.64h0c5.08,7.02,9.3,10.95,12.01,13.61,1.39,1.37,2.18,2.22,2.61,2.93.33.55.39.9.28,1.4v.02c-.24,1.1-1.25,2.28-4.59,3.43-3.26,1.13-7.88,1.94-13.85,2.92-11.76,1.93-28,4.41-46.24,11.38-.01,0-.03,0-.04.01-.16.03-.4.08-.69.15-.59.14-1.44.34-2.5.64-2.13.59-5.12,1.54-8.61,2.96-6.54,2.67-14.89,7.03-22.64,13.94l-1.54,1.41c-25.75,24.26-29.53,64.07-28.42,103.59.56,19.82,2.37,39.95,3.41,58.2,1.05,18.37,1.32,34.87-1.08,47.89l-.09.47.1.47c5.47,25.42,20.52,41.08,44.29,55.78h0c3.36,2.08,6.77,3.56,9.84,4.84,3.14,1.31,5.81,2.38,8.02,3.71,2.15,1.3,3.66,2.73,4.57,4.64.8,1.68,1.25,3.96.98,7.22l-.16,1.46c-.47,3.54-2.84,6.38-6.58,8.51-3.75,2.14-8.64,3.38-13.43,3.76-23.82,1.8-47.67,2.08-67.26-3.46-19.34-5.47-34.35-16.55-41.15-37.49v-127.19l-2.54.14c-29.19,1.67-55.79-15.65-64.48-37.68v-179.52c3.28-9.08,11.7-18.44,22.59-25.6,11-7.23,24.15-11.97,36.26-11.97Z"/>
  <path class="cls-2" d="M203.19,68.14c33.01-3.77,58.81,5.61,77.09,21.86,18.33,16.29,29.25,39.63,32.17,63.98,2.92,24.35-2.19,49.56-15.72,69.54-13.49,19.93-35.45,34.8-66.55,38.46-34.09,4.01-60.42-5.3-78.89-21.53-18.51-16.27-29.3-39.66-31.96-64.08-5.31-48.88,21.9-101.15,83.86-108.22Z"/>
  <path class="cls-5" d="M203.19,68.14c33.01-3.77,58.81,5.61,77.09,21.86,18.33,16.29,29.25,39.63,32.17,63.98,2.92,24.35-2.19,49.56-15.72,69.54-13.49,19.93-35.45,34.8-66.55,38.46-34.09,4.01-60.42-5.3-78.89-21.53-18.51-16.27-29.3-39.66-31.96-64.08-5.31-48.88,21.9-101.15,83.86-108.22Z"/>
  <path class="cls-4" d="M203.19,68.14c33.01-3.77,58.81,5.61,77.09,21.86,18.33,16.29,29.25,39.63,32.17,63.98,2.92,24.35-2.19,49.56-15.72,69.54-13.49,19.93-35.45,34.8-66.55,38.46-34.09,4.01-60.42-5.3-78.89-21.53-18.51-16.27-29.3-39.66-31.96-64.08-5.31-48.88,21.9-101.15,83.86-108.22Z"/>
  <path class="cls-1" d="M598.89,68.15c73.16-8.42,127.68,60.76,104.2,130.09l-1.18,3.3c-25.74,68.62-121.48,83.82-167.78,26.16-47.92-59.7-11.85-150.71,64.76-159.55Z"/>
  <path class="cls-2" d="M401.32,183.94c74.32-8.55,129.4,62.98,103.02,133.39-25.74,68.62-121.48,83.82-167.78,26.16-46.34-57.71-11.8-150.72,64.76-159.55Z"/>
  <path class="cls-11" d="M401.32,183.94c74.32-8.55,129.4,62.98,103.02,133.39-25.74,68.62-121.48,83.82-167.78,26.16-46.34-57.71-11.8-150.72,64.76-159.55Z"/>
  <path class="cls-4" d="M401.32,183.94c74.32-8.55,129.4,62.98,103.02,133.39-25.74,68.62-121.48,83.82-167.78,26.16-46.34-57.71-11.8-150.72,64.76-159.55Z"/>
  <path class="cls-2" d="M622.63,295.55c6.76-.36,76.87.01,85.73.01,12.11,0,25.26,4.74,36.26,11.97,10.89,7.16,19.31,16.52,22.59,25.6v179.52c-8.69,22.02-35.29,39.35-64.48,37.68l-2.54-.14v127.19c-6.8,20.94-21.81,32.02-41.15,37.49-17.14,4.85-37.55,5.24-58.34,4.06l-8.92-.6c-4.79-.37-9.67-1.62-13.42-3.76-3.74-2.13-6.11-4.97-6.58-8.51l-.16-1.46c-.27-3.26.17-5.54.97-7.22.91-1.91,2.42-3.34,4.58-4.64,2.2-1.33,4.87-2.39,8.01-3.71,3.07-1.28,6.48-2.76,9.83-4.85h0c23.76-14.7,38.81-30.35,44.29-55.78l.1-.47-.09-.47c-2.4-13.02-2.13-29.52-1.08-47.89,1.04-18.25,2.86-38.38,3.41-58.2,1.07-38.29-2.44-76.84-26.08-101.27l-2.35-2.32c-8.17-7.73-17.21-12.51-24.18-15.35-3.49-1.42-6.48-2.37-8.61-2.96-1.06-.3-1.91-.5-2.51-.64-.29-.07-.52-.12-.68-.15-.02,0-.03,0-.05-.01-18.23-6.97-34.47-9.45-46.23-11.38-5.97-.98-10.59-1.79-13.86-2.92-2.93-1.01-4.06-2.04-4.45-3.02l-.13-.42v-.02c-.11-.5-.06-.85.27-1.4.43-.71,1.22-1.56,2.62-2.93,2.37-2.33,5.89-5.63,10.14-11.12l1.87-2.49c9.38-13,13.43-25.92,16.46-37.01l1.25-4.63c1.76-6.56,3.62-15.3,4.7-25.76,5.52.05,19.9.12,34.34.13,17.84.02,36.17-.02,38.45-.14h0Z"/>
  <path class="cls-9" d="M622.63,295.55c6.76-.36,76.87.01,85.73.01,12.11,0,25.26,4.74,36.26,11.97,10.89,7.16,19.31,16.52,22.59,25.6v179.52c-8.69,22.02-35.29,39.35-64.48,37.68l-2.54-.14v127.19c-6.8,20.94-21.81,32.02-41.15,37.49-17.14,4.85-37.55,5.24-58.34,4.06l-8.92-.6c-4.79-.37-9.67-1.62-13.42-3.76-3.74-2.13-6.11-4.97-6.58-8.51l-.16-1.46c-.27-3.26.17-5.54.97-7.22.91-1.91,2.42-3.34,4.58-4.64,2.2-1.33,4.87-2.39,8.01-3.71,3.07-1.28,6.48-2.76,9.83-4.85h0c23.76-14.7,38.81-30.35,44.29-55.78l.1-.47-.09-.47c-2.4-13.02-2.13-29.52-1.08-47.89,1.04-18.25,2.86-38.38,3.41-58.2,1.07-38.29-2.44-76.84-26.08-101.27l-2.35-2.32c-8.17-7.73-17.21-12.51-24.18-15.35-3.49-1.42-6.48-2.37-8.61-2.96-1.06-.3-1.91-.5-2.51-.64-.29-.07-.52-.12-.68-.15-.02,0-.03,0-.05-.01-18.23-6.97-34.47-9.45-46.23-11.38-5.97-.98-10.59-1.79-13.86-2.92-2.93-1.01-4.06-2.04-4.45-3.02l-.13-.42v-.02c-.11-.5-.06-.85.27-1.4.43-.71,1.22-1.56,2.62-2.93,2.37-2.33,5.89-5.63,10.14-11.12l1.87-2.49c9.38-13,13.43-25.92,16.46-37.01l1.25-4.63c1.76-6.56,3.62-15.3,4.7-25.76,5.52.05,19.9.12,34.34.13,17.84.02,36.17-.02,38.45-.14h0Z"/>
  <path class="cls-4" d="M622.63,295.55c6.76-.36,76.87.01,85.73.01,12.11,0,25.26,4.74,36.26,11.97,10.89,7.16,19.31,16.52,22.59,25.6v179.52c-8.69,22.02-35.29,39.35-64.48,37.68l-2.54-.14v127.19c-6.8,20.94-21.81,32.02-41.15,37.49-17.14,4.85-37.55,5.24-58.34,4.06l-8.92-.6c-4.79-.37-9.67-1.62-13.42-3.76-3.74-2.13-6.11-4.97-6.58-8.51l-.16-1.46c-.27-3.26.17-5.54.97-7.22.91-1.91,2.42-3.34,4.58-4.64,2.2-1.33,4.87-2.39,8.01-3.71,3.07-1.28,6.48-2.76,9.83-4.85h0c23.76-14.7,38.81-30.35,44.29-55.78l.1-.47-.09-.47c-2.4-13.02-2.13-29.52-1.08-47.89,1.04-18.25,2.86-38.38,3.41-58.2,1.07-38.29-2.44-76.84-26.08-101.27l-2.35-2.32c-8.17-7.73-17.21-12.51-24.18-15.35-3.49-1.42-6.48-2.37-8.61-2.96-1.06-.3-1.91-.5-2.51-.64-.29-.07-.52-.12-.68-.15-.02,0-.03,0-.05-.01-18.23-6.97-34.47-9.45-46.23-11.38-5.97-.98-10.59-1.79-13.86-2.92-2.93-1.01-4.06-2.04-4.45-3.02l-.13-.42v-.02c-.11-.5-.06-.85.27-1.4.43-.71,1.22-1.56,2.62-2.93,2.37-2.33,5.89-5.63,10.14-11.12l1.87-2.49c9.38-13,13.43-25.92,16.46-37.01l1.25-4.63c1.76-6.56,3.62-15.3,4.7-25.76,5.52.05,19.9.12,34.34.13,17.84.02,36.17-.02,38.45-.14h0Z"/>
</svg>