<?xml version="1.0" encoding="UTF-8"?>
<svg id="Layer_1" data-name="Layer 1" xmlns="http://www.w3.org/2000/svg" xmlns:xlink="http://www.w3.org/1999/xlink" viewBox="0 0 490.73 468.48">
  <defs>
    <style>
      .cls-1, .cls-2, .cls-3, .cls-4 {
        stroke-miterlimit: 10;
      }

      .cls-1, .cls-3 {
        stroke: #f5ca78;
      }

      .cls-1, .cls-3, .cls-4 {
        stroke-width: 5px;
      }

      .cls-1, .cls-4 {
        fill: none;
      }

      .cls-2 {
        stroke: #fff;
        stroke-width: 30px;
      }

      .cls-2, .cls-5 {
        fill: #fff;
      }

      .cls-3, .cls-6 {
        fill: #f5ca78;
      }

      .cls-4 {
        stroke: url(#linear-gradient);
      }
    </style>
    <linearGradient id="linear-gradient" x1="2332.88" y1="2923.86" x2="-2205.11" y2="-2239.57" gradientTransform="translate(194 573.38) scale(1 -1)" gradientUnits="userSpaceOnUse">
      <stop offset=".48" stop-color="#f8f5e3" stop-opacity="0"/>
      <stop offset=".5" stop-color="#f8f5e3" stop-opacity=".6"/>
      <stop offset=".51" stop-color="#f8f5e3" stop-opacity="0"/>
      <stop offset=".69" stop-color="#f8f5e3" stop-opacity="0"/>
      <stop offset=".9" stop-color="#f8f5e3" stop-opacity="0"/>
      <stop offset="1" stop-color="#f8f5e3" stop-opacity="0"/>
    </linearGradient>
  </defs>
  <path class="cls-2" d="M247.35,15.03c143.7-2.4,253.05,126.1,223.55,264.2-20.9,97.85-107.95,169.05-209.8,174.1-13,.65-57.2-.75-67-7.65-8.2-5.75-4.3-19.95,6.3-20,7.55-.05,21.9,4.9,31.1,5.55,197.4,13.75,300.55-220.45,151.6-346.95C261.4-19.07,70.05,54.53,50.45,209.98c-.9,7.1-.35,27.6-2.3,32.2-2.95,7-16.8,8.7-19.75.1-5.85-16.95,4.5-61.6,10.6-79.4C69,75.63,153.35,16.58,247.45,15.03h-.1Z"/>
  <path class="cls-2" d="M21.75,286.28l91.3-.2c12,1.85,9.7,19.1-1.4,20.5H22.9c-9.2-2.35-11.35-18.05-1.15-20.3Z"/>
  <path class="cls-2" d="M250.1,112.83c8.4-.8,12,5.85,12.9,13,3.15,25.7-6.1,78.05,5.05,98.5,11.75,21.5,58.7,35.7,78.35,51.65,10.2,8.4-1.45,22.15-12.35,17.6-33.5-23.05-88.65-35.3-93.45-82.4-2.15-21.1-2.15-67.2-.1-88.35.55-5.65,3.45-9.4,9.6-9.95v-.05Z"/>
  <path class="cls-2" d="M42.75,354.28l91.3-.2c12,1.85,9.7,19.1-1.4,20.5H43.9c-9.2-2.35-11.35-18.05-1.15-20.3Z"/>
  <path class="cls-2" d="M63.9,422.24l91.3-.2c12,1.85,9.7,19.1-1.4,20.5h-88.75c-9.2-2.35-11.35-18.05-1.15-20.3Z"/>
  <path class="cls-5" d="M249.95,422.04c88.86,0,160.9-84.24,160.9-188.15S338.82,45.73,249.95,45.73,89.05,129.97,89.05,233.88s72.04,188.15,160.9,188.15Z"/>
  <path class="cls-1" d="M251.95,14.68c143.7-2.4,253.05,126.1,223.55,264.2-20.9,97.85-107.95,169.05-209.8,174.1-13,.65-57.2-.75-67-7.65-8.2-5.75-4.3-19.95,6.3-20,7.55-.05,21.9,4.9,31.1,5.55,197.4,13.75,300.55-220.45,151.6-346.95C266-19.42,74.65,54.18,55.05,209.63c-.9,7.1-.35,27.6-2.3,32.2-2.95,7-16.8,8.7-19.75.1-5.85-16.95,4.5-61.6,10.6-79.4C73.6,75.28,157.95,16.23,252.05,14.68h-.1Z"/>
  <path class="cls-4" d="M251.95,14.68c143.7-2.4,253.05,126.1,223.55,264.2-20.9,97.85-107.95,169.05-209.8,174.1-13,.65-57.2-.75-67-7.65-8.2-5.75-4.3-19.95,6.3-20,7.55-.05,21.9,4.9,31.1,5.55,197.4,13.75,300.55-220.45,151.6-346.95C266-19.42,74.65,54.18,55.05,209.63c-.9,7.1-.35,27.6-2.3,32.2-2.95,7-16.8,8.7-19.75.1-5.85-16.95,4.5-61.6,10.6-79.4C73.6,75.28,157.95,16.23,252.05,14.68h-.1Z"/>
  <path class="cls-6" d="M251.95,14.68c143.7-2.4,253.05,126.1,223.55,264.2-20.9,97.85-107.95,169.05-209.8,174.1-13,.65-57.2-.75-67-7.65-8.2-5.75-4.3-19.95,6.3-20,7.55-.05,21.9,4.9,31.1,5.55,197.4,13.75,300.55-220.45,151.6-346.95C266-19.42,74.65,54.18,55.05,209.63c-.9,7.1-.35,27.6-2.3,32.2-2.95,7-16.8,8.7-19.75.1-5.85-16.95,4.5-61.6,10.6-79.4C73.6,75.28,157.95,16.23,252.05,14.68h-.1Z"/>
  <path class="cls-3" d="M26.3,285.93l91.3-.2c12,1.85,9.7,19.1-1.4,20.5H27.45c-9.2-2.35-11.35-18.05-1.15-20.3Z"/>
  <path class="cls-1" d="M254.65,112.48c8.4-.8,12,5.85,12.9,13,3.15,25.7-6.1,78.05,5.05,98.5,11.75,21.5,58.7,35.7,78.35,51.65,10.2,8.4-1.45,22.15-12.35,17.6-33.5-23.05-88.65-35.3-93.45-82.4-2.15-21.1-2.15-67.2-.1-88.35.55-5.65,3.45-9.4,9.6-9.95v-.05Z"/>
  <path class="cls-1" d="M254.65,112.48c8.4-.8,12,5.85,12.9,13,3.15,25.7-6.1,78.05,5.05,98.5,11.75,21.5,58.7,35.7,78.35,51.65,10.2,8.4-1.45,22.15-12.35,17.6-33.5-23.05-88.65-35.3-93.45-82.4-2.15-21.1-2.15-67.2-.1-88.35.55-5.65,3.45-9.4,9.6-9.95v-.05Z"/>
  <path class="cls-6" d="M255.95,112.48c8.4-.8,12,5.85,12.9,13,3.15,25.7-6.1,78.05,5.05,98.5,11.75,21.5,58.7,35.7,78.35,51.65,10.2,8.4-1.45,22.15-12.35,17.6-33.5-23.05-88.65-35.3-93.45-82.4-2.15-21.1-2.15-67.2-.1-88.35.55-5.65,3.45-9.4,9.6-9.95v-.05Z"/>
  <path class="cls-3" d="M47.35,353.93l91.3-.2c12,1.85,9.7,19.1-1.4,20.5H48.5c-9.2-2.35-11.35-18.05-1.15-20.3Z"/>
  <path class="cls-3" d="M63.9,422.23l91.3-.2c12,1.85,9.7,19.1-1.4,20.5h-88.75c-9.2-2.35-11.35-18.05-1.15-20.3Z"/>
</svg>