<?xml version="1.0" encoding="UTF-8"?>
<svg id="Layer_1" data-name="Layer 1" xmlns="http://www.w3.org/2000/svg" xmlns:xlink="http://www.w3.org/1999/xlink" viewBox="0 0 805 722.01">
  <defs>
    <style>
      .cls-1 {
        fill: #f6cb78;
      }

      .cls-2 {
        fill: url(#linear-gradient-2);
      }

      .cls-3 {
        fill: #fff;
      }

      .cls-4 {
        fill: url(#linear-gradient-4);
      }

      .cls-5 {
        fill: url(#linear-gradient-3);
      }

      .cls-6 {
        fill: #f5ca78;
      }

      .cls-7 {
        fill: url(#linear-gradient);
      }
    </style>
    <linearGradient id="linear-gradient" x1="1701.76" y1="1932.02" x2="-1090.74" y2="-1120.48" gradientTransform="translate(194 827.2) scale(1 -1)" gradientUnits="userSpaceOnUse">
      <stop offset=".48" stop-color="#f8f5e3" stop-opacity="0"/>
      <stop offset=".5" stop-color="#f8f5e3" stop-opacity=".6"/>
      <stop offset=".51" stop-color="#f8f5e3" stop-opacity="0"/>
      <stop offset=".69" stop-color="#f8f5e3" stop-opacity="0"/>
      <stop offset=".9" stop-color="#f8f5e3" stop-opacity="0"/>
      <stop offset="1" stop-color="#f8f5e3" stop-opacity="0"/>
    </linearGradient>
    <linearGradient id="linear-gradient-2" x1="1778.25" y1="2190.24" x2="-1321.75" y2="-1222.26" xlink:href="#linear-gradient"/>
    <linearGradient id="linear-gradient-3" x1="1737.98" y1="2227.56" x2="-1054.52" y2="-1439.94" xlink:href="#linear-gradient"/>
    <linearGradient id="linear-gradient-4" x1="1485.6" y1="2176.1" x2="-1226.9" y2="-1006.4" xlink:href="#linear-gradient"/>
  </defs>
  <path class="cls-3" d="M454.94,654.67c-1.47,0-2.94,0-4.47-.06h-1.18l-278.14-32.73-42.58-159.62,18.7-12.41c33.41-22.13,63.4-36.35,91.69-43.4,18.41-4.61,38.05-6.8,60.05-6.8,42.05,0,84.93,8.29,126.39,16.27,28.82,5.55,56.11,10.85,81.46,13.03h2.36c25.82,0,48.23,17.21,54.4,41.84.3,1.18.53,2.37.76,3.55,6.35-2.56,12.64-4.99,18.82-7.36,9.47-3.62,18.41-7.05,27.11-10.85,8.59-3.68,19.06-8.73,30.11-14.09,25.47-12.28,51.76-25.07,73.28-30.43,4.83-1.18,9.65-1.81,14.3-1.81,19.82,0,36.64,10.91,43.82,28.56,7.41,18.14,3.17,38.72-11.35,55.12l-3.65,4.12-4.77,2.5c-39.17,20.51-78.75,44.33-117.04,67.27-41.52,24.94-84.46,50.69-127.8,73.02-15.29,7.85-29.76,14.34-52.4,14.34l.12-.07Z"/>
  <path class="cls-3" d="M299.14,430.9c68.52,0,143.04,24.13,207.5,29.37.94-.06,1.82-.12,2.76-.12,25.12,0,37.99,29.55,13.47,44.46l-141.8.81c-14.7,2.18-16.94,22.01,4.06,23.88,16.53,1.49,39.35,2.18,62.29,2.18,24.23,0,48.7-.75,66.29-2.18,18.88-1.5,29.06-11.6,45.53-19.08,20.35-9.23,41.88-16.33,62.4-25.13,28.17-12.1,71.34-36.17,99.1-43.09,2.64-.69,5.17-1,7.53-1,16.76,0,24.58,15.9,11.05,31.18-82.4,43.21-162.21,97.76-244.67,140.16-14.3,7.36-24,11.22-39.58,11.22h-3.47l-257.32-30.24-31.17-116.91c25.23-16.71,53.58-32.17,82.81-39.47,17.17-4.24,35.05-5.99,53.35-5.99M299.14,368.55c-24.29,0-46.11,2.49-66.81,7.67-31.47,7.86-64.34,23.32-100.57,47.32l-37.41,24.81,12,45.02,31.17,116.9,10.76,40.4,39.35,4.62,257.32,30.24,2.29.25h2.29c1.88.12,3.65.19,5.41.19,28.88,0,48.05-8.67,65.29-17.46,44.17-22.76,87.57-48.75,129.51-73.95,37.93-22.76,77.16-46.32,115.57-66.46l9.53-4.99,7.29-8.17c22.47-25.31,28.94-59.36,16.94-88.85-11.94-29.24-39.05-47.39-70.81-47.39-6.94,0-14.06.87-21.06,2.68-24.34,6.11-51.99,19.45-78.69,32.42-10.76,5.24-20.93,10.16-28.93,13.59-6.24,2.68-12.77,5.3-19.58,7.92-15.59-22.88-41.64-37.41-70.46-37.41h-1.53c-23.47-2.18-49.52-7.17-77.05-12.47-42.76-8.23-86.93-16.77-131.69-16.77l-.12-.12Z"/>
  <path class="cls-3" d="M363.48,447.11V185.31h150.57v283.94l-150.57-22.13Z"/>
  <path class="cls-3" d="M484.64,216.48v216.98l-91.75-13.47v-203.51h91.75ZM543.46,154.13h-209.38v320.17l50.76,7.42,91.75,13.47,66.88,9.79V154.13Z"/>
  <path class="cls-3" d="M83.05,673.88l-3.47-11.85c-17.59-59.73-34.58-118.34-48.4-178.45l-1.29-5.61.71-5.74c1.76-14.65,11.12-26.5,24.47-30.8l2.18-.69,2.29-.31c6.29-.94,15.76-4.68,24.94-8.23,12.41-4.86,25.29-9.85,37.94-11.41,1.71-.19,3.41-.31,5.12-.31,16.29,0,30.05,10.29,35.05,26.25l.41,1.31,47.76,176.39v4.37c0,17.09-9.7,31.3-24.82,36.23l-78.22,23.63-24.53-14.59-.12-.19Z"/>
  <path class="cls-3" d="M127.45,451.54c3.23,0,6.06,1.31,7.18,4.99l46.58,172.21c0,3.06-1.18,5.43-4,6.36l-65.93,19.89-3.71-2.18c-17.17-58.24-34.23-117.22-47.93-176.58.29-2.49,1.65-4.18,3.88-4.93,19.06-2.87,44.05-17.33,62.11-19.58.59-.06,1.18-.13,1.71-.13M127.45,389.19c-2.82,0-5.65.19-8.53.5-16.12,2-31.29,7.92-44.7,13.16-6.18,2.43-15.53,6.05-18.94,6.61l-4.53.69-4.35,1.43c-24.58,7.98-41.82,29.68-45.05,56.74l-1.35,11.41,2.59,11.16c14.06,61.04,31.17,120.15,48.93,180.38l6.94,23.63,20.35,12.16,3.71,2.18,21.35,12.79,23.59-7.11,65.93-19.89.59-.19.59-.19c27.35-8.91,45.64-35.48,45.58-66.15v-8.67l-2.29-8.35-46.58-172.21-.35-1.31-.41-1.31c-9.12-28.87-33.82-47.51-62.99-47.51l-.06.06Z"/>
  <path class="cls-3" d="M527.34,490.01c-.59-7.04-1.42-11.1-1.88-13.03-1.12-1.43-2.71-3.24-3.71-4.3-1.24-.62-4-1.12-8.29-1.81-3.94-.62-8.35-1.31-13.35-2.62l-22.29-5.86v-155.81h164.68v180l-111.81,44.45-3.35-40.97v-.06Z"/>
  <path class="cls-3" d="M613.09,337.69v127.19l-56.46,22.45c-.65-7.61-2-18.46-5.12-25.32-1.24-2.74-8.94-11.72-11.18-13.59-10.23-8.6-21.11-7.29-33.17-10.48v-100.26h105.87M671.9,275.34h-223.5v211.37l44.64,11.78c1.94.5,3.82.94,5.58,1.31l6.06,74.82,72.64-28.87,56.46-22.44,38.17-15.15v-232.75l-.06-.06Z"/>
  <path class="cls-3" d="M399.71,185.31h-192.91v161.11h192.91v-161.11Z"/>
  <path class="cls-3" d="M370.3,216.48v98.76h-134.1v-98.76h134.1ZM429.12,154.13h-251.73v223.46h251.73v-223.46Z"/>
  <path class="cls-3" d="M670.73,185.31h-192.91v161.11h192.91v-161.11Z"/>
  <path class="cls-3" d="M641.32,216.48v98.76h-134.1v-98.76h134.1ZM700.14,154.13h-251.73v223.46h251.73v-223.46Z"/>
  <path class="cls-3" d="M426.7,215.6c-18.35-20.2-5.29-40.96,16.23-75.38,10.65-16.96,23.53-36.41,27.11-41.15,34.05-45.39,65.35-67.46,95.69-67.46,14.47,0,35.41,5.24,52.99,30.12,12.41,17.46,16.47,37.41,11.83,57.55-10,43.4-56.64,70.08-70.69,77.19-18.06,9.17-51.64,21.45-74.35,25.25-6.17,1.06-12.23,1.18-17.59,1.31-4.29.12-9.7.25-12.06.94l-17,5.11-12.23-13.47h.06Z"/>
  <path class="cls-3" d="M565.81,62.78c10.41,0,20.52,4.99,29.46,17.64,26.11,36.91-19.76,73.57-48.05,87.98-17,8.67-47.76,19.45-66.23,22.57-10.17,1.68-22.82,0-33.11,3.06-3.06-3.37,40.11-68.77,45.23-75.51,15.83-21.07,45.29-55.68,72.7-55.68M565.81.43c-39.88,0-78.75,25.94-118.75,79.25-4.53,6.05-18.17,26.69-28.58,43.27-6.88,10.97-12.35,20.14-16.29,27.31-3.06,5.61-5.35,10.1-7.12,14.28-13,30.8-3.12,57.74,10.47,72.7l24.47,26.94,32.47-9.79c1.47-.13,4.18-.19,6.23-.25,5.94-.13,13.35-.31,21.47-1.68,25.71-4.3,62.11-17.58,82.46-27.93,17-8.67,73.46-41.28,86.52-97.95,6.71-29.12.71-58.86-16.88-83.67C622.91,15.52,595.74.43,565.81.43Z"/>
  <path class="cls-3" d="M425.47,225.08c-.71,0-1.41.06-2.06.13-2.12.12-4.18.25-6.18.25-2.24,0-4.35-.13-6.35-.44-4-.56-7.71-1.81-11.12-3.74h-.35c-4.65-.06-9.88-.19-15.12-1.18-25.94-4.86-105.87-30.43-131.75-82.36-10.23-20.45-10.94-42.4-2.06-63.35,8.82-20.89,32.7-43.15,59.64-43.27,49.58,0,96.99,63.41,128.1,116.66,16.88,28.87,28.94,49.57,10.41,68.59l-9.94,10.23-13.17-1.56-.06.06Z"/>
  <path class="cls-3" d="M310.49,62.35c38.17,0,84.46,70.58,102.75,101.88,2.12,3.62,16.53,28.18,14.94,29.8-.76-.06-1.59-.13-2.41-.13-2.82,0-5.82.44-8.53.44-.88,0-1.76,0-2.59-.19-2.65-.37-1.82-2.81-3-3.06-6.06-1.43-16.06-.44-22.23-1.62-36.94-6.92-135.51-46.95-112.1-102.25,5.23-12.41,19.76-24.81,33-24.88h.18ZM310.49,0h-.53c-35.52.19-71.05,25.56-86.34,61.73-12.53,29.62-11.53,61.85,2.94,90.72,31.53,63.16,120.87,92.47,152.63,98.45,5.12.94,9.88,1.31,14.17,1.5,4.35,1.75,8.94,2.99,13.7,3.62,3.29.44,6.65.69,10.18.69,3,0,5.59-.19,7.53-.31l24.47,2.87,19.88-20.45c5.12-5.3,29.76-33.79,10.88-76.13-1.65-3.74-3.89-8.11-6.71-13.34-2.76-5.11-6.12-11.04-10-17.71C412.24,44.21,360.89,0,310.49,0Z"/>
  <path class="cls-3" d="M364.71,447.61c-20-4.05-43.58-8.23-66.76-8.23-10.23,0-19.64.75-28.76,2.37l-34.23,5.99v-141.29h164.68v148.21l-34.94-7.11v.06Z"/>
  <path class="cls-3" d="M370.3,337.69v79.31c-23.88-4.86-48.05-8.79-72.28-8.79-11.18,0-22.35.81-33.58,2.81v-73.32h105.87ZM429.12,275.34h-223.5v209.19l68.4-12.04c7.53-1.31,15.35-1.93,23.94-1.93,20.7,0,42.58,3.87,61.23,7.67l69.87,14.22v-217.1h.06Z"/>
  <path class="cls-1" d="M194.15,593.33l-31.17-116.91c25.23-16.71,53.58-32.17,82.81-39.47,81.34-20.26,179.15,16.77,260.84,23.38,26.88-2.24,41.64,28.87,16.17,44.33l-141.8.82c-14.7,2.18-16.94,22.01,4.06,23.88,34,3.06,94.34,2.74,128.57,0,18.88-1.5,29.06-11.6,45.53-19.08,20.35-9.23,41.88-16.33,62.4-25.13,28.18-12.09,71.34-36.16,99.1-43.08,21.76-5.42,34,12.84,18.59,30.18-82.4,43.21-162.21,97.77-244.67,140.17-15.29,7.85-25.41,11.78-43.05,11.16l-257.32-30.24h-.06Z"/>
  <path class="cls-7" d="M194.15,593.33l-31.17-116.91c25.23-16.71,53.58-32.17,82.81-39.47,81.34-20.26,179.15,16.77,260.84,23.38,26.88-2.24,41.64,28.87,16.17,44.33l-141.8.82c-14.7,2.18-16.94,22.01,4.06,23.88,34,3.06,94.34,2.74,128.57,0,18.88-1.5,29.06-11.6,45.53-19.08,20.35-9.23,41.88-16.33,62.4-25.13,28.18-12.09,71.34-36.16,99.1-43.08,21.76-5.42,34,12.84,18.59,30.18-82.4,43.21-162.21,97.77-244.67,140.17-15.29,7.85-25.41,11.78-43.05,11.16l-257.32-30.24h-.06Z"/>
  <path class="cls-1" d="M484.64,216.54v216.98l-91.75-13.47v-203.51h91.75Z"/>
  <path class="cls-2" d="M484.64,216.54v216.98l-91.75-13.47v-203.51h91.75Z"/>
  <path class="cls-6" d="M125.75,451.73c3.94-.5,7.53.56,8.88,4.86l46.58,172.21c0,3.06-1.18,5.43-4,6.36l-65.93,19.89-3.71-2.18c-17.17-58.24-34.23-117.22-47.93-176.58.29-2.49,1.65-4.18,3.88-4.93,19.06-2.87,44.05-17.33,62.11-19.58l.12-.06Z"/>
  <path class="cls-1" d="M613.09,337.75v127.19l-56.46,22.45c-.65-7.61-2-18.45-5.12-25.31-1.24-2.74-8.94-11.72-11.18-13.59-10.23-8.6-21.11-7.29-33.17-10.48v-100.26h105.92Z"/>
  <path class="cls-5" d="M613.09,337.75v127.19l-56.46,22.45c-.65-7.61-2-18.45-5.12-25.31-1.24-2.74-8.94-11.72-11.18-13.59-10.23-8.6-21.11-7.29-33.17-10.48v-100.26h105.92Z"/>
  <path class="cls-1" d="M370.3,216.54h-134.1v98.76h134.1v-98.76Z"/>
  <path class="cls-4" d="M370.3,216.54h-134.1v98.76h134.1v-98.76Z"/>
  <path class="cls-6" d="M641.32,216.54h-134.1v98.76h134.1v-98.76Z"/>
  <path class="cls-1" d="M447.94,194.09c-3.06-3.37,40.11-68.77,45.23-75.51,21.82-29.12,69.64-83.99,102.16-38.1,26.11,36.91-19.76,73.57-48.06,87.98-17,8.67-47.76,19.45-66.23,22.57-10.17,1.68-22.82,0-33.11,3.06Z"/>
  <path class="cls-1" d="M370.3,337.75v79.31c-34.94-7.11-70.4-12.22-105.87-5.99v-73.32h105.87Z"/>
  <path class="cls-1" d="M428.53,194.03c3.06-3.37-40.11-68.77-45.23-75.51-21.82-29.12-69.64-83.99-102.16-38.1-26.11,36.91,19.76,73.57,48.05,87.98,17,8.67,47.76,19.45,66.23,22.57,10.17,1.68,22.82,0,33.11,3.06Z"/>
</svg>