<?xml version="1.0" encoding="UTF-8"?>
<svg id="Layer_1" data-name="Layer 1" xmlns="http://www.w3.org/2000/svg" xmlns:xlink="http://www.w3.org/1999/xlink" viewBox="0 0 600 735.8">
  <defs>
    <style>
      .cls-1 {
        fill: url(#linear-gradient-2);
      }

      .cls-2 {
        fill: #fff;
      }

      .cls-3 {
        fill: #f5ca78;
      }

      .cls-4 {
        fill: url(#linear-gradient);
      }
    </style>
    <linearGradient id="linear-gradient" x1="2033.19" y1="2864.49" x2="-1756.81" y2="-1723.01" gradientTransform="translate(194 841.8) scale(1 -1)" gradientUnits="userSpaceOnUse">
      <stop offset=".49" stop-color="#f8f5e3" stop-opacity="0"/>
      <stop offset=".5" stop-color="#f8f5e3" stop-opacity=".6"/>
      <stop offset=".51" stop-color="#f8f5e3" stop-opacity="0"/>
      <stop offset=".68" stop-color="#f8f5e3" stop-opacity="0"/>
      <stop offset=".9" stop-color="#f8f5e3" stop-opacity="0"/>
      <stop offset="1" stop-color="#f8f5e3" stop-opacity="0"/>
    </linearGradient>
    <linearGradient id="linear-gradient-2" x1="1999.33" y1="2485.61" x2="-1675.67" y2="-1379.39" xlink:href="#linear-gradient"/>
  </defs>
  <path class="cls-2" d="M361.98,552.1c-20.67,0-36.93-8.71-48.78-15-6.66-3.59-12.97-6.91-16.96-7.19-3.01,0-8.13,2.91-13.6,5.94-11.21,6.29-26.56,14.86-47.59,14.86-8.97,0-18.15-1.66-27.33-4.84-35.95-12.65-47.17-40.65-53.82-57.38-2.73-6.77-5.26-13.21-7.92-15.21-2.24-1.66-8.48-2.83-14.51-3.94-17.87-3.32-47.73-8.92-65.67-43.21-16.05-30.7-7.85-56.41-2.38-73.49,3.01-9.33,4.63-14.93,3.85-19.91-.28-1.8-4.06-6.15-7.43-9.96-11.56-13.2-33.08-37.82-21.09-80.82,8.2-29.52,30.35-43.35,45.06-52.54,7.22-4.49,13.39-8.37,15.28-11.96,1.61-3.11,1.68-7.33,1.68-15.21,0-14.79,0-39.48,22.08-61.74,16.05-16.18,35.11-24.06,58.24-24.06,8.2,0,15.77.97,22.43,1.8,5.19.69,10.09,1.31,14.09,1.31,3.64,0,5.4-.55,6.52-.97,2.24-.97,4.98-4.08,9.25-9.13,9.88-11.75,26.35-31.39,60.48-34.5,3.08-.28,6.03-.41,8.9-.41,37.28,0,56.7,22.33,68.33,35.6,4.49,5.19,8.76,10.09,11.84,11.34.84.35,2.03.69,4.7.69,3.43,0,7.85-.62,12.54-1.24,6.45-.83,13.74-1.87,21.8-1.87,20.88,0,38.62,6.64,54.31,20.39,25.93,22.74,26.92,50.4,27.55,68.65.28,7.6.49,14.73,2.45,18.25,1.13,1.73,7.85,5.74,11.92,8.09,15.42,9.06,41.21,24.2,46.04,60.01,5.26,38.92-13.39,61.11-24.46,74.32-5.89,7.05-8.2,10.02-8.62,13.21-.42,2.97.7,6.36,3.57,14.03,5.82,15.62,15.56,41.76-3.36,75.29-18.01,31.94-48.57,38.09-66.86,41.83-5.75,1.18-14.44,2.9-16.4,4.63-1.61,1.45-3.5,6.57-5.33,11.61-5.4,14.59-13.6,36.72-40.65,51.72-13.11,7.26-26.56,10.92-39.95,10.92l-.21.07ZM299.18,192.61c-4.42,0-8.9.28-13.39.76-32.8,3.66-60.41,23.37-75.69,54.13-15.91,31.94-14.72,68.51,3.22,97.76,18.5,30.07,51.51,48.12,88.3,48.12,32.66,0,62.16-14.45,80.87-39.68,23.69-31.8,27.4-71.07,9.95-105.01-17.73-34.57-53.47-56-93.28-56v-.07Z"/>
  <path class="cls-2" d="M302.69,69.13c35.74,0,40.3,33.32,66.51,44.25,6.17,2.56,12.26,3.39,18.29,3.39,11.49,0,22.92-3.04,34.34-3.04,10.23,0,20.53,2.42,31.05,11.68,25.37,22.19,8.55,52.2,22.43,77.43,13.04,23.78,49.55,23.09,54.03,56.21,5.61,41.62-28.73,47.01-33.08,78.26-3.99,28.9,22.99,43.97,4.28,77.22-17.59,31.25-54.81,18.46-76.18,37.68-18.57,16.66-11.98,43.42-39.67,58.76-8.41,4.71-15.91,6.5-22.78,6.5-23.2,0-39.6-20.81-63.78-22.12h-2.24c-23.76,0-37.21,20.74-60.83,20.74-4.7,0-9.88-.83-15.56-2.84-36.58-12.86-27.68-49.29-52.49-67.68-22.15-16.39-53.4-3.46-70.08-35.4-16.47-31.46,9.88-51.85,4.98-82.89-4.62-29.11-41-34.5-29.36-76.25,8.48-30.42,43.8-31.66,57.61-57.66,13.03-24.54-3.71-47.15,17.8-68.72,10.79-10.85,21.87-13.62,33.22-13.62,11.98,0,24.18,3.11,36.51,3.11,6.66,0,13.39-.9,20.11-3.73,24.67-10.23,25.65-38.02,59.29-41.07,1.96-.21,3.85-.28,5.68-.28M301.64,427.87c41.14,0,82.28-17.63,109.19-53.79,69.17-92.92.14-216.04-111.57-216.04-5.68,0-11.42.35-17.31.97-96.71,10.79-148.64,122.51-98.54,204.15,26.21,42.72,72.26,64.78,118.3,64.78M302.69,0c-3.92,0-7.99.21-12.05.55-45.06,4.08-69.03,29.04-81.58,43.62-.35,0-.7-.07-1.12-.14-7.36-.97-16.54-2.07-26.91-2.07-32.59,0-60.62,11.55-83.26,34.43-30.63,30.83-32.03,65.26-32.1,83.45-.28.14-.49.35-.77.48-16.89,10.58-48.29,30.21-60.06,72.59-15.7,56.41,10.58,91.74,25.23,108.89,0,.21-.14.35-.14.48-6.31,19.7-18.01,56.41,4.7,99.76,24.53,46.88,66.65,56.76,87.32,60.77,7.92,19.84,24.46,58.28,74.08,75.7,12.9,4.56,26.07,6.84,39.04,6.84,27.96,0,48.57-10.3,61.74-17.63,13.46,7.19,35.81,19.09,65.18,19.09,19.55,0,38.76-5.19,57.12-15.42,34.48-19.15,47.8-47.64,54.39-64.64,21.66-4.42,63.35-14.1,88.3-58.42,24.88-44.18,14.23-80.4,7.08-100.04,13.38-16.18,36.72-47.36,29.93-98.17-6.66-49.71-42.19-72.94-60.13-83.51-.7-19.91-2.46-60.49-39.24-92.71-22.08-19.29-48.15-29.11-77.58-29.11-9.81,0-18.29,1.04-25.23,2.01C382.79,30.97,354.83.21,302.69.21v-.21ZM301.64,358.74c-24.46,0-46.25-11.75-58.31-31.46-11.7-19.08-12.4-43.21-1.75-64.57,4.7-9.47,18.85-31.8,48.22-35.05,3.22-.35,6.38-.55,9.46-.55,26.91,0,50.11,13.9,62.02,37.06,5.47,10.58,15.63,38.58-6.94,68.93-12.05,16.25-31.26,25.58-52.63,25.58l-.07.07Z"/>
  <path class="cls-2" d="M187.54,701.09c-17.03,0-31.89-9.4-39.74-25.09-3.15-6.29-5.4-14.59-9.6-32.29-11.35,3.18-24.04,6.43-37.56,7.6l-8.76.76-8.06-3.39c-22.92-9.67-32.87-34.57-23.62-59.11l.98-2.7,76.53-131.7,5.96-4.36c6.31-4.56,13.81-6.98,21.59-6.98,26.56,0,36.51,23.71,42.54,37.89.28.69.56,1.31.77,1.87,5.96,9.68,15.7,15.42,26.28,15.42,3.15,0,6.38-.49,9.6-1.52.98-.49,2.17-1.18,3.43-1.8,10.79-5.74,19.34-10.23,30.21-10.23h13.95l10.65,9.61,20.25,18.81-106.11,179.54-11.7,4.29c-5.96,2.21-11.98,3.31-17.8,3.31l.21.07Z"/>
  <path class="cls-2" d="M165.4,478.48c4.2,0,10.44,18.18,12.26,21.29,12.26,21.29,33.92,33.88,57.33,33.88,7.36,0,14.93-1.25,22.43-3.88,3.36-1.18,17.59-9.75,20.88-9.75.28,0,.42,0,.56.14l-85.78,145.12c-2.03.76-3.85,1.1-5.54,1.1-3.5,0-6.24-1.73-8.27-5.74-4.2-8.37-13.11-55.99-16.4-58.55-22.01,3.11-43.24,12.86-65.18,14.65-6.38-2.7-6.87-9.19-4.56-15.28l71.41-122.85s.56-.28.91-.28M165.4,409.34c-15.28,0-29.93,4.7-42.33,13.69l-11.98,8.64-7.36,12.72-71.41,122.85-2.87,4.98-2.03,5.33c-15.7,41.68,2.59,85.93,42.61,102.87l16.12,6.85,17.45-1.46c3.36-.28,6.59-.69,9.81-1.11.91,2.29,1.89,4.5,2.94,6.57,13.67,27.37,40.93,44.38,71.13,44.38,10.02,0,20.11-1.87,30.07-5.53l23.48-8.65,12.61-21.3,85.78-145.11,27.96-47.36-40.37-37.68c-13.18-12.31-30.49-19.08-48.71-19.08-16.68,0-29.5,5.46-40.79,11.2-8.27-18.25-28.1-52.89-72.11-52.89v.07Z"/>
  <path class="cls-2" d="M399.89,701.16c-13.88,0-26.77-6.29-35.25-17.29l-1.4-1.79-124.33-213.49,75.27,14.45c12.47,2.42,22.08,7.54,29.79,11.68,4.06,2.15,7.85,4.22,10.23,4.77,1.82.42,3.85.69,5.89.69,10.16,0,21.16-5.25,26.91-12.92.42-.83,1.12-2.7,1.61-4.01,1.05-2.84,2.38-6.22,4.2-9.82,5.47-13.76,18.71-22.75,33.85-22.75,3.43,0,6.38.48,8.27.83l16.33,2.97,82.7,147.88-1.61,11.4c-2.95,20.95-23.69,38.58-45.35,38.58h-4.56l-32.17-8.43-7.36,27.72-1.12,2.56c-7.43,16.46-23.83,27.1-41.84,27.1l-.07-.14Z"/>
  <path class="cls-2" d="M426.66,485.19c.42,0,1.05.07,1.89.21l69.03,123.47c-.56,4.01-6.59,8.78-10.65,8.78l-61.67-16.11-15.56,58.55c-1.82,4.08-5.82,6.57-9.81,6.57-2.73,0-5.4-1.17-7.43-3.73l-85.01-145.94c13.81,2.63,24.39,12.72,38.33,16.11,4.7,1.1,9.46,1.66,14.3,1.66,21.45,0,43.38-10.71,55.72-27.86,4.27-5.94,5.75-13.62,8.97-19.36.84-1.45.35-2.35,1.82-2.35M426.66,416.05c-29.36,0-54.94,17.15-65.95,43.49-.63,1.31-1.26,2.63-1.75,3.87-8.76-4.7-21.45-11.06-38.06-14.31l-150.61-28.9,76.39,131.22,85.01,145.95,2.31,3.94,2.8,3.6c15.21,19.64,38.19,30.9,63.14,30.9,31.89,0,60.83-18.74,73.87-47.64l.91-2.07,3.09.83h9.18c39.52,0,74.71-30.07,80.03-68.45l3.15-22.74-11.21-20.12-69.03-123.48-16.05-28.62-32.59-5.95c-5.12-.9-9.88-1.38-14.65-1.38v-.14Z"/>
  <path class="cls-2" d="M307.45,376.02c46.29,0,83.82-37.02,83.82-82.68s-37.53-82.68-83.82-82.68-83.82,37.02-83.82,82.68,37.53,82.68,83.82,82.68Z"/>
  <path class="cls-3" d="M304.44,71.14c41-3.73,44.64,32.56,72.18,43.97,27.54,11.41,55.15-13,83.68,12.03,25.37,22.19,8.55,52.2,22.43,77.43,13.04,23.78,49.55,23.09,54.03,56.21,5.61,41.62-28.73,47.01-33.08,78.26-3.99,28.9,22.99,43.97,4.28,77.22-17.59,31.25-54.81,18.46-76.18,37.68-18.57,16.66-11.98,43.42-39.67,58.76-36.93,20.54-55.22-13.89-86.55-15.62-31.33-1.73-43.59,30.14-78.63,17.84-36.58-12.86-27.68-49.29-52.49-67.68-22.15-16.38-53.4-3.46-70.08-35.4-16.47-31.46,9.88-51.85,4.98-82.89-4.63-29.11-41-34.5-29.36-76.26,8.48-30.42,43.8-31.66,57.61-57.66,13.04-24.54-3.71-47.15,17.8-68.72,28.31-28.48,58.87-1.38,89.85-14.24,24.67-10.23,25.65-38.02,59.29-41.07l-.07.14ZM289.23,160.74c-96.71,10.79-148.65,122.51-98.54,204.15,49.69,80.96,170.44,87.59,227.42,10.99,72.68-97.62-7.22-228.63-128.88-215.08v-.07Z"/>
  <path class="cls-4" d="M304.44,71.14c41-3.73,44.64,32.56,72.18,43.97,27.54,11.41,55.15-13,83.68,12.03,25.37,22.19,8.55,52.2,22.43,77.43,13.04,23.78,49.55,23.09,54.03,56.21,5.61,41.62-28.73,47.01-33.08,78.26-3.99,28.9,22.99,43.97,4.28,77.22-17.59,31.25-54.81,18.46-76.18,37.68-18.57,16.66-11.98,43.42-39.67,58.76-36.93,20.54-55.22-13.89-86.55-15.62-31.33-1.73-43.59,30.14-78.63,17.84-36.58-12.86-27.68-49.29-52.49-67.68-22.15-16.38-53.4-3.46-70.08-35.4-16.47-31.46,9.88-51.85,4.98-82.89-4.63-29.11-41-34.5-29.36-76.26,8.48-30.42,43.8-31.66,57.61-57.66,13.04-24.54-3.71-47.15,17.8-68.72,28.31-28.48,58.87-1.38,89.85-14.24,24.67-10.23,25.65-38.02,59.29-41.07l-.07.14ZM289.23,160.74c-96.71,10.79-148.65,122.51-98.54,204.15,49.69,80.96,170.44,87.59,227.42,10.99,72.68-97.62-7.22-228.63-128.88-215.08v-.07Z"/>
  <path class="cls-3" d="M286.29,522.03l-85.78,145.11c-6.17,2.29-10.86,1.32-13.81-4.63-4.21-8.37-13.11-56-16.4-58.56-22.01,3.11-43.24,12.85-65.18,14.65-6.38-2.7-6.87-9.19-4.56-15.28l71.41-122.85c4.2-3.04,11.21,17.63,13.18,21.02,16.12,28.07,48.43,40.93,79.82,30.07,3.64-1.25,19.76-11.06,21.38-9.54h-.07Z"/>
  <path class="cls-3" d="M435.91,487.19l69.03,123.47c-.56,4.01-6.66,8.78-10.65,8.78l-61.67-16.11-15.56,58.56c-3.08,6.91-12.33,9.13-17.24,2.84l-85.01-145.94c13.81,2.62,24.39,12.72,38.33,16.11,25.37,6.15,54.94-5.18,70.01-26.13,4.28-5.94,5.75-13.62,8.97-19.36,1.05-1.94-.07-2.83,3.71-2.14l.07-.07Z"/>
  <path class="cls-3" d="M351.89,256.56h44.57c.7,0,5.89,3.8,6.8,4.84,11.07,12.86-6.8,22.19-5.96,23.3,13.67,3.46,12.62,23.85-1.68,24.96-.49,4.08,4.14,4.63,5.05,9.13,3.22,16.25-6.52,13.69-11.7,19.08-1.47,1.52,3.01,2.01,4.06,3.32,5.26,6.29,3.78,18.67-4.56,21.92-6.73,2.63-54.45,2.07-64.13,1.04-14.65-1.52-24.39-9.4-37.98-11.48,2.17-10.3-3.15-81.58-.07-84.55.49-.48,9.81.35,13.53-.76,14.65-4.29,24.53-29.8,28.94-42.79,3.15-9.33,4.42-38.16,18.99-24.61,12.83,11.89,8.06,41.48,4.14,56.48v.14Z"/>
  <path class="cls-1" d="M351.89,256.56h44.57c.7,0,5.89,3.8,6.8,4.84,11.07,12.86-6.8,22.19-5.96,23.3,13.67,3.46,12.62,23.85-1.68,24.96-.49,4.08,4.14,4.63,5.05,9.13,3.22,16.25-6.52,13.69-11.7,19.08-1.47,1.52,3.01,2.01,4.06,3.32,5.26,6.29,3.78,18.67-4.56,21.92-6.73,2.63-54.45,2.07-64.13,1.04-14.65-1.52-24.39-9.4-37.98-11.48,2.17-10.3-3.15-81.58-.07-84.55.49-.48,9.81.35,13.53-.76,14.65-4.29,24.53-29.8,28.94-42.79,3.15-9.33,4.42-38.16,18.99-24.61,12.83,11.89,8.06,41.48,4.14,56.48v.14Z"/>
  <path class="cls-3" d="M225.25,255.24c8.41-1.52,38.69-2.83,41.77,6.15l.77,90.57c-.28,9.06-6.45,10.16-14.23,10.85-8.48.69-34.2,2.28-37.14-6.57l-.77-90.57c.28-6.64,3.36-9.2,9.67-10.37l-.07-.07Z"/>
</svg>