<?xml version="1.0" encoding="UTF-8"?>
<svg id="Layer_1" data-name="Layer 1" xmlns="http://www.w3.org/2000/svg" xmlns:xlink="http://www.w3.org/1999/xlink" viewBox="0 0 670 694.68">
  <defs>
    <style>
      .cls-1 {
        fill: #f6cb78;
      }

      .cls-2 {
        fill: url(#linear-gradient-2);
      }

      .cls-3 {
        fill: #fff;
      }

      .cls-4 {
        fill: url(#linear-gradient);
      }
    </style>
    <linearGradient id="linear-gradient" x1="2010.33" y1="2261.34" x2="-1752.17" y2="-1443.66" gradientTransform="translate(194 799.86) scale(1 -1)" gradientUnits="userSpaceOnUse">
      <stop offset=".48" stop-color="#fdf9ef" stop-opacity="0"/>
      <stop offset=".5" stop-color="#fdf9ef" stop-opacity=".6"/>
      <stop offset=".51" stop-color="#fdf9ef" stop-opacity="0"/>
      <stop offset=".69" stop-color="#fdf9ef" stop-opacity="0"/>
      <stop offset=".9" stop-color="#fdf9ef" stop-opacity="0"/>
      <stop offset="1" stop-color="#fdf9ef" stop-opacity="0"/>
    </linearGradient>
    <linearGradient id="linear-gradient-2" x1="1860.14" y1="2228.28" x2="-1907.36" y2="-981.72" xlink:href="#linear-gradient"/>
  </defs>
  <path class="cls-3" d="M276.37,661.52c-39.1,0-76.04-26.14-96.39-68.12l-9.79-20.16,15.95-16.25c.91-.93,1.68-1.92,2.31-2.92,5.39-8.75,6.16-27.2-4.76-36.28-2.66-2.19-7.35-5.17-17-5.17-10.14,0-19.45,3.25-22.03,4.24-1.54.6-3.01,1.26-4.41,1.99l-15.25,8.16-16.02-6.7c-47.43-19.97-75.76-54.85-73.87-91.06.49-9.55,3.15-18.97,7.76-27.99l2.31-4.51,3.64-3.65c11.26-11.28,22.66-22.48,34.07-33.63l.49-.53-1.26-270.34.7-3.32c3.57-16.51,17.56-44.11,71.56-44.11,6.02,0,12.03.27,17.84.53,3.99.2,7.83.4,11.19.4h.28c.84,0,1.68,0,2.38-.07l35.74-3.91,3.5,33.96c1.4,15.25,11.96,17.58,18.12,17.58s16.72-2.26,18.05-17.44l3.01-34.69,36.37,4.51c.42,0,1.61.13,4.06.13,3.71,0,7.63-.2,11.75-.4,5.53-.27,11.26-.53,16.79-.53,12.38,0,30.64,1.19,45.89,11.21,14.83,9.82,21.89,22.75,25.18,35.48,27.91,4.44,45.54,23.15,58.9,37.34,5.11,5.44,9.93,10.61,14.34,13.93l6.57,4.97,3.5,7.23c8.25,17.24-.28,32.63-7.21,44.97-.98,1.79-2.38,4.31-3.08,5.64-3.08,11.61,1.75,20.03,4.89,24.01,5.53,6.9,13.99,11.01,22.67,11.01,3.78,0,7.55-.73,11.4-2.19.63-.4,1.33-.93,2.1-1.39,7.98-5.31,17.84-11.94,31.34-11.94,5.81,0,11.54,1.33,16.65,3.78l6.51,3.12,4.62,5.37c3.36,3.85,8.82,8.62,14.62,13.66,19.93,17.38,66.73,58.1,27.91,108.97l-1.54,2.06-298.2,287.58-1.96,1.46c-12.45,9.02-25.81,13.8-39.8,14.19h-2.45l.07-.2Z"/>
  <path class="cls-3" d="M154.44,74.22c10.21,0,20.78.93,29.03.93,2.66,0,5.04-.07,7.14-.33,2.87,31.9,27.98,47.89,52.95,47.89s50.15-15.98,52.88-47.95c2.59.33,5.46.46,8.53.46,8.67,0,18.89-.93,28.54-.93s19.45,1.06,25.88,5.24c16.16,10.68,12.73,30.97,12.31,47.62,3.64-2.92,7.83-5.64,12.45-6.43,2.8-.46,5.46-.73,7.97-.73,28.68,0,42.6,28.92,63.87,44.97,1.89,3.98-9.79,20.1-11.82,26.99-12.24,40.99,20.7,78.13,61,78.13,8.81,0,18.04-1.79,27.14-5.77,4.06-1.79,13.71-9.82,17.63-9.82.28,0,.56,0,.84.13,20.49,23.68,68.2,46.76,41.2,82.11l-294.63,284.13c-6.93,4.98-13.43,7.23-19.59,7.37h-1.4c-23.85,0-49.46-17.51-64.63-48.82,1.96-2.06,4.55-4.98,6.93-8.82,12.87-20.96,12.94-57.24-11.96-77.86-12.38-10.28-27-13.4-40.01-13.4-17.7,0-32.46,5.64-35.12,6.64-3.64,1.39-6.51,2.78-8.46,3.84-32.81-13.79-54.28-36.61-53.09-59.1.21-4.18,1.26-9.29,4.27-15.06,14.62-14.66,29.45-29.05,44.21-43.57l-1.33-280.42c3.22-14.86,19.8-17.58,37.28-17.58M232.72,0l-.28,2.92-49.18,5.97c-2.17,0-5.74-.2-9.23-.33-5.81-.27-12.38-.6-19.59-.6-84.08,0-102.27,54.12-105.84,70.7l-1.47,6.7v6.83l1.19,253.42c-8.25,8.09-16.65,16.38-24.9,24.67l-7.27,7.3-4.69,9.02c-6.79,13.07-10.56,26.86-11.33,40.99-2.59,50.21,33.65,97.36,94.64,122.97l31.97,13.46,9.65-5.11-7.83,7.96,19.59,40.39c26.16,53.92,75.27,87.42,128.22,87.42h3.5c21.13-.6,41.83-7.83,59.95-20.96l3.92-2.85,3.5-3.39,294.63-284.13,3.71-3.58,3.08-4.05c24.69-32.37,28.12-70.57,9.51-104.93-11.47-21.16-28.47-35.95-42.11-47.89-3.98-3.45-9.44-8.22-11.26-10.28l-9.31-10.68-13.01-6.3c-10.01-4.84-21.27-7.36-32.53-7.36s-21.33,2.52-29.66,5.9c6.09-14.99,9.86-34.75-.63-56.64l-6.93-14.46-13.15-9.88c-2.03-1.53-6.65-6.43-10-10.02-11.54-12.27-30.08-31.97-58.06-42.38-6.36-12.73-16.37-25.14-32.11-35.55-23.29-15.39-48.76-17.18-65.89-17.18-6.72,0-13.01.33-18.61.6-3.85.2-7.48.4-9.93.4h-.49l-50.29-6.23-.21-2.39-9.58,1.19-11.75-1.46.07-.2Z"/>
  <path class="cls-1" d="M384.16,125.75c34.28-5.97,48.76,26.8,71.84,44.24,1.89,3.98-9.79,20.1-11.82,26.99-14.9,50.01,37.43,94.31,88.14,72.43,4.41-1.92,15.32-11.14,18.47-9.68,20.5,23.68,68.2,46.76,41.21,82.11l-294.63,284.13c-35.96,26-61.21-23.62-85.62-41.46,48.41-53.19-14.06-126.81-80.16-93.45-3.64,1.86-8.18,7.9-12.24,5.97-18.05-21.49-63.31-43.51-45.12-76.21,96.95-97.23,198.1-191.08,296.03-287.58,3.85-3.25,8.67-6.63,13.85-7.56l.07.07ZM314.07,298.92v50.94c-10.42,5.84-20.98,12.54-30.78,19.37-1.96,1.39-11.89,7.43-10.42,9.29l47.85,15.12,17.63,46.89,29.38-39.79h53.72l-30.22-40.66,15.11-46.89-49.45,14.33-42.88-28.65.07.07Z"/>
  <path class="cls-4" d="M384.16,125.75c34.28-5.97,48.76,26.8,71.84,44.24,1.89,3.98-9.79,20.1-11.82,26.99-14.9,50.01,37.43,94.31,88.14,72.43,4.41-1.92,15.32-11.14,18.47-9.68,20.5,23.68,68.2,46.76,41.21,82.11l-294.63,284.13c-35.96,26-61.21-23.62-85.62-41.46,48.41-53.19-14.06-126.81-80.16-93.45-3.64,1.86-8.18,7.9-12.24,5.97-18.05-21.49-63.31-43.51-45.12-76.21,96.95-97.23,198.1-191.08,296.03-287.58,3.85-3.25,8.67-6.63,13.85-7.56l.07.07ZM314.07,298.92v50.94c-10.42,5.84-20.98,12.54-30.78,19.37-1.96,1.39-11.89,7.43-10.42,9.29l47.85,15.12,17.63,46.89,29.38-39.79h53.72l-30.22-40.66,15.11-46.89-49.45,14.33-42.88-28.65.07.07Z"/>
  <path class="cls-1" d="M184.73,69.77c5.81,63.94,100.38,63.74,105.84-.07,17.63,2.19,48.27-4.97,62.96,4.78,17.42,11.47,12.1,34.22,12.24,51.4l-93.66,91c-2.45,1.06-11.33,1.66-13.15.53-1.61-.93-13.64-27.13-16.23-31.64-1.05-1.79.14-3.91-3.29-3.12l-18.75,33.56-42.53,6.23c3.78,7.43,28.19,24.01,29.94,29.78.77,2.65-3.71,27.86-5.25,31.04-2.31,5.04-51.34,50.87-59.95,59.36-7.07,6.9-17.63,18.31-25.18,23.88-1.68,1.19-2.1,3.12-5.04,2.39l-1.33-282.14c5.67-26.33,53.65-14.59,73.38-16.98Z"/>
  <path class="cls-2" d="M184.73,69.77c5.81,63.94,100.38,63.74,105.84-.07,17.63,2.19,48.27-4.97,62.96,4.78,17.42,11.47,12.1,34.22,12.24,51.4l-93.66,91c-2.45,1.06-11.33,1.66-13.15.53-1.61-.93-13.64-27.13-16.23-31.64-1.05-1.79.14-3.91-3.29-3.12l-18.75,33.56-42.53,6.23c3.78,7.43,28.19,24.01,29.94,29.78.77,2.65-3.71,27.86-5.25,31.04-2.31,5.04-51.34,50.87-59.95,59.36-7.07,6.9-17.63,18.31-25.18,23.88-1.68,1.19-2.1,3.12-5.04,2.39l-1.33-282.14c5.67-26.33,53.65-14.59,73.38-16.98Z"/>
</svg>