<?xml version="1.0" encoding="UTF-8"?>
<svg id="Layer_1" data-name="Layer 1" xmlns="http://www.w3.org/2000/svg" xmlns:xlink="http://www.w3.org/1999/xlink" viewBox="0 0 735 665">
  <defs>
    <style>
      .cls-1, .cls-2 {
        fill: #f6cb78;
      }

      .cls-3 {
        fill: url(#linear-gradient-2);
      }

      .cls-2, .cls-4 {
        isolation: isolate;
      }

      .cls-2, .cls-4, .cls-5 {
        opacity: .5;
      }

      .cls-6, .cls-4 {
        fill: #fff;
      }

      .cls-4 {
        stroke: #fff;
        stroke-width: 10px;
      }

      .cls-7 {
        fill: url(#linear-gradient);
      }
    </style>
    <linearGradient id="linear-gradient" x1="-1147.49" y1="-874.42" x2="1272.51" y2="2018.08" gradientTransform="translate(194 770.18) scale(1 -1)" gradientUnits="userSpaceOnUse">
      <stop offset=".48" stop-color="#f8f5e3" stop-opacity="0"/>
      <stop offset=".5" stop-color="#f8f5e3"/>
      <stop offset=".51" stop-color="#f8f5e3" stop-opacity="0"/>
      <stop offset=".69" stop-color="#f8f5e3" stop-opacity="0"/>
      <stop offset=".9" stop-color="#f8f5e3" stop-opacity="0"/>
      <stop offset="1" stop-color="#f8f5e3" stop-opacity="0"/>
    </linearGradient>
    <linearGradient id="linear-gradient-2" x1="-1360.19" y1="-1898" x2="2037.31" y2="2552" gradientTransform="translate(194 770.18) scale(1 -1)" gradientUnits="userSpaceOnUse">
      <stop offset=".48" stop-color="#f8f5e3" stop-opacity="0"/>
      <stop offset=".5" stop-color="#f8f5e3" stop-opacity=".6"/>
      <stop offset=".51" stop-color="#f8f5e3" stop-opacity="0"/>
      <stop offset=".69" stop-color="#f8f5e3" stop-opacity="0"/>
      <stop offset=".9" stop-color="#f8f5e3" stop-opacity="0"/>
      <stop offset="1" stop-color="#f8f5e3" stop-opacity="0"/>
    </linearGradient>
  </defs>
  <path class="cls-4" d="M501.02,219.43c-125.42,0-228.98,97.61-228.98,220.28,0,122.67,103.56,220.29,228.98,220.29,36.4,0,70.92-8.19,101.59-22.81,2.67-1.28,4.99-1.33,6.46-.96l45.41,11.63c36.22,9.28,73.78-22.56,62.75-62.04l-12.14-43.47c-.16-.56-.3-2,.82-4.16l1.43-2.79c14.52-28.94,22.68-61.43,22.68-95.7,0-122.67-103.56-220.28-228.98-220.28Z"/>
  <path class="cls-4" d="M233.98,5c125.42,0,228.99,97.61,228.99,220.28s-103.56,220.29-228.99,220.29c-36.4,0-70.92-8.19-101.58-22.81-2.67-1.28-4.99-1.33-6.46-.96l-45.41,11.63c-36.22,9.28-73.79-22.56-62.75-62.04l12.15-43.47c.16-.56.3-2-.83-4.16l-1.43-2.79c-14.53-28.94-22.68-61.43-22.68-95.7,0-122.67,103.56-220.28,228.98-220.28Z"/>
  <path class="cls-4" d="M501.02,219.43c-125.42,0-228.98,97.61-228.98,220.28,0,122.67,103.56,220.29,228.98,220.29,36.4,0,70.92-8.19,101.59-22.81,2.67-1.28,4.99-1.33,6.46-.96l45.41,11.63c36.22,9.28,73.78-22.56,62.75-62.04l-12.14-43.47c-.16-.56-.3-2,.82-4.16l1.43-2.79c14.52-28.94,22.68-61.43,22.68-95.7,0-122.67-103.56-220.28-228.98-220.28Z"/>
  <path class="cls-4" d="M233.98,5c125.42,0,228.99,97.61,228.99,220.28s-103.56,220.29-228.99,220.29c-36.4,0-70.92-8.19-101.58-22.81-2.67-1.28-4.99-1.33-6.46-.96l-45.41,11.63c-36.22,9.28-73.79-22.56-62.75-62.04l12.15-43.47c.16-.56.3-2-.83-4.16l-1.43-2.79c-14.53-28.94-22.68-61.43-22.68-95.7,0-122.67,103.56-220.28,228.98-220.28Z"/>
  <path class="cls-4" d="M501.02,219.43c-125.42,0-228.98,97.61-228.98,220.28,0,122.67,103.56,220.29,228.98,220.29,36.4,0,70.92-8.19,101.59-22.81,2.67-1.28,4.99-1.33,6.46-.96l45.41,11.63c36.22,9.28,73.78-22.56,62.75-62.04l-12.14-43.47c-.16-.56-.3-2,.82-4.16l1.43-2.79c14.52-28.94,22.68-61.43,22.68-95.7,0-122.67-103.56-220.28-228.98-220.28Z"/>
  <path class="cls-4" d="M233.98,5c125.42,0,228.99,97.61,228.99,220.28s-103.56,220.29-228.99,220.29c-36.4,0-70.92-8.19-101.58-22.81-2.67-1.28-4.99-1.33-6.46-.96l-45.41,11.63c-36.22,9.28-73.79-22.56-62.75-62.04l12.15-43.47c.16-.56.3-2-.83-4.16l-1.43-2.79c-14.53-28.94-22.68-61.43-22.68-95.7,0-122.67,103.56-220.28,228.98-220.28Z"/>
  <path class="cls-4" d="M501.02,219.43c-125.42,0-228.98,97.61-228.98,220.28,0,122.67,103.56,220.29,228.98,220.29,36.4,0,70.92-8.19,101.59-22.81,2.67-1.28,4.99-1.33,6.46-.96l45.41,11.63c36.22,9.28,73.78-22.56,62.75-62.04l-12.14-43.47c-.16-.56-.3-2,.82-4.16l1.43-2.79c14.52-28.94,22.68-61.43,22.68-95.7,0-122.67-103.56-220.28-228.98-220.28Z"/>
  <path class="cls-4" d="M233.98,5c125.42,0,228.99,97.61,228.99,220.28s-103.56,220.29-228.99,220.29c-36.4,0-70.92-8.19-101.58-22.81-2.67-1.28-4.99-1.33-6.46-.96l-45.41,11.63c-36.22,9.28-73.79-22.56-62.75-62.04l12.15-43.47c.16-.56.3-2-.83-4.16l-1.43-2.79c-14.53-28.94-22.68-61.43-22.68-95.7,0-122.67,103.56-220.28,228.98-220.28Z"/>
  <path class="cls-4" d="M501.02,219.43c-125.42,0-228.98,97.61-228.98,220.28,0,122.67,103.56,220.29,228.98,220.29,36.4,0,70.92-8.19,101.59-22.81,2.67-1.28,4.99-1.33,6.46-.96l45.41,11.63c36.22,9.28,73.78-22.56,62.75-62.04l-12.14-43.47c-.16-.56-.3-2,.82-4.16l1.43-2.79c14.52-28.94,22.68-61.43,22.68-95.7,0-122.67-103.56-220.28-228.98-220.28Z"/>
  <path class="cls-4" d="M233.98,5c125.42,0,228.99,97.61,228.99,220.28s-103.56,220.29-228.99,220.29c-36.4,0-70.92-8.19-101.58-22.81-2.67-1.28-4.99-1.33-6.46-.96l-45.41,11.63c-36.22,9.28-73.79-22.56-62.75-62.04l12.15-43.47c.16-.56.3-2-.83-4.16l-1.43-2.79c-14.53-28.94-22.68-61.43-22.68-95.7,0-122.67,103.56-220.28,228.98-220.28Z"/>
  <path class="cls-4" d="M501.02,219.43c-125.42,0-228.98,97.61-228.98,220.28,0,122.67,103.56,220.29,228.98,220.29,36.4,0,70.92-8.19,101.59-22.81,2.67-1.28,4.99-1.33,6.46-.96l45.41,11.63c36.22,9.28,73.78-22.56,62.75-62.04l-12.14-43.47c-.16-.56-.3-2,.82-4.16l1.43-2.79c14.52-28.94,22.68-61.43,22.68-95.7,0-122.67-103.56-220.28-228.98-220.28Z"/>
  <path class="cls-4" d="M233.98,5c125.42,0,228.99,97.61,228.99,220.28s-103.56,220.29-228.99,220.29c-36.4,0-70.92-8.19-101.58-22.81-2.67-1.28-4.99-1.33-6.46-.96l-45.41,11.63c-36.22,9.28-73.79-22.56-62.75-62.04l12.15-43.47c.16-.56.3-2-.83-4.16l-1.43-2.79c-14.53-28.94-22.68-61.43-22.68-95.7,0-122.67,103.56-220.28,228.98-220.28Z"/>
  <path class="cls-4" d="M501.02,219.43c-125.42,0-228.98,97.61-228.98,220.28,0,122.67,103.56,220.29,228.98,220.29,36.4,0,70.92-8.19,101.59-22.81,2.67-1.28,4.99-1.33,6.46-.96l45.41,11.63c36.22,9.28,73.78-22.56,62.75-62.04l-12.14-43.47c-.16-.56-.3-2,.82-4.16l1.43-2.79c14.52-28.94,22.68-61.43,22.68-95.7,0-122.67-103.56-220.28-228.98-220.28Z"/>
  <path class="cls-4" d="M233.98,5c125.42,0,228.99,97.61,228.99,220.28s-103.56,220.29-228.99,220.29c-36.4,0-70.92-8.19-101.58-22.81-2.67-1.28-4.99-1.33-6.46-.96l-45.41,11.63c-36.22,9.28-73.79-22.56-62.75-62.04l12.15-43.47c.16-.56.3-2-.83-4.16l-1.43-2.79c-14.53-28.94-22.68-61.43-22.68-95.7,0-122.67,103.56-220.28,228.98-220.28Z"/>
  <path class="cls-4" d="M501.02,219.43c-125.42,0-228.98,97.61-228.98,220.28,0,122.67,103.56,220.29,228.98,220.29,36.4,0,70.92-8.19,101.59-22.81,2.67-1.28,4.99-1.33,6.46-.96l45.41,11.63c36.22,9.28,73.78-22.56,62.75-62.04l-12.14-43.47c-.16-.56-.3-2,.82-4.16l1.43-2.79c14.52-28.94,22.68-61.43,22.68-95.7,0-122.67-103.56-220.28-228.98-220.28Z"/>
  <path class="cls-4" d="M233.98,5c125.42,0,228.99,97.61,228.99,220.28s-103.56,220.29-228.99,220.29c-36.4,0-70.92-8.19-101.58-22.81-2.67-1.28-4.99-1.33-6.46-.96l-45.41,11.63c-36.22,9.28-73.79-22.56-62.75-62.04l12.15-43.47c.16-.56.3-2-.83-4.16l-1.43-2.79c-14.53-28.94-22.68-61.43-22.68-95.7,0-122.67,103.56-220.28,228.98-220.28Z"/>
  <path class="cls-2" d="M501.02,635c-112.66,0-203.98-87.43-203.98-195.29s91.33-195.29,203.98-195.29,203.98,87.43,203.98,195.29c0,31.24-7.66,60.77-21.29,86.95-3.62,6.96-4.82,14.91-2.72,22.42l12.15,43.47c5.27,18.87-12.76,36.14-32.48,31.08l-45.4-11.63c-7.85-2.01-16.15-.85-23.42,2.61-27.35,13.05-58.19,20.38-90.82,20.38Z"/>
  <path class="cls-2" d="M501.02,635c-112.66,0-203.98-87.43-203.98-195.29s91.33-195.29,203.98-195.29,203.98,87.43,203.98,195.29c0,31.24-7.66,60.77-21.29,86.95-3.62,6.96-4.82,14.91-2.72,22.42l12.15,43.47c5.27,18.87-12.76,36.14-32.48,31.08l-45.4-11.63c-7.85-2.01-16.15-.85-23.42,2.61-27.35,13.05-58.19,20.38-90.82,20.38Z"/>
  <path class="cls-2" d="M501.02,635c-112.66,0-203.98-87.43-203.98-195.29s91.33-195.29,203.98-195.29,203.98,87.43,203.98,195.29c0,31.24-7.66,60.77-21.29,86.95-3.62,6.96-4.82,14.91-2.72,22.42l12.15,43.47c5.27,18.87-12.76,36.14-32.48,31.08l-45.4-11.63c-7.85-2.01-16.15-.85-23.42,2.61-27.35,13.05-58.19,20.38-90.82,20.38Z"/>
  <g class="cls-5">
    <path class="cls-1" d="M501.02,635c-112.66,0-203.98-87.43-203.98-195.29s91.33-195.29,203.98-195.29,203.98,87.43,203.98,195.29c0,31.24-7.66,60.77-21.29,86.95-3.62,6.96-4.82,14.91-2.72,22.42l12.15,43.47c5.27,18.87-12.76,36.14-32.48,31.08l-45.4-11.63c-7.85-2.01-16.15-.85-23.42,2.61-27.35,13.05-58.19,20.38-90.82,20.38Z"/>
    <path class="cls-1" d="M501.02,635c-112.66,0-203.98-87.43-203.98-195.29s91.33-195.29,203.98-195.29,203.98,87.43,203.98,195.29c0,31.24-7.66,60.77-21.29,86.95-3.62,6.96-4.82,14.91-2.72,22.42l12.15,43.47c5.27,18.87-12.76,36.14-32.48,31.08l-45.4-11.63c-7.85-2.01-16.15-.85-23.42,2.61-27.35,13.05-58.19,20.38-90.82,20.38Z"/>
    <path class="cls-1" d="M501.02,635c-112.66,0-203.98-87.43-203.98-195.29s91.33-195.29,203.98-195.29,203.98,87.43,203.98,195.29c0,31.24-7.66,60.77-21.29,86.95-3.62,6.96-4.82,14.91-2.72,22.42l12.15,43.47c5.27,18.87-12.76,36.14-32.48,31.08l-45.4-11.63c-7.85-2.01-16.15-.85-23.42,2.61-27.35,13.05-58.19,20.38-90.82,20.38Z"/>
    <path class="cls-1" d="M501.02,635c-112.66,0-203.98-87.43-203.98-195.29s91.33-195.29,203.98-195.29,203.98,87.43,203.98,195.29c0,31.24-7.66,60.77-21.29,86.95-3.62,6.96-4.82,14.91-2.72,22.42l12.15,43.47c5.27,18.87-12.76,36.14-32.48,31.08l-45.4-11.63c-7.85-2.01-16.15-.85-23.42,2.61-27.35,13.05-58.19,20.38-90.82,20.38Z"/>
    <path class="cls-1" d="M501.02,635c-112.66,0-203.98-87.43-203.98-195.29s91.33-195.29,203.98-195.29,203.98,87.43,203.98,195.29c0,31.24-7.66,60.77-21.29,86.95-3.62,6.96-4.82,14.91-2.72,22.42l12.15,43.47c5.27,18.87-12.76,36.14-32.48,31.08l-45.4-11.63c-7.85-2.01-16.15-.85-23.42,2.61-27.35,13.05-58.19,20.38-90.82,20.38Z"/>
    <path class="cls-1" d="M501.02,635c-112.66,0-203.98-87.43-203.98-195.29s91.33-195.29,203.98-195.29,203.98,87.43,203.98,195.29c0,31.24-7.66,60.77-21.29,86.95-3.62,6.96-4.82,14.91-2.72,22.42l12.15,43.47c5.27,18.87-12.76,36.14-32.48,31.08l-45.4-11.63c-7.85-2.01-16.15-.85-23.42,2.61-27.35,13.05-58.19,20.38-90.82,20.38Z"/>
    <path class="cls-1" d="M501.02,635c-112.66,0-203.98-87.43-203.98-195.29s91.33-195.29,203.98-195.29,203.98,87.43,203.98,195.29c0,31.24-7.66,60.77-21.29,86.95-3.62,6.96-4.82,14.91-2.72,22.42l12.15,43.47c5.27,18.87-12.76,36.14-32.48,31.08l-45.4-11.63c-7.85-2.01-16.15-.85-23.42,2.61-27.35,13.05-58.19,20.38-90.82,20.38Z"/>
    <path class="cls-1" d="M501.02,635c-112.66,0-203.98-87.43-203.98-195.29s91.33-195.29,203.98-195.29,203.98,87.43,203.98,195.29c0,31.24-7.66,60.77-21.29,86.95-3.62,6.96-4.82,14.91-2.72,22.42l12.15,43.47c5.27,18.87-12.76,36.14-32.48,31.08l-45.4-11.63c-7.85-2.01-16.15-.85-23.42,2.61-27.35,13.05-58.19,20.38-90.82,20.38Z"/>
    <path class="cls-1" d="M501.02,635c-112.66,0-203.98-87.43-203.98-195.29s91.33-195.29,203.98-195.29,203.98,87.43,203.98,195.29c0,31.24-7.66,60.77-21.29,86.95-3.62,6.96-4.82,14.91-2.72,22.42l12.15,43.47c5.27,18.87-12.76,36.14-32.48,31.08l-45.4-11.63c-7.85-2.01-16.15-.85-23.42,2.61-27.35,13.05-58.19,20.38-90.82,20.38Z"/>
    <path class="cls-1" d="M501.02,635c-112.66,0-203.98-87.43-203.98-195.29s91.33-195.29,203.98-195.29,203.98,87.43,203.98,195.29c0,31.24-7.66,60.77-21.29,86.95-3.62,6.96-4.82,14.91-2.72,22.42l12.15,43.47c5.27,18.87-12.76,36.14-32.48,31.08l-45.4-11.63c-7.85-2.01-16.15-.85-23.42,2.61-27.35,13.05-58.19,20.38-90.82,20.38Z"/>
    <path class="cls-1" d="M501.02,635c-112.66,0-203.98-87.43-203.98-195.29s91.33-195.29,203.98-195.29,203.98,87.43,203.98,195.29c0,31.24-7.66,60.77-21.29,86.95-3.62,6.96-4.82,14.91-2.72,22.42l12.15,43.47c5.27,18.87-12.76,36.14-32.48,31.08l-45.4-11.63c-7.85-2.01-16.15-.85-23.42,2.61-27.35,13.05-58.19,20.38-90.82,20.38Z"/>
    <path class="cls-1" d="M501.02,635c-112.66,0-203.98-87.43-203.98-195.29s91.33-195.29,203.98-195.29,203.98,87.43,203.98,195.29c0,31.24-7.66,60.77-21.29,86.95-3.62,6.96-4.82,14.91-2.72,22.42l12.15,43.47c5.27,18.87-12.76,36.14-32.48,31.08l-45.4-11.63c-7.85-2.01-16.15-.85-23.42,2.61-27.35,13.05-58.19,20.38-90.82,20.38Z"/>
    <path class="cls-1" d="M501.02,635c-112.66,0-203.98-87.43-203.98-195.29s91.33-195.29,203.98-195.29,203.98,87.43,203.98,195.29c0,31.24-7.66,60.77-21.29,86.95-3.62,6.96-4.82,14.91-2.72,22.42l12.15,43.47c5.27,18.87-12.76,36.14-32.48,31.08l-45.4-11.63c-7.85-2.01-16.15-.85-23.42,2.61-27.35,13.05-58.19,20.38-90.82,20.38Z"/>
  </g>
  <path class="cls-2" d="M501.02,635c-112.66,0-203.98-87.43-203.98-195.29s91.33-195.29,203.98-195.29,203.98,87.43,203.98,195.29c0,31.24-7.66,60.77-21.29,86.95-3.62,6.96-4.82,14.91-2.72,22.42l12.15,43.47c5.27,18.87-12.76,36.14-32.48,31.08l-45.4-11.63c-7.85-2.01-16.15-.85-23.42,2.61-27.35,13.05-58.19,20.38-90.82,20.38Z"/>
  <path class="cls-2" d="M501.02,635c-112.66,0-203.98-87.43-203.98-195.29s91.33-195.29,203.98-195.29,203.98,87.43,203.98,195.29c0,31.24-7.66,60.77-21.29,86.95-3.62,6.96-4.82,14.91-2.72,22.42l12.15,43.47c5.27,18.87-12.76,36.14-32.48,31.08l-45.4-11.63c-7.85-2.01-16.15-.85-23.42,2.61-27.35,13.05-58.19,20.38-90.82,20.38Z"/>
  <path class="cls-2" d="M501.02,635c-112.66,0-203.98-87.43-203.98-195.29s91.33-195.29,203.98-195.29,203.98,87.43,203.98,195.29c0,31.24-7.66,60.77-21.29,86.95-3.62,6.96-4.82,14.91-2.72,22.42l12.15,43.47c5.27,18.87-12.76,36.14-32.48,31.08l-45.4-11.63c-7.85-2.01-16.15-.85-23.42,2.61-27.35,13.05-58.19,20.38-90.82,20.38Z"/>
  <path class="cls-2" d="M233.98,420.57c112.66,0,203.98-87.43,203.98-195.28S346.64,30,233.98,30,30,117.43,30,225.28c0,31.24,7.66,60.77,21.28,86.95,3.62,6.96,4.83,14.91,2.73,22.42l-12.15,43.47c-5.27,18.87,12.76,36.13,32.47,31.09l45.41-11.63c7.84-2.01,16.15-.86,23.42,2.61,27.35,13.04,58.19,20.38,90.82,20.38Z"/>
  <path class="cls-2" d="M233.98,420.57c112.66,0,203.98-87.43,203.98-195.28S346.64,30,233.98,30,30,117.43,30,225.28c0,31.24,7.66,60.77,21.28,86.95,3.62,6.96,4.83,14.91,2.73,22.42l-12.15,43.47c-5.27,18.87,12.76,36.13,32.47,31.09l45.41-11.63c7.84-2.01,16.15-.86,23.42,2.61,27.35,13.04,58.19,20.38,90.82,20.38Z"/>
  <path class="cls-2" d="M233.98,420.57c112.66,0,203.98-87.43,203.98-195.28S346.64,30,233.98,30,30,117.43,30,225.28c0,31.24,7.66,60.77,21.28,86.95,3.62,6.96,4.83,14.91,2.73,22.42l-12.15,43.47c-5.27,18.87,12.76,36.13,32.47,31.09l45.41-11.63c7.84-2.01,16.15-.86,23.42,2.61,27.35,13.04,58.19,20.38,90.82,20.38Z"/>
  <g class="cls-5">
    <path class="cls-1" d="M233.98,420.57c112.66,0,203.98-87.43,203.98-195.28S346.64,30,233.98,30,30,117.43,30,225.28c0,31.24,7.66,60.77,21.28,86.95,3.62,6.96,4.83,14.91,2.73,22.42l-12.15,43.47c-5.27,18.87,12.76,36.13,32.47,31.09l45.41-11.63c7.84-2.01,16.15-.86,23.42,2.61,27.35,13.04,58.19,20.38,90.82,20.38Z"/>
    <path class="cls-7" d="M233.98,420.57c112.66,0,203.98-87.43,203.98-195.28S346.64,30,233.98,30,30,117.43,30,225.28c0,31.24,7.66,60.77,21.28,86.95,3.62,6.96,4.83,14.91,2.73,22.42l-12.15,43.47c-5.27,18.87,12.76,36.13,32.47,31.09l45.41-11.63c7.84-2.01,16.15-.86,23.42,2.61,27.35,13.04,58.19,20.38,90.82,20.38Z"/>
  </g>
  <g class="cls-5">
    <path class="cls-1" d="M501.02,635c-112.66,0-203.98-87.43-203.98-195.29s91.33-195.29,203.98-195.29,203.98,87.43,203.98,195.29c0,31.24-7.66,60.77-21.29,86.95-3.62,6.96-4.82,14.91-2.72,22.42l12.15,43.47c5.27,18.87-12.76,36.14-32.48,31.08l-45.4-11.63c-7.85-2.01-16.15-.85-23.42,2.61-27.35,13.05-58.19,20.38-90.82,20.38Z"/>
    <path class="cls-3" d="M501.02,635c-112.66,0-203.98-87.43-203.98-195.29s91.33-195.29,203.98-195.29,203.98,87.43,203.98,195.29c0,31.24-7.66,60.77-21.29,86.95-3.62,6.96-4.82,14.91-2.72,22.42l12.15,43.47c5.27,18.87-12.76,36.14-32.48,31.08l-45.4-11.63c-7.85-2.01-16.15-.85-23.42,2.61-27.35,13.05-58.19,20.38-90.82,20.38Z"/>
  </g>
  <path class="cls-6" d="M521.41,470.36c0,11.63-9.13,21.06-20.39,21.06s-20.4-9.43-20.4-21.06,9.13-21.06,20.4-21.06,20.39,9.43,20.39,21.06Z"/>
  <path class="cls-6" d="M603.01,470.36c0,11.63-9.14,21.06-20.4,21.06s-20.4-9.43-20.4-21.06,9.13-21.06,20.4-21.06,20.4,9.43,20.4,21.06Z"/>
  <path class="cls-2" d="M233.98,420.57c112.66,0,203.98-87.43,203.98-195.28S346.64,30,233.98,30,30,117.43,30,225.28c0,31.24,7.66,60.77,21.28,86.95,3.62,6.96,4.83,14.91,2.73,22.42l-12.15,43.47c-5.27,18.87,12.76,36.13,32.47,31.09l45.41-11.63c7.84-2.01,16.15-.86,23.42,2.61,27.35,13.04,58.19,20.38,90.82,20.38Z"/>
  <path class="cls-6" d="M439.82,470.36c0,11.63-9.13,21.06-20.4,21.06s-20.4-9.43-20.4-21.06,9.13-21.06,20.4-21.06,20.4,9.43,20.4,21.06Z"/>
  <path class="cls-6" d="M234.45,158.27c-11.52,0-20.86,9.64-20.86,21.54,0,7.93-6.23,14.36-13.91,14.36s-13.91-6.43-13.91-14.36c0-27.76,21.79-50.26,48.68-50.26s48.68,22.5,48.68,50.26c0,13.61-5.26,25.98-13.76,35.02-1.71,1.82-3.34,3.5-4.9,5.11-4,4.13-7.51,7.74-10.59,11.83-4.06,5.39-5.52,9.35-5.52,12.66v14.36c0,7.93-6.23,14.36-13.91,14.36s-13.91-6.43-13.91-14.36v-14.36c0-12.54,5.66-22.7,11.39-30.3,4.24-5.63,9.57-11.12,13.9-15.58,1.31-1.35,2.52-2.6,3.58-3.73,3.66-3.89,5.9-9.17,5.9-15.01,0-11.9-9.34-21.54-20.86-21.54Z"/>
  <path class="cls-6" d="M234.45,335.37c10.24,0,18.54-8.57,18.54-19.15s-8.3-19.15-18.54-19.15-18.54,8.57-18.54,19.15,8.3,19.15,18.54,19.15Z"/>
</svg>