<svg width="234" height="360" viewBox="0 0 234 360" fill="none" xmlns="http://www.w3.org/2000/svg">
<mask id="mask0_512_25917" style="mask-type:luminance" maskUnits="userSpaceOnUse" x="39" y="0" width="100" height="90">
<path d="M138.044 0H39.4624V89.7221H138.044V0Z" fill="white"/>
</mask>
<g mask="url(#mask0_512_25917)">
<mask id="mask1_512_25917" style="mask-type:luminance" maskUnits="userSpaceOnUse" x="-80" y="-164" width="546" height="618">
<path d="M222.577 -163.48L-79.1963 159.051L163.535 453.653L465.308 131.121L222.577 -163.48Z" fill="white"/>
</mask>
<g mask="url(#mask1_512_25917)">
<mask id="mask2_512_25917" style="mask-type:luminance" maskUnits="userSpaceOnUse" x="-80" y="-164" width="546" height="618">
<path d="M222.577 -163.48L-79.1963 159.051L163.535 453.653L465.308 131.121L222.577 -163.48Z" fill="white"/>
</mask>
<g mask="url(#mask2_512_25917)">
<path d="M126.768 50.0077C125.438 43.9477 120.189 38.0058 120.189 38.0058C116.68 32.505 115.283 16.4969 106.563 24.5769C105.233 20.0319 102.72 17.3386 99.0253 21.2103C98.2863 13.1302 93.2612 10.2685 88.236 16.8336C88.3838 4.88184 78.4813 11.9519 75.2297 17.6752C72.4215 4.20851 64.7359 15.3186 62.2234 22.3886C61.1888 14.9819 55.868 14.4769 52.3208 20.2002C48.6258 25.9236 47.1478 33.162 45.8176 39.8953C44.7831 47.1337 40.217 53.1027 39.478 60.5094L45.8176 50.0077L50.8828 43.0066L59.2171 35.5054C59.2171 35.5054 70.3523 29.3509 75.2297 28.0043C71.5347 29.1826 78.9247 26.6576 75.2297 28.0043C87.9404 24.4692 95.6246 28.0043 107.907 30.5047C111.158 29.9996 128.69 56.0678 126.768 50.0077Z" fill="#F6CB78" fill-opacity="0.2"/>
</g>
</g>
</g>
<mask id="mask3_512_25917" style="mask-type:luminance" maskUnits="userSpaceOnUse" x="0" y="89" width="60" height="46">
<path d="M59.1197 89.7217H0V134.667H59.1197V89.7217Z" fill="white"/>
</mask>
<g mask="url(#mask3_512_25917)">
<mask id="mask4_512_25917" style="mask-type:luminance" maskUnits="userSpaceOnUse" x="-80" y="-164" width="546" height="618">
<path d="M222.577 -163.481L-79.1963 159.051L163.535 453.652L465.308 131.121L222.577 -163.481Z" fill="white"/>
</mask>
<g mask="url(#mask4_512_25917)">
<mask id="mask5_512_25917" style="mask-type:luminance" maskUnits="userSpaceOnUse" x="-80" y="-164" width="546" height="618">
<path d="M222.577 -163.481L-79.1963 159.051L163.535 453.652L465.308 131.121L222.577 -163.481Z" fill="white"/>
</mask>
<g mask="url(#mask5_512_25917)">
<path d="M53.2078 121.2C50.9908 117.16 48.7738 112.615 46.5568 108.743C44.0442 104.535 41.8273 100.158 38.8713 96.4549C37.3933 94.9399 36.3587 97.4649 35.4719 98.4749C34.1417 98.1382 33.2549 99.3166 32.2203 99.9899C26.604 104.03 20.5442 107.06 15.2234 111.268C11.5284 114.298 16.1102 116.823 18.6228 117.328C23.2046 118.507 27.9341 118.507 32.5159 118.17C30.0033 120.527 26.604 122.547 25.2738 125.745C25.4216 130.963 34.2895 128.438 37.3933 128.27C42.4185 127.428 47.5914 127.092 52.6166 126.755C53.06 126.755 53.5034 126.755 53.9468 126.418C54.0946 126.25 54.2424 126.082 54.3902 125.913C55.277 124.23 53.6512 122.547 53.06 121.2H53.2078Z" fill="#F6CB78" fill-opacity="0.2"/>
</g>
</g>
</g>
<mask id="mask6_512_25917" style="mask-type:luminance" maskUnits="userSpaceOnUse" x="0" y="224" width="99" height="68">
<path d="M98.582 224.39H0V291.723H98.582V224.39Z" fill="white"/>
</mask>
<g mask="url(#mask6_512_25917)">
<mask id="mask7_512_25917" style="mask-type:luminance" maskUnits="userSpaceOnUse" x="-80" y="-164" width="546" height="618">
<path d="M222.577 -163.481L-79.1963 159.051L163.535 453.652L465.308 131.121L222.577 -163.481Z" fill="white"/>
</mask>
<g mask="url(#mask7_512_25917)">
<mask id="mask8_512_25917" style="mask-type:luminance" maskUnits="userSpaceOnUse" x="-80" y="-164" width="546" height="618">
<path d="M222.577 -163.481L-79.1963 159.051L163.535 453.652L465.308 131.121L222.577 -163.481Z" fill="white"/>
</mask>
<g mask="url(#mask8_512_25917)">
<path d="M86.3146 233.648C83.3586 229.103 77.4466 230.45 74.0472 233.648C71.6825 236.005 69.3177 238.193 67.1007 240.55C62.5189 245.095 57.7893 249.64 53.0598 254.185C49.8082 257.383 46.5566 260.75 43.305 263.78C42.1226 262.938 40.7924 262.265 39.61 261.592C38.1321 260.582 36.6541 259.908 35.4717 258.898C34.2893 258.393 33.2547 257.72 32.2201 256.878C30.2987 255.531 28.3773 254.185 26.0125 254.016C23.7955 254.016 21.5786 255.868 22.1697 258.73C22.6131 262.097 25.2735 263.612 27.6383 264.958C28.2295 265.463 28.9685 265.8 29.5597 266.137C30.5943 266.81 31.7767 267.483 32.9591 268.325L30.1509 267.82C28.3773 267.315 26.6037 266.978 24.6823 266.642C21.1352 265.463 16.4056 269.167 19.3616 273.375C21.5785 276.573 25.5691 276.405 28.8207 277.247L37.0975 278.762C34.2893 279.94 31.4811 281.118 28.5251 282.465C26.6037 283.475 25.4213 285.832 26.0125 288.188C26.1603 288.693 26.3081 289.03 26.4559 289.198C26.6037 289.535 26.7515 289.872 27.0471 290.04C27.0471 290.04 27.0471 290.208 27.1949 290.377C27.4905 290.713 27.7861 290.882 28.0817 291.05C30.5943 292.565 34.5849 290.04 37.3931 288.862C42.4182 286.673 48.478 284.485 51.1384 278.762L51.434 278.257C55.129 274.553 58.9717 271.018 62.6667 267.147C67.3963 262.602 72.1259 257.888 76.7076 253.343L83.6542 246.441C85.5756 244.59 86.9058 242.233 87.3492 239.54C87.7926 237.688 87.6448 235.163 86.6102 233.648H86.3146Z" fill="#F6CB78" fill-opacity="0.2"/>
</g>
</g>
</g>
<mask id="mask9_512_25917" style="mask-type:luminance" maskUnits="userSpaceOnUse" x="59" y="269" width="79" height="91">
<path d="M137.897 269.335H59.1196V359.057H137.897V269.335Z" fill="white"/>
</mask>
<g mask="url(#mask9_512_25917)">
<mask id="mask10_512_25917" style="mask-type:luminance" maskUnits="userSpaceOnUse" x="-80" y="-164" width="546" height="618">
<path d="M222.577 -163.48L-79.1963 159.051L163.535 453.653L465.308 131.121L222.577 -163.48Z" fill="white"/>
</mask>
<g mask="url(#mask10_512_25917)">
<mask id="mask11_512_25917" style="mask-type:luminance" maskUnits="userSpaceOnUse" x="-80" y="-164" width="546" height="618">
<path d="M222.577 -163.48L-79.1963 159.051L163.535 453.653L465.308 131.121L222.577 -163.48Z" fill="white"/>
</mask>
<g mask="url(#mask11_512_25917)">
<path d="M97.8427 328.42C97.8427 328.42 97.8427 328.083 97.9905 327.915C101.39 324.043 104.937 320.003 108.484 316.132C112.918 311.082 117.352 306.2 121.786 301.318C124.003 298.793 126.22 296.437 128.437 293.912C130.211 292.06 131.393 289.535 131.689 286.673C131.837 284.822 131.689 282.297 130.506 280.782C127.403 276.573 121.491 278.088 118.387 281.623C116.17 284.148 113.953 286.505 111.736 289.03L98.5817 303.843C95.4779 307.21 92.3741 310.745 89.2703 314.112C86.3144 312.597 83.3584 311.25 81.1414 309.903C77.8898 308.725 74.9338 305.695 71.3867 305.863C69.1697 306.032 67.1005 308.22 67.8395 310.745C68.7263 314.785 72.7168 315.963 75.6728 317.647C76.7074 318.32 77.8898 318.825 79.0722 319.33L76.264 318.993C74.3426 318.657 72.5691 318.488 70.6477 318.152C66.9527 317.31 62.5187 321.182 65.6225 325.39C67.9873 328.42 72.1256 327.915 75.3772 328.588C78.1854 328.925 80.9936 329.262 83.8018 329.43C81.1414 330.945 78.3332 332.123 75.3772 333.807C73.4558 334.817 72.4212 337.342 73.1602 339.698C73.308 340.203 73.4558 340.372 73.6036 340.708C73.7514 341.045 74.047 341.214 74.1948 341.55C76.8552 344.58 81.2892 341.045 84.393 339.53C89.2704 336.837 95.1823 334.48 97.6949 328.42H97.8427Z" fill="#F6CB78" fill-opacity="0.2"/>
</g>
</g>
</g>
<mask id="mask12_512_25917" style="mask-type:luminance" maskUnits="userSpaceOnUse" x="19" y="22" width="415" height="315">
<path d="M433.495 22.3887H19.6572V336.668H433.495V22.3887Z" fill="white"/>
</mask>
<g mask="url(#mask12_512_25917)">
<mask id="mask13_512_25917" style="mask-type:luminance" maskUnits="userSpaceOnUse" x="-80" y="-164" width="546" height="618">
<path d="M222.577 -163.48L-79.1963 159.051L163.535 453.653L465.308 131.121L222.577 -163.48Z" fill="white"/>
</mask>
<g mask="url(#mask13_512_25917)">
<mask id="mask14_512_25917" style="mask-type:luminance" maskUnits="userSpaceOnUse" x="-80" y="-164" width="546" height="618">
<path d="M222.577 -163.48L-79.1963 159.051L163.535 453.653L465.308 131.121L222.577 -163.48Z" fill="white"/>
</mask>
<g mask="url(#mask14_512_25917)">
<path d="M303.432 275.9C309.048 273.712 330.183 265.127 326.045 256.037C331.809 252.502 351.762 240.55 345.407 231.46C350.432 226.915 366.837 213.785 357.23 206.547C362.256 201.329 371.863 193.08 370.237 184.327C369.646 182.812 368.315 181.633 366.985 181.128C373.784 174.563 380.731 167.998 387.086 160.76C394.032 152.175 413.394 134.163 412.951 122.548C412.951 121.538 412.36 120.528 411.768 119.855C414.577 116.993 417.237 114.131 418.863 110.26C424.036 98.813 414.724 95.783 406.595 99.1497C411.029 94.773 415.907 89.5546 416.35 82.6529C416.35 72.7212 406.743 73.0579 400.979 76.4246C406.595 65.1462 402.014 57.7395 390.781 60.4328C386.495 61.6112 382.504 63.4628 378.514 65.4828C371.863 69.0179 365.212 72.5529 358.708 76.2562C364.473 70.5329 368.759 64.3045 368.611 59.4228C368.611 52.8578 362.551 49.8278 357.526 49.9961C340.825 51.0061 327.375 63.7995 311.856 69.3545C295.45 75.7512 278.453 79.7912 261.752 85.1779C238.252 92.0796 214.309 98.308 189.922 98.4763C131.837 98.1397 134.645 17.5076 78.7769 28.1127C57.346 32.6577 39.1667 51.6794 33.9938 75.9196C30.89 90.5646 33.4026 105.715 36.5063 120.191C41.0881 140.728 47.7391 160.76 57.0504 178.94C63.7014 191.902 71.9781 203.517 80.4027 215.132C75.9687 220.014 74.6385 227.925 76.4121 234.322C79.9593 247.62 95.4782 257.552 106.563 249.64C106.859 249.472 107.154 249.135 107.45 248.967C111.441 253.344 115.431 257.384 119.569 261.424C115.135 267.484 116.909 278.426 121.195 284.317C130.95 297.616 142.183 298.794 152.381 289.704C156.519 292.902 160.805 295.932 165.387 298.457C175.142 304.012 185.783 307.379 196.129 311.251C205.589 314.954 215.195 318.321 225.246 318.826C234.262 319.331 254.067 319.499 253.919 305.191C260.274 306.369 266.777 306.706 272.985 304.686C277.419 303.171 286.287 299.804 282.887 292.902C288.652 290.377 307.57 286.001 303.579 275.9H303.432Z" fill="#FFE3AC" fill-opacity="0.2"/>
</g>
</g>
</g>
<mask id="mask15_512_25917" style="mask-type:luminance" maskUnits="userSpaceOnUse" x="98" y="112" width="238" height="180">
<path d="M335.061 112.279H98.582V291.891H335.061V112.279Z" fill="white"/>
</mask>
<g mask="url(#mask15_512_25917)">
<mask id="mask16_512_25917" style="mask-type:luminance" maskUnits="userSpaceOnUse" x="-80" y="-164" width="546" height="618">
<path d="M222.577 -163.48L-79.1963 159.051L163.535 453.653L465.308 131.121L222.577 -163.48Z" fill="white"/>
</mask>
<g mask="url(#mask16_512_25917)">
<mask id="mask17_512_25917" style="mask-type:luminance" maskUnits="userSpaceOnUse" x="-80" y="-164" width="546" height="618">
<path d="M222.577 -163.48L-79.1963 159.051L163.535 453.653L465.308 131.121L222.577 -163.48Z" fill="white"/>
</mask>
<g mask="url(#mask17_512_25917)">
<path d="M318.212 163.958C316.586 157.898 313.334 155.71 309.935 156.046C310.822 153.185 311.561 150.155 311.856 147.125C313.778 128.776 300.328 126.251 290.425 135.341C291.312 129.954 290.278 124.904 285.252 122.716C275.793 119.854 268.255 128.103 260.127 131.638C246.972 137.698 231.749 138.035 218.447 131.133C191.104 116.993 173.073 108.576 144.4 123.053C121.934 134.331 108.485 160.255 111.588 188.871C112.475 196.446 114.988 203.685 117.353 210.923C120.604 219.845 124.151 228.767 129.029 236.847C130.507 239.035 132.132 241.055 133.758 243.075C143.07 254.353 154.894 263.107 167.456 268.662C187.557 276.573 209.431 277.92 229.976 274.048C251.702 268.998 270.029 253.68 286.287 237.52C298.702 224.727 310.822 210.418 316.29 191.901C318.951 183.148 320.429 173.553 318.359 164.126L318.212 163.958ZM198.79 214.458C196.425 213.953 194.208 213.112 191.991 212.102C190.218 211.428 188.444 210.587 186.818 209.745L184.306 208.398C183.419 207.893 182.384 207.557 181.645 207.051C180.758 206.378 179.724 205.873 178.837 205.368C177.95 204.863 177.211 204.358 176.324 203.853C176.768 204.695 177.063 205.368 177.507 206.21C178.246 207.893 178.985 209.745 179.724 211.597C180.463 214.29 180.906 217.152 180.463 219.845C180.019 222.538 178.837 224.895 176.916 226.578C174.846 228.262 172.334 228.935 169.821 229.103C167.456 229.103 164.944 228.767 162.727 228.093C160.214 227.252 157.85 226.242 155.633 224.895C153.416 223.717 151.199 222.033 149.277 220.182C147.799 219.003 146.321 217.657 144.991 216.31C144.252 215.637 143.513 214.795 142.774 213.953C142.035 213.112 141.444 212.27 140.557 211.428C140.557 211.428 139.966 210.418 139.67 210.082C139.227 209.576 138.931 209.072 138.636 208.735C137.897 207.725 137.158 206.715 136.566 205.705C135.827 204.695 135.236 203.516 134.497 202.506C133.758 201.496 133.315 200.15 132.724 198.971C132.132 197.793 131.689 196.615 131.246 195.268C131.246 195.268 131.246 195.268 131.246 195.1C131.246 195.1 130.95 194.09 130.802 193.585C130.359 192.575 131.098 191.396 131.837 191.06C132.871 190.723 133.758 191.396 134.054 192.406L134.349 193.248C134.349 193.248 134.349 193.248 134.349 193.416C134.349 193.585 134.349 193.585 134.349 193.585C134.349 193.585 134.645 194.426 134.793 194.763C135.088 195.605 135.532 196.446 135.827 197.456L136.714 199.308C137.01 200.15 137.453 200.823 137.897 201.496C138.34 202.338 138.931 203.011 139.375 203.853C139.818 204.526 140.409 205.2 140.853 206.041L142.183 207.893C143.217 209.072 144.252 210.418 145.287 211.597C145.878 212.27 146.469 212.775 147.208 213.448L148.834 214.963C148.834 214.963 149.868 215.973 150.46 216.478C151.199 217.152 151.938 217.657 152.677 218.33L154.598 219.677C155.633 220.518 156.667 221.192 157.85 221.865C159.18 222.707 160.658 223.212 162.136 223.717C163.466 224.222 164.648 224.558 165.978 224.895H166.274C167.161 225.063 168.048 225.232 168.934 225.232C169.673 225.232 170.265 225.232 171.004 225.232L172.334 224.895C172.334 224.895 173.221 224.558 173.664 224.39C173.96 224.39 174.255 224.053 174.551 223.885C174.699 223.885 174.994 223.548 175.142 223.548C175.438 223.38 175.585 223.043 175.733 222.875C175.733 222.875 176.029 222.37 176.177 222.202C176.324 222.033 176.472 221.697 176.62 221.528C176.768 221.36 176.916 220.855 177.063 220.687C177.063 220.35 177.211 220.013 177.359 219.677C177.359 219.34 177.359 219.003 177.507 218.667V217.657C177.507 217.657 177.507 216.647 177.507 216.142C177.507 215.637 177.359 215.132 177.211 214.795C176.916 213.785 176.62 212.607 176.177 211.765C175.585 210.082 174.846 208.398 173.96 206.715C173.221 205.368 172.482 203.853 171.595 202.338C170.856 200.991 170.117 199.476 169.23 198.298C168.343 197.12 169.378 194.931 170.708 195.1C171.151 195.1 171.447 195.268 171.743 195.605C172.038 195.773 172.186 196.11 172.482 196.278C172.777 196.615 173.073 196.951 173.516 197.12C174.699 198.13 175.881 198.971 177.063 199.813C178.394 200.823 179.724 201.665 181.054 202.506C182.975 203.685 184.749 204.695 186.67 205.705L189.922 207.22C190.957 207.725 191.991 208.23 193.026 208.735C193.026 208.735 192.878 208.735 192.73 208.735L193.469 209.072C194.208 209.408 194.947 209.745 195.834 210.082C197.312 210.587 198.938 211.092 200.563 211.428C201.598 211.597 202.633 211.765 203.667 211.933H203.815C204.554 211.933 205.441 211.933 206.328 211.765C206.771 211.765 207.214 211.765 207.658 211.597C207.658 211.597 207.806 211.597 207.953 211.597C208.249 211.597 208.692 211.428 208.988 211.26L209.875 210.755C209.875 210.755 210.17 210.587 210.318 210.418C210.466 210.25 210.614 210.082 210.909 209.913C210.909 209.745 211.205 209.576 211.205 209.408C211.205 209.408 211.205 209.24 211.353 209.072C211.501 208.903 211.501 208.735 211.501 208.567C211.501 208.567 211.501 208.398 211.648 208.23C211.648 208.062 211.648 207.893 211.648 207.725V206.378C211.648 206.378 211.501 205.705 211.353 205.368C211.353 205.368 211.057 204.358 210.909 203.853C210.614 203.348 210.466 202.843 210.318 202.338C209.875 201.496 209.431 200.655 208.84 199.813C207.806 198.298 206.771 196.951 205.736 195.773C204.702 194.595 203.667 193.416 202.633 192.406C201.598 191.228 200.416 190.218 199.381 189.208C197.312 187.356 195.39 185.336 193.321 183.485C193.321 183.485 193.174 183.316 193.026 183.316C192.582 182.98 192.139 182.811 191.843 182.475C191.4 181.97 191.252 181.633 191.104 180.96C190.957 179.613 192.287 178.435 193.469 178.94C193.913 179.276 194.356 179.613 194.799 179.95L195.243 180.286C196.277 180.791 197.312 181.296 198.199 181.633C199.381 182.138 200.563 182.475 201.598 182.98C202.189 183.148 202.633 183.316 203.224 183.485C203.815 183.653 204.258 183.821 204.85 183.821C205.589 183.821 206.328 184.158 207.214 184.158H207.51H207.362C207.362 184.158 208.249 184.158 208.692 184.158C208.988 184.158 209.284 184.158 209.579 184.158C209.875 184.158 210.023 183.99 210.17 183.821C210.318 183.821 210.466 183.653 210.614 183.653C210.909 183.485 211.057 183.316 211.205 183.148C211.353 182.98 211.501 182.98 211.501 182.811C211.648 182.643 211.796 182.306 211.944 182.138C211.944 182.138 212.092 181.801 212.24 181.801C212.387 181.465 212.535 181.296 212.683 180.96C212.683 180.96 212.683 180.791 212.683 180.623C212.683 180.286 212.683 180.118 212.831 179.781C212.831 179.613 212.831 179.276 212.831 179.108C212.831 178.771 212.831 178.603 212.831 178.266C212.831 177.93 212.831 177.593 212.683 177.256C212.683 176.751 212.387 176.078 212.24 175.573C212.092 175.068 211.796 174.563 211.648 174.058C211.501 173.553 211.057 172.88 210.762 172.375C210.318 171.701 209.875 171.028 209.431 170.523C207.51 168.503 205.589 166.483 203.667 164.631H203.519C203.519 164.631 202.928 163.79 202.633 163.621C202.041 163.116 201.598 162.78 201.302 162.275C200.563 160.928 201.45 159.245 202.78 159.245L204.702 159.581H206.475C206.475 159.581 207.362 159.581 207.806 159.413L208.692 159.076C208.692 159.076 208.988 159.076 208.988 158.908C209.136 158.908 209.284 158.74 209.431 158.571C209.579 158.403 209.727 158.403 209.875 158.235C209.875 158.235 209.875 158.066 210.023 157.898C210.023 157.898 210.023 157.898 210.17 157.73V157.561C210.17 157.393 210.17 157.225 210.17 157.225V157.056V156.551C210.17 156.551 210.17 156.383 210.17 156.215C210.17 156.046 210.17 155.878 210.17 155.71C210.17 155.541 210.17 155.373 210.023 155.205C209.875 154.868 209.727 154.7 209.579 154.363C209.431 154.026 209.284 153.858 208.988 153.69C208.84 153.353 208.545 153.185 208.397 153.016C208.101 152.68 207.806 152.343 207.362 152.175C206.771 151.67 206.18 151.333 205.441 150.996C204.111 150.323 202.78 149.818 201.45 149.313C199.085 148.471 196.868 147.63 194.504 146.956C193.617 146.62 193.026 145.61 193.321 144.431C193.617 143.253 194.504 142.916 195.538 143.085C197.46 143.59 199.233 144.263 201.155 144.768C203.372 145.61 205.441 146.451 207.51 147.63C209.727 148.808 211.648 150.66 212.831 153.185C213.274 154.195 213.57 155.373 213.57 156.551C213.57 157.898 213.126 159.245 212.387 160.255C211.205 161.938 209.284 162.78 207.362 162.948C207.51 162.948 207.658 163.285 207.806 163.285C209.284 164.8 210.762 166.483 212.24 168.166C213.865 170.355 215.048 172.88 215.787 175.405C216.082 176.583 216.23 177.761 216.23 178.94C216.23 180.455 215.935 181.801 215.343 182.98C214.752 184.158 214.013 185.168 213.126 185.841C212.092 186.683 210.762 187.188 209.579 187.356C207.953 187.693 206.18 187.356 204.554 187.356C203.815 187.188 203.224 187.02 202.485 186.851H202.633C203.963 188.366 205.293 189.713 206.623 191.06C208.397 193.08 210.17 195.1 211.648 197.456C212.683 198.971 213.57 200.655 214.161 202.506C214.752 204.021 215.048 205.705 215.048 207.557C215.048 209.408 214.457 210.755 213.57 212.27C212.535 213.617 211.057 214.458 209.579 214.963C208.101 215.637 206.328 215.805 204.702 215.805C203.076 215.805 201.302 215.468 199.529 215.132L198.79 214.458ZM246.529 244.253C244.164 245.6 241.652 246.442 238.991 246.947C236.331 247.62 233.67 247.788 231.01 247.788C228.202 247.788 225.394 247.788 222.586 247.452C218.152 246.947 213.57 245.768 209.431 243.917C208.249 243.412 207.214 242.907 206.032 242.402C205.145 242.065 204.406 241.56 203.519 241.055C201.894 240.213 200.268 239.372 198.79 238.193C198.199 237.857 197.755 237.52 197.312 237.183C196.277 236.51 195.243 236.005 194.356 235.163C193.912 234.827 193.321 234.322 192.878 233.985C192.287 233.48 191.696 233.143 191.252 232.638L190.957 232.302C190.957 232.302 190.661 230.955 190.957 230.282H191.104C191.696 229.272 192.73 228.935 193.469 229.608C193.617 229.608 193.765 229.777 193.765 229.945C195.243 231.123 196.868 232.302 198.346 233.312C198.494 233.48 198.642 233.648 198.938 233.648H199.085C199.085 233.648 200.268 234.49 201.007 234.995C201.894 235.5 202.928 236.173 203.815 236.678L206.328 238.025C206.328 238.025 207.806 238.867 208.545 239.203C209.579 239.708 210.614 240.045 211.648 240.55C214.309 241.56 216.969 242.402 219.777 243.075H219.925H220.073C223.177 243.748 226.428 243.917 229.68 243.917H229.384H229.828C232.34 243.917 234.853 243.748 237.513 243.243H237.661C237.661 243.243 237.661 243.243 237.809 243.243H237.957C239.435 242.907 240.765 242.57 242.243 242.065C243.425 241.56 244.608 241.055 245.642 240.382C246.529 239.877 247.416 239.372 248.303 238.698C248.894 238.193 249.485 237.688 250.224 237.015C250.667 236.51 250.963 236.173 251.259 235.668C251.554 235.163 251.85 234.827 251.998 234.49C252.145 234.153 252.441 233.648 252.589 233.312C252.737 232.975 252.884 232.47 252.884 232.133C252.884 231.797 253.032 231.46 253.18 231.123V228.767C253.18 228.767 252.884 228.262 252.737 227.925C252.737 227.588 252.589 227.42 252.441 227.083C252.145 226.578 251.998 226.242 251.702 225.905C250.815 224.727 249.928 223.548 249.042 222.538C248.303 221.697 247.564 220.855 246.825 220.013C246.233 219.34 245.79 218.835 245.199 218.33L244.016 217.488C244.016 217.488 243.573 216.983 243.277 216.815C242.982 216.647 242.982 216.142 242.834 215.805C242.538 214.627 243.425 213.448 244.46 213.448C244.903 213.448 245.347 213.448 245.642 213.785C245.938 214.122 246.381 214.29 246.677 214.627C246.677 214.627 246.972 214.795 246.972 214.963C247.12 214.963 247.268 215.132 247.416 215.132C248.303 215.468 249.189 215.637 250.076 215.805C250.667 215.805 251.259 215.973 251.85 216.142C252.441 216.142 253.032 216.142 253.476 216.31C254.067 216.31 254.658 216.31 255.101 216.31H257.171C258.057 216.31 258.796 216.31 259.683 216.31C260.127 216.31 260.57 216.142 260.866 216.142C261.309 216.142 261.752 216.142 262.196 215.973C262.787 215.973 263.378 215.637 264.117 215.637C265.299 215.3 266.334 215.132 267.369 214.795C268.255 214.458 269.29 213.953 270.177 213.617C270.177 213.617 271.359 212.943 271.95 212.438C272.394 212.102 272.837 211.765 273.133 211.428C273.428 211.26 273.576 210.923 273.724 210.755C273.724 210.587 274.02 210.418 274.02 210.25C274.02 210.25 274.167 209.913 274.315 209.913C274.315 209.913 274.315 209.745 274.315 209.577C274.315 209.408 274.315 209.24 274.315 209.072V207.893C274.315 207.893 274.315 207.557 274.167 207.557C274.167 207.388 274.167 207.22 274.02 207.051C273.872 206.883 273.724 206.715 273.724 206.378C273.576 206.21 273.428 206.041 273.281 205.705C272.985 205.368 272.837 205.2 272.689 205.031C272.394 204.695 272.098 204.526 271.803 204.358C271.359 204.021 271.064 203.853 270.62 203.516C270.029 203.18 269.586 203.011 268.994 202.843C267.664 202.338 266.334 201.833 264.856 201.496C264.413 201.496 264.117 201.328 263.674 201.328H262.787C261.605 201.328 260.866 199.981 261.161 198.803C261.457 197.793 262.048 197.456 262.787 197.288C265.152 196.615 267.369 195.941 269.586 195.1C270.62 194.595 271.803 194.258 272.837 193.753C272.837 193.753 273.872 193.08 274.315 192.743C274.611 192.575 274.906 192.238 275.054 192.07C275.202 191.901 275.498 191.565 275.793 191.228L276.532 190.218L276.976 189.376L277.271 188.535C277.271 188.535 277.419 188.03 277.419 187.861C277.419 187.861 277.419 187.693 277.419 187.525V187.188C277.419 187.188 277.419 186.851 277.419 186.683C277.419 186.683 277.419 186.515 277.419 186.346C277.419 186.346 277.419 186.01 277.271 186.01C277.271 185.841 276.976 185.505 276.828 185.336C276.828 185.168 276.532 185 276.384 184.831C276.089 184.495 275.941 184.326 275.645 183.99C275.202 183.653 274.906 183.485 274.611 183.148L273.428 182.306L271.803 181.465C270.916 181.128 269.881 180.791 268.994 180.455C268.994 180.455 268.994 180.455 268.847 180.455C268.847 180.455 268.896 180.455 268.994 180.455C266.777 179.781 264.708 179.276 262.639 178.94C262.048 178.94 261.309 178.94 260.718 178.435C260.274 178.098 259.979 177.425 259.979 176.751C259.979 175.91 260.57 175.236 261.161 175.068C261.752 174.9 262.196 174.563 262.639 174.395L264.56 173.385C264.56 173.385 265.299 172.88 265.743 172.543C266.038 172.375 266.186 172.206 266.334 171.87C266.482 171.533 266.777 171.365 266.925 171.196C267.073 171.028 267.221 170.691 267.369 170.523C267.516 170.355 267.664 170.186 267.664 169.85C267.664 169.85 267.664 169.513 267.812 169.345C267.812 169.008 267.812 168.84 267.812 168.671V167.83C267.812 167.83 267.812 167.493 267.812 167.325C267.812 167.156 267.812 166.988 267.664 166.82C267.664 166.82 267.664 166.651 267.516 166.483C267.516 166.483 267.516 166.483 267.516 166.315C267.369 166.146 267.221 165.978 267.221 165.81C267.221 165.81 266.925 165.641 266.925 165.473C266.925 165.305 266.63 165.305 266.63 165.136C266.334 164.968 266.038 164.8 265.891 164.631C265.447 164.463 265.152 164.295 264.856 164.126C264.117 163.958 263.526 163.79 262.935 163.621C261.605 163.453 260.422 163.285 259.092 163.285H258.796C255.84 163.285 252.884 163.285 249.928 163.621C249.042 163.621 248.155 162.78 248.155 161.77C248.155 160.76 248.894 159.75 249.781 159.75C251.259 159.75 252.884 159.581 254.51 159.413C255.84 159.413 257.318 159.413 258.649 159.413H258.944C259.831 159.413 260.718 159.413 261.605 159.413C263.083 159.413 264.708 159.75 266.186 160.255C266.925 160.591 267.664 160.928 268.403 161.433C269.142 161.938 269.586 162.443 270.177 162.948C271.211 164.126 271.655 165.81 271.655 167.493C271.655 169.176 271.359 170.86 270.62 172.206C269.881 173.553 268.994 174.731 267.812 175.573L270.62 176.415L272.542 176.92C273.724 177.425 274.906 177.93 275.941 178.603C278.01 179.781 279.932 181.801 280.966 184.158C282.001 186.683 281.262 189.376 280.079 191.565C278.749 194.09 276.532 195.605 274.167 196.951L272.246 197.793C272.246 197.793 271.211 198.298 270.768 198.466C270.62 198.466 270.472 198.466 270.325 198.635C270.472 198.635 270.62 198.635 270.768 198.803C271.803 199.308 272.985 199.813 273.872 200.486C274.906 201.16 275.793 202.17 276.532 203.348C277.862 205.368 278.454 208.062 277.715 210.418C276.976 213.112 274.906 214.795 272.837 215.973C270.62 217.488 268.108 218.33 265.743 219.003C265.299 219.003 264.708 219.172 264.265 219.34C263.821 219.508 263.23 219.677 262.787 219.677C261.9 219.677 260.866 220.013 259.979 220.013C259.24 220.013 258.501 220.013 257.762 220.013H254.362C253.476 220.013 252.737 219.845 251.998 219.677C251.702 219.677 251.554 219.677 251.259 219.677L251.85 220.35C252.737 221.36 253.623 222.538 254.362 223.717C255.101 224.895 255.693 226.073 255.988 227.42C256.284 228.767 256.432 230.113 256.284 231.46C255.84 234.322 254.806 236.678 253.032 238.867C251.259 241.223 248.894 242.738 246.677 244.085L246.529 244.253Z" fill="#F6CB78" fill-opacity="0.2"/>
</g>
</g>
</g>
<mask id="mask18_512_25917" style="mask-type:luminance" maskUnits="userSpaceOnUse" x="177" y="179" width="21" height="24">
<path d="M197.016 179.612H177.359V202H197.016V179.612Z" fill="white"/>
</mask>
<g mask="url(#mask18_512_25917)">
<mask id="mask19_512_25917" style="mask-type:luminance" maskUnits="userSpaceOnUse" x="-80" y="-164" width="546" height="618">
<path d="M222.577 -163.482L-79.1963 159.05L163.535 453.651L465.308 131.12L222.577 -163.482Z" fill="white"/>
</mask>
<g mask="url(#mask19_512_25917)">
<mask id="mask20_512_25917" style="mask-type:luminance" maskUnits="userSpaceOnUse" x="-80" y="-164" width="546" height="618">
<path d="M222.577 -163.482L-79.1963 159.05L163.535 453.651L465.308 131.12L222.577 -163.482Z" fill="white"/>
</mask>
<g mask="url(#mask20_512_25917)">
<path d="M192.582 182.642C192.582 182.642 192.582 182.642 192.73 182.81H192.582V182.642Z" fill="#F6CB78" fill-opacity="0.2"/>
</g>
</g>
</g>
<mask id="mask21_512_25917" style="mask-type:luminance" maskUnits="userSpaceOnUse" x="59" y="157" width="40" height="68">
<path d="M98.582 157.056H59.1196V224.389H98.582V157.056Z" fill="white"/>
</mask>
<g mask="url(#mask21_512_25917)">
<mask id="mask22_512_25917" style="mask-type:luminance" maskUnits="userSpaceOnUse" x="-80" y="-164" width="546" height="618">
<path d="M222.577 -163.481L-79.1963 159.051L163.535 453.652L465.308 131.121L222.577 -163.481Z" fill="white"/>
</mask>
<g mask="url(#mask22_512_25917)">
<mask id="mask23_512_25917" style="mask-type:luminance" maskUnits="userSpaceOnUse" x="-80" y="-164" width="546" height="618">
<path d="M222.577 -163.481L-79.1963 159.051L163.535 453.652L465.308 131.121L222.577 -163.481Z" fill="white"/>
</mask>
<g mask="url(#mask23_512_25917)">
<path d="M88.5317 200.318C84.3933 194.595 80.8461 188.703 77.5945 182.306C76.8555 181.128 76.4121 178.939 74.7863 179.108C72.4216 180.286 75.0819 183.316 75.6731 184.831C78.7769 190.891 82.3241 196.783 86.3147 202.338C87.3493 204.021 89.5662 202.17 88.5317 200.486V200.318Z" fill="#F6CB78" fill-opacity="0.2"/>
</g>
</g>
</g>
<mask id="mask24_512_25917" style="mask-type:luminance" maskUnits="userSpaceOnUse" x="78" y="157" width="41" height="46">
<path d="M118.239 157.056H78.7769V202.001H118.239V157.056Z" fill="white"/>
</mask>
<g mask="url(#mask24_512_25917)">
<mask id="mask25_512_25917" style="mask-type:luminance" maskUnits="userSpaceOnUse" x="-80" y="-164" width="546" height="618">
<path d="M222.577 -163.481L-79.1963 159.051L163.535 453.652L465.308 131.121L222.577 -163.481Z" fill="white"/>
</mask>
<g mask="url(#mask25_512_25917)">
<mask id="mask26_512_25917" style="mask-type:luminance" maskUnits="userSpaceOnUse" x="-80" y="-164" width="546" height="618">
<path d="M222.577 -163.481L-79.1963 159.051L163.535 453.652L465.308 131.121L222.577 -163.481Z" fill="white"/>
</mask>
<g mask="url(#mask26_512_25917)">
<path d="M103.607 195.268C101.686 192.574 100.06 189.881 98.2865 187.019C96.9563 184.663 95.6261 182.474 94.2959 180.286C93.8525 179.613 92.9657 178.939 92.0789 179.444C90.4531 180.791 92.5223 182.979 93.2613 184.494C95.9217 188.871 98.4343 193.079 101.242 197.288C101.686 197.961 102.573 198.129 103.164 197.624C103.755 197.119 104.051 196.109 103.607 195.436V195.268Z" fill="#F6CB78" fill-opacity="0.2"/>
</g>
</g>
</g>
<mask id="mask27_512_25917" style="mask-type:luminance" maskUnits="userSpaceOnUse" x="78" y="134" width="41" height="46">
<path d="M118.239 134.667H78.7769V179.612H118.239V134.667Z" fill="white"/>
</mask>
<g mask="url(#mask27_512_25917)">
<mask id="mask28_512_25917" style="mask-type:luminance" maskUnits="userSpaceOnUse" x="-80" y="-164" width="546" height="618">
<path d="M222.577 -163.481L-79.1963 159.05L163.535 453.652L465.308 131.12L222.577 -163.481Z" fill="white"/>
</mask>
<g mask="url(#mask28_512_25917)">
<mask id="mask29_512_25917" style="mask-type:luminance" maskUnits="userSpaceOnUse" x="-80" y="-164" width="546" height="618">
<path d="M222.577 -163.481L-79.1963 159.05L163.535 453.652L465.308 131.12L222.577 -163.481Z" fill="white"/>
</mask>
<g mask="url(#mask29_512_25917)">
<path d="M98.4342 163.452C96.2172 160.253 94.0002 156.718 91.931 153.352C91.192 150.995 88.3838 149.985 88.6794 153.352C90.7486 157.728 93.5568 161.432 96.2172 165.472C97.2518 167.155 99.4688 165.303 98.4342 163.62V163.452Z" fill="#F6CB78" fill-opacity="0.2"/>
</g>
</g>
</g>
<mask id="mask30_512_25917" style="mask-type:luminance" maskUnits="userSpaceOnUse" x="98" y="134" width="21" height="24">
<path d="M118.239 134.667H98.582V157.055H118.239V134.667Z" fill="white"/>
</mask>
<g mask="url(#mask30_512_25917)">
<mask id="mask31_512_25917" style="mask-type:luminance" maskUnits="userSpaceOnUse" x="-80" y="-164" width="546" height="618">
<path d="M222.577 -163.481L-79.1963 159.05L163.535 453.652L465.308 131.12L222.577 -163.481Z" fill="white"/>
</mask>
<g mask="url(#mask31_512_25917)">
<mask id="mask32_512_25917" style="mask-type:luminance" maskUnits="userSpaceOnUse" x="-80" y="-164" width="546" height="618">
<path d="M222.577 -163.481L-79.1963 159.05L163.535 453.652L465.308 131.12L222.577 -163.481Z" fill="white"/>
</mask>
<g mask="url(#mask32_512_25917)">
<path d="M106.711 140.221C104.642 142.073 108.041 144.598 108.928 146.113C110.258 147.628 112.179 145.44 110.997 143.925C109.667 142.578 108.78 139.716 106.711 140.221Z" fill="#F6CB78" fill-opacity="0.2"/>
</g>
</g>
</g>
<mask id="mask33_512_25917" style="mask-type:luminance" maskUnits="userSpaceOnUse" x="118" y="89" width="20" height="46">
<path d="M137.897 89.7217H118.239V134.667H137.897V89.7217Z" fill="white"/>
</mask>
<g mask="url(#mask33_512_25917)">
<mask id="mask34_512_25917" style="mask-type:luminance" maskUnits="userSpaceOnUse" x="-80" y="-164" width="546" height="618">
<path d="M222.577 -163.481L-79.1963 159.051L163.535 453.652L465.308 131.121L222.577 -163.481Z" fill="white"/>
</mask>
<g mask="url(#mask34_512_25917)">
<mask id="mask35_512_25917" style="mask-type:luminance" maskUnits="userSpaceOnUse" x="-80" y="-164" width="546" height="618">
<path d="M222.577 -163.481L-79.1963 159.051L163.535 453.652L465.308 131.121L222.577 -163.481Z" fill="white"/>
</mask>
<g mask="url(#mask35_512_25917)">
<path d="M126.516 113.289C128.881 116.487 131.246 119.685 133.758 122.715C135.088 124.23 137.01 122.042 135.827 120.527C133.463 117.497 131.098 114.467 128.733 111.437C127.994 110.427 126.959 108.912 125.629 109.585C124.299 110.764 125.629 112.447 126.516 113.289Z" fill="#F6CB78" fill-opacity="0.2"/>
</g>
</g>
</g>
<mask id="mask36_512_25917" style="mask-type:luminance" maskUnits="userSpaceOnUse" x="137" y="89" width="21" height="24">
<path d="M157.554 89.7217H137.896V112.11H157.554V89.7217Z" fill="white"/>
</mask>
<g mask="url(#mask36_512_25917)">
<mask id="mask37_512_25917" style="mask-type:luminance" maskUnits="userSpaceOnUse" x="-80" y="-164" width="546" height="618">
<path d="M222.577 -163.481L-79.1963 159.051L163.535 453.652L465.308 131.121L222.577 -163.481Z" fill="white"/>
</mask>
<g mask="url(#mask37_512_25917)">
<mask id="mask38_512_25917" style="mask-type:luminance" maskUnits="userSpaceOnUse" x="-80" y="-164" width="546" height="618">
<path d="M222.577 -163.481L-79.1963 159.051L163.535 453.652L465.308 131.121L222.577 -163.481Z" fill="white"/>
</mask>
<g mask="url(#mask38_512_25917)">
<path d="M143.365 98.6442C146.321 102.348 150.164 105.041 153.711 108.071C155.189 109.418 156.815 106.893 155.484 105.546C152.233 102.853 148.833 100.159 145.877 96.9609C144.695 95.4459 142.478 96.2876 143.365 98.4759V98.6442Z" fill="#F6CB78" fill-opacity="0.2"/>
</g>
</g>
</g>
<mask id="mask39_512_25917" style="mask-type:luminance" maskUnits="userSpaceOnUse" x="157" y="89" width="41" height="24">
<path d="M197.164 89.7217H157.702V112.11H197.164V89.7217Z" fill="white"/>
</mask>
<g mask="url(#mask39_512_25917)">
<mask id="mask40_512_25917" style="mask-type:luminance" maskUnits="userSpaceOnUse" x="-80" y="-164" width="546" height="618">
<path d="M222.577 -163.481L-79.1963 159.051L163.535 453.652L465.308 131.121L222.577 -163.481Z" fill="white"/>
</mask>
<g mask="url(#mask40_512_25917)">
<mask id="mask41_512_25917" style="mask-type:luminance" maskUnits="userSpaceOnUse" x="-80" y="-164" width="546" height="618">
<path d="M222.577 -163.481L-79.1963 159.051L163.535 453.652L465.308 131.121L222.577 -163.481Z" fill="white"/>
</mask>
<g mask="url(#mask41_512_25917)">
<path d="M170.856 106.05C173.959 107.397 177.211 108.575 180.463 109.585C182.236 110.09 182.975 107.06 181.349 106.555C177.95 105.377 174.551 104.198 171.299 102.852C170.412 102.347 169.23 102.01 168.639 103.188C167.9 104.872 169.821 105.713 171.003 106.218L170.856 106.05Z" fill="#F6CB78" fill-opacity="0.2"/>
</g>
</g>
</g>
<mask id="mask42_512_25917" style="mask-type:luminance" maskUnits="userSpaceOnUse" x="98" y="202" width="41" height="45">
<path d="M138.044 202.001H98.582V246.946H138.044V202.001Z" fill="white"/>
</mask>
<g mask="url(#mask42_512_25917)">
<mask id="mask43_512_25917" style="mask-type:luminance" maskUnits="userSpaceOnUse" x="-80" y="-164" width="546" height="618">
<path d="M222.577 -163.481L-79.1963 159.051L163.535 453.652L465.308 131.121L222.577 -163.481Z" fill="white"/>
</mask>
<g mask="url(#mask43_512_25917)">
<mask id="mask44_512_25917" style="mask-type:luminance" maskUnits="userSpaceOnUse" x="-80" y="-164" width="546" height="618">
<path d="M222.577 -163.481L-79.1963 159.051L163.535 453.652L465.308 131.121L222.577 -163.481Z" fill="white"/>
</mask>
<g mask="url(#mask44_512_25917)">
<path d="M118.387 227.756C114.988 223.211 111.588 218.835 107.893 214.458C107.598 213.953 107.154 213.616 106.711 213.448C105.972 213.111 105.233 213.448 105.085 214.458C104.937 215.973 106.415 217.151 107.302 218.161C110.406 222.033 113.362 225.905 116.318 229.776C117.5 231.291 119.569 229.103 118.387 227.588V227.756Z" fill="#F6CB78" fill-opacity="0.2"/>
</g>
</g>
</g>
<mask id="mask45_512_25917" style="mask-type:luminance" maskUnits="userSpaceOnUse" x="98" y="224" width="41" height="46">
<path d="M138.044 224.39H98.582V269.335H138.044V224.39Z" fill="white"/>
</mask>
<g mask="url(#mask45_512_25917)">
<mask id="mask46_512_25917" style="mask-type:luminance" maskUnits="userSpaceOnUse" x="-80" y="-164" width="546" height="618">
<path d="M222.577 -163.481L-79.1963 159.051L163.535 453.652L465.308 131.121L222.577 -163.481Z" fill="white"/>
</mask>
<g mask="url(#mask46_512_25917)">
<mask id="mask47_512_25917" style="mask-type:luminance" maskUnits="userSpaceOnUse" x="-80" y="-164" width="546" height="618">
<path d="M222.577 -163.481L-79.1963 159.051L163.535 453.652L465.308 131.121L222.577 -163.481Z" fill="white"/>
</mask>
<g mask="url(#mask47_512_25917)">
<path d="M119.422 246.609C116.761 243.242 114.101 239.875 111.44 236.677C109.519 234.489 108.041 231.459 105.676 229.775C104.789 229.27 103.903 230.28 104.05 231.29C104.05 232.132 104.642 232.637 104.937 233.142C108.928 238.529 113.066 243.747 117.205 248.966C118.535 250.481 120.456 248.292 119.274 246.777L119.422 246.609Z" fill="#F6CB78" fill-opacity="0.2"/>
</g>
</g>
</g>
<mask id="mask48_512_25917" style="mask-type:luminance" maskUnits="userSpaceOnUse" x="118" y="246" width="40" height="24">
<path d="M157.702 246.946H118.239V269.335H157.702V246.946Z" fill="white"/>
</mask>
<g mask="url(#mask48_512_25917)">
<mask id="mask49_512_25917" style="mask-type:luminance" maskUnits="userSpaceOnUse" x="-80" y="-164" width="546" height="618">
<path d="M222.577 -163.481L-79.1963 159.051L163.535 453.652L465.308 131.121L222.577 -163.481Z" fill="white"/>
</mask>
<g mask="url(#mask49_512_25917)">
<mask id="mask50_512_25917" style="mask-type:luminance" maskUnits="userSpaceOnUse" x="-80" y="-164" width="546" height="618">
<path d="M222.577 -163.481L-79.1963 159.051L163.535 453.652L465.308 131.121L222.577 -163.481Z" fill="white"/>
</mask>
<g mask="url(#mask50_512_25917)">
<path d="M144.547 265.295C140.409 261.423 136.714 257.046 132.576 253.175C130.95 252.333 130.063 254.185 131.098 255.7C134.793 260.076 138.783 263.78 142.774 267.82C144.252 269.166 145.878 266.641 144.547 265.295Z" fill="#F6CB78" fill-opacity="0.2"/>
</g>
</g>
</g>
<mask id="mask51_512_25917" style="mask-type:luminance" maskUnits="userSpaceOnUse" x="137" y="269" width="41" height="46">
<path d="M177.359 269.335H137.896V314.28H177.359V269.335Z" fill="white"/>
</mask>
<g mask="url(#mask51_512_25917)">
<mask id="mask52_512_25917" style="mask-type:luminance" maskUnits="userSpaceOnUse" x="-80" y="-164" width="546" height="618">
<path d="M222.577 -163.48L-79.1963 159.051L163.535 453.653L465.308 131.121L222.577 -163.48Z" fill="white"/>
</mask>
<g mask="url(#mask52_512_25917)">
<mask id="mask53_512_25917" style="mask-type:luminance" maskUnits="userSpaceOnUse" x="-80" y="-164" width="546" height="618">
<path d="M222.577 -163.48L-79.1963 159.051L163.535 453.653L465.308 131.121L222.577 -163.48Z" fill="white"/>
</mask>
<g mask="url(#mask53_512_25917)">
<path d="M173.811 290.713C168.343 287.851 163.022 284.989 157.701 281.623C156.371 280.949 154.893 279.098 153.415 280.276C152.972 280.613 152.824 281.286 153.12 281.791C153.563 283.138 154.893 283.474 155.928 284.148C161.396 287.683 167.161 290.713 172.777 293.743C174.403 294.584 175.585 291.723 173.811 290.881V290.713Z" fill="#F6CB78" fill-opacity="0.2"/>
</g>
</g>
</g>
<mask id="mask54_512_25917" style="mask-type:luminance" maskUnits="userSpaceOnUse" x="157" y="246" width="21" height="46">
<path d="M177.359 246.946H157.702V291.892H177.359V246.946Z" fill="white"/>
</mask>
<g mask="url(#mask54_512_25917)">
<mask id="mask55_512_25917" style="mask-type:luminance" maskUnits="userSpaceOnUse" x="-80" y="-164" width="546" height="618">
<path d="M222.577 -163.481L-79.1963 159.051L163.535 453.652L465.308 131.121L222.577 -163.481Z" fill="white"/>
</mask>
<g mask="url(#mask55_512_25917)">
<mask id="mask56_512_25917" style="mask-type:luminance" maskUnits="userSpaceOnUse" x="-80" y="-164" width="546" height="618">
<path d="M222.577 -163.481L-79.1963 159.051L163.535 453.652L465.308 131.121L222.577 -163.481Z" fill="white"/>
</mask>
<g mask="url(#mask56_512_25917)">
<path d="M165.535 272.701C163.614 271.691 161.84 270.681 160.214 269.503C159.18 268.661 157.406 269.166 157.702 270.681C157.702 271.186 158.145 271.691 158.441 272.028C160.362 273.375 162.431 274.553 164.353 275.563C165.978 276.405 167.161 273.543 165.535 272.701Z" fill="#F6CB78" fill-opacity="0.2"/>
</g>
</g>
</g>
<mask id="mask57_512_25917" style="mask-type:luminance" maskUnits="userSpaceOnUse" x="177" y="269" width="40" height="23">
<path d="M216.821 269.335H177.359V291.723H216.821V269.335Z" fill="white"/>
</mask>
<g mask="url(#mask57_512_25917)">
<mask id="mask58_512_25917" style="mask-type:luminance" maskUnits="userSpaceOnUse" x="-80" y="-164" width="546" height="618">
<path d="M222.577 -163.48L-79.1963 159.051L163.535 453.653L465.308 131.121L222.577 -163.48Z" fill="white"/>
</mask>
<g mask="url(#mask58_512_25917)">
<mask id="mask59_512_25917" style="mask-type:luminance" maskUnits="userSpaceOnUse" x="-80" y="-164" width="546" height="618">
<path d="M222.577 -163.48L-79.1963 159.051L163.535 453.653L465.308 131.121L222.577 -163.48Z" fill="white"/>
</mask>
<g mask="url(#mask59_512_25917)">
<path d="M200.415 284.317C196.573 283.307 192.73 282.128 189.035 280.95C187.409 280.613 185.192 278.593 183.862 280.277C183.566 280.613 183.566 281.287 183.862 281.623C184.305 282.465 185.044 282.633 185.783 282.97C190.365 284.653 195.095 286 199.676 287.347C201.45 288.02 202.189 284.822 200.563 284.317H200.415Z" fill="#F6CB78" fill-opacity="0.2"/>
</g>
</g>
</g>
<mask id="mask60_512_25917" style="mask-type:luminance" maskUnits="userSpaceOnUse" x="177" y="291" width="40" height="24">
<path d="M216.821 291.723H177.359V314.111H216.821V291.723Z" fill="white"/>
</mask>
<g mask="url(#mask60_512_25917)">
<mask id="mask61_512_25917" style="mask-type:luminance" maskUnits="userSpaceOnUse" x="-80" y="-164" width="546" height="618">
<path d="M222.577 -163.481L-79.1963 159.051L163.535 453.652L465.308 131.121L222.577 -163.481Z" fill="white"/>
</mask>
<g mask="url(#mask61_512_25917)">
<mask id="mask62_512_25917" style="mask-type:luminance" maskUnits="userSpaceOnUse" x="-80" y="-164" width="546" height="618">
<path d="M222.577 -163.481L-79.1963 159.051L163.535 453.652L465.308 131.121L222.577 -163.481Z" fill="white"/>
</mask>
<g mask="url(#mask62_512_25917)">
<path d="M207.953 300.308C203.519 298.962 199.085 297.951 194.799 295.763C194.208 295.426 193.764 294.921 193.173 294.753C191.843 294.416 190.956 295.595 191.695 297.11C193.912 299.635 197.311 300.14 200.12 301.318C202.484 301.992 204.701 302.833 207.066 303.507C207.805 303.843 208.544 303.338 208.692 302.497C208.988 301.655 208.544 300.813 207.805 300.477L207.953 300.308Z" fill="#F6CB78" fill-opacity="0.2"/>
</g>
</g>
</g>
<mask id="mask63_512_25917" style="mask-type:luminance" maskUnits="userSpaceOnUse" x="197" y="269" width="40" height="23">
<path d="M236.478 269.335H197.016V291.723H236.478V269.335Z" fill="white"/>
</mask>
<g mask="url(#mask63_512_25917)">
<mask id="mask64_512_25917" style="mask-type:luminance" maskUnits="userSpaceOnUse" x="-80" y="-164" width="546" height="618">
<path d="M222.577 -163.48L-79.1963 159.051L163.535 453.653L465.308 131.121L222.577 -163.48Z" fill="white"/>
</mask>
<g mask="url(#mask64_512_25917)">
<mask id="mask65_512_25917" style="mask-type:luminance" maskUnits="userSpaceOnUse" x="-80" y="-164" width="546" height="618">
<path d="M222.577 -163.48L-79.1963 159.051L163.535 453.653L465.308 131.121L222.577 -163.48Z" fill="white"/>
</mask>
<g mask="url(#mask65_512_25917)">
<path d="M225.394 283.643C222.438 283.98 219.629 283.98 216.821 284.148C215.196 284.653 212.387 283.306 211.501 285.495C211.205 287.515 213.718 287.346 214.9 287.346C218.447 287.346 222.142 287.01 225.689 286.673C226.428 286.673 227.019 285.831 226.872 284.99C226.724 284.148 226.133 283.475 225.394 283.643Z" fill="#F6CB78" fill-opacity="0.2"/>
</g>
</g>
</g>
<mask id="mask66_512_25917" style="mask-type:luminance" maskUnits="userSpaceOnUse" x="197" y="112" width="40" height="23">
<path d="M236.478 112.279H197.016V134.667H236.478V112.279Z" fill="white"/>
</mask>
<g mask="url(#mask66_512_25917)">
<mask id="mask67_512_25917" style="mask-type:luminance" maskUnits="userSpaceOnUse" x="-80" y="-164" width="546" height="618">
<path d="M222.577 -163.48L-79.1963 159.051L163.535 453.653L465.308 131.121L222.577 -163.48Z" fill="white"/>
</mask>
<g mask="url(#mask67_512_25917)">
<mask id="mask68_512_25917" style="mask-type:luminance" maskUnits="userSpaceOnUse" x="-80" y="-164" width="546" height="618">
<path d="M222.577 -163.48L-79.1963 159.051L163.535 453.653L465.308 131.121L222.577 -163.48Z" fill="white"/>
</mask>
<g mask="url(#mask68_512_25917)">
<path d="M209.875 118.844C210.318 119.686 211.205 120.022 211.944 120.191C217.56 121.874 223.325 122.884 229.089 123.726C229.828 123.894 230.567 123.221 230.567 122.379C230.567 121.537 229.976 120.696 229.384 120.696C226.576 120.359 223.768 119.686 220.96 119.349C218.004 118.676 214.752 117.834 211.648 116.992C210.614 116.656 209.284 117.834 210.023 119.012L209.875 118.844Z" fill="#F6CB78" fill-opacity="0.2"/>
</g>
</g>
</g>
<mask id="mask69_512_25917" style="mask-type:luminance" maskUnits="userSpaceOnUse" x="177" y="89" width="40" height="24">
<path d="M216.821 89.7217H177.359V112.11H216.821V89.7217Z" fill="white"/>
</mask>
<g mask="url(#mask69_512_25917)">
<mask id="mask70_512_25917" style="mask-type:luminance" maskUnits="userSpaceOnUse" x="-80" y="-164" width="546" height="618">
<path d="M222.577 -163.481L-79.1963 159.051L163.535 453.652L465.308 131.121L222.577 -163.481Z" fill="white"/>
</mask>
<g mask="url(#mask70_512_25917)">
<mask id="mask71_512_25917" style="mask-type:luminance" maskUnits="userSpaceOnUse" x="-80" y="-164" width="546" height="618">
<path d="M222.577 -163.481L-79.1963 159.051L163.535 453.652L465.308 131.121L222.577 -163.481Z" fill="white"/>
</mask>
<g mask="url(#mask71_512_25917)">
<path d="M197.016 108.239C197.755 109.585 199.381 109.417 200.563 109.417C204.85 109.754 209.136 109.754 213.57 109.754C215.343 109.754 215.196 106.555 213.422 106.555C209.431 106.555 205.293 106.555 201.302 106.387C200.12 106.387 198.938 105.882 197.755 106.219C197.016 106.555 196.573 107.397 197.016 108.239Z" fill="#F6CB78" fill-opacity="0.2"/>
</g>
</g>
</g>
<mask id="mask72_512_25917" style="mask-type:luminance" maskUnits="userSpaceOnUse" x="39" y="67" width="40" height="46">
<path d="M78.9248 67.334H39.4624V112.279H78.9248V67.334Z" fill="white"/>
</mask>
<g mask="url(#mask72_512_25917)">
<mask id="mask73_512_25917" style="mask-type:luminance" maskUnits="userSpaceOnUse" x="-80" y="-164" width="546" height="618">
<path d="M222.577 -163.48L-79.1963 159.052L163.535 453.653L465.308 131.122L222.577 -163.48Z" fill="white"/>
</mask>
<g mask="url(#mask73_512_25917)">
<mask id="mask74_512_25917" style="mask-type:luminance" maskUnits="userSpaceOnUse" x="-80" y="-164" width="546" height="618">
<path d="M222.577 -163.48L-79.1963 159.052L163.535 453.653L465.308 131.122L222.577 -163.48Z" fill="white"/>
</mask>
<g mask="url(#mask74_512_25917)">
<path d="M65.1793 83.4938C63.8491 78.4438 59.7107 74.2354 56.3113 75.5821C52.9119 76.9288 50.9905 81.4738 52.3207 87.0288C53.6509 92.0788 57.7893 96.2872 61.1887 94.9405C64.5881 93.5938 66.5094 88.8805 65.1793 83.3255V83.4938Z" fill="#563A3A" fill-opacity="0.2"/>
</g>
</g>
</g>
</svg>
