<svg width="171" height="157" viewBox="0 0 171 157" fill="none" xmlns="http://www.w3.org/2000/svg">
<g filter="url(#filter0_d_512_25582)">
<path opacity="0.5" d="M110.203 51.8857C85.1182 51.8858 64.4065 71.4075 64.4062 95.9424C64.4062 120.477 85.1181 140 110.203 140C117.484 140 124.387 138.362 130.52 135.438C131.054 135.183 131.518 135.171 131.812 135.246L140.893 137.572C148.137 139.428 155.65 133.061 153.443 125.165L151.014 116.472C150.982 116.36 150.955 116.072 151.179 115.641L151.464 115.083C154.369 109.295 156 102.798 156 95.9424C156 71.4074 135.288 51.8857 110.203 51.8857Z" fill="white" stroke="white" stroke-width="10"/>
<path opacity="0.5" d="M56.7969 9C81.8818 9.00009 102.594 28.5217 102.594 53.0566C102.594 77.5916 81.8819 97.1142 56.7969 97.1143C49.5162 97.1143 42.6135 95.4761 36.4805 92.5518C35.9457 92.2968 35.4824 92.285 35.1885 92.3604L26.1074 94.6865C18.8631 96.5421 11.3499 90.1754 13.5566 82.2793L15.9863 73.5859C16.0176 73.4739 16.0454 73.1859 15.8213 72.7549L15.5361 72.1973C12.6307 66.4095 11 59.9121 11 53.0566C11.0002 28.5217 31.7118 9 56.7969 9Z" fill="white" stroke="white" stroke-width="10"/>
<path opacity="0.5" d="M110.203 51.8857C85.1182 51.8858 64.4065 71.4075 64.4062 95.9424C64.4062 120.477 85.1181 140 110.203 140C117.484 140 124.387 138.362 130.52 135.438C131.054 135.183 131.518 135.171 131.812 135.246L140.893 137.572C148.137 139.428 155.65 133.061 153.443 125.165L151.014 116.472C150.982 116.36 150.955 116.072 151.179 115.641L151.464 115.083C154.369 109.295 156 102.798 156 95.9424C156 71.4074 135.288 51.8857 110.203 51.8857Z" fill="white" stroke="white" stroke-width="10"/>
<path opacity="0.5" d="M56.7969 9C81.8818 9.00009 102.594 28.5217 102.594 53.0566C102.594 77.5916 81.8819 97.1142 56.7969 97.1143C49.5162 97.1143 42.6135 95.4761 36.4805 92.5518C35.9457 92.2968 35.4824 92.285 35.1885 92.3604L26.1074 94.6865C18.8631 96.5421 11.3499 90.1754 13.5566 82.2793L15.9863 73.5859C16.0176 73.4739 16.0454 73.1859 15.8213 72.7549L15.5361 72.1973C12.6307 66.4095 11 59.9121 11 53.0566C11.0002 28.5217 31.7118 9 56.7969 9Z" fill="white" stroke="white" stroke-width="10"/>
<path opacity="0.5" d="M110.203 51.8857C85.1182 51.8858 64.4065 71.4075 64.4062 95.9424C64.4062 120.477 85.1181 140 110.203 140C117.484 140 124.387 138.362 130.52 135.438C131.054 135.183 131.518 135.171 131.812 135.246L140.893 137.572C148.137 139.428 155.65 133.061 153.443 125.165L151.014 116.472C150.982 116.36 150.955 116.072 151.179 115.641L151.464 115.083C154.369 109.295 156 102.798 156 95.9424C156 71.4074 135.288 51.8857 110.203 51.8857Z" fill="white" stroke="white" stroke-width="10"/>
<path opacity="0.5" d="M56.7969 9C81.8818 9.00009 102.594 28.5217 102.594 53.0566C102.594 77.5916 81.8819 97.1142 56.7969 97.1143C49.5162 97.1143 42.6135 95.4761 36.4805 92.5518C35.9457 92.2968 35.4824 92.285 35.1885 92.3604L26.1074 94.6865C18.8631 96.5421 11.3499 90.1754 13.5566 82.2793L15.9863 73.5859C16.0176 73.4739 16.0454 73.1859 15.8213 72.7549L15.5361 72.1973C12.6307 66.4095 11 59.9121 11 53.0566C11.0002 28.5217 31.7118 9 56.7969 9Z" fill="white" stroke="white" stroke-width="10"/>
<path opacity="0.5" d="M110.203 51.8857C85.1182 51.8858 64.4065 71.4075 64.4062 95.9424C64.4062 120.477 85.1181 140 110.203 140C117.484 140 124.387 138.362 130.52 135.438C131.054 135.183 131.518 135.171 131.812 135.246L140.893 137.572C148.137 139.428 155.65 133.061 153.443 125.165L151.014 116.472C150.982 116.36 150.955 116.072 151.179 115.641L151.464 115.083C154.369 109.295 156 102.798 156 95.9424C156 71.4074 135.288 51.8857 110.203 51.8857Z" fill="white" stroke="white" stroke-width="10"/>
<path opacity="0.5" d="M56.7969 9C81.8818 9.00009 102.594 28.5217 102.594 53.0566C102.594 77.5916 81.8819 97.1142 56.7969 97.1143C49.5162 97.1143 42.6135 95.4761 36.4805 92.5518C35.9457 92.2968 35.4824 92.285 35.1885 92.3604L26.1074 94.6865C18.8631 96.5421 11.3499 90.1754 13.5566 82.2793L15.9863 73.5859C16.0176 73.4739 16.0454 73.1859 15.8213 72.7549L15.5361 72.1973C12.6307 66.4095 11 59.9121 11 53.0566C11.0002 28.5217 31.7118 9 56.7969 9Z" fill="white" stroke="white" stroke-width="10"/>
<path opacity="0.5" d="M110.203 51.8857C85.1182 51.8858 64.4065 71.4075 64.4062 95.9424C64.4062 120.477 85.1181 140 110.203 140C117.484 140 124.387 138.362 130.52 135.438C131.054 135.183 131.518 135.171 131.812 135.246L140.893 137.572C148.137 139.428 155.65 133.061 153.443 125.165L151.014 116.472C150.982 116.36 150.955 116.072 151.179 115.641L151.464 115.083C154.369 109.295 156 102.798 156 95.9424C156 71.4074 135.288 51.8857 110.203 51.8857Z" fill="white" stroke="white" stroke-width="10"/>
<path opacity="0.5" d="M56.7969 9C81.8818 9.00009 102.594 28.5217 102.594 53.0566C102.594 77.5916 81.8819 97.1142 56.7969 97.1143C49.5162 97.1143 42.6135 95.4761 36.4805 92.5518C35.9457 92.2968 35.4824 92.285 35.1885 92.3604L26.1074 94.6865C18.8631 96.5421 11.3499 90.1754 13.5566 82.2793L15.9863 73.5859C16.0176 73.4739 16.0454 73.1859 15.8213 72.7549L15.5361 72.1973C12.6307 66.4095 11 59.9121 11 53.0566C11.0002 28.5217 31.7118 9 56.7969 9Z" fill="white" stroke="white" stroke-width="10"/>
<path opacity="0.5" d="M110.203 51.8857C85.1182 51.8858 64.4065 71.4075 64.4062 95.9424C64.4062 120.477 85.1181 140 110.203 140C117.484 140 124.387 138.362 130.52 135.438C131.054 135.183 131.518 135.171 131.812 135.246L140.893 137.572C148.137 139.428 155.65 133.061 153.443 125.165L151.014 116.472C150.982 116.36 150.955 116.072 151.179 115.641L151.464 115.083C154.369 109.295 156 102.798 156 95.9424C156 71.4074 135.288 51.8857 110.203 51.8857Z" fill="white" stroke="white" stroke-width="10"/>
<path opacity="0.5" d="M56.7969 9C81.8818 9.00009 102.594 28.5217 102.594 53.0566C102.594 77.5916 81.8819 97.1142 56.7969 97.1143C49.5162 97.1143 42.6135 95.4761 36.4805 92.5518C35.9457 92.2968 35.4824 92.285 35.1885 92.3604L26.1074 94.6865C18.8631 96.5421 11.3499 90.1754 13.5566 82.2793L15.9863 73.5859C16.0176 73.4739 16.0454 73.1859 15.8213 72.7549L15.5361 72.1973C12.6307 66.4095 11 59.9121 11 53.0566C11.0002 28.5217 31.7118 9 56.7969 9Z" fill="white" stroke="white" stroke-width="10"/>
<path opacity="0.5" d="M110.203 51.8857C85.1182 51.8858 64.4065 71.4075 64.4062 95.9424C64.4062 120.477 85.1181 140 110.203 140C117.484 140 124.387 138.362 130.52 135.438C131.054 135.183 131.518 135.171 131.812 135.246L140.893 137.572C148.137 139.428 155.65 133.061 153.443 125.165L151.014 116.472C150.982 116.36 150.955 116.072 151.179 115.641L151.464 115.083C154.369 109.295 156 102.798 156 95.9424C156 71.4074 135.288 51.8857 110.203 51.8857Z" fill="white" stroke="white" stroke-width="10"/>
<path opacity="0.5" d="M56.7969 9C81.8818 9.00009 102.594 28.5217 102.594 53.0566C102.594 77.5916 81.8819 97.1142 56.7969 97.1143C49.5162 97.1143 42.6135 95.4761 36.4805 92.5518C35.9457 92.2968 35.4824 92.285 35.1885 92.3604L26.1074 94.6865C18.8631 96.5421 11.3499 90.1754 13.5566 82.2793L15.9863 73.5859C16.0176 73.4739 16.0454 73.1859 15.8213 72.7549L15.5361 72.1973C12.6307 66.4095 11 59.9121 11 53.0566C11.0002 28.5217 31.7118 9 56.7969 9Z" fill="white" stroke="white" stroke-width="10"/>
<path opacity="0.5" d="M110.203 51.8857C85.1182 51.8858 64.4065 71.4075 64.4062 95.9424C64.4062 120.477 85.1181 140 110.203 140C117.484 140 124.387 138.362 130.52 135.438C131.054 135.183 131.518 135.171 131.812 135.246L140.893 137.572C148.137 139.428 155.65 133.061 153.443 125.165L151.014 116.472C150.982 116.36 150.955 116.072 151.179 115.641L151.464 115.083C154.369 109.295 156 102.798 156 95.9424C156 71.4074 135.288 51.8857 110.203 51.8857Z" fill="white" stroke="white" stroke-width="10"/>
<path opacity="0.5" d="M56.7969 9C81.8818 9.00009 102.594 28.5217 102.594 53.0566C102.594 77.5916 81.8819 97.1142 56.7969 97.1143C49.5162 97.1143 42.6135 95.4761 36.4805 92.5518C35.9457 92.2968 35.4824 92.285 35.1885 92.3604L26.1074 94.6865C18.8631 96.5421 11.3499 90.1754 13.5566 82.2793L15.9863 73.5859C16.0176 73.4739 16.0454 73.1859 15.8213 72.7549L15.5361 72.1973C12.6307 66.4095 11 59.9121 11 53.0566C11.0002 28.5217 31.7118 9 56.7969 9Z" fill="white" stroke="white" stroke-width="10"/>
<path opacity="0.5" d="M110.203 135C87.672 135 69.4066 117.513 69.4066 95.9427C69.4066 74.3722 87.672 56.8857 110.203 56.8857C132.735 56.8857 151 74.3722 151 95.9427C151 102.19 149.468 108.096 146.743 113.333C146.019 114.725 145.778 116.315 146.198 117.817L148.628 126.511C149.682 130.286 146.076 133.738 142.133 132.728L133.052 130.402C131.483 130 129.822 130.231 128.368 130.924C122.898 133.533 116.729 135 110.203 135Z" fill="#F6CB78"/>
<path opacity="0.5" d="M110.203 135C87.672 135 69.4066 117.513 69.4066 95.9427C69.4066 74.3722 87.672 56.8857 110.203 56.8857C132.735 56.8857 151 74.3722 151 95.9427C151 102.19 149.468 108.096 146.743 113.333C146.019 114.725 145.778 116.315 146.198 117.817L148.628 126.511C149.682 130.286 146.076 133.738 142.133 132.728L133.052 130.402C131.483 130 129.822 130.231 128.368 130.924C122.898 133.533 116.729 135 110.203 135Z" fill="#F6CB78"/>
<path opacity="0.5" d="M110.203 135C87.672 135 69.4066 117.513 69.4066 95.9427C69.4066 74.3722 87.672 56.8857 110.203 56.8857C132.735 56.8857 151 74.3722 151 95.9427C151 102.19 149.468 108.096 146.743 113.333C146.019 114.725 145.778 116.315 146.198 117.817L148.628 126.511C149.682 130.286 146.076 133.738 142.133 132.728L133.052 130.402C131.483 130 129.822 130.231 128.368 130.924C122.898 133.533 116.729 135 110.203 135Z" fill="#F6CB78"/>
<g opacity="0.5">
<path d="M110.203 135C87.672 135 69.4066 117.513 69.4066 95.9427C69.4066 74.3722 87.672 56.8857 110.203 56.8857C132.735 56.8857 151 74.3722 151 95.9427C151 102.19 149.468 108.096 146.743 113.333C146.019 114.725 145.778 116.315 146.198 117.817L148.628 126.511C149.682 130.286 146.076 133.738 142.133 132.728L133.052 130.402C131.483 130 129.822 130.231 128.368 130.924C122.898 133.533 116.729 135 110.203 135Z" fill="#F6CB78"/>
<path d="M110.203 135C87.672 135 69.4066 117.513 69.4066 95.9427C69.4066 74.3722 87.672 56.8857 110.203 56.8857C132.735 56.8857 151 74.3722 151 95.9427C151 102.19 149.468 108.096 146.743 113.333C146.019 114.725 145.778 116.315 146.198 117.817L148.628 126.511C149.682 130.286 146.076 133.738 142.133 132.728L133.052 130.402C131.483 130 129.822 130.231 128.368 130.924C122.898 133.533 116.729 135 110.203 135Z" fill="#F6CB78"/>
<path d="M110.203 135C87.672 135 69.4066 117.513 69.4066 95.9427C69.4066 74.3722 87.672 56.8857 110.203 56.8857C132.735 56.8857 151 74.3722 151 95.9427C151 102.19 149.468 108.096 146.743 113.333C146.019 114.725 145.778 116.315 146.198 117.817L148.628 126.511C149.682 130.286 146.076 133.738 142.133 132.728L133.052 130.402C131.483 130 129.822 130.231 128.368 130.924C122.898 133.533 116.729 135 110.203 135Z" fill="#F6CB78"/>
<path d="M110.203 135C87.672 135 69.4066 117.513 69.4066 95.9427C69.4066 74.3722 87.672 56.8857 110.203 56.8857C132.735 56.8857 151 74.3722 151 95.9427C151 102.19 149.468 108.096 146.743 113.333C146.019 114.725 145.778 116.315 146.198 117.817L148.628 126.511C149.682 130.286 146.076 133.738 142.133 132.728L133.052 130.402C131.483 130 129.822 130.231 128.368 130.924C122.898 133.533 116.729 135 110.203 135Z" fill="#F6CB78"/>
<path d="M110.203 135C87.672 135 69.4066 117.513 69.4066 95.9427C69.4066 74.3722 87.672 56.8857 110.203 56.8857C132.735 56.8857 151 74.3722 151 95.9427C151 102.19 149.468 108.096 146.743 113.333C146.019 114.725 145.778 116.315 146.198 117.817L148.628 126.511C149.682 130.286 146.076 133.738 142.133 132.728L133.052 130.402C131.483 130 129.822 130.231 128.368 130.924C122.898 133.533 116.729 135 110.203 135Z" fill="#F6CB78"/>
<path d="M110.203 135C87.672 135 69.4066 117.513 69.4066 95.9427C69.4066 74.3722 87.672 56.8857 110.203 56.8857C132.735 56.8857 151 74.3722 151 95.9427C151 102.19 149.468 108.096 146.743 113.333C146.019 114.725 145.778 116.315 146.198 117.817L148.628 126.511C149.682 130.286 146.076 133.738 142.133 132.728L133.052 130.402C131.483 130 129.822 130.231 128.368 130.924C122.898 133.533 116.729 135 110.203 135Z" fill="#F6CB78"/>
<path d="M110.203 135C87.672 135 69.4066 117.513 69.4066 95.9427C69.4066 74.3722 87.672 56.8857 110.203 56.8857C132.735 56.8857 151 74.3722 151 95.9427C151 102.19 149.468 108.096 146.743 113.333C146.019 114.725 145.778 116.315 146.198 117.817L148.628 126.511C149.682 130.286 146.076 133.738 142.133 132.728L133.052 130.402C131.483 130 129.822 130.231 128.368 130.924C122.898 133.533 116.729 135 110.203 135Z" fill="#F6CB78"/>
<path d="M110.203 135C87.672 135 69.4066 117.513 69.4066 95.9427C69.4066 74.3722 87.672 56.8857 110.203 56.8857C132.735 56.8857 151 74.3722 151 95.9427C151 102.19 149.468 108.096 146.743 113.333C146.019 114.725 145.778 116.315 146.198 117.817L148.628 126.511C149.682 130.286 146.076 133.738 142.133 132.728L133.052 130.402C131.483 130 129.822 130.231 128.368 130.924C122.898 133.533 116.729 135 110.203 135Z" fill="#F6CB78"/>
<path d="M110.203 135C87.672 135 69.4066 117.513 69.4066 95.9427C69.4066 74.3722 87.672 56.8857 110.203 56.8857C132.735 56.8857 151 74.3722 151 95.9427C151 102.19 149.468 108.096 146.743 113.333C146.019 114.725 145.778 116.315 146.198 117.817L148.628 126.511C149.682 130.286 146.076 133.738 142.133 132.728L133.052 130.402C131.483 130 129.822 130.231 128.368 130.924C122.898 133.533 116.729 135 110.203 135Z" fill="#F6CB78"/>
<path d="M110.203 135C87.672 135 69.4066 117.513 69.4066 95.9427C69.4066 74.3722 87.672 56.8857 110.203 56.8857C132.735 56.8857 151 74.3722 151 95.9427C151 102.19 149.468 108.096 146.743 113.333C146.019 114.725 145.778 116.315 146.198 117.817L148.628 126.511C149.682 130.286 146.076 133.738 142.133 132.728L133.052 130.402C131.483 130 129.822 130.231 128.368 130.924C122.898 133.533 116.729 135 110.203 135Z" fill="#F6CB78"/>
<path d="M110.203 135C87.672 135 69.4066 117.513 69.4066 95.9427C69.4066 74.3722 87.672 56.8857 110.203 56.8857C132.735 56.8857 151 74.3722 151 95.9427C151 102.19 149.468 108.096 146.743 113.333C146.019 114.725 145.778 116.315 146.198 117.817L148.628 126.511C149.682 130.286 146.076 133.738 142.133 132.728L133.052 130.402C131.483 130 129.822 130.231 128.368 130.924C122.898 133.533 116.729 135 110.203 135Z" fill="#F6CB78"/>
<path d="M110.203 135C87.672 135 69.4066 117.513 69.4066 95.9427C69.4066 74.3722 87.672 56.8857 110.203 56.8857C132.735 56.8857 151 74.3722 151 95.9427C151 102.19 149.468 108.096 146.743 113.333C146.019 114.725 145.778 116.315 146.198 117.817L148.628 126.511C149.682 130.286 146.076 133.738 142.133 132.728L133.052 130.402C131.483 130 129.822 130.231 128.368 130.924C122.898 133.533 116.729 135 110.203 135Z" fill="#F6CB78"/>
<path d="M110.203 135C87.672 135 69.4066 117.513 69.4066 95.9427C69.4066 74.3722 87.672 56.8857 110.203 56.8857C132.735 56.8857 151 74.3722 151 95.9427C151 102.19 149.468 108.096 146.743 113.333C146.019 114.725 145.778 116.315 146.198 117.817L148.628 126.511C149.682 130.286 146.076 133.738 142.133 132.728L133.052 130.402C131.483 130 129.822 130.231 128.368 130.924C122.898 133.533 116.729 135 110.203 135Z" fill="#F6CB78"/>
</g>
<path opacity="0.5" d="M110.203 135C87.672 135 69.4066 117.513 69.4066 95.9427C69.4066 74.3722 87.672 56.8857 110.203 56.8857C132.735 56.8857 151 74.3722 151 95.9427C151 102.19 149.468 108.096 146.743 113.333C146.019 114.725 145.778 116.315 146.198 117.817L148.628 126.511C149.682 130.286 146.076 133.738 142.133 132.728L133.052 130.402C131.483 130 129.822 130.231 128.368 130.924C122.898 133.533 116.729 135 110.203 135Z" fill="#F6CB78"/>
<path opacity="0.5" d="M110.203 135C87.672 135 69.4066 117.513 69.4066 95.9427C69.4066 74.3722 87.672 56.8857 110.203 56.8857C132.735 56.8857 151 74.3722 151 95.9427C151 102.19 149.468 108.096 146.743 113.333C146.019 114.725 145.778 116.315 146.198 117.817L148.628 126.511C149.682 130.286 146.076 133.738 142.133 132.728L133.052 130.402C131.483 130 129.822 130.231 128.368 130.924C122.898 133.533 116.729 135 110.203 135Z" fill="#F6CB78"/>
<path opacity="0.5" d="M110.203 135C87.672 135 69.4066 117.513 69.4066 95.9427C69.4066 74.3722 87.672 56.8857 110.203 56.8857C132.735 56.8857 151 74.3722 151 95.9427C151 102.19 149.468 108.096 146.743 113.333C146.019 114.725 145.778 116.315 146.198 117.817L148.628 126.511C149.682 130.286 146.076 133.738 142.133 132.728L133.052 130.402C131.483 130 129.822 130.231 128.368 130.924C122.898 133.533 116.729 135 110.203 135Z" fill="#F6CB78"/>
<path opacity="0.5" d="M56.7967 92.114C79.328 92.114 97.5934 74.6275 97.5934 53.057C97.5934 31.4864 79.328 14 56.7967 14C34.2653 14 16 31.4864 16 53.057C16 59.3047 17.5324 65.2101 20.257 70.447C20.981 71.8388 21.222 73.4295 20.8023 74.9314L18.3724 83.6255C17.3175 87.3998 20.9242 90.8525 24.8665 89.8427L33.948 87.5166C35.5169 87.1147 37.1784 87.3455 38.6321 88.0386C44.1022 90.6469 50.2707 92.114 56.7967 92.114Z" fill="#F6CB78"/>
<path opacity="0.5" d="M56.7967 92.114C79.328 92.114 97.5934 74.6275 97.5934 53.057C97.5934 31.4864 79.328 14 56.7967 14C34.2653 14 16 31.4864 16 53.057C16 59.3047 17.5324 65.2101 20.257 70.447C20.981 71.8388 21.222 73.4295 20.8023 74.9314L18.3724 83.6255C17.3175 87.3998 20.9242 90.8525 24.8665 89.8427L33.948 87.5166C35.5169 87.1147 37.1784 87.3455 38.6321 88.0386C44.1022 90.6469 50.2707 92.114 56.7967 92.114Z" fill="#F6CB78"/>
<path opacity="0.5" d="M56.7967 92.114C79.328 92.114 97.5934 74.6275 97.5934 53.057C97.5934 31.4864 79.328 14 56.7967 14C34.2653 14 16 31.4864 16 53.057C16 59.3047 17.5324 65.2101 20.257 70.447C20.981 71.8388 21.222 73.4295 20.8023 74.9314L18.3724 83.6255C17.3175 87.3998 20.9242 90.8525 24.8665 89.8427L33.948 87.5166C35.5169 87.1147 37.1784 87.3455 38.6321 88.0386C44.1022 90.6469 50.2707 92.114 56.7967 92.114Z" fill="#F6CB78"/>
<g opacity="0.5">
<path d="M56.7967 92.114C79.328 92.114 97.5934 74.6275 97.5934 53.057C97.5934 31.4864 79.328 14 56.7967 14C34.2653 14 16 31.4864 16 53.057C16 59.3047 17.5324 65.2101 20.257 70.447C20.981 71.8388 21.222 73.4295 20.8023 74.9314L18.3724 83.6255C17.3175 87.3998 20.9242 90.8525 24.8665 89.8427L33.948 87.5166C35.5169 87.1147 37.1784 87.3455 38.6321 88.0386C44.1022 90.6469 50.2707 92.114 56.7967 92.114Z" fill="#F6CB78"/>
<path d="M56.7967 92.114C79.328 92.114 97.5934 74.6275 97.5934 53.057C97.5934 31.4864 79.328 14 56.7967 14C34.2653 14 16 31.4864 16 53.057C16 59.3047 17.5324 65.2101 20.257 70.447C20.981 71.8388 21.222 73.4295 20.8023 74.9314L18.3724 83.6255C17.3175 87.3998 20.9242 90.8525 24.8665 89.8427L33.948 87.5166C35.5169 87.1147 37.1784 87.3455 38.6321 88.0386C44.1022 90.6469 50.2707 92.114 56.7967 92.114Z" fill="url(#paint0_linear_512_25582)"/>
</g>
<g opacity="0.5">
<path d="M110.203 135C87.672 135 69.4066 117.513 69.4066 95.9427C69.4066 74.3722 87.672 56.8857 110.203 56.8857C132.735 56.8857 151 74.3722 151 95.9427C151 102.19 149.468 108.096 146.743 113.333C146.019 114.725 145.778 116.315 146.198 117.817L148.628 126.511C149.682 130.286 146.076 133.738 142.133 132.728L133.052 130.402C131.483 130 129.822 130.231 128.368 130.924C122.898 133.533 116.729 135 110.203 135Z" fill="#F6CB78"/>
<path d="M110.203 135C87.672 135 69.4066 117.513 69.4066 95.9427C69.4066 74.3722 87.672 56.8857 110.203 56.8857C132.735 56.8857 151 74.3722 151 95.9427C151 102.19 149.468 108.096 146.743 113.333C146.019 114.725 145.778 116.315 146.198 117.817L148.628 126.511C149.682 130.286 146.076 133.738 142.133 132.728L133.052 130.402C131.483 130 129.822 130.231 128.368 130.924C122.898 133.533 116.729 135 110.203 135Z" fill="url(#paint1_linear_512_25582)"/>
</g>
<path d="M114.283 102.072C114.283 104.398 112.457 106.284 110.204 106.284C107.95 106.284 106.124 104.398 106.124 102.072C106.124 99.7457 107.95 97.8599 110.204 97.8599C112.457 97.8599 114.283 99.7457 114.283 102.072Z" fill="white"/>
<path d="M130.602 102.072C130.602 104.398 128.775 106.284 126.522 106.284C124.269 106.284 122.442 104.398 122.442 102.072C122.442 99.7457 124.269 97.8599 126.522 97.8599C128.775 97.8599 130.602 99.7457 130.602 102.072Z" fill="white"/>
<path opacity="0.5" d="M56.7967 92.114C79.328 92.114 97.5934 74.6275 97.5934 53.057C97.5934 31.4864 79.328 14 56.7967 14C34.2653 14 16 31.4864 16 53.057C16 59.3047 17.5324 65.2101 20.257 70.447C20.981 71.8388 21.222 73.4295 20.8023 74.9314L18.3724 83.6255C17.3175 87.3998 20.9242 90.8525 24.8665 89.8427L33.948 87.5166C35.5169 87.1147 37.1784 87.3455 38.6321 88.0386C44.1022 90.6469 50.2707 92.114 56.7967 92.114Z" fill="#F6CB78"/>
<path d="M97.9644 102.072C97.9644 104.398 96.1378 106.284 93.8847 106.284C91.6316 106.284 89.805 104.398 89.805 102.072C89.805 99.7457 91.6316 97.8599 93.8847 97.8599C96.1378 97.8599 97.9644 99.7457 97.9644 102.072Z" fill="white"/>
<path d="M56.8894 39.6548C54.5851 39.6548 52.717 41.5835 52.717 43.9626C52.717 45.5486 51.4716 46.8344 49.9354 46.8344C48.3992 46.8344 47.1538 45.5486 47.1538 43.9626C47.1538 38.4113 51.5128 33.9111 56.8894 33.9111C62.266 33.9111 66.625 38.4113 66.625 43.9626C66.625 46.6845 65.5735 49.1587 63.873 50.966C63.5307 51.3294 63.2043 51.6664 62.8928 51.9876C62.0924 52.8132 61.3911 53.5365 60.7758 54.3529C59.9636 55.4304 59.671 56.2226 59.671 56.8858V59.7577C59.671 61.3437 58.4256 62.6295 56.8894 62.6295C55.3532 62.6295 54.1078 61.3437 54.1078 59.7577V56.8858C54.1078 54.377 55.239 52.346 56.3857 50.8251C57.2339 49.6997 58.3002 48.6008 59.1658 47.7092C59.4269 47.4402 59.6695 47.1901 59.8824 46.9637C60.6152 46.1851 61.0618 45.1306 61.0618 43.9626C61.0618 41.5835 59.1937 39.6548 56.8894 39.6548Z" fill="white"/>
<path d="M56.8895 75.0747C58.9378 75.0747 60.5982 73.3604 60.5982 71.2456C60.5982 69.1308 58.9378 67.4165 56.8895 67.4165C54.8411 67.4165 53.1807 69.1308 53.1807 71.2456C53.1807 73.3604 54.8411 75.0747 56.8895 75.0747Z" fill="white"/>
</g>
<defs>
<filter id="filter0_d_512_25582" x="0" y="0" width="171" height="157" filterUnits="userSpaceOnUse" color-interpolation-filters="sRGB">
<feFlood flood-opacity="0" result="BackgroundImageFix"/>
<feColorMatrix in="SourceAlpha" type="matrix" values="0 0 0 0 0 0 0 0 0 0 0 0 0 0 0 0 0 0 127 0" result="hardAlpha"/>
<feOffset dx="2" dy="4"/>
<feGaussianBlur stdDeviation="4"/>
<feComposite in2="hardAlpha" operator="out"/>
<feColorMatrix type="matrix" values="0 0 0 0 0 0 0 0 0 0 0 0 0 0 0 0 0 0 0.25 0"/>
<feBlend mode="normal" in2="BackgroundImageFix" result="effect1_dropShadow_512_25582"/>
<feBlend mode="normal" in="SourceGraphic" in2="effect1_dropShadow_512_25582" result="shape"/>
</filter>
<linearGradient id="paint0_linear_512_25582" x1="-131" y1="378.5" x2="353" y2="-200" gradientUnits="userSpaceOnUse">
<stop offset="0.48" stop-color="#F8F5E3" stop-opacity="0"/>
<stop offset="0.5" stop-color="#F8F5E3"/>
<stop offset="0.51" stop-color="#F8F5E3" stop-opacity="0"/>
<stop offset="0.69" stop-color="#F8F5E3" stop-opacity="0"/>
<stop offset="0.9" stop-color="#F8F5E3" stop-opacity="0"/>
<stop offset="1" stop-color="#F8F5E3" stop-opacity="0"/>
</linearGradient>
<linearGradient id="paint1_linear_512_25582" x1="-154" y1="594.5" x2="525.5" y2="-295.5" gradientUnits="userSpaceOnUse">
<stop offset="0.48" stop-color="#F8F5E3" stop-opacity="0"/>
<stop offset="0.5" stop-color="#F8F5E3" stop-opacity="0.6"/>
<stop offset="0.51" stop-color="#F8F5E3" stop-opacity="0"/>
<stop offset="0.69" stop-color="#F8F5E3" stop-opacity="0"/>
<stop offset="0.9" stop-color="#F8F5E3" stop-opacity="0"/>
<stop offset="1" stop-color="#F8F5E3" stop-opacity="0"/>
</linearGradient>
</defs>
</svg>
