<svg width="273" height="489" viewBox="0 0 273 489" fill="none" xmlns="http://www.w3.org/2000/svg">
<mask id="mask0_512_25627" style="mask-type:luminance" maskUnits="userSpaceOnUse" x="0" y="23" width="411" height="466">
<path d="M410.301 23.2271H0V488.993H410.301V23.2271Z" fill="white"/>
</mask>
<g mask="url(#mask0_512_25627)">
<mask id="mask1_512_25627" style="mask-type:luminance" maskUnits="userSpaceOnUse" x="-8" y="-40" width="472" height="523">
<path d="M93.1278 -39.8329L-7.40479 363.468L362.673 482.346L463.206 79.045L93.1278 -39.8329Z" fill="white"/>
</mask>
<g mask="url(#mask1_512_25627)">
<mask id="mask2_512_25627" style="mask-type:luminance" maskUnits="userSpaceOnUse" x="-8" y="-40" width="472" height="523">
<path d="M93.1278 -39.8329L-7.40479 363.468L362.673 482.346L463.206 79.045L93.1278 -39.8329Z" fill="white"/>
</mask>
<g mask="url(#mask2_512_25627)">
<path d="M349.379 482.706L391.993 312.257L369.071 152.636L277.995 32.6577L144.921 80.5092L51.6914 202.932L8.92285 373.207L349.379 482.706Z" fill="#FFE3AC" fill-opacity="0.2"/>
</g>
</g>
</g>
<mask id="mask3_512_25627" style="mask-type:luminance" maskUnits="userSpaceOnUse" x="164" y="46" width="185" height="94">
<path d="M348.763 46.6294H164.151V139.713H348.763V46.6294Z" fill="white"/>
</mask>
<g mask="url(#mask3_512_25627)">
<mask id="mask4_512_25627" style="mask-type:luminance" maskUnits="userSpaceOnUse" x="-8" y="-40" width="472" height="523">
<path d="M93.1278 -39.8314L-7.40479 363.47L362.673 482.348L463.206 79.0465L93.1278 -39.8314Z" fill="white"/>
</mask>
<g mask="url(#mask4_512_25627)">
<mask id="mask5_512_25627" style="mask-type:luminance" maskUnits="userSpaceOnUse" x="-8" y="-40" width="472" height="523">
<path d="M93.1278 -39.8314L-7.40479 363.47L362.673 482.348L463.206 79.0465L93.1278 -39.8314Z" fill="white"/>
</mask>
<g mask="url(#mask5_512_25627)">
<path d="M178.151 67.4111L346.456 121.375L345.841 123.296L177.536 69.3322L178.151 67.4111Z" fill="white" fill-opacity="0.2"/>
</g>
</g>
</g>
<mask id="mask6_512_25627" style="mask-type:luminance" maskUnits="userSpaceOnUse" x="205" y="46" width="124" height="48">
<path d="M328.149 46.6294H205.074V93.2584H328.149V46.6294Z" fill="white"/>
</mask>
<g mask="url(#mask6_512_25627)">
<mask id="mask7_512_25627" style="mask-type:luminance" maskUnits="userSpaceOnUse" x="-8" y="-40" width="472" height="523">
<path d="M93.1283 -39.8314L-7.4043 363.47L362.673 482.348L463.206 79.0465L93.1283 -39.8314Z" fill="white"/>
</mask>
<g mask="url(#mask7_512_25627)">
<mask id="mask8_512_25627" style="mask-type:luminance" maskUnits="userSpaceOnUse" x="-8" y="-40" width="472" height="523">
<path d="M93.1283 -39.8314L-7.4043 363.47L362.673 482.348L463.206 79.0465L93.1283 -39.8314Z" fill="white"/>
</mask>
<g mask="url(#mask8_512_25627)">
<path d="M220.458 52.2173L317.533 83.4779L317.072 85.399L219.997 54.1383L220.458 52.2173Z" fill="white" fill-opacity="0.2"/>
</g>
</g>
</g>
<mask id="mask9_512_25627" style="mask-type:luminance" maskUnits="userSpaceOnUse" x="123" y="69" width="267" height="118">
<path d="M389.686 69.8564H123.075V186.342H389.686V69.8564Z" fill="white"/>
</mask>
<g mask="url(#mask9_512_25627)">
<mask id="mask10_512_25627" style="mask-type:luminance" maskUnits="userSpaceOnUse" x="-8" y="-40" width="472" height="523">
<path d="M93.1278 -39.8319L-7.40479 363.469L362.673 482.347L463.206 79.046L93.1278 -39.8319Z" fill="white"/>
</mask>
<g mask="url(#mask10_512_25627)">
<mask id="mask11_512_25627" style="mask-type:luminance" maskUnits="userSpaceOnUse" x="-8" y="-40" width="472" height="523">
<path d="M93.1278 -39.8319L-7.40479 363.469L362.673 482.347L463.206 79.046L93.1278 -39.8319Z" fill="white"/>
</mask>
<g mask="url(#mask11_512_25627)">
<path d="M138.613 87.6694L370.763 162.241L370.301 164.162L138.151 89.5905L138.613 87.6694Z" fill="white" fill-opacity="0.2"/>
</g>
</g>
</g>
<mask id="mask12_512_25627" style="mask-type:luminance" maskUnits="userSpaceOnUse" x="102" y="93" width="288" height="117">
<path d="M389.84 93.0825H102.614V209.568H389.84V93.0825Z" fill="white"/>
</mask>
<g mask="url(#mask12_512_25627)">
<mask id="mask13_512_25627" style="mask-type:luminance" maskUnits="userSpaceOnUse" x="-8" y="-40" width="472" height="523">
<path d="M93.1283 -39.8319L-7.4043 363.469L362.673 482.347L463.206 79.046L93.1283 -39.8319Z" fill="white"/>
</mask>
<g mask="url(#mask13_512_25627)">
<mask id="mask14_512_25627" style="mask-type:luminance" maskUnits="userSpaceOnUse" x="-8" y="-40" width="472" height="523">
<path d="M93.1283 -39.8319L-7.4043 363.469L362.673 482.347L463.206 79.046L93.1283 -39.8319Z" fill="white"/>
</mask>
<g mask="url(#mask14_512_25627)">
<path d="M118.46 114.215L375.687 196.82L375.225 198.741L117.999 116.136L118.46 114.215Z" fill="white" fill-opacity="0.2"/>
</g>
</g>
</g>
<mask id="mask15_512_25627" style="mask-type:luminance" maskUnits="userSpaceOnUse" x="81" y="139" width="309" height="118">
<path d="M389.686 139.712H81.9985V256.197H389.686V139.712Z" fill="white"/>
</mask>
<g mask="url(#mask15_512_25627)">
<mask id="mask16_512_25627" style="mask-type:luminance" maskUnits="userSpaceOnUse" x="-8" y="-40" width="472" height="523">
<path d="M93.1278 -39.8319L-7.40479 363.469L362.673 482.347L463.206 79.046L93.1278 -39.8319Z" fill="white"/>
</mask>
<g mask="url(#mask16_512_25627)">
<mask id="mask17_512_25627" style="mask-type:luminance" maskUnits="userSpaceOnUse" x="-8" y="-40" width="472" height="523">
<path d="M93.1278 -39.8319L-7.40479 363.469L362.673 482.347L463.206 79.046L93.1278 -39.8319Z" fill="white"/>
</mask>
<g mask="url(#mask17_512_25627)">
<path d="M98.3063 140.585L380.763 231.398L380.302 233.32L97.6909 142.681L98.1525 140.76L98.3063 140.585Z" fill="white" fill-opacity="0.2"/>
</g>
</g>
</g>
<mask id="mask18_512_25627" style="mask-type:luminance" maskUnits="userSpaceOnUse" x="61" y="162" width="329" height="118">
<path d="M389.686 162.94H61.5376V279.426H389.686V162.94Z" fill="white"/>
</mask>
<g mask="url(#mask18_512_25627)">
<mask id="mask19_512_25627" style="mask-type:luminance" maskUnits="userSpaceOnUse" x="-8" y="-40" width="472" height="523">
<path d="M93.1278 -39.8314L-7.40479 363.47L362.673 482.348L463.206 79.0465L93.1278 -39.8314Z" fill="white"/>
</mask>
<g mask="url(#mask19_512_25627)">
<mask id="mask20_512_25627" style="mask-type:luminance" maskUnits="userSpaceOnUse" x="-8" y="-40" width="472" height="523">
<path d="M93.1278 -39.8314L-7.40479 363.47L362.673 482.348L463.206 79.0465L93.1278 -39.8314Z" fill="white"/>
</mask>
<g mask="url(#mask20_512_25627)">
<path d="M78.1524 167.131L385.686 265.978L385.224 267.899L77.6909 169.052L78.1524 167.131Z" fill="white" fill-opacity="0.2"/>
</g>
</g>
</g>
<mask id="mask21_512_25627" style="mask-type:luminance" maskUnits="userSpaceOnUse" x="41" y="186" width="370" height="117">
<path d="M410.301 186.341H41.0762V302.826H410.301V186.341Z" fill="white"/>
</mask>
<g mask="url(#mask21_512_25627)">
<mask id="mask22_512_25627" style="mask-type:luminance" maskUnits="userSpaceOnUse" x="-8" y="-40" width="472" height="523">
<path d="M93.1278 -39.8319L-7.40479 363.469L362.673 482.347L463.206 79.046L93.1278 -39.8319Z" fill="white"/>
</mask>
<g mask="url(#mask22_512_25627)">
<mask id="mask23_512_25627" style="mask-type:luminance" maskUnits="userSpaceOnUse" x="-8" y="-40" width="472" height="523">
<path d="M93.1278 -39.8319L-7.40479 363.469L362.673 482.347L463.206 79.046L93.1278 -39.8319Z" fill="white"/>
</mask>
<g mask="url(#mask23_512_25627)">
<path d="M57.9992 193.501L390.763 300.556L390.301 302.477L57.3838 195.597L57.8453 193.676L57.9992 193.501Z" fill="white" fill-opacity="0.2"/>
</g>
</g>
</g>
<mask id="mask24_512_25627" style="mask-type:luminance" maskUnits="userSpaceOnUse" x="41" y="209" width="349" height="141">
<path d="M389.84 209.568H41.0762V349.28H389.84V209.568Z" fill="white"/>
</mask>
<g mask="url(#mask24_512_25627)">
<mask id="mask25_512_25627" style="mask-type:luminance" maskUnits="userSpaceOnUse" x="-8" y="-40" width="472" height="523">
<path d="M93.1278 -39.8319L-7.40479 363.469L362.673 482.347L463.206 79.046L93.1278 -39.8319Z" fill="white"/>
</mask>
<g mask="url(#mask25_512_25627)">
<mask id="mask26_512_25627" style="mask-type:luminance" maskUnits="userSpaceOnUse" x="-8" y="-40" width="472" height="523">
<path d="M93.1278 -39.8319L-7.40479 363.469L362.673 482.347L463.206 79.046L93.1278 -39.8319Z" fill="white"/>
</mask>
<g mask="url(#mask26_512_25627)">
<path d="M46.4606 222.841L386.917 332.34L386.455 334.261L45.8452 224.937L46.3067 223.015L46.4606 222.841Z" fill="white" fill-opacity="0.2"/>
</g>
</g>
</g>
<mask id="mask27_512_25627" style="mask-type:luminance" maskUnits="userSpaceOnUse" x="20" y="232" width="370" height="141">
<path d="M389.686 232.796H20.4609V372.508H389.686V232.796Z" fill="white"/>
</mask>
<g mask="url(#mask27_512_25627)">
<mask id="mask28_512_25627" style="mask-type:luminance" maskUnits="userSpaceOnUse" x="-8" y="-40" width="472" height="523">
<path d="M93.1273 -39.8319L-7.40527 363.469L362.672 482.347L463.205 79.046L93.1273 -39.8319Z" fill="white"/>
</mask>
<g mask="url(#mask28_512_25627)">
<mask id="mask29_512_25627" style="mask-type:luminance" maskUnits="userSpaceOnUse" x="-8" y="-40" width="472" height="523">
<path d="M93.1273 -39.8319L-7.40527 363.469L362.672 482.347L463.205 79.046L93.1273 -39.8319Z" fill="white"/>
</mask>
<g mask="url(#mask29_512_25627)">
<path d="M38.7682 253.403L379.378 362.903L378.763 364.824L38.3066 255.324L38.7682 253.403Z" fill="white" fill-opacity="0.2"/>
</g>
</g>
</g>
<mask id="mask30_512_25627" style="mask-type:luminance" maskUnits="userSpaceOnUse" x="20" y="279" width="370" height="117">
<path d="M389.686 279.425H20.4609V395.91H389.686V279.425Z" fill="white"/>
</mask>
<g mask="url(#mask30_512_25627)">
<mask id="mask31_512_25627" style="mask-type:luminance" maskUnits="userSpaceOnUse" x="-8" y="-40" width="472" height="523">
<path d="M93.1273 -39.8319L-7.40527 363.469L362.672 482.347L463.205 79.046L93.1273 -39.8319Z" fill="white"/>
</mask>
<g mask="url(#mask31_512_25627)">
<mask id="mask32_512_25627" style="mask-type:luminance" maskUnits="userSpaceOnUse" x="-8" y="-40" width="472" height="523">
<path d="M93.1273 -39.8319L-7.40527 363.469L362.672 482.347L463.205 79.046L93.1273 -39.8319Z" fill="white"/>
</mask>
<g mask="url(#mask32_512_25627)">
<path d="M31.2296 283.966L371.839 393.465L371.224 395.386L30.6143 285.887L31.0758 283.966H31.2296Z" fill="white" fill-opacity="0.2"/>
</g>
</g>
</g>
<mask id="mask33_512_25627" style="mask-type:luminance" maskUnits="userSpaceOnUse" x="20" y="302" width="350" height="141">
<path d="M369.224 302.652H20.4609V442.364H369.224V302.652Z" fill="white"/>
</mask>
<g mask="url(#mask33_512_25627)">
<mask id="mask34_512_25627" style="mask-type:luminance" maskUnits="userSpaceOnUse" x="-8" y="-40" width="472" height="523">
<path d="M93.1273 -39.8319L-7.40527 363.469L362.672 482.347L463.205 79.046L93.1273 -39.8319Z" fill="white"/>
</mask>
<g mask="url(#mask34_512_25627)">
<mask id="mask35_512_25627" style="mask-type:luminance" maskUnits="userSpaceOnUse" x="-8" y="-40" width="472" height="523">
<path d="M93.1273 -39.8319L-7.40527 363.469L362.672 482.347L463.205 79.046L93.1273 -39.8319Z" fill="white"/>
</mask>
<g mask="url(#mask35_512_25627)">
<path d="M23.6915 314.354L364.147 423.853L363.532 425.774L23.0762 316.275L23.6915 314.354Z" fill="white" fill-opacity="0.2"/>
</g>
</g>
</g>
<mask id="mask36_512_25627" style="mask-type:luminance" maskUnits="userSpaceOnUse" x="0" y="326" width="370" height="140">
<path d="M369.225 326.053H0V465.765H369.225V326.053Z" fill="white"/>
</mask>
<g mask="url(#mask36_512_25627)">
<mask id="mask37_512_25627" style="mask-type:luminance" maskUnits="userSpaceOnUse" x="-8" y="-40" width="472" height="523">
<path d="M93.1278 -39.8319L-7.40479 363.469L362.673 482.347L463.206 79.046L93.1278 -39.8319Z" fill="white"/>
</mask>
<g mask="url(#mask37_512_25627)">
<mask id="mask38_512_25627" style="mask-type:luminance" maskUnits="userSpaceOnUse" x="-8" y="-40" width="472" height="523">
<path d="M93.1278 -39.8319L-7.40479 363.469L362.673 482.347L463.206 79.046L93.1278 -39.8319Z" fill="white"/>
</mask>
<g mask="url(#mask38_512_25627)">
<path d="M15.9996 344.915L356.456 454.415L355.84 456.336L15.5381 346.836L16.1535 344.915H15.9996Z" fill="white" fill-opacity="0.2"/>
</g>
</g>
</g>
<mask id="mask39_512_25627" style="mask-type:luminance" maskUnits="userSpaceOnUse" x="20" y="0" width="411" height="327">
<path d="M430.762 0H20.4609V326.054H430.762V0Z" fill="white"/>
</mask>
<g mask="url(#mask39_512_25627)">
<mask id="mask40_512_25627" style="mask-type:luminance" maskUnits="userSpaceOnUse" x="-8" y="-40" width="472" height="523">
<path d="M93.1273 -39.8324L-7.40527 363.469L362.672 482.347L463.205 79.0455L93.1273 -39.8324Z" fill="white"/>
</mask>
<g mask="url(#mask40_512_25627)">
<mask id="mask41_512_25627" style="mask-type:luminance" maskUnits="userSpaceOnUse" x="-8" y="-40" width="472" height="523">
<path d="M93.1273 -39.8324L-7.40527 363.469L362.672 482.347L463.205 79.0455L93.1273 -39.8324Z" fill="white"/>
</mask>
<g mask="url(#mask41_512_25627)">
<path d="M51.5369 208.52L35.2295 191.93L133.382 67.935L277.687 19.5596L283.995 21.6553L384.608 148.619L410.762 312.606L389.224 317.147L364.147 160.145L274.456 46.8035L145.689 89.9397L51.8446 208.695L51.5369 208.52Z" fill="#F6CB78" fill-opacity="0.2"/>
</g>
</g>
</g>
<mask id="mask42_512_25627" style="mask-type:luminance" maskUnits="userSpaceOnUse" x="184" y="116" width="104" height="117">
<path d="M287.226 116.485H184.612V232.97H287.226V116.485Z" fill="white"/>
</mask>
<g mask="url(#mask42_512_25627)">
<mask id="mask43_512_25627" style="mask-type:luminance" maskUnits="userSpaceOnUse" x="-8" y="-40" width="472" height="523">
<path d="M93.1283 -39.8324L-7.4043 363.469L362.673 482.347L463.206 79.0455L93.1283 -39.8324Z" fill="white"/>
</mask>
<g mask="url(#mask43_512_25627)">
<mask id="mask44_512_25627" style="mask-type:luminance" maskUnits="userSpaceOnUse" x="-8" y="-40" width="472" height="523">
<path d="M93.1283 -39.8324L-7.4043 363.469L362.673 482.347L463.206 79.0455L93.1283 -39.8324Z" fill="white"/>
</mask>
<g mask="url(#mask44_512_25627)">
<path d="M221.689 128.186L281.535 147.396L264.612 215.331L204.767 196.121L221.689 128.186Z" fill="#FFE3AC" fill-opacity="0.2"/>
<path d="M266.612 219.522L200.92 198.39L219.535 123.819L285.227 144.95L266.612 219.522ZM208.459 193.675L262.458 210.964L277.688 149.666L223.689 132.376L208.459 193.675Z" fill="#F6CB78" fill-opacity="0.2"/>
</g>
</g>
</g>
<mask id="mask45_512_25627" style="mask-type:luminance" maskUnits="userSpaceOnUse" x="81" y="209" width="248" height="257">
<path d="M328.148 209.568H81.9985V465.765H328.148V209.568Z" fill="white"/>
</mask>
<g mask="url(#mask45_512_25627)">
<mask id="mask46_512_25627" style="mask-type:luminance" maskUnits="userSpaceOnUse" x="-8" y="-40" width="472" height="523">
<path d="M93.1278 -39.8319L-7.40479 363.469L362.673 482.347L463.206 79.046L93.1278 -39.8319Z" fill="white"/>
</mask>
<g mask="url(#mask46_512_25627)">
<mask id="mask47_512_25627" style="mask-type:luminance" maskUnits="userSpaceOnUse" x="-8" y="-40" width="472" height="523">
<path d="M93.1278 -39.8319L-7.40479 363.469L362.673 482.347L463.206 79.046L93.1278 -39.8319Z" fill="white"/>
</mask>
<g mask="url(#mask47_512_25627)">
<path d="M135.69 221.967L314.302 279.424L269.995 457.208L91.3828 399.751L135.69 221.967Z" fill="#FFE3AC" fill-opacity="0.2"/>
</g>
</g>
</g>
<mask id="mask48_512_25627" style="mask-type:luminance" maskUnits="userSpaceOnUse" x="81" y="209" width="166" height="234">
<path d="M246.15 209.568H81.9985V442.364H246.15V209.568Z" fill="white"/>
</mask>
<g mask="url(#mask48_512_25627)">
<mask id="mask49_512_25627" style="mask-type:luminance" maskUnits="userSpaceOnUse" x="-8" y="-40" width="472" height="523">
<path d="M93.1278 -39.8319L-7.40479 363.469L362.673 482.347L463.206 79.046L93.1278 -39.8319Z" fill="white"/>
</mask>
<g mask="url(#mask49_512_25627)">
<mask id="mask50_512_25627" style="mask-type:luminance" maskUnits="userSpaceOnUse" x="-8" y="-40" width="472" height="523">
<path d="M93.1278 -39.8319L-7.40479 363.469L362.673 482.347L463.206 79.046L93.1278 -39.8319Z" fill="white"/>
</mask>
<g mask="url(#mask50_512_25627)">
<path d="M182.612 429.092L88.1523 398.704L133.382 217.253L227.996 247.64L182.766 429.092H182.612ZM97.2291 393.116L177.535 418.788L218.766 253.404L138.613 227.557L97.2291 393.116Z" fill="#F6CB78" fill-opacity="0.2"/>
</g>
</g>
</g>
<mask id="mask51_512_25627" style="mask-type:luminance" maskUnits="userSpaceOnUse" x="123" y="209" width="62" height="234">
<path d="M184.612 209.568H123.075V442.364H184.612V209.568Z" fill="white"/>
</mask>
<g mask="url(#mask51_512_25627)">
<mask id="mask52_512_25627" style="mask-type:luminance" maskUnits="userSpaceOnUse" x="-8" y="-40" width="472" height="523">
<path d="M93.1278 -39.8319L-7.40479 363.469L362.673 482.347L463.206 79.046L93.1278 -39.8319Z" fill="white"/>
</mask>
<g mask="url(#mask52_512_25627)">
<mask id="mask53_512_25627" style="mask-type:luminance" maskUnits="userSpaceOnUse" x="-8" y="-40" width="472" height="523">
<path d="M93.1278 -39.8319L-7.40479 363.469L362.673 482.347L463.206 79.046L93.1278 -39.8319Z" fill="white"/>
</mask>
<g mask="url(#mask53_512_25627)">
<path d="M175.843 424.9L134.921 225.46L143.536 223.19L184.459 422.804L175.843 424.9Z" fill="#F6CB78" fill-opacity="0.2"/>
</g>
</g>
</g>
<mask id="mask54_512_25627" style="mask-type:luminance" maskUnits="userSpaceOnUse" x="81" y="232" width="166" height="188">
<path d="M246.15 232.796H81.9985V419.137H246.15V232.796Z" fill="white"/>
</mask>
<g mask="url(#mask54_512_25627)">
<mask id="mask55_512_25627" style="mask-type:luminance" maskUnits="userSpaceOnUse" x="-8" y="-40" width="472" height="523">
<path d="M93.1278 -39.8319L-7.40479 363.469L362.673 482.347L463.206 79.046L93.1278 -39.8319Z" fill="white"/>
</mask>
<g mask="url(#mask55_512_25627)">
<mask id="mask56_512_25627" style="mask-type:luminance" maskUnits="userSpaceOnUse" x="-8" y="-40" width="472" height="523">
<path d="M93.1278 -39.8319L-7.40479 363.469L362.673 482.347L463.206 79.046L93.1278 -39.8319Z" fill="white"/>
</mask>
<g mask="url(#mask56_512_25627)">
<path d="M99.229 400.451L92.9214 393.465L219.996 247.99L226.304 254.975L99.229 400.451Z" fill="#F6CB78" fill-opacity="0.2"/>
</g>
</g>
</g>
<mask id="mask57_512_25627" style="mask-type:luminance" maskUnits="userSpaceOnUse" x="164" y="232" width="165" height="234">
<path d="M328.302 232.796H164.151V465.592H328.302V232.796Z" fill="white"/>
</mask>
<g mask="url(#mask57_512_25627)">
<mask id="mask58_512_25627" style="mask-type:luminance" maskUnits="userSpaceOnUse" x="-8" y="-40" width="472" height="523">
<path d="M93.1278 -39.8319L-7.40479 363.469L362.673 482.347L463.206 79.046L93.1278 -39.8319Z" fill="white"/>
</mask>
<g mask="url(#mask58_512_25627)">
<mask id="mask59_512_25627" style="mask-type:luminance" maskUnits="userSpaceOnUse" x="-8" y="-40" width="472" height="523">
<path d="M93.1278 -39.8319L-7.40479 363.469L362.673 482.347L463.206 79.046L93.1278 -39.8319Z" fill="white"/>
</mask>
<g mask="url(#mask59_512_25627)">
<path d="M269.996 457.209L175.382 426.822L220.612 245.371L315.226 275.758L269.996 457.209ZM184.612 421.059L264.919 446.906L306.149 281.521L225.843 255.674L184.612 421.059Z" fill="#F6CB78" fill-opacity="0.2"/>
</g>
</g>
</g>
<mask id="mask60_512_25627" style="mask-type:luminance" maskUnits="userSpaceOnUse" x="205" y="232" width="83" height="234">
<path d="M287.072 232.796H205.074V465.592H287.072V232.796Z" fill="white"/>
</mask>
<g mask="url(#mask60_512_25627)">
<mask id="mask61_512_25627" style="mask-type:luminance" maskUnits="userSpaceOnUse" x="-8" y="-40" width="472" height="523">
<path d="M93.1283 -39.8319L-7.4043 363.469L362.673 482.347L463.206 79.046L93.1283 -39.8319Z" fill="white"/>
</mask>
<g mask="url(#mask61_512_25627)">
<mask id="mask62_512_25627" style="mask-type:luminance" maskUnits="userSpaceOnUse" x="-8" y="-40" width="472" height="523">
<path d="M93.1283 -39.8319L-7.4043 363.469L362.673 482.347L463.206 79.046L93.1283 -39.8319Z" fill="white"/>
</mask>
<g mask="url(#mask62_512_25627)">
<path d="M263.227 453.017L222.304 253.578L230.919 251.308L271.842 450.922L263.38 453.017H263.227Z" fill="#F6CB78" fill-opacity="0.2"/>
</g>
</g>
</g>
<mask id="mask63_512_25627" style="mask-type:luminance" maskUnits="userSpaceOnUse" x="164" y="256" width="165" height="187">
<path d="M328.302 256.197H164.151V442.539H328.302V256.197Z" fill="white"/>
</mask>
<g mask="url(#mask63_512_25627)">
<mask id="mask64_512_25627" style="mask-type:luminance" maskUnits="userSpaceOnUse" x="-8" y="-40" width="472" height="523">
<path d="M93.1278 -39.8319L-7.40479 363.469L362.673 482.347L463.206 79.046L93.1278 -39.8319Z" fill="white"/>
</mask>
<g mask="url(#mask64_512_25627)">
<mask id="mask65_512_25627" style="mask-type:luminance" maskUnits="userSpaceOnUse" x="-8" y="-40" width="472" height="523">
<path d="M93.1278 -39.8319L-7.40479 363.469L362.673 482.347L463.206 79.046L93.1278 -39.8319Z" fill="white"/>
</mask>
<g mask="url(#mask65_512_25627)">
<path d="M186.766 428.568L180.458 421.582L307.533 275.932L313.841 282.918L186.92 428.393L186.766 428.568Z" fill="#F6CB78" fill-opacity="0.2"/>
</g>
</g>
</g>
</svg>
