<svg width="357" height="702" viewBox="0 0 357 702" fill="none" xmlns="http://www.w3.org/2000/svg">
<mask id="mask0_512_26622" style="mask-type:luminance" maskUnits="userSpaceOnUse" x="-199" y="0" width="556" height="702">
<path d="M-6.27024 -4.06541e-05L356.262 169.09L164.305 701.89L-198.227 532.8L-6.27024 -4.06541e-05Z" fill="white"/>
</mask>
<g mask="url(#mask0_512_26622)">
<mask id="mask1_512_26622" style="mask-type:luminance" maskUnits="userSpaceOnUse" x="-199" y="0" width="556" height="702">
<path d="M-6.27024 -4.06541e-05L356.262 169.09L164.305 701.89L-198.227 532.8L-6.27024 -4.06541e-05Z" fill="white"/>
</mask>
<g mask="url(#mask1_512_26622)">
<path d="M112.91 414.88L94.136 512.956L-34.8347 452.773L12.1824 368.256L83.0347 334.45L112.91 414.88Z" fill="#FFE3AC" fill-opacity="0.3"/>
</g>
</g>
<mask id="mask2_512_26622" style="mask-type:luminance" maskUnits="userSpaceOnUse" x="-199" y="0" width="556" height="702">
<path d="M-6.27024 -4.06541e-05L356.262 169.09L164.305 701.89L-198.227 532.8L-6.27024 -4.06541e-05Z" fill="white"/>
</mask>
<g mask="url(#mask2_512_26622)">
<mask id="mask3_512_26622" style="mask-type:luminance" maskUnits="userSpaceOnUse" x="-199" y="0" width="556" height="702">
<path d="M-6.27024 -4.06541e-05L356.262 169.09L164.305 701.89L-198.227 532.8L-6.27024 -4.06541e-05Z" fill="white"/>
</mask>
<g mask="url(#mask3_512_26622)">
<path d="M39.2827 267.764L46.1393 286.339L61.4852 279.095L71.9335 274.08C71.1172 267.393 71.607 260.149 74.219 253.276C76.6678 246.217 80.7492 240.645 85.6468 236.372L74.8721 207.21L58.5467 215.011L-3.00009 47.8353L46.1393 24.4307L107.523 191.421L91.1975 199.222L101.972 228.571C107.849 227.642 114.216 228.199 120.093 231.171C126.134 233.958 131.031 238.601 134.786 243.988L160.417 231.729L153.56 213.154L300.489 143.497L321.059 199.222L174.13 269.25L167.274 250.675L141.643 262.935C142.459 269.808 141.969 277.052 139.521 283.925C137.072 290.797 132.99 296.37 128.256 300.457L132.664 312.159L139.031 329.805L155.356 322.004L216.903 489.179L167.927 512.584L119.604 381.072L106.543 345.408L122.869 337.607L112.094 308.444C106.054 309.558 99.5234 309.001 93.483 306.029C87.4426 303.243 82.545 298.599 78.7901 293.026L53.1593 305.286L60.016 323.861L28.6712 338.721L-86.9127 393.703L-107.483 337.978L39.446 267.95L39.2827 267.764Z" fill="#FFE3AC" fill-opacity="0.3"/>
</g>
</g>
<mask id="mask4_512_26622" style="mask-type:luminance" maskUnits="userSpaceOnUse" x="-199" y="0" width="556" height="702">
<path d="M-6.27024 -4.06541e-05L356.262 169.09L164.305 701.89L-198.227 532.8L-6.27024 -4.06541e-05Z" fill="white"/>
</mask>
<g mask="url(#mask4_512_26622)">
<path d="M-92.4636 556.236L-44.4669 469.862L90.3809 532.832L71.2802 632.766L169.559 678.461L162.866 697.221L-197.273 529.117L-190.579 510.356L-92.3003 556.236H-92.4636ZM5.65208 602.117L25.7323 546.206L-7.08174 530.974L-27.162 586.885L5.65208 602.117Z" fill="#FFE3AC" fill-opacity="0.3"/>
</g>
</svg>
