<?xml version="1.0" encoding="UTF-8"?>
<svg id="Logo_2" xmlns="http://www.w3.org/2000/svg" xmlns:xlink="http://www.w3.org/1999/xlink" viewBox="0 0 1980.24 612.96">
  <defs>
    <style>
      .cls-1 {
        fill: #008acd;
      }

      .cls-2 {
        fill: url(#linear-gradient-8);
      }

      .cls-3 {
        fill: url(#linear-gradient-7);
      }

      .cls-4 {
        fill: url(#linear-gradient-5);
      }

      .cls-5 {
        fill: url(#linear-gradient-6);
      }

      .cls-6 {
        fill: url(#linear-gradient-9);
      }

      .cls-7 {
        fill: url(#linear-gradient-4);
      }

      .cls-8 {
        fill: url(#linear-gradient-3);
      }

      .cls-9 {
        fill: url(#linear-gradient-2);
      }

      .cls-10 {
        fill: #e40005;
      }

      .cls-11 {
        fill: #079f96;
      }

      .cls-12 {
        fill: #035ba5;
      }

      .cls-13 {
        fill: url(#linear-gradient);
      }

      .cls-14 {
        fill: #ee5600;
      }

      .cls-15 {
        fill: #36a86b;
      }

      .cls-16 {
        fill: #bb007b;
      }

      .cls-17 {
        fill: #94bf22;
      }

      .cls-18 {
        fill: url(#linear-gradient-10);
      }

      .cls-19 {
        filter: url(#drop-shadow-1);
      }

      .cls-19, .cls-20 {
        fill: #fff;
      }

      .cls-20 {
        filter: url(#drop-shadow-2);
      }

      .cls-21 {
        fill: #803487;
      }

      .cls-22 {
        fill: #f9b22d;
      }
    </style>
    <filter id="drop-shadow-1" x="0" y="0" width="1980.24" height="406.08" filterUnits="userSpaceOnUse">
      <feOffset dx="10" dy="17"/>
      <feGaussianBlur result="blur" stdDeviation="10"/>
      <feFlood flood-color="#000" flood-opacity=".3"/>
      <feComposite in2="blur" operator="in"/>
      <feComposite in="SourceGraphic"/>
    </filter>
    <linearGradient id="linear-gradient" x1="109.6" y1="286.11" x2="234.06" y2="86.93" gradientUnits="userSpaceOnUse">
      <stop offset="0" stop-color="#e40005"/>
      <stop offset=".46" stop-color="#e40106"/>
      <stop offset=".63" stop-color="#e4080d"/>
      <stop offset=".75" stop-color="#e61418"/>
      <stop offset=".84" stop-color="#e72528"/>
      <stop offset=".92" stop-color="#ea3b3d"/>
      <stop offset=".99" stop-color="#ec5556"/>
      <stop offset="1" stop-color="#ed5859"/>
    </linearGradient>
    <linearGradient id="linear-gradient-2" x1="277.22" y1="255.5" x2="364.16" y2="116.37" gradientUnits="userSpaceOnUse">
      <stop offset="0" stop-color="#ee5600"/>
      <stop offset=".19" stop-color="#ee5803"/>
      <stop offset=".37" stop-color="#ee600e"/>
      <stop offset=".54" stop-color="#f06c21"/>
      <stop offset=".7" stop-color="#f17e3c"/>
      <stop offset=".87" stop-color="#f3955d"/>
      <stop offset="1" stop-color="#f6ac7f"/>
    </linearGradient>
    <linearGradient id="linear-gradient-3" x1="401.95" y1="283.01" x2="522.99" y2="89.31" gradientUnits="userSpaceOnUse">
      <stop offset="0" stop-color="#f68e00"/>
      <stop offset=".5" stop-color="#facc8b"/>
      <stop offset="1" stop-color="#f6920b"/>
    </linearGradient>
    <linearGradient id="linear-gradient-4" x1="561.09" y1="255.5" x2="648.02" y2="116.37" gradientUnits="userSpaceOnUse">
      <stop offset="0" stop-color="#fbd997"/>
      <stop offset=".06" stop-color="#fad48a"/>
      <stop offset=".23" stop-color="#fac869"/>
      <stop offset=".42" stop-color="#f9be4e"/>
      <stop offset=".6" stop-color="#f9b73b"/>
      <stop offset=".79" stop-color="#f9b330"/>
      <stop offset="1" stop-color="#f9b22d"/>
    </linearGradient>
    <linearGradient id="linear-gradient-5" x1="690.36" y1="286.11" x2="814.83" y2="86.93" gradientUnits="userSpaceOnUse">
      <stop offset="0" stop-color="#eff1d5"/>
      <stop offset="0" stop-color="#eef0d3"/>
      <stop offset=".13" stop-color="#d6e3a5"/>
      <stop offset=".26" stop-color="#c2d87d"/>
      <stop offset=".4" stop-color="#b1cf5c"/>
      <stop offset=".54" stop-color="#a4c842"/>
      <stop offset=".68" stop-color="#9bc330"/>
      <stop offset=".83" stop-color="#95bf25"/>
      <stop offset="1" stop-color="#94bf22"/>
    </linearGradient>
    <linearGradient id="linear-gradient-6" x1="1089.07" y1="267.64" x2="1188.09" y2="109.18" gradientUnits="userSpaceOnUse">
      <stop offset="0" stop-color="#079f96"/>
      <stop offset=".26" stop-color="#0aa097"/>
      <stop offset=".46" stop-color="#13a39a"/>
      <stop offset=".64" stop-color="#23a9a0"/>
      <stop offset=".8" stop-color="#3ab1a8"/>
      <stop offset=".95" stop-color="#57bbb2"/>
      <stop offset="1" stop-color="#62bfb6"/>
    </linearGradient>
    <linearGradient id="linear-gradient-7" x1="1244.09" y1="243.38" x2="1346.24" y2="79.91" gradientUnits="userSpaceOnUse">
      <stop offset="0" stop-color="#1a94d0"/>
      <stop offset=".1" stop-color="#2298d1"/>
      <stop offset=".27" stop-color="#3ba2d4"/>
      <stop offset=".49" stop-color="#62b4da"/>
      <stop offset=".71" stop-color="#95cbe1"/>
      <stop offset="1" stop-color="#7ec1de"/>
    </linearGradient>
    <linearGradient id="linear-gradient-8" x1="1425.19" y1="271.7" x2="1532.34" y2="100.23" gradientUnits="userSpaceOnUse">
      <stop offset="0" stop-color="#538cbc"/>
      <stop offset=".32" stop-color="#7da6c8"/>
      <stop offset=".5" stop-color="#98b8d0"/>
      <stop offset=".53" stop-color="#86acca"/>
      <stop offset=".59" stop-color="#6e9dc4"/>
      <stop offset=".65" stop-color="#5b91be"/>
      <stop offset=".72" stop-color="#4d89ba"/>
      <stop offset=".82" stop-color="#4684b8"/>
      <stop offset="1" stop-color="#4483b8"/>
    </linearGradient>
    <linearGradient id="linear-gradient-9" x1="1582.14" y1="273.63" x2="1684.5" y2="109.82" gradientUnits="userSpaceOnUse">
      <stop offset="0" stop-color="#caa9c5"/>
      <stop offset="1" stop-color="#853d8c"/>
    </linearGradient>
    <linearGradient id="linear-gradient-10" x1="1757.81" y1="267.64" x2="1856.82" y2="109.18" gradientUnits="userSpaceOnUse">
      <stop offset="0" stop-color="#d154a2"/>
      <stop offset=".02" stop-color="#d050a0"/>
      <stop offset=".17" stop-color="#c83392"/>
      <stop offset=".34" stop-color="#c21c88"/>
      <stop offset=".53" stop-color="#be0c80"/>
      <stop offset=".73" stop-color="#bb037c"/>
      <stop offset="1" stop-color="#bb007b"/>
    </linearGradient>
    <filter id="drop-shadow-2" x="185.76" y="388.08" width="1608.96" height="224.88" filterUnits="userSpaceOnUse">
      <feOffset dx="10" dy="17"/>
      <feGaussianBlur result="blur-2" stdDeviation="10"/>
      <feFlood flood-color="#000" flood-opacity=".3"/>
      <feComposite in2="blur-2" operator="in"/>
      <feComposite in="SourceGraphic"/>
    </filter>
  </defs>
  <g id="Logo">
    <rect class="cls-19" x="20.16" y="13.04" width="1920" height="346.02" rx="173.01" ry="173.01"/>
    <g id="Minimasters">
      <path class="cls-13" d="M126.27,168.66v89.71c0,9.15-7.16,20.66-21.48,20.66s-21.48-11.77-21.48-20.93V114c0-9.15,7.67-20.66,21.74-20.66,6.65,0,12.28,2.35,16.11,6.8l50.13,55.45,51.41-54.93c3.84-3.92,9.72-6.54,16.11-6.54,14.07,0,21.74,10.98,21.74,20.4v144.11c0,9.16-7.42,20.66-21.48,20.66s-21.48-11.77-21.48-20.92v-89.71l-34.02,36.09c-2.56,2.88-6.65,5.23-11.76,5.23s-8.95-2.35-11.51-5.23l-34.02-36.09Z"/>
      <path class="cls-9" d="M298.88,114c0-9.15,7.67-20.66,21.74-20.66s21.74,11.25,21.74,20.66v143.85c0,9.15-7.16,20.66-21.48,20.66s-22-10.72-22-20.4V114Z"/>
      <path class="cls-8" d="M423.17,172.32v85.78c0,9.16-7.16,20.66-21.48,20.66s-21.48-11.77-21.48-20.92V114c0-9.42,7.67-20.92,21.74-20.92,7.16,0,13.04,3.4,16.88,7.58l82.61,97.82v-84.22c0-9.16,7.67-20.66,21.74-20.66s21.74,11.25,21.74,20.4v144.11c0,9.16-7.42,20.66-21.48,20.66-7.16,0-13.04-3.4-16.88-7.85l-83.38-98.6Z"/>
      <path class="cls-7" d="M582.75,114c0-9.15,7.67-20.66,21.74-20.66s21.74,11.25,21.74,20.66v143.85c0,9.15-7.16,20.66-21.48,20.66s-22-10.72-22-20.4V114Z"/>
      <path class="cls-4" d="M707.03,168.66v89.71c0,9.15-7.16,20.66-21.48,20.66s-21.48-11.77-21.48-20.93V114c0-9.15,7.67-20.66,21.74-20.66,6.65,0,12.28,2.35,16.11,6.8l50.13,55.45,51.41-54.93c3.84-3.92,9.72-6.54,16.11-6.54,14.07,0,21.74,10.98,21.74,20.4v144.11c0,9.16-7.42,20.66-21.48,20.66s-21.48-11.77-21.48-20.92v-89.71l-34.02,36.09c-2.56,2.88-6.65,5.23-11.77,5.23s-8.95-2.35-11.51-5.23l-34.02-36.09Z"/>
      <path class="cls-15" d="M1036.17,250.52c1.02,2.09,1.53,4.71,1.53,7.32,0,9.15-7.67,20.4-21.74,20.4-10.49,0-17.39-6.8-20.2-13.6l-14.07-36.88c-.77-1.31-2.3-2.09-3.07-2.09h-43.22c-1.02,0-2.56.79-3.07,2.09l-14.32,36.88c-2.56,6.8-9.72,13.6-20.2,13.6-13.81,0-21.48-11.25-21.48-20.4,0-2.62.51-5.23,1.28-7.32l54.99-141.23c3.32-8.63,12.53-16.22,24.55-16.22s20.97,7.85,24.04,16.22l54.99,141.23ZM949.47,183.57c0,.26-.26.78-.51,1.05h15.34c0-.52-.26-.79-.51-1.31-.77-2.61-2.3-6.01-3.58-9.41-1.02-3.14-2.3-6.02-3.32-8.63-2.56,6.02-5.12,12.03-7.42,18.31Z"/>
      <path class="cls-5" d="M1073.5,254.97c-3.33-3.92-5.12-8.37-5.12-13.34,0-9.16,7.42-20.93,21.48-20.93,8.44,0,12.79,3.66,18.41,8.89,6.9,6.28,21.48,7.06,30.18,7.06,15.86,0,27.11-4.19,27.11-15.17,0-2.35-.26-3.92-1.02-5.23-3.58-4.97-23.27-9.68-29.41-10.72-30.18-7.58-62.92-17-62.92-56.23,0-32.95,28.64-56.49,66.49-56.49,19.18,0,36.57,4.97,49.62,18.57,4.09,4.19,6.14,9.16,6.14,14.65,0,9.15-7.42,20.4-21.48,20.4-5.88,0-9.97-1.57-14.32-5.23-6.9-5.75-10.23-7.06-19.69-7.06-13.56,0-23.53,6.02-23.53,15.96,0,2.35.26,3.92,1.02,4.97,4.6,5.49,22.25,9.15,29.16,10.46,30.18,7.06,62.66,17.53,62.66,55.97,0,36.09-30.43,56.49-69.82,56.49-23.02,0-49.1-4.45-64.96-23.02Z"/>
      <path class="cls-3" d="M1361.46,93.6c14.07,0,21.74,11.25,21.74,20.4s-7.16,20.66-21.48,20.66h-29.67c-1.02,0-3.33,1.31-3.33,4.19v119.26c0,9.16-7.16,20.66-21.48,20.66s-21.48-11.77-21.48-20.92v-119.27c0-2.88-2.05-4.18-3.33-4.18h-29.67c-13.56,0-22-9.94-22-20.14,0-9.16,7.67-20.66,21.74-20.66h108.95Z"/>
      <path class="cls-2" d="M1443.03,278.51c-13.3,0-22.51-10.2-22.51-20.4V114c0-9.15,7.67-20.66,21.74-20.66h72.38c14.07,0,21.74,11.25,21.74,20.66s-7.16,20.4-21.48,20.4h-47.57c-1.02,0-3.33,1.31-3.33,4.18v18.05c0,2.88,2.3,3.92,3.33,3.92h34.27c14.07,0,21.74,11.25,21.74,20.66s-7.42,20.66-21.48,20.66h-34.27c-1.02,0-3.33,1.31-3.33,4.18v27.2c0,2.88,2.3,3.92,3.33,3.92h47.57c14.07,0,21.74,11.25,21.74,20.66s-7.16,20.66-21.48,20.66h-72.38Z"/>
      <path class="cls-6" d="M1670.13,205.54c2.56,4.19,6.14,9.94,9.72,15.69,7.16,11.77,14.58,23.54,16.11,26.16,2.04,3.14,3.07,6.8,3.07,10.46,0,9.42-7.42,20.66-21.48,20.66-8.44,0-15.09-4.45-18.67-10.2l-35.8-58.85c-1.02-1.31-2.56-2.09-3.33-2.09-.26,0-1.79.26-1.79,2.61v47.86c0,9.15-7.16,20.66-21.48,20.66s-21.48-11.77-21.48-20.92V113.74c0-9.42,7.67-20.93,21.74-20.93h41.69c38.11,0,59.59,28.51,59.59,57.28,0,23.8-11,39.23-30.69,50.22.51,1.31,1.53,3.14,2.81,5.23ZM1617.7,161.6c0,2.88,2.3,4.19,3.33,4.19h16.88c10.49,0,16.37-5.75,16.37-15.69s-5.88-15.69-16.37-15.69h-16.88c-1.02,0-3.33,1.31-3.33,4.18v23.02Z"/>
      <path class="cls-18" d="M1742.24,254.97c-3.33-3.92-5.12-8.37-5.12-13.34,0-9.16,7.42-20.93,21.48-20.93,8.44,0,12.79,3.66,18.41,8.89,6.9,6.28,21.48,7.06,30.18,7.06,15.86,0,27.11-4.19,27.11-15.17,0-2.35-.26-3.92-1.02-5.23-3.58-4.97-23.27-9.68-29.41-10.72-30.18-7.58-62.92-17-62.92-56.23,0-32.95,28.64-56.49,66.5-56.49,19.18,0,36.57,4.97,49.62,18.57,4.09,4.19,6.14,9.16,6.14,14.65,0,9.15-7.42,20.4-21.48,20.4-5.88,0-9.97-1.57-14.32-5.23-6.9-5.75-10.23-7.06-19.69-7.06-13.56,0-23.53,6.02-23.53,15.96,0,2.35.26,3.92,1.02,4.97,4.6,5.49,22.25,9.15,29.16,10.46,30.18,7.06,62.66,17.53,62.66,55.97,0,36.09-30.43,56.49-69.82,56.49-23.02,0-49.1-4.45-64.96-23.02Z"/>
    </g>
    <rect class="cls-20" x="205.83" y="401.25" width="1548.66" height="164.59" rx="82.29" ry="82.29"/>
    <g id="Playground">
      <path class="cls-10" d="M322.97,491.98c-.4,0-1.31.51-1.31,1.62v17.88c0,3.54-2.83,7.98-8.49,7.98s-8.49-4.55-8.49-8.09v-55.56c0-3.64,3.03-8.09,8.59-8.09h16.47c15.15,0,23.44,11.02,23.44,22.12s-8.48,22.12-23.54,22.12h-6.67ZM321.66,474.2c0,1.11.91,1.62,1.31,1.62h6.67c4.14,0,6.47-2.23,6.47-6.06s-2.32-6.06-6.47-6.06h-6.67c-.4,0-1.31.5-1.31,1.62v8.89Z"/>
      <path class="cls-14" d="M457.43,501.98c0,1.11.91,1.52,1.31,1.52h19.9c5.56,0,8.59,4.34,8.59,7.98s-2.83,7.98-8.49,7.98h-29.7c-5.66,0-8.49-4.55-8.49-8.09v-55.56c0-3.64,3.03-8.09,8.59-8.09,5.86,0,8.29,4.85,8.29,8.09v46.17Z"/>
      <path class="cls-22" d="M636.44,508.55c.4.81.61,1.82.61,2.83,0,3.54-3.03,7.88-8.59,7.88-4.14,0-6.87-2.62-7.98-5.25l-5.56-14.25c-.3-.51-.91-.81-1.21-.81h-17.07c-.41,0-1.01.3-1.21.81l-5.66,14.25c-1.01,2.62-3.84,5.25-7.98,5.25-5.46,0-8.49-4.34-8.49-7.88,0-1.01.2-2.02.51-2.83l21.72-54.56c1.31-3.33,4.95-6.26,9.7-6.26s8.28,3.03,9.5,6.26l21.72,54.56ZM602.19,482.69c0,.1-.1.3-.2.4h6.06c0-.2-.1-.3-.2-.51-.3-1.01-.91-2.32-1.41-3.63-.41-1.21-.91-2.32-1.31-3.33-1.01,2.32-2.02,4.64-2.93,7.07Z"/>
      <path class="cls-17" d="M737.66,471.67l12.53-20c1.31-2.12,3.94-3.84,7.27-3.84,5.66,0,8.49,4.45,8.49,7.98,0,1.41-.4,2.83-1.21,4.14l-18.29,29.2c-.3.3-.3.61-.3.91v21.42c0,3.54-2.93,7.98-8.49,7.98s-8.59-4.55-8.59-8.09v-21.42c0-.3,0-.61-.3-.91l-18.28-29.2c-.81-1.31-1.21-2.73-1.21-4.14,0-3.54,2.83-7.98,8.49-7.98,3.33,0,5.96,1.72,7.37,3.84l12.53,20.11Z"/>
      <path class="cls-15" d="M883.74,503.5c3.84,0,9.4-1.21,11.92-3.13.61-.51.81-.81.81-1.92s-.91-1.51-1.31-1.51h-13.03c-5.66,0-8.48-4.65-8.48-8.09s2.93-8.08,8.59-8.08h22.83c5.46,0,8.59,4.34,8.59,7.98v14.24c0,2.12-.81,3.74-2.22,5.36-6.57,7.17-17.17,11.01-27.58,11.01-21.12,0-37.08-14.34-37.08-35.86s15.96-35.77,37.08-35.77c9.6,0,21.11,3.54,27.58,11.02,1.42,1.62,2.12,3.33,2.12,5.35,0,3.54-2.93,7.98-8.59,7.98-3.43,0-5.05-1.52-7.27-3.64-3.74-3.33-8.99-4.75-13.84-4.75-13.23,0-20.1,8.89-20.1,20s6.77,19.8,20,19.8Z"/>
      <path class="cls-11" d="M1038.6,491.17c1.01,1.62,2.43,3.84,3.84,6.06,2.83,4.55,5.76,9.09,6.36,10.1.81,1.21,1.21,2.62,1.21,4.04,0,3.64-2.93,7.98-8.49,7.98-3.33,0-5.96-1.72-7.37-3.94l-14.14-22.73c-.4-.51-1.01-.81-1.31-.81-.1,0-.71.1-.71,1.01v18.49c0,3.54-2.83,7.98-8.49,7.98s-8.49-4.55-8.49-8.08v-55.57c0-3.63,3.03-8.08,8.59-8.08h16.47c15.05,0,23.54,11.01,23.54,22.12,0,9.19-4.34,15.15-12.12,19.4.2.5.61,1.21,1.11,2.02ZM1017.89,474.2c0,1.11.91,1.62,1.31,1.62h6.67c4.14,0,6.47-2.23,6.47-6.06s-2.32-6.06-6.47-6.06h-6.67c-.4,0-1.31.5-1.31,1.62v8.89Z"/>
      <path class="cls-1" d="M1134.17,483.49c0-21.52,15.96-35.77,37.08-35.77s36.97,14.25,36.97,35.77-15.96,35.86-36.97,35.86-37.08-14.34-37.08-35.86ZM1171.25,463.69c-13.23,0-20,8.69-20,19.8s6.77,19.8,20,19.8,19.9-8.59,19.9-19.8-6.77-19.8-19.9-19.8Z"/>
      <path class="cls-12" d="M1335.91,455.91c0-3.63,3.03-8.08,8.59-8.08s8.59,4.34,8.59,7.98v36.77c0,12.73-10.41,26.88-27.78,26.88h-3.43c-17.48,0-27.88-14.15-27.88-26.88v-36.77c0-3.64,3.03-8.09,8.59-8.09s8.59,4.35,8.59,7.98v36.77c0,5.66,4.55,10.81,10.81,10.81h3.43c6.16,0,10.81-5.15,10.71-10.81l-.2-36.57Z"/>
      <path class="cls-21" d="M1457.54,478.34v33.14c0,3.54-2.83,7.98-8.49,7.98s-8.49-4.55-8.49-8.09v-55.56c0-3.64,3.03-8.09,8.59-8.09,2.83,0,5.15,1.31,6.67,2.93l32.63,37.78v-32.53c0-3.54,3.03-7.98,8.59-7.98s8.59,4.35,8.59,7.88v55.66c0,3.54-2.93,7.98-8.48,7.98-2.83,0-5.15-1.31-6.67-3.03l-32.93-38.09Z"/>
      <path class="cls-16" d="M1601.8,519.46c-5.76,0-8.69-4.55-8.69-8.18v-55.46c0-3.64,2.93-8.09,8.69-8.09h16.77c21.22,0,37.08,14.35,37.08,35.86s-15.96,35.87-37.08,35.87h-16.77ZM1618.57,503.4c13.23,0,20-8.79,20-19.9s-6.77-19.8-20-19.8h-7.07c-.4,0-1.31.5-1.31,1.62v36.57c0,1.11.91,1.52,1.31,1.52h7.07Z"/>
    </g>
  </g>
</svg>