<svg width="304" height="551" viewBox="0 0 304 551" fill="none" xmlns="http://www.w3.org/2000/svg">
<path d="M280.408 242.022C267.92 242.465 257.243 249.02 248.861 257.926C248.451 258.385 248.048 258.836 247.645 259.287C248.322 255.8 249.014 252.313 249.787 248.843C257.412 215.482 261.285 179.705 255.528 145.635C255.399 144.903 255.27 144.194 255.142 143.477C247.67 101.863 231.147 62.9937 204.995 29.665C204.182 28.6343 203.368 27.6035 202.555 26.5728C198.537 21.2744 194.206 16.5074 189.544 11.7645C188.835 11.0479 188.143 10.3554 187.458 9.66285C186.774 8.97035 186.105 8.29395 185.437 7.61755C184.777 6.96531 184.141 6.32112 183.497 5.68498C181.154 3.34979 178.875 1.61048 175.984 0C176.339 22.5306 176.065 44.7148 171.153 66.8347C171.024 67.4225 170.896 67.9943 170.767 68.566C170.63 69.1941 170.493 69.8061 170.356 70.418C170.082 71.642 169.817 72.8579 169.543 74.0819C165.984 91.5072 161.483 109.126 155.001 125.706C154.14 127.872 153.286 130.046 152.457 132.22C149.333 140.417 146.217 148.623 142.634 156.635C138.149 166.394 132.561 182.837 122.045 186.815C122.061 182.08 122.077 177.346 122.085 172.611C122.085 170.67 122.085 168.73 122.094 166.789C122.102 163.946 122.118 161.096 122.118 158.253C122.118 157.335 122.118 156.425 122.118 155.524C122.15 149.565 122.174 143.606 121.232 137.704C120.609 136.587 120.196 135.258 119.992 133.718C119.243 129.386 118.382 125.182 117.061 120.979C110.628 103.884 98.9204 88.2943 81.9552 80.4755C81.3513 80.2178 80.7555 79.9682 80.1677 79.7266C74.0806 77.1579 68.1947 75.0804 61.6486 74.0899C65.0384 77.2787 68.0256 80.6123 70.5056 84.558C78.2514 99.7931 78.6943 120.085 73.8873 136.351C73.5572 137.357 73.2432 138.332 72.9211 139.314C72.0274 142.197 71.0853 145.031 70.0305 147.85C53.2908 188.297 16.961 214.982 -22.0822 231.981C-29.1275 235.041 -35.8266 238.439 -42.4372 242.352C-42.9122 242.634 -43.3712 242.908 -43.8301 243.182C-63.6537 254.906 -81.5207 270.962 -92.1893 291.641C-92.4416 292.135 -92.6939 292.623 -92.9462 293.107C-96.0783 299.025 -99.138 304.855 -101.248 311.224C-101.876 313.278 -102.471 315.307 -103.244 317.312C-105.966 323.995 -107.23 331.082 -108.422 338.168C-108.526 338.828 -108.639 339.472 -108.744 340.116C-109.973 347.406 -110.746 360.054 -111.063 378.059C-111.095 379.927 -111.127 381.803 -111.159 383.672C-111.256 388.704 -111.345 393.729 -111.433 398.762C-111.441 399.253 -111.449 399.728 -111.457 400.211C-112.987 399.068 -114.144 397.589 -114.928 395.774C-115.169 395.243 -115.403 394.728 -115.636 394.22C-118.567 387.851 -121.119 381.352 -123.575 374.782C-124.058 373.493 -124.541 372.213 -125.025 370.925C-128.125 362.703 -131.088 354.458 -133.801 346.107C-134.059 345.294 -134.308 344.497 -134.558 343.708C-134.791 342.975 -135.017 342.258 -135.25 341.542C-135.967 339.23 -136.289 338.337 -138.028 336.597C-138.697 340.495 -138.938 344.255 -138.962 348.209C-138.962 348.974 -138.962 349.723 -138.962 350.472C-138.962 352.098 -138.97 353.733 -138.978 355.359C-138.978 357.888 -138.978 360.416 -138.994 362.945C-139.131 385.741 -136.756 407.813 -128.527 429.248C-128.197 430.053 -127.875 430.834 -127.561 431.615C-122.029 445.184 -115.346 458.068 -106.151 469.518C-105.491 470.315 -104.855 471.096 -104.211 471.877C-99.7822 477.466 -95.1202 484.673 -88.727 488.151C-88.2439 488.369 -87.7689 488.578 -87.3019 488.787V490.398C-86.9207 490.752 -86.5423 491.101 -86.1666 491.445L-84.4837 492.709C-83.7993 493.224 -83.131 493.723 -82.4627 494.231C-81.1986 495.173 -79.9425 496.123 -78.6945 497.089C-45.7223 522.712 -6.7435 537.118 33.9664 544.993C36.3417 545.444 38.717 545.887 41.0842 546.362C44.3613 547.022 47.6304 547.618 50.9316 548.109C51.5677 548.206 52.1796 548.294 52.7916 548.383C66.3025 550.485 79.5961 551 93.2519 551C94.1618 551 95.0394 551 95.9171 551C98.4937 551 101.078 551 103.655 550.976C104.484 550.976 105.281 550.968 106.087 550.96C108.269 550.952 110.451 550.927 112.633 550.879C150.871 549.349 189.431 533.325 215.76 505.456C216.195 504.989 216.622 504.538 217.048 504.087C227.347 493.337 237.025 481.283 243.716 467.899C244.932 465.339 246.148 462.802 247.468 460.29C254.079 447.785 259.498 434.257 263.057 420.56C263.29 419.666 263.516 418.796 263.741 417.926C272.139 390.315 275.505 361.391 277.365 332.684C277.928 324.028 278.54 315.379 279.337 306.739C279.386 306.176 279.442 305.636 279.49 305.088C279.998 299.395 280.497 293.783 281.858 288.227C281.992 287.701 282.126 287.183 282.26 286.673C282.687 284.869 283.146 283.073 283.621 281.286C286.946 269.932 292.236 259.52 302.816 253.473C303.219 253.263 303.605 253.054 304 252.845C297.736 246.226 289.491 242.433 280.4 242.022H280.408ZM113.18 494.416C112.947 495.229 112.721 496.043 112.48 496.888C108.518 510.038 101.151 522.446 89.1697 529.718C86.2308 531.288 83.2838 532.697 80.1677 533.881C79.6766 534.082 79.1774 534.283 78.6701 534.493C73.4686 536.465 68.6375 536.699 63.106 536.643C62.188 536.643 61.2701 536.626 60.3281 536.618C39.023 536.2 18.2252 530.474 2.06519 516.157C-7.33128 505.109 -8.55515 493.079 -7.59698 479.116C-4.78691 458.253 10.6645 428.258 27.2513 414.818C27.7102 414.512 28.1611 414.206 28.6362 413.892C28.612 414.343 28.5959 414.794 28.5717 415.253C27.9598 423.123 29.3232 430.453 32.6621 437.244C37.7508 442.583 43.4917 444.411 50.682 444.693C55.2474 444.604 58.911 443.791 62.3893 440.707C71.351 431.003 73.0902 417.926 73.0016 405.131C73.0016 404.479 73.0016 403.827 73.0016 403.158C73.0016 401.097 72.9855 399.044 72.9775 396.982C72.9775 395.573 72.9775 394.172 72.9694 392.763C72.9614 389.34 72.9453 385.91 72.9292 382.488C90.1922 389.3 103.397 403.464 110.773 420.334C120.717 443.452 120.58 470.525 113.188 494.416H113.18Z" fill="#F6CB78" fill-opacity="0.25"/>
<path d="M216.412 371.682C216.404 369.355 216.396 367.02 216.396 364.693C216.396 348.854 216.178 333.224 214.19 317.482C214.045 316.37 213.908 315.251 213.771 314.14C213.409 311.209 213.038 308.286 212.66 305.355C212.515 304.219 212.37 303.092 212.225 301.957C209.946 284.08 207.177 266.309 203.263 248.706C202.861 246.911 202.458 245.115 202.072 243.319C199.318 230.572 196.315 217.922 192.901 205.328H192.096C188.537 227.625 178.407 246.709 161.925 262.154C161.112 262.919 160.299 263.684 159.494 264.449C140.113 282.969 117.19 295.539 93.0583 306.78C93.8957 303.044 94.7572 299.34 94.8538 295.499C94.8458 294.492 94.8297 293.518 94.8216 292.535C94.7572 280.932 91.0695 271.39 84.5717 261.92C79.9499 255.519 71.4392 245.332 63.2746 243.971C55.6898 277.638 35.053 300.717 7.87819 320.791C4.28708 323.44 0.736237 326.13 -2.79046 328.868C-3.42655 329.367 -4.04653 329.85 -4.66652 330.333C-5.81793 331.227 -6.96129 332.121 -8.10464 333.015C-9.27216 333.933 -10.4397 334.851 -11.6072 335.769C-23.4997 344.924 -35.1024 355.891 -43.9271 368.115C-62.1725 394.535 -70.0794 429.595 -64.4593 461.418C-59.4027 485.454 -47.2123 503.089 -27.0586 517.044C9.9314 541.072 68.621 550.888 111.69 542.385C112.468 542.223 113.239 542.065 114.001 541.909C128.245 539.107 141.434 534.944 153.793 527.182C154.502 526.715 155.186 526.264 155.87 525.805C163.157 521.005 169.687 515.892 175.581 509.442C175.995 508.986 176.403 508.535 176.805 508.089C191.234 492.138 201.291 472.715 206.734 451.908C207.201 450.08 207.716 448.268 208.247 446.457C209.761 441.392 211.049 436.415 211.831 431.181C212.048 429.643 212.273 428.105 212.507 426.575C212.716 425.214 212.918 423.854 213.127 422.493C213.232 421.768 213.336 421.067 213.441 420.367C213.755 418.305 214.045 416.244 214.319 414.183C214.431 413.265 214.541 412.357 214.649 411.461C216.348 398.207 216.484 385.009 216.428 371.666L216.412 371.682ZM113.18 494.417C112.946 495.23 112.721 496.043 112.479 496.889C108.518 510.038 101.15 522.447 89.1693 529.718C86.2303 531.288 83.2834 532.698 80.1673 533.881C79.6762 534.083 79.177 534.284 78.6697 534.493C73.4682 536.466 68.6371 536.7 63.1055 536.643C62.1876 536.643 61.2697 536.627 60.3277 536.619C39.0226 536.2 18.2248 530.475 2.0648 516.158C-7.33167 505.11 -8.55554 493.08 -7.59738 479.117C-4.7873 458.253 10.6641 428.258 27.2509 414.819C27.7098 414.513 28.1607 414.207 28.6358 413.893C28.6116 414.344 28.5955 414.795 28.5714 415.254C27.9594 423.123 29.3229 430.454 32.6617 437.245C37.7504 442.583 43.4913 444.411 50.6816 444.693C55.247 444.605 58.9106 443.791 62.3889 440.707C71.3506 431.004 73.0898 417.927 73.0012 405.132C73.0012 404.48 73.0012 403.827 73.0012 403.159C73.0012 401.098 72.9851 399.044 72.9771 396.983C72.9771 395.574 72.9771 394.172 72.969 392.763C72.961 389.341 72.9449 385.911 72.9288 382.488C90.1918 389.301 103.397 403.465 110.772 420.335C120.716 443.453 120.579 470.525 113.188 494.417H113.18Z" fill="#F6CB78" fill-opacity="0.12"/>
</svg>
