<svg width="359" height="402" viewBox="0 0 359 402" fill="none" xmlns="http://www.w3.org/2000/svg">
<g clip-path="url(#clip0_512_26932)">
<path d="M210.216 81.8192C212.224 81.8192 214.232 81.7905 216.247 81.7617C228.839 81.6826 240.742 83.7387 252.644 87.6568C253.409 87.9012 254.167 88.1528 254.955 88.4044C261.501 90.5827 267.646 93.2139 273.669 96.4634C274.517 96.9235 275.373 97.3764 276.252 97.8509C289.481 105.292 301.542 114.975 310.793 126.658C311.379 127.367 311.973 128.083 312.574 128.807C324.052 143.006 331.674 160.13 335.038 177.7C335.195 178.462 335.351 179.232 335.508 180.008C337.621 192.265 337.675 205.774 335.038 217.959C334.902 218.606 334.765 219.253 334.629 219.922C332.31 230.777 328.962 240.454 323.673 250.31C323.257 251.101 322.832 251.892 322.4 252.704C317.301 262.28 312.021 271.755 306.566 281.144C303.725 286.047 300.997 290.993 298.292 295.961C294.852 302.28 291.322 308.542 287.708 314.775C284.329 320.62 281.086 326.529 277.866 332.46C275.555 336.709 273.184 340.914 270.714 345.077C270.083 346.074 269.805 347.078 269.881 348.089C270.785 348.698 271.81 349.311 272.957 349.929C277.942 352.992 282.109 357.428 283.942 362.884C286.049 373.941 282.238 382.065 276.601 391.54C275.79 392.92 274.987 394.293 274.176 395.674C273.82 396.27 273.472 396.867 273.108 397.485C272.244 398.981 271.426 400.483 270.631 402.014C267.85 401.008 265.229 399.836 262.584 398.535C261.759 398.132 260.933 397.723 260.084 397.306C259.205 396.874 258.326 396.436 257.417 395.99C256.963 395.767 256.508 395.544 256.038 395.314C249.288 391.986 242.598 388.578 235.938 385.099C230.748 382.395 225.505 379.793 220.247 377.212C213.58 373.948 206.973 370.591 200.405 367.162C195.184 364.451 189.926 361.827 184.638 359.239C177.94 355.954 171.296 352.582 164.689 349.139C159.757 346.572 154.787 344.085 149.786 341.626C143.369 338.47 137.005 335.221 130.671 331.921C125.708 329.34 120.716 326.838 115.692 324.372C109.275 321.216 102.911 317.967 96.5771 314.667C90.8947 311.712 85.1594 308.865 79.4013 306.04C74.4463 303.596 69.5368 301.087 64.6424 298.535C58.7176 295.443 52.7474 292.445 46.7468 289.505C38.6779 285.544 30.6848 281.46 22.7295 277.312C18.9034 275.321 15.0697 273.337 11.2361 271.353C9.82684 270.619 8.41762 269.893 7.00082 269.16C6.40986 268.851 5.8189 268.549 5.20521 268.233C4.78598 268.017 4.36422 267.799 3.93994 267.578C4.69001 263.028 7.03871 259.275 9.24345 255.22C9.65258 254.437 10.0617 253.66 10.486 252.855C14.3424 245.752 19.4338 238.542 27.4269 235.227C35.8671 233.099 44.5269 234.199 52.4292 237.384C52.6261 236.766 52.8257 236.143 53.0277 235.515C53.9672 232.999 55.1264 230.777 56.4523 228.427C56.7023 227.988 56.9523 227.542 57.2023 227.089C58.0206 225.637 58.8464 224.185 59.6647 222.74C60.2405 221.712 60.8239 220.684 61.3997 219.663C62.6043 217.528 63.809 215.393 65.0136 213.265C66.7259 210.231 68.4306 207.19 70.1277 204.149C70.3929 203.674 70.6581 203.193 70.9384 202.704C71.4763 201.748 72.0067 200.784 72.5446 199.828C77.242 191.431 81.9621 183.042 86.705 174.666C89.3416 170.001 91.963 165.321 94.5617 160.633C95.1679 159.541 95.774 158.455 96.3725 157.362C97.5241 155.285 98.6757 153.2 99.8274 151.115C106.414 139.2 111.856 130.818 116.155 125.967C116.564 125.5 116.973 125.033 117.397 124.544C136.05 103.559 160.469 89.2815 188.798 83.5518C189.353 83.4224 189.916 83.293 190.487 83.1636C197.01 81.812 203.556 81.848 210.201 81.848L210.216 81.8192Z" fill="#F6CB78" fill-opacity="0.12"/>
<path d="M195.487 181.295C197.116 182.121 198.738 182.963 200.359 183.818C202.859 185.105 205.382 186.334 207.913 187.556C213.474 190.252 219.027 192.97 224.566 195.716C225.839 196.349 227.119 196.981 228.4 197.607C230.491 198.642 232.574 199.692 234.65 200.748C235.241 201.036 235.824 201.331 236.431 201.625C241.242 204.106 245.045 207.175 247.863 211.661C249.394 216.787 249.439 221.245 247.06 226.126C244.59 230.281 241.439 233.135 236.605 234.825C228.293 236.823 222.801 234.048 215.777 230.152C215.307 229.879 214.838 229.613 214.353 229.332C213.423 228.834 212.234 228.635 210.784 228.736C210.451 229.325 210.125 229.922 209.784 230.526C203.95 240.964 198.109 251.396 192.222 261.805C188.26 268.822 184.297 275.831 180.357 282.855C179.782 283.876 179.206 284.897 178.63 285.925C177.827 287.348 177.024 288.772 176.228 290.202C175.769 291.017 175.304 291.841 174.834 292.675C173.819 294.58 172.94 296.471 172.144 298.47C172.584 298.685 173.023 298.901 173.478 299.124C181.63 303.128 189.76 307.169 197.806 311.367C203.731 314.458 209.701 317.456 215.701 320.397C222.194 323.581 228.642 326.838 235.044 330.188C239.446 332.481 243.871 334.724 248.31 336.939C248.879 337.226 249.447 337.507 250.038 337.801C252.871 339.218 255.713 340.627 258.554 342.036C272.919 349.177 281.323 356.009 283.768 362.532C286.42 373.581 282.215 382.079 276.601 391.533C275.79 392.913 274.987 394.286 274.176 395.666C273.82 396.263 273.472 396.86 273.108 397.478C272.244 398.973 271.426 400.476 270.631 402.007C267.85 401.001 265.229 399.829 262.584 398.528C261.759 398.125 260.933 397.715 260.084 397.298C259.205 396.867 258.326 396.428 257.417 395.983C256.963 395.76 256.508 395.537 256.038 395.307C249.288 391.978 242.598 388.571 235.938 385.091C230.748 382.388 225.505 379.786 220.247 377.205C213.58 373.941 206.973 370.584 200.405 367.154C195.184 364.444 189.926 361.82 184.638 359.232C177.94 355.947 171.296 352.575 164.689 349.131C159.757 346.565 154.787 344.077 149.786 341.619C143.369 338.463 137.005 335.213 130.671 331.913C125.708 329.333 120.716 326.831 115.692 324.365C109.275 321.209 102.911 317.959 96.5771 314.66C90.8947 311.705 85.1594 308.858 79.4013 306.033C74.4463 303.588 69.5368 301.079 64.6424 298.527C58.7176 295.436 52.7474 292.438 46.7468 289.498C38.6779 285.537 30.6848 281.453 22.7295 277.305C18.9034 275.314 15.0697 273.33 11.2361 271.345C9.82683 270.612 8.41762 269.886 7.00082 269.153C6.40986 268.844 5.8189 268.542 5.20521 268.225C4.7885 268.01 4.3718 267.794 3.93994 267.571C4.69001 263.02 7.03871 259.268 9.24345 255.213C9.65258 254.429 10.0617 253.653 10.486 252.848C14.3424 245.745 19.4338 238.534 27.4269 235.22C30.6014 234.415 33.776 234.321 37.0414 234.278C37.5415 234.259 38.044 234.238 38.5491 234.214C46.2922 234.12 53.1641 238.362 59.8162 241.69C60.642 242.1 61.4678 242.51 62.3164 242.934C68.3169 245.925 74.2796 248.994 80.2195 252.1C86.2276 255.227 92.3115 258.225 98.403 261.209C104.214 264.063 109.965 267.017 115.7 270.015C122.307 273.452 128.989 276.737 135.694 280.001C140.296 282.249 143.644 283.957 145.741 285.127C147.049 285.97 148.271 286.351 149.408 286.27C149.741 285.68 150.067 285.084 150.408 284.48C156.226 274.077 162.053 263.675 167.917 253.293C172.334 245.486 176.713 237.664 181.085 229.843C181.388 229.306 181.691 228.762 181.994 228.211C182.85 226.679 183.699 225.148 184.555 223.617C184.807 223.162 185.065 222.701 185.327 222.237C186.509 220.109 187.684 217.981 188.805 215.824C188.146 215.63 187.487 215.443 186.812 215.249C179.191 212.682 172.508 208.52 168.773 201.582C167.826 196.471 167.508 191.575 170.319 186.96C176.849 178.778 185.759 176.722 195.48 181.316L195.487 181.295Z" fill="#F6CB78" fill-opacity="0.25"/>
<path d="M214.959 100.64C216.542 100.64 218.133 100.626 219.717 100.611C231.329 100.564 239.464 101.814 244.121 104.364C246.641 107.015 247.909 109.222 247.924 110.985C247.598 114.867 247.295 117.427 244.121 120.18C241.628 121.661 239.696 121.791 236.779 121.755C236.044 121.755 235.302 121.747 234.544 121.74C232.604 121.647 230.733 121.489 228.809 121.266C217.732 120.044 206.42 120.389 195.624 123.063C194.73 123.283 193.828 123.506 192.919 123.732C179.956 127.391 167.788 133.897 157.742 142.474C157.007 143.099 156.272 143.732 155.506 144.371C148.953 150.288 143.778 157.067 139.369 164.53C137.588 167.405 136.247 168.858 132.739 169.785C129.33 170.288 127.254 170.073 124.17 168.527C121.837 166.672 120.178 165.227 119.427 162.38C118.95 152.107 127.671 143.451 134.255 135.996C134.83 135.335 135.414 134.673 136.012 133.99C152.37 116.025 178.031 103.609 202.836 100.892C206.867 100.619 210.905 100.633 214.951 100.633L214.959 100.64Z" fill="#F6CB78" fill-opacity="0.7"/>
<path d="M19.6002 164.501C20.2897 164.623 20.9791 164.745 21.6837 164.875C23.1308 165.134 24.5779 165.392 26.025 165.658C28.2298 166.061 30.4421 166.449 32.6468 166.837C34.056 167.089 35.4728 167.348 36.8821 167.599C37.5387 167.715 38.2004 167.83 38.8671 167.945C43.3069 168.771 46.9966 169.821 50.4439 172.747C52.1637 175.637 52.1789 178.038 51.6713 181.288C50.6257 183.818 49.7317 184.666 47.3603 186.183C42.1022 187.973 36.7457 186.838 31.3967 185.881C30.7073 185.759 30.0254 185.637 29.3132 185.515C27.8661 185.256 26.4266 184.997 24.987 184.738C22.7899 184.343 20.5851 183.962 18.3804 183.581C16.9712 183.329 15.562 183.078 14.1603 182.826C13.5087 182.718 12.8496 182.603 12.1829 182.488C8.31888 181.769 5.55348 180.813 2.42441 178.412C0.42423 175.5 -0.378873 173.25 0.151478 169.785C4.68219 161.668 11.3116 162.991 19.5926 164.494L19.6002 164.501Z" fill="#F6CB78" fill-opacity="0.25"/>
<path d="M305.967 27.1892C309.028 27.6277 310.679 28.8642 312.922 30.7693C314.369 33.5156 314.354 35.9814 313.824 38.9505C312.339 42.4948 310.445 45.8089 308.52 49.1519C308.02 50.0433 307.528 50.9276 307.035 51.819C305.793 54.0405 304.52 56.2475 303.239 58.4546C302.444 59.8349 301.663 61.2224 300.891 62.6099C300.375 63.5157 299.853 64.4143 299.337 65.3202C298.883 66.1253 298.428 66.9305 297.959 67.7573C296.186 70.1512 294.549 71.3446 291.86 72.7393C288.958 73.0772 287.192 73.0053 284.518 71.8838C281.328 69.5114 279.881 68.0951 279.374 64.1627C279.48 59.4898 281.896 55.8377 284.23 51.8406C284.677 51.0498 285.124 50.2662 285.586 49.4538C286.905 47.1461 288.246 44.8384 289.579 42.5379C290.261 41.3373 290.943 40.1367 291.617 38.9362C292.2 37.9225 292.784 36.9016 293.367 35.888C293.625 35.4423 293.875 34.9893 294.14 34.5292C297.231 29.2956 299.625 26.8585 305.967 27.182V27.1892Z" fill="#F6CB78" fill-opacity="0.25"/>
<path d="M171.386 0.129353C174.531 1.45215 176.288 3.19191 178.205 5.88063C178.758 7.8792 179.16 9.71242 179.471 11.7397C179.567 12.3005 179.662 12.866 179.758 13.4364C180.054 15.2121 180.342 16.995 180.622 18.7779C180.819 19.9713 181.016 21.1647 181.221 22.358C181.584 24.5579 181.948 26.7506 182.297 28.9504C182.577 30.6902 182.872 32.4372 183.175 34.1769C184.054 39.1757 183.845 42.7224 182.547 44.8168C180.178 47.4768 177.986 48.9409 175.97 49.2093C172.818 49.3387 170.568 49.3387 168.03 47.4408C164.651 43.9182 164.174 40.1583 163.454 35.6004C163.358 35.0061 163.259 34.4046 163.158 33.7959C162.848 31.9052 162.552 30.0144 162.249 28.1165C161.946 26.2186 161.636 24.3279 161.333 22.4299C161.143 21.2509 160.954 20.0791 160.764 18.9001C160.456 16.9351 160.077 14.982 159.628 13.041C158.772 9.71961 158.878 7.29688 160.545 4.2559C163.787 0.596644 166.333 -0.395451 171.386 0.122164V0.129353Z" fill="#F6CB78" fill-opacity="0.25"/>
<path d="M328.977 312.855C332.81 314.66 335.568 317.449 338.553 320.289C339.099 320.806 339.644 321.317 340.205 321.849C341.356 322.934 342.5 324.027 343.652 325.113C345.402 326.781 347.168 328.434 348.933 330.095C350.054 331.152 351.168 332.216 352.282 333.272C352.812 333.768 353.335 334.257 353.88 334.768C357.381 338.123 359.212 341.137 359.373 343.812C358.926 347.198 358.169 349.218 355.494 351.676C352.857 353.488 350.335 353.38 347.16 353.114C343.311 351.389 340.546 348.484 337.583 345.659C337.038 345.142 336.492 344.624 335.932 344.092C334.78 342.999 333.636 341.906 332.484 340.814C330.727 339.139 328.969 337.478 327.204 335.81C326.082 334.746 324.969 333.689 323.855 332.625C323.325 332.129 322.802 331.633 322.256 331.116C321.771 330.648 321.279 330.181 320.779 329.699C320.35 329.292 319.915 328.88 319.476 328.463C317.074 325.788 316.551 323.553 316.665 320.016C317.059 317.104 318.468 315.53 320.786 313.711C323.544 312.604 326.022 312.316 328.977 312.855Z" fill="#F6CB78" fill-opacity="0.25"/>
<path d="M72.2946 54.2776C76.0828 55.1475 78.4164 57.3402 81.2272 59.7988C82.5758 60.8556 83.9396 61.9052 85.3033 62.9477C86.0004 63.494 86.705 64.0404 87.4247 64.6012C88.8491 65.7155 90.2811 66.8154 91.713 67.9225C100.759 74.8864 105.409 79.358 105.661 81.3374C105.798 85.3201 105.335 87.6063 102.449 90.7191C100.199 92.3942 97.8272 92.3726 95.0239 92.4877C90.7281 91.6322 87.3187 88.1742 84.076 85.507C81.1136 83.0987 78.136 80.7119 75.0751 78.4042C74.4766 77.9513 73.8856 77.5056 73.272 77.0383C71.893 75.9959 70.5066 74.9606 69.1201 73.9254C68.37 73.3575 67.6124 72.7895 66.8396 72.2C66.1501 71.6824 65.4682 71.172 64.756 70.64C62.1876 68.3898 61.3088 66.4631 61.1572 63.1705C61.2633 59.957 62.1497 57.9656 64.5439 55.6795C67.1047 54.1626 69.3322 54.0907 72.3022 54.2776H72.2946Z" fill="#F6CB78" fill-opacity="0.25"/>
<path d="M115.321 182.014C118.45 183.264 120.45 184.968 122.14 187.765C123.913 194.091 120.071 199.864 116.889 205.206C115.169 207.866 113.518 209.756 110.775 211.489C107.343 212.028 103.903 212.222 100.766 210.648C98.2208 208.671 96.2509 206.715 95.6221 203.581C95.8721 198.721 97.4101 195.371 99.9331 191.18C100.251 190.612 100.569 190.044 100.903 189.462C104.327 183.653 108.222 180.993 115.321 182.014Z" fill="#F6CB78" fill-opacity="0.7"/>
</g>
<defs>
<clipPath id="clip0_512_26932">
<rect width="421" height="402" fill="white"/>
</clipPath>
</defs>
</svg>
