<svg xmlns="http://www.w3.org/2000/svg" fill="none" viewBox="220.73833671399595 123.08000000000001 492.13793103448273 582.82" style="max-height: 500px" width="492.13793103448273" height="582.82">
<path fill-opacity="0.25" fill="#F6CB78" d="M484.85 318.116C485.774 318.28 486.689 318.443 487.643 318.616C504.683 322.196 521.717 329.911 535.321 340.35C536.053 340.914 536.786 341.469 537.548 342.049C544.771 347.655 551.452 353.738 557.198 360.904C557.754 361.563 558.314 362.227 558.879 362.896C559.465 363.59 560.044 364.276 560.643 364.986C561.024 365.395 561.409 365.81 561.799 366.23C580.079 386.53 587.668 415.395 590.273 443.024C590.364 443.973 590.456 444.922 590.544 445.903C591.436 462.094 588.643 479.427 583.815 495.298C583.637 495.886 583.459 496.48 583.279 497.079C577.138 517.162 566.633 537.111 552.639 553.167C552.211 553.663 551.785 554.151 551.341 554.662C540.24 567.349 528.017 577.911 513.969 586.953C513.475 587.271 512.989 587.59 512.487 587.917C477.898 610.125 437.31 614.68 399.985 607.029C364.214 599.107 333.622 573.863 315.928 542.451C311.299 533.944 307.43 524.744 304.764 515.28C304.612 514.743 304.46 514.213 304.302 513.66C301.733 504.453 300.177 495.365 299.423 485.697C299.351 484.86 299.271 484.023 299.193 483.162C297.336 460.604 301.45 435.91 311.049 414.502C311.278 413.968 311.506 413.443 311.744 412.894C318.34 397.642 327.144 383.261 338.35 370.824C339.005 370.089 339.652 369.362 340.325 368.603C342.268 366.469 344.253 364.384 346.273 362.324C347.002 361.578 347.737 360.824 348.479 360.062C361.445 347.027 376.638 337.401 392.857 329.507C394.023 328.939 395.175 328.354 396.328 327.762C423.888 314.201 456.618 312.893 484.858 318.116L484.85 318.116Z"/>
<path fill-opacity="0.25" fill="#F6CB78" d="M282.708 238.711C283.178 238.75 283.657 238.78 284.143 238.819C293.676 239.552 303.212 240.26 312.758 240.882C313.746 240.944 314.734 241.015 315.754 241.078C318.117 241.231 320.48 241.391 322.851 241.544C320.067 262.824 317.995 278.314 316.635 288.014C316.506 288.916 316.384 289.819 316.251 290.753C315.622 295.186 314.924 299.601 314.133 304.021C312.702 312.11 311.542 320.207 310.357 328.32C310.233 329.175 310.11 330.022 309.976 330.9C308.363 341.878 306.79 352.848 305.254 363.828C305.18 364.372 305.102 364.921 305.021 365.475C304.196 371.349 303.378 377.231 302.561 383.105C302.285 385.068 302.01 387.031 301.742 388.995C301.623 389.873 301.504 390.752 301.374 391.662C300.698 396.523 299.865 401.331 298.919 406.168C298.137 410.357 297.533 414.553 296.936 418.764C296.801 419.722 296.666 420.672 296.521 421.653C295.137 431.524 293.947 441.402 292.858 451.283C292.533 454.27 292.178 457.248 291.83 460.235C290.668 470.503 289.98 480.126 291.147 490.219C291.255 491.368 291.357 492.508 291.458 493.656C294.786 530.666 314.515 566.903 342.811 588.65C343.242 588.981 343.672 589.312 344.117 589.652C344.557 589.994 345.005 590.339 345.459 590.687C355.966 598.78 367.487 605.204 380.033 609.846C380.519 610.028 380.997 610.209 381.497 610.4C395.829 615.789 410.557 618.097 426.161 618.581C427.866 618.633 429.57 618.702 431.274 618.771C438.611 619.03 445.681 618.668 453.068 617.68C453.747 617.59 454.433 617.497 455.128 617.402C468.981 615.39 482.597 611.407 495.614 605.482C496.52 605.096 497.425 604.711 498.363 604.311C537.069 587.517 566.315 554.712 583.993 516.492C586.306 511.165 588.161 505.689 590.031 500.222C590.271 499.513 590.519 498.806 590.769 498.082C603.429 460.088 598.593 418.063 582.585 384.445C577.872 375.347 572.305 366.747 565.974 358.807C565.665 358.423 565.365 358.032 565.05 357.641C560.055 351.364 554.656 345.862 548.489 340.774C548.083 340.435 547.676 340.097 547.255 339.75C532.499 327.606 515.53 318.788 496.997 313.34C495.686 312.95 494.385 312.536 493.086 312.114C470.109 305.042 442.673 306.236 418.608 312.113C417.866 312.289 417.116 312.457 416.35 312.64C411.051 313.947 405.991 315.921 400.866 317.924C399.845 318.306 398.815 318.688 397.794 319.07C385.629 323.654 374.63 330.04 363.746 337.447C363.002 337.948 362.249 338.455 361.488 338.967C339.849 354.238 321.227 375.446 309.574 399.374L308.798 399.35C311.134 381.08 313.615 362.823 316.306 344.572C316.431 343.71 316.556 342.847 316.692 341.953C317.054 339.483 317.423 337.014 317.785 334.545C317.895 333.817 317.998 333.08 318.111 332.329C319.25 324.758 320.775 320.154 322.684 318.517C323.14 318.118 323.588 317.718 324.06 317.311C324.547 316.905 325.034 316.507 325.538 316.085C326.044 315.655 326.55 315.218 327.065 314.773C331.529 310.983 336.135 307.461 340.93 304.135C341.392 303.815 341.863 303.488 342.343 303.153C367.576 285.735 394.714 274.045 423.955 268.344C424.822 268.172 425.687 268.008 426.578 267.829C438.486 265.606 449.693 265.102 461.547 265.525C463.856 265.604 466.167 265.668 468.478 265.731C481.734 266.134 494.684 267.346 507.301 270.829C508.157 271.062 509.021 271.299 509.892 271.538C541.175 280.33 569.721 297.123 591.32 321.023C592.855 322.708 594.423 324.315 596.055 325.9C603.641 333.672 609.304 343.039 614.909 352.371C615.35 353.108 615.792 353.838 616.246 354.599C617.365 356.534 618.428 358.491 619.474 360.463C619.702 360.889 619.936 361.32 620.173 361.757C630.385 380.797 636.762 402.564 638.94 424.671C639.044 425.58 639.147 426.49 639.255 427.431C644.479 477.984 629.306 531.729 597.508 574.203C590.783 582.987 583.653 591.48 575.638 599.103C574.094 600.573 572.63 602.094 571.17 603.647C554.223 620.757 532.424 634.409 510.818 643.718C510.001 644.074 509.177 644.43 508.336 644.794C501.698 647.626 495.064 650.052 488.224 652.162C487.249 652.481 486.265 652.801 485.257 653.127C477.502 655.574 469.784 657.172 461.87 658.501C461.315 658.595 460.753 658.689 460.182 658.791C431.098 663.686 401.75 662.078 374.537 653.412C373.88 653.206 373.218 652.997 372.551 652.786C350.581 645.689 330.167 634.721 312.869 619.7C312.442 619.329 312.008 618.958 311.568 618.57C305.53 613.303 299.92 607.667 294.609 601.643C294.201 601.177 293.784 600.719 293.362 600.237C287.198 593.264 281.756 586.083 276.953 578.04C276.668 577.578 276.392 577.116 276.102 576.638C271.8 569.556 268.101 562.23 264.722 554.604C264.308 553.693 263.902 552.774 263.476 551.831C257.468 538.049 253.71 523.319 251.53 508.17C251.226 506.093 250.834 504.046 250.46 501.983C249.857 498.084 249.655 494.142 249.456 490.177C249.428 489.572 249.394 488.958 249.368 488.337C248.953 478.06 249.908 467.905 251.054 457.581C251.132 456.86 251.21 456.139 251.291 455.394C252.442 444.943 253.717 434.503 255.131 424.068C255.209 423.49 255.287 422.912 255.368 422.311C255.596 420.648 255.823 418.986 256.058 417.323C256.19 416.397 256.315 415.463 256.449 414.513C256.85 411.822 257.358 409.158 257.859 406.479C258.928 400.716 259.741 394.953 260.525 389.173C260.675 388.073 260.826 386.972 260.978 385.864C261.533 381.826 262.089 377.781 262.637 373.743C263.104 370.307 263.578 366.871 264.052 363.443C264.271 361.852 264.483 360.26 264.702 358.677C265.261 354.608 265.825 350.562 266.707 346.527C268.012 340.525 268.749 334.457 269.609 328.41C269.805 327.032 270.002 325.647 270.199 324.27C270.616 321.357 271.027 318.436 271.445 315.523C272.512 307.987 273.595 300.46 274.67 292.924C274.774 292.18 274.886 291.444 274.991 290.684C276.778 278.177 278.611 265.68 280.506 253.177C280.621 252.401 280.744 251.634 280.862 250.834C281.471 246.798 282.088 242.771 282.705 238.735L282.708 238.711Z"/>
<path fill-opacity="0.25" fill="#F6CB78" d="M563.496 625.814C564.137 625.85 564.779 625.886 565.436 625.922C567.562 626.043 569.686 626.173 571.81 626.31C573.287 626.396 574.763 626.481 576.239 626.567C592.575 627.541 608.869 628.825 625.159 630.149C623.783 645.037 621.522 659.684 618.787 674.475C607.135 674.201 595.567 673.581 583.982 672.761C582.223 672.635 580.47 672.517 578.71 672.399C575.035 672.142 571.361 671.885 567.695 671.628C563.11 671.304 558.525 670.987 553.939 670.67C543.217 669.924 532.504 669.171 521.792 668.41C520.009 668.283 518.226 668.157 516.443 668.03C511.21 667.661 505.985 667.285 500.762 666.9C499.156 666.787 497.544 666.666 495.939 666.552C493.724 666.396 491.509 666.232 489.295 666.068C488.654 666.025 488.013 665.981 487.35 665.929C483.508 665.643 479.766 665.153 475.995 664.496C478.178 663.45 480.262 662.664 482.569 662.044C507.506 655.08 530.835 644.091 552.433 628.779C556.582 625.878 558.83 625.519 563.51 625.823L563.496 625.814Z"/>
<path fill-opacity="0.25" fill="#F6CB78" d="M644.831 621.908C645.52 621.93 646.203 621.951 646.916 621.973C647.675 621.996 648.443 622.02 649.225 622.052C650.023 622.077 650.822 622.102 651.642 622.135C653.966 622.223 656.281 622.318 658.603 622.422C660.338 622.492 662.065 622.561 663.799 622.631C666.997 622.762 670.193 622.908 673.389 623.063C674.657 623.126 675.935 623.181 677.205 623.229C685.811 623.575 691.631 625.008 694.665 627.53C696.301 629.576 697.302 630.887 697.438 633.642C697.322 634.426 697.205 635.217 697.086 636.025C696.954 637.001 696.818 637.988 696.679 638.986C696.593 639.555 696.508 640.125 696.421 640.711C696.09 642.974 695.789 645.239 695.489 647.504C694.864 652.175 694.217 656.846 693.554 661.516C693.278 663.479 693.003 665.443 692.734 667.414C692.345 670.28 691.941 673.138 691.528 676.003C691.412 676.879 691.293 677.763 691.17 678.655C690.419 683.776 689.522 687.525 685.776 691.504C677.335 697.539 654.89 691.875 644.979 691.186C644.245 691.14 643.511 691.093 642.755 691.038C641.018 690.921 639.289 690.796 637.555 690.654C636.67 690.59 635.775 690.522 634.87 690.452C631.553 689.777 629.753 688.513 627.833 685.79C626.865 682.524 627.281 679.698 627.743 676.238C627.831 675.502 627.918 674.765 628.017 674.005C628.344 671.351 628.694 668.699 629.046 666.038C629.191 664.914 629.336 663.797 629.489 662.673C629.963 659.022 630.453 655.38 630.943 651.73C631.022 651.144 631.102 650.551 631.183 649.949C631.706 646.069 632.258 642.198 632.835 638.321C632.982 637.331 633.129 636.334 633.286 635.313C633.432 634.403 633.586 633.486 633.742 632.553C633.867 631.761 634 630.963 634.128 630.148C635.101 626.775 637.165 624.676 639.99 622.649C641.872 621.793 642.87 621.84 644.847 621.901L644.831 621.908Z"/>
<path fill="#F8F5E3" d="M475.988 428.585C482.881 435.659 489.155 445.124 489.333 455.799C489.175 458.394 488.917 460.986 488.635 463.577C488.569 464.259 488.502 464.949 488.441 465.654C487.118 478.112 480.905 488.191 471.569 496.743C460.999 505.687 450.197 508.326 437.333 507.903C425.095 507.151 415.607 501.347 408.161 491.997C400.09 480.386 399.275 467.409 401.742 453.087C402.499 450.264 403.518 447.831 404.928 445.235C405.261 444.602 405.596 443.96 405.939 443.303C412.174 432.238 421.881 424.214 433.526 419.828C448.584 415.309 465.2 418.145 475.988 428.585ZM420.982 437.71C414.714 444.862 410.96 451.568 410.048 460.746C409.973 461.385 409.898 462.03 409.822 462.679C409.147 469.106 409.306 474.732 412.308 480.248C412.689 480.959 413.063 481.67 413.45 482.406C418.135 490.462 424.677 495.681 433.72 498.275C443.451 500.198 452.362 498.136 461.364 493.096C462.124 492.595 462.892 492.089 463.668 491.577C464.359 491.138 465.055 490.695 465.757 490.251C473.115 484.301 477.977 475.563 479.777 466.436C481.211 455.317 478.455 446.113 471.959 437.826C465.776 430.805 457.844 427.649 448.304 427.195C438.08 427.228 428.979 430.031 420.982 437.71Z"/>
<path fill-opacity="0.25" fill="#F6CB78" d="M304.066 135.219C313.668 135.389 323.145 136.064 332.66 136.899C332.642 146.726 332.616 156.552 332.591 166.378C332.582 170.615 332.572 174.853 332.563 179.09C332.559 181.626 332.549 184.154 332.546 186.69C332.542 187.581 332.547 188.471 332.54 189.393C332.537 190.204 332.536 191.007 332.53 191.842C332.526 192.525 332.53 193.209 332.524 193.909C332.483 195.569 332.317 197.242 332.137 198.898C326.525 198.795 320.958 198.639 315.416 198.03C309.321 197.364 303.189 196.968 297.057 196.571C296.539 196.539 296.021 196.507 295.489 196.467C292.516 196.272 289.55 196.084 286.576 195.897C290.251 182.184 294.176 168.544 298.223 154.914C298.79 152.992 299.365 151.062 299.932 149.139C301.307 144.499 302.683 139.859 304.058 135.218L304.066 135.219Z"/>
<path fill-opacity="0.25" fill="#F6CB78" d="M306.349 205.891C308.957 206.083 311.558 206.267 314.167 206.451C315.849 206.574 317.531 206.698 319.214 206.814C319.98 206.869 320.754 206.925 321.536 206.981C332.446 207.791 338.964 209.551 341.091 212.262C343.529 215.66 344.427 217.708 343.891 222.135C342.861 226.031 340.143 229.072 337.045 231.599C334.235 233.055 332.058 233.186 329.073 233.102C328.272 233.077 327.466 233.052 326.655 233.027C325.844 233.002 324.981 232.972 324.067 232.939C323.183 232.911 322.299 232.884 321.392 232.856C315.691 232.648 310.062 232.267 304.42 231.655C301.196 231.34 297.953 231.192 294.694 231.051C293.069 230.977 291.444 230.895 289.82 230.813C288.744 230.764 287.668 230.722 286.598 230.689C278.946 230.442 273.716 228.756 270.908 225.632C268.511 222.139 268.01 218.951 268.699 214.536C269.965 210.115 273.294 207.539 277.023 205.142C284.527 201.725 298.556 205.315 306.349 205.891Z"/>
<path fill="#FFE7BA" d="M309.843 389.817L310.618 389.841L310.187 393.803L311.738 393.851C311.027 395.668 310.309 397.501 309.585 399.35L308.81 399.326L309.843 389.817Z"/>
<path fill="#F8F5E3" d="M509.135 379.141C509.761 379.68 510.394 380.227 511.034 380.782C513.26 382.722 514.751 384.096 515.509 384.904L515.337 386.489C515.758 386.692 516.18 386.888 516.616 387.101C529.526 395.475 536.652 419.508 539.118 434.682C539.366 436.622 539.59 438.569 539.798 440.515C539.889 441.329 539.971 442.142 540.059 442.98C540.661 451.116 539.513 459.317 538.421 467.504C538.297 468.455 538.169 469.415 538.038 470.387C533.83 496.795 516.888 520.226 496.395 537.329C488.77 543.438 480.44 547.735 471.608 551.429C470.304 551.977 469.013 552.542 467.722 553.114C443.603 563.148 415.507 561.602 393.104 552.052C370.04 541.63 351.88 521.803 343.861 497.258C342.816 493.56 341.961 489.837 341.19 486.044C341.042 485.404 340.886 484.763 340.733 484.098C335.237 459.019 341.868 432.065 355.238 409.16C370.615 384.75 393.298 367.969 420.008 359.788C420.676 359.578 421.344 359.377 422.036 359.159C452.725 350.227 487.025 358.874 509.151 379.141L509.135 379.141ZM421.63 368.481C421.01 368.676 420.381 368.879 419.745 369.082C395.14 377.209 374.154 393.908 360.908 416.888C348.776 438.496 345.215 464.177 350.839 487.003C357.122 510.779 371.868 530.389 393.307 541.523C410.974 550.212 432.454 553.302 452.648 548.33C453.631 548.09 454.614 547.85 455.628 547.603C479.642 541.048 501.225 525.585 515.113 503.992C520.769 494.817 524.788 485.385 527.491 475.117C527.701 474.376 527.914 473.63 528.131 472.878C531.723 459.068 531.606 444.905 529.126 431.439C528.951 430.471 528.775 429.512 528.595 428.521C526.096 417.527 520.707 407.064 514.053 398.375C513.488 397.634 512.923 396.893 512.337 396.127C502.289 383.596 488.419 373.96 472.883 369.273C472.146 369.043 471.401 368.814 470.64 368.583C463.579 366.576 456.761 365.975 449.344 365.809C448.762 365.791 448.189 365.773 447.591 365.763C438.771 365.553 430.341 365.69 421.638 368.481L421.63 368.481Z"/>
</svg>