<svg version="1.2" xmlns="http://www.w3.org/2000/svg" viewBox="0 0 393 825" width="393" height="825">
	<defs>
		<clipPath clipPathUnits="userSpaceOnUse" id="cp1">
			<path d="m268.05 30.54h19.48v12.4h-19.48z"/>
		</clipPath>
		<clipPath clipPathUnits="userSpaceOnUse" id="cp2">
			<path d="m293.73 27h19.48v16.83h-19.48z"/>
		</clipPath>
		<clipPath clipPathUnits="userSpaceOnUse" id="cp3">
			<path d="m321.18 30.54h26.98v12.4h-26.98z"/>
		</clipPath>
	</defs>
	<style>
		.s0 { fill: #565553 } 
		.s1 { fill: #fdf9ef;stroke: #231f20;stroke-miterlimit:10;stroke-width: 10 } 
		.s2 { fill: #000000 } 
		.s3 { fill: none;stroke: #000000;stroke-miterlimit:10;stroke-width: .8 } 
		.s4 { fill: #4b3826 } 
	</style>
	<g>
		<path class="s0" d="m384 218.37h-15.37v88.95h15.37z"/>
		<path class="s0" d="m22.37 196.52h-15.37v61.02h15.37z"/>
		<path class="s0" d="m22.37 274.24h-15.37v59.78h15.37z"/>
		<path class="s1" d="m324.25 13h-257.5c-28.76 0-52.07 22.87-52.07 51.09v696.82c0 28.22 23.31 51.09 52.07 51.09h257.5c28.76 0 52.07-22.87 52.07-51.09v-696.82c0-28.22-23.31-51.09-52.07-51.09z"/>
		<path class="s2" d="m235.29 12h-79.19c-8.55 0-15.49 6.8-15.49 15.2 0 8.39 6.94 15.19 15.49 15.19h79.19c8.55 0 15.49-6.8 15.49-15.19 0-8.4-6.94-15.2-15.49-15.2z"/>
		<g id="Clip-Path" clip-path="url(#cp1)">
			<g>
				<path class="s2" d="m271.5 37.87h-3.01c-0.25 0-0.44 0.17-0.44 0.38v4.31c0 0.21 0.19 0.38 0.44 0.38h3.01c0.24 0 0.43-0.17 0.43-0.38v-4.31c0-0.21-0.19-0.38-0.43-0.38z"/>
				<path class="s2" d="m276.7 35.61h-3.02c-0.24 0-0.43 0.17-0.43 0.38v6.57c0 0.21 0.19 0.38 0.43 0.38h3.02c0.24 0 0.43-0.17 0.43-0.38v-6.57c0-0.21-0.19-0.38-0.43-0.38z"/>
				<path class="s2" d="m281.9 33.34h-3.02c-0.24 0-0.43 0.17-0.43 0.38v8.83c0 0.2 0.19 0.37 0.43 0.37h3.02c0.24 0 0.43-0.17 0.43-0.37v-8.83c0-0.21-0.19-0.38-0.43-0.38z"/>
				<path class="s2" d="m287.1 30.54h-3.02c-0.24 0-0.43 0.17-0.43 0.38v11.63c0 0.21 0.19 0.38 0.43 0.38h3.02c0.24 0 0.43-0.17 0.43-0.38v-11.63c0-0.21-0.19-0.38-0.43-0.38z"/>
			</g>
		</g>
		<g id="Clip-Path" clip-path="url(#cp2)">
			<g>
				<path class="s2" d="m293.73 34.36l1.43-1.23c2.2-1.91 5.19-2.98 8.31-2.98 3.12 0 6.11 1.07 8.32 2.98l1.42 1.23-1.72 1.49-1.42-1.23c-1.75-1.51-4.13-2.36-6.6-2.36-2.47 0-4.84 0.85-6.59 2.36l-1.43 1.23z"/>
				<path class="s2" d="m298.9 38.82l-1.73-1.48 1.43-1.24c1.29-1.11 3.05-1.74 4.87-1.74 1.83 0 3.58 0.63 4.87 1.74l1.43 1.24-1.72 1.48-1.43-1.23c-0.83-0.72-1.97-1.13-3.15-1.13-1.18 0-2.31 0.41-3.15 1.13z"/>
				<path class="s2" d="m303.47 42.77l-2.85-2.46 1.43-1.23c0.37-0.33 0.89-0.51 1.42-0.51 0.54 0 1.05 0.18 1.43 0.51l1.43 1.23z"/>
			</g>
		</g>
		<g id="Clip-Path" clip-path="url(#cp3)">
			<g>
				<path class="s3" d="m342.48 30.94h-18.02c-1.59 0-2.88 1.29-2.88 2.87v5.86c0 1.59 1.29 2.88 2.88 2.88h18.02c1.59 0 2.88-1.29 2.88-2.88v-5.86c0-1.58-1.29-2.87-2.88-2.87z"/>
				<path class="s2" d="m341.87 32.68h-16.81c-0.84 0-1.52 0.68-1.52 1.52v5.09c0 0.84 0.68 1.52 1.52 1.52h16.81c0.84 0 1.52-0.68 1.52-1.52v-5.09c0-0.84-0.68-1.52-1.52-1.52z"/>
				<path class="s2" d="m346.75 34.67v4.14c0.78 0 1.41-0.92 1.41-2.07 0-1.15-0.63-2.07-1.41-2.07z"/>
			</g>
		</g>
		<path class="s4" d=""/>
		<path class="s2" d="m70.12 41.78q-1.23 0.02-2.12-0.6-0.88-0.62-1.35-1.79-0.47-1.17-0.45-2.78v-0.01q0.01-1.62 0.5-2.8 0.49-1.18 1.38-1.84 0.89-0.65 2.12-0.67 1.24-0.03 2.12 0.59 0.88 0.62 1.35 1.79 0.47 1.16 0.45 2.78v0.01q-0.01 1.61-0.5 2.8-0.48 1.18-1.38 1.84-0.89 0.66-2.12 0.68zm0.01-1.65q0.59-0.02 1.01-0.45 0.42-0.44 0.64-1.25 0.22-0.8 0.23-1.93v-0.01q0.01-1.14-0.2-1.93-0.21-0.8-0.62-1.21-0.4-0.42-1-0.41-0.59 0.01-1.01 0.45-0.41 0.43-0.64 1.23-0.22 0.8-0.23 1.94v0.01q-0.01 1.13 0.2 1.93 0.22 0.79 0.62 1.22 0.41 0.42 1 0.41zm9.75 1.43q-1.2 0.02-2.11-0.33-0.91-0.35-1.42-1-0.5-0.66-0.5-1.52v-0.01q0.01-0.65 0.31-1.19 0.31-0.53 0.84-0.88 0.53-0.37 1.21-0.51v-0.04q-0.88-0.2-1.42-0.78-0.54-0.58-0.53-1.4v-0.01q0.01-0.78 0.48-1.39 0.48-0.61 1.31-0.98 0.83-0.37 1.92-0.39 1.08-0.02 1.91 0.32 0.83 0.33 1.29 0.93 0.47 0.59 0.46 1.37v0.01q0 0.82-0.56 1.42-0.55 0.6-1.42 0.83v0.04q0.68 0.12 1.2 0.46 0.52 0.34 0.81 0.86 0.3 0.52 0.3 1.17v0.01q-0.01 0.87-0.53 1.54-0.51 0.67-1.44 1.06-0.91 0.38-2.11 0.41zm0.01-1.52q0.55-0.01 0.97-0.22 0.43-0.2 0.67-0.56 0.24-0.35 0.24-0.8v-0.02q0.01-0.45-0.22-0.79-0.24-0.35-0.66-0.54-0.42-0.19-0.97-0.18-0.55 0.01-0.98 0.22-0.42 0.21-0.67 0.57-0.23 0.35-0.24 0.8v0.01q0 0.45 0.24 0.8 0.24 0.34 0.66 0.53 0.42 0.19 0.96 0.18zm0.04-4.62q0.48-0.01 0.85-0.19 0.37-0.19 0.57-0.51 0.21-0.31 0.21-0.72v-0.01q0.01-0.41-0.2-0.72-0.2-0.31-0.57-0.47-0.36-0.17-0.83-0.16-0.48 0.01-0.85 0.19-0.37 0.18-0.58 0.5-0.21 0.31-0.21 0.72v0.01q0 0.41 0.2 0.72 0.21 0.31 0.57 0.48 0.37 0.16 0.84 0.16zm7.34 4.48q-0.52 0.01-0.87-0.33-0.34-0.34-0.33-0.85 0-0.51 0.35-0.86 0.35-0.35 0.87-0.36 0.54-0.01 0.88 0.33 0.33 0.33 0.33 0.85 0 0.51-0.35 0.86-0.34 0.35-0.88 0.36zm0.04-5.01q-0.52 0.01-0.86-0.32-0.35-0.34-0.34-0.86 0-0.51 0.35-0.85 0.35-0.36 0.88-0.37 0.53-0.01 0.87 0.33 0.34 0.34 0.33 0.85 0 0.51-0.34 0.86-0.35 0.35-0.89 0.36zm5.86 6.19l0.07-8.01-0.12 0.01-2.46 1.74 0.01-1.88 2.6-1.84 2.08-0.04-0.09 9.98zm8.64 0.09q-1.23 0.03-2.11-0.59-0.88-0.63-1.35-1.8-0.47-1.16-0.45-2.77v-0.02q0.01-1.62 0.5-2.79 0.48-1.19 1.38-1.84 0.89-0.66 2.12-0.68 1.24-0.02 2.12 0.6 0.88 0.62 1.35 1.78 0.47 1.16 0.45 2.78v0.02q-0.01 1.61-0.5 2.79-0.49 1.19-1.38 1.85-0.89 0.65-2.13 0.67zm0.02-1.65q0.59-0.01 1.01-0.45 0.41-0.43 0.64-1.24 0.22-0.81 0.23-1.93v-0.02q0.01-1.13-0.2-1.92-0.21-0.8-0.62-1.22-0.41-0.42-1-0.41-0.59 0.02-1.01 0.45-0.41 0.43-0.64 1.24-0.22 0.8-0.23 1.93v0.02q-0.01 1.12 0.2 1.92 0.22 0.8 0.62 1.22 0.41 0.42 1 0.41z"/>
	</g>
</svg>