<svg width="141" height="141" viewBox="0 0 141 141" fill="none" xmlns="http://www.w3.org/2000/svg">
<rect width="140.574" height="140.574" rx="12.398" fill="white"/>
<path d="M44.9341 24.5662L29.655 24.5662C26.8422 24.5662 24.562 26.8421 24.562 29.6496L24.562 44.8998C24.562 47.7073 26.8422 49.9832 29.655 49.9832L44.9341 49.9832C47.7469 49.9832 50.0271 47.7073 50.0271 44.8998L50.0271 29.6496C50.0271 26.8421 47.7469 24.5662 44.9341 24.5662Z" stroke="#5763FF" stroke-width="4.42786"/>
<path d="M44.9341 90.6506L29.655 90.6506C26.8422 90.6506 24.562 92.9266 24.562 95.7341L24.562 110.984C24.562 113.792 26.8422 116.068 29.655 116.068L44.9341 116.068C47.7469 116.068 50.0271 113.792 50.0271 110.984L50.0271 95.7341C50.0271 92.9266 47.7469 90.6506 44.9341 90.6506Z" stroke="#5763FF" stroke-width="4.42786"/>
<path d="M111.144 24.5664L95.8645 24.5664C93.0517 24.5664 90.7715 26.8423 90.7715 29.6498L90.7715 44.9001C90.7715 47.7076 93.0517 49.9835 95.8645 49.9835L111.144 49.9835C113.956 49.9835 116.237 47.7076 116.237 44.9001L116.237 29.6498C116.237 26.8423 113.956 24.5664 111.144 24.5664Z" stroke="#5763FF" stroke-width="4.42786" stroke-linejoin="round"/>
<path d="M47.4808 60.1499L42.3878 60.1499C40.9814 60.1499 39.8413 61.2879 39.8413 62.6916L39.8413 67.775C39.8413 69.1788 40.9814 70.3167 42.3878 70.3167L47.4808 70.3167C48.8872 70.3167 50.0274 69.1788 50.0274 67.775L50.0274 62.6916C50.0274 61.2879 48.8872 60.1499 47.4808 60.1499Z" fill="#5763FF"/>
<path d="M72.9459 19.4827L78.039 19.4827C79.4451 19.4827 80.5855 20.6206 80.5855 22.0244L80.5855 37.2746C80.5855 38.6784 79.4451 39.8163 78.039 39.8163L72.9459 39.8163C71.5398 39.8163 70.3994 40.9543 70.3994 42.358L70.3994 47.4415C70.3994 48.8452 69.2591 49.9832 67.8529 49.9832L62.7599 49.9832C61.3537 49.9832 60.2134 48.8452 60.2134 47.4415L60.2134 32.1912C60.2134 30.7875 61.3537 29.6495 62.7599 29.6495L67.8529 29.6495C69.2591 29.6495 70.3994 28.5115 70.3994 27.1078L70.3994 22.0244C70.3994 20.6206 71.5398 19.4827 72.9459 19.4827Z" fill="#5763FF"/>
<path d="M67.8529 70.3169L52.5739 70.3169C51.1675 70.3169 50.0273 71.4549 50.0273 72.8586L50.0273 77.942C50.0273 79.3458 51.1675 80.4837 52.5739 80.4837L67.8529 80.4837C69.2593 80.4837 70.3994 79.3458 70.3994 77.942L70.3994 72.8586C70.3994 71.4549 69.2593 70.3169 67.8529 70.3169Z" fill="#5763FF"/>
<path d="M118.783 60.1499L103.504 60.1499C102.098 60.1499 100.958 61.2879 100.958 62.6916L100.958 67.775C100.958 69.1788 102.098 70.3167 103.504 70.3167L118.783 70.3167C120.19 70.3167 121.33 69.1788 121.33 67.775L121.33 62.6916C121.33 61.2879 120.19 60.1499 118.783 60.1499Z" fill="#5763FF"/>
<path d="M88.225 100.817L72.9459 100.817C71.5395 100.817 70.3994 101.955 70.3994 103.359L70.3994 108.442C70.3994 109.846 71.5395 110.984 72.9459 110.984L88.225 110.984C89.6314 110.984 90.7715 109.846 90.7715 108.442L90.7715 103.359C90.7715 101.955 89.6314 100.817 88.225 100.817Z" fill="#5763FF"/>
<path d="M67.8529 90.6504L62.7599 90.6504C61.3535 90.6504 60.2134 91.7884 60.2134 93.1921L60.2134 98.2755C60.2134 99.6793 61.3535 100.817 62.7599 100.817L67.8529 100.817C69.2593 100.817 70.3994 99.6793 70.3994 98.2755L70.3994 93.1921C70.3994 91.7884 69.2593 90.6504 67.8529 90.6504Z" fill="#5763FF"/>
<path d="M70.3994 67.775L70.3994 62.6916C70.3994 61.2881 71.5397 60.1499 72.9459 60.1499L88.225 60.1499C89.6312 60.1499 90.7715 61.2881 90.7715 62.6916L90.7715 80.4836L98.411 80.4836C99.8172 80.4836 100.958 81.6217 100.958 83.0253L100.958 88.1087C100.958 89.5122 99.8172 90.6504 98.411 90.6504L90.7715 90.6504L83.132 90.6504C81.7258 90.6504 80.5855 89.5122 80.5855 88.1087L80.5855 72.8584C80.5855 71.4549 79.4451 70.3167 78.0389 70.3167L72.9459 70.3167C71.5397 70.3167 70.3994 69.1786 70.3994 67.775Z" fill="#5763FF"/>
<path d="M93.318 110.984L98.411 110.984C99.8172 110.984 100.958 109.846 100.958 108.442L100.958 103.359C100.958 101.955 102.098 100.817 103.504 100.817L108.597 100.817C110.003 100.817 111.144 99.6789 111.144 98.2754L111.144 83.0251C111.144 81.6216 112.284 80.4834 113.69 80.4834L118.783 80.4834C120.189 80.4834 121.33 81.6216 121.33 83.0251L121.33 90.6502L121.33 100.817L121.33 108.442C121.33 109.846 120.189 110.984 118.783 110.984L113.69 110.984C112.284 110.984 111.144 112.122 111.144 113.526L111.144 118.609C111.144 120.013 110.003 121.151 108.597 121.151L93.318 121.151C91.9118 121.151 90.7715 120.013 90.7715 118.609L90.7715 113.526C90.7715 112.122 91.9118 110.984 93.318 110.984Z" fill="#5763FF"/>
<path d="M19.4692 77.9419L19.4692 62.6916C19.4692 61.2881 20.6094 60.1499 22.0158 60.1499L27.1088 60.1499C28.5152 60.1499 29.6553 61.2881 29.6553 62.6916L29.6553 67.775C29.6553 69.1786 30.7954 70.3167 32.2018 70.3167L37.2948 70.3167C38.7012 70.3167 39.8413 71.4549 39.8413 72.8584L39.8413 77.9419C39.8413 79.3454 38.7012 80.4836 37.2948 80.4836L22.0158 80.4836C20.6094 80.4836 19.4692 79.3454 19.4692 77.9419Z" fill="#5763FF"/>
<path d="M78.039 121.151L62.7599 121.151C61.3537 121.151 60.2134 120.013 60.2134 118.61L60.2134 113.526C60.2134 112.123 61.3537 110.984 62.7599 110.984L67.8529 110.984C69.2591 110.984 70.3994 109.846 70.3994 108.443L70.3994 103.359C70.3994 101.956 71.5398 100.818 72.9459 100.818L88.225 100.818C89.6312 100.818 90.7715 101.956 90.7715 103.359L90.7715 108.443C90.7715 109.846 89.6312 110.984 88.225 110.984L83.132 110.984C81.7258 110.984 80.5855 112.123 80.5855 113.526L80.5855 118.61C80.5855 120.013 79.4451 121.151 78.039 121.151Z" fill="#5763FF"/>
</svg>
