<svg width="100" height="62" viewBox="0 0 100 62" fill="none" xmlns="http://www.w3.org/2000/svg">
<path d="M86.1349 2.65674C90.4072 2.65674 93.8706 6.17104 93.8706 10.5061L93.8706 39.2872C93.8706 43.6224 90.4072 47.1366 86.1349 47.1366L80.9777 47.1366L61.9942 47.1366L13.9347 47.1366C9.66225 47.1366 6.19895 43.6224 6.19895 39.2872L6.19895 10.5061C6.19895 6.17104 9.66225 2.65674 13.9347 2.65674L86.1349 2.65674Z" fill="#BB76FF"/>
<path d="M21.8408 30.1328C21.2209 30.1328 20.663 30.0576 20.1671 29.907C19.6711 29.7476 19.1974 29.4731 18.7457 29.0834C18.6306 28.986 18.542 28.8753 18.4801 28.7513C18.4181 28.6274 18.3871 28.5034 18.3871 28.3794C18.3871 28.1757 18.4579 27.9986 18.5996 27.8481C18.7502 27.6887 18.9361 27.609 19.1575 27.609C19.3258 27.609 19.4763 27.6621 19.6092 27.7684C19.9457 28.0429 20.2778 28.251 20.6054 28.3927C20.9419 28.5344 21.3537 28.6052 21.8408 28.6052C22.1685 28.6052 22.4696 28.5565 22.7441 28.4591C23.0186 28.3528 23.24 28.2156 23.4083 28.0473C23.5765 27.8702 23.6607 27.6709 23.6607 27.4496C23.6607 27.1839 23.5809 26.9581 23.4215 26.7721C23.2621 26.5861 23.0186 26.4311 22.6909 26.3072C22.3633 26.1743 21.9471 26.0725 21.4423 26.0016C20.9641 25.9308 20.5434 25.8245 20.1804 25.6828C19.8173 25.5323 19.5117 25.3463 19.2638 25.1249C19.0247 24.8947 18.8431 24.629 18.7192 24.3279C18.5952 24.018 18.5332 23.6726 18.5332 23.2918C18.5332 22.7162 18.6793 22.2247 18.9715 21.8173C19.2726 21.4099 19.6756 21.1 20.1804 20.8875C20.6851 20.6749 21.243 20.5687 21.8541 20.5687C22.4297 20.5687 22.961 20.6572 23.4481 20.8343C23.944 21.0026 24.347 21.2196 24.6569 21.4852C24.9137 21.6889 25.0421 21.9236 25.0421 22.1893C25.0421 22.3841 24.9669 22.5612 24.8163 22.7206C24.6658 22.88 24.4887 22.9597 24.285 22.9597C24.1521 22.9597 24.0326 22.9198 23.9263 22.8401C23.7846 22.7162 23.5942 22.601 23.3551 22.4948C23.116 22.3797 22.8636 22.2867 22.598 22.2158C22.3323 22.1361 22.0843 22.0963 21.8541 22.0963C21.4733 22.0963 21.1501 22.145 20.8844 22.2424C20.6276 22.3398 20.4327 22.4726 20.2999 22.6409C20.1671 22.8092 20.1007 23.004 20.1007 23.2254C20.1007 23.491 20.1759 23.7124 20.3265 23.8896C20.4859 24.0578 20.7117 24.1951 21.0039 24.3013C21.2962 24.3988 21.646 24.4873 22.0533 24.567C22.5847 24.6644 23.0496 24.7796 23.4481 24.9124C23.8555 25.0452 24.192 25.2179 24.4577 25.4304C24.7233 25.6341 24.9226 25.8954 25.0554 26.2142C25.1883 26.5241 25.2547 26.9049 25.2547 27.3566C25.2547 27.9322 25.0953 28.4281 24.7765 28.8443C24.4577 29.2605 24.037 29.5794 23.5145 29.8007C23.0009 30.0221 22.443 30.1328 21.8408 30.1328ZM33.287 21.1531C33.5172 21.2683 33.6501 21.4498 33.6855 21.6978C33.7298 21.9457 33.6678 22.1715 33.4995 22.3752C33.3844 22.5346 33.2339 22.6232 33.0479 22.6409C32.8708 22.6586 32.6892 22.6232 32.5033 22.5346C32.2907 22.4372 32.0649 22.3619 31.8258 22.3088C31.5956 22.2557 31.352 22.2291 31.0952 22.2291C30.617 22.2291 30.1875 22.3044 29.8067 22.4549C29.4348 22.6055 29.1159 22.8224 28.8503 23.1058C28.5846 23.3803 28.3809 23.708 28.2392 24.0888C28.1064 24.4696 28.04 24.8902 28.04 25.3507C28.04 25.8909 28.1153 26.3603 28.2658 26.7588C28.4252 27.1573 28.6422 27.4894 28.9167 27.7551C29.1912 28.0207 29.5145 28.22 29.8864 28.3528C30.2583 28.4768 30.6613 28.5388 31.0952 28.5388C31.3343 28.5388 31.5734 28.5167 31.8125 28.4724C32.0516 28.4281 32.2819 28.3484 32.5033 28.2333C32.6892 28.1447 32.8708 28.1137 33.0479 28.1403C33.2339 28.1669 33.3888 28.2599 33.5128 28.4193C33.6899 28.6406 33.7519 28.8709 33.6988 29.11C33.6545 29.3402 33.5217 29.5085 33.3003 29.6148C33.07 29.7299 32.8309 29.8273 32.583 29.907C32.3439 29.9779 32.1003 30.031 31.8524 30.0664C31.6044 30.1107 31.352 30.1328 31.0952 30.1328C30.4576 30.1328 29.851 30.031 29.2754 29.8273C28.7086 29.6236 28.1994 29.3225 27.7477 28.924C27.305 28.5255 26.9552 28.0296 26.6983 27.4363C26.4415 26.8341 26.3131 26.1389 26.3131 25.3507C26.3131 24.6689 26.4282 24.0401 26.6585 23.4645C26.8976 22.8889 27.2297 22.3929 27.6548 21.9767C28.0887 21.5516 28.5979 21.224 29.1824 20.9937C29.7668 20.7546 30.4045 20.6351 31.0952 20.6351C31.4849 20.6351 31.8657 20.6794 32.2376 20.7679C32.6095 20.8565 32.9593 20.9849 33.287 21.1531ZM38.5201 22.787L35.6509 29.5351C35.5889 29.7033 35.4914 29.8362 35.3586 29.9336C35.2346 30.0221 35.0974 30.0664 34.9468 30.0664C34.7077 30.0664 34.5306 30 34.4155 29.8672C34.3004 29.7343 34.2428 29.5705 34.2428 29.3757C34.2428 29.296 34.2561 29.2118 34.2826 29.1233L37.5903 21.1797C37.6611 21.0026 37.7674 20.8653 37.9091 20.7679C38.0596 20.6705 38.219 20.6306 38.3873 20.6484C38.5467 20.6484 38.6928 20.6971 38.8256 20.7945C38.9673 20.883 39.0692 21.0114 39.1312 21.1797L42.3989 28.9639C42.4432 29.079 42.4653 29.1853 42.4653 29.2827C42.4653 29.5218 42.3856 29.7122 42.2262 29.8539C42.0757 29.9956 41.9074 30.0664 41.7214 30.0664C41.562 30.0664 41.4159 30.0177 41.2831 29.9203C41.1591 29.8229 41.0617 29.69 40.9909 29.5218L38.1349 22.8667L38.5201 22.787ZM36.0626 27.9145L36.7932 26.3869L40.3798 26.3869L40.6322 27.9145L36.0626 27.9145ZM50.6437 20.7015C50.8562 20.7015 51.0289 20.7723 51.1617 20.914C51.2946 21.0557 51.361 21.2328 51.361 21.4454L51.361 29.1897C51.361 29.4199 51.2813 29.6148 51.1219 29.7742C50.9713 29.9247 50.7809 30 50.5507 30C50.4355 30 50.316 29.9823 50.192 29.9469C50.0769 29.9026 49.9883 29.845 49.9263 29.7742L44.7059 23.1457L45.0513 22.9331L45.0513 29.2561C45.0513 29.4687 44.9804 29.6458 44.8387 29.7875C44.7059 29.9292 44.5288 30 44.3074 30C44.0948 30 43.9222 29.9292 43.7893 29.7875C43.6565 29.6458 43.5901 29.4687 43.5901 29.2561L43.5901 21.5118C43.5901 21.2815 43.6653 21.0911 43.8159 20.9406C43.9753 20.7812 44.1701 20.7015 44.4004 20.7015C44.5244 20.7015 44.6528 20.7281 44.7856 20.7812C44.9184 20.8255 45.0158 20.8963 45.0778 20.9937L50.1389 27.4496L49.9131 27.609L49.9131 21.4454C49.9131 21.2328 49.9795 21.0557 50.1123 20.914C50.2451 20.7723 50.4223 20.7015 50.6437 20.7015ZM57.9181 20.6882C58.0421 20.6882 58.1705 20.7236 58.3033 20.7945C58.445 20.8565 58.5513 20.9406 58.6221 21.0469L61.85 26.0149L61.1858 25.9884L64.4935 21.0469C64.6617 20.8078 64.8787 20.6882 65.1444 20.6882C65.3569 20.6882 65.5473 20.7635 65.7155 20.914C65.8838 21.0646 65.9679 21.2594 65.9679 21.4985L65.9679 29.1897C65.9679 29.4199 65.8927 29.6148 65.7421 29.7742C65.5916 29.9247 65.3923 30 65.1444 30C64.8964 30 64.6927 29.9247 64.5333 29.7742C64.3828 29.6148 64.3075 29.4199 64.3075 29.1897L64.3075 22.9331L64.8255 23.0527L62.1157 27.1839C62.036 27.2813 61.9342 27.3654 61.8102 27.4363C61.695 27.5071 61.5755 27.5381 61.4515 27.5293C61.3364 27.5381 61.2168 27.5071 61.0929 27.4363C60.9777 27.3654 60.8803 27.2813 60.8006 27.1839L58.2635 23.1722L58.6088 22.4682L58.6088 29.1897C58.6088 29.4199 58.538 29.6148 58.3963 29.7742C58.2546 29.9247 58.0686 30 57.8384 30C57.617 30 57.4354 29.9247 57.2938 29.7742C57.1521 29.6148 57.0812 29.4199 57.0812 29.1897L57.0812 21.4985C57.0812 21.2771 57.1609 21.0867 57.3203 20.9273C57.4886 20.7679 57.6878 20.6882 57.9181 20.6882ZM69.6254 29.1897C69.6254 29.4199 69.5413 29.6148 69.373 29.7742C69.2047 29.9247 69.0099 30 68.7885 30C68.5406 30 68.3413 29.9247 68.1908 29.7742C68.0402 29.6148 67.9649 29.4199 67.9649 29.1897L67.9649 21.5118C67.9649 21.2815 68.0446 21.0911 68.204 20.9406C68.3634 20.7812 68.5671 20.7015 68.8151 20.7015C69.0276 20.7015 69.2136 20.7812 69.373 20.9406C69.5413 21.0911 69.6254 21.2815 69.6254 21.5118L69.6254 29.1897ZM73.7883 30.1328C73.2836 30.1328 72.8142 30.031 72.3803 29.8273C71.9463 29.6236 71.5921 29.3314 71.3176 28.9506C71.2113 28.7912 71.1582 28.6362 71.1582 28.4857C71.1582 28.2643 71.2423 28.0783 71.4106 27.9278C71.5877 27.7772 71.7604 27.7019 71.9286 27.7019C72.0615 27.7019 72.1899 27.7418 72.3139 27.8215C72.4467 27.9012 72.5662 27.9942 72.6725 28.1004C72.8496 28.2599 73.0223 28.375 73.1906 28.4458C73.3677 28.5078 73.5669 28.5388 73.7883 28.5388C74.054 28.5388 74.302 28.4724 74.5322 28.3396C74.7625 28.2067 74.9484 28.0296 75.0901 27.8082C75.2318 27.5868 75.3027 27.3477 75.3027 27.0909L75.3027 21.5118C75.3027 21.2815 75.3868 21.0911 75.555 20.9406C75.7233 20.7812 75.9181 20.7015 76.1395 20.7015C76.3875 20.7015 76.5867 20.7812 76.7373 20.9406C76.8878 21.0911 76.9631 21.2815 76.9631 21.5118L76.9631 27.0909C76.9631 27.6311 76.8214 28.1314 76.538 28.5919C76.2547 29.0524 75.8739 29.4244 75.3956 29.7078C74.9174 29.9911 74.3817 30.1328 73.7883 30.1328ZM79.7362 27.0643C79.4351 27.0643 79.2712 26.8961 79.2447 26.5596L78.8594 21.6712C78.8417 21.3967 78.9126 21.1664 79.072 20.9804C79.2402 20.7945 79.4572 20.7015 79.7229 20.7015C79.9886 20.7015 80.2055 20.7945 80.3738 20.9804C80.542 21.1664 80.6129 21.3967 80.5863 21.6712L80.2144 26.5596C80.1878 26.8961 80.0284 27.0643 79.7362 27.0643ZM79.6432 30C79.3864 30 79.1871 29.9336 79.0454 29.8007C78.9126 29.6591 78.8462 29.4598 78.8462 29.203L78.8462 28.9772C78.8462 28.7203 78.9126 28.5255 79.0454 28.3927C79.1871 28.251 79.3864 28.1801 79.6432 28.1801L79.8159 28.1801C80.0727 28.1801 80.2675 28.251 80.4003 28.3927C80.542 28.5255 80.6129 28.7203 80.6129 28.9772L80.6129 29.203C80.6129 29.4598 80.542 29.6591 80.4003 29.8007C80.2675 29.9336 80.0727 30 79.8159 30L79.6432 30Z" fill="white"/>
<path d="M59.3333 46.9353H40.7363L45.4937 56.3418C48.8556 62.6586 50.7454 62.7253 54.1435 56.3418L59.3333 46.9353Z" fill="#BB76FF"/>
</svg>
