<?xml version="1.0" encoding="UTF-8"?>
<svg id="Layer_1" data-name="Layer 1" xmlns="http://www.w3.org/2000/svg" xmlns:xlink="http://www.w3.org/1999/xlink" viewBox="0 0 2962.63 1418.12">
  <defs>
    <style>
      .cls-1 {
        fill: #1c5790;
      }

      .cls-2 {
        fill: #4e3826;
      }

      .cls-3 {
        fill: #334658;
      }

      .cls-4 {
        fill: #e50009;
      }

      .cls-5 {
        fill: #fdf9ef;
      }

      .cls-6 {
        fill: #462a14;
      }

      .cls-7 {
        fill: #1e568c;
      }

      .cls-8 {
        fill: #f8c985;
      }

      .cls-9 {
        fill: #f9bd2e;
      }

      .cls-10 {
        mask: url(#mask-1);
      }

      .cls-11 {
        fill: #803684;
      }

      .cls-12 {
        fill: #de522a;
      }

      .cls-13 {
        fill: #6a5139;
      }

      .cls-14 {
        fill: #ecba4a;
      }

      .cls-15 {
        fill: #1c5891;
      }

      .cls-16 {
        fill: #e04e2b;
      }

      .cls-17 {
        fill: #fff;
      }

      .cls-18 {
        mask: url(#mask);
      }

      .cls-19 {
        fill: #c38e47;
      }

      .cls-20 {
        fill: #4d3824;
      }

      .cls-21 {
        fill: #efeaea;
      }

      .cls-22 {
        fill: #085ba6;
      }

      .cls-23 {
        fill: #473728;
      }

      .cls-24 {
        fill: #e9e8e6;
      }

      .cls-25 {
        fill: #1c578f;
      }

      .cls-26 {
        fill: #e8722b;
      }

      .cls-27 {
        fill: #dd4d2b;
      }

      .cls-28 {
        fill: #dc4d2a;
      }

      .cls-29 {
        fill: #684f38;
      }

      .cls-30 {
        fill: #1c9c9a;
      }

      .cls-31 {
        fill: #c57e48;
      }

      .cls-32 {
        fill: #b80282;
      }

      .cls-33 {
        mask: url(#mask-2);
      }

      .cls-34 {
        fill: #c89049;
      }

      .cls-35 {
        filter: url(#drop-shadow-1);
      }

      .cls-36 {
        fill: #422811;
      }

      .cls-37 {
        fill: #543e28;
      }

      .cls-38 {
        fill: #5a2c15;
      }

      .cls-39 {
        fill: #593e20;
      }

      .cls-40 {
        fill: #ca9249;
      }

      .cls-41 {
        fill: #e4a5aa;
      }

      .cls-42 {
        fill: #eeba4b;
      }

      .cls-43 {
        fill: #583520;
      }

      .cls-44 {
        fill: #db672c;
      }

      .cls-45 {
        fill: #f3b13f;
      }

      .cls-46 {
        fill: #523d28;
      }

      .cls-47 {
        fill: #ea722b;
      }

      .cls-48 {
        fill: #0289cf;
      }

      .cls-49 {
        fill: #e1522b;
      }

      .cls-50 {
        fill: #493827;
      }

      .cls-51 {
        fill: #52402c;
      }

      .cls-52 {
        fill: #f7f6f8;
      }

      .cls-53 {
        fill: #e85706;
      }

      .cls-54 {
        fill: #4d3b28;
      }

      .cls-55 {
        fill: #1d5891;
      }

      .cls-56 {
        fill: #ed9305;
      }

      .cls-57 {
        fill: #efbb4a;
      }

      .cls-58 {
        fill: #f3b126;
      }

      .cls-59 {
        fill: #c77f48;
      }

      .cls-60 {
        fill: #f9f7f9;
      }

      .cls-61 {
        fill: #f6f5f6;
      }

      .cls-62 {
        fill: #4b3826;
      }

      .cls-63 {
        fill: #432a15;
      }

      .cls-64 {
        fill: #bf7b46;
      }

      .cls-65 {
        fill: #529695;
      }

      .cls-66 {
        fill: rgba(255, 255, 255, .4);
        opacity: .39;
      }

      .cls-67 {
        fill: #df4e2b;
      }

      .cls-68 {
        fill: #f7cb95;
      }

      .cls-69 {
        fill: #f5f3f4;
      }

      .cls-70 {
        fill: #f6f7f9;
      }

      .cls-71 {
        fill: #654627;
      }

      .cls-72 {
        fill: #94bf28;
      }

      .cls-73 {
        fill: #f5b328;
      }

      .cls-74 {
        fill: #d0401d;
      }

      .cls-75 {
        fill: #2da969;
      }
    </style>
    <filter id="drop-shadow-1" x="-22.04" y="-20.09" width="3010.8" height="1466.4" filterUnits="userSpaceOnUse">
      <feOffset dx="2" dy="4"/>
      <feGaussianBlur result="blur" stdDeviation="8"/>
      <feFlood flood-color="#000" flood-opacity=".25"/>
      <feComposite in2="blur" operator="in"/>
      <feComposite in="SourceGraphic"/>
    </filter>
    <mask id="mask" x="286.83" y="1184.86" width="2398.37" height="234.5" maskUnits="userSpaceOnUse">
      <g id="mask0_1165_1486" data-name="mask0 1165 1486">
        <path class="cls-17" d="M2685.19,1184.86H286.83v234.5h2398.37v-234.5Z"/>
      </g>
    </mask>
    <mask id="mask-1" x="292.04" y="1188.77" width="2387.94" height="230.43" maskUnits="userSpaceOnUse">
      <g id="mask1_1165_1486" data-name="mask1 1165 1486">
        <path class="cls-17" d="M292.04,1188.77h2387.94v230.43H292.04v-230.43Z"/>
      </g>
    </mask>
    <mask id="mask-2" x="-107.91" y="-93.15" width="3213.89" height="1223.28" maskUnits="userSpaceOnUse">
      <g id="mask2_1165_1486" data-name="mask2 1165 1486">
        <path class="cls-17" d="M3105.98-93.15H-107.91v1223.28h3213.89V-93.15Z"/>
      </g>
    </mask>
  </defs>
  <g class="cls-35">
    <g>
      <path class="cls-60" d="M1753.97,780.62c2.89,3.05,6.73,12.66,8.66,13.38,4.2,1.52,19.16-2.78,28.51-.81,47.32,10.05,45.3,95.06-14.95,74.14-9.27-3.23-24.75-21.54-27.64-21.54-1.23,0-11.81,7.99-16.79,9.52-20.29,6.29-43.29,1.35-58.07-14.72-11.02,9.16-21.34,18.04-36.21,19.48-64.89,6.2-52.3-78.09,3.41-76.65,6.21.18,21.78,7.72,24.14,7,.96-.27,10.15-12.66,14.43-15.62,19.94-13.55,57.63-12.39,74.6,5.65l-.09.18Z"/>
      <path class="cls-69" d="M1750.83,860.42c.7.45,1.23,3.68,2.89,5.03,8.57,7.09,15.83,10.95,26.5,13.82,19.16,5.21,20.91-3.77,19.5,25.4-6.64-2.87-13.03-6.46-19.94-8.89-50.46-18.13-117.81-15.8-169.23-3.5l5.16-23.16c16.8,3.95,30,1.26,45.13-6.19,3.32-1.62,9.53-7.36,11.54-7.72,2.36-.45,11.72,6.55,15.74,8.17,11.37,4.49,27.29,5.2,39.36,3.77,6.12-.72,20.11-8.62,23.35-6.64v-.09Z"/>
      <path class="cls-34" d="M1834.18,1057.54c1.49-.9,13.38-21.91,21.25-27.2,19.15-12.93-1.75,19.83-5.34,24.77-3.85,5.12-15.48,12.12-4.28,16.97,3.41-4.13,28.34-25.22,32.09-21.37,2.54,10.77-27.02,28.01-26.06,32.94,2.45,9.16,28.68-12.75,25.98,0-1.14,5.47-17.58,10.95-20.38,13.82-10.67,10.95-4.2,9.16-21.16,18.4-2.18,1.17-3.59,4.31-5.42,5.21-5.68,2.78-18.72-1.71-22.47-7.18-1.49-4.04,6.12-2.6,5.16-7.09-.35-1.8-13.82-7.99-17.67-19.21-1.49-4.13-8.74-40.75-8.13-42.91,1.66-6.73,9.01-.63,11.19,2.33,4.03,5.38,2.89,10.51,5.25,14.18,2.01,3.14,9.36,5.47,11.63,11.22,1.4,3.68,1.14,19.84,9.8,13.65,3.67-2.61-.35-14.45-2.01-18.05-2.1-4.58-11.11-12.03-11.2-12.84-.35-3.14,10.76-23.07,13.29-26.83,9.88-14.64,17.41-16.88,10.93,4.12-1.48,4.85-11.11,21.37-10.93,22.62.53,2.51,6.12,3.68,8.4,2.43h.09Z"/>
      <path class="cls-57" d="M1605.03,1006.55c.79,1.08,1.49,8.62,2.98,12.12,7.26,16.97,16.36,28.73,32.01,38.33-10.49,16.43-45.57,5.65-57.28-5.3-19.77-18.58-10.85-44.52-3.42-66.78,5.25,4.66,6.91,11.58,12.95,16.07,3.23,2.33,12.24,5.03,12.68,5.65l.08-.09Z"/>
      <path class="cls-14" d="M1789.31,1032.85c-.96-.9,8.31-23.61,9.53-24.95,2.18-2.33,9.1-3.59,12.85-6.37,4.64-3.32,6.21-8.26,10.5-11.49-.79,6.37,4.54,16.07,3.15,21.81-1.4,5.75-15.56,22.26-17.93,29.8-5.07-5.3-10.41-10.15-18.19-8.89l.09.09Z"/>
      <path class="cls-26" d="M1676.48,1089.86c-2.62,7.18,12.51,19.21,12.07,21.99-1.13,6.64-25.62,18.85-31.22,14.63-8.49-6.37,6.47-37.97,19.15-36.62Z"/>
      <path class="cls-47" d="M1721.61,1091.65c8.31,2.33,16.79,10.86,18.36,19.57.79,4.4-1.22,18.4-5.59,19.39-6.47,1.52-22.57-13.11-26.68-18.49,5.42-6.01,13.29-11.49,13.9-20.47Z"/>
      <path class="cls-47" d="M1695.11,1074.23c20.2-6.28,24.4,27.92,4.64,29.98-14.87,1.53-20.73-24.95-4.64-29.98Z"/>
      <path class="cls-26" d="M1722.05,1082.31c-1.14-.72-4.2-8.26-5.6-10.24,7.52.72,31.92-10.14,36.38-8.08,2.54,1.17,6.03,7,8.74,8.98-5.25,9.61-31.75,14.1-39.44,9.34h-.09Z"/>
      <path class="cls-26" d="M1683.48,1070.29c-4.72,21-33.67,13.02-41.72-.9,6.47-16.42,28.16,3.5,41.72.9Z"/>
      <path class="cls-14" d="M1782.4,1072.08c-1.84,2.07-17.84-11.67-20.82-13.38l16.53-15.08,4.28,28.45Z"/>
      <path class="cls-2" d="M1700.79,892.2c-8.13-.54-17.75-.27-26.06,0,6.82-3.05,19.59-2.96,26.06,0Z"/>
      <path class="cls-2" d="M1711.2,893.99c1.75-10.77,4.72-.27,5.25,0h-5.25Z"/>
      <path class="cls-2" d="M1660.92,893.99c-.96-5.57,4.54-5.3,3.5,0-1.14,0-2.36-.09-3.5,0Z"/>
      <path class="cls-40" d="M1777.67,939.33c1.22,1.08,3.23,2.87,6.64,5.84,5.16,4.39,7.61,6.19,8.49,7,7.08,6.28,3.76,24.33,1.84,32.67-4.11,17.95-8.05,35.28-22.04,51.08-28.16,31.69-73.9,30.43-103.11,22.89-57.29-14.81-64.11-63.46-53.61-116.51,42.94-.45,84.22-14,116.75-42.81,12.95,17.95,22.13,25.49,28.34,28.9,2.54,1.44,9.53,4.85,16.53,10.95h.18Z"/>
      <path class="cls-42" d="M1676.75,891.03c7.08-.45,12.42-.27,21.52,0,5.69.18,10.06.45,13.03.72,2.1.18,3.85.27,5.25.45.79,0,3.76.09,4.99,2.16.09.18.18.36.26.54-2.1,2.51-5.34,6.11-9.8,9.78-7.17,5.92-13.46,8.89-28.51,14.81-25.19,9.87-37.96,14.9-44.35,14-6.73-.9-10.67-.72-18.54-.36-7.17.27-9.71.98-11.54,2.87-3.5,3.86-.61,8.89-3.67,13.01-1.75,2.43-5.68,4.67-14.87,3.77,1.93-7.9,4.37-16.52,7.35-25.49,3.15-9.34,6.47-17.86,9.88-25.59,24.84-6.73,36.82-8.44,43.11-8.71,1.23,0,6.47-.27,13.82-.81,7.43-.53,7.43-.8,12.24-1.07l-.18-.09Z"/>
      <path class="cls-14" d="M1802.69,919.39c2.88,3.77,7.17,24.23,6.56,29.8-19.24-11.85-41.19-20.74-56.41-38.33-1.31-1.52-9.97-12.2-8.74-13.28,14.08,1.52,49.76,10.59,58.51,21.9l.09-.09Z"/>
      <path class="cls-19" d="M1801.46,956.29c19.68,4.66,16.44,36.98-1.75,40.93.18-1.26.35-2.43.43-3.68,1.49-13.02,1.84-25.49,1.23-37.25h.09Z"/>
      <path class="cls-19" d="M1603.63,958.08v37.43c-17.84-4.39-20.64-35.1,0-37.43Z"/>
      <path class="cls-2" d="M1700.36,988.69c-1.66.9-2.71,2.96-2.79,4.94-.18,2.51,1.22,4.4,1.57,4.85,1.31,1.8,2.62,1.89,2.97,3.41.26.99.18,2.24-.7,2.96-.79.72-1.93.54-2.36.54-2.98-.36-6.91-4.13-8.05-9.06-.18-.63-1.57-7.45,2.8-11.49,2.18-2.07,5.68-3.23,8.39-2.34.44.18,2.19.72,3.06,2.34.18.36.7,1.34.26,2.24-.26.53-.87.8-1.23.9-.79.27-1.23,0-2.19.09-.87,0-1.48.45-1.92.72l.17-.09Z"/>
      <path class="cls-52" d="M1652.17,1187.88l3.5-51.7c18.45,1.62,31.22-7.72,42.5-21.36,14.34,21,52.39,42.91,51.34-.9-.26-9.96-5.16-14.09-8.83-22.26,8.66,5.03,28.68-13.65,30.34-13.82,5.34-.45,21.34,21.09,21.52,27.1.26,8.98-7.78,26.03-6.73,36.54l-5.08-15.26c-3.41-2.33-6.82-.09-7.08,3.68l5.25,57.81h-126.73v.18ZM1679.99,1158.16c0-3.68-2.89-6.55-6.39-6.55s-6.39,2.96-6.39,6.55,2.89,6.56,6.39,6.56,6.39-2.96,6.39-6.56ZM1734.3,1160.23c0-3.77-2.98-6.83-6.65-6.83s-6.64,3.05-6.64,6.83,2.97,6.82,6.64,6.82,6.65-3.05,6.65-6.82Z"/>
      <path class="cls-61" d="M1581.07,1186.08c-.87-33.57,10.41-66.16,31.31-91.65,2.71-3.32,17.23-18.85,19.94-18.85,3.15,0,17.32,16.79,25.19,14.36-4.11,6.46-9.27,12.57-10.24,20.65l-3.59,77.29c-7.52-.45-15.04-.81-22.56-1.26,1.13-22.17,2.27-44.34,3.5-66.51-3.15,0-7.26-.81-8.4,2.96l-3.67,63.01h-31.48Z"/>
      <path class="cls-61" d="M1787.56,1189.68l11.28-71.27c12.86,10.86,26.24,17.06,42.5,8.98l-6.91,62.3h-46.88Z"/>
      <path class="cls-39" d="M1727.73,1167.05c3.67,0,6.65-3.05,6.65-6.82s-2.98-6.83-6.65-6.83-6.64,3.06-6.64,6.83,2.98,6.82,6.64,6.82Z"/>
      <path class="cls-39" d="M1673.6,1164.72c3.53,0,6.39-2.93,6.39-6.55s-2.86-6.56-6.39-6.56-6.38,2.94-6.38,6.56,2.85,6.55,6.38,6.55Z"/>
      <path class="cls-51" d="M1661.35,986.99c5.9,0,10.67-7.44,10.67-16.6s-4.77-16.6-10.67-16.6-10.67,7.43-10.67,16.6,4.78,16.6,10.67,16.6Z"/>
      <path class="cls-24" d="M1665.06,973.6c2.45-.3,4.04-3.89,3.56-8.03-.48-4.14-2.85-7.24-5.3-6.95-2.45.3-4.04,3.9-3.56,8.03.48,4.14,2.85,7.24,5.3,6.95Z"/>
      <path class="cls-51" d="M1740.5,987.08c5.9,0,10.67-7.47,10.67-16.69s-4.77-16.7-10.67-16.7-10.67,7.47-10.67,16.7,4.78,16.69,10.67,16.69Z"/>
      <path class="cls-24" d="M1744.34,974.27c2.45-.3,4.02-4.05,3.51-8.39-.5-4.33-2.89-7.6-5.34-7.3-2.45.3-4.02,4.05-3.51,8.38.5,4.33,2.89,7.6,5.34,7.3Z"/>
      <path class="cls-51" d="M1701.24,1031.77h-.43c-13.38-.09-22.83-6.46-27.29-10.23-1.31-1.08-1.49-3.05-.43-4.4s2.98-1.53,4.28-.45c3.85,3.23,11.98,8.71,23.53,8.8,11.37.18,19.59-5.03,23.44-8.17,1.31-1.08,3.24-.81,4.28.53,1.05,1.35.79,3.32-.52,4.4-4.46,3.59-13.82,9.52-26.85,9.52Z"/>
      <path class="cls-54" d="M1808.02,876.76c2.36,19.39,5.6,40.13,10.06,62.03,4.81,23.88,10.41,46.05,16.36,66.24,11.19,1.89,15.13,7,13.99,18.94,16.7-14.27,31.22,1.52,20.81,19.57,13.56-5.21,20.82,1.7,16.53,16.15-.96,3.42-6.47,8.08-6.3,11.4,0,1.26,11.02,2.33,6.12,16.97-3.32,9.69-16.7,12.03-21.16,16.6-2.62,2.6-1.31,3.77-3.94,7.54-3.76,5.57-8.39,8.98-11.89,10.95.52,5.3,1.05,10.5,1.57,15.8-3.24,18.67-6.39,37.35-9.62,56.11-89.03-.54-178.07-1.08-267.1-1.62-.87-7-1.4-15.98-.7-26.39.35-4.31,1.14-12.39,3.5-22.26,1.4-5.74,5.34-20.28,14.87-36.89,8.66-14.99,18.46-25.85,26.33-33.21-4.2-.63-42.33-6.19-52.39-31.69-7.26-18.49-3.41-32.59,1.57-50.72,11.63-41.92,31.57-82.67,40.41-125.85-50.38-28.9-17.06-94.43,33.76-93.8,5.51,0,17.84,5.11,19.15,5.03,1.05,0,13.56-11.67,17.31-13.83,23.53-13.28,58.69-12.39,79.85,5.48,4.2,3.5,4.81,10.14,11.28,13.37,7.26,3.68,12.94.27,20.29.27,16.44,0,33.49,16.88,39.62,35.28,1.14,3.42,7.7,24.24-4.02,43.09-5.25,8.44-12.16,13.11-16.27,15.44ZM1753.97,780.63c-16.97-18.04-54.66-19.3-74.6-5.65-4.28,2.96-13.47,15.26-14.43,15.62-2.36.72-17.84-6.91-24.13-7-55.72-1.44-68.31,82.76-3.42,76.65,14.87-1.44,25.19-10.32,36.21-19.48,14.78,15.98,37.69,21,58.07,14.72,5.08-1.52,15.66-9.52,16.79-9.52,2.89,0,18.37,18.32,27.64,21.54,60.26,20.92,62.27-64.09,14.95-74.14-9.27-1.97-24.22,2.33-28.51.81-1.92-.72-5.77-10.32-8.66-13.38l.09-.18ZM1750.83,860.43c-3.24-1.97-17.14,5.84-23.35,6.64-12.07,1.44-27.99.71-39.36-3.77-4.02-1.62-13.38-8.53-15.74-8.17-2.01.36-8.31,6.11-11.54,7.72-15.13,7.45-28.34,10.14-45.13,6.19l-5.16,23.16c51.43-12.29,118.85-14.63,169.23,3.5,6.91,2.51,13.21,6.01,19.94,8.89,1.4-29.08-.44-20.2-19.5-25.4-10.67-2.87-17.93-6.73-26.5-13.82-1.66-1.35-2.18-4.58-2.88-5.03v.09ZM1660.92,894c-18.11,1.62-36.12,3.14-53.44,9.33.18,4.04-19.15,49.55-15.13,49.55,2.01-1.44,12.42-3.23,12.86-3.77.87-.99-.62-13.91,2.1-15.62,1.66-.99,26.85-1.53,31.66-2.24,29.12-4.22,61.48-14.9,82.65-36.27l-10.41-1.88c-1.75-.27-4.46-.54-7.78-.81-13.03-.99-23.7,0-33.49.81-2.19.18-5.25.54-9.1.98l.09-.09ZM1802.68,919.4c-8.74-11.31-44.43-20.38-58.51-21.91-1.22,1.08,7.44,11.76,8.74,13.29,15.22,17.59,37.17,26.48,56.41,38.33.52-5.57-3.67-26.03-6.56-29.8l-.09.09ZM1778.37,942.74c-11.46-7.54-17.32-11.13-18.54-12.21-10.5-8.98-18.55-20.37-27.11-31.15-32.53,28.81-73.9,42.37-116.76,42.82-10.58,53.05-3.67,101.7,53.61,116.51,39.88,10.32,79.85,3.68,103.11-22.89,16.18-18.4,18.98-43.53,20.11-51.97,1.75-13.02,1.05-24.06,0-31.69-3.32-2.15-8.39-5.47-14.51-9.51l.09.09ZM1801.46,956.29c.61,11.76.26,24.24-1.23,37.25-.18,1.26-.26,2.51-.43,3.68,18.19-4.04,21.42-36.35,1.75-40.93h-.09ZM1603.63,958.09c-20.64,2.33-17.84,33.03,0,37.43v-37.43ZM1605.03,1006.56c-.44-.63-9.45-3.32-12.68-5.66-6.12-4.39-7.78-11.4-12.94-16.07-7.44,22.26-16.36,48.3,3.41,66.79,11.72,10.95,46.79,21.72,57.28,5.29-15.65-9.52-24.75-21.36-32.01-38.32-1.48-3.42-2.18-11.04-2.97-12.12l-.09.09ZM1789.3,1032.86c7.79-1.35,13.12,3.59,18.19,8.88,2.36-7.54,16.62-24.14,17.93-29.8,1.31-5.65-4.03-15.35-3.15-21.81-4.28,3.23-5.86,8.08-10.49,11.49-3.85,2.78-10.67,4.04-12.85,6.37-1.31,1.35-10.59,23.96-9.54,24.95l-.09-.09ZM1834.17,1057.55c-2.28,1.34-7.87.09-8.4-2.43-.26-1.25,9.45-17.77,10.93-22.62,6.47-21-1.14-18.76-10.93-4.12-2.54,3.77-13.73,23.69-13.29,26.83.09.9,9.1,8.35,11.2,12.84,1.66,3.68,5.68,15.44,2.01,18.05-8.66,6.19-8.39-9.97-9.8-13.65-2.27-5.75-9.62-8.08-11.63-11.22-2.36-3.77-1.23-8.89-5.25-14.18-2.27-2.96-9.53-9.06-11.19-2.33-.52,2.16,6.73,38.69,8.13,42.91,3.93,11.22,17.31,17.51,17.67,19.21.87,4.39-6.65,3.05-5.16,7.09,3.76,5.47,16.88,9.87,22.47,7.18,1.84-.9,3.15-4.04,5.42-5.21,16.97-9.16,10.5-7.45,21.17-18.4,2.79-2.87,19.24-8.44,20.38-13.82,2.71-12.75-23.62,9.16-25.98,0-1.05-4.94,28.51-22.17,26.06-32.95-3.76-3.86-28.78,17.24-32.1,21.37-11.2-4.85.52-11.85,4.28-16.97,3.76-5.12,24.57-37.7,5.33-24.77-7.87,5.29-19.77,26.3-21.25,27.2h-.09ZM1782.4,1072.09l-4.28-28.46-16.53,15.08c2.97,1.7,18.97,15.44,20.81,13.38ZM1683.48,1070.29c-13.55,2.6-35.24-17.32-41.72-.9,8.05,13.91,37,21.9,41.72.9ZM1722.05,1082.32c7.69,4.76,34.28.27,39.45-9.33-2.71-1.89-6.21-7.81-8.75-8.98-4.45-2.07-28.86,8.79-36.38,8.08,1.4,1.97,4.46,9.6,5.6,10.23h.09ZM1695.11,1074.24c-16.01,4.94-10.14,31.42,4.64,29.98,19.77-1.97,15.57-36.17-4.64-29.98ZM1581.07,1186.09h31.22l3.67-63.01c1.14-3.68,5.34-2.96,8.4-2.96-.7,22.17-1.4,44.34-2.19,66.51,7.09.09,14.17.18,21.34.36l3.59-76.48c1.05-8.08,6.13-14.18,10.24-20.65-7.87,2.51-21.95-14.36-25.19-14.36-2.71,0-17.14,15.44-19.94,18.85-20.91,25.58-32.19,58.07-31.31,91.65l.18.09ZM1652.17,1187.88h126.73l-5.25-57.8c.35-3.86,3.76-6.11,7.08-3.69l5.07,15.26c-1.05-10.51,7-27.65,6.74-36.53-.18-6.11-16.18-27.56-21.52-27.11-1.66.18-21.69,18.85-30.35,13.82,3.59,8.17,8.57,12.3,8.83,22.26,1.05,43.8-36.99,21.9-51.34.9-11.28,13.64-24.14,22.98-42.5,21.36l-3.5,51.71v-.18ZM1676.48,1089.86c-12.68-1.35-27.72,30.25-19.15,36.62,5.6,4.22,30.09-7.99,31.22-14.63.43-2.78-14.61-14.81-12.07-21.99ZM1721.61,1091.65c-.53,8.98-8.49,14.45-13.91,20.47,4.11,5.3,20.29,20.02,26.68,18.5,4.37-.99,6.39-14.99,5.6-19.39-1.57-8.71-10.06-17.23-18.36-19.57ZM1787.55,1189.67h46.88l6.91-62.29c-16.27,8.08-29.65,1.97-42.5-8.98l-11.29,71.27Z"/>
      <path class="cls-38" d="M942.28,952.79c1.57-9.96.61-18.04-.96-24.23-4.55-17.32-14.26-19.3-16.88-35.82-1.66-10.77.79-21-2.54-22.08-1.49-.54-3.33,1.25-4.03,1.97-9.71,9.33-27.9,21.9-37.35,26.57-12.51,6.11-25.1,5.65-34.11,5.38-10.05-.36-17.84-2.33-19.76-2.87-12.07-3.23-18.28-7.72-36.12-12.57-2.1-.54-3.84-.99-4.98-1.26-2.54,8.26-4.89,16.97-7.08,26.21-3.41,14.54-5.86,28.19-7.52,40.93-4.02.72-13.03,1.71-20.81-3.59-12.51-8.52-15.13-28.45-9.44-39.58,2.01-3.95,4.37-5.48,6.21-11.04,2.62-8.08,1.05-15.26.79-17.32-2.98-18.05,22.13-47.31,39.35-61.94,20.82-17.68,42.42-25.4,56.68-29,5.95-1.44,33.23-7.81,66.2.45,15.04,3.77,30.44,7.9,37.08,21.27,1.66,3.32,6.74,13.46,3.5,23.69-2.1,6.56-6.91,11.13-4.98,14.45,1.05,1.97,3.41,1.44,7.17,2.87,5.86,2.24,10.67,7.54,12.68,12.57,3.41,8.79-.62,19.93-1.75,23.16-1.23,3.41-2.71,6.1-2.01,9.78.79,3.95,3.41,5.38,5.51,8.17,7.69,10.14,2.71,30.34-6.13,38.33-1.57,1.44-3.15,2.42-3.41,2.51-6.03,3.59-12.15,3.41-15.3,2.96Z"/>
      <path class="cls-70" d="M699.92,1078.37c3.85-1.44,8.05-3.14,12.51-5.3,4.9-2.33,9.27-4.85,13.21-7.27,4.72,9.25,7.61,16.79,9.36,22.18,0,0,2.54,7.54,9.1,19.03,1.05,1.79,2.62,4.49,3.59,4.12,1.31-.45.52-6.28.43-7.27-.52-6.37,8.49-18.58,48.98-44.25-1.75,12.03-2.8,20.83-3.32,27.56-.35,3.68-.7,8.52-4.2,11.49-2.71,2.33-5.16.63-8.74,3.23-10.05,7-14.34,17.32-12.77,29.71.43,3.32,7.17,19.66,8.92,20.92,5.07,3.59,11.37-1.08,9.09-7.45-1.04-2.96-8.48-1.25-10.41-11.85-6.39-35.36,37.87-35.45,36.29-5.3-.79,14.72-8.22,11.31-11.19,15.35-4.9,6.64.96,12.48,8.13,9.78,1.05-.36,7.78-15.08,8.57-17.51,4.11-13.28,0-25.94-11.28-33.75-7.44-5.11-10.32,1.62-9.01-13.19.87-9.78,6.12-34.2,18.28-32.85,3.15,30.97,12.42,65.8,27.2,93.08,2.71,5.03,9.97,21.19,15.57,13.28,20.2-28.63,32.01-70.02,37.87-104.57,11.37,7.27,16.18,39.85,12.5,51.25-1.22,3.68-7.17,3.86-9.71,6.91-12.94,14.99,8.13,35.9,21.08,19.66,11.46-14.45-5.51-21.46-5.69-22.8-.26-2.15,1.92-6.1,2.01-9.15.18-7.54.52-13.38-1.93-25.49-.7-3.41-1.75-8.08-3.5-13.65,6.91,4.49,15.39,11.13,23.79,20.47,6.12,6.82,10.76,13.46,14.17,19.3,2.8,7.99,5.69,15.98,8.49,23.97.26,4.49.52,8.98.79,13.46-.7,6.55-1.23,13.64-1.49,21-.35,8.61-.26,16.79,0,24.41h-16.53c0-12.03.09-24.41.44-37.08.35-12.29.79-24.32,1.4-36.08h-5.51l-3.67,73.16c-57.37.36-114.75.72-172.12.98v-42.28c-1.84.63-3.67,1.26-5.51,1.89-2.01.99-4.98,2.33-8.66,3.77-6.64,2.51-10.58,4.04-15.57,3.95-2.71,0-7.7-.54-13.56-3.95-4.9-3.42-11.02-8.44-16.79-15.71-10.06-12.56-14-25.49-15.75-33.03-1.49-4.31-2.97-10.05-3.41-16.7-.18-2.78-.18-5.38,0-7.72h18.72l-.18.27Z"/>
      <path class="cls-3" d="M857.36,1102.7c-2.01,10.95,7,26.66,5.51,36.44-.43,2.78-7.87,16.52-10.93,14.18-.61-.45-6.3-13.91-6.56-14.99-2.71-10.86,5.51-24.24,4.72-35.63h7.26Z"/>
      <path class="cls-65" d="M888.49,1057.72c1.05,1.17-3.93,27.47-5.25,31.15-.52,1.44.18,3.95-2.89,2.51-3.84-1.7-11.8-13.65-18.1-14.81l-1.14-3.86c10.49-2.78,15.74-15.35,27.46-14.99h-.09Z"/>
      <path class="cls-65" d="M844.33,1078.1c-.53.9-16.27,11.4-18.02,9.6l-3.67-29.98,21.08,14.9c1.05,1.53,1.49,3.86.62,5.38v.09Z"/>
      <path class="cls-65" d="M870.21,1127.11c-2.89,3.23-3.15-.72-3.67-2.69-3.5-11.94-4.28-23.16,0-34.74,1.4-1.35,12.51,6.01,12.68,10.23,0,1.44-8.13,26.21-9.1,27.29l.09-.09Z"/>
      <path class="cls-65" d="M840.91,1089.59c4.81,10.77,3.24,19.93,0,31.06-.61,2.06-.79,5.92-3.67,2.7-.96-.99-7.52-25.59-7.17-26.93.52-1.88,9.53-8.07,10.75-6.82h.09Z"/>
      <path class="cls-3" d="M848.7,1094.71c-11.11-10.86,6.56-21.99,13.38-10.68,3.15,5.11-6.39,17.5-13.38,10.68Z"/>
      <path class="cls-64" d="M908.78,1134.38c4.34,0,7.87-3.62,7.87-8.08s-3.53-8.08-7.87-8.08-7.87,3.62-7.87,8.08,3.53,8.08,7.87,8.08Z"/>
      <path class="cls-64" d="M866.54,1061.5c-8.57,10.68-17.67,12.29-25.62,0h25.62Z"/>
      <path class="cls-63" d="M683.4,1080.25c.09,1.88-.18,3.77,0,5.65-5.07,1.17-6.65-5.38,0-5.65Z"/>
      <path class="cls-31" d="M703.5,962.12c5.6,3.86,4.11,42.45,6.74,50.26,2.8,8.44,12.51,7.45,15.74,15.8,10.24,25.94-15.13,48.38-39.7,44.34-9.71-1.62-34.72-21-27.64-31.87,3.67-5.57,25.1,8.98,21.16,13.19-1.31,1.44-11.63-2.87-14.6-1.88-5.08,5.2,13.12,14.36,20.29,4.76,1.49-1.98,1.4-5.75,1.93-6.37,2.18-1.97,18.1,2.6,19.85-3.14,3.32-10.86-9.36-3.05-11.98-2.78-12.51,1.17-11.29-13.2,3.59-12.93,3.32,0,21.25,7.45,19.41-1.07-1.66-7.63-26.94-2.7-30-3.32-.96-.18-15.22-9.61-16.71-10.77-6.12-4.85-27.29-34.74-26.68-42.18.44-5.48,4.37-5.66,8.4-2.96,8.92,5.92,22.13,31.69,31.05,41.38,22.39,24.23,9.71-23.61,10.23-36.27.18-4.04,2.63-18.76,9.01-14.36l-.09.18Z"/>
      <path class="cls-31" d="M679.72,1040.84c-.53.63-13.9-7.72-14.61-8.44-8.13-7.81,8.66-12.47,14.87-3.86,2.71,3.77-.79,7.72-.18,12.21l-.09.09Z"/>
      <path class="cls-59" d="M771.2,992.19c-1.22-.9-8.22,2.16-11.63,1.79-16.7-1.52-25.01-40.66,1.31-35.18,6.03,1.25,7.08,10.68,11.28,5.11,7-9.33,13.21-66.78,15.66-69.29,41.28,21.36,93.67,19.3,129.96-11.22-.87,7.9,1.92,15.26,4.64,22.44,2.71,7.18,12.33,19.3,13.29,23.88,3.23,14.72-.26,56.55-3.85,72.17-16.01,70.46-126.99,69.29-154.63,9.42-1.57-3.41-5.25-18.49-6.12-19.12h.09ZM829.36,925.14c-11.11-11.85-32.97,4.22-26.94,10.77,2.1,2.24,10.24-5.2,13.9-5.65,5.33-.54,8.05,2.43,12.59,3.77,3.67-2.15,2.98-6.1.44-8.88ZM914.19,935.91c2.01-14.9-24.66-20.65-28.95-8.08-4.28,12.57,7.52,1.89,13.38,2.24,6.3.36,8.31,7.81,15.57,5.84ZM829.45,960.78c-5.42-5.84-18.89-4.04-23.09,2.51-2.8,4.31-3.33,9.43,2.54,10.14,2.45-.63,2.1-9.6,12.85-7.54,5.69,1.08,4.29,8.08,10.06,7.54,0-3.68.26-9.78-2.27-12.66h-.09ZM910.52,973.34c4.37-4.67-4.46-14.81-10.93-16.16-13.82-2.78-21.52,14.45-13.73,16.16,3.85.81,6.21-12.57,15.57-6.56,1.22.81,5.42,10.51,9.18,6.56h-.09ZM857.43,993.98c14.26,1.8,12.77-20.64,2.8-20.64-11.19,0,.96,7.99,1.05,8.62.52,4.04-4.99,7.36-3.76,12.02h-.09ZM808.28,992.1c0-6.37-5.07-11.58-11.28-11.58s-11.28,5.21-11.28,11.58,5.07,11.58,11.28,11.58,11.28-5.2,11.28-11.58ZM909.91,981.24c-7.87,2.43-6.64,20.55,1.48,22.17,22.13,4.31,20.12-28.81-1.48-22.17ZM890.05,998.03c-2.18-1.44-30.7,1.97-37.35,1.7-20.29-.81-44.08-14.18-29.91,21.27,11.2,28.01,50.29,30.34,63.5,3.68,2.36-4.85,8.74-23.34,3.67-26.57l.08-.09Z"/>
      <path class="cls-31" d="M941.66,995.87c-1.23-1.25.87-33.21,2.1-35.37,2.37-4.04,17.14-3.23,19.5,4.76,4.11,14.18-7.34,30.16-21.6,30.52v.09Z"/>
      <path class="cls-6" d="M890.05,998.03c4.99,3.23-1.31,21.72-3.67,26.57-13.21,26.66-52.3,24.33-63.5-3.68-14.17-35.37,9.53-22.08,29.91-21.27,6.65.27,35.16-3.14,37.34-1.7l-.09.09ZM829.88,1010.87v1.89c0,.72-2.45,1.34-1.14,5.56,7.7,24.95,46.71,23.34,54.22-2.78l-3.67-.9v-1.88c3.33-.9,8.75-4.22,5.51-7.45-1.13-1.17-23.61,1.97-28.42,1.97-9.01-.18-20.81-3.14-30.17-3.86-1.75,5.03,2.98,6.19,3.67,7.45Z"/>
      <path class="cls-44" d="M909.91,981.25c21.6-6.64,23.61,26.39,1.49,22.17-8.13-1.53-9.36-19.66-1.49-22.17Z"/>
      <path class="cls-44" d="M796.91,1003.69c6.23,0,11.29-5.19,11.29-11.58s-5.05-11.58-11.29-11.58-11.28,5.18-11.28,11.58,5.05,11.58,11.28,11.58Z"/>
      <path class="cls-36" d="M910.52,973.34c-3.76,3.95-7.87-5.75-9.18-6.56-9.27-6.01-11.72,7.36-15.57,6.56-7.69-1.62,0-18.94,13.73-16.16,6.47,1.35,15.31,11.49,10.93,16.16h.09Z"/>
      <path class="cls-6" d="M914.19,935.91c-7.26,1.97-9.27-5.48-15.57-5.84-5.86-.27-17.58,10.05-13.38-2.24,4.2-12.3,30.96-6.83,28.95,8.08Z"/>
      <path class="cls-36" d="M829.36,925.14c2.62,2.78,3.24,6.73-.43,8.89-4.55-1.35-7.26-4.31-12.59-3.77-3.67.36-11.81,7.9-13.9,5.65-6.03-6.46,15.83-22.53,26.93-10.77Z"/>
      <path class="cls-36" d="M829.45,960.78c2.62,2.78,2.36,8.89,2.27,12.66-5.77.54-4.37-6.46-10.05-7.54-10.76-2.06-10.32,6.91-12.86,7.54-5.86-.72-5.34-5.84-2.54-10.14,4.28-6.56,17.67-8.44,23.09-2.51h.09Z"/>
      <path class="cls-36" d="M857.43,993.98c-1.13-4.67,4.37-7.99,3.76-12.03-.09-.72-12.24-8.71-1.05-8.62,9.97,0,11.46,22.53-2.8,20.65h.09Z"/>
      <path class="cls-74" d="M829.88,1012.75c10.85,7.81,23.79-2.87,28.42,13.11.44-15.53,12.07-5.84,21.08-11.22l3.67.9c-7.52,26.03-46.53,27.74-54.22,2.78-1.31-4.22,1.05-4.85,1.13-5.57h-.09Z"/>
      <path class="cls-21" d="M829.88,1010.87c-.7-1.26-5.42-2.43-3.67-7.45,9.27.72,21.08,3.68,30.17,3.86,4.81,0,27.29-3.14,28.42-1.97,3.24,3.23-2.18,6.55-5.51,7.45-15.3,4.13-34.37,2.16-49.41-1.88Z"/>
      <path class="cls-43" d="M879.39,1012.74v1.89c-9.01,5.48-20.64-4.31-21.08,11.22-4.55-15.98-17.58-5.3-28.42-13.11,0-.54.18-1.62,0-1.88,15.13,4.04,34.11,6.01,49.42,1.88h.09Z"/>
      <path class="cls-63" d="M974.46,907.01c-2.01-4.58-7.25-7.45-7.34-7.99-.53-3.32,3.23-7.36,3.76-11.04,1.23-10.14,1.05-21.54-5.42-29.89-2.62-3.42-10.15-7.72-10.76-9.7-.87-2.87,2.62-16.79,1.49-23.97-7.26-48.29-94.72-41.74-128.13-31.95-30.61,8.98-66.73,37.97-80.37,67.77-7.61,16.6-2.98,24.68-6.12,38.78-1.58,7-7.79,12.12-8.13,23.15-.35,12.3,9.71,28.37,9.71,31.6,0,2.24-4.99,7.81-5.95,12.03-3.42,14.45,3.93,29.53,17.58,34.83,3.06,1.17,10.76,1.35,11.8,2.78,2.1,2.96,2.28,8.8,4.29,12.57,5.59,10.24,12.85,19.03,21.43,26.75,2.71,2.42,7.25,4.04,8.92,5.47,4.72,4.31-2.63,3.86-5.6,5.38-20.2,9.97-37.7,22.72-50.99,41.56l-14.87-34.65c7.52-15.89,7.78-33.03-6.12-45.06-2.45-2.06-7.17-2.42-7.52-3.86-2.45-8.98,3.94-63.46-18.72-56.64-14.43,4.31-8.92,40.93-6.82,52.15-13.29-8.88-29.82-54.84-48.63-43.18-8.49,5.21-3.24,17.51,0,24.51,2.8,5.92,18.8,25.76,19.06,27.38.44,2.6-4.37,5.92-5.07,9.51-.61,2.96,1.57,6.46.7,8.07-1.93,3.77-8.66,2.07-6.03,15.35,3.23,16.87,19.86,20.92,23,26.21,1.31,2.15,3.67,21.54,5.42,27.29,8.83,29.54,24.23,62.47,59.82,58.34,6.47-.71,10.84-4.12,15.74-5.38,1.31,7.09-3.06,37.08,2.98,39.14,40.49.36,81.07.36,121.57.27h42.15c6.56,0,37.7,1.17,40.41-.81,2.97-2.06,1.84-25.67,1.75-31.06-.61-36.89-6.65-71.18-35.68-95.68-7.35-6.2-13.29-7.99-20.55-12.66-6.47-4.12,3.5-6.1,7.7-9.87,9.44-8.62,13.9-15.35,19.59-26.84,1.75-3.5,2.54-10.5,4.29-12.57,1.92-2.33,16.09-4.22,22.04-9.33,8.05-7,11.72-20.47,9.97-30.88-.79-4.58-5.42-8.71-5.08-11.04.26-1.88,5.16-6.91,6.56-10.23,5.16-12.48,7.87-23.88,2.18-36.8v.18ZM658.65,1040.76c3.67-5.57,25.1,8.98,21.16,13.19-1.31,1.44-11.63-2.88-14.6-1.89-5.08,5.21,13.12,14.36,20.29,4.76,1.48-1.97,1.4-5.75,1.92-6.37,2.18-1.97,18.1,2.61,19.85-3.14,3.32-10.86-9.36-3.05-11.98-2.78-12.51,1.17-11.29-13.19,3.59-12.93,3.32,0,21.25,7.45,19.41-1.08-1.66-7.63-26.94-2.7-30-3.32-.96-.18-15.22-9.6-16.71-10.77-6.12-4.85-27.29-34.74-26.67-42.19.44-5.47,4.38-5.65,8.4-2.96,8.92,5.92,22.13,31.69,31.05,41.38,22.39,24.24,9.71-23.61,10.24-36.26.17-4.04,2.62-18.76,9-14.36,5.6,3.86,4.11,42.45,6.74,50.26,2.8,8.44,12.42,7.45,15.74,15.8,10.24,25.94-15.13,48.38-39.7,44.35-9.71-1.62-34.72-21-27.64-31.87l-.09.18ZM679.72,1040.85c-.52.63-13.9-7.72-14.6-8.44-8.13-7.81,8.66-12.48,14.87-3.86,2.71,3.77-.79,7.72-.18,12.21l-.09.09ZM908.43,1108.98c-1.23,3.68-7.17,3.86-9.71,6.91-12.95,14.99,8.13,35.9,21.08,19.66,11.46-14.45-5.51-21.46-5.69-22.8-.26-2.16,1.93-6.11,2.01-9.16.26-13.82-.96-25.31-5.51-38.42,6.3,3.5,15.31,9.69,23.88,19.74,10.06,11.94,14.61,23.61,16.45,29,2.01,6.01,2.89,10.77,3.67,14.99,1.48,8.44,2.71,19.93,1.84,33.75-.18,8.08.18,16.25,0,24.41h-16.53c.87-24.41,3.5-48.83,1.84-73.16h-5.51l-3.67,73.16h-170.29c-.09-6.19,0-11.31.09-14.63,0-2.78,0-7.54-.09-17.24,0-5.47-.17-8.53-1.84-9.33-1.4-.72-3.06.54-5.51,1.89,0,0-6.74,3.77-14.7,5.65-1.31.27-7.17,1.62-14.69,0-2.01-.45-5.42-1.35-9.18-3.32-7.44-3.95-11.28-9.6-16.18-16.7-2.54-3.68-6.73-10.32-10.14-19.3-2.71-7.18-4.03-13.28-4.81-16.87-.96-4.49-1.49-8.26-1.84-11.22-.61-1.79-1.14-4.13,0-5.65,1.66-2.16,5.42-.9,10.93-.9,4.46,0,7.61-.99,13.82-2.96,4.28-1.35,9.97-3.5,16.36-7.36,4.46.98,13.73,34.29,17.75,40.03,1.66,2.42,5.42,4.76,7.08,3.05.87-.9-1.66-5.92-1.31-8.17,1.4-9.78,37.35-38.42,48.02-42.46-3.41,5.38-5.59,35.63-6.64,37.25-.53.81-6.47,1.62-8.74,3.23-10.06,7-14.34,17.32-12.77,29.72.44,3.32,7.17,19.66,8.92,20.91,5.07,3.59,11.37-1.08,9.1-7.45-1.05-2.96-8.49-1.26-10.41-11.85-6.38-35.45,37.87-35.45,36.3-5.3-.79,14.72-8.22,11.31-11.2,15.35-4.89,6.64.96,12.48,8.13,9.78,1.05-.36,7.78-15.08,8.57-17.5,4.11-13.29,0-25.94-11.28-33.75-7.44-5.11-10.32,1.62-9.01-13.19.87-9.78,6.12-34.2,18.28-32.85,3.15,30.96,12.42,65.8,27.2,93.08,2.71,5.03,9.97,21.19,15.57,13.29,20.2-28.64,32-70.01,37.87-104.58,11.37,7.27,16.18,39.85,12.51,51.25ZM916.73,1126.3c0,4.49-3.5,8.08-7.87,8.08s-7.87-3.59-7.87-8.08,3.5-8.08,7.87-8.08,7.87,3.59,7.87,8.08ZM862.25,1076.67l-1.14-3.86c10.49-2.78,15.74-15.35,27.46-14.99,1.05,1.17-3.93,27.47-5.25,31.15-.52,1.44.18,3.95-2.89,2.51-3.84-1.7-11.8-13.65-18.1-14.81h-.09ZM879.31,1099.82c0,1.44-8.13,26.21-9.1,27.29-2.89,3.23-3.15-.72-3.67-2.7-3.5-11.93-4.28-23.16,0-34.74,1.4-1.35,12.51,6.02,12.68,10.24l.09-.09ZM850.09,1102.79h7.26c-2.01,10.86,7,26.66,5.51,36.36-.43,2.78-7.87,16.52-10.93,14.18-.61-.45-6.3-13.91-6.56-14.99-2.71-10.86,5.51-24.24,4.72-35.63v.09ZM862.07,1084.02c3.15,5.11-6.39,17.51-13.38,10.68-11.1-10.86,6.56-21.99,13.38-10.68ZM840.91,1061.5h25.62c-8.57,10.68-17.67,12.3-25.62,0ZM843.71,1072.72c1.05,1.52,1.49,3.86.61,5.38-.52.9-16.27,11.4-18.02,9.6l-3.67-29.98,21.08,14.9v.09ZM841,1120.65c-.62,2.06-.79,5.92-3.67,2.69-.96-.98-7.52-25.58-7.17-26.93.52-1.88,9.53-8.08,10.76-6.82,4.81,10.77,3.23,19.93,0,31.06h.09ZM931.95,1001.89c-16.01,70.46-126.99,69.29-154.63,9.43-1.57-3.42-5.25-18.49-6.12-19.12-1.22-.9-8.22,2.16-11.63,1.8-16.7-1.53-25.01-40.66,1.31-35.19,6.03,1.26,7.08,10.68,11.28,5.11,7-9.33,13.21-66.78,15.66-69.29,41.28,21.36,93.66,19.3,129.96-11.22-.87,7.9,1.93,15.26,4.64,22.44,2.8,7.45,12.33,19.3,13.29,23.88,3.23,14.72-.26,56.55-3.85,72.17h.09ZM941.66,995.88c-1.22-1.25.87-33.21,2.1-35.36,2.36-4.04,17.14-3.23,19.5,4.76,4.11,14.18-7.35,30.16-21.6,30.52v.09ZM960.99,947.23c-5.69,5.84-10.76,2.15-17.5,5.47-.79-7.81,1.23-17.41-.43-24.95-2.28-10.23-16.01-18.85-17.93-37.88-.87-8.71,4.46-28.28-7.44-18.85-24.22,19.21-36.29,30.61-70.49,31.06-26.15.36-36.12-7.9-57.63-15.98-12.34-4.58-9.54,15.35-11.46,25.58-2.62,13.73-6.82,27.02-8.57,40.93-4.98-1.89-14.34-.81-18.36-2.78-7.87-3.95-11.2-31.6-7.7-39.85,1.58-3.68,6.83-6.46,7.52-9.25.52-2.24-1.92-13.11-1.57-18.49,2.1-41.29,60.26-79.8,96.64-86.62,31.22-5.84,109.32-9.78,102.5,41.2-.53,3.86-5.16,14.63-4.99,15.44.26,1.35,16.27,5.65,19.33,15.88,4.2,13.91-5.16,30.61-4.54,32.68.7,2.43,6.73,4.13,8.83,7.99,5.95,10.59,2.01,29.89-6.12,38.32l-.09.09Z"/>
      <path class="cls-16" d="M2175,1156.37c4.2-7.99,0-46.4,4.02-50.26.62-.54,7.78,0,10.49-.36,18.63-2.96,31.92-6.11,47.05-18.23,5.6-4.49,4.03-10.68,13.47-9.42,12.95,1.71,31.58,15.44,39.79,25.85,18.63,23.43,21.87,55.38,22.57,84.64h-41.19c-3.23-17.77-2.88-31.15-1.75-40.48,0,0,2.19-18.49-2.54-21.27-1.31-.81-2.62-.72-2.62-.72-2.1.09-3.59,1.89-4.11,2.43-2.36,2.87-1.93,7-1.57,11.85.26,3.68.61,9.07.79,15.98h-84.4Z"/>
      <path class="cls-67" d="M2100.39,1156.37c3.94-24.42,2.98-31.42.79-32.14-1.49-.45-4.11,1.62-5.42,3.32-1.31,1.7-1.84,3.59-2.36,7.27-.7,4.58-1.05,6.82-1.13,9.87-.18,8.17-1.05,7.9-1.67,18.76-.35,6.19-.61,14.72,0,25.14h-29.47c1.75-36.18,7.61-78.36,39.44-99.55,3.41-2.33,22.91-12.66,25.1-11.13.52.36,4.11,8.89,7.17,11.94,8.05,8.08,25.1,14,36.29,14.09-1.4,17.32-.96,35.01-1.93,52.33h-66.73l-.09.09Z"/>
      <path class="cls-68" d="M2104.77,935.19c7.17-7.63,17.23-4.04,45.57-5.3,22.04-.98,44.95-1.34,51.25-1.34,5.16,1.97,16.79,1.88,27.73,2.33,13.9.54,20.64,2.78,24.05,5.03,14.78,9.78,11.72,31.33,24.84,35.1,4.28,1.26,5.95-.63,9.53,1.53,7.08,4.49,10.06,18.13,4.72,25.67-2.1,3.05-5.08,4.31-9.36,6.19-7.78,3.42-12.24,1.35-15.92,3.77-1.23.81-9.36,20.65-13.73,26.21-32.8,42.19-122.09,40.67-149.99-7.18-2.62-4.58-6.21-16.25-7.96-18.05-4.46-4.49-9.18-.45-15.56-4.12-5.95-3.41-9.71-10.15-10.58-16.79-.87-6.83.96-16.79,6.82-19.48,5.6-2.6,9.71,3.86,15.04,1.97,9.19-3.23,2.89-24.33,13.56-35.55Z"/>
      <path class="cls-9" d="M2259.4,1156.38c.18,4.49,2.1,10.95,1.93,18.13h-86.41c-.18-6.01.09-12.12,0-18.13h84.49Z"/>
      <path class="cls-49" d="M2261.32,1174.5v14.09h-86.41c-.09-1.97-.18-3.95-.18-6.1,0-2.88,0-5.57.18-8.08h86.41v.09Z"/>
      <path class="cls-9" d="M2167.13,1156.38c.35,6.01.79,12.12,1.13,18.13h-67.86c.43-6.01-.44-12.2,0-18.13h66.73Z"/>
      <path class="cls-28" d="M2237.8,1061.67c1.49,1.62-.87,10.05-2.18,12.84-5.6,11.22-27.03,19.39-38.57,20.82-2.89.36-15.31,1.35-16.09.54-2.97-2.96,8.57-20.47,13.03-21.9l43.9-12.3h-.09Z"/>
      <path class="cls-12" d="M2176.92,1174.49l-2.01,14.18c-15.22.18-30.53.27-46,.18-9.62,0-19.24-.09-28.69-.18,0-4.67.09-9.43.18-14.09h76.61l-.09-.09Z"/>
      <path class="cls-28" d="M2169.05,1095.87c-1.4,1.7-22.82-7.18-26.5-10.05-4.11-3.32-12.85-15.71-8.83-20.1,1.05-1.08,26.06,6.46,28.51,7.99,5.95,3.68,10.06,18.4,6.82,22.17Z"/>
      <path class="cls-13" d="M2308.46,1077.74c-1.22.9-20.2-8.35-21.25-11.4-2.01-5.84,0-19.48,6.83-20.65,8.13-1.44,20.72,27.29,14.43,32.05Z"/>
      <path class="cls-13" d="M2070.93,1047.58s.7,4.04,2.8,6.19c2.1,2.16,4.46,2.61,5.86,3.77,8.05,6.64-23.18,23.88-24.31,22.35-5.77-8.26,9.88-36.36,15.65-32.22v-.09Z"/>
      <path class="cls-29" d="M2286.86,960.96c-.79.81-12.51.45-14.78-1.97-1.4-1.53-9.71-22.98-8.74-24.24.7-.98,22.04,4.94,22.65,5.92,1.23,1.8,1.57,19.57.87,20.29Z"/>
      <path class="cls-29" d="M2094.45,936.72c1.48,1.52-5.78,19.66-3.94,24.15-2.45-.27-11.19.63-11.81,0-.7-.72-.35-18.49.87-20.29,1.23-1.79,14.17-4.58,14.87-3.86Z"/>
      <path class="cls-13" d="M2281,1017.33c5.77,5.57-10.5,28.01-19.59,24.14,4.28-4.58,12.24-31.33,19.59-24.14Z"/>
      <path class="cls-13" d="M2088.33,1017.59c1.05.63,10.93,20.65,11.19,21.81.96,3.59.62,3.86-2.18,6.11l-14.26-15.53c-1.14-5.39-2.01-17.14,5.25-12.48v.09Z"/>
      <path class="cls-41" d="M2086.66,1049.56c-3.5,3.23-12.94-6.55-9.8-10.05,2.1-2.33,12.07,7.99,9.8,10.05Z"/>
      <path class="cls-41" d="M2284.94,1039.5c2.1,1.89-4.03,8.17-5.86,6.02-2.98-3.41,2.54-9.07,5.86-6.02Z"/>
      <path class="cls-51" d="M2180.07,996.42c-1.23.9-1.93.36-3.23,1.17-1.23.81-1.84,2.07-2.01,2.51-.09.36-.79,2.07,0,3.68.7,1.53,2.27,2.34,3.67,3.05,1.23.63,1.84.63,2.45,1.44.18.18.87,1.17.79,2.34-.09,1.44-1.31,2.42-1.93,2.78-3.23,1.61-13.9-5.12-13.03-12.66.87-7.09,11.28-11.31,13.73-9.33.61.45,1.22,1.79,1.05,2.96-.17,1.17-1.13,1.97-1.4,2.15l-.09-.09Z"/>
      <path class="cls-24" d="M2225.99,968.95c.96,3.14,3.41,5.65,1.93,10.05-6.13-.72-8.49-11.76-1.93-10.05Z"/>
      <path class="cls-67" d="M2239.81,900.46h-111.95c1.93-13.2,0-32.59,2.45-44.89.53-2.6,23.96-45.15,25.71-47.21,10.15-11.67,44.96-12.03,55.28-.54,2.89,13.73,24.05,36.71,26.15,47.66.87,4.49,3.93,43.26,2.45,44.88l-.09.09ZM2198.53,854.14c-1.4-1.08-9.71-31.77-16.7-30.16-4.9,1.07-14.52,27.91-14.78,34.2-4.64-1.17-5.95-11.76-11.63-7.99-.61.45-4.11,13.02-4.11,14.99-.18,37.43,66.73,39.31,62.97-4.04-.26-3.23-4.55-15.08-7-15.08-2.8,0-4.72,11.22-8.84,7.99l.09.09Z"/>
      <path class="cls-28" d="M2296.66,962.93c-.61-.72-.61-17.41,0-18.13.61-.71,15.92,7.09,7.96-5.21-6.91-10.59-52.65-15.71-65.86-16.96-40.49-3.86-87.02-3.14-127.34,2.24-10.93,1.44-46.27,5.74-50.02,17.14-3.15,9.6,8.39,1.44,9.53,2.7.61.71.61,17.41,0,18.13-2.19,2.61-59.47-20.73-10.32-39.85,52.12-20.2,192.58-20.01,244.97-.54,52.39,19.48-6.65,43-8.92,40.39v.09Z"/>
      <path class="cls-27" d="M2294.73,910.52c-5.86-4.31-43.38-6.37-45.04-8.17-1.84-1.97-1.14-42.18-2.54-48.83-2.45-11.94-37.34-47.84,1.05-23.25,27.2,17.41,44.87,47.12,46.44,80.25h.09Z"/>
      <path class="cls-27" d="M2137.66,821.92c1.84,1.8-16.09,26.21-17.23,31.69-1.4,6.83-.35,46.77-2.45,48.92-1.57,1.7-39.09,3.86-45.13,8.08,2.01-29.44,14.87-55.2,37.43-73.34,3.23-2.6,25.27-17.32,27.29-15.26l.09-.09Z"/>
      <path class="cls-9" d="M2198.54,854.14c4.11,3.23,5.95-8.08,8.83-7.99,2.36,0,6.64,11.85,7,15.08,3.76,43.26-63.15,41.47-62.97,4.04,0-1.97,3.5-14.54,4.11-14.99,5.69-3.77,7,6.73,11.63,7.99.26-6.37,9.88-33.12,14.78-34.2,7-1.53,15.31,29.17,16.71,30.16l-.09-.09Z"/>
      <path class="cls-51" d="M2138.35,991.11c5.02,0,9.1-6.35,9.1-14.18s-4.08-14.18-9.1-14.18-9.1,6.35-9.1,14.18,4.08,14.18,9.1,14.18Z"/>
      <path class="cls-24" d="M2141.49,979.65c2.06-.25,3.4-3.33,2.99-6.88-.41-3.54-2.41-6.21-4.48-5.96-2.06.25-3.4,3.33-2.99,6.88.41,3.54,2.41,6.21,4.48,5.96Z"/>
      <path class="cls-51" d="M2222.14,991.92c5.03,0,9.1-6.35,9.1-14.18s-4.07-14.18-9.1-14.18-9.09,6.35-9.09,14.18,4.07,14.18,9.09,14.18Z"/>
      <path class="cls-24" d="M2225.37,981c2.06-.25,3.39-3.45,2.96-7.14-.43-3.69-2.45-6.48-4.52-6.23-2.06.25-3.38,3.45-2.95,7.14.43,3.69,2.45,6.48,4.51,6.23Z"/>
      <path class="cls-20" d="M2248.2,830.36c27.2,17.42,44.87,47.13,46.44,80.25-5.86-4.31-43.38-6.37-45.04-8.17-1.84-1.97-1.14-42.19-2.54-48.83-2.45-11.93-37.35-47.84,1.05-23.25h.08ZM2155.93,808.37c10.15-11.67,44.96-12.03,55.28-.54,2.89,13.73,24.05,36.71,26.15,47.66.87,4.49,3.93,43.27,2.45,44.88h-111.95c1.92-13.19,0-32.58,2.45-44.88.53-2.6,23.96-45.15,25.71-47.21l-.09.09ZM2110.37,837.18c3.23-2.61,25.27-17.32,27.29-15.26,1.84,1.8-16.09,26.21-17.23,31.69-1.4,6.83-.35,46.77-2.45,48.92-1.57,1.7-39.09,3.86-45.13,8.08,2.01-29.44,14.87-55.2,37.43-73.34l.09-.09ZM2055.27,1079.81c-5.77-8.26,9.88-36.36,15.65-32.22.26.18.7,4.04,2.8,6.19,2.18,2.16,4.46,2.6,5.86,3.77,8.05,6.64-23.18,23.88-24.31,22.35v-.09ZM2086.66,1049.56c-3.5,3.23-12.94-6.55-9.8-10.05,2.1-2.33,12.07,7.99,9.8,10.05ZM2097.42,1045.52l-14.26-15.53c-1.13-5.38-2.01-17.14,5.25-12.47,1.05.63,10.93,20.55,11.2,21.81.96,3.59.61,3.86-2.19,6.11v.09ZM2167.13,1156.38c-.35,10.77-.7,21.54-1.05,32.32h-65.86c0-3.23.09-8.17.18-14.1,0-15.98-.26-14.9,0-18.13.43-5.39,4.55-25.86,3.76-28.91-1.05-4.22-7.7-5.03-9.27.09-1.66,5.3-4.55,14-4.28,35.9,0,2.87.09,9.06-.35,17.5-.18,3.42-.35,6.2-.52,7.9-9.53,0-19.07-.18-28.6-.18,1.75-36.17,7.61-78.36,39.45-99.54,3.41-2.34,22.91-12.66,25.1-11.13.53.36,4.11,8.89,7.17,11.93,8.05,8.08,25.1,14,36.29,14.1-.7,17.32-1.4,34.83-1.92,52.33l-.09-.09ZM2169.05,1095.88c-1.4,1.7-22.83-7.18-26.5-10.05-4.11-3.32-12.85-15.71-8.83-20.1,1.05-1.08,26.06,6.46,28.51,7.99,5.95,3.68,10.06,18.4,6.83,22.17ZM2250.03,1078.11c12.95,1.7,31.58,15.44,39.8,25.85,18.63,23.43,21.86,55.39,22.56,84.64h-41.19c.17-7.18,1.48-55.2-2.98-60.23-2.01-2.24-3.94-2.24-3.94-2.24-2.01,0-3.59,1.8-4.11,2.43-3.76,4.49-1.75,13.46-.79,27.82.43,6.56.52,12.03.61,18.13.09,6.01,0,10.86,0,14.18h-83.96c.96-27.56,1.93-55.03,2.88-82.58,2.45,0,6.04,0,10.5-.36,6.12-.54,18.8-2.07,32.97-9.07,4.64-2.33,9.27-5.2,14.09-9.06,5.59-4.49,4.02-10.68,13.46-9.43l.09-.09ZM2175,1074.78l5.86-.99c-1.66,4.4-3.23,4.76-5.86.99ZM2193.89,1073.98l43.9-12.3c1.49,1.62-.87,10.05-2.18,12.84-5.6,11.22-27.03,19.39-38.57,20.82-2.89.36-15.31,1.35-16.09.54-2.97-2.96,8.57-20.47,13.03-21.9h-.08ZM2261.32,1041.48c4.28-4.58,12.24-31.33,19.59-24.14,5.77,5.57-10.5,28.01-19.59,24.14ZM2278.98,1045.52c-2.98-3.42,2.54-9.07,5.86-6.02,2.1,1.89-4.02,8.17-5.86,6.02ZM2294.03,1045.7c8.13-1.44,20.73,27.29,14.43,32.05-1.23.9-20.21-8.35-21.25-11.4-2.01-5.84,0-19.48,6.82-20.65ZM2283.09,1004.32c-6.56,4.94-12.15,1.35-15.92,3.77-1.23.81-9.36,20.65-13.73,26.21-32.8,42.19-122.09,40.67-150-7.18-2.62-4.58-6.21-16.25-7.96-18.05-3.32-3.32-10.49-.9-15.57-4.12-9.01-5.75-12.77-25.59-4.28-32.14,6.64-5.21,17.93.09,18.98.63,3.33-12.74,6.74-25.58,10.06-38.33,20.29-3.68,45.04-6.64,73.2-6.55,29.12,0,54.57,3.32,75.39,7.27,4.64,12.84,9.27,25.58,13.9,38.42,2.01-1.17,5.86-3.05,10.93-3.32,3.06-.18,31.57,13.46,4.89,33.39h.09ZM2090.51,960.87c-2.45-.27-11.19.63-11.81,0-.7-.72-.35-18.49.87-20.28,1.31-1.89,14.17-4.58,14.87-3.86,1.48,1.53-5.78,19.66-3.94,24.14ZM2263.33,934.75c.7-.98,22.04,4.94,22.65,5.92,1.23,1.8,1.57,19.57.87,20.29-.79.81-12.51.45-14.78-1.97-1.4-1.53-9.71-22.98-8.75-24.24ZM2296.65,962.94c-.61-.72-.61-17.41,0-18.13.61-.72,15.92,7.09,7.96-5.21-6.91-10.59-52.65-15.71-65.86-16.96-40.49-3.86-87.02-3.14-127.34,2.24-10.93,1.44-46.26,5.74-50.02,17.14-3.15,9.6,8.39,1.44,9.53,2.7.61.71.61,17.41,0,18.13-2.19,2.61-59.47-20.73-10.32-39.85,52.12-20.2,192.58-20.01,244.97-.54,51.69,19.21-6.65,43-8.92,40.39v.09ZM2304.79,912.23s-.18-1.62-.44-3.59c-.52-2.96-.96-4.13-1.4-6.91-.26-1.7-.35-2.87-.35-3.23-4.46-35.55-23.52-61.67-53.61-78.9-14.34-8.17-17.58-7.9-30.7-18.85-16.53-13.83-47.93-15.44-65.51-2.61-4.81,3.5-6.39,8.53-9.27,10.59-4.11,3.05-18.01,7-24.75,10.86-30.17,17.23-47.57,44.52-54.75,78.81-.79,3.77-.44,12.84-1.14,13.91-.61.99-16.62,6.01-21.25,9.43-18.02,13.28-13.65,29.17,3.15,40.84,4.81,3.32,19.51,7.63,20.3,8.44.35.36-3.15,6.91-3.5,9.51-1.05,8.17,1.83,18.13,6.12,25.04,5.51,8.89,9.44,4.49,7.25,20.92-1.66,12.47-13.46,13.37-20.72,23.07-10.76,14.18-13.38,36.17-5.86,42.37,2.71,2.24,6.3,2.16,8.75,1.89,0-1.53.17-3.77,1.22-6.11,3.15-6.55,10.24-5.57,17.84-10.32,11.02-6.91,7.61-16.25,19.85-23.16,2.62-1.44,7.26-4.04,13.12-3.15,6.91,1.08,10.93,6.02,11.54,6.83,2.19,2.78,3.15,5.57,3.59,7.18-4.55,1.97-10.41,4.94-16.79,8.98-10.58,6.73-17.41,13.38-18.98,14.9-8.57,8.34-13.82,16.25-16.01,19.93-9.71,15.53-12.68,29.71-15.74,44.97-2.01,10.15-4.11,24.33-4.03,41.47,38.75.18,77.58.36,116.32.54,50.9.27,101.8.45,152.79.72,0-4.58-.53-11.49-.53-19.93,0,0-.43-8.53-1.05-15.17-1.31-13.38-4.02-41.65-23.09-64.63-3.23-3.86-10.32-11.67-21.51-18.58-10.85-6.64-20.91-9.51-27.64-10.95.52-4.22,1.04-8.44,1.57-12.56,1.57-2.16,3.23-4.31,4.81-6.56,13.82-1.35,19.68,2.16,22.39,5.65.87,1.17-.52,13.46,6.12,21,4.46,5.12,8.92,3.5,17.67,10.05,4.64,3.5,7.7,7.18,9.54,9.7,2.71-3.41,6.64-9.51,7.96-17.95,1.75-11.67-2.45-25.76-11.54-34.2-3.94-3.59-16.45-7.72-16.97-11.85-.26-1.79,1.49-5.3,1.4-8.17-.09-3.32-2.1-7.72-1.66-9.87.44-2.33,8.75-10.59,11.37-23.43.18-3.32-.26-6.73,0-10.05.18-2.15-.7-6.82.18-7.8.35-.36,7.7-1.53,10.15-2.69,10.93-5.12,19.06-12.03,19.85-13.29,1.67-2.33,5.16-7.45,5.08-14.45-.18-8.08-5.08-15.89-11.46-19.93-8.22-5.12-16.8-4.4-19.68-8.62v-.09Z"/>
      <path class="cls-51" d="M2180.86,1037.62h-.43c-13.38-.09-22.83-6.46-27.29-10.24-1.31-1.08-1.48-3.05-.43-4.4,1.05-1.34,2.98-1.52,4.28-.45,3.85,3.23,11.98,8.71,23.53,8.79,11.37.18,19.59-5.03,23.44-8.17,1.31-1.08,3.24-.81,4.28.54,1.05,1.35.79,3.32-.52,4.4-4.46,3.59-13.82,9.51-26.85,9.51Z"/>
      <path class="cls-51" d="M2150.5,956.11c-.61,0-1.22-.18-1.75-.54-2.01-1.44-5.25-3.14-9.53-3.5-5.77-.45-10.23,1.97-12.42,3.5-1.4.99-3.32.63-4.28-.81-.96-1.44-.62-3.41.79-4.39,2.8-1.97,8.57-5.21,16.36-4.58,4.46.36,8.75,1.89,12.5,4.58,1.4.98,1.75,2.96.79,4.39-.62.9-1.58,1.35-2.54,1.35h.09Z"/>
      <path class="cls-51" d="M2209.38,956.11c-.96,0-1.93-.45-2.54-1.35-.96-1.44-.61-3.41.79-4.39,2.8-1.97,8.66-5.21,16.36-4.58,4.46.36,8.74,1.89,12.51,4.58,1.4.98,1.75,2.96.79,4.39-.96,1.44-2.89,1.8-4.28.81-2.89-1.97-6.12-3.23-9.53-3.5-5.77-.36-10.32,1.97-12.42,3.5-.53.36-1.14.54-1.75.54h.09Z"/>
      <path class="cls-1" d="M1376.16,1184.11c-10.85.27-21.69.45-32.62.72-12.86.54-25.98.9-39.45,1.08-13.47.18-26.67.18-39.44,0v-90.21c9.09,10.51,21.25,16.07,30.43,12.66,9.18-3.32,17.93-16.42,18.37-27.29.18-4.76.26-8.44,2.97-10.51,4.29-3.23,12.33.9,16.71,3.23,3.67,1.97,16.62,9.16,26.41,23.88,19.77,29.71,16.88,81.42,16.53,86.35l.09.09ZM1290.19,1123.34c-12.51,12.03,6.56,62.83,31.31,41.02,10.14-8.88,19.76-40.84.96-43.17-5.25-.63-29.3-.81-32.27,2.06v.09Z"/>
      <path class="cls-1" d="M1154.28,1185.99c-1.05-7-9.19-70.28,31.31-104.93,6.21-5.3,15.3-11.4,28.07-15.71.35,26.84,7.87,46.32,17.06,47.75,4.37.63,11.28-2.51,13.03-3.23,6.03-2.7,10.15-6.37,12.51-8.89.52,28.36,1.05,56.73,1.48,85.1h-103.55l.09-.09ZM1203.26,1132.94c-10.67,3.77.87,37.88,24.84,33.57,14.87-2.7,28.34-29.8,16.01-33.57-2.98-.9-38.31-.98-40.84,0Z"/>
      <path class="cls-25" d="M1228.89,1105.11c-4.72-2.69-6.13-9.87-7.79-18.31-1.75-8.98-1.4-16.6-.79-21.54,4.64.81,11.46,2.69,18.72,7.09,10.06,6.11,15.92,14,18.72,18.58-10.32,12.2-22.3,17.95-28.95,14.18h.09Z"/>
      <path class="cls-25" d="M1310.74,1067.16c-.52,21.9-9.88,37.34-20.29,38.69-7.34.98-18.54-4.67-19.41-11.85-.26-2.33.53-4.12,1.84-6.73,5.95-11.93,18.02-16.79,20.38-17.68,3.41-1.35,9.53-3.05,17.58-2.51l-.09.09Z"/>
      <path class="cls-58" d="M1278.64,1074.06c-2.28,3.41-11.63,11.49-15.13,11.4-2.01,0-15.57-11.04-13.47-13.01,9.44,2.33,19.06,1.62,28.69,1.62h-.09Z"/>
      <path class="cls-50" d="M1290.19,1123.34c2.97-2.87,26.93-2.69,32.27-2.06,18.89,2.24,9.19,34.2-.96,43.18-24.84,21.81-43.9-28.99-31.31-41.02v-.09ZM1324.74,1129.44h-30.26c-3.5,42.28,33.49,41.92,30.26,0Z"/>
      <path class="cls-23" d="M1203.26,1132.95c2.54-.9,37.87-.81,40.84,0,12.33,3.68-1.05,30.88-16.01,33.57-23.96,4.31-35.51-29.89-24.84-33.57ZM1240.43,1140.85h-33.41c2.45,23.7,32.27,23.43,33.41,0Z"/>
      <path class="cls-58" d="M1324.73,1129.44c3.23,41.92-33.67,42.28-30.26,0h30.26Z"/>
      <path class="cls-7" d="M1240.43,1140.84c-1.23,23.43-30.97,23.7-33.41,0h33.41Z"/>
      <path class="cls-62" d="M1260.8,797.32c-29.91,2.07-85.97,38.6-104.78,62.3-11.46,14.45-11.46,30.25,4.02,41.56,9.27,6.82,10.58-.63,18.8-5.11,38.74-20.92,123.14-21.99,163.46-5.39,5.07,2.07,21.78,13.83,23.09,13.83,8.49,0,16.45-21.54,14.78-29.8-4.28-21.36-57.72-58.88-77.05-67.77-12.94-5.92-27.9-10.59-42.24-9.51l-.09-.09ZM1354.73,908.09c-1.14-1.97-16.27-8.89-19.59-10.15-34.46-12.83-95.07-12.92-130.49-3.14-6.03,1.7-28.51,9.51-29.56,15.35-.79,4.58.53,10.68,0,15.53,8.66-6.19,14.34-11.22,24.58-14.72,36.73-12.48,112.21-15.26,146.14,5.03,1.66.98,8.22,11.13,9.18,4.04.26-2.24.52-10.5-.35-11.93h.09ZM1322.63,916.53c-34.63-11.31-94.02-7.18-126.73,6.73-3.76,1.61-8.13,3.59-11.11,6.46,0,6.91,51.08,15.08,57.99,15.53,35.16,2.24,73.12.54,105.91-13.11.96-3.77-.7-2.69-2.01-3.68-3.85-3.14-19.94-10.59-24.05-11.93ZM1175.09,935.46v26.12c2.36.09,2.8-5.84,2.98-7.54.52-4.94,2.01-15.8-2.98-18.58ZM1355,940.32c-8.74.98-3.41,16.25-4.72,22.8,7.52-4.58,4.11-15.35,4.72-22.8ZM1340.65,945.25c-50.12,15.35-104.25,12.12-154.36-1.62,0,6.37-2.1,35.55-7.44,37.25-12.15,3.95-.96-17.05-15.39-15.8-11.72.99-9.44,30.61,3.59,34.92,7.08,2.33,9.1-11.31,13.65-4.31,1.31,1.97,2.98,24.33,7.44,33.21,23.79,47.39,127.25,49.55,151.21.54,3.06-6.19,7.88-31.95,9.18-32.95,6.12-4.58,6.03,5.38,6.47,5.75,7.69,7.18,29.39-31.15,11.19-36.81-15.65-4.93-4.89,15.26-16.7,12.39-7.52-1.8-7-25.32-8.83-32.68v.09ZM1228.09,1102.96c7.61,7.54,22.65-5.92,28.25-11.85-9.97-9.52-20.11-23.7-34.99-23.61-.61,8.53.62,29.44,6.74,35.45ZM1308.82,1067.51c-1.14-1.17-12.95,3.5-15.13,4.85-1.57.98-19.16,15.98-19.94,17.06-1.22,1.62-2.27,3.68-1.22,5.57.43.81,13.99,9.51,15.3,9.78,14.26,2.69,21.52-26.3,21.08-37.25h-.09ZM1154.45,1184.82h25.45c-.26-18.22,0-36.44,1.57-54.66.53-5.74,4.55-11.94,8.92-5.74,1.49,2.16-2.27,23.69-2.54,28.63-.52,10.51.35,21.27,0,31.77h68.48v-81.5c-7.61,3.05-16.79,12.56-25.54,10.77-15.39-3.14-18.89-31.87-17.5-45.06-3.06-3.05-22.04,9.6-25.36,12.39-28.16,23.61-34.81,68.13-33.58,103.41h.09ZM1374.15,1183.21c-1.4-37.88-5.34-86.36-41.37-106.82-3.67-2.06-9.45-5.56-13.56-5.74-4.02-.18-2.1,6.01-3.15,9.96-8.05,31.51-23.53,43.27-50.2,19.48,0,28.01,0,56.01-.09,84.02,25.54-.27,50.99-.63,76.53-.9v-58.71c2.98,0,6.65-.72,7.69,2.69l1.84,56.01h22.3ZM1278.64,1074.06c-9.62,0-19.24.63-28.69-1.62-2.01,1.97,11.54,12.92,13.47,13.02,3.5.09,12.85-7.9,15.13-11.4h.09ZM1364.88,916.16c-3.15,5.48.87,31.87-.44,39.41,23.35,4.76,22.04,35.55,6.56,49.1-4.11,3.59-15.66,7.36-16.79,8.89-2.1,2.87-4.2,16.07-8.13,22.71-5.86,10.05-13.82,14.63-21.25,22.26-1.31,1.34-2.28,1.44-1.66,3.95,53,15.44,61.65,82.22,58.94,130.42l-235.7.9c-2.37-1.71-1.84-27.74-1.49-32.68,2.8-40.76,20.21-85.55,60.43-100.26-11.28-9.25-21.25-17.41-27.37-31.42-1.75-4.04-4.11-15.98-5.25-17.51-1.57-2.06-5.86-1.61-8.31-2.87-21.95-11.67-27.55-48.11,1.23-53.41.61-3.77.52-36.17-.35-38.78-.52-1.7-13.99-9.51-17.23-13.28-29.91-34.56,15.83-67.5,41.19-85.01,55.89-38.6,92.01-41.56,148.77-1.89,30.52,21.27,75.65,58.17,35.24,94.16-1.84,1.62-8.13,4.85-8.39,5.3Z"/>
      <path class="cls-55" d="M1260.81,797.32c14.34-.98,29.39,3.59,42.24,9.51,19.33,8.89,72.85,46.5,77.05,67.77,1.67,8.26-6.3,29.8-14.78,29.8-1.31,0-18.11-11.76-23.09-13.83-40.32-16.52-124.72-15.53-163.46,5.39-8.31,4.49-9.53,11.93-18.8,5.12-15.48-11.31-15.48-27.11-4.02-41.56,18.8-23.69,74.95-60.14,104.78-62.29l.09.09ZM1268.85,819.94c-7.26-4.67-10.5,9.97-14.17,11.94-3.33,1.79-14.87,1.35-15.83,5.03-1.49,5.2,7.96,8.98,9.18,13.28,2.36,8.08-6.73,21.36,7.17,18.13,3.5-.81,5.51-4.76,9.88-4.76s6.82,4.49,11.28,5.03c12.07,1.44,3.41-10.32,5.78-18.4,1.13-3.77,12.07-9.87,9.18-14.18-.96-1.44-14.08-2.78-16.79-4.85-2.97-2.16-4.98-10.95-5.59-11.31l-.09.09Z"/>
      <path class="cls-15" d="M1322.64,916.53c4.11,1.34,20.2,8.79,24.05,11.93,1.31,1.08,2.89,0,2.01,3.68-32.8,13.65-70.76,15.35-105.91,13.11-6.91-.45-58.07-8.71-57.99-15.53,3.06-2.88,7.35-4.85,11.11-6.46,32.71-13.91,92.18-17.95,126.73-6.73Z"/>
      <path class="cls-58" d="M1354.73,908.09c.79,1.44.62,9.69.35,11.93-.96,7.09-7.52-3.05-9.18-4.04-33.93-20.2-109.41-17.41-146.14-5.03-10.24,3.5-15.92,8.53-24.57,14.72.52-4.85-.87-10.96,0-15.53,1.05-5.92,23.52-13.65,29.56-15.35,35.33-9.87,95.94-9.78,130.49,3.15,3.33,1.25,18.37,8.07,19.59,10.14h-.09Z"/>
      <path class="cls-71" d="M1355.17,939.68c-.79,8.17,2.98,20.02-5.25,25.14,1.49-7.27-4.37-24.06,5.25-25.14Z"/>
      <path class="cls-71" d="M1174.84,934.57c5.59,3.05,3.93,15.17,3.32,20.56-.18,1.89-.7,8.53-3.32,8.35v-28.91Z"/>
      <path class="cls-73" d="M1268.85,819.94c.62.45,2.71,9.16,5.6,11.31,2.71,2.07,15.83,3.42,16.79,4.85,2.89,4.31-8.13,10.41-9.18,14.18-2.36,8.08,6.3,19.84-5.77,18.4-4.37-.54-6.73-5.03-11.28-5.03s-6.39,3.95-9.88,4.76c-13.9,3.23-4.81-10.05-7.17-18.13-1.31-4.31-10.67-8.07-9.18-13.28,1.05-3.59,12.51-3.23,15.83-5.03,3.76-1.97,6.91-16.6,14.17-11.94l.08-.09Z"/>
      <path class="cls-8" d="M1340.66,945.25c1.84,7.27,1.31,30.88,8.83,32.68,11.81,2.87,1.14-17.33,16.7-12.39,18.19,5.75-3.5,43.98-11.19,36.81-.44-.36-.35-10.32-6.47-5.75-1.31.99-6.12,26.84-9.18,32.94-23.96,48.92-127.43,46.85-151.22-.54-4.46-8.8-6.12-31.24-7.44-33.21-4.55-7.09-6.56,6.56-13.65,4.31-13.03-4.31-15.3-33.93-3.58-34.92,14.43-1.25,3.23,19.75,15.39,15.8,5.34-1.71,7.44-30.97,7.44-37.25,50.11,13.74,104.25,16.97,154.36,1.62v-.09ZM1313.64,984.39c.26-1.62,1.83-2.88,1.57-5.57-.26-2.7-2.1-3.86-3.15-5.84-1.05-1.97-.61-5.38-4.28-6.28-12.77-3.32-17.58,31.59-1.4,29.17,6.82-.99,6.38-6.83,7.26-11.49ZM1265.44,992.73c-6.3.99-11.02,10.69-4.9,12.66,8.83,2.87,15.22-14.27,4.9-12.66Z"/>
      <path class="cls-46" d="M1294.39,1016.25c1.66,0,3.23,1.53,3.59,2.96.18.98-.09,1.97-1.93,4.58-1.84,2.61-2.8,3.86-5.16,5.92-1.75,1.53-5.69,4.85-11.98,7.1-5.34,1.97-9.97,2.33-12.68,2.33-9.71,0-16.53-3.68-21.17-6.19-.79-.45-4.02-2.24-7.17-5.75-1.92-2.15-3.76-4.31-3.15-6.46.43-1.52,1.93-2.78,3.32-2.87,1.84,0,3.15,1.89,4.2,3.05,0,0,3.58,4.49,11.28,8.53,5.6,2.96,11.02,2.78,13.47,2.7,2.45-.09,6.64-.63,11.19-2.78,3.85-1.79,6.65-4.22,8.05-5.47,4.64-4.31,5.6-7.72,8.22-7.63h-.09Z"/>
      <path class="cls-46" d="M1310.65,993.9c-2.01,1.53-4.28,1.89-4.28,1.89,0,0-2.71.45-5.25-.81-5.69-2.7-8.57-16.07-2.98-23.7.53-.72,3.76-5.2,8.13-4.85,3.5.27,5.69,3.41,6.56,4.67,5.07,7.27,2.89,18.94-2.1,22.8h-.09Z"/>
      <path class="cls-37" d="M1219.61,972.63c7.44-1.35,15.04,3.41,18.54,9.33.79,1.35,2.98,5.03,1.57,7.45-.61.99-2.01,1.97-3.41,1.79-3.84-.26-3.76-7.9-9.18-9.96-2.37-.9-5.16-.63-6.91-.36-3.41.36-5.07,1.44-6.64.36-1.14-.81-1.84-2.43-1.66-3.77.52-3.5,7.08-4.66,7.61-4.85h.09Z"/>
      <path class="cls-37" d="M1265.44,992.74c10.24-1.62,3.85,15.61-4.89,12.66-6.04-1.97-1.4-11.67,4.89-12.66Z"/>
      <path class="cls-17" d="M1309.25,982.76c2.03,0,3.67-2.77,3.67-6.19s-1.64-6.19-3.67-6.19-3.67,2.77-3.67,6.19,1.64,6.19,3.67,6.19Z"/>
    </g>
    <g class="cls-18">
      <g>
        <g class="cls-10">
          <path class="cls-5" d="M349.86,1189.08h2272.28c15.19,0,29.75,6.03,40.49,16.77,10.74,10.74,16.77,25.31,16.77,40.49v114.52c0,15.19-6.03,29.75-16.77,40.49-10.74,10.74-25.31,16.77-40.49,16.77H349.86c-31.62,0-57.26-25.64-57.26-57.26v-114.52c0-31.62,25.64-57.26,57.26-57.26Z"/>
        </g>
        <path class="cls-4" d="M461.17,1315.18h-9.92c-.3,0-.7.2-1.2.61-.51.4-.75,1-.75,1.79v26.58c0,1.3-.25,2.66-.75,4.08-.51,1.4-1.25,2.65-2.24,3.75-1.12,1.21-2.47,2.16-4.07,2.85-1.6.8-3.46,1.2-5.56,1.2s-3.9-.4-5.39-1.2c-1.6-.69-2.91-1.64-3.91-2.85-1.1-1.19-1.9-2.5-2.4-3.91-.61-1.39-.92-2.75-.92-4.05v-82.6c0-1.41.31-2.82.92-4.21.5-1.4,1.3-2.7,2.4-3.91,1.1-1.1,2.45-2.05,4.05-2.85,1.51-.7,3.31-1.06,5.41-1.06h24.47c5.62,0,10.62.9,15.02,2.71,4.31,1.9,7.97,4.41,10.97,7.51,2.9,3.11,5.11,6.61,6.61,10.52,1.5,4,2.24,8.06,2.24,12.15s-.75,8.12-2.24,12.03c-1.6,4-3.86,7.5-6.75,10.5-3.01,3.11-6.67,5.62-10.97,7.51-4.41,1.9-9.42,2.85-15.02,2.85ZM449.31,1288.76c0,.81.25,1.4.75,1.79.5.41.9.61,1.2.61h9.92c3.1,0,5.51-.8,7.2-2.4,1.6-1.51,2.4-3.71,2.4-6.61s-.8-5.16-2.4-6.76c-1.7-1.51-4.1-2.26-7.2-2.26h-9.92c-.3,0-.7.2-1.2.61-.51.4-.75.99-.75,1.79v13.23Z"/>
        <path class="cls-53" d="M663.94,1261.43v68.64c0,.8.25,1.35.75,1.64.5.4.9.59,1.2.59h29.6c2.1,0,3.95.36,5.55,1.06,1.51.8,2.81,1.75,3.91,2.85,1.1,1.12,1.95,2.38,2.55,3.77.5,1.4.75,2.8.75,4.19,0,1.3-.25,2.66-.75,4.08-.5,1.4-1.25,2.65-2.24,3.75-1.12,1.21-2.47,2.16-4.07,2.85-1.61.8-3.45,1.2-5.56,1.2h-44.15c-2.11,0-3.91-.4-5.41-1.2-1.61-.69-2.91-1.64-3.91-2.85-1.1-1.19-1.9-2.5-2.4-3.91-.6-1.39-.9-2.75-.9-4.05v-82.6c0-1.41.3-2.82.9-4.21.5-1.4,1.3-2.7,2.4-3.91,1.11-1.1,2.47-2.05,4.07-2.85,1.49-.7,3.29-1.06,5.4-1.06s4.11.4,5.72,1.2c1.49.8,2.74,1.8,3.75,3.01,1,1.19,1.75,2.5,2.26,3.9.39,1.4.59,2.71.59,3.91Z"/>
        <path class="cls-56" d="M910.64,1258.72l32.28,81.09c.61,1.22.92,2.62.92,4.22,0,1.3-.26,2.66-.75,4.05-.61,1.41-1.47,2.67-2.57,3.77-1.09,1.1-2.4,2-3.91,2.71-1.61.8-3.45,1.2-5.55,1.2-3.1,0-5.65-.8-7.66-2.4-2.01-1.62-3.42-3.42-4.21-5.42l-8.24-21.19c-.51-.8-1.11-1.2-1.81-1.2h-25.39c-.3,0-.6.1-.89.31-.41.2-.72.5-.92.89l-8.4,21.19c-.81,2-2.2,3.8-4.2,5.42-2.01,1.6-4.57,2.4-7.67,2.4-2,0-3.8-.4-5.4-1.2-1.6-.7-2.9-1.61-3.91-2.71-1.09-1.1-1.9-2.35-2.4-3.77-.61-1.39-.92-2.75-.92-4.05,0-1.51.25-2.91.75-4.22l32.31-81.09c1-2.51,2.8-4.71,5.39-6.62,2.51-1.8,5.52-2.71,9.02-2.71s6.5.95,9.01,2.85c2.5,1.91,4.2,4.07,5.11,6.47ZM896.37,1290.86c-.8,1.7-1.56,3.4-2.26,5.11-.7,1.8-1.4,3.6-2.1,5.39,0,.2-.1.41-.31.61h9.02c0-.09-.1-.35-.3-.75-.2-.8-.51-1.64-.9-2.54-.41-.91-.81-1.86-1.2-2.87-.3-.9-.61-1.74-.91-2.55-.4-.8-.74-1.6-1.04-2.4Z"/>
        <path class="cls-45" d="M1106.23,1285l18.62-29.74c1-1.6,2.45-2.95,4.36-4.05,1.8-1.1,3.96-1.65,6.47-1.65,2.1,0,3.95.35,5.56,1.04,1.6.8,2.95,1.76,4.05,2.87,1,1.19,1.75,2.49,2.26,3.89.49,1.41.73,2.77.73,4.07,0,2.11-.6,4.15-1.79,6.15l-27.19,43.42c-.3.3-.45.75-.45,1.34v31.83c0,1.3-.25,2.66-.75,4.08-.6,1.4-1.4,2.65-2.4,3.75-1.1,1.21-2.4,2.16-3.91,2.85-1.6.8-3.45,1.2-5.55,1.2s-3.96-.4-5.56-1.2c-1.6-.69-2.9-1.64-3.9-2.85-1.1-1.19-1.9-2.5-2.4-3.91-.6-1.39-.9-2.75-.9-4.05v-31.84c0-.61-.15-1.06-.45-1.36l-27.2-43.39c-1.19-2.01-1.79-4.06-1.79-6.17,0-1.3.29-2.65.89-4.05.5-1.4,1.3-2.7,2.4-3.91,1-1.1,2.3-2.05,3.91-2.85,1.51-.7,3.31-1.06,5.41-1.06,2.5,0,4.69.55,6.59,1.64,1.8,1.12,3.26,2.48,4.36,4.08l18.63,29.88Z"/>
        <path class="cls-72" d="M1306.44,1302.87c0,4.21.65,8.06,1.95,11.56,1.21,3.61,3.06,6.72,5.56,9.32,2.51,2.71,5.62,4.81,9.32,6.31,3.7,1.5,8,2.24,12.9,2.24,1.4,0,2.95-.09,4.66-.29,1.69-.2,3.34-.51,4.94-.92,1.6-.39,3.16-.89,4.66-1.49,1.39-.61,2.55-1.26,3.46-1.95.5-.41.85-.8,1.06-1.2.09-.3.14-.85.14-1.65s-.25-1.41-.75-1.82c-.5-.29-.9-.45-1.2-.45h-19.38c-2.11,0-3.91-.4-5.42-1.2-1.6-.7-2.9-1.66-3.89-2.85-1.11-1.21-1.91-2.51-2.4-3.91-.61-1.41-.92-2.76-.92-4.05s.31-2.66.92-4.07c.48-1.39,1.29-2.7,2.4-3.9.99-1.19,2.29-2.19,3.89-2.99,1.6-.7,3.45-1.06,5.56-1.06h33.95c2,0,3.81.36,5.41,1.06,1.6.8,2.95,1.75,4.05,2.85,1.1,1.1,1.94,2.35,2.54,3.76.5,1.4.75,2.8.75,4.2v21.19c0,1.6-.25,3-.75,4.19-.6,1.3-1.44,2.56-2.54,3.77-4.92,5.4-11.02,9.45-18.32,12.15-7.32,2.81-14.88,4.21-22.68,4.21s-15.08-1.3-21.78-3.9c-6.81-2.5-12.68-6.1-17.59-10.81-4.9-4.61-8.75-10.22-11.56-16.83-2.81-6.5-4.21-13.76-4.21-21.78s1.4-15.26,4.21-21.76c2.81-6.51,6.66-12.12,11.56-16.83,4.91-4.6,10.77-8.21,17.59-10.81,6.7-2.51,13.96-3.76,21.78-3.76,3.59,0,7.3.3,11.12.91,3.8.69,7.5,1.69,11.11,2.99,3.6,1.4,7.05,3.11,10.36,5.11,3.2,2.11,6.01,4.56,8.41,7.37,2.1,2.4,3.15,5.06,3.15,7.96,0,1.3-.25,2.66-.75,4.05-.6,1.4-1.4,2.65-2.4,3.75-1.1,1.21-2.45,2.17-4.05,2.87-1.6.81-3.45,1.2-5.56,1.2-2.61,0-4.61-.5-6.01-1.51-1.51-1-3.11-2.3-4.82-3.91-2.8-2.49-6-4.3-9.61-5.41-3.71-1.1-7.36-1.65-10.95-1.65-4.92,0-9.22.75-12.93,2.26-3.8,1.6-6.96,3.76-9.47,6.45-2.5,2.7-4.35,5.86-5.56,9.47-1.3,3.61-1.95,7.46-1.95,11.56Z"/>
        <path class="cls-75" d="M1577.52,1310.99c.3.69.85,1.69,1.65,2.99.8,1.22,1.7,2.56,2.71,4.05.91,1.62,1.91,3.27,3.01,4.97,2.1,3.41,4.1,6.57,6.01,9.47,1.8,2.9,2.95,4.76,3.46,5.56,1.19,1.81,1.79,3.81,1.79,6.01,0,1.3-.25,2.66-.75,4.05-.6,1.5-1.4,2.81-2.4,3.91-1.1,1.1-2.4,2.01-3.91,2.71-1.6.81-3.45,1.2-5.56,1.2-2.5,0-4.65-.55-6.45-1.65-1.9-1.1-3.4-2.5-4.5-4.21l-21.03-33.79c-.62-.8-1.26-1.2-1.96-1.2-.11,0-.31.05-.61.14-.3.2-.45.66-.45,1.36v27.48c0,1.3-.25,2.66-.75,4.05-.51,1.41-1.25,2.66-2.24,3.76-1.12,1.2-2.48,2.15-4.07,2.85-1.61.81-3.46,1.2-5.56,1.2s-3.91-.4-5.4-1.2c-1.6-.7-2.9-1.65-3.9-2.85-1.1-1.2-1.9-2.51-2.4-3.9-.61-1.4-.91-2.75-.91-4.05v-82.62c0-1.4.3-2.79.91-4.2.5-1.41,1.3-2.71,2.4-3.9,1.1-1.1,2.45-2.05,4.05-2.85,1.51-.7,3.31-1.06,5.42-1.06h24.46c5.62,0,10.63.91,15.03,2.71,4.31,1.91,7.97,4.41,10.97,7.51,2.9,3.1,5.15,6.59,6.75,10.51,1.51,4,2.26,8.06,2.26,12.17,0,6.91-1.56,12.62-4.66,17.12-3.11,4.61-7.57,8.52-13.38,11.72ZM1548.39,1288.76c0,.8.25,1.4.75,1.79.49.41.9.61,1.2.61h9.92c3.09,0,5.49-.8,7.2-2.4,1.6-1.51,2.4-3.71,2.4-6.62s-.8-5.15-2.4-6.76c-1.71-1.51-4.11-2.26-7.2-2.26h-9.92c-.3,0-.7.2-1.2.61-.51.4-.75.99-.75,1.79v13.23Z"/>
        <path class="cls-30" d="M1789.24,1355.9c-7.82,0-15.08-1.3-21.78-3.9-6.81-2.5-12.68-6.1-17.59-10.81-4.9-4.61-8.75-10.22-11.56-16.83-2.81-6.5-4.21-13.76-4.21-21.78s1.4-15.26,4.21-21.76c2.81-6.51,6.66-12.12,11.56-16.83,4.91-4.6,10.77-8.21,17.59-10.81,6.7-2.51,13.96-3.76,21.78-3.76s15.05,1.25,21.76,3.76c6.72,2.61,12.52,6.21,17.42,10.81,4.91,4.71,8.77,10.32,11.58,16.83,2.79,6.51,4.19,13.76,4.19,21.76s-1.4,15.28-4.19,21.78c-2.81,6.61-6.67,12.22-11.58,16.83-4.9,4.71-10.71,8.32-17.42,10.81-6.7,2.6-13.96,3.9-21.76,3.9ZM1818.81,1302.57c0-4.1-.6-7.95-1.79-11.57-1.3-3.59-3.16-6.74-5.56-9.46-2.51-2.59-5.62-4.64-9.32-6.15-3.7-1.51-8.01-2.26-12.9-2.26s-9.22.75-12.93,2.26c-3.71,1.51-6.81,3.56-9.33,6.15-2.5,2.72-4.35,5.87-5.56,9.46-1.3,3.61-1.95,7.47-1.95,11.57s.65,8.07,1.95,11.58c1.2,3.6,3.06,6.7,5.56,9.31,2.51,2.7,5.62,4.8,9.33,6.31,3.7,1.51,8.01,2.26,12.93,2.26s9.2-.75,12.9-2.26c3.71-1.51,6.81-3.61,9.32-6.31,2.4-2.61,4.26-5.7,5.56-9.31,1.19-3.51,1.79-7.37,1.79-11.58Z"/>
        <path class="cls-48" d="M2046.8,1261.57c0-1.4.31-2.8.92-4.21.48-1.4,1.29-2.7,2.4-3.89,1.1-1.11,2.45-2.07,4.05-2.87,1.51-.69,3.31-1.04,5.41-1.04s3.95.35,5.56,1.04c1.49.8,2.79,1.76,3.89,2.87,1.11,1.1,1.96,2.35,2.56,3.75.5,1.4.75,2.8.75,4.21v54.68c0,4.7-.95,9.4-2.85,14.11-1.91,4.8-4.62,9.11-8.12,12.93-3.5,3.8-7.81,6.9-12.93,9.3-5.1,2.4-10.91,3.6-17.4,3.6h-5.11c-6.52,0-12.33-1.2-17.42-3.6-5.12-2.4-9.43-5.5-12.93-9.3-3.61-3.81-6.36-8.12-8.26-12.93-1.9-4.71-2.85-9.41-2.85-14.11v-54.68c0-1.41.29-2.82.89-4.21.5-1.4,1.3-2.7,2.4-3.91,1.11-1.1,2.47-2.05,4.07-2.85,1.49-.7,3.29-1.06,5.4-1.06s3.95.35,5.56,1.06c1.5.8,2.81,1.75,3.9,2.85,1.1,1.1,1.95,2.36,2.56,3.77.49,1.4.74,2.8.74,4.19v54.68c0,2.11.41,4.11,1.22,6.01.8,2.01,1.94,3.71,3.44,5.11,1.41,1.51,3.11,2.71,5.11,3.6,1.9.91,4,1.36,6.31,1.36h5.11c2.31,0,4.46-.45,6.46-1.36,1.9-.9,3.6-2.1,5.11-3.6,1.39-1.4,2.49-3.1,3.29-5.11.7-1.9,1.06-3.9,1.06-6.01l-.31-54.37Z"/>
        <path class="cls-11" d="M2240.49,1294.91v49.26c0,1.3-.25,2.66-.75,4.08-.5,1.4-1.25,2.65-2.26,3.75-1.1,1.21-2.45,2.16-4.05,2.85-1.6.8-3.45,1.2-5.55,1.2s-3.91-.4-5.42-1.2c-1.6-.69-2.9-1.64-3.9-2.85-1.1-1.19-1.9-2.5-2.4-3.91-.6-1.39-.9-2.75-.9-4.05v-82.6c0-1.41.3-2.82.9-4.21.5-1.4,1.3-2.7,2.4-3.91,1.11-1.1,2.46-2.05,4.07-2.85,1.49-.7,3.29-1.06,5.4-1.06s4.01.4,5.72,1.2c1.69.91,3.09,1.96,4.19,3.16l48.53,56.18v-48.36c0-1.3.3-2.65.9-4.05.5-1.41,1.3-2.71,2.4-3.9,1.1-1.1,2.45-2.05,4.05-2.85,1.51-.7,3.31-1.06,5.42-1.06s3.95.36,5.56,1.06c1.51.8,2.81,1.75,3.91,2.85,1.1,1.1,1.94,2.35,2.54,3.75.5,1.41.75,2.77.75,4.07v82.74c0,1.3-.25,2.66-.75,4.08-.6,1.4-1.4,2.65-2.4,3.75-1.1,1.21-2.4,2.16-3.91,2.85-1.6.8-3.45,1.2-5.56,1.2s-4.01-.45-5.7-1.34c-1.71-.8-3.11-1.85-4.21-3.16l-48.96-56.63Z"/>
        <path class="cls-32" d="M2492.7,1356.04h-24.94c-2.11,0-3.96-.4-5.56-1.2-1.71-.69-3.07-1.64-4.07-2.85-1.1-1.19-1.9-2.55-2.4-4.05-.6-1.39-.9-2.74-.9-4.05v-82.46c0-1.41.3-2.82.9-4.21.5-1.4,1.3-2.7,2.4-3.91,1-1.1,2.36-2.05,4.07-2.85,1.6-.7,3.45-1.06,5.56-1.06h24.94c7.9,0,15.21,1.25,21.92,3.76,6.7,2.61,12.51,6.21,17.42,10.81,4.9,4.71,8.75,10.32,11.56,16.83,2.81,6.61,4.21,13.92,4.21,21.92s-1.4,15.27-4.21,21.78c-2.81,6.61-6.67,12.22-11.56,16.81-4.92,4.71-10.72,8.32-17.42,10.83-6.81,2.6-14.12,3.89-21.92,3.89ZM2492.7,1332.16c4.89,0,9.2-.8,12.9-2.4,3.71-1.51,6.81-3.61,9.32-6.31,2.5-2.61,4.4-5.7,5.7-9.31,1.2-3.61,1.81-7.47,1.81-11.58s-.6-7.95-1.81-11.57c-1.3-3.59-3.21-6.74-5.7-9.46-2.51-2.59-5.62-4.64-9.32-6.15-3.7-1.51-8.01-2.26-12.9-2.26h-10.52c-.3,0-.7.2-1.2.61-.5.4-.75.99-.75,1.79v54.37c0,.8.25,1.36.75,1.67.5.4.9.59,1.2.59h10.52Z"/>
      </g>
    </g>
    <g class="cls-33">
      <g>
        <path class="cls-66" d="M160.52,857.08l127.36,98.97c3.22,2.5,6.08,5.71,8.59,9.65,2.49,3.92,4.15,8.18,4.97,12.77.86,5.04.6,10.21-.75,15.53-1.1,5.5-3.67,10.85-7.71,16.04-4.03,5.2-8.48,8.89-13.35,11.07-4.79,2.61-9.64,3.99-14.53,4.15-5.09.41-9.85-.1-14.27-1.55-4.63-1.22-8.55-3.08-11.77-5.58l-204.61-158.96c-3.22-2.5-5.97-5.84-8.28-10.02-2.51-3.93-4.19-8.42-5.05-13.46-.61-4.84-.37-10.01.73-15.51,1.15-5.05,3.74-10.16,7.78-15.37,7.69-9.9,16.98-15.21,27.85-15.92l135.28-11.62-20.01-135.2c-.61-4.85-.14-10.04,1.4-15.59,1.34-5.3,3.85-10.31,7.51-15.03,4.03-5.19,8.46-9.1,13.27-11.7,4.62-2.37,9.34-3.87,14.17-4.48,5.09-.42,9.83-.12,14.21.9,4.43,1.46,8.37,3.54,11.83,6.23l204.59,158.98c3.23,2.5,6.1,5.71,8.61,9.63,2.29,4.18,3.84,8.57,4.66,13.17.86,5.02.7,10.06-.47,15.12-1.1,5.49-3.66,10.85-7.69,16.04-4.04,5.2-8.5,8.89-13.37,11.08-4.8,2.62-9.64,4.01-14.51,4.17-5.1.42-9.87-.1-14.29-1.57-4.63-1.19-8.55-3.04-11.77-5.54l-127.36-98.97,12.86,89.18c.45,3.51.36,7.22-.26,11.11-.84,4.13-2.7,8.04-5.58,11.75-2.7,3.48-5.85,6-9.44,7.57-3.8,1.8-7.46,2.93-10.97,3.38l-89.6,9.57Z"/>
        <path class="cls-66" d="M476.84,734.53l-175.34-190.75c-2.75-3-4.92-6.75-6.49-11.28-1.82-4.27-2.73-8.96-2.75-14.09.2-4.87,1.3-9.92,3.3-15.16,1.98-4.81,5.39-9.43,10.24-13.88,4.84-4.45,9.86-7.57,15.04-9.37,5.14-1.33,10.16-1.89,15.04-1.69,4.89.22,9.5,1.3,13.84,3.26,4.13,2.16,7.67,4.86,10.65,8.1l175.02,190.4c2.76,3,5.04,6.65,6.86,10.97,1.82,4.27,2.74,8.74,2.77,13.41,0,5.1-1.1,10.16-3.3,15.16-2.01,5.24-5.43,10.09-10.28,14.54-4.61,4.25-9.52,7.26-14.7,9.04-5.17,1.78-10.19,2.56-15.06,2.34-4.87-.2-9.49-1.28-13.84-3.22-4.37-1.96-8.03-4.57-10.99-7.8Z"/>
        <path class="cls-66" d="M546.45,473.45l85.01,128.69c2.24,3.41,3.91,7.38,5.03,11.91,1.11,4.53,1.31,9.1.61,13.7-.8,5.04-2.7,9.86-5.68,14.45-2.81,4.86-6.96,9.1-12.46,12.72-5.48,3.64-10.88,5.71-16.2,6.21-5.39.93-10.42.68-15.1-.73-4.96-1.25-9.29-3.26-13.03-6.04-3.99-2.63-7.1-5.65-9.34-9.06l-142.55-215.79c-2.43-3.67-4.07-7.86-4.93-12.54-1.1-4.53-1.25-9.32-.45-14.37.98-4.77,2.87-9.59,5.66-14.43,2.72-4.41,6.82-8.43,12.32-12.05,5.49-3.63,11.15-5.88,16.98-6.74,6-.58,11.48-.25,16.45,1l223.66,63.02-83.46-126.35c-2.26-3.4-3.8-7.46-4.64-12.17-1.11-4.5-1.27-9.27-.47-14.31.96-4.79,2.85-9.61,5.68-14.47,2.7-4.42,6.8-8.45,12.31-12.07,5.49-3.63,10.93-5.91,16.32-6.84,5.29-.5,10.33-.25,15.12.73,4.77.97,9.16,2.76,13.15,5.37,3.71,2.81,6.7,5.92,8.95,9.32l142.81,216.18c2.24,3.41,3.92,7.36,5.05,11.89.84,4.71.9,9.36.18,13.96-.8,5.04-2.56,9.76-5.27,14.18-2.8,4.86-6.94,9.1-12.44,12.73-5.49,3.62-11.24,5.73-17.24,6.33-5.84.83-11.31.49-16.43-1l-225.62-63.43Z"/>
        <path class="cls-66" d="M861.74,464.79l-106.67-236.15c-1.67-3.7-2.55-7.94-2.66-12.72-.37-4.65.24-9.41,1.83-14.27,1.72-4.54,4.35-9,7.88-13.35,3.39-3.93,8.09-7.26,14.09-9.97,6-2.7,11.74-4.08,17.22-4.15,5.31.36,10.25,1.38,14.82,3.09,4.58,1.74,8.61,4.22,12.11,7.45,3.25,3.34,5.78,7.01,7.57,11.01l106.48,235.72c1.67,3.7,2.7,7.89,3.07,12.54.39,4.64-.14,9.18-1.59,13.59-1.58,4.86-4.21,9.32-7.88,13.38-3.56,4.36-8.34,7.89-14.33,10.6-5.72,2.58-11.31,3.9-16.77,3.95-5.47.08-10.49-.74-15.06-2.48-4.55-1.71-8.59-4.18-12.11-7.41-3.53-3.23-6.2-6.84-8-10.83Z"/>
        <path class="cls-66" d="M1008.09,231.73l41.04,155.98c1.05,3.94,1.36,8.23.96,12.88-.4,4.63-1.67,9.01-3.83,13.15-2.38,4.53-5.71,8.5-9.99,11.89-4.22,3.69-9.51,6.37-15.88,8.04-6.36,1.68-12.14,1.91-17.34.69-5.41-.84-10.1-2.69-14.09-5.54-4.31-2.77-7.77-6.07-10.4-9.89-2.92-3.79-4.9-7.64-5.95-11.58l-65.91-250.58c-1.05-3.93-1.22-8.26-.53-12.99.41-4.64,1.8-9.22,4.17-13.74,2.45-4.22,5.79-8.18,9.99-11.89,3.99-3.3,9.17-5.79,15.53-7.47,12.13-3.19,22.72-1.76,31.77,4.27l114.5,72.97,66.28-119.57c2.45-4.19,5.99-8.03,10.59-11.52,4.3-3.4,9.33-5.87,15.08-7.39,6.36-1.68,12.25-2.1,17.65-1.24,5.11.94,9.78,2.64,13.99,5.09,4.28,2.76,7.86,5.86,10.72,9.32,2.63,3.86,4.5,7.9,5.62,12.13l65.93,250.58c1.05,3.95,1.36,8.24.96,12.88-.71,4.72-2.13,9.15-4.27,13.29-2.38,4.51-5.57,8.42-9.59,11.75-4.2,3.7-9.48,6.39-15.84,8.06-6.36,1.67-12.14,1.89-17.34.67-5.41-.84-10.1-2.68-14.09-5.52-4.31-2.78-7.77-6.09-10.38-9.93-2.94-3.76-4.94-7.6-5.98-11.54l-41.04-155.98-43.97,78.67c-1.78,3.05-4.09,5.93-6.94,8.63-3.17,2.77-7.04,4.75-11.58,5.94-4.25,1.11-8.27,1.21-12.07.29-4.12-.87-7.72-2.19-10.79-3.97l-76.98-46.86Z"/>
        <path class="cls-66" d="M1504.96,48.75l107.95,251.11c1.97,3.7,3.04,8.07,3.2,13.09.1,4.07-.57,8.32-2.02,12.74-1.77,4.44-4.32,8.43-7.67,11.97-3.36,3.53-7.36,6.46-12.01,8.79-4.96,2.65-10.71,4.06-17.28,4.23-9.72.26-17.78-2.04-24.18-6.88-6.4-4.84-10.94-10.37-13.62-16.57l-27.64-65.56c-1.64-2.47-3.56-3.67-5.76-3.62l-79.45,2.16c-.93.03-1.86.38-2.77,1.04-1.25.67-2.17,1.63-2.77,2.89l-24.51,66.99c-2.35,6.34-6.59,12.09-12.72,17.26-6.14,5.2-14.05,7.93-23.75,8.18-6.27.18-11.94-.92-17.02-3.3-5.08-2.06-9.23-4.77-12.46-8.14-3.54-3.35-6.16-7.2-7.85-11.54-1.99-4.33-3.03-8.53-3.14-12.6-.14-4.71.52-9.12,1.97-13.23l94.18-256.58c2.91-7.92,8.37-14.97,16.37-21.13,7.68-5.86,17.01-8.94,27.99-9.24,10.95-.3,20.43,2.42,28.43,8.16,8,5.76,13.51,12.35,16.53,19.79ZM1463.05,150.57c-2.38,5.4-4.59,10.79-6.64,16.16-2.03,5.69-4.07,11.39-6.1,17.1.01.63-.29,1.26-.9,1.89l28.19-.75c-.02-.31-.35-1.08-1-2.32-.71-2.49-1.73-5.13-3.05-7.92-1.32-2.79-2.66-5.73-4.02-8.81-1.01-2.81-2.01-5.46-3.01-7.94-1.32-2.45-2.48-4.93-3.48-7.41Z"/>
        <path class="cls-66" d="M1762.91,375.37c-10.49-1.89-21.02-4.43-31.59-7.61-10.57-3.18-20.67-7.23-30.3-12.15-9.98-4.66-19.13-10.44-27.44-17.36-8.31-6.91-15.26-15.16-20.87-24.77-4.9-8.22-6.57-16.64-5.01-25.26.72-4.03,2.39-8.03,5.03-11.99,2.33-4.06,5.53-7.63,9.59-10.73,3.76-3.14,8.33-5.51,13.7-7.08,5.01-1.33,10.75-1.41,17.22-.24,7.72,1.4,13.65,3.9,17.79,7.51,4.08,3.92,8.31,8.67,12.7,14.23,2.57,3.34,6.05,6.2,10.42,8.57,4.27,2.69,8.98,4.81,14.12,6.37,4.77,1.81,9.6,3.32,14.48,4.54,4.88,1.2,9.33,2.15,13.33,2.87,14.5,2.62,26.75,2.75,36.74.39,9.66-2.39,15.38-8.51,17.16-18.38.72-4.02.66-7.22-.16-9.61-1.11-2.74-3.78-5.61-8.02-8.61-4.6-2.73-9.52-5.52-14.73-8.39-5.29-2.55-10.43-4.91-15.45-7.08-5.03-2.17-8.89-3.66-11.61-4.48-12.96-5.85-25.84-12.15-38.65-18.91-12.78-6.76-23.91-14.82-33.39-24.18-9.53-9.02-16.65-19.86-21.37-32.51-4.79-12.35-5.63-27.15-2.5-44.42,2.61-14.5,8.1-27.37,16.49-38.59,8.39-11.24,18.81-20.35,31.22-27.34,12.03-6.76,25.9-11.27,41.61-13.54,15.7-2.26,32.03-1.87,48.99,1.18,17.59,3.18,33.65,8.62,48.19,16.33,14.22,7.67,26.11,18.57,35.68,32.71,6.08,8.74,8.23,18.06,6.46,27.95-.73,4-2.24,8.02-4.56,12.05-2.64,4-5.8,7.42-9.51,10.24-4.02,2.77-8.52,4.82-13.54,6.17-5.37,1.56-11.31,1.76-17.79.59-9.87-1.78-17.95-6.42-24.24-13.92-2.65-3.01-5.03-5.67-7.15-7.98-2.21-1.96-4.47-3.64-6.75-5.03-2.61-1.43-5.43-2.57-8.47-3.42-3.02-.87-6.7-1.69-11.01-2.46-12.34-2.22-22.96-1.6-31.88,1.87-8.92,3.5-14.18,9.73-15.8,18.69-.77,4.32-.68,7.36.29,9.12,1.71,2.86,4.71,5.63,9,8.3,3.93,2.95,8.54,5.69,13.82,8.22,4.97,2.5,9.98,4.68,15.06,6.53,4.7,2.13,8.55,3.78,11.54,4.95,13.03,5.54,25.92,11.68,38.7,18.44,12.8,6.77,23.94,14.83,33.4,24.18,9.47,9.36,16.6,20.21,21.4,32.53,4.41,12.58,5.09,27.36,2.03,44.33-2.89,16.04-8.69,29.65-17.39,40.81-8.71,11.18-19.37,19.93-31.98,26.26-12.96,6.58-27.55,10.64-43.76,12.17-16.26,1.86-33.34,1.17-51.24-2.06Z"/>
        <path class="cls-66" d="M2052.53,103.8l186.91,72.14c6.13,2.38,11.14,5.49,15.02,9.34,3.5,4.03,6.24,8.28,8.21,12.74,1.96,4.45,3.04,9.07,3.23,13.84-.14,4.66-.94,8.89-2.4,12.68-1.47,3.8-3.72,7.47-6.76,11.01-3.17,3.82-6.83,6.77-10.99,8.86-4.45,1.97-9.41,3.07-14.88,3.32-5.59.54-11.46-.37-17.59-2.75l-50.89-19.64c-.87-.34-2.27-.21-4.2.39-1.91.61-3.32,2.09-4.21,4.44l-77.23,200.03c-1.47,3.8-3.73,7.46-6.78,10.99-3.04,3.53-6.65,6.33-10.83,8.41-4.58,2.29-9.59,3.55-15.04,3.79-5.58.53-11.44-.4-17.58-2.77-6.14-2.38-10.96-5.58-14.45-9.61-3.88-3.84-6.61-8.09-8.18-12.74-1.87-4.75-2.74-9.45-2.61-14.09-.18-4.79.47-9.09,1.94-12.89l77.23-200.05c.9-2.32,1-4.3.28-5.92-1.03-1.74-2.12-2.83-3.28-3.28l-50.89-19.64c-5.85-2.26-10.72-5.32-14.6-9.16-4-3.58-7-7.6-8.98-12.05-1.97-4.45-3.04-9.06-3.22-13.84-.3-4.49.4-8.92,2.1-13.29,1.46-3.8,3.87-7.41,7.23-10.85,3.04-3.51,6.84-6.4,11.42-8.65,4.46-1.99,9.48-3.26,15.04-3.79,5.18-.35,10.84.66,16.97,3.03Z"/>
        <path class="cls-66" d="M2220.07,540c-5.05-3.17-9.11-7.03-12.18-11.56-3.51-4.43-5.81-9.02-6.88-13.78-1.35-4.91-1.64-9.73-.9-14.45.49-4.88,1.99-9.32,4.5-13.32l138.11-219.21c2.17-3.45,5.22-6.52,9.16-9.24,3.65-2.86,7.94-4.98,12.86-6.35,4.76-1.07,9.93-1.33,15.52-.77,5.15.67,10.51,2.75,16.08,6.25l112.61,70.94c5.57,3.52,9.88,7.53,12.97,12.05,2.63,4.63,4.49,9.32,5.58,14.07,1.07,4.76,1.23,9.5.49,14.21-1.01,4.56-2.68,8.7-5.03,12.42-2.17,3.45-5.1,6.61-8.77,9.49-3.66,2.88-7.73,4.94-12.21,6.17-4.76,1.09-9.85,1.22-15.25.41-5.59-.55-11.18-2.59-16.75-6.09l-73.99-46.63c-.81-.5-2.2-.64-4.2-.43-1.99.24-3.64,1.43-4.97,3.54l-17.3,27.44c-1.34,2.13-1.61,4.01-.79,5.64.66,1.9,1.4,3.1,2.2,3.6l53.31,33.59c5.58,3.52,9.89,7.54,12.96,12.07,2.63,4.63,4.49,9.32,5.58,14.07,1.07,4.75,1.24,9.49.51,14.21-1.03,4.56-2.72,8.69-5.05,12.4-2.17,3.45-5.08,6.62-8.73,9.5-3.95,2.69-8.16,4.66-12.64,5.91-4.93,1.36-9.97,1.7-15.12,1.03-5.58-.54-11.15-2.56-16.71-6.06l-53.33-33.61c-.79-.49-2.18-.62-4.17-.39-1.99.2-3.66,1.37-5.01,3.5l-26.05,41.36c-1.35,2.13-1.61,4.01-.78,5.64.66,1.91,1.39,3.11,2.18,3.6l74.01,46.63c5.56,3.5,9.88,7.52,12.95,12.07,2.65,4.61,4.5,9.29,5.58,14.04,1.09,4.76,1.26,9.51.51,14.23-1.02,4.56-2.69,8.7-5.03,12.4-2.17,3.45-5.1,6.61-8.77,9.49-3.65,2.88-7.72,4.94-12.19,6.19-4.94,1.33-10.11,1.59-15.51.78-5.59-.54-11.18-2.57-16.75-6.09l-112.59-70.94Z"/>
        <path class="cls-66" d="M2615.89,664.26c-.76,2.25-1.59,5.74-2.49,10.46-.7,4.45-1.48,9.47-2.32,15.06-1.3,5.6-2.49,11.53-3.54,17.79-2.32,12.3-4.33,23.83-6.07,34.56-1.99,10.52-3.24,17.23-3.77,20.13-1.03,6.72-3.87,12.62-8.51,17.71-2.74,3-6.18,5.6-10.3,7.8-4.56,2.2-9.17,3.5-13.82,3.93-4.86.23-9.76-.43-14.72-2-5.4-1.52-10.53-4.5-15.39-8.93-5.79-5.3-9.61-11.13-11.46-17.48-2.07-6.56-2.56-12.96-1.51-19.22l22.74-122.52c.3-3.13-.36-5.43-1.97-6.9-.24-.23-.79-.54-1.69-.93-1.13-.16-2.43.56-3.91,2.18l-58.03,63.55c-2.74,3-6.19,5.59-10.32,7.78-4.11,2.2-8.48,3.5-13.11,3.93-5.09.45-10.23-.21-15.41-1.97-5.4-1.53-10.53-4.52-15.39-8.95-4.86-4.44-8.18-9.17-9.95-14.19-2.23-5.01-3.22-9.96-2.99-14.86-.01-5.09.88-9.78,2.67-14.09,1.57-4.5,3.73-8.25,6.47-11.25l174.45-190.96c2.95-3.26,6.61-5.87,10.95-7.84,4.14-2.18,8.74-3.51,13.82-3.97,4.87-.2,10,.46,15.41,1.97,4.94,1.56,9.84,4.56,14.7,9l56.58,51.7c12.97,11.84,22.65,24.49,29.03,37.97,5.95,13.49,9.1,26.99,9.49,40.51.16,13.31-2.04,26.17-6.6,38.57-4.97,12.44-11.78,23.39-20.45,32.87-14.59,15.97-30.23,25.89-46.92,29.76-16.91,4.08-35.47,3.7-55.67-1.16ZM2595.52,551.36c-1.7,1.86-2.4,3.78-2.1,5.76.31,2,.81,3.31,1.51,3.93l22.92,20.95c7.18,6.55,14.43,9.77,21.76,9.65,6.86-.09,13.36-3.5,19.5-10.22,6.13-6.7,9.04-13.6,8.73-20.68-.78-7.05-4.75-13.86-11.93-20.42l-22.92-20.94c-.69-.62-2.03-1.01-4.03-1.16-2.01-.11-3.86.75-5.54,2.59l-27.91,30.55Z"/>
        <path class="cls-66" d="M2666.07,934.94c-6.35-8.55-12.29-17.62-17.83-27.2-5.54-9.55-10.13-19.41-13.78-29.57-4.09-10.25-6.79-20.74-8.12-31.47-1.34-10.71-.75-21.48,1.73-32.32,2.06-9.34,6.62-16.62,13.66-21.86,3.28-2.43,7.24-4.2,11.89-5.31,4.46-1.35,9.23-1.77,14.31-1.24,4.88.29,9.82,1.69,14.82,4.21,4.57,2.47,8.82,6.35,12.74,11.63,4.68,6.29,7.29,12.17,7.82,17.63.3,5.64.14,12.01-.47,19.09-.41,4.21.16,8.66,1.73,13.35,1.27,4.89,3.26,9.68,5.96,14.35,2.22,4.59,4.7,8.98,7.43,13.19,2.74,4.22,5.32,7.96,7.75,11.24,8.78,11.83,17.61,20.3,26.5,25.4,8.7,4.87,17.07,4.32,25.12-1.64,3.28-2.45,5.42-4.82,6.43-7.13,1.08-2.76,1.11-6.67.06-11.74-1.48-5.16-3.15-10.57-5-16.22-2.11-5.47-4.25-10.72-6.41-15.74-2.17-5.01-3.97-8.74-5.4-11.19-5.46-13.14-10.53-26.55-15.22-40.24-4.71-13.68-7.32-27.18-7.82-40.49-.75-13.11,1.47-25.88,6.68-38.33,4.95-12.26,14.47-23.63,28.56-34.1,11.83-8.78,24.65-14.39,38.45-16.83,13.81-2.44,27.64-1.96,41.49,1.44,13.39,3.32,26.59,9.51,39.59,18.58,13,9.11,24.63,20.58,34.91,34.4,10.65,14.36,18.63,29.32,23.96,44.89,5.13,15.33,6.34,31.43,3.62,48.28-1.55,10.51-6.35,18.77-14.41,24.75-3.27,2.43-7.13,4.32-11.58,5.68-4.64,1.11-9.28,1.43-13.92.97-4.83-.72-9.53-2.32-14.09-4.78-5.01-2.54-9.48-6.45-13.4-11.72-5.98-8.05-8.7-16.97-8.14-26.75.13-4.01.21-7.57.23-10.71-.24-2.96-.72-5.72-1.45-8.28-.94-2.82-2.22-5.59-3.83-8.3-1.63-2.7-3.75-5.81-6.35-9.33-7.48-10.07-15.65-16.88-24.52-20.45-8.9-3.54-17.01-2.61-24.3,2.81-3.52,2.62-5.53,4.9-6.03,6.84-.72,3.26-.43,7.33.87,12.22.84,4.85,2.31,9.99,4.42,15.45,1.93,5.22,4.1,10.26,6.53,15.1,1.98,4.76,3.65,8.59,5.01,11.48,5.71,12.95,10.92,26.27,15.61,39.96,4.69,13.69,7.29,27.18,7.79,40.47.49,13.3-1.74,26.08-6.68,38.35-5.39,12.2-15.01,23.44-28.86,33.73-13.08,9.72-26.62,15.66-40.61,17.85-14,2.18-27.76,1.27-41.28-2.75-13.95-4.07-27.36-11.09-40.22-21.06-13.14-9.77-25.12-21.96-35.95-36.56Z"/>
        <path class="cls-4" d="M139.74,836.28l127.36,98.97c3.22,2.5,6.08,5.72,8.59,9.65,2.49,3.92,4.15,8.18,4.97,12.76.86,5.04.6,10.21-.75,15.53-1.1,5.49-3.67,10.85-7.71,16.04-4.03,5.2-8.48,8.89-13.35,11.07-4.79,2.61-9.64,3.99-14.53,4.15-5.09.41-9.85-.11-14.27-1.55-4.63-1.22-8.55-3.08-11.77-5.58L13.66,838.38c-3.22-2.49-5.97-5.83-8.28-10.01-2.51-3.94-4.19-8.42-5.05-13.46-.61-4.85-.37-10.02.73-15.51,1.16-5.05,3.74-10.17,7.78-15.37,7.69-9.91,16.98-15.21,27.85-15.92l135.28-11.63-20.01-135.2c-.61-4.84-.14-10.04,1.4-15.59,1.34-5.3,3.85-10.31,7.51-15.02,4.03-5.2,8.46-9.1,13.27-11.7,4.62-2.37,9.34-3.87,14.17-4.48,5.09-.42,9.83-.12,14.21.9,4.43,1.46,8.37,3.54,11.83,6.23l204.59,158.98c3.23,2.5,6.1,5.71,8.61,9.62,2.29,4.19,3.85,8.57,4.66,13.17.86,5.02.7,10.07-.47,15.12-1.1,5.49-3.66,10.85-7.69,16.04-4.05,5.2-8.5,8.89-13.37,11.08-4.8,2.62-9.64,4.01-14.51,4.17-5.1.42-9.87-.1-14.29-1.57-4.63-1.19-8.55-3.04-11.77-5.53l-127.36-98.97,12.86,89.18c.45,3.52.36,7.22-.26,11.12-.84,4.13-2.7,8.04-5.58,11.75-2.7,3.48-5.85,6-9.44,7.57-3.8,1.81-7.46,2.93-10.97,3.38l-89.6,9.56Z"/>
        <path class="cls-53" d="M456.06,713.74l-175.34-190.75c-2.75-3-4.92-6.76-6.49-11.28-1.82-4.28-2.73-8.97-2.75-14.09.2-4.87,1.3-9.93,3.3-15.17,1.98-4.8,5.39-9.43,10.24-13.88,4.84-4.44,9.86-7.57,15.04-9.36,5.15-1.33,10.16-1.89,15.04-1.69,4.89.21,9.5,1.3,13.84,3.26,4.13,2.16,7.67,4.86,10.65,8.1l175.02,190.4c2.75,3,5.04,6.66,6.86,10.97,1.82,4.27,2.74,8.75,2.77,13.41,0,5.1-1.1,10.15-3.29,15.16-2.01,5.24-5.43,10.09-10.28,14.53-4.61,4.25-9.51,7.27-14.7,9.04-5.17,1.78-10.2,2.56-15.06,2.34-4.88-.2-9.49-1.27-13.84-3.21-4.37-1.97-8.04-4.56-10.99-7.8Z"/>
        <path class="cls-56" d="M525.67,452.68l85.01,128.69c2.24,3.41,3.91,7.38,5.03,11.91,1.11,4.54,1.31,9.1.61,13.7-.8,5.04-2.69,9.85-5.68,14.45-2.81,4.86-6.96,9.1-12.46,12.72-5.48,3.64-10.88,5.71-16.2,6.21-5.38.92-10.42.68-15.1-.73-4.96-1.25-9.29-3.27-13.02-6.05-3.99-2.63-7.11-5.65-9.34-9.06l-142.55-215.79c-2.43-3.67-4.07-7.86-4.93-12.54-1.1-4.53-1.25-9.32-.45-14.37.98-4.77,2.86-9.59,5.66-14.43,2.72-4.41,6.82-8.43,12.32-12.05,5.49-3.63,11.14-5.88,16.98-6.74,6-.58,11.48-.25,16.45,1l223.66,63.02-83.46-126.35c-2.25-3.4-3.8-7.46-4.64-12.17-1.11-4.5-1.27-9.27-.47-14.31.96-4.79,2.85-9.61,5.68-14.47,2.69-4.42,6.8-8.45,12.31-12.07,5.49-3.63,10.93-5.91,16.32-6.84,5.29-.5,10.33-.25,15.12.73,4.77.97,9.16,2.76,13.15,5.37,3.71,2.81,6.7,5.92,8.95,9.32l142.81,216.17c2.24,3.41,3.92,7.37,5.05,11.89.84,4.71.9,9.36.19,13.96-.81,5.04-2.56,9.76-5.27,14.18-2.8,4.86-6.94,9.1-12.44,12.72-5.49,3.62-11.23,5.74-17.24,6.33-5.84.83-11.31.5-16.43-1l-225.62-63.43Z"/>
        <path class="cls-45" d="M840.96,444l-106.66-236.14c-1.67-3.7-2.56-7.94-2.67-12.72-.37-4.65.24-9.41,1.83-14.27,1.73-4.54,4.35-9,7.88-13.35,3.39-3.93,8.09-7.26,14.09-9.97,6-2.7,11.74-4.08,17.22-4.15,5.31.36,10.25,1.38,14.82,3.09,4.57,1.74,8.61,4.22,12.11,7.45,3.25,3.34,5.77,7.01,7.57,11.01l106.48,235.72c1.67,3.7,2.7,7.89,3.07,12.54.39,4.64-.14,9.18-1.58,13.6-1.59,4.86-4.22,9.32-7.88,13.37-3.56,4.36-8.33,7.89-14.33,10.61-5.71,2.58-11.31,3.9-16.78,3.95-5.47.08-10.49-.74-15.06-2.49-4.55-1.7-8.59-4.17-12.11-7.41-3.53-3.23-6.2-6.84-8-10.83Z"/>
        <path class="cls-72" d="M987.3,210.94l41.04,155.98c1.05,3.94,1.36,8.23.96,12.89-.4,4.63-1.67,9.01-3.83,13.15-2.38,4.53-5.71,8.5-9.99,11.89-4.22,3.69-9.52,6.37-15.88,8.04-6.36,1.68-12.14,1.91-17.34.69-5.41-.84-10.1-2.69-14.09-5.54-4.31-2.77-7.77-6.07-10.4-9.89-2.92-3.79-4.9-7.64-5.95-11.58l-65.91-250.58c-1.04-3.93-1.22-8.26-.53-12.99.41-4.64,1.8-9.22,4.17-13.74,2.46-4.22,5.79-8.18,9.99-11.89,3.99-3.3,9.17-5.79,15.53-7.47,12.13-3.19,22.72-1.76,31.77,4.27l114.5,72.97,66.28-119.57c2.45-4.19,5.98-8.03,10.58-11.52,4.3-3.4,9.33-5.87,15.09-7.39,6.36-1.68,12.24-2.1,17.64-1.24,5.12.94,9.78,2.64,13.99,5.09,4.28,2.76,7.86,5.86,10.72,9.32,2.63,3.86,4.5,7.9,5.62,12.13l65.93,250.58c1.05,3.95,1.36,8.24.96,12.88-.7,4.72-2.13,9.15-4.27,13.29-2.38,4.51-5.57,8.42-9.59,11.74-4.19,3.7-9.48,6.39-15.83,8.06-6.37,1.67-12.15,1.89-17.35.67-5.4-.84-10.09-2.68-14.09-5.52-4.31-2.78-7.77-6.09-10.38-9.93-2.95-3.76-4.94-7.6-5.98-11.54l-41.04-155.98-43.97,78.67c-1.78,3.05-4.09,5.93-6.94,8.63-3.17,2.77-7.03,4.75-11.58,5.94-4.25,1.11-8.27,1.21-12.07.28-4.13-.87-7.73-2.19-10.79-3.97l-76.98-46.86Z"/>
        <path class="cls-75" d="M1484.18,27.97l107.94,251.1c1.98,3.7,3.05,8.07,3.2,13.09.11,4.07-.56,8.32-2.01,12.74-1.77,4.44-4.33,8.43-7.67,11.97-3.35,3.53-7.36,6.46-12.01,8.79-4.96,2.65-10.72,4.06-17.28,4.23-9.72.26-17.78-2.04-24.18-6.88-6.41-4.84-10.94-10.37-13.62-16.57l-27.64-65.56c-1.64-2.47-3.56-3.67-5.76-3.62l-79.45,2.16c-.94.03-1.86.38-2.77,1.04-1.25.67-2.18,1.63-2.77,2.89l-24.51,66.99c-2.35,6.34-6.59,12.09-12.72,17.26-6.14,5.2-14.05,7.93-23.75,8.18-6.27.18-11.95-.92-17.02-3.3-5.08-2.06-9.23-4.77-12.46-8.14-3.54-3.35-6.17-7.2-7.86-11.54-1.98-4.33-3.03-8.53-3.14-12.6-.14-4.71.52-9.12,1.97-13.23l94.19-256.58c2.91-7.92,8.37-14.97,16.37-21.13,7.68-5.86,17.01-8.94,27.98-9.24,10.96-.3,20.43,2.42,28.44,8.16,8,5.76,13.51,12.35,16.53,19.79ZM1442.27,129.79c-2.38,5.4-4.59,10.79-6.64,16.16-2.03,5.69-4.07,11.39-6.11,17.1.01.63-.29,1.26-.9,1.89l28.19-.75c-.02-.31-.35-1.08-1-2.32-.7-2.49-1.72-5.13-3.05-7.92-1.31-2.79-2.66-5.73-4.01-8.81-1.01-2.81-2.01-5.46-3.01-7.94-1.31-2.45-2.47-4.93-3.48-7.41Z"/>
        <path class="cls-30" d="M1742.12,354.6c-10.49-1.89-21.02-4.43-31.59-7.61-10.58-3.18-20.68-7.23-30.31-12.15-9.98-4.66-19.12-10.44-27.44-17.36-8.31-6.91-15.26-15.17-20.87-24.77-4.9-8.22-6.57-16.64-5.01-25.26.72-4.03,2.39-8.03,5.03-11.99,2.33-4.06,5.53-7.63,9.59-10.73,3.76-3.14,8.33-5.51,13.7-7.08,5.01-1.33,10.75-1.41,17.22-.24,7.72,1.4,13.65,3.9,17.79,7.51,4.07,3.92,8.31,8.67,12.7,14.23,2.57,3.34,6.05,6.2,10.42,8.57,4.27,2.69,8.98,4.81,14.12,6.37,4.77,1.81,9.6,3.32,14.48,4.54,4.88,1.2,9.33,2.15,13.33,2.87,14.5,2.62,26.75,2.75,36.74.39,9.66-2.39,15.38-8.51,17.16-18.38.72-4.02.67-7.22-.16-9.61-1.12-2.74-3.79-5.61-8.02-8.61-4.6-2.73-9.51-5.52-14.73-8.39-5.28-2.55-10.43-4.91-15.45-7.08-5.02-2.17-8.89-3.66-11.61-4.48-12.96-5.85-25.84-12.15-38.65-18.91-12.78-6.76-23.91-14.82-33.39-24.18-9.53-9.02-16.65-19.86-21.37-32.51-4.79-12.35-5.63-27.15-2.5-44.42,2.61-14.5,8.1-27.37,16.49-38.59,8.4-11.24,18.81-20.35,31.22-27.34,12.04-6.76,25.91-11.27,41.61-13.54,15.7-2.26,32.03-1.87,48.99,1.18,17.59,3.18,33.65,8.62,48.19,16.33,14.22,7.67,26.11,18.57,35.68,32.71,6.07,8.74,8.23,18.05,6.45,27.95-.73,4.01-2.24,8.02-4.56,12.05-2.64,4.01-5.8,7.42-9.51,10.24-4.02,2.77-8.52,4.82-13.54,6.17-5.37,1.56-11.31,1.76-17.79.59-9.87-1.78-17.95-6.42-24.24-13.92-2.65-3.01-5.03-5.67-7.14-7.98-2.22-1.96-4.47-3.64-6.76-5.03-2.61-1.42-5.43-2.56-8.47-3.42-3.03-.87-6.69-1.69-11.01-2.46-12.34-2.22-22.96-1.6-31.88,1.87-8.92,3.5-14.18,9.73-15.8,18.69-.77,4.32-.68,7.36.29,9.12,1.71,2.86,4.71,5.63,9,8.31,3.93,2.95,8.54,5.69,13.82,8.22,4.97,2.5,9.98,4.68,15.06,6.53,4.71,2.13,8.55,3.78,11.54,4.95,13.03,5.54,25.92,11.68,38.7,18.44,12.81,6.77,23.94,14.83,33.4,24.18,9.47,9.36,16.6,20.21,21.4,32.53,4.41,12.58,5.09,27.36,2.03,44.33-2.89,16.04-8.68,29.65-17.39,40.81-8.71,11.18-19.37,19.93-31.98,26.26-12.96,6.58-27.55,10.64-43.76,12.17-16.26,1.86-33.34,1.17-51.24-2.06Z"/>
        <path class="cls-48" d="M2031.74,83.02l186.91,72.14c6.13,2.38,11.14,5.49,15.02,9.34,3.5,4.03,6.23,8.28,8.21,12.74,1.96,4.45,3.04,9.07,3.23,13.84-.14,4.66-.94,8.88-2.4,12.68-1.46,3.8-3.72,7.47-6.75,11.01-3.17,3.82-6.83,6.77-10.99,8.85-4.46,1.97-9.42,3.07-14.88,3.32-5.59.54-11.46-.37-17.59-2.75l-50.89-19.64c-.87-.34-2.27-.21-4.19.39-1.91.61-3.32,2.09-4.21,4.44l-77.23,200.03c-1.46,3.8-3.72,7.46-6.78,10.99-3.04,3.53-6.65,6.33-10.83,8.41-4.58,2.29-9.59,3.55-15.04,3.79-5.58.53-11.44-.4-17.59-2.77-6.14-2.38-10.95-5.58-14.45-9.61-3.88-3.84-6.61-8.09-8.18-12.74-1.88-4.75-2.74-9.44-2.61-14.09-.18-4.79.47-9.09,1.94-12.88l77.23-200.05c.91-2.32,1.01-4.29.29-5.92-1.03-1.74-2.13-2.83-3.28-3.28l-50.89-19.64c-5.85-2.26-10.72-5.32-14.6-9.16-4-3.58-7-7.6-8.98-12.05-1.97-4.45-3.04-9.06-3.22-13.84-.3-4.49.4-8.92,2.1-13.29,1.47-3.8,3.88-7.41,7.23-10.85,3.04-3.51,6.85-6.4,11.42-8.65,4.46-1.99,9.47-3.26,15.04-3.79,5.18-.35,10.84.66,16.97,3.03Z"/>
        <path class="cls-22" d="M2199.28,519.21c-5.04-3.17-9.11-7.03-12.17-11.56-3.51-4.43-5.81-9.02-6.88-13.78-1.34-4.92-1.64-9.73-.9-14.45.49-4.88,1.99-9.32,4.5-13.31l138.12-219.21c2.17-3.45,5.22-6.52,9.16-9.24,3.65-2.86,7.94-4.98,12.86-6.35,4.76-1.07,9.93-1.33,15.51-.77,5.15.67,10.52,2.75,16.08,6.25l112.61,70.94c5.56,3.52,9.88,7.53,12.96,12.05,2.63,4.63,4.49,9.32,5.58,14.07,1.07,4.76,1.23,9.5.48,14.21-1.01,4.56-2.68,8.7-5.03,12.42-2.17,3.45-5.1,6.61-8.77,9.49-3.66,2.88-7.73,4.94-12.22,6.17-4.76,1.09-9.85,1.22-15.25.41-5.59-.55-11.17-2.59-16.75-6.09l-74-46.63c-.8-.5-2.19-.64-4.19-.43-1.99.24-3.64,1.43-4.97,3.54l-17.3,27.44c-1.34,2.13-1.61,4.01-.79,5.64.66,1.9,1.39,3.1,2.19,3.6l53.31,33.59c5.58,3.52,9.9,7.54,12.97,12.07,2.63,4.63,4.49,9.32,5.58,14.07,1.07,4.75,1.24,9.49.51,14.21-1.03,4.56-2.72,8.69-5.05,12.4-2.17,3.45-5.09,6.62-8.73,9.51-3.95,2.69-8.16,4.66-12.64,5.9-4.93,1.36-9.97,1.7-15.12,1.04-5.58-.54-11.15-2.56-16.71-6.07l-53.33-33.61c-.79-.49-2.18-.62-4.17-.39-2,.2-3.66,1.37-5.01,3.5l-26.05,41.36c-1.34,2.13-1.6,4.01-.77,5.64.66,1.91,1.39,3.11,2.18,3.6l74.01,46.63c5.57,3.5,9.88,7.52,12.95,12.07,2.65,4.61,4.5,9.3,5.58,14.05,1.1,4.76,1.27,9.51.51,14.23-1.02,4.56-2.7,8.69-5.03,12.4-2.17,3.44-5.1,6.61-8.77,9.49-3.66,2.87-7.72,4.93-12.19,6.19-4.94,1.33-10.11,1.59-15.51.77-5.59-.54-11.18-2.57-16.75-6.08l-112.59-70.94Z"/>
        <path class="cls-11" d="M2595.11,643.48c-.76,2.25-1.59,5.74-2.48,10.46-.71,4.45-1.49,9.47-2.32,15.06-1.3,5.6-2.49,11.53-3.54,17.79-2.31,12.3-4.33,23.83-6.07,34.56-1.99,10.51-3.24,17.23-3.77,20.13-1.03,6.72-3.87,12.62-8.51,17.71-2.74,3-6.18,5.6-10.3,7.8-4.56,2.19-9.17,3.5-13.82,3.93-4.86.23-9.76-.44-14.71-2-5.41-1.52-10.54-4.5-15.39-8.94-5.8-5.29-9.62-11.12-11.46-17.48-2.07-6.55-2.56-12.96-1.51-19.22l22.74-122.52c.3-3.13-.36-5.43-1.97-6.9-.23-.23-.79-.54-1.69-.94-1.13-.16-2.43.57-3.91,2.18l-58.03,63.55c-2.74,3-6.18,5.59-10.32,7.78-4.11,2.19-8.48,3.5-13.11,3.93-5.09.45-10.23-.21-15.41-1.97-5.4-1.54-10.53-4.52-15.39-8.96-4.86-4.43-8.17-9.17-9.95-14.18-2.23-5.01-3.23-9.97-2.99-14.86-.02-5.09.87-9.78,2.66-14.09,1.57-4.51,3.73-8.26,6.47-11.26l174.45-190.95c2.95-3.26,6.61-5.87,10.95-7.84,4.14-2.18,8.74-3.51,13.82-3.97,4.87-.2,10,.46,15.41,1.97,4.93,1.56,9.83,4.56,14.7,9l56.58,51.7c12.97,11.84,22.65,24.49,29.03,37.97,5.95,13.49,9.1,26.99,9.49,40.51.16,13.31-2.03,26.17-6.59,38.57-4.97,12.43-11.79,23.39-20.46,32.87-14.59,15.97-30.23,25.89-46.92,29.76-16.91,4.08-35.47,3.7-55.67-1.16ZM2574.73,530.57c-1.7,1.86-2.39,3.78-2.1,5.76.31,2,.81,3.31,1.51,3.93l22.92,20.94c7.18,6.56,14.43,9.77,21.76,9.65,6.86-.09,13.36-3.5,19.5-10.22,6.13-6.7,9.05-13.6,8.73-20.68-.78-7.06-4.75-13.87-11.93-20.42l-22.92-20.95c-.69-.62-2.03-1.01-4.03-1.16-2.01-.1-3.86.75-5.53,2.59l-27.91,30.55Z"/>
        <path class="cls-32" d="M2645.28,914.16c-6.35-8.55-12.3-17.62-17.83-27.2-5.54-9.56-10.14-19.41-13.78-29.58-4.09-10.25-6.79-20.74-8.12-31.47-1.33-10.71-.75-21.49,1.73-32.32,2.06-9.34,6.62-16.62,13.66-21.86,3.28-2.43,7.25-4.2,11.89-5.31,4.46-1.35,9.23-1.77,14.31-1.24,4.89.29,9.82,1.69,14.82,4.21,4.57,2.47,8.82,6.35,12.74,11.62,4.68,6.3,7.29,12.18,7.82,17.63.29,5.65.14,12.01-.47,19.1-.41,4.2.16,8.66,1.73,13.35,1.28,4.89,3.26,9.68,5.97,14.35,2.22,4.59,4.7,8.98,7.43,13.19,2.74,4.22,5.32,7.96,7.76,11.24,8.78,11.83,17.61,20.3,26.5,25.4,8.7,4.87,17.07,4.32,25.12-1.65,3.28-2.44,5.43-4.82,6.43-7.12,1.08-2.76,1.11-6.67.06-11.75-1.48-5.16-3.15-10.56-5.01-16.22-2.11-5.47-4.24-10.72-6.41-15.74-2.17-5.01-3.97-8.75-5.4-11.2-5.46-13.14-10.53-26.55-15.22-40.24-4.71-13.68-7.32-27.17-7.82-40.49-.75-13.11,1.48-25.88,6.68-38.33,4.96-12.27,14.48-23.63,28.56-34.09,11.83-8.78,24.65-14.39,38.45-16.84,13.81-2.44,27.64-1.96,41.49,1.45,13.39,3.31,26.59,9.5,39.59,18.58,13,9.11,24.63,20.58,34.91,34.4,10.65,14.36,18.63,29.32,23.96,44.88,5.13,15.34,6.34,31.43,3.62,48.28-1.55,10.52-6.35,18.77-14.41,24.76-3.27,2.43-7.13,4.32-11.58,5.68-4.64,1.11-9.28,1.44-13.93.98-4.83-.73-9.53-2.32-14.09-4.78-5-2.54-9.48-6.45-13.39-11.73-5.98-8.05-8.7-16.96-8.14-26.75.13-4,.21-7.57.22-10.7-.23-2.96-.71-5.72-1.44-8.29-.94-2.82-2.22-5.59-3.83-8.3-1.63-2.7-3.75-5.8-6.35-9.32-7.48-10.07-15.65-16.88-24.53-20.45-8.9-3.54-17.01-2.61-24.3,2.8-3.51,2.62-5.52,4.9-6.02,6.84-.72,3.26-.43,7.33.87,12.22.84,4.84,2.31,9.99,4.42,15.45,1.93,5.22,4.1,10.26,6.53,15.1,1.98,4.76,3.65,8.59,5.01,11.48,5.71,12.95,10.91,26.26,15.61,39.96,4.69,13.69,7.29,27.18,7.8,40.47.49,13.29-1.74,26.08-6.68,38.35-5.39,12.2-15.01,23.44-28.86,33.73-13.08,9.71-26.62,15.66-40.61,17.85-13.99,2.18-27.75,1.27-41.28-2.75-13.95-4.07-27.36-11.09-40.22-21.06-13.14-9.77-25.12-21.96-35.95-36.56Z"/>
      </g>
    </g>
  </g>
</svg>