<?xml version="1.0" encoding="UTF-8"?>
<svg id="Layer_1" data-name="Layer 1" xmlns="http://www.w3.org/2000/svg" xmlns:xlink="http://www.w3.org/1999/xlink" width="100%" height="100%" viewBox="0 0 969.59 464.11">
  <defs>
    <style>
      .cls-1 {
        fill: #1c5790;
      }

      .cls-2 {
        fill: #4e3826;
      }

      .cls-3 {
        fill: #334658;
      }

      .cls-4 {
        fill: #e50009;
      }

      .cls-5 {
        fill: #fdf9ef;
      }

      .cls-6 {
        fill: #462a14;
      }

      .cls-7 {
        fill: #1e568c;
      }

      .cls-8 {
        fill: #f8c985;
      }

      .cls-9 {
        fill: #f9bd2e;
      }

      .cls-10 {
        mask: url(#mask-1);
      }

      .cls-11 {
        fill: #803684;
      }

      .cls-12 {
        fill: #de522a;
      }

      .cls-13 {
        fill: #6a5139;
      }

      .cls-14 {
        fill: rgba(255, 255, 255, .4);
      }

      .cls-15 {
        fill: #ecba4a;
      }

      .cls-16 {
        fill: #1c5891;
      }

      .cls-17 {
        fill: #e04e2b;
      }

      .cls-18 {
        fill: #fff;
      }

      .cls-19 {
        mask: url(#mask);
      }

      .cls-20 {
        fill: #c38e47;
      }

      .cls-21 {
        fill: #4d3824;
      }

      .cls-22 {
        fill: #efeaea;
      }

      .cls-23 {
        fill: #085ba6;
      }

      .cls-24 {
        fill: #473728;
      }

      .cls-25 {
        fill: #e9e8e6;
      }

      .cls-26 {
        fill: #1c578f;
      }

      .cls-27 {
        fill: #e8722b;
      }

      .cls-28 {
        fill: #dd4d2b;
      }

      .cls-29 {
        fill: #dc4d2a;
      }

      .cls-30 {
        fill: #684f38;
      }

      .cls-31 {
        fill: #1c9c9a;
      }

      .cls-32 {
        fill: #c57e48;
      }

      .cls-33 {
        fill: #b80282;
      }

      .cls-34 {
        mask: url(#mask-2);
      }

      .cls-35 {
        fill: #c89049;
      }

      .cls-36 {
        filter: url(#drop-shadow-1);
      }

      .cls-37 {
        fill: #422811;
      }

      .cls-38 {
        fill: #543e28;
      }

      .cls-39 {
        fill: #5a2c15;
      }

      .cls-40 {
        fill: #593e20;
      }

      .cls-41 {
        fill: #ca9249;
      }

      .cls-42 {
        fill: #e4a5aa;
      }

      .cls-43 {
        fill: #eeba4b;
      }

      .cls-44 {
        fill: #583520;
      }

      .cls-45 {
        fill: #db672c;
      }

      .cls-46 {
        fill: #f3b13f;
      }

      .cls-47 {
        fill: #523d28;
      }

      .cls-48 {
        fill: #ea722b;
      }

      .cls-49 {
        fill: #0289cf;
      }

      .cls-50 {
        fill: #e1522b;
      }

      .cls-51 {
        fill: #493827;
      }

      .cls-52 {
        fill: #52402c;
      }

      .cls-53 {
        fill: #f7f6f8;
      }

      .cls-54 {
        fill: #e85706;
      }

      .cls-55 {
        fill: #4d3b28;
      }

      .cls-56 {
        fill: #1d5891;
      }

      .cls-57 {
        fill: #ed9305;
      }

      .cls-58 {
        fill: #efbb4a;
      }

      .cls-59 {
        fill: #f3b126;
      }

      .cls-60 {
        fill: #c77f48;
      }

      .cls-61 {
        fill: #f9f7f9;
      }

      .cls-62 {
        fill: #f6f5f6;
      }

      .cls-63 {
        fill: #4b3826;
      }

      .cls-64 {
        fill: #432a15;
      }

      .cls-65 {
        fill: #bf7b46;
      }

      .cls-66 {
        fill: #529695;
      }

      .cls-67 {
        fill: #df4e2b;
      }

      .cls-68 {
        fill: #f7cb95;
      }

      .cls-69 {
        fill: #f5f3f4;
      }

      .cls-70 {
        fill: #f6f7f9;
      }

      .cls-71 {
        fill: #654627;
      }

      .cls-72 {
        fill: #94bf28;
      }

      .cls-73 {
        fill: #f5b328;
      }

      .cls-74 {
        fill: #d0401d;
      }

      .cls-75 {
        fill: #2da969;
      }
    </style>
    <filter id="drop-shadow-1" x="-22.05" y="-20.22" width="1017.84" height="512.4" filterUnits="userSpaceOnUse">
      <feOffset dx="2" dy="4"/>
      <feGaussianBlur result="blur" stdDeviation="8"/>
      <feFlood flood-color="#000" flood-opacity=".25"/>
      <feComposite in2="blur" operator="in"/>
      <feComposite in="SourceGraphic"/>
    </filter>
    <mask id="mask" x="93.87" y="387.77" width="784.92" height="76.74" maskUnits="userSpaceOnUse">
      <g id="mask0_1165_1486" data-name="mask0 1165 1486">
        <path class="cls-18" d="M878.79,387.77H93.87v76.74h784.92v-76.74Z"/>
      </g>
    </mask>
    <mask id="mask-1" x="95.58" y="389.05" width="781.51" height="75.41" maskUnits="userSpaceOnUse">
      <g id="mask1_1165_1486" data-name="mask1 1165 1486">
        <path class="cls-18" d="M95.58,389.05h781.51v75.41H95.58v-75.41Z"/>
      </g>
    </mask>
    <mask id="mask-2" x="-35.31" y="-30.48" width="1051.82" height="400.35" maskUnits="userSpaceOnUse">
      <g id="mask2_1165_1486" data-name="mask2 1165 1486">
        <path class="cls-18" d="M1016.5-30.48H-35.31v400.35H1016.5V-30.48Z"/>
      </g>
    </mask>
  </defs>
  <g class="cls-36">
    <g>
      <path class="cls-61" d="M574.03,255.48c.94,1,2.2,4.14,2.83,4.38,1.37.5,6.27-.91,9.33-.26,15.49,3.29,14.83,31.11-4.89,24.26-3.03-1.06-8.1-7.05-9.05-7.05-.4,0-3.86,2.62-5.5,3.11-6.64,2.06-14.17.44-19.01-4.82-3.61,3-6.98,5.9-11.85,6.37-21.24,2.03-17.12-25.56,1.12-25.09,2.03.06,7.13,2.53,7.9,2.29.31-.09,3.32-4.14,4.72-5.11,6.53-4.44,18.86-4.05,24.42,1.85l-.03.06Z"/>
      <path class="cls-69" d="M573,281.59c.23.15.4,1.2.95,1.65,2.8,2.32,5.18,3.58,8.67,4.52,6.27,1.7,6.84-1.23,6.38,8.31-2.17-.94-4.26-2.12-6.52-2.91-16.51-5.93-38.56-5.17-55.39-1.14l1.69-7.58c5.5,1.29,9.82.41,14.77-2.03,1.09-.53,3.12-2.41,3.78-2.53.77-.15,3.84,2.14,5.15,2.67,3.72,1.47,8.93,1.7,12.88,1.23,2-.23,6.58-2.82,7.64-2.17v-.03Z"/>
      <path class="cls-35" d="M600.28,346.1c.49-.3,4.38-7.17,6.96-8.9,6.27-4.23-.57,6.49-1.75,8.11-1.26,1.67-5.07,3.97-1.4,5.55,1.12-1.35,9.27-8.25,10.5-6.99.83,3.53-8.84,9.17-8.53,10.78.8,3,9.39-4.17,8.5,0-.37,1.79-5.75,3.58-6.67,4.52-3.49,3.58-1.37,3-6.93,6.02-.71.38-1.17,1.41-1.77,1.7-1.86.91-6.13-.56-7.35-2.35-.49-1.32,2-.85,1.69-2.32-.12-.59-4.52-2.62-5.78-6.29-.49-1.35-2.86-13.34-2.66-14.04.54-2.2,2.95-.21,3.66.76,1.32,1.76.94,3.44,1.72,4.64.66,1.03,3.06,1.79,3.81,3.67.46,1.2.37,6.49,3.21,4.47,1.2-.85-.11-4.73-.66-5.91-.69-1.5-3.64-3.94-3.66-4.2-.11-1.03,3.52-7.55,4.35-8.78,3.23-4.79,5.7-5.52,3.58,1.35-.49,1.59-3.64,6.99-3.58,7.4.17.82,2,1.2,2.75.79h.03Z"/>
      <path class="cls-58" d="M525.28,329.42c.26.35.49,2.82.97,3.97,2.38,5.55,5.35,9.4,10.48,12.54-3.43,5.38-14.91,1.85-18.75-1.73-6.47-6.08-3.55-14.57-1.12-21.86,1.72,1.53,2.26,3.79,4.24,5.26,1.06.76,4.01,1.65,4.15,1.85l.03-.03Z"/>
      <path class="cls-15" d="M585.59,338.02c-.31-.29,2.72-7.73,3.12-8.17.71-.76,2.98-1.18,4.21-2.09,1.52-1.09,2.03-2.7,3.44-3.76-.26,2.09,1.49,5.26,1.03,7.14-.46,1.88-5.09,7.29-5.87,9.75-1.66-1.73-3.41-3.32-5.95-2.91l.03.03Z"/>
      <path class="cls-27" d="M548.67,356.68c-.86,2.35,4.09,6.29,3.95,7.2-.37,2.17-8.39,6.17-10.22,4.79-2.78-2.08,2.12-12.43,6.27-11.98Z"/>
      <path class="cls-48" d="M563.44,357.27c2.72.76,5.5,3.56,6.01,6.4.26,1.44-.4,6.02-1.83,6.35-2.12.5-7.39-4.29-8.73-6.05,1.77-1.97,4.35-3.76,4.55-6.7Z"/>
      <path class="cls-48" d="M554.76,351.57c6.61-2.06,7.99,9.14,1.52,9.81-4.87.5-6.78-8.17-1.52-9.81Z"/>
      <path class="cls-27" d="M563.58,354.21c-.37-.24-1.37-2.7-1.83-3.35,2.46.24,10.45-3.32,11.91-2.64.83.38,1.97,2.29,2.86,2.94-1.72,3.14-10.39,4.61-12.91,3.06h-.03Z"/>
      <path class="cls-27" d="M550.96,350.28c-1.55,6.87-11.02,4.26-13.65-.29,2.12-5.37,9.22,1.15,13.65.29Z"/>
      <path class="cls-15" d="M583.33,350.86c-.6.68-5.84-3.82-6.81-4.38l5.41-4.93,1.4,9.31Z"/>
      <path class="cls-2" d="M556.62,291.99c-2.66-.18-5.81-.09-8.53,0,2.23-1,6.41-.97,8.53,0Z"/>
      <path class="cls-2" d="M560.03,292.58c.57-3.52,1.55-.09,1.72,0h-1.72Z"/>
      <path class="cls-2" d="M543.57,292.58c-.32-1.82,1.49-1.73,1.14,0-.37,0-.77-.03-1.14,0Z"/>
      <path class="cls-41" d="M581.78,307.42c.4.35,1.06.94,2.17,1.91,1.69,1.44,2.49,2.03,2.78,2.29,2.32,2.06,1.23,7.96.6,10.69-1.35,5.88-2.63,11.55-7.21,16.72-9.22,10.37-24.18,9.96-33.74,7.49-18.75-4.85-20.98-20.77-17.55-38.13,14.05-.15,27.56-4.58,38.21-14.01,4.24,5.88,7.24,8.34,9.28,9.46.83.47,3.12,1.59,5.41,3.58h.06Z"/>
      <path class="cls-43" d="M548.75,291.61c2.32-.15,4.06-.09,7.04,0,1.86.06,3.29.15,4.26.24.69.06,1.26.09,1.72.15.26,0,1.23.03,1.63.71.03.06.06.12.08.18-.69.82-1.75,2-3.21,3.2-2.35,1.94-4.41,2.91-9.33,4.85-8.24,3.23-12.42,4.88-14.51,4.58-2.2-.29-3.49-.24-6.07-.12-2.35.09-3.18.32-3.78.94-1.14,1.26-.2,2.91-1.2,4.26-.57.79-1.86,1.53-4.87,1.23.63-2.58,1.43-5.41,2.4-8.34,1.03-3.06,2.12-5.85,3.23-8.37,8.13-2.2,12.05-2.76,14.11-2.85.4,0,2.12-.09,4.52-.26,2.43-.17,2.43-.26,4.01-.35l-.06-.03Z"/>
      <path class="cls-15" d="M589.97,300.89c.94,1.23,2.35,7.93,2.15,9.75-6.3-3.88-13.48-6.79-18.46-12.54-.43-.5-3.26-3.99-2.86-4.35,4.61.5,16.29,3.47,19.15,7.17l.03-.03Z"/>
      <path class="cls-20" d="M589.57,312.97c6.44,1.53,5.38,12.1-.57,13.4.06-.41.11-.79.14-1.2.49-4.26.6-8.34.4-12.19h.03Z"/>
      <path class="cls-20" d="M524.82,313.55v12.25c-5.84-1.44-6.76-11.49,0-12.25Z"/>
      <path class="cls-2" d="M556.48,323.57c-.54.3-.89.97-.91,1.62-.06.82.4,1.44.51,1.59.43.59.86.62.97,1.12.09.32.06.73-.23.97-.26.24-.63.18-.77.18-.97-.12-2.26-1.35-2.63-2.97-.06-.21-.51-2.44.92-3.76.71-.68,1.86-1.06,2.75-.76.14.06.72.24,1,.76.06.12.23.44.09.73-.09.17-.29.26-.4.29-.26.09-.4,0-.72.03-.29,0-.49.15-.63.24l.06-.03Z"/>
      <path class="cls-53" d="M540.71,388.76l1.14-16.92c6.04.53,10.22-2.53,13.91-6.99,4.69,6.87,17.15,14.04,16.8-.3-.09-3.26-1.69-4.61-2.89-7.28,2.83,1.65,9.39-4.47,9.93-4.52,1.75-.15,6.98,6.9,7.04,8.87.09,2.94-2.55,8.52-2.2,11.96l-1.66-4.99c-1.12-.76-2.23-.03-2.32,1.2l1.72,18.92h-41.48v.06ZM549.81,379.04c0-1.2-.95-2.14-2.09-2.14s-2.09.97-2.09,2.14.94,2.15,2.09,2.15,2.09-.97,2.09-2.15ZM567.59,379.71c0-1.23-.97-2.23-2.18-2.23s-2.17,1-2.17,2.23.97,2.23,2.17,2.23,2.18-1,2.18-2.23Z"/>
      <path class="cls-62" d="M517.44,388.17c-.29-10.99,3.41-21.65,10.25-30,.89-1.09,5.64-6.17,6.52-6.17,1.03,0,5.67,5.49,8.24,4.7-1.35,2.12-3.03,4.11-3.35,6.76l-1.17,25.29c-2.46-.15-4.92-.26-7.38-.41.37-7.26.74-14.51,1.14-21.77-1.03,0-2.38-.26-2.75.97l-1.2,20.62h-10.3Z"/>
      <path class="cls-62" d="M585.02,389.35l3.69-23.33c4.21,3.56,8.59,5.58,13.91,2.94l-2.26,20.39h-15.34Z"/>
      <path class="cls-40" d="M565.44,381.94c1.2,0,2.18-1,2.18-2.23s-.97-2.23-2.18-2.23-2.17,1-2.17,2.23.97,2.23,2.17,2.23Z"/>
      <path class="cls-40" d="M547.72,381.18c1.15,0,2.09-.96,2.09-2.14s-.94-2.15-2.09-2.15-2.09.96-2.09,2.15.93,2.14,2.09,2.14Z"/>
      <path class="cls-52" d="M543.71,323.01c1.93,0,3.49-2.43,3.49-5.43s-1.56-5.43-3.49-5.43-3.49,2.43-3.49,5.43,1.56,5.43,3.49,5.43Z"/>
      <path class="cls-25" d="M544.93,318.63c.8-.1,1.32-1.27,1.16-2.63-.16-1.35-.93-2.37-1.74-2.27-.8.1-1.32,1.28-1.16,2.63.16,1.35.93,2.37,1.74,2.27Z"/>
      <path class="cls-52" d="M569.62,323.04c1.93,0,3.49-2.45,3.49-5.46s-1.56-5.46-3.49-5.46-3.49,2.45-3.49,5.46,1.56,5.46,3.49,5.46Z"/>
      <path class="cls-25" d="M570.88,318.85c.8-.1,1.32-1.33,1.15-2.74-.16-1.42-.95-2.49-1.75-2.39-.8.1-1.32,1.33-1.15,2.74.16,1.42.95,2.49,1.75,2.39Z"/>
      <path class="cls-52" d="M556.77,337.67h-.14c-4.38-.03-7.47-2.12-8.93-3.35-.43-.35-.49-1-.14-1.44s.97-.5,1.4-.15c1.26,1.06,3.92,2.85,7.7,2.88,3.72.06,6.41-1.65,7.67-2.67.43-.35,1.06-.26,1.4.17.34.44.26,1.09-.17,1.44-1.46,1.18-4.52,3.11-8.79,3.11Z"/>
      <path class="cls-55" d="M591.72,286.94c.77,6.35,1.83,13.13,3.29,20.3,1.58,7.81,3.41,15.07,5.35,21.68,3.66.62,4.95,2.29,4.58,6.2,5.47-4.67,10.22.5,6.81,6.4,4.44-1.7,6.81.56,5.41,5.29-.31,1.12-2.12,2.64-2.06,3.73,0,.41,3.61.76,2,5.55-1.09,3.17-5.47,3.94-6.93,5.43-.86.85-.43,1.23-1.29,2.47-1.23,1.82-2.75,2.94-3.89,3.58.17,1.73.34,3.44.51,5.17-1.06,6.11-2.09,12.22-3.15,18.36-29.14-.18-58.28-.35-87.42-.53-.29-2.29-.46-5.23-.23-8.64.12-1.41.37-4.06,1.14-7.29.46-1.88,1.75-6.64,4.87-12.07,2.84-4.9,6.04-8.46,8.62-10.87-1.37-.21-13.85-2.03-17.14-10.37-2.38-6.05-1.12-10.67.51-16.6,3.81-13.72,10.33-27.06,13.22-41.19-16.49-9.46-5.58-30.9,11.05-30.7,1.8,0,5.84,1.67,6.27,1.65.34,0,4.44-3.82,5.67-4.53,7.7-4.35,19.21-4.05,26.13,1.79,1.37,1.14,1.57,3.32,3.69,4.38,2.38,1.21,4.24.09,6.64.09,5.38,0,10.96,5.52,12.97,11.55.37,1.12,2.52,7.93-1.32,14.1-1.72,2.76-3.98,4.29-5.32,5.05ZM574.03,255.48c-5.55-5.9-17.89-6.32-24.42-1.85-1.4.97-4.41,4.99-4.72,5.11-.77.23-5.84-2.26-7.9-2.29-18.23-.47-22.36,27.08-1.12,25.09,4.87-.47,8.24-3.38,11.85-6.37,4.84,5.23,12.34,6.87,19,4.82,1.66-.5,5.12-3.11,5.5-3.11.94,0,6.01,5.99,9.04,7.05,19.72,6.85,20.38-20.97,4.89-24.26-3.03-.65-7.93.76-9.33.26-.63-.24-1.89-3.38-2.83-4.38l.03-.06ZM573,281.59c-1.06-.65-5.61,1.91-7.64,2.17-3.95.47-9.16.23-12.88-1.23-1.32-.53-4.38-2.79-5.15-2.67-.66.12-2.72,2-3.78,2.53-4.95,2.44-9.27,3.32-14.77,2.03l-1.69,7.58c16.83-4.02,38.9-4.79,55.38,1.15,2.26.82,4.32,1.97,6.53,2.91.46-9.52-.14-6.61-6.38-8.31-3.49-.94-5.87-2.2-8.67-4.52-.54-.44-.71-1.5-.94-1.65v.03ZM543.57,292.58c-5.93.53-11.82,1.03-17.49,3.05.06,1.32-6.27,16.22-4.95,16.22.66-.47,4.06-1.06,4.21-1.23.29-.32-.2-4.55.69-5.11.54-.32,8.79-.5,10.36-.73,9.53-1.38,20.12-4.88,27.05-11.87l-3.41-.62c-.57-.09-1.46-.18-2.55-.26-4.26-.32-7.76,0-10.96.26-.72.06-1.72.18-2.98.32l.03-.03ZM589.97,300.9c-2.86-3.7-14.54-6.67-19.15-7.17-.4.35,2.43,3.85,2.86,4.35,4.98,5.76,12.16,8.67,18.46,12.54.17-1.82-1.2-8.52-2.15-9.75l-.03.03ZM582.01,308.53c-3.75-2.47-5.67-3.64-6.07-4-3.44-2.94-6.07-6.67-8.87-10.19-10.65,9.43-24.19,13.87-38.21,14.01-3.46,17.36-1.2,33.28,17.55,38.13,13.05,3.38,26.13,1.2,33.75-7.49,5.3-6.02,6.21-14.25,6.58-17.01.57-4.26.34-7.87,0-10.37-1.09-.7-2.75-1.79-4.75-3.11l.03.03ZM589.57,312.97c.2,3.85.08,7.93-.4,12.19-.06.41-.09.82-.14,1.2,5.95-1.32,7.01-11.9.57-13.4h-.03ZM524.82,313.56c-6.75.76-5.84,10.81,0,12.25v-12.25ZM525.28,329.42c-.14-.21-3.09-1.09-4.15-1.85-2-1.44-2.55-3.73-4.24-5.26-2.43,7.29-5.35,15.81,1.12,21.86,3.84,3.58,15.31,7.11,18.75,1.73-5.12-3.11-8.1-6.99-10.48-12.54-.49-1.12-.71-3.61-.97-3.97l-.03.03ZM585.59,338.03c2.55-.44,4.29,1.17,5.95,2.91.77-2.47,5.44-7.9,5.87-9.75.43-1.85-1.32-5.02-1.03-7.14-1.4,1.06-1.92,2.64-3.43,3.76-1.26.91-3.49,1.32-4.21,2.09-.43.44-3.46,7.84-3.12,8.17l-.03-.03ZM600.27,346.11c-.75.44-2.58.03-2.75-.79-.08-.41,3.09-5.82,3.58-7.4,2.12-6.87-.37-6.14-3.58-1.35-.83,1.23-4.49,7.75-4.35,8.78.03.3,2.98,2.73,3.66,4.2.54,1.2,1.86,5.05.66,5.91-2.83,2.03-2.75-3.26-3.21-4.47-.74-1.88-3.15-2.64-3.81-3.67-.77-1.23-.4-2.91-1.72-4.64-.74-.97-3.12-2.97-3.66-.76-.17.71,2.2,12.66,2.66,14.04,1.29,3.67,5.67,5.73,5.78,6.29.29,1.44-2.18,1-1.69,2.32,1.23,1.79,5.52,3.23,7.35,2.35.6-.3,1.03-1.32,1.77-1.7,5.55-3,3.44-2.44,6.93-6.02.91-.94,6.3-2.76,6.67-4.52.89-4.17-7.73,3-8.5,0-.34-1.62,9.33-7.26,8.53-10.78-1.23-1.26-9.42,5.64-10.5,6.99-3.66-1.59.17-3.88,1.4-5.55,1.23-1.67,8.04-12.34,1.75-8.11-2.58,1.73-6.47,8.61-6.96,8.9h-.03ZM583.33,350.87l-1.4-9.31-5.41,4.94c.97.56,6.21,5.05,6.81,4.38ZM550.96,350.28c-4.44.85-11.53-5.67-13.65-.29,2.63,4.55,12.11,7.17,13.65.29ZM563.58,354.21c2.52,1.56,11.22.09,12.91-3.05-.89-.62-2.03-2.56-2.86-2.94-1.46-.68-9.44,2.88-11.91,2.64.46.65,1.46,3.14,1.83,3.35h.03ZM554.76,351.57c-5.24,1.62-3.32,10.28,1.52,9.81,6.47-.65,5.1-11.84-1.52-9.81ZM517.44,388.17h10.22l1.2-20.62c.37-1.21,1.75-.97,2.75-.97-.23,7.26-.46,14.51-.72,21.77,2.32.03,4.64.06,6.98.12l1.17-25.03c.34-2.64,2.01-4.64,3.35-6.76-2.58.82-7.18-4.7-8.24-4.7-.89,0-5.61,5.05-6.52,6.17-6.84,8.37-10.53,19.01-10.25,29.99l.06.03ZM540.71,388.76h41.47l-1.72-18.92c.12-1.26,1.23-2,2.32-1.21l1.66,5c-.34-3.44,2.29-9.05,2.21-11.96-.06-2-5.3-9.02-7.04-8.87-.54.06-7.1,6.17-9.93,4.52,1.17,2.67,2.8,4.02,2.89,7.29.34,14.34-12.11,7.17-16.8.29-3.69,4.46-7.9,7.52-13.91,6.99l-1.14,16.92v-.06ZM548.67,356.68c-4.15-.44-9.07,9.9-6.27,11.99,1.83,1.38,9.85-2.62,10.22-4.79.14-.91-4.78-4.85-3.95-7.2ZM563.44,357.27c-.17,2.94-2.78,4.73-4.55,6.7,1.35,1.73,6.64,6.55,8.73,6.05,1.43-.32,2.09-4.91,1.83-6.35-.51-2.85-3.29-5.64-6.01-6.4ZM585.02,389.35h15.34l2.26-20.39c-5.32,2.64-9.7.65-13.91-2.94l-3.69,23.32Z"/>
      <path class="cls-39" d="M308.38,311.82c.51-3.26.2-5.9-.32-7.93-1.49-5.67-4.67-6.32-5.52-11.72-.54-3.53.26-6.87-.83-7.23-.49-.18-1.09.41-1.32.65-3.18,3.05-9.13,7.17-12.22,8.7-4.09,2-8.22,1.85-11.16,1.76-3.29-.12-5.84-.76-6.47-.94-3.95-1.06-5.98-2.53-11.82-4.11-.69-.18-1.26-.32-1.63-.41-.83,2.7-1.6,5.55-2.32,8.58-1.12,4.76-1.92,9.22-2.46,13.4-1.32.24-4.26.56-6.81-1.18-4.09-2.79-4.95-9.31-3.09-12.95.66-1.29,1.43-1.79,2.03-3.61.86-2.64.34-4.99.26-5.67-.97-5.91,7.24-15.48,12.88-20.27,6.81-5.79,13.88-8.31,18.55-9.49,1.95-.47,10.88-2.56,21.67.15,4.92,1.23,9.96,2.58,12.14,6.96.54,1.09,2.2,4.41,1.14,7.75-.69,2.15-2.26,3.64-1.63,4.73.34.65,1.12.47,2.35.94,1.92.73,3.49,2.47,4.15,4.11,1.12,2.88-.2,6.52-.57,7.58-.4,1.12-.89,2-.66,3.2.26,1.29,1.12,1.76,1.8,2.67,2.52,3.32.89,9.93-2.01,12.54-.51.47-1.03.79-1.12.82-1.97,1.17-3.98,1.12-5.01.97Z"/>
      <path class="cls-70" d="M229.06,352.92c1.26-.47,2.63-1.03,4.09-1.73,1.6-.76,3.03-1.59,4.32-2.38,1.55,3.03,2.49,5.49,3.06,7.26,0,0,.83,2.47,2.98,6.23.34.59.86,1.47,1.17,1.35.43-.15.17-2.06.14-2.38-.17-2.08,2.78-6.08,16.03-14.48-.57,3.94-.92,6.82-1.09,9.02-.12,1.2-.23,2.79-1.38,3.76-.89.76-1.69.21-2.86,1.06-3.29,2.29-4.69,5.67-4.18,9.72.14,1.09,2.35,6.44,2.92,6.85,1.66,1.18,3.72-.35,2.98-2.44-.34-.97-2.78-.41-3.41-3.88-2.09-11.57,12.39-11.6,11.88-1.73-.26,4.82-2.69,3.7-3.66,5.02-1.6,2.17.31,4.08,2.66,3.2.34-.12,2.55-4.94,2.8-5.73,1.34-4.35,0-8.49-3.69-11.04-2.43-1.67-3.38.53-2.95-4.32.29-3.2,2-11.19,5.98-10.75,1.03,10.13,4.06,21.53,8.9,30.46.89,1.65,3.26,6.93,5.09,4.35,6.61-9.37,10.48-22.91,12.39-34.22,3.72,2.38,5.29,13.04,4.09,16.77-.4,1.2-2.35,1.26-3.18,2.26-4.24,4.9,2.66,11.75,6.9,6.43,3.75-4.73-1.8-7.02-1.86-7.46-.09-.7.63-2,.66-3,.06-2.47.17-4.38-.63-8.34-.23-1.12-.57-2.64-1.14-4.47,2.26,1.47,5.04,3.64,7.79,6.7,2,2.23,3.52,4.41,4.64,6.32.92,2.62,1.86,5.23,2.78,7.84.08,1.47.17,2.94.26,4.41-.23,2.14-.4,4.46-.49,6.87-.11,2.82-.08,5.49,0,7.99h-5.41c0-3.94.03-7.99.14-12.13.11-4.02.26-7.96.46-11.81h-1.8l-1.2,23.94c-18.78.12-37.55.23-56.33.32v-13.84c-.6.21-1.2.41-1.8.62-.66.32-1.63.76-2.83,1.23-2.17.82-3.46,1.32-5.09,1.29-.89,0-2.52-.18-4.44-1.29-1.6-1.12-3.61-2.76-5.5-5.14-3.29-4.11-4.58-8.34-5.15-10.81-.49-1.41-.97-3.29-1.12-5.46-.06-.91-.06-1.76,0-2.53h6.13l-.06.09Z"/>
      <path class="cls-3" d="M280.59,360.88c-.66,3.58,2.29,8.72,1.8,11.93-.14.91-2.58,5.41-3.58,4.64-.2-.15-2.06-4.55-2.15-4.9-.89-3.56,1.8-7.93,1.54-11.66h2.38Z"/>
      <path class="cls-66" d="M290.78,346.16c.34.38-1.29,8.99-1.72,10.2-.17.47.06,1.29-.94.82-1.26-.56-3.86-4.47-5.92-4.85l-.37-1.26c3.43-.91,5.15-5.02,8.99-4.91h-.03Z"/>
      <path class="cls-66" d="M276.32,352.83c-.17.29-5.32,3.73-5.9,3.14l-1.2-9.81,6.9,4.88c.34.5.49,1.26.2,1.76v.03Z"/>
      <path class="cls-66" d="M284.8,368.87c-.94,1.06-1.03-.23-1.2-.88-1.14-3.91-1.4-7.58,0-11.37.46-.44,4.09,1.97,4.15,3.35,0,.47-2.66,8.58-2.98,8.93l.03-.03Z"/>
      <path class="cls-66" d="M275.21,356.59c1.57,3.53,1.06,6.52,0,10.16-.2.67-.26,1.94-1.2.88-.31-.32-2.46-8.37-2.35-8.81.17-.62,3.12-2.64,3.52-2.23h.03Z"/>
      <path class="cls-3" d="M277.76,358.27c-3.64-3.56,2.15-7.2,4.38-3.5,1.03,1.67-2.09,5.73-4.38,3.5Z"/>
      <path class="cls-65" d="M297.42,371.25c1.42,0,2.58-1.18,2.58-2.64s-1.15-2.64-2.58-2.64-2.58,1.18-2.58,2.64,1.15,2.64,2.58,2.64Z"/>
      <path class="cls-65" d="M283.59,347.4c-2.8,3.5-5.78,4.02-8.39,0h8.39Z"/>
      <path class="cls-64" d="M223.66,353.54c.03.62-.06,1.23,0,1.85-1.66.38-2.18-1.76,0-1.85Z"/>
      <path class="cls-32" d="M230.24,314.88c1.83,1.26,1.35,13.89,2.2,16.45.92,2.76,4.09,2.44,5.15,5.17,3.35,8.49-4.95,15.83-12.99,14.51-3.18-.53-11.36-6.87-9.05-10.43,1.2-1.82,8.22,2.94,6.93,4.32-.43.47-3.81-.94-4.78-.62-1.66,1.7,4.29,4.7,6.64,1.56.49-.65.46-1.88.63-2.09.71-.65,5.92.85,6.5-1.03,1.09-3.56-3.06-1-3.92-.91-4.09.38-3.69-4.32,1.17-4.23,1.09,0,6.96,2.44,6.35-.35-.54-2.5-8.82-.88-9.82-1.09-.32-.06-4.98-3.14-5.47-3.53-2-1.59-8.93-11.37-8.73-13.81.14-1.79,1.43-1.85,2.75-.97,2.92,1.94,7.24,10.37,10.16,13.54,7.33,7.93,3.18-7.73,3.35-11.87.06-1.32.86-6.14,2.95-4.7l-.03.06Z"/>
      <path class="cls-32" d="M222.45,340.64c-.17.21-4.55-2.53-4.78-2.76-2.66-2.56,2.83-4.08,4.87-1.26.89,1.23-.26,2.53-.06,4l-.03.03Z"/>
      <path class="cls-60" d="M252.39,324.72c-.4-.29-2.69.71-3.81.59-5.47-.5-8.19-13.31.43-11.51,1.97.41,2.32,3.5,3.69,1.67,2.29-3.05,4.32-21.86,5.12-22.68,13.51,6.99,30.65,6.32,42.53-3.67-.29,2.58.63,4.99,1.52,7.34.89,2.35,4.04,6.32,4.35,7.81,1.06,4.82-.09,18.51-1.26,23.62-5.24,23.06-41.56,22.68-50.61,3.08-.51-1.12-1.72-6.05-2-6.26h.03ZM271.43,302.77c-3.64-3.88-10.79,1.38-8.82,3.52.69.73,3.35-1.7,4.55-1.85,1.75-.18,2.63.79,4.12,1.23,1.2-.7.97-2,.14-2.91ZM299.19,306.3c.66-4.88-8.07-6.76-9.47-2.64-1.4,4.11,2.46.62,4.38.73,2.06.12,2.72,2.56,5.09,1.91ZM271.46,314.44c-1.77-1.91-6.18-1.32-7.56.82-.92,1.41-1.09,3.09.83,3.32.8-.21.69-3.14,4.21-2.47,1.86.35,1.4,2.64,3.29,2.47,0-1.2.09-3.2-.74-4.14h-.03ZM297.99,318.55c1.43-1.53-1.46-4.85-3.58-5.29-4.52-.91-7.04,4.73-4.49,5.29,1.26.26,2.03-4.11,5.1-2.15.4.26,1.77,3.44,3,2.15h-.03ZM280.61,325.3c4.67.59,4.18-6.76.92-6.76-3.66,0,.32,2.61.34,2.82.17,1.32-1.63,2.41-1.23,3.93h-.03ZM264.53,324.69c0-2.09-1.66-3.79-3.69-3.79s-3.69,1.7-3.69,3.79,1.66,3.79,3.69,3.79,3.69-1.7,3.69-3.79ZM297.79,321.13c-2.58.79-2.17,6.73.49,7.26,7.24,1.41,6.58-9.43-.49-7.26ZM291.29,326.63c-.71-.47-10.05.65-12.22.56-6.64-.26-14.43-4.64-9.79,6.96,3.66,9.17,16.46,9.93,20.78,1.2.77-1.59,2.86-7.64,1.2-8.7l.03-.03Z"/>
      <path class="cls-32" d="M308.18,325.92c-.4-.41.29-10.87.69-11.57.77-1.32,5.61-1.06,6.38,1.56,1.35,4.64-2.4,9.87-7.07,9.99v.03Z"/>
      <path class="cls-6" d="M291.29,326.63c1.63,1.06-.43,7.11-1.2,8.7-4.32,8.72-17.12,7.96-20.78-1.2-4.64-11.58,3.12-7.23,9.79-6.96,2.18.09,11.51-1.03,12.22-.56l-.03.03ZM271.6,330.83v.62c0,.23-.8.44-.37,1.82,2.52,8.17,15.29,7.64,17.75-.91l-1.2-.29v-.62c1.09-.3,2.86-1.38,1.8-2.44-.37-.38-7.73.65-9.3.65-2.95-.06-6.81-1.03-9.87-1.26-.57,1.65.97,2.03,1.2,2.44Z"/>
      <path class="cls-45" d="M297.79,321.14c7.07-2.17,7.73,8.64.49,7.26-2.66-.5-3.06-6.43-.49-7.26Z"/>
      <path class="cls-45" d="M260.81,328.48c2.04,0,3.69-1.7,3.69-3.79s-1.65-3.79-3.69-3.79-3.69,1.7-3.69,3.79,1.65,3.79,3.69,3.79Z"/>
      <path class="cls-37" d="M297.99,318.55c-1.23,1.29-2.58-1.88-3-2.15-3.03-1.97-3.84,2.41-5.1,2.15-2.52-.53,0-6.2,4.49-5.29,2.12.44,5.01,3.76,3.58,5.29h.03Z"/>
      <path class="cls-6" d="M299.19,306.3c-2.38.65-3.03-1.79-5.09-1.91-1.92-.09-5.75,3.29-4.38-.73,1.37-4.02,10.13-2.23,9.47,2.64Z"/>
      <path class="cls-37" d="M271.43,302.77c.86.91,1.06,2.2-.14,2.91-1.49-.44-2.38-1.41-4.12-1.23-1.2.12-3.86,2.58-4.55,1.85-1.97-2.12,5.18-7.37,8.81-3.53Z"/>
      <path class="cls-37" d="M271.46,314.44c.86.91.77,2.91.74,4.14-1.89.18-1.43-2.12-3.29-2.47-3.52-.67-3.38,2.26-4.21,2.47-1.92-.23-1.75-1.91-.83-3.32,1.4-2.15,5.78-2.76,7.56-.82h.03Z"/>
      <path class="cls-37" d="M280.61,325.3c-.37-1.53,1.43-2.61,1.23-3.94-.03-.23-4.01-2.85-.34-2.82,3.26,0,3.75,7.37-.92,6.76h.03Z"/>
      <path class="cls-74" d="M271.6,331.45c3.55,2.56,7.79-.94,9.3,4.29.14-5.08,3.95-1.91,6.9-3.67l1.2.29c-2.46,8.52-15.23,9.08-17.75.91-.43-1.38.34-1.59.37-1.82h-.03Z"/>
      <path class="cls-22" d="M271.6,330.83c-.23-.41-1.77-.79-1.2-2.44,3.03.24,6.9,1.2,9.87,1.26,1.58,0,8.93-1.03,9.3-.65,1.06,1.06-.71,2.14-1.8,2.44-5.01,1.35-11.25.71-16.17-.62Z"/>
      <path class="cls-44" d="M287.8,331.44v.62c-2.95,1.79-6.76-1.41-6.9,3.67-1.49-5.23-5.75-1.73-9.3-4.29,0-.18.06-.53,0-.62,4.95,1.32,11.16,1.97,16.17.62h.03Z"/>
      <path class="cls-64" d="M318.91,296.84c-.66-1.5-2.37-2.44-2.4-2.61-.17-1.09,1.06-2.41,1.23-3.61.4-3.32.34-7.05-1.77-9.78-.86-1.12-3.32-2.53-3.52-3.17-.29-.94.86-5.49.49-7.84-2.38-15.8-31-13.66-41.93-10.46-10.02,2.94-21.84,12.43-26.3,22.18-2.49,5.43-.97,8.08-2,12.69-.52,2.29-2.55,3.97-2.66,7.58-.12,4.02,3.18,9.28,3.18,10.34,0,.73-1.63,2.56-1.95,3.94-1.12,4.73,1.29,9.66,5.75,11.4,1,.38,3.52.44,3.86.91.69.97.75,2.88,1.4,4.11,1.83,3.35,4.21,6.23,7.01,8.76.89.79,2.37,1.32,2.92,1.79,1.54,1.41-.86,1.26-1.83,1.76-6.61,3.26-12.34,7.43-16.69,13.6l-4.87-11.34c2.46-5.2,2.55-10.81-2-14.75-.8-.67-2.35-.79-2.46-1.26-.8-2.94,1.29-20.77-6.13-18.54-4.72,1.41-2.92,13.4-2.23,17.07-4.35-2.91-9.76-17.95-15.91-14.13-2.78,1.7-1.06,5.73,0,8.02.92,1.94,6.15,8.43,6.24,8.96.14.85-1.43,1.94-1.66,3.11-.2.97.51,2.12.23,2.64-.63,1.23-2.83.68-1.97,5.02,1.06,5.52,6.5,6.85,7.53,8.58.43.7,1.2,7.05,1.77,8.93,2.89,9.67,7.93,20.45,19.58,19.09,2.12-.23,3.55-1.35,5.15-1.76.43,2.32-1,12.13.97,12.81,13.25.12,26.53.12,39.79.09h13.8c2.15,0,12.34.38,13.22-.26.97-.67.6-8.4.57-10.16-.2-12.07-2.18-23.3-11.68-31.31-2.4-2.03-4.35-2.62-6.73-4.14-2.12-1.35,1.14-2,2.52-3.23,3.09-2.82,4.55-5.02,6.41-8.78.57-1.14.83-3.44,1.4-4.11.63-.76,5.27-1.38,7.21-3.05,2.63-2.29,3.84-6.7,3.26-10.11-.26-1.5-1.77-2.85-1.66-3.61.09-.62,1.69-2.26,2.15-3.35,1.69-4.08,2.58-7.81.71-12.04v.06ZM215.56,340.61c1.2-1.82,8.22,2.94,6.93,4.32-.43.47-3.81-.94-4.78-.62-1.66,1.7,4.29,4.7,6.64,1.56.49-.65.46-1.88.63-2.09.71-.65,5.92.85,6.5-1.03,1.09-3.56-3.06-1-3.92-.91-4.09.38-3.69-4.32,1.17-4.23,1.09,0,6.96,2.44,6.35-.35-.54-2.5-8.82-.88-9.82-1.09-.32-.06-4.98-3.14-5.47-3.52-2-1.59-8.93-11.37-8.73-13.81.14-1.79,1.43-1.85,2.75-.97,2.92,1.94,7.24,10.37,10.16,13.54,7.33,7.93,3.18-7.73,3.35-11.87.06-1.32.86-6.14,2.95-4.7,1.83,1.26,1.35,13.89,2.2,16.45.92,2.76,4.06,2.44,5.15,5.17,3.35,8.49-4.95,15.83-12.99,14.51-3.18-.53-11.36-6.87-9.04-10.43l-.03.06ZM222.45,340.64c-.17.21-4.55-2.53-4.78-2.76-2.66-2.56,2.83-4.08,4.87-1.26.89,1.23-.26,2.53-.06,4l-.03.03ZM297.3,362.94c-.4,1.2-2.35,1.26-3.18,2.26-4.24,4.91,2.66,11.75,6.9,6.43,3.75-4.73-1.8-7.02-1.86-7.46-.08-.71.63-2,.66-3,.09-4.52-.32-8.28-1.8-12.57,2.06,1.14,5.01,3.17,7.81,6.46,3.29,3.91,4.78,7.73,5.38,9.49.66,1.97.94,3.52,1.2,4.9.49,2.76.89,6.52.6,11.05-.06,2.64.06,5.32,0,7.99h-5.41c.29-7.99,1.14-15.98.6-23.94h-1.8l-1.2,23.94h-55.73c-.03-2.03,0-3.7.03-4.79,0-.91,0-2.47-.03-5.64,0-1.79-.06-2.79-.6-3.05-.46-.24-1,.18-1.8.62,0,0-2.2,1.23-4.81,1.85-.43.09-2.35.53-4.81,0-.66-.15-1.77-.44-3.01-1.09-2.43-1.29-3.69-3.14-5.3-5.46-.83-1.2-2.2-3.38-3.32-6.32-.89-2.35-1.32-4.35-1.58-5.52-.32-1.47-.49-2.7-.6-3.67-.2-.59-.37-1.35,0-1.85.54-.71,1.77-.29,3.58-.29,1.46,0,2.49-.32,4.52-.97,1.4-.44,3.26-1.14,5.35-2.41,1.46.32,4.49,11.22,5.81,13.1.54.79,1.77,1.56,2.32,1,.29-.29-.54-1.94-.43-2.67.46-3.2,12.22-12.57,15.71-13.9-1.12,1.76-1.83,11.66-2.17,12.19-.17.26-2.12.53-2.86,1.06-3.29,2.29-4.69,5.67-4.18,9.73.14,1.09,2.35,6.43,2.92,6.84,1.66,1.18,3.72-.35,2.98-2.44-.34-.97-2.78-.41-3.41-3.88-2.09-11.6,12.39-11.6,11.88-1.73-.26,4.82-2.69,3.7-3.66,5.02-1.6,2.17.32,4.08,2.66,3.2.34-.12,2.55-4.94,2.8-5.73,1.35-4.35,0-8.49-3.69-11.05-2.43-1.67-3.38.53-2.95-4.32.29-3.2,2-11.19,5.98-10.75,1.03,10.13,4.06,21.53,8.9,30.46.89,1.65,3.26,6.93,5.1,4.35,6.61-9.37,10.47-22.91,12.39-34.23,3.72,2.38,5.3,13.04,4.09,16.77ZM300.02,368.61c0,1.47-1.14,2.64-2.58,2.64s-2.58-1.18-2.58-2.64,1.14-2.64,2.58-2.64,2.58,1.18,2.58,2.64ZM282.19,352.36l-.37-1.26c3.43-.91,5.15-5.02,8.99-4.9.34.38-1.29,8.99-1.72,10.19-.17.47.06,1.29-.94.82-1.26-.56-3.86-4.47-5.92-4.85h-.03ZM287.77,359.94c0,.47-2.66,8.58-2.98,8.93-.95,1.06-1.03-.24-1.2-.88-1.14-3.91-1.4-7.58,0-11.37.46-.44,4.09,1.97,4.15,3.35l.03-.03ZM278.21,360.91h2.38c-.66,3.56,2.29,8.72,1.8,11.9-.14.91-2.58,5.41-3.58,4.64-.2-.15-2.06-4.55-2.15-4.91-.89-3.56,1.8-7.93,1.54-11.66v.03ZM282.13,354.77c1.03,1.67-2.09,5.73-4.38,3.5-3.63-3.56,2.15-7.2,4.38-3.5ZM275.21,347.4h8.39c-2.8,3.5-5.78,4.02-8.39,0ZM276.12,351.07c.34.5.49,1.26.2,1.76-.17.29-5.32,3.73-5.9,3.14l-1.2-9.81,6.9,4.88v.03ZM275.24,366.76c-.2.68-.26,1.94-1.2.88-.32-.32-2.46-8.37-2.35-8.81.17-.62,3.12-2.64,3.52-2.23,1.57,3.52,1.06,6.52,0,10.16h.03ZM305,327.89c-5.24,23.06-41.56,22.68-50.61,3.09-.51-1.12-1.72-6.05-2-6.26-.4-.29-2.69.71-3.81.59-5.47-.5-8.18-13.31.43-11.52,1.97.41,2.32,3.5,3.69,1.67,2.29-3.05,4.32-21.86,5.12-22.68,13.51,6.99,30.65,6.32,42.53-3.67-.29,2.58.63,4.99,1.52,7.34.92,2.44,4.04,6.32,4.35,7.81,1.06,4.82-.09,18.51-1.26,23.62h.03ZM308.18,325.92c-.4-.41.29-10.87.69-11.57.77-1.32,5.61-1.06,6.38,1.56,1.34,4.64-2.4,9.87-7.07,9.99v.03ZM314.51,310c-1.86,1.91-3.52.7-5.73,1.79-.26-2.56.4-5.7-.14-8.17-.75-3.35-5.24-6.17-5.87-12.4-.29-2.85,1.46-9.25-2.43-6.17-7.93,6.29-11.88,10.02-23.07,10.16-8.56.12-11.82-2.59-18.86-5.23-4.04-1.5-3.12,5.02-3.75,8.37-.86,4.49-2.23,8.84-2.8,13.4-1.63-.62-4.69-.26-6.01-.91-2.58-1.29-3.66-10.34-2.52-13.04.52-1.2,2.23-2.12,2.46-3.03.17-.73-.63-4.29-.51-6.05.69-13.51,19.72-26.12,31.63-28.35,10.22-1.91,35.78-3.2,33.55,13.48-.17,1.26-1.69,4.79-1.63,5.05.09.44,5.32,1.85,6.33,5.2,1.38,4.55-1.69,10.02-1.49,10.69.23.79,2.2,1.35,2.89,2.62,1.95,3.47.66,9.78-2,12.54l-.03.03Z"/>
      <path class="cls-17" d="M711.82,378.45c1.37-2.61,0-15.19,1.32-16.45.2-.18,2.55,0,3.43-.12,6.1-.97,10.45-2,15.4-5.97,1.83-1.47,1.32-3.5,4.41-3.08,4.24.56,10.33,5.05,13.02,8.46,6.1,7.67,7.16,18.13,7.39,27.7h-13.48c-1.06-5.82-.94-10.19-.57-13.25,0,0,.72-6.05-.83-6.96-.43-.26-.86-.24-.86-.24-.69.03-1.17.62-1.34.79-.77.94-.63,2.29-.51,3.88.08,1.2.2,2.97.26,5.23h-27.62Z"/>
      <path class="cls-67" d="M687.4,378.45c1.29-7.99.97-10.28.26-10.52-.49-.15-1.35.53-1.77,1.09-.43.56-.6,1.17-.77,2.38-.23,1.5-.34,2.23-.37,3.23-.06,2.67-.34,2.58-.55,6.14-.11,2.03-.2,4.82,0,8.23h-9.64c.57-11.84,2.49-25.65,12.91-32.58,1.12-.76,7.5-4.14,8.22-3.64.17.12,1.34,2.91,2.35,3.91,2.63,2.64,8.22,4.58,11.88,4.61-.46,5.67-.31,11.46-.63,17.13h-21.84l-.03.03Z"/>
      <path class="cls-68" d="M688.83,306.06c2.35-2.5,5.64-1.32,14.91-1.73,7.21-.32,14.71-.44,16.77-.44,1.69.65,5.5.62,9.07.76,4.55.18,6.75.91,7.87,1.65,4.84,3.2,3.83,10.25,8.13,11.49,1.4.41,1.95-.21,3.12.5,2.32,1.47,3.29,5.93,1.55,8.4-.69,1-1.66,1.41-3.06,2.03-2.55,1.12-4.01.44-5.21,1.23-.4.26-3.06,6.76-4.49,8.58-10.73,13.81-39.96,13.31-49.09-2.35-.86-1.5-2.03-5.32-2.6-5.91-1.46-1.47-3-.15-5.09-1.35-1.95-1.12-3.18-3.32-3.46-5.49-.29-2.23.32-5.49,2.23-6.38,1.83-.85,3.18,1.26,4.92.65,3.01-1.06.94-7.96,4.44-11.63Z"/>
      <path class="cls-9" d="M739.44,378.45c.06,1.47.69,3.58.63,5.93h-28.28c-.06-1.97.03-3.97,0-5.93h27.65Z"/>
      <path class="cls-50" d="M740.07,384.38v4.61h-28.28c-.03-.65-.06-1.29-.06-2,0-.94,0-1.82.06-2.64h28.28v.03Z"/>
      <path class="cls-9" d="M709.24,378.45c.11,1.97.26,3.97.37,5.93h-22.21c.14-1.97-.14-3.99,0-5.93h21.84Z"/>
      <path class="cls-29" d="M732.37,347.46c.49.53-.29,3.29-.71,4.2-1.83,3.67-8.85,6.35-12.62,6.81-.94.12-5.01.44-5.27.18-.97-.97,2.81-6.7,4.27-7.17l14.37-4.02h-.03Z"/>
      <path class="cls-12" d="M712.45,384.38l-.66,4.64c-4.98.06-9.99.09-15.06.06-3.15,0-6.3-.03-9.39-.06,0-1.53.03-3.09.06-4.61h25.07l-.03-.03Z"/>
      <path class="cls-29" d="M709.87,358.65c-.46.56-7.47-2.35-8.67-3.29-1.34-1.09-4.21-5.14-2.89-6.58.34-.35,8.53,2.12,9.33,2.61,1.95,1.2,3.29,6.02,2.23,7.26Z"/>
      <path class="cls-13" d="M755.5,352.71c-.4.29-6.61-2.73-6.96-3.73-.66-1.91,0-6.38,2.23-6.76,2.66-.47,6.78,8.93,4.72,10.49Z"/>
      <path class="cls-13" d="M677.76,342.85s.23,1.32.92,2.03c.69.71,1.46.85,1.92,1.23,2.63,2.17-7.59,7.81-7.96,7.32-1.89-2.7,3.23-11.9,5.12-10.55v-.03Z"/>
      <path class="cls-30" d="M748.43,314.5c-.26.26-4.09.15-4.84-.65-.46-.5-3.18-7.52-2.86-7.93.23-.32,7.21,1.62,7.41,1.94.4.59.51,6.4.29,6.64Z"/>
      <path class="cls-30" d="M685.46,306.56c.49.5-1.89,6.43-1.29,7.9-.8-.09-3.66.21-3.86,0-.23-.24-.11-6.05.29-6.64.4-.59,4.64-1.5,4.87-1.26Z"/>
      <path class="cls-13" d="M746.51,332.95c1.89,1.82-3.44,9.17-6.41,7.9,1.4-1.5,4.01-10.25,6.41-7.9Z"/>
      <path class="cls-13" d="M683.45,333.03c.34.21,3.58,6.76,3.66,7.14.31,1.18.2,1.26-.71,2l-4.67-5.08c-.37-1.76-.66-5.61,1.72-4.08v.03Z"/>
      <path class="cls-42" d="M682.91,343.49c-1.14,1.06-4.24-2.14-3.21-3.29.69-.76,3.95,2.62,3.21,3.29Z"/>
      <path class="cls-42" d="M747.8,340.2c.69.62-1.32,2.67-1.92,1.97-.97-1.12.83-2.97,1.92-1.97Z"/>
      <path class="cls-52" d="M713.48,326.1c-.4.29-.63.12-1.06.38-.4.26-.6.68-.66.82-.03.12-.26.68,0,1.2.23.5.74.77,1.2,1,.4.21.6.21.8.47.06.06.29.38.26.77-.03.47-.43.79-.63.91-1.06.53-4.55-1.68-4.26-4.14.29-2.32,3.69-3.7,4.49-3.05.2.15.4.59.34.97-.06.38-.37.65-.46.7l-.03-.03Z"/>
      <path class="cls-25" d="M728.5,317.11c.32,1.03,1.12,1.85.63,3.29-2.01-.24-2.78-3.85-.63-3.29Z"/>
      <path class="cls-67" d="M733.03,294.7h-36.64c.63-4.32,0-10.67.8-14.69.17-.85,7.84-14.78,8.41-15.45,3.32-3.82,14.71-3.94,18.09-.18.94,4.49,7.87,12.02,8.56,15.6.29,1.47,1.29,14.16.8,14.69l-.03.03ZM719.52,279.54c-.46-.35-3.18-10.4-5.47-9.87-1.6.35-4.75,9.13-4.84,11.19-1.52-.38-1.95-3.85-3.81-2.62-.2.15-1.34,4.26-1.34,4.91-.06,12.25,21.84,12.87,20.61-1.32-.09-1.06-1.49-4.94-2.29-4.94-.92,0-1.55,3.67-2.89,2.62l.03.03Z"/>
      <path class="cls-29" d="M751.63,315.14c-.2-.24-.2-5.7,0-5.93.2-.23,5.21,2.32,2.6-1.7-2.26-3.47-17.23-5.14-21.55-5.55-13.25-1.26-28.48-1.03-41.68.73-3.58.47-15.14,1.88-16.37,5.61-1.03,3.14,2.75.47,3.12.88.2.23.2,5.7,0,5.93-.72.85-19.46-6.79-3.38-13.04,17.06-6.61,63.03-6.55,80.17-.18,17.14,6.38-2.18,14.07-2.92,13.22v.03Z"/>
      <path class="cls-28" d="M751,297.99c-1.92-1.41-14.2-2.09-14.74-2.67-.6-.65-.37-13.81-.83-15.98-.8-3.91-12.22-15.66.34-7.61,8.9,5.7,14.68,15.42,15.2,26.26h.03Z"/>
      <path class="cls-28" d="M699.6,268.99c.6.59-5.27,8.58-5.64,10.37-.46,2.23-.11,15.31-.8,16.01-.51.56-12.79,1.26-14.77,2.64.66-9.64,4.87-18.07,12.25-24,1.06-.85,8.27-5.67,8.93-4.99l.03-.03Z"/>
      <path class="cls-9" d="M719.52,279.54c1.34,1.06,1.95-2.64,2.89-2.61.77,0,2.17,3.88,2.29,4.94,1.23,14.16-20.67,13.57-20.61,1.32,0-.65,1.14-4.76,1.34-4.91,1.86-1.23,2.29,2.2,3.81,2.62.09-2.09,3.23-10.84,4.84-11.19,2.29-.5,5.01,9.55,5.47,9.87l-.03-.03Z"/>
      <path class="cls-52" d="M699.82,324.36c1.64,0,2.98-2.08,2.98-4.64s-1.33-4.64-2.98-4.64-2.98,2.08-2.98,4.64,1.33,4.64,2.98,4.64Z"/>
      <path class="cls-25" d="M700.85,320.61c.67-.08,1.11-1.09.98-2.25-.13-1.16-.79-2.03-1.47-1.95-.68.08-1.11,1.09-.98,2.25.14,1.16.79,2.03,1.47,1.95Z"/>
      <path class="cls-52" d="M727.24,324.63c1.65,0,2.98-2.08,2.98-4.64s-1.33-4.64-2.98-4.64-2.98,2.08-2.98,4.64,1.33,4.64,2.98,4.64Z"/>
      <path class="cls-25" d="M728.3,321.06c.68-.08,1.11-1.13.97-2.34-.14-1.21-.8-2.12-1.48-2.04-.67.08-1.11,1.13-.97,2.34.14,1.21.8,2.12,1.48,2.04Z"/>
      <path class="cls-21" d="M735.77,271.75c8.9,5.7,14.68,15.42,15.2,26.26-1.92-1.41-14.2-2.09-14.74-2.67-.6-.65-.37-13.81-.83-15.98-.8-3.91-12.22-15.66.34-7.61h.03ZM705.58,264.56c3.32-3.82,14.71-3.94,18.09-.18.94,4.49,7.87,12.02,8.56,15.6.29,1.47,1.29,14.16.8,14.69h-36.64c.63-4.32,0-10.66.8-14.69.17-.85,7.84-14.78,8.42-15.45l-.03.03ZM690.67,273.99c1.06-.85,8.27-5.67,8.93-4.99.6.59-5.27,8.58-5.64,10.37-.46,2.23-.11,15.31-.8,16.01-.51.56-12.79,1.26-14.77,2.64.66-9.64,4.87-18.07,12.25-24l.03-.03ZM672.63,353.39c-1.89-2.7,3.23-11.9,5.12-10.55.09.06.23,1.32.92,2.03.71.71,1.46.85,1.92,1.23,2.63,2.17-7.59,7.82-7.96,7.32v-.03ZM682.91,343.49c-1.14,1.06-4.24-2.14-3.21-3.29.69-.76,3.95,2.62,3.21,3.29ZM686.43,342.17l-4.67-5.08c-.37-1.76-.66-5.61,1.72-4.08.34.21,3.58,6.73,3.66,7.14.31,1.18.2,1.26-.72,2v.03ZM709.24,378.45c-.12,3.53-.23,7.05-.34,10.58h-21.55c0-1.06.03-2.67.06-4.61,0-5.23-.09-4.88,0-5.93.14-1.76,1.49-8.46,1.23-9.46-.34-1.38-2.52-1.65-3.03.03-.54,1.73-1.49,4.58-1.4,11.75,0,.94.03,2.97-.12,5.73-.06,1.12-.11,2.03-.17,2.59-3.12,0-6.24-.06-9.36-.06.57-11.84,2.49-25.65,12.91-32.58,1.12-.77,7.5-4.14,8.21-3.64.17.12,1.35,2.91,2.35,3.91,2.63,2.64,8.22,4.58,11.88,4.61-.23,5.67-.46,11.4-.63,17.13l-.03-.03ZM709.87,358.65c-.46.56-7.47-2.35-8.67-3.29-1.34-1.09-4.21-5.14-2.89-6.58.34-.35,8.53,2.12,9.33,2.61,1.95,1.2,3.29,6.02,2.23,7.26ZM736.37,352.84c4.24.56,10.33,5.05,13.02,8.46,6.1,7.67,7.16,18.13,7.38,27.7h-13.48c.06-2.35.49-18.07-.97-19.71-.66-.73-1.29-.73-1.29-.73-.66,0-1.17.59-1.34.79-1.23,1.47-.57,4.41-.26,9.11.14,2.15.17,3.94.2,5.93.03,1.97,0,3.55,0,4.64h-27.48c.31-9.02.63-18.01.94-27.03.8,0,1.98,0,3.44-.12,2-.18,6.15-.68,10.79-2.97,1.52-.76,3.03-1.7,4.61-2.97,1.83-1.47,1.32-3.5,4.41-3.09l.03-.03ZM711.82,351.75l1.92-.32c-.54,1.44-1.06,1.56-1.92.32ZM718,351.48l14.37-4.02c.49.53-.29,3.29-.71,4.2-1.83,3.67-8.85,6.34-12.62,6.81-.94.12-5.01.44-5.27.18-.97-.97,2.81-6.7,4.26-7.17h-.03ZM740.07,340.85c1.4-1.5,4.01-10.25,6.41-7.9,1.89,1.82-3.44,9.17-6.41,7.9ZM745.85,342.17c-.97-1.12.83-2.97,1.92-1.97.69.62-1.32,2.67-1.92,1.97ZM750.77,342.23c2.66-.47,6.78,8.93,4.72,10.49-.4.29-6.61-2.73-6.96-3.73-.66-1.91,0-6.38,2.23-6.76ZM747.19,328.69c-2.15,1.62-3.98.44-5.21,1.23-.4.26-3.06,6.76-4.49,8.58-10.74,13.81-39.96,13.31-49.09-2.35-.86-1.5-2.03-5.32-2.6-5.91-1.09-1.09-3.43-.29-5.09-1.35-2.95-1.88-4.18-8.37-1.4-10.52,2.17-1.7,5.87.03,6.21.21,1.09-4.17,2.2-8.37,3.29-12.54,6.64-1.2,14.74-2.17,23.96-2.14,9.53,0,17.86,1.09,24.67,2.38,1.52,4.2,3.03,8.37,4.55,12.57.66-.38,1.92-1,3.58-1.09,1-.06,10.33,4.41,1.6,10.93h.03ZM684.17,314.47c-.8-.09-3.66.21-3.86,0-.23-.23-.11-6.05.29-6.64.43-.62,4.64-1.5,4.87-1.26.49.5-1.89,6.43-1.29,7.9ZM740.72,305.92c.23-.32,7.21,1.62,7.41,1.94.4.59.51,6.4.29,6.64-.26.26-4.09.15-4.84-.65-.46-.5-3.18-7.52-2.86-7.93ZM751.63,315.14c-.2-.24-.2-5.7,0-5.93.2-.24,5.21,2.32,2.6-1.7-2.26-3.47-17.23-5.14-21.55-5.55-13.25-1.26-28.48-1.03-41.68.73-3.58.47-15.14,1.88-16.37,5.61-1.03,3.14,2.75.47,3.12.88.2.23.2,5.7,0,5.93-.72.85-19.46-6.79-3.38-13.04,17.06-6.61,63.03-6.55,80.17-.18,16.92,6.29-2.18,14.07-2.92,13.22v.03ZM754.29,298.55s-.06-.53-.14-1.18c-.17-.97-.32-1.35-.46-2.26-.09-.56-.12-.94-.12-1.06-1.46-11.63-7.7-20.18-17.54-25.82-4.69-2.67-5.75-2.58-10.05-6.17-5.41-4.53-15.69-5.05-21.44-.85-1.58,1.15-2.09,2.79-3.03,3.47-1.34,1-5.89,2.29-8.1,3.55-9.87,5.64-15.57,14.57-17.92,25.79-.26,1.23-.14,4.2-.37,4.55-.2.32-5.44,1.97-6.96,3.09-5.9,4.35-4.47,9.55,1.03,13.37,1.58,1.09,6.38,2.5,6.64,2.76.11.12-1.03,2.26-1.14,3.11-.34,2.67.6,5.93,2,8.2,1.8,2.91,3.09,1.47,2.37,6.85-.54,4.08-4.41,4.38-6.78,7.55-3.52,4.64-4.38,11.84-1.92,13.87.89.73,2.06.71,2.86.62,0-.5.06-1.23.4-2,1.03-2.14,3.35-1.82,5.84-3.38,3.61-2.26,2.49-5.32,6.5-7.58.86-.47,2.38-1.32,4.29-1.03,2.26.35,3.58,1.97,3.78,2.23.72.91,1.03,1.82,1.17,2.35-1.49.65-3.41,1.62-5.5,2.94-3.46,2.2-5.7,4.38-6.21,4.88-2.8,2.73-4.52,5.32-5.24,6.52-3.18,5.08-4.15,9.72-5.15,14.72-.66,3.32-1.34,7.96-1.32,13.57,12.68.06,25.39.12,38.07.18,16.66.09,33.32.15,50,.24,0-1.5-.17-3.76-.17-6.52,0,0-.14-2.79-.34-4.96-.43-4.38-1.32-13.63-7.56-21.15-1.06-1.26-3.38-3.82-7.04-6.08-3.55-2.17-6.84-3.11-9.04-3.58.17-1.38.34-2.76.51-4.11.51-.71,1.06-1.41,1.57-2.15,4.52-.44,6.44.71,7.33,1.85.29.38-.17,4.41,2,6.87,1.46,1.68,2.92,1.15,5.78,3.29,1.52,1.15,2.52,2.35,3.12,3.17.89-1.12,2.17-3.11,2.6-5.88.57-3.82-.8-8.43-3.78-11.19-1.29-1.18-5.38-2.53-5.55-3.88-.09-.59.49-1.73.46-2.67-.03-1.09-.69-2.53-.54-3.23.14-.76,2.86-3.47,3.72-7.67.06-1.09-.08-2.2,0-3.29.06-.7-.23-2.23.06-2.55.12-.12,2.52-.5,3.32-.88,3.58-1.67,6.24-3.94,6.5-4.35.55-.76,1.69-2.44,1.66-4.73-.06-2.64-1.66-5.2-3.75-6.52-2.69-1.68-5.5-1.44-6.44-2.82v-.03Z"/>
      <path class="cls-52" d="M713.74,339.58h-.14c-4.38-.03-7.47-2.12-8.93-3.35-.43-.35-.49-1-.14-1.44.34-.44.97-.5,1.4-.15,1.26,1.06,3.92,2.85,7.7,2.88,3.72.06,6.41-1.65,7.67-2.67.43-.35,1.06-.26,1.4.18.34.44.26,1.09-.17,1.44-1.46,1.18-4.52,3.11-8.79,3.11Z"/>
      <path class="cls-52" d="M703.8,312.91c-.2,0-.4-.06-.57-.18-.66-.47-1.72-1.03-3.12-1.14-1.89-.15-3.35.65-4.06,1.14-.46.32-1.09.21-1.4-.26-.32-.47-.2-1.12.26-1.44.92-.65,2.8-1.7,5.35-1.5,1.46.12,2.86.62,4.09,1.5.46.32.57.97.26,1.44-.2.3-.52.44-.83.44h.03Z"/>
      <path class="cls-52" d="M723.07,312.91c-.32,0-.63-.15-.83-.44-.31-.47-.2-1.12.26-1.44.92-.65,2.83-1.7,5.35-1.5,1.46.12,2.86.62,4.09,1.5.46.32.57.97.26,1.44-.31.47-.94.59-1.4.26-.94-.65-2-1.06-3.12-1.14-1.89-.12-3.38.65-4.06,1.14-.17.12-.37.18-.57.18h.03Z"/>
      <path class="cls-1" d="M450.38,387.53c-3.55.09-7.1.15-10.68.23-4.21.18-8.5.29-12.91.35-4.41.06-8.73.06-12.91,0v-29.52c2.98,3.44,6.96,5.26,9.96,4.14,3.01-1.09,5.87-5.37,6.01-8.93.06-1.56.08-2.76.97-3.44,1.4-1.06,4.04.3,5.47,1.06,1.2.65,5.44,3,8.64,7.81,6.47,9.72,5.52,26.65,5.41,28.26l.03.03ZM422.24,367.64c-4.09,3.94,2.15,20.56,10.25,13.42,3.32-2.91,6.47-13.37.31-14.13-1.72-.21-9.59-.26-10.56.67v.03Z"/>
      <path class="cls-1" d="M377.76,388.14c-.34-2.29-3.01-23,10.25-34.34,2.03-1.73,5.01-3.73,9.19-5.14.12,8.78,2.58,15.16,5.58,15.63,1.43.21,3.69-.82,4.26-1.06,1.97-.88,3.32-2.09,4.09-2.91.17,9.28.34,18.57.49,27.85h-33.89l.03-.03ZM393.79,370.78c-3.49,1.23.29,12.4,8.13,10.99,4.87-.88,9.27-9.75,5.24-10.99-.97-.29-12.54-.32-13.37,0Z"/>
      <path class="cls-26" d="M402.18,361.67c-1.55-.88-2.01-3.23-2.55-5.99-.57-2.94-.46-5.43-.26-7.05,1.52.26,3.75.88,6.13,2.32,3.29,2,5.21,4.58,6.13,6.08-3.38,3.99-7.3,5.88-9.47,4.64h.03Z"/>
      <path class="cls-26" d="M428.97,349.25c-.17,7.17-3.23,12.22-6.64,12.66-2.4.32-6.07-1.53-6.35-3.88-.09-.76.17-1.35.6-2.2,1.95-3.91,5.9-5.49,6.67-5.79,1.12-.44,3.12-1,5.75-.82l-.03.03Z"/>
      <path class="cls-59" d="M418.47,351.51c-.75,1.12-3.81,3.76-4.95,3.73-.66,0-5.1-3.61-4.41-4.26,3.09.76,6.24.53,9.39.53h-.03Z"/>
      <path class="cls-51" d="M422.25,367.64c.97-.94,8.81-.88,10.56-.67,6.18.73,3.01,11.19-.31,14.13-8.13,7.14-14.37-9.49-10.25-13.42v-.03ZM433.55,369.64h-9.9c-1.14,13.84,10.96,13.72,9.9,0Z"/>
      <path class="cls-24" d="M393.79,370.78c.83-.29,12.39-.26,13.37,0,4.04,1.2-.34,10.11-5.24,10.99-7.84,1.41-11.62-9.78-8.13-10.99ZM405.96,373.37h-10.93c.8,7.76,10.56,7.67,10.93,0Z"/>
      <path class="cls-59" d="M433.55,369.64c1.06,13.72-11.02,13.84-9.9,0h9.9Z"/>
      <path class="cls-7" d="M405.96,373.37c-.4,7.67-10.13,7.76-10.93,0h10.93Z"/>
      <path class="cls-63" d="M412.63,260.94c-9.79.68-28.14,12.63-34.29,20.39-3.75,4.73-3.75,9.9,1.32,13.6,3.03,2.23,3.46-.21,6.15-1.67,12.68-6.85,40.3-7.2,53.5-1.76,1.66.68,7.13,4.53,7.56,4.53,2.78,0,5.38-7.05,4.84-9.75-1.4-6.99-18.89-19.27-25.22-22.18-4.24-1.94-9.13-3.47-13.82-3.11l-.03-.03ZM443.37,297.19c-.37-.65-5.32-2.91-6.41-3.32-11.28-4.2-31.11-4.23-42.71-1.03-1.97.56-9.33,3.11-9.67,5.02-.26,1.5.17,3.5,0,5.08,2.83-2.03,4.69-3.67,8.04-4.82,12.02-4.08,36.72-5,47.83,1.65.54.32,2.69,3.64,3.01,1.32.09-.73.17-3.44-.12-3.91h.03ZM432.86,299.95c-11.33-3.7-30.77-2.35-41.47,2.2-1.23.53-2.66,1.18-3.64,2.12,0,2.26,16.72,4.94,18.98,5.08,11.51.73,23.93.18,34.66-4.29.31-1.23-.23-.88-.66-1.2-1.26-1.03-6.52-3.47-7.87-3.91ZM384.58,306.15v8.55c.77.03.92-1.91.97-2.47.17-1.62.66-5.17-.97-6.08ZM443.45,307.74c-2.86.32-1.12,5.32-1.55,7.46,2.46-1.5,1.34-5.02,1.55-7.46ZM438.76,309.35c-16.4,5.02-34.12,3.97-50.52-.53,0,2.09-.69,11.63-2.43,12.19-3.98,1.29-.31-5.58-5.04-5.17-3.83.32-3.09,10.02,1.17,11.43,2.32.76,2.98-3.7,4.47-1.41.43.65.97,7.96,2.43,10.87,7.78,15.51,41.64,16.22,49.49.18,1-2.03,2.58-10.46,3.01-10.78,2-1.5,1.97,1.76,2.12,1.88,2.52,2.35,9.62-10.19,3.66-12.05-5.12-1.61-1.6,5-5.47,4.06-2.46-.59-2.29-8.29-2.89-10.69v.03ZM401.92,360.97c2.49,2.47,7.41-1.94,9.24-3.88-3.26-3.11-6.58-7.76-11.45-7.73-.2,2.79.2,9.64,2.2,11.6ZM428.34,349.37c-.37-.38-4.24,1.14-4.95,1.59-.51.32-6.27,5.23-6.53,5.58-.4.53-.74,1.2-.4,1.82.14.26,4.58,3.11,5.01,3.2,4.67.88,7.04-8.61,6.9-12.19h-.03ZM377.82,387.76h8.33c-.09-5.96,0-11.93.51-17.89.17-1.88,1.49-3.91,2.92-1.88.49.71-.74,7.75-.83,9.37-.17,3.44.12,6.96,0,10.4h22.41v-26.67c-2.49,1-5.5,4.11-8.36,3.52-5.04-1.03-6.18-10.43-5.73-14.75-1-1-7.21,3.14-8.3,4.05-9.22,7.73-11.39,22.3-10.99,33.84h.03ZM449.72,387.23c-.46-12.4-1.75-28.26-13.54-34.96-1.2-.67-3.09-1.82-4.44-1.88-1.32-.06-.69,1.97-1.03,3.26-2.63,10.31-7.7,14.16-16.43,6.38,0,9.17,0,18.33-.03,27.5,8.36-.09,16.69-.21,25.05-.29v-19.21c.97,0,2.18-.23,2.52.88l.6,18.33h7.3ZM418.47,351.51c-3.15,0-6.3.21-9.39-.53-.66.65,3.78,4.23,4.41,4.26,1.14.03,4.21-2.58,4.95-3.73h.03ZM446.69,299.84c-1.03,1.79.29,10.43-.14,12.9,7.64,1.56,7.21,11.63,2.15,16.07-1.35,1.18-5.12,2.41-5.5,2.91-.69.94-1.38,5.26-2.66,7.43-1.92,3.29-4.52,4.79-6.96,7.29-.43.44-.75.47-.54,1.29,17.34,5.05,20.18,26.91,19.29,42.68l-77.14.3c-.77-.56-.6-9.08-.49-10.69.92-13.34,6.61-28,19.78-32.81-3.69-3.03-6.96-5.7-8.96-10.28-.57-1.32-1.34-5.23-1.72-5.73-.51-.68-1.92-.53-2.72-.94-7.18-3.82-9.02-15.75.4-17.48.2-1.23.17-11.84-.12-12.69-.17-.56-4.58-3.11-5.64-4.35-9.79-11.31,5.18-22.09,13.48-27.82,18.29-12.63,30.11-13.6,48.69-.62,9.99,6.96,24.76,19.04,11.53,30.82-.6.53-2.66,1.59-2.75,1.73Z"/>
      <path class="cls-56" d="M412.63,260.94c4.69-.32,9.62,1.18,13.82,3.11,6.33,2.91,23.84,15.22,25.22,22.18.55,2.7-2.06,9.75-4.84,9.75-.43,0-5.93-3.85-7.56-4.53-13.2-5.41-40.82-5.08-53.5,1.76-2.72,1.47-3.12,3.91-6.15,1.67-5.07-3.7-5.07-8.87-1.32-13.6,6.15-7.75,24.53-19.68,34.29-20.39l.03.03ZM415.26,268.34c-2.38-1.53-3.44,3.26-4.64,3.91-1.09.59-4.87.44-5.18,1.65-.49,1.7,2.6,2.94,3.01,4.35.77,2.64-2.2,6.99,2.35,5.93,1.14-.26,1.8-1.56,3.23-1.56s2.23,1.47,3.69,1.65c3.95.47,1.12-3.38,1.89-6.02.37-1.23,3.95-3.23,3-4.64-.32-.47-4.61-.91-5.5-1.59-.97-.71-1.63-3.58-1.83-3.7l-.03.03Z"/>
      <path class="cls-16" d="M432.86,299.95c1.34.44,6.61,2.88,7.87,3.91.43.35.95,0,.66,1.2-10.73,4.47-23.16,5.02-34.66,4.29-2.26-.15-19.01-2.85-18.98-5.08,1-.94,2.4-1.59,3.64-2.12,10.7-4.55,30.17-5.88,41.47-2.2Z"/>
      <path class="cls-59" d="M443.37,297.19c.26.47.2,3.17.12,3.91-.31,2.32-2.46-1-3.01-1.32-11.1-6.61-35.81-5.7-47.83-1.65-3.35,1.15-5.21,2.79-8.04,4.82.17-1.59-.29-3.59,0-5.08.34-1.94,7.7-4.47,9.67-5.02,11.56-3.23,31.4-3.2,42.71,1.03,1.09.41,6.01,2.64,6.41,3.32h-.03Z"/>
      <path class="cls-71" d="M443.51,307.53c-.26,2.67.97,6.55-1.72,8.23.49-2.38-1.43-7.87,1.72-8.23Z"/>
      <path class="cls-71" d="M384.49,305.86c1.83,1,1.29,4.97,1.09,6.73-.06.62-.23,2.79-1.09,2.73v-9.46Z"/>
      <path class="cls-73" d="M415.26,268.34c.2.15.89,3,1.83,3.7.89.68,5.18,1.12,5.5,1.59.94,1.41-2.66,3.41-3,4.64-.77,2.64,2.06,6.49-1.89,6.02-1.43-.18-2.2-1.65-3.69-1.65s-2.09,1.29-3.23,1.56c-4.55,1.06-1.58-3.29-2.35-5.93-.43-1.41-3.49-2.64-3.01-4.35.34-1.18,4.09-1.06,5.18-1.65,1.23-.65,2.26-5.43,4.64-3.91l.03-.03Z"/>
      <path class="cls-8" d="M438.76,309.35c.6,2.38.43,10.11,2.89,10.69,3.86.94.37-5.67,5.47-4.06,5.95,1.88-1.14,14.39-3.66,12.05-.14-.12-.12-3.38-2.12-1.88-.43.32-2,8.78-3,10.78-7.84,16.01-41.7,15.33-49.49-.18-1.46-2.88-2-10.22-2.43-10.87-1.49-2.32-2.15,2.15-4.47,1.41-4.26-1.41-5.01-11.1-1.17-11.43,4.72-.41,1.06,6.46,5.04,5.17,1.75-.56,2.43-10.13,2.43-12.19,16.4,4.5,34.12,5.55,50.52.53v-.03ZM429.92,322.16c.08-.53.6-.94.51-1.82-.09-.88-.69-1.26-1.03-1.91-.34-.65-.2-1.76-1.4-2.06-4.18-1.09-5.75,10.34-.46,9.55,2.23-.32,2.09-2.23,2.38-3.76ZM414.15,324.89c-2.06.32-3.61,3.5-1.6,4.14,2.89.94,4.98-4.67,1.6-4.14Z"/>
      <path class="cls-47" d="M423.62,332.59c.54,0,1.06.5,1.17.97.06.32-.03.65-.63,1.5-.6.85-.92,1.26-1.69,1.94-.57.5-1.86,1.59-3.92,2.32-1.75.65-3.26.76-4.15.76-3.18,0-5.41-1.2-6.93-2.03-.26-.15-1.32-.73-2.35-1.88-.63-.7-1.23-1.41-1.03-2.12.14-.5.63-.91,1.09-.94.6,0,1.03.62,1.38,1,0,0,1.17,1.47,3.69,2.79,1.83.97,3.61.91,4.41.88.8-.03,2.17-.21,3.66-.91,1.26-.59,2.18-1.38,2.63-1.79,1.52-1.41,1.83-2.53,2.69-2.5h-.03Z"/>
      <path class="cls-47" d="M428.94,325.28c-.66.5-1.4.62-1.4.62,0,0-.89.15-1.72-.26-1.86-.88-2.8-5.26-.97-7.76.17-.23,1.23-1.7,2.66-1.59,1.14.09,1.86,1.12,2.15,1.53,1.66,2.38.94,6.2-.69,7.46h-.03Z"/>
      <path class="cls-38" d="M399.15,318.31c2.43-.44,4.92,1.12,6.07,3.05.26.44.97,1.65.51,2.44-.2.32-.66.65-1.12.59-1.26-.09-1.23-2.58-3-3.26-.77-.29-1.69-.21-2.26-.12-1.12.12-1.66.47-2.17.12-.37-.26-.6-.79-.54-1.23.17-1.14,2.32-1.53,2.49-1.59h.03Z"/>
      <path class="cls-38" d="M414.14,324.9c3.35-.53,1.26,5.11-1.6,4.14-1.98-.65-.46-3.82,1.6-4.14Z"/>
      <path class="cls-18" d="M428.48,321.63c.66,0,1.2-.91,1.2-2.03s-.54-2.03-1.2-2.03-1.2.91-1.2,2.03.54,2.03,1.2,2.03Z"/>
    </g>
    <g class="cls-19">
      <g>
        <g class="cls-10">
          <path class="cls-5" d="M114.5,389.15h743.66c4.97,0,9.74,1.97,13.25,5.49,3.51,3.52,5.49,8.28,5.49,13.25v37.48c0,4.97-1.97,9.74-5.49,13.25-3.52,3.51-8.28,5.49-13.25,5.49H114.5c-10.35,0-18.74-8.39-18.74-18.74v-37.48c0-10.35,8.39-18.74,18.74-18.74Z"/>
        </g>
        <path class="cls-4" d="M150.93,430.42h-3.25c-.1,0-.23.07-.39.2-.17.13-.25.33-.25.59v8.7c0,.43-.08.87-.25,1.33-.17.46-.41.87-.73,1.23-.37.4-.81.71-1.33.93-.53.26-1.13.39-1.82.39s-1.28-.13-1.77-.39c-.52-.23-.95-.54-1.28-.93-.36-.39-.62-.82-.79-1.28-.2-.46-.3-.9-.3-1.32v-27.03c0-.46.1-.92.3-1.38.16-.46.43-.88.79-1.28.36-.36.8-.67,1.33-.93.49-.23,1.08-.35,1.77-.35h8.01c1.84,0,3.48.3,4.92.89,1.41.62,2.61,1.44,3.59,2.46.95,1.02,1.67,2.16,2.16,3.44.49,1.31.73,2.64.73,3.98s-.24,2.66-.73,3.94c-.52,1.31-1.26,2.46-2.21,3.44-.99,1.02-2.18,1.84-3.59,2.46-1.44.62-3.08.93-4.92.93ZM147.05,421.78c0,.26.08.46.25.59.16.13.3.2.39.2h3.25c1.02,0,1.8-.26,2.36-.79.52-.49.78-1.21.78-2.16s-.26-1.69-.78-2.21c-.56-.49-1.34-.74-2.36-.74h-3.25c-.1,0-.23.07-.39.2-.17.13-.25.32-.25.59v4.33Z"/>
        <path class="cls-54" d="M217.29,412.83v22.46c0,.26.08.44.25.54.16.13.3.19.39.19h9.69c.69,0,1.29.12,1.82.35.49.26.92.57,1.28.93.36.37.64.78.83,1.23.16.46.25.92.25,1.37,0,.43-.08.87-.25,1.33-.16.46-.41.87-.73,1.23-.37.4-.81.71-1.33.93-.53.26-1.13.39-1.82.39h-14.45c-.69,0-1.28-.13-1.77-.39-.53-.23-.95-.54-1.28-.93-.36-.39-.62-.82-.79-1.28-.2-.46-.29-.9-.29-1.32v-27.03c0-.46.1-.92.29-1.38.16-.46.43-.88.79-1.28.36-.36.81-.67,1.33-.93.49-.23,1.08-.35,1.77-.35s1.35.13,1.87.39c.49.26.9.59,1.23.99.33.39.57.82.74,1.28.13.46.19.89.19,1.28Z"/>
        <path class="cls-57" d="M298.03,411.95l10.57,26.54c.2.4.3.86.3,1.38,0,.42-.08.87-.25,1.32-.2.46-.48.87-.84,1.23-.36.36-.78.66-1.28.89-.53.26-1.13.39-1.82.39-1.01,0-1.85-.26-2.51-.78-.66-.53-1.12-1.12-1.38-1.77l-2.7-6.94c-.17-.26-.36-.39-.59-.39h-8.31c-.1,0-.2.03-.29.1-.13.07-.23.16-.3.29l-2.75,6.94c-.26.65-.72,1.24-1.37,1.77-.66.52-1.5.78-2.51.78-.65,0-1.24-.13-1.77-.39-.52-.23-.95-.53-1.28-.89-.36-.36-.62-.77-.78-1.23-.2-.46-.3-.9-.3-1.32,0-.49.08-.95.25-1.38l10.57-26.54c.33-.82.92-1.54,1.76-2.17.82-.59,1.81-.89,2.95-.89s2.13.31,2.95.93c.82.63,1.38,1.33,1.67,2.12ZM293.36,422.46c-.26.56-.51,1.11-.74,1.67-.23.59-.46,1.18-.69,1.76,0,.07-.03.13-.1.2h2.95s-.03-.11-.1-.25c-.07-.26-.17-.54-.29-.83-.13-.3-.26-.61-.39-.94-.1-.29-.2-.57-.3-.83-.13-.26-.24-.52-.34-.78Z"/>
        <path class="cls-46" d="M362.04,420.55l6.09-9.73c.33-.52.8-.97,1.43-1.33.59-.36,1.3-.54,2.12-.54.69,0,1.29.11,1.82.34.52.26.97.58,1.33.94.33.39.57.82.74,1.27.16.46.24.91.24,1.33,0,.69-.2,1.36-.59,2.01l-8.9,14.21c-.1.1-.15.24-.15.44v10.42c0,.43-.08.87-.25,1.33-.2.46-.46.87-.78,1.23-.36.4-.79.71-1.28.93-.52.26-1.13.39-1.82.39s-1.3-.13-1.82-.39c-.52-.23-.95-.54-1.28-.93-.36-.39-.62-.82-.79-1.28-.2-.46-.29-.9-.29-1.32v-10.42c0-.2-.05-.35-.15-.45l-8.9-14.2c-.39-.66-.58-1.33-.58-2.02,0-.43.1-.87.29-1.32.16-.46.43-.88.79-1.28.33-.36.75-.67,1.28-.93.49-.23,1.08-.35,1.77-.35.82,0,1.54.18,2.16.54.59.37,1.07.81,1.43,1.33l6.1,9.78Z"/>
        <path class="cls-72" d="M427.56,426.39c0,1.38.21,2.64.64,3.78.4,1.18,1,2.2,1.82,3.05.82.89,1.84,1.57,3.05,2.07,1.21.49,2.62.73,4.22.73.46,0,.97-.03,1.53-.09.55-.07,1.09-.17,1.62-.3.52-.13,1.03-.29,1.53-.49.46-.2.83-.41,1.13-.64.16-.13.28-.26.35-.39.03-.1.05-.28.05-.54s-.08-.46-.25-.59c-.16-.1-.3-.15-.39-.15h-6.34c-.69,0-1.28-.13-1.77-.39-.52-.23-.95-.54-1.27-.93-.36-.4-.63-.82-.78-1.28-.2-.46-.3-.9-.3-1.33s.1-.87.3-1.33c.16-.46.42-.88.78-1.28.32-.39.75-.72,1.27-.98.52-.23,1.13-.35,1.82-.35h11.11c.66,0,1.25.12,1.77.35.52.26.97.57,1.33.93.36.36.64.77.83,1.23.16.46.25.92.25,1.37v6.94c0,.52-.08.98-.25,1.37-.2.43-.47.84-.83,1.23-1.61,1.77-3.61,3.09-6,3.98-2.4.92-4.87,1.38-7.42,1.38s-4.94-.43-7.13-1.28c-2.23-.82-4.15-2-5.76-3.54-1.6-1.51-2.86-3.34-3.78-5.51-.92-2.13-1.38-4.5-1.38-7.13s.46-4.99,1.38-7.12c.92-2.13,2.18-3.97,3.78-5.51,1.61-1.51,3.53-2.69,5.76-3.54,2.19-.82,4.57-1.23,7.13-1.23,1.18,0,2.39.1,3.64.3,1.24.23,2.45.55,3.64.98,1.18.46,2.31,1.02,3.39,1.67,1.05.69,1.97,1.49,2.75,2.41.69.79,1.03,1.66,1.03,2.6,0,.43-.08.87-.25,1.33-.2.46-.46.87-.78,1.23-.36.4-.8.71-1.33.94-.52.26-1.13.39-1.82.39-.85,0-1.51-.16-1.97-.49-.49-.33-1.02-.75-1.58-1.28-.92-.82-1.96-1.41-3.14-1.77-1.21-.36-2.41-.54-3.58-.54-1.61,0-3.02.25-4.23.74-1.24.52-2.28,1.23-3.1,2.11-.82.88-1.42,1.92-1.82,3.1-.42,1.18-.64,2.44-.64,3.78Z"/>
        <path class="cls-75" d="M516.28,429.05c.1.23.28.55.54.98.26.4.56.84.89,1.33.3.53.63,1.07.99,1.63.69,1.12,1.34,2.15,1.97,3.1.59.95.97,1.56,1.13,1.82.39.59.58,1.25.58,1.97,0,.43-.08.87-.25,1.33-.2.49-.46.92-.78,1.28-.36.36-.79.66-1.28.89-.52.26-1.13.39-1.82.39-.82,0-1.52-.18-2.11-.54-.62-.36-1.11-.82-1.47-1.38l-6.88-11.06c-.2-.26-.41-.39-.64-.39-.04,0-.1.02-.2.05-.1.07-.15.22-.15.45v8.99c0,.43-.08.87-.25,1.33-.17.46-.41.87-.73,1.23-.37.39-.81.7-1.33.93-.53.26-1.13.39-1.82.39s-1.28-.13-1.77-.39c-.52-.23-.95-.54-1.28-.93-.36-.39-.62-.82-.79-1.28-.2-.46-.3-.9-.3-1.33v-27.04c0-.46.1-.91.3-1.37.16-.46.43-.89.79-1.28.36-.36.8-.67,1.32-.93.49-.23,1.08-.35,1.77-.35h8.01c1.84,0,3.48.3,4.92.89,1.41.62,2.61,1.44,3.59,2.46.95,1.01,1.69,2.16,2.21,3.44.49,1.31.74,2.64.74,3.98,0,2.26-.51,4.13-1.52,5.6-1.02,1.51-2.48,2.79-4.38,3.84ZM506.75,421.78c0,.26.08.46.25.59.16.13.3.2.39.2h3.25c1.01,0,1.8-.26,2.36-.79.52-.49.78-1.22.78-2.17s-.26-1.69-.78-2.21c-.56-.49-1.35-.74-2.36-.74h-3.25c-.1,0-.23.07-.39.2-.17.13-.25.32-.25.59v4.33Z"/>
        <path class="cls-31" d="M585.57,443.75c-2.56,0-4.94-.43-7.13-1.28-2.23-.82-4.15-2-5.76-3.54-1.6-1.51-2.86-3.34-3.78-5.51-.92-2.13-1.38-4.5-1.38-7.13s.46-4.99,1.38-7.12c.92-2.13,2.18-3.97,3.78-5.51,1.61-1.51,3.53-2.69,5.76-3.54,2.19-.82,4.57-1.23,7.13-1.23s4.93.41,7.12,1.23c2.2.85,4.1,2.03,5.7,3.54,1.61,1.54,2.87,3.38,3.79,5.51.91,2.13,1.37,4.5,1.37,7.12s-.46,5-1.37,7.13c-.92,2.16-2.18,4-3.79,5.51-1.6,1.54-3.5,2.72-5.7,3.54-2.19.85-4.57,1.28-7.12,1.28ZM595.25,426.29c0-1.34-.2-2.6-.59-3.79-.43-1.18-1.03-2.21-1.82-3.1-.82-.85-1.84-1.52-3.05-2.01-1.21-.49-2.62-.74-4.22-.74s-3.02.25-4.23.74c-1.21.49-2.23,1.16-3.05,2.01-.82.89-1.42,1.92-1.82,3.1-.43,1.18-.64,2.44-.64,3.79s.21,2.64.64,3.79c.39,1.18,1,2.19,1.82,3.05.82.88,1.84,1.57,3.05,2.06,1.21.49,2.62.74,4.23.74s3.01-.25,4.22-.74c1.21-.49,2.23-1.18,3.05-2.06.79-.85,1.39-1.87,1.82-3.05.39-1.15.59-2.41.59-3.79Z"/>
        <path class="cls-49" d="M669.86,412.88c0-.46.1-.92.3-1.38.16-.46.42-.88.78-1.27.36-.36.8-.68,1.33-.94.49-.23,1.08-.34,1.77-.34s1.29.11,1.82.34c.49.26.91.58,1.27.94.36.36.64.77.84,1.23.16.46.25.92.25,1.38v17.89c0,1.54-.31,3.08-.93,4.62-.63,1.57-1.51,2.98-2.66,4.23-1.15,1.24-2.56,2.26-4.23,3.04-1.67.79-3.57,1.18-5.7,1.18h-1.67c-2.13,0-4.03-.39-5.7-1.18-1.68-.79-3.09-1.8-4.23-3.04-1.18-1.25-2.08-2.66-2.7-4.23-.62-1.54-.93-3.08-.93-4.62v-17.89c0-.46.1-.92.29-1.38.16-.46.43-.88.79-1.28.36-.36.81-.67,1.33-.93.49-.23,1.08-.35,1.77-.35s1.29.12,1.82.35c.49.26.92.57,1.28.93.36.36.64.77.84,1.23.16.46.24.92.24,1.37v17.89c0,.69.13,1.34.4,1.97.26.66.64,1.21,1.12,1.67.46.49,1.02.89,1.67,1.18.62.3,1.31.45,2.06.45h1.67c.76,0,1.46-.15,2.11-.45.62-.29,1.18-.69,1.67-1.18.46-.46.82-1.02,1.08-1.67.23-.62.35-1.28.35-1.97l-.1-17.79Z"/>
        <path class="cls-11" d="M733.25,423.79v16.12c0,.43-.08.87-.25,1.33-.16.46-.41.87-.74,1.23-.36.4-.8.71-1.33.93-.52.26-1.13.39-1.82.39s-1.28-.13-1.77-.39c-.52-.23-.95-.54-1.28-.93-.36-.39-.62-.82-.79-1.28-.2-.46-.29-.9-.29-1.32v-27.03c0-.46.1-.92.29-1.38.16-.46.43-.88.79-1.28.36-.36.81-.67,1.33-.93.49-.23,1.08-.35,1.77-.35s1.31.13,1.87.39c.55.3,1.01.64,1.37,1.03l15.88,18.39v-15.83c0-.43.1-.87.29-1.33.16-.46.43-.89.79-1.28.36-.36.8-.67,1.32-.93.49-.23,1.08-.35,1.77-.35s1.29.12,1.82.35c.49.26.92.57,1.28.93.36.36.64.77.83,1.23.16.46.25.91.25,1.33v27.08c0,.43-.08.87-.25,1.33-.2.46-.46.87-.78,1.23-.36.4-.79.71-1.28.93-.52.26-1.13.39-1.82.39s-1.31-.15-1.87-.44c-.56-.26-1.02-.61-1.38-1.03l-16.02-18.53Z"/>
        <path class="cls-33" d="M815.79,443.79h-8.16c-.69,0-1.3-.13-1.82-.39-.56-.23-1-.54-1.33-.93-.36-.39-.62-.83-.79-1.33-.2-.46-.29-.9-.29-1.32v-26.99c0-.46.1-.92.29-1.38.16-.46.43-.88.79-1.28.33-.36.77-.67,1.33-.93.52-.23,1.13-.35,1.82-.35h8.16c2.58,0,4.98.41,7.17,1.23,2.19.85,4.09,2.03,5.7,3.54,1.6,1.54,2.86,3.38,3.78,5.51.92,2.16,1.38,4.56,1.38,7.17s-.46,5-1.38,7.13c-.92,2.16-2.18,4-3.78,5.5-1.61,1.54-3.51,2.72-5.7,3.54-2.23.85-4.62,1.27-7.17,1.27ZM815.79,435.98c1.6,0,3.01-.26,4.22-.79,1.21-.49,2.23-1.18,3.05-2.06.82-.85,1.44-1.87,1.87-3.05.39-1.18.59-2.44.59-3.79s-.2-2.6-.59-3.79c-.43-1.18-1.05-2.21-1.87-3.1-.82-.85-1.84-1.52-3.05-2.01-1.21-.49-2.62-.74-4.22-.74h-3.44c-.1,0-.23.07-.39.2-.16.13-.25.32-.25.59v17.79c0,.26.08.44.25.55.16.13.3.19.39.19h3.44Z"/>
      </g>
    </g>
    <g class="cls-34">
      <g>
        <path class="cls-14" d="M52.54,280.5l41.68,32.39c1.05.82,1.99,1.87,2.81,3.16.82,1.28,1.36,2.68,1.63,4.18.28,1.65.2,3.34-.25,5.08-.36,1.8-1.2,3.55-2.52,5.25-1.32,1.7-2.78,2.91-4.37,3.62-1.57.85-3.15,1.31-4.76,1.36-1.67.13-3.22-.03-4.67-.51-1.51-.4-2.8-1.01-3.85-1.83l-66.96-52.02c-1.05-.82-1.96-1.91-2.71-3.28-.82-1.29-1.37-2.76-1.65-4.4-.2-1.58-.12-3.28.24-5.08.38-1.65,1.23-3.33,2.54-5.03,2.52-3.24,5.56-4.98,9.11-5.21l44.27-3.8-6.55-44.25c-.2-1.59-.05-3.29.46-5.1.44-1.74,1.26-3.38,2.46-4.92,1.32-1.7,2.77-2.98,4.34-3.83,1.51-.78,3.06-1.27,4.64-1.47,1.67-.14,3.22-.04,4.65.29,1.45.48,2.74,1.16,3.87,2.04l66.96,52.03c1.06.82,2,1.87,2.82,3.15.75,1.37,1.26,2.8,1.52,4.31.28,1.64.23,3.29-.15,4.95-.36,1.8-1.2,3.55-2.52,5.25-1.32,1.7-2.78,2.91-4.38,3.63-1.57.86-3.16,1.31-4.75,1.37-1.67.14-3.23-.03-4.68-.51-1.52-.39-2.8-1-3.85-1.81l-41.68-32.39,4.21,29.19c.15,1.15.12,2.36-.09,3.64-.28,1.35-.88,2.63-1.83,3.84-.88,1.14-1.92,1.96-3.09,2.48-1.24.59-2.44.96-3.59,1.11l-29.33,3.13Z"/>
        <path class="cls-14" d="M156.06,240.39l-57.38-62.43c-.9-.98-1.61-2.21-2.13-3.69-.59-1.4-.89-2.93-.9-4.61.07-1.59.43-3.25,1.08-4.96.65-1.57,1.77-3.09,3.35-4.54,1.59-1.46,3.23-2.48,4.92-3.07,1.68-.43,3.32-.62,4.92-.55,1.6.07,3.11.43,4.53,1.07,1.35.71,2.51,1.59,3.48,2.65l57.28,62.31c.9.98,1.65,2.18,2.24,3.59.6,1.4.9,2.86.91,4.39,0,1.67-.36,3.32-1.08,4.96-.66,1.72-1.78,3.3-3.36,4.76-1.51,1.39-3.11,2.38-4.81,2.96-1.69.58-3.34.84-4.93.77-1.59-.07-3.1-.42-4.53-1.05-1.43-.64-2.63-1.49-3.6-2.55Z"/>
        <path class="cls-14" d="M178.84,154.95l27.82,42.12c.73,1.12,1.28,2.41,1.65,3.9.36,1.48.43,2.98.2,4.48-.26,1.65-.88,3.23-1.86,4.73-.92,1.59-2.28,2.98-4.08,4.16-1.79,1.19-3.56,1.87-5.3,2.03-1.76.3-3.41.22-4.94-.24-1.62-.41-3.04-1.07-4.26-1.98-1.3-.86-2.32-1.85-3.06-2.96l-46.65-70.62c-.79-1.2-1.33-2.57-1.61-4.1-.36-1.48-.41-3.05-.15-4.7.32-1.56.94-3.14,1.85-4.72.89-1.44,2.23-2.76,4.03-3.94,1.8-1.19,3.65-1.93,5.56-2.2,1.96-.19,3.76-.08,5.38.33l73.2,20.62-27.31-41.35c-.74-1.11-1.24-2.44-1.52-3.98-.36-1.47-.42-3.03-.15-4.68.32-1.57.93-3.15,1.86-4.74.88-1.45,2.23-2.76,4.03-3.95,1.8-1.19,3.58-1.94,5.34-2.24,1.73-.16,3.38-.08,4.95.24,1.56.32,3,.9,4.3,1.76,1.21.92,2.19,1.94,2.93,3.05l46.74,70.75c.73,1.12,1.28,2.41,1.65,3.89.28,1.54.3,3.06.06,4.57-.26,1.65-.84,3.19-1.72,4.64-.92,1.59-2.27,2.98-4.07,4.17-1.8,1.18-3.68,1.88-5.64,2.07-1.91.27-3.7.16-5.38-.33l-73.84-20.76Z"/>
        <path class="cls-14" d="M282.03,152.11l-34.91-77.28c-.55-1.21-.84-2.6-.87-4.16-.12-1.52.08-3.08.6-4.67.56-1.49,1.42-2.94,2.58-4.37,1.11-1.29,2.65-2.37,4.61-3.26,1.96-.88,3.84-1.34,5.64-1.36,1.74.12,3.36.45,4.85,1.01,1.5.57,2.82,1.38,3.96,2.44,1.06,1.09,1.89,2.29,2.48,3.6l34.85,77.14c.55,1.21.88,2.58,1.01,4.1.13,1.52-.04,3-.52,4.45-.52,1.59-1.38,3.05-2.58,4.38-1.16,1.43-2.73,2.58-4.69,3.47-1.87.84-3.7,1.28-5.49,1.29-1.79.03-3.43-.24-4.93-.81-1.49-.56-2.81-1.37-3.96-2.42-1.16-1.06-2.03-2.24-2.62-3.54Z"/>
        <path class="cls-14" d="M329.92,75.84l13.43,51.05c.34,1.29.45,2.69.31,4.22-.13,1.52-.55,2.95-1.25,4.3-.78,1.48-1.87,2.78-3.27,3.89-1.38,1.21-3.11,2.09-5.2,2.63-2.08.55-3.97.63-5.68.23-1.77-.27-3.3-.88-4.61-1.81-1.41-.91-2.54-1.99-3.4-3.24-.96-1.24-1.6-2.5-1.95-3.79l-21.57-82.01c-.34-1.29-.4-2.7-.17-4.25.13-1.52.59-3.02,1.37-4.5.8-1.38,1.9-2.68,3.27-3.89,1.3-1.08,3-1.89,5.08-2.44,3.97-1.04,7.44-.58,10.4,1.4l37.47,23.88,21.69-39.13c.8-1.37,1.96-2.63,3.47-3.77,1.41-1.11,3.05-1.92,4.94-2.42,2.08-.55,4.01-.69,5.78-.41,1.67.31,3.2.86,4.58,1.67,1.4.9,2.57,1.92,3.51,3.05.86,1.26,1.47,2.58,1.84,3.97l21.58,82.01c.34,1.29.45,2.7.31,4.22-.23,1.55-.7,3-1.4,4.35-.78,1.48-1.82,2.76-3.14,3.84-1.37,1.21-3.1,2.09-5.18,2.64-2.08.55-3.97.62-5.68.22-1.77-.27-3.3-.88-4.61-1.81-1.41-.91-2.54-1.99-3.4-3.25-.96-1.23-1.62-2.49-1.96-3.78l-13.43-51.05-14.39,25.75c-.58,1-1.34,1.94-2.27,2.82-1.04.91-2.3,1.56-3.79,1.95-1.39.36-2.71.4-3.95.09-1.35-.28-2.53-.72-3.53-1.3l-25.19-15.34Z"/>
        <path class="cls-14" d="M492.53,15.95l35.33,82.18c.65,1.21,1,2.64,1.05,4.28.03,1.33-.19,2.72-.66,4.17-.58,1.45-1.41,2.76-2.51,3.92-1.1,1.16-2.41,2.12-3.93,2.88-1.62.87-3.51,1.33-5.66,1.39-3.18.08-5.82-.67-7.91-2.25-2.1-1.59-3.58-3.39-4.46-5.42l-9.04-21.46c-.54-.81-1.17-1.2-1.89-1.19l-26,.71c-.31.01-.61.12-.91.34-.41.22-.71.53-.91.95l-8.02,21.92c-.77,2.08-2.16,3.96-4.16,5.65-2.01,1.7-4.6,2.59-7.77,2.68-2.05.06-3.91-.3-5.57-1.08-1.66-.67-3.02-1.56-4.08-2.66-1.16-1.1-2.02-2.35-2.57-3.78-.65-1.42-.99-2.79-1.03-4.12-.04-1.54.17-2.98.65-4.33l30.82-83.97c.95-2.59,2.74-4.9,5.36-6.91,2.51-1.92,5.57-2.93,9.16-3.02,3.58-.1,6.69.79,9.31,2.67,2.62,1.88,4.42,4.04,5.41,6.48ZM478.82,49.28c-.78,1.77-1.5,3.53-2.17,5.29-.67,1.86-1.33,3.73-2,5.6,0,.2-.09.41-.29.62l9.23-.25c0-.1-.11-.35-.33-.76-.23-.82-.57-1.68-1-2.59-.43-.91-.87-1.88-1.31-2.88-.33-.92-.66-1.79-.98-2.6-.43-.8-.81-1.61-1.14-2.42Z"/>
        <path class="cls-14" d="M576.95,122.85c-3.43-.62-6.88-1.45-10.34-2.49-3.46-1.04-6.77-2.36-9.92-3.98-3.27-1.52-6.26-3.42-8.98-5.68-2.72-2.26-4.99-4.96-6.83-8.11-1.6-2.69-2.15-5.45-1.64-8.27.23-1.32.78-2.63,1.65-3.92.76-1.33,1.81-2.5,3.14-3.51,1.23-1.03,2.73-1.8,4.48-2.32,1.64-.43,3.52-.46,5.64-.08,2.53.46,4.47,1.28,5.82,2.46,1.33,1.28,2.72,2.84,4.16,4.66.84,1.09,1.98,2.03,3.41,2.8,1.4.88,2.94,1.58,4.62,2.09,1.56.59,3.14,1.09,4.74,1.49,1.6.39,3.05.7,4.36.94,4.75.86,8.76.9,12.02.13,3.16-.78,5.03-2.79,5.62-6.02.24-1.31.22-2.36-.05-3.14-.36-.9-1.24-1.84-2.62-2.82-1.5-.89-3.11-1.81-4.82-2.74-1.73-.83-3.41-1.61-5.06-2.32-1.65-.71-2.91-1.2-3.8-1.47-4.24-1.91-8.46-3.98-12.65-6.19-4.18-2.21-7.83-4.85-10.93-7.91-3.12-2.95-5.45-6.5-6.99-10.64-1.57-4.04-1.84-8.89-.82-14.54.85-4.75,2.65-8.96,5.4-12.63,2.75-3.68,6.16-6.66,10.22-8.95,3.94-2.21,8.48-3.69,13.62-4.43,5.14-.74,10.48-.61,16.03.39,5.76,1.04,11.01,2.82,15.77,5.34,4.65,2.51,8.55,6.08,11.68,10.71,1.99,2.86,2.69,5.91,2.11,9.15-.24,1.31-.73,2.62-1.49,3.94-.86,1.31-1.9,2.43-3.11,3.35-1.32.91-2.79,1.58-4.43,2.02-1.76.51-3.7.58-5.82.19-3.23-.58-5.87-2.1-7.93-4.56-.87-.99-1.65-1.86-2.34-2.61-.72-.64-1.46-1.19-2.21-1.65-.85-.47-1.78-.84-2.77-1.12-.99-.28-2.19-.55-3.6-.81-4.04-.73-7.52-.52-10.43.61-2.92,1.15-4.64,3.18-5.17,6.12-.25,1.41-.22,2.41.09,2.98.56.94,1.54,1.84,2.94,2.72,1.29.96,2.79,1.86,4.52,2.69,1.63.82,3.27,1.53,4.93,2.14,1.54.7,2.8,1.24,3.78,1.62,4.26,1.81,8.48,3.82,12.66,6.04,4.19,2.22,7.84,4.85,10.93,7.91,3.1,3.06,5.43,6.61,7,10.65,1.44,4.12,1.66,8.95.67,14.51-.95,5.25-2.84,9.7-5.69,13.36-2.85,3.66-6.34,6.52-10.47,8.59-4.24,2.15-9.02,3.48-14.32,3.98-5.32.61-10.91.38-16.77-.67Z"/>
        <path class="cls-14" d="M671.74,33.97l61.17,23.61c2.01.78,3.64,1.8,4.92,3.06,1.15,1.32,2.04,2.71,2.69,4.17.64,1.46,1,2.97,1.06,4.53-.04,1.52-.31,2.91-.78,4.15-.48,1.24-1.22,2.44-2.21,3.6-1.04,1.25-2.24,2.22-3.6,2.9-1.46.64-3.08,1.01-4.87,1.09-1.83.18-3.75-.12-5.76-.9l-16.65-6.43c-.28-.11-.74-.07-1.37.13-.63.2-1.09.68-1.38,1.45l-25.27,65.47c-.48,1.24-1.22,2.44-2.22,3.6-1,1.15-2.18,2.07-3.54,2.75-1.5.75-3.14,1.16-4.92,1.24-1.83.17-3.74-.13-5.75-.91-2.01-.78-3.59-1.83-4.73-3.14-1.27-1.26-2.16-2.65-2.68-4.17-.61-1.56-.9-3.09-.85-4.61-.06-1.57.15-2.97.63-4.22l25.28-65.47c.3-.76.33-1.41.09-1.94-.34-.57-.69-.93-1.07-1.07l-16.65-6.43c-1.92-.74-3.51-1.74-4.78-3-1.31-1.17-2.29-2.49-2.94-3.94-.64-1.46-1-2.97-1.05-4.53-.1-1.47.13-2.92.69-4.35.48-1.24,1.27-2.43,2.37-3.55.99-1.15,2.24-2.09,3.74-2.83,1.46-.65,3.1-1.07,4.92-1.24,1.7-.11,3.55.22,5.55.99Z"/>
        <path class="cls-14" d="M726.57,176.73c-1.65-1.04-2.98-2.3-3.99-3.78-1.15-1.45-1.9-2.95-2.25-4.51-.44-1.61-.54-3.18-.29-4.73.16-1.6.65-3.05,1.47-4.36l45.2-71.74c.71-1.13,1.71-2.14,3-3.02,1.2-.94,2.6-1.63,4.21-2.08,1.56-.35,3.25-.43,5.08-.25,1.69.22,3.44.9,5.26,2.05l36.85,23.22c1.82,1.15,3.23,2.46,4.24,3.94.86,1.52,1.47,3.05,1.83,4.6.35,1.56.4,3.11.16,4.65-.33,1.49-.88,2.85-1.65,4.06-.71,1.13-1.67,2.16-2.87,3.1-1.2.94-2.53,1.62-4,2.02-1.56.36-3.22.4-4.99.13-1.83-.18-3.66-.85-5.48-1.99l-24.22-15.26c-.26-.16-.72-.21-1.37-.14-.65.08-1.19.47-1.63,1.16l-5.66,8.98c-.44.7-.53,1.31-.26,1.85.22.62.46,1.02.72,1.18l17.45,10.99c1.83,1.15,3.24,2.47,4.24,3.95.86,1.52,1.47,3.05,1.83,4.6.35,1.56.41,3.1.17,4.65-.34,1.49-.89,2.84-1.65,4.06-.71,1.13-1.66,2.17-2.86,3.11-1.29.88-2.67,1.52-4.14,1.93-1.61.44-3.26.56-4.95.34-1.83-.18-3.65-.84-5.47-1.98l-17.45-11c-.26-.16-.71-.2-1.37-.13-.65.07-1.2.45-1.64,1.15l-8.53,13.54c-.44.7-.53,1.31-.25,1.84.22.63.45,1.02.71,1.18l24.22,15.26c1.82,1.15,3.23,2.46,4.24,3.95.87,1.51,1.47,3.04,1.83,4.6.36,1.56.41,3.11.17,4.66-.33,1.49-.88,2.85-1.65,4.06-.71,1.13-1.67,2.16-2.87,3.11-1.2.94-2.53,1.62-3.99,2.02-1.62.44-3.31.52-5.08.25-1.83-.18-3.66-.84-5.48-1.99l-36.85-23.22Z"/>
        <path class="cls-14" d="M856.11,217.4c-.25.74-.52,1.88-.81,3.42-.23,1.46-.48,3.1-.76,4.93-.43,1.83-.81,3.77-1.16,5.82-.76,4.03-1.42,7.8-1.99,11.31-.65,3.44-1.06,5.64-1.23,6.59-.34,2.2-1.27,4.13-2.78,5.8-.9.98-2.02,1.83-3.37,2.55-1.49.72-3,1.15-4.52,1.29-1.59.08-3.19-.14-4.82-.65-1.77-.5-3.45-1.47-5.04-2.92-1.9-1.73-3.15-3.64-3.75-5.72-.68-2.15-.84-4.24-.49-6.29l7.44-40.1c.1-1.02-.12-1.78-.65-2.26-.08-.08-.26-.18-.55-.31-.37-.05-.8.18-1.28.71l-18.99,20.8c-.9.98-2.03,1.83-3.38,2.55-1.34.72-2.78,1.15-4.29,1.29-1.67.15-3.35-.07-5.04-.65-1.77-.5-3.45-1.48-5.04-2.93-1.59-1.45-2.68-3-3.26-4.64-.73-1.64-1.05-3.26-.98-4.86,0-1.66.29-3.2.87-4.61.51-1.47,1.22-2.7,2.12-3.68l57.09-62.49c.97-1.07,2.16-1.92,3.58-2.56,1.35-.71,2.86-1.15,4.52-1.3,1.59-.07,3.27.15,5.04.65,1.62.51,3.22,1.49,4.81,2.94l18.52,16.92c4.25,3.88,7.41,8.02,9.5,12.43,1.95,4.42,2.98,8.83,3.1,13.26.05,4.36-.67,8.56-2.16,12.62-1.63,4.07-3.86,7.66-6.69,10.76-4.78,5.23-9.89,8.47-15.36,9.74-5.53,1.34-11.61,1.21-18.22-.38ZM849.44,180.44c-.56.61-.78,1.24-.69,1.88.1.65.27,1.08.49,1.29l7.5,6.86c2.35,2.14,4.72,3.2,7.12,3.16,2.25-.03,4.37-1.15,6.38-3.34,2.01-2.19,2.96-4.45,2.86-6.77-.25-2.31-1.56-4.54-3.9-6.68l-7.5-6.85c-.23-.2-.67-.33-1.32-.38-.66-.04-1.26.24-1.81.85l-9.13,10Z"/>
        <path class="cls-14" d="M872.53,305.98c-2.08-2.8-4.02-5.77-5.84-8.9-1.81-3.13-3.32-6.35-4.51-9.68-1.34-3.36-2.22-6.79-2.66-10.3-.44-3.5-.25-7.03.57-10.58.67-3.06,2.17-5.44,4.47-7.15,1.07-.79,2.37-1.37,3.89-1.74,1.46-.44,3.02-.58,4.68-.41,1.6.09,3.21.55,4.85,1.38,1.5.81,2.89,2.08,4.17,3.81,1.53,2.06,2.39,3.98,2.56,5.77.1,1.85.05,3.93-.15,6.25-.13,1.38.05,2.83.57,4.37.42,1.6,1.07,3.17,1.95,4.7.73,1.5,1.54,2.94,2.43,4.32.9,1.38,1.74,2.61,2.54,3.68,2.87,3.87,5.76,6.64,8.67,8.31,2.85,1.59,5.59,1.41,8.22-.54,1.07-.8,1.77-1.58,2.1-2.33.35-.9.36-2.18.02-3.84-.48-1.69-1.03-3.46-1.64-5.31-.69-1.79-1.39-3.51-2.1-5.15-.71-1.64-1.3-2.86-1.77-3.66-1.79-4.3-3.45-8.69-4.98-13.17-1.54-4.48-2.4-8.89-2.56-13.25-.24-4.29.48-8.47,2.19-12.54,1.62-4.01,4.74-7.73,9.35-11.16,3.87-2.87,8.07-4.71,12.58-5.51,4.52-.8,9.05-.64,13.58.47,4.38,1.09,8.7,3.11,12.96,6.08,4.25,2.98,8.06,6.73,11.43,11.26,3.48,4.7,6.1,9.6,7.84,14.69,1.68,5.02,2.07,10.29,1.18,15.8-.51,3.44-2.08,6.14-4.72,8.1-1.07.79-2.33,1.41-3.79,1.86-1.52.36-3.04.47-4.56.32-1.58-.24-3.12-.76-4.61-1.57-1.64-.83-3.1-2.11-4.38-3.84-1.96-2.64-2.85-5.55-2.66-8.75.04-1.31.07-2.48.07-3.5-.08-.97-.23-1.87-.47-2.71-.31-.92-.73-1.83-1.25-2.72-.53-.88-1.23-1.9-2.08-3.05-2.45-3.29-5.12-5.52-8.03-6.69-2.91-1.16-5.57-.85-7.95.92-1.15.86-1.81,1.6-1.97,2.24-.24,1.07-.14,2.4.29,4,.28,1.59.76,3.27,1.45,5.06.63,1.71,1.34,3.36,2.14,4.94.65,1.56,1.2,2.81,1.64,3.76,1.87,4.24,3.57,8.6,5.11,13.08,1.54,4.48,2.38,8.9,2.55,13.24.16,4.35-.57,8.54-2.19,12.55-1.76,3.99-4.91,7.67-9.45,11.04-4.28,3.18-8.71,5.13-13.29,5.84-4.58.71-9.08.41-13.51-.9-4.57-1.33-8.95-3.63-13.16-6.89-4.3-3.2-8.22-7.19-11.76-11.96Z"/>
        <path class="cls-4" d="M45.73,273.69l41.68,32.39c1.05.82,1.99,1.87,2.81,3.16.82,1.28,1.36,2.68,1.63,4.18.28,1.65.2,3.34-.25,5.08-.36,1.8-1.2,3.55-2.52,5.25-1.32,1.7-2.78,2.91-4.37,3.62-1.57.85-3.15,1.31-4.76,1.36-1.67.13-3.22-.04-4.67-.51-1.51-.4-2.8-1.01-3.85-1.83L4.47,274.38c-1.05-.82-1.96-1.91-2.71-3.28-.82-1.29-1.37-2.76-1.65-4.4-.2-1.59-.12-3.28.24-5.08.38-1.65,1.23-3.33,2.54-5.03,2.52-3.24,5.56-4.98,9.11-5.21l44.27-3.81-6.55-44.25c-.2-1.58-.05-3.28.46-5.1.44-1.74,1.26-3.37,2.46-4.92,1.32-1.7,2.77-2.98,4.34-3.83,1.51-.78,3.06-1.27,4.64-1.47,1.67-.14,3.22-.04,4.65.29,1.45.48,2.74,1.16,3.87,2.04l66.96,52.03c1.06.82,2,1.87,2.82,3.15.75,1.37,1.26,2.81,1.53,4.31.28,1.64.23,3.29-.15,4.95-.36,1.8-1.2,3.55-2.52,5.25-1.32,1.7-2.78,2.91-4.38,3.63-1.57.86-3.16,1.31-4.75,1.36-1.67.14-3.23-.03-4.68-.51-1.52-.39-2.8-.99-3.85-1.81l-41.68-32.39,4.21,29.19c.15,1.15.12,2.36-.09,3.64-.28,1.35-.88,2.63-1.83,3.84-.88,1.14-1.92,1.96-3.09,2.48-1.24.59-2.44.96-3.59,1.11l-29.33,3.13Z"/>
        <path class="cls-54" d="M149.26,233.59l-57.39-62.43c-.9-.98-1.61-2.21-2.13-3.69-.59-1.4-.89-2.94-.9-4.61.07-1.59.43-3.25,1.08-4.96.65-1.57,1.77-3.09,3.35-4.54,1.59-1.45,3.23-2.48,4.92-3.06,1.68-.44,3.32-.62,4.92-.55,1.6.07,3.11.42,4.53,1.07,1.35.71,2.51,1.59,3.48,2.65l57.28,62.31c.9.98,1.65,2.18,2.24,3.59.59,1.4.9,2.86.91,4.39,0,1.67-.36,3.32-1.08,4.96-.66,1.72-1.78,3.3-3.36,4.76-1.51,1.39-3.11,2.38-4.81,2.96-1.69.58-3.34.84-4.93.76-1.6-.07-3.1-.42-4.53-1.05-1.43-.64-2.63-1.49-3.6-2.55Z"/>
        <path class="cls-57" d="M172.04,148.15l27.82,42.12c.73,1.12,1.28,2.42,1.65,3.9.36,1.48.43,2.98.2,4.48-.26,1.65-.88,3.22-1.86,4.73-.92,1.59-2.28,2.98-4.08,4.16-1.79,1.19-3.56,1.87-5.3,2.03-1.76.3-3.41.22-4.94-.24-1.62-.41-3.04-1.07-4.26-1.98-1.31-.86-2.33-1.85-3.06-2.96l-46.65-70.62c-.79-1.2-1.33-2.57-1.61-4.1-.36-1.48-.41-3.05-.15-4.7.32-1.56.94-3.14,1.85-4.72.89-1.44,2.23-2.76,4.03-3.94,1.8-1.19,3.65-1.93,5.56-2.2,1.96-.19,3.76-.08,5.38.33l73.2,20.62-27.31-41.35c-.74-1.11-1.24-2.44-1.52-3.98-.36-1.47-.42-3.03-.15-4.68.31-1.57.93-3.15,1.86-4.74.88-1.45,2.23-2.76,4.03-3.95,1.8-1.19,3.58-1.94,5.34-2.24,1.73-.16,3.38-.08,4.95.24,1.56.32,3,.9,4.3,1.76,1.22.92,2.19,1.94,2.93,3.05l46.74,70.75c.73,1.12,1.28,2.41,1.65,3.89.28,1.54.3,3.06.06,4.57-.26,1.65-.84,3.19-1.73,4.64-.92,1.59-2.27,2.98-4.07,4.16-1.8,1.19-3.68,1.88-5.64,2.07-1.91.27-3.7.16-5.38-.33l-73.84-20.76Z"/>
        <path class="cls-46" d="M275.22,145.31l-34.91-77.28c-.55-1.21-.84-2.6-.87-4.16-.12-1.52.08-3.08.6-4.67.57-1.49,1.42-2.94,2.58-4.37,1.11-1.29,2.65-2.37,4.61-3.26,1.96-.88,3.84-1.34,5.64-1.36,1.74.12,3.36.45,4.85,1.01,1.5.57,2.82,1.38,3.96,2.44,1.06,1.09,1.89,2.3,2.48,3.6l34.85,77.14c.55,1.21.88,2.58,1.01,4.1.13,1.52-.05,3-.52,4.45-.52,1.59-1.38,3.05-2.58,4.38-1.16,1.43-2.73,2.58-4.69,3.47-1.87.84-3.7,1.28-5.49,1.29-1.79.03-3.43-.24-4.93-.81-1.49-.56-2.81-1.37-3.96-2.42-1.16-1.06-2.03-2.24-2.62-3.54Z"/>
        <path class="cls-72" d="M323.12,69.03l13.43,51.05c.34,1.29.45,2.69.31,4.22-.13,1.52-.55,2.95-1.25,4.3-.78,1.48-1.87,2.78-3.27,3.89-1.38,1.21-3.11,2.09-5.2,2.63-2.08.55-3.97.63-5.68.23-1.77-.27-3.3-.88-4.61-1.81-1.41-.91-2.54-1.99-3.4-3.24-.96-1.24-1.6-2.5-1.95-3.79l-21.57-82.01c-.34-1.29-.4-2.7-.17-4.25.13-1.52.59-3.02,1.37-4.5.8-1.38,1.9-2.68,3.27-3.89,1.31-1.08,3-1.89,5.08-2.44,3.97-1.04,7.44-.58,10.4,1.4l37.47,23.88,21.69-39.13c.8-1.37,1.96-2.63,3.46-3.77,1.41-1.11,3.05-1.92,4.94-2.42,2.08-.55,4.01-.69,5.77-.41,1.67.31,3.2.86,4.58,1.67,1.4.9,2.57,1.92,3.51,3.05.86,1.26,1.47,2.58,1.84,3.97l21.58,82.01c.34,1.29.45,2.7.31,4.22-.23,1.55-.7,3-1.4,4.35-.78,1.48-1.82,2.76-3.14,3.84-1.37,1.21-3.1,2.09-5.18,2.64-2.08.55-3.98.62-5.68.22-1.77-.27-3.3-.88-4.61-1.81-1.41-.91-2.54-1.99-3.4-3.25-.96-1.23-1.62-2.49-1.96-3.78l-13.43-51.05-14.39,25.75c-.58,1-1.34,1.94-2.27,2.82-1.04.91-2.3,1.56-3.79,1.95-1.39.36-2.71.4-3.95.09-1.35-.28-2.53-.72-3.53-1.3l-25.19-15.34Z"/>
        <path class="cls-75" d="M485.73,9.15l35.33,82.18c.65,1.21,1,2.64,1.05,4.28.04,1.33-.18,2.72-.66,4.17-.58,1.45-1.42,2.76-2.51,3.92-1.1,1.16-2.41,2.11-3.93,2.88-1.62.87-3.51,1.33-5.66,1.39-3.18.08-5.82-.67-7.91-2.25-2.1-1.59-3.58-3.39-4.46-5.42l-9.05-21.46c-.54-.81-1.16-1.2-1.88-1.19l-26,.71c-.31,0-.61.12-.91.34-.41.22-.71.53-.91.95l-8.02,21.92c-.77,2.08-2.16,3.96-4.16,5.65-2.01,1.7-4.6,2.59-7.77,2.68-2.05.06-3.91-.3-5.57-1.08-1.66-.67-3.02-1.56-4.08-2.66-1.16-1.1-2.02-2.35-2.57-3.78-.65-1.42-.99-2.79-1.03-4.12-.05-1.54.17-2.98.65-4.33l30.82-83.97c.95-2.59,2.74-4.9,5.36-6.92,2.51-1.92,5.57-2.93,9.16-3.02,3.59-.1,6.69.79,9.31,2.67,2.62,1.88,4.42,4.04,5.41,6.48ZM472.02,42.48c-.78,1.77-1.5,3.53-2.17,5.29-.67,1.86-1.33,3.73-2,5.6,0,.2-.09.41-.29.62l9.23-.25c0-.1-.11-.35-.33-.76-.23-.82-.56-1.68-1-2.59-.43-.91-.87-1.88-1.31-2.88-.33-.92-.66-1.79-.99-2.6-.43-.8-.81-1.61-1.14-2.42Z"/>
        <path class="cls-31" d="M570.15,116.05c-3.43-.62-6.88-1.45-10.34-2.49-3.46-1.04-6.77-2.37-9.92-3.98-3.27-1.52-6.26-3.42-8.98-5.68-2.72-2.26-4.99-4.96-6.83-8.11-1.6-2.69-2.15-5.45-1.64-8.27.23-1.32.78-2.63,1.65-3.92.76-1.33,1.81-2.5,3.14-3.51,1.23-1.03,2.73-1.8,4.48-2.32,1.64-.43,3.52-.46,5.64-.08,2.53.46,4.47,1.28,5.82,2.46,1.33,1.28,2.72,2.84,4.16,4.66.84,1.09,1.98,2.03,3.41,2.8,1.4.88,2.94,1.58,4.62,2.09,1.56.59,3.14,1.09,4.74,1.49,1.6.39,3.05.7,4.36.94,4.75.86,8.76.9,12.02.13,3.16-.78,5.03-2.79,5.62-6.02.24-1.31.22-2.36-.05-3.14-.37-.9-1.24-1.84-2.63-2.82-1.5-.89-3.11-1.81-4.82-2.74-1.73-.83-3.41-1.61-5.06-2.32-1.64-.71-2.91-1.2-3.8-1.47-4.24-1.91-8.46-3.98-12.65-6.19-4.18-2.21-7.83-4.85-10.93-7.91-3.12-2.95-5.45-6.5-6.99-10.64-1.57-4.04-1.84-8.89-.82-14.54.85-4.75,2.65-8.96,5.4-12.63,2.75-3.68,6.16-6.66,10.22-8.95,3.94-2.21,8.48-3.69,13.62-4.43,5.14-.74,10.48-.61,16.03.39,5.76,1.04,11.01,2.82,15.77,5.34,4.65,2.51,8.55,6.08,11.68,10.71,1.99,2.86,2.69,5.91,2.11,9.15-.24,1.31-.73,2.62-1.49,3.94-.86,1.31-1.9,2.43-3.11,3.35-1.32.91-2.79,1.58-4.43,2.02-1.76.51-3.7.58-5.82.19-3.23-.58-5.88-2.1-7.93-4.56-.87-.99-1.65-1.86-2.34-2.61-.73-.64-1.46-1.19-2.21-1.65-.85-.47-1.78-.84-2.77-1.12-.99-.28-2.19-.55-3.6-.81-4.04-.73-7.51-.52-10.43.61-2.92,1.15-4.64,3.18-5.17,6.12-.25,1.41-.22,2.41.09,2.98.56.94,1.54,1.84,2.94,2.72,1.29.96,2.8,1.86,4.52,2.69,1.63.82,3.27,1.53,4.93,2.14,1.54.7,2.8,1.24,3.78,1.62,4.26,1.81,8.48,3.82,12.66,6.04,4.19,2.22,7.84,4.85,10.93,7.91,3.1,3.06,5.43,6.61,7,10.65,1.44,4.12,1.66,8.95.67,14.51-.95,5.25-2.84,9.7-5.69,13.36-2.85,3.66-6.34,6.52-10.47,8.59-4.24,2.15-9.02,3.48-14.32,3.98-5.32.61-10.91.38-16.77-.67Z"/>
        <path class="cls-49" d="M664.93,27.17l61.17,23.61c2.01.78,3.64,1.8,4.92,3.06,1.15,1.32,2.04,2.71,2.69,4.17.64,1.46,1,2.97,1.06,4.53-.05,1.52-.31,2.91-.79,4.15-.48,1.24-1.22,2.44-2.21,3.6-1.04,1.25-2.24,2.22-3.6,2.9-1.46.64-3.08,1.01-4.87,1.09-1.83.18-3.75-.12-5.76-.9l-16.66-6.43c-.28-.11-.74-.07-1.37.13-.63.2-1.09.68-1.38,1.45l-25.28,65.47c-.48,1.24-1.22,2.44-2.22,3.6-1,1.15-2.18,2.07-3.54,2.75-1.5.75-3.14,1.16-4.92,1.24-1.83.17-3.74-.13-5.76-.91-2.01-.78-3.58-1.83-4.73-3.14-1.27-1.26-2.16-2.65-2.68-4.17-.61-1.56-.9-3.09-.85-4.61-.06-1.57.15-2.97.63-4.22l25.27-65.47c.3-.76.33-1.41.09-1.94-.34-.57-.7-.93-1.07-1.07l-16.65-6.43c-1.92-.74-3.51-1.74-4.78-3-1.31-1.17-2.29-2.49-2.94-3.94-.64-1.46-1-2.97-1.05-4.53-.1-1.47.13-2.92.69-4.35.48-1.24,1.27-2.43,2.37-3.55,1-1.15,2.24-2.09,3.74-2.83,1.46-.65,3.1-1.07,4.92-1.24,1.69-.11,3.55.22,5.55.99Z"/>
        <path class="cls-23" d="M719.76,169.92c-1.65-1.04-2.98-2.3-3.98-3.78-1.15-1.45-1.9-2.95-2.25-4.51-.44-1.61-.54-3.18-.29-4.73.16-1.6.65-3.05,1.47-4.36l45.2-71.74c.71-1.13,1.71-2.14,3-3.02,1.19-.94,2.6-1.63,4.21-2.08,1.56-.35,3.25-.43,5.08-.25,1.69.22,3.44.9,5.26,2.05l36.85,23.22c1.82,1.15,3.23,2.46,4.24,3.94.86,1.52,1.47,3.05,1.83,4.6.35,1.56.4,3.11.16,4.65-.33,1.49-.88,2.85-1.65,4.06-.71,1.13-1.67,2.16-2.87,3.1-1.2.94-2.53,1.62-4,2.02-1.56.36-3.22.4-4.99.13-1.83-.18-3.66-.85-5.48-1.99l-24.22-15.26c-.26-.16-.72-.21-1.37-.14-.65.08-1.19.47-1.63,1.16l-5.66,8.98c-.44.7-.53,1.31-.26,1.85.22.62.46,1.02.72,1.18l17.45,10.99c1.83,1.15,3.24,2.47,4.24,3.95.86,1.52,1.47,3.05,1.83,4.6.35,1.56.41,3.1.17,4.65-.34,1.49-.89,2.84-1.65,4.06-.71,1.13-1.67,2.17-2.86,3.11-1.29.88-2.67,1.52-4.14,1.93-1.61.44-3.26.56-4.95.34-1.83-.18-3.65-.84-5.47-1.99l-17.45-11c-.26-.16-.71-.2-1.37-.13-.65.07-1.2.45-1.64,1.15l-8.53,13.54c-.44.7-.52,1.31-.25,1.85.22.63.45,1.02.71,1.18l24.22,15.26c1.82,1.14,3.23,2.46,4.24,3.95.87,1.51,1.47,3.04,1.83,4.6.36,1.56.42,3.11.17,4.66-.33,1.49-.88,2.84-1.65,4.06-.71,1.13-1.67,2.16-2.87,3.11-1.2.94-2.53,1.61-3.99,2.02-1.62.43-3.31.52-5.08.25-1.83-.18-3.66-.84-5.48-1.99l-36.85-23.22Z"/>
        <path class="cls-11" d="M849.31,210.59c-.25.74-.52,1.88-.81,3.42-.23,1.46-.49,3.1-.76,4.93-.43,1.83-.81,3.77-1.16,5.82-.76,4.03-1.42,7.8-1.99,11.31-.65,3.44-1.06,5.64-1.23,6.59-.34,2.2-1.27,4.13-2.78,5.8-.9.98-2.02,1.83-3.37,2.55-1.49.72-3,1.15-4.52,1.29-1.59.07-3.19-.14-4.81-.65-1.77-.5-3.45-1.47-5.04-2.92-1.9-1.73-3.15-3.64-3.75-5.72-.68-2.14-.84-4.24-.49-6.29l7.44-40.1c.1-1.03-.12-1.78-.65-2.26-.08-.08-.26-.18-.55-.31-.37-.05-.8.19-1.28.71l-18.99,20.8c-.9.98-2.02,1.83-3.38,2.55-1.34.72-2.78,1.15-4.29,1.29-1.67.15-3.35-.07-5.04-.65-1.77-.5-3.45-1.48-5.04-2.93-1.59-1.45-2.67-3-3.26-4.64-.73-1.64-1.06-3.26-.98-4.86,0-1.67.29-3.2.87-4.61.51-1.48,1.22-2.7,2.12-3.68l57.09-62.49c.97-1.07,2.16-1.92,3.58-2.56,1.35-.71,2.86-1.15,4.52-1.3,1.59-.07,3.27.15,5.04.65,1.61.51,3.22,1.49,4.81,2.94l18.52,16.92c4.25,3.87,7.41,8.01,9.5,12.43,1.95,4.41,2.98,8.83,3.1,13.26.05,4.36-.67,8.56-2.16,12.62-1.63,4.07-3.86,7.65-6.7,10.76-4.78,5.23-9.89,8.47-15.36,9.74-5.53,1.34-11.61,1.21-18.22-.38ZM842.64,173.64c-.56.61-.78,1.24-.69,1.89.1.65.27,1.08.49,1.29l7.5,6.85c2.35,2.15,4.72,3.2,7.12,3.16,2.25-.03,4.37-1.15,6.38-3.34,2.01-2.19,2.96-4.45,2.86-6.77-.25-2.31-1.56-4.54-3.9-6.68l-7.5-6.86c-.23-.2-.67-.33-1.32-.38-.66-.03-1.26.25-1.81.85l-9.13,10Z"/>
        <path class="cls-33" d="M865.73,299.18c-2.08-2.8-4.02-5.77-5.84-8.9-1.81-3.13-3.32-6.35-4.51-9.68-1.34-3.35-2.22-6.79-2.66-10.3-.44-3.5-.25-7.03.57-10.58.67-3.06,2.17-5.44,4.47-7.15,1.07-.8,2.37-1.38,3.89-1.74,1.46-.44,3.02-.58,4.68-.41,1.6.09,3.21.55,4.85,1.38,1.5.81,2.89,2.08,4.17,3.8,1.53,2.06,2.38,3.99,2.56,5.77.1,1.85.05,3.93-.15,6.25-.13,1.38.05,2.83.57,4.37.42,1.6,1.07,3.17,1.95,4.7.73,1.5,1.54,2.94,2.43,4.32.9,1.38,1.74,2.61,2.54,3.68,2.87,3.87,5.76,6.64,8.67,8.31,2.85,1.59,5.59,1.41,8.22-.54,1.07-.8,1.78-1.58,2.11-2.33.35-.9.36-2.18.02-3.84-.48-1.69-1.03-3.46-1.64-5.31-.69-1.79-1.39-3.51-2.1-5.15-.71-1.64-1.3-2.86-1.77-3.66-1.79-4.3-3.45-8.69-4.98-13.17-1.54-4.48-2.4-8.89-2.56-13.25-.24-4.29.48-8.47,2.19-12.54,1.62-4.01,4.74-7.73,9.35-11.16,3.87-2.87,8.07-4.71,12.58-5.51,4.52-.8,9.05-.64,13.58.47,4.38,1.08,8.7,3.11,12.96,6.08,4.25,2.98,8.06,6.73,11.42,11.26,3.49,4.7,6.1,9.6,7.84,14.69,1.68,5.02,2.07,10.29,1.19,15.8-.51,3.44-2.08,6.14-4.72,8.1-1.07.79-2.33,1.41-3.79,1.86-1.52.36-3.04.47-4.56.32-1.58-.24-3.12-.76-4.61-1.57-1.64-.83-3.1-2.11-4.38-3.84-1.96-2.63-2.85-5.55-2.66-8.75.04-1.31.07-2.48.07-3.5-.08-.97-.23-1.87-.47-2.71-.31-.92-.73-1.83-1.25-2.72-.53-.88-1.23-1.9-2.08-3.05-2.45-3.29-5.12-5.53-8.03-6.69-2.91-1.16-5.57-.85-7.95.92-1.15.86-1.81,1.6-1.97,2.24-.24,1.07-.14,2.4.29,4,.28,1.58.76,3.27,1.45,5.06.63,1.71,1.34,3.36,2.14,4.94.65,1.56,1.2,2.81,1.64,3.76,1.87,4.24,3.57,8.6,5.11,13.08,1.54,4.48,2.39,8.9,2.55,13.24.16,4.35-.57,8.54-2.19,12.55-1.76,3.99-4.91,7.67-9.45,11.04-4.28,3.18-8.71,5.13-13.29,5.84-4.58.71-9.08.41-13.51-.9-4.57-1.33-8.95-3.63-13.16-6.89-4.3-3.2-8.22-7.19-11.76-11.96Z"/>
      </g>
    </g>
  </g>
</svg>