<?xml version="1.0" encoding="UTF-8"?>
<svg id="Layer_1" data-name="Layer 1" xmlns="http://www.w3.org/2000/svg" xmlns:xlink="http://www.w3.org/1999/xlink" viewBox="0 0 229.78 52.97">
  <defs>
    <style>
      .cls-1 {
        fill: rgba(241, 242, 242, .4);
        opacity: .4;
      }

      .cls-2 {
        fill: #e50009;
      }

      .cls-3 {
        fill: #fdf9ef;
      }

      .cls-4 {
        mask: url(#mask-1);
      }

      .cls-5 {
        fill: #803684;
      }

      .cls-6 {
        fill: #fff;
      }

      .cls-7 {
        mask: url(#mask);
      }

      .cls-8 {
        fill: #085ba6;
      }

      .cls-9 {
        fill: #1c9c9a;
      }

      .cls-10 {
        fill: #b80282;
      }

      .cls-11 {
        fill: #f3b13f;
      }

      .cls-12 {
        fill: #0289cf;
      }

      .cls-13 {
        fill: #e85706;
      }

      .cls-14 {
        fill: #ed9305;
      }

      .cls-15 {
        fill: #94bf28;
      }

      .cls-16 {
        fill: #2da969;
      }
    </style>
    <mask id="mask" x="-2.58" y="-6.34" width="233.58" height="36.93" maskUnits="userSpaceOnUse">
      <g id="mask0_1365_364" data-name="mask0 1365 364">
        <path class="cls-6" d="M231-6.34H-2.58V30.59h233.58V-6.34Z"/>
      </g>
    </mask>
    <mask id="mask-1" x="33.36" y="34.44" width="161.71" height="19.27" maskUnits="userSpaceOnUse">
      <g id="mask1_1365_364" data-name="mask1 1365 364">
        <path class="cls-6" d="M195.07,34.44H33.36v19.27h161.71v-19.27Z"/>
      </g>
    </mask>
  </defs>
  <g class="cls-7">
    <g>
      <path class="cls-1" d="M7.02,11.06v11.35c0,.29-.06.59-.17.89-.11.31-.28.59-.5.83-.24.26-.54.47-.89.63-.35.18-.76.27-1.22.27s-.86-.09-1.19-.27c-.35-.15-.64-.36-.86-.63-.24-.26-.42-.55-.53-.86-.13-.31-.2-.61-.2-.89V4.14c0-.29.07-.58.2-.89.11-.31.29-.6.53-.86.24-.24.54-.45.89-.63.33-.15.73-.23,1.19-.23.88,0,1.57.29,2.08.86l6.48,7.02,6.64-6.95c.24-.24.55-.44.93-.59.35-.15.74-.23,1.16-.23.46,0,.87.08,1.22.23.33.15.62.35.86.59.24.27.43.54.56.83.11.31.17.62.17.93v18.24c0,.29-.06.59-.17.89-.13.31-.31.58-.53.83-.24.26-.53.47-.86.63-.35.18-.76.27-1.22.27s-.86-.09-1.19-.27c-.35-.15-.64-.36-.86-.63-.24-.26-.42-.55-.53-.86-.13-.31-.2-.6-.2-.89v-11.35l-4.4,4.57c-.17.18-.38.33-.63.47-.26.13-.56.2-.89.2-.31,0-.58-.07-.83-.2-.26-.13-.49-.29-.66-.47l-4.4-4.57Z"/>
      <path class="cls-1" d="M28.98,22.38V4.14c0-.29.07-.58.2-.89.11-.31.29-.6.53-.86.24-.24.54-.45.89-.63.33-.15.73-.23,1.19-.23s.87.08,1.22.23c.33.18.62.39.86.63.24.24.43.52.57.83.11.31.17.62.17.93v18.2c0,.29-.06.59-.17.89-.11.31-.28.58-.5.83-.24.26-.54.47-.89.63-.35.18-.76.27-1.22.27s-.84-.08-1.19-.23c-.35-.15-.65-.35-.89-.6-.24-.24-.43-.52-.56-.83-.13-.31-.2-.61-.2-.92Z"/>
      <path class="cls-1" d="M44.68,11.52v10.86c0,.28-.06.58-.17.89-.11.31-.28.58-.5.83-.24.26-.54.47-.89.63-.35.18-.76.27-1.22.27s-.86-.09-1.19-.27c-.35-.15-.64-.36-.86-.63-.24-.27-.42-.55-.53-.86-.13-.31-.2-.6-.2-.89V4.14c0-.31.07-.62.2-.93.11-.31.29-.59.53-.86.24-.24.54-.45.89-.63.33-.15.73-.23,1.19-.23s.88.09,1.25.27c.37.2.68.43.93.69l10.68,12.38V4.17c0-.28.07-.58.2-.89.11-.31.29-.59.53-.86.24-.24.54-.45.89-.63.33-.15.73-.23,1.19-.23s.87.08,1.22.23c.33.18.62.39.86.63.24.24.43.52.56.83.11.31.17.61.17.89v18.24c0,.28-.05.58-.17.89-.13.31-.31.58-.53.83-.24.26-.53.47-.86.63-.35.18-.76.27-1.22.27s-.88-.1-1.25-.3c-.37-.18-.68-.41-.93-.69l-10.78-12.48Z"/>
      <path class="cls-1" d="M64.95,22.38V4.14c0-.29.07-.58.2-.89.11-.31.29-.6.53-.86.24-.24.54-.45.89-.63.33-.15.73-.23,1.19-.23s.87.08,1.22.23c.33.18.62.39.86.63.24.24.43.52.57.83.11.31.17.62.17.93v18.2c0,.29-.06.59-.17.89-.11.31-.28.58-.5.83-.24.26-.54.47-.89.63-.35.18-.76.27-1.22.27s-.84-.08-1.19-.23c-.35-.15-.65-.35-.89-.6-.24-.24-.43-.52-.56-.83-.13-.31-.2-.61-.2-.92Z"/>
      <path class="cls-1" d="M80.66,11.06v11.35c0,.29-.06.59-.17.89-.11.31-.28.59-.5.83-.24.26-.54.47-.89.63-.35.18-.76.27-1.22.27s-.86-.09-1.19-.27c-.35-.15-.64-.36-.86-.63-.24-.26-.42-.55-.53-.86-.13-.31-.2-.61-.2-.89V4.14c0-.29.07-.58.2-.89.11-.31.29-.6.53-.86.24-.24.54-.45.89-.63.33-.15.73-.23,1.19-.23.88,0,1.57.29,2.08.86l6.48,7.02,6.64-6.95c.24-.24.55-.44.93-.59.35-.15.74-.23,1.16-.23.46,0,.87.08,1.22.23.33.15.62.35.86.59.24.27.43.54.56.83.11.31.17.62.17.93v18.24c0,.29-.06.59-.17.89-.13.31-.31.58-.53.83-.24.26-.53.47-.86.63-.35.18-.76.27-1.22.27s-.86-.09-1.19-.27c-.35-.15-.64-.36-.86-.63-.24-.26-.42-.55-.53-.86-.13-.31-.2-.6-.2-.89v-11.35l-4.4,4.57c-.17.18-.38.33-.63.47-.26.13-.56.2-.89.2-.31,0-.58-.07-.83-.2-.26-.13-.49-.29-.66-.47l-4.4-4.57Z"/>
      <path class="cls-1" d="M115.75,3.55l7.11,17.87c.13.26.2.57.2.93,0,.29-.06.59-.17.89-.13.31-.32.58-.56.83-.24.24-.53.44-.86.6-.35.17-.76.26-1.23.26-.68,0-1.24-.18-1.68-.53-.44-.35-.75-.75-.93-1.19l-1.81-4.66c-.11-.18-.24-.27-.4-.27h-5.59c-.07,0-.13.02-.2.07-.09.04-.16.11-.2.2l-1.85,4.66c-.18.44-.49.84-.93,1.19-.44.35-1,.53-1.68.53-.44,0-.84-.09-1.19-.26-.35-.16-.64-.36-.86-.6-.24-.24-.42-.52-.53-.83-.13-.31-.2-.6-.2-.89,0-.33.06-.64.17-.93l7.11-17.87c.22-.55.61-1.04,1.19-1.46.55-.4,1.21-.6,1.99-.6s1.43.21,1.98.63c.55.42.93.9,1.13,1.43ZM112.61,10.63c-.18.38-.34.75-.5,1.13-.15.4-.31.79-.46,1.19,0,.04-.02.09-.06.13h1.98s-.02-.08-.07-.17c-.04-.17-.11-.36-.19-.56-.09-.2-.18-.41-.27-.63-.07-.2-.13-.38-.2-.56-.09-.18-.16-.35-.23-.53Z"/>
      <path class="cls-1" d="M135.72,24.89c-.75,0-1.51-.05-2.28-.14-.77-.09-1.52-.24-2.25-.46-.75-.2-1.45-.48-2.12-.86-.66-.37-1.25-.86-1.75-1.46-.44-.5-.66-1.07-.66-1.69,0-.29.07-.58.2-.89.11-.31.29-.59.53-.86.22-.27.5-.49.86-.66.33-.15.73-.23,1.19-.23.55,0,.99.1,1.32.3.33.22.68.5,1.06.83.22.2.5.35.83.46.33.13.68.22,1.06.27.35.07.71.11,1.06.13.35.02.67.04.96.04,1.04,0,1.89-.14,2.55-.43.64-.29.96-.78.96-1.49,0-.28-.04-.5-.14-.66-.11-.17-.33-.34-.66-.5-.35-.13-.73-.26-1.12-.4-.4-.11-.78-.21-1.16-.3-.38-.09-.66-.14-.86-.17-.97-.24-1.94-.52-2.91-.83-.97-.31-1.84-.73-2.61-1.25-.77-.51-1.4-1.17-1.88-1.99-.49-.8-.73-1.81-.73-3.05,0-1.04.22-2,.66-2.88.44-.88,1.05-1.64,1.82-2.28.75-.61,1.65-1.1,2.71-1.46,1.06-.35,2.19-.53,3.4-.53s2.44.18,3.54.53c1.08.36,2.04.96,2.87,1.82.53.53.8,1.15.8,1.85,0,.29-.06.59-.17.89-.13.31-.31.59-.53.83-.24.24-.53.44-.86.6-.35.18-.76.27-1.22.27-.71,0-1.32-.22-1.85-.66-.22-.18-.42-.33-.59-.47-.18-.11-.35-.2-.53-.26-.2-.07-.41-.11-.63-.14-.22-.02-.49-.03-.79-.03-.88,0-1.61.18-2.19.53-.57.36-.86.85-.86,1.49,0,.31.04.52.13.63.15.18.4.33.73.46.31.16.66.29,1.06.4.38.11.75.2,1.13.26.35.09.64.16.86.2.97.22,1.94.49,2.91.79.97.31,1.84.73,2.61,1.26.77.53,1.4,1.19,1.88,1.99.46.82.7,1.83.7,3.04,0,1.15-.23,2.16-.7,3.05-.46.88-1.09,1.62-1.88,2.22-.82.62-1.77,1.08-2.87,1.39-1.1.33-2.29.5-3.57.5Z"/>
      <path class="cls-1" d="M150.11,1.56h14.08c.46,0,.87.08,1.22.23.33.18.62.39.86.63.24.24.43.52.56.83.11.31.17.61.17.89s-.06.58-.17.89c-.11.33-.28.62-.5.86-.24.24-.54.44-.89.6-.35.18-.76.27-1.22.27h-3.84c-.07,0-.16.04-.27.13-.11.09-.17.22-.17.4v15.09c0,.28-.06.58-.17.89-.11.31-.28.58-.5.83-.24.26-.54.47-.89.63-.35.18-.76.27-1.22.27s-.86-.09-1.19-.27c-.35-.15-.64-.36-.86-.63-.24-.27-.42-.55-.53-.86-.13-.31-.2-.6-.2-.89V7.25c0-.18-.04-.31-.13-.4-.11-.09-.21-.14-.3-.14h-3.84c-.44,0-.84-.08-1.19-.23-.35-.13-.65-.32-.89-.56-.24-.24-.43-.52-.56-.83-.13-.29-.2-.6-.2-.93,0-.28.07-.58.2-.89.11-.31.29-.59.53-.86.24-.24.54-.45.89-.63.33-.15.73-.23,1.19-.23Z"/>
      <path class="cls-1" d="M174.39,24.96c-.42,0-.81-.08-1.16-.23-.38-.13-.68-.32-.93-.56-.26-.24-.46-.52-.6-.83-.15-.31-.23-.63-.23-.96V4.14c0-.29.07-.58.2-.89.11-.31.29-.6.53-.86.24-.24.54-.45.89-.63.33-.15.73-.23,1.19-.23h9.35c.46,0,.87.08,1.22.23.33.18.62.39.86.63.24.24.43.52.56.83.11.31.17.62.17.93,0,.28-.06.58-.17.89-.11.31-.28.58-.5.83-.24.24-.54.44-.89.59-.36.18-.76.27-1.22.27h-6.15c-.07,0-.16.05-.27.14-.11.09-.17.22-.17.4v2.28c0,.17.06.29.17.36.11.09.2.14.27.14h4.43c.46,0,.87.08,1.22.23.33.18.62.39.86.63.24.24.43.52.56.83.11.31.17.62.17.93,0,.28-.06.58-.17.89-.13.31-.31.58-.53.83-.24.26-.53.47-.86.63-.35.18-.76.27-1.22.27h-4.43c-.07,0-.16.04-.27.13-.11.09-.17.22-.17.4v3.44c0,.18.06.3.17.37.11.09.2.13.27.13h6.15c.46,0,.87.08,1.22.23.33.18.62.39.86.63.24.24.43.52.56.83.11.31.16.62.16.93,0,.29-.05.59-.16.89-.11.31-.28.58-.5.83-.24.26-.54.47-.89.63-.35.18-.76.27-1.22.27h-9.35Z"/>
      <path class="cls-1" d="M203.02,15.06c.07.15.19.38.37.66.18.26.38.56.6.89.2.36.42.72.66,1.09.46.75.9,1.44,1.32,2.08.4.64.65,1.05.76,1.22.26.4.4.84.4,1.32,0,.29-.06.59-.17.89-.13.33-.31.62-.53.86-.24.24-.53.44-.86.59-.35.18-.76.27-1.22.27-.55,0-1.03-.12-1.42-.37-.42-.24-.75-.55-.99-.92l-4.63-7.45c-.13-.18-.27-.27-.43-.27-.02,0-.07.01-.13.04-.06.04-.1.14-.1.3v6.06c0,.29-.06.59-.17.89-.11.31-.28.58-.5.83-.24.26-.54.47-.89.63-.36.18-.76.27-1.22.27s-.86-.09-1.19-.27c-.35-.15-.64-.36-.86-.63-.24-.26-.42-.55-.53-.86-.13-.31-.2-.6-.2-.89V4.11c0-.31.06-.62.2-.93.11-.31.29-.59.53-.86.24-.24.54-.45.89-.63.33-.15.73-.23,1.19-.23h5.39c1.24,0,2.34.2,3.31.59.95.42,1.75.97,2.41,1.66.64.68,1.13,1.46,1.49,2.32.33.88.5,1.77.5,2.68,0,1.52-.34,2.78-1.03,3.77-.68,1.01-1.66,1.87-2.94,2.58ZM196.61,10.16c0,.18.06.31.17.4.11.09.2.14.27.14h2.18c.68,0,1.21-.18,1.59-.53.35-.33.53-.82.53-1.46s-.18-1.14-.53-1.49c-.38-.33-.91-.5-1.59-.5h-2.18c-.07,0-.16.05-.27.14-.11.09-.17.22-.17.4v2.91Z"/>
      <path class="cls-1" d="M220.75,24.89c-.75,0-1.51-.05-2.28-.14-.77-.09-1.52-.24-2.25-.46-.75-.2-1.45-.48-2.12-.86-.66-.37-1.25-.86-1.75-1.46-.44-.5-.66-1.07-.66-1.69,0-.29.07-.58.2-.89.11-.31.29-.59.53-.86.22-.27.5-.49.86-.66.33-.15.73-.23,1.19-.23.55,0,.99.1,1.32.3.33.22.68.5,1.06.83.22.2.5.35.83.46.33.13.68.22,1.06.27.35.07.71.11,1.06.13.35.02.67.04.96.04,1.04,0,1.89-.14,2.55-.43.64-.29.96-.78.96-1.49,0-.28-.05-.5-.14-.66-.11-.17-.33-.34-.66-.5-.35-.13-.73-.26-1.12-.4-.4-.11-.78-.21-1.16-.3-.38-.09-.66-.14-.86-.17-.97-.24-1.94-.52-2.91-.83-.97-.31-1.84-.73-2.61-1.25-.77-.51-1.4-1.17-1.88-1.99-.49-.8-.73-1.81-.73-3.05,0-1.04.22-2,.66-2.88.44-.88,1.05-1.64,1.82-2.28.75-.61,1.65-1.1,2.71-1.46,1.06-.35,2.19-.53,3.4-.53s2.44.18,3.54.53c1.08.36,2.04.96,2.87,1.82.53.53.8,1.15.8,1.85,0,.29-.06.59-.16.89-.13.31-.31.59-.53.83-.24.24-.53.44-.86.6-.35.18-.76.27-1.22.27-.71,0-1.32-.22-1.85-.66-.22-.18-.42-.33-.59-.47-.18-.11-.35-.2-.53-.26-.2-.07-.41-.11-.63-.14-.22-.02-.49-.03-.79-.03-.88,0-1.61.18-2.19.53-.57.36-.86.85-.86,1.49,0,.31.04.52.13.63.15.18.4.33.73.46.31.16.66.29,1.06.4.38.11.75.2,1.13.26.35.09.64.16.86.2.97.22,1.94.49,2.91.79.97.31,1.84.73,2.61,1.26.77.53,1.4,1.19,1.88,1.99.46.82.7,1.83.7,3.04,0,1.15-.23,2.16-.7,3.05-.46.88-1.09,1.62-1.88,2.22-.82.62-1.77,1.08-2.87,1.39-1.1.33-2.29.5-3.57.5Z"/>
      <path class="cls-2" d="M5.55,9.59v11.35c0,.29-.06.59-.17.89-.11.31-.28.59-.5.83-.24.26-.54.47-.89.63-.35.18-.76.27-1.22.27s-.86-.09-1.19-.27c-.35-.15-.64-.36-.86-.63-.24-.26-.42-.55-.53-.86-.13-.31-.2-.61-.2-.89V2.68c0-.29.07-.58.2-.89.11-.31.29-.6.53-.86.24-.24.54-.45.89-.63.33-.15.73-.23,1.19-.23.88,0,1.57.29,2.08.86l6.48,7.02L18.02.99c.24-.24.55-.44.93-.59.35-.15.74-.23,1.16-.23.46,0,.87.08,1.22.23.33.15.62.35.86.59.24.27.43.54.56.83.11.31.17.62.17.93v18.24c0,.29-.06.59-.17.89-.13.31-.31.58-.53.83-.24.26-.53.47-.86.63-.35.18-.76.27-1.22.27s-.86-.09-1.19-.27c-.35-.15-.64-.36-.86-.63-.24-.26-.42-.55-.53-.86-.13-.31-.2-.6-.2-.89v-11.35l-4.4,4.57c-.17.18-.38.33-.63.47-.26.13-.56.2-.89.2-.31,0-.58-.07-.83-.2-.26-.13-.49-.29-.66-.47l-4.4-4.57Z"/>
      <path class="cls-13" d="M27.51,20.92V2.68c0-.29.07-.58.2-.89.11-.31.29-.6.53-.86.24-.24.54-.45.89-.63.33-.15.73-.23,1.19-.23s.87.08,1.22.23c.33.18.62.39.86.63.24.24.43.52.57.83.11.31.17.62.17.93v18.2c0,.29-.06.59-.17.89-.11.31-.28.58-.5.83-.24.26-.54.47-.89.63-.35.18-.76.27-1.22.27s-.84-.08-1.19-.23c-.35-.15-.65-.35-.89-.6-.24-.24-.43-.52-.56-.83-.13-.31-.2-.61-.2-.92Z"/>
      <path class="cls-14" d="M43.22,10.06v10.86c0,.28-.06.58-.17.89-.11.31-.28.58-.5.83-.24.26-.54.47-.89.63-.35.18-.76.27-1.22.27s-.86-.09-1.19-.27c-.35-.15-.64-.36-.86-.63-.24-.27-.42-.55-.53-.86-.13-.31-.2-.6-.2-.89V2.68c0-.31.07-.62.2-.93.11-.31.29-.59.53-.86.24-.24.54-.45.89-.63.33-.15.73-.23,1.19-.23s.88.09,1.25.27c.37.2.68.43.93.69l10.68,12.38V2.71c0-.28.07-.58.2-.89.11-.31.29-.59.53-.86.24-.24.54-.45.89-.63.33-.15.73-.23,1.19-.23s.87.08,1.22.23c.33.18.62.39.86.63.24.24.43.52.56.83.11.31.17.61.17.89v18.24c0,.28-.06.58-.17.89-.13.31-.31.58-.53.83-.24.26-.53.47-.86.63-.35.18-.76.27-1.22.27s-.88-.1-1.25-.3c-.37-.18-.68-.41-.93-.69l-10.78-12.48Z"/>
      <path class="cls-11" d="M63.49,20.92V2.68c0-.29.07-.58.2-.89.11-.31.29-.6.53-.86.24-.24.54-.45.89-.63.33-.15.73-.23,1.19-.23s.87.08,1.22.23c.33.18.62.39.86.63.24.24.43.52.57.83.11.31.17.62.17.93v18.2c0,.29-.06.59-.17.89-.11.31-.28.58-.5.83-.24.26-.54.47-.89.63-.35.18-.76.27-1.22.27s-.84-.08-1.19-.23c-.35-.15-.65-.35-.89-.6-.24-.24-.43-.52-.56-.83-.13-.31-.2-.61-.2-.92Z"/>
      <path class="cls-15" d="M79.2,9.59v11.35c0,.29-.05.59-.16.89-.11.31-.28.59-.5.83-.24.26-.54.47-.89.63-.35.18-.76.27-1.22.27s-.86-.09-1.19-.27c-.35-.15-.64-.36-.86-.63-.24-.26-.42-.55-.53-.86-.13-.31-.2-.61-.2-.89V2.68c0-.29.07-.58.2-.89.11-.31.29-.6.53-.86.24-.24.54-.45.89-.63.33-.15.73-.23,1.19-.23.88,0,1.57.29,2.08.86l6.48,7.02,6.64-6.95c.24-.24.55-.44.93-.59.35-.15.74-.23,1.16-.23.46,0,.87.08,1.22.23.33.15.62.35.86.59.24.27.43.54.56.83.11.31.17.62.17.93v18.24c0,.29-.06.59-.17.89-.13.31-.31.58-.53.83-.24.26-.53.47-.86.63-.35.18-.76.27-1.22.27s-.86-.09-1.19-.27c-.35-.15-.64-.36-.86-.63-.24-.26-.42-.55-.53-.86-.13-.31-.2-.6-.2-.89v-11.35l-4.4,4.57c-.17.18-.38.33-.63.47-.26.13-.56.2-.89.2-.31,0-.58-.07-.83-.2-.26-.13-.48-.29-.66-.47l-4.4-4.57Z"/>
      <path class="cls-16" d="M114.29,2.08l7.11,17.87c.13.26.2.57.2.93,0,.29-.06.59-.17.89-.13.31-.32.58-.56.83-.24.24-.53.44-.86.6-.35.17-.76.26-1.23.26-.68,0-1.24-.18-1.68-.53-.44-.35-.75-.75-.93-1.19l-1.81-4.66c-.11-.18-.24-.27-.4-.27h-5.59c-.07,0-.13.02-.2.07-.09.04-.16.11-.2.2l-1.85,4.66c-.18.44-.49.84-.93,1.19-.44.35-1,.53-1.68.53-.44,0-.84-.09-1.19-.26-.35-.16-.64-.36-.86-.6-.24-.24-.42-.52-.53-.83-.13-.31-.2-.6-.2-.89,0-.33.06-.64.17-.93l7.11-17.87c.22-.55.61-1.04,1.19-1.46.55-.4,1.21-.6,1.99-.6s1.43.21,1.98.63c.55.42.93.9,1.13,1.43ZM111.15,9.16c-.18.38-.34.75-.5,1.13-.15.4-.31.79-.46,1.19,0,.04-.02.09-.07.13h1.98s-.02-.08-.07-.17c-.04-.17-.11-.36-.2-.56-.09-.2-.18-.41-.27-.63-.07-.2-.13-.38-.2-.56-.09-.18-.16-.35-.23-.53Z"/>
      <path class="cls-9" d="M134.26,23.43c-.75,0-1.51-.05-2.28-.14-.77-.09-1.52-.24-2.25-.46-.75-.2-1.45-.48-2.12-.86-.66-.37-1.25-.86-1.75-1.46-.44-.5-.66-1.07-.66-1.69,0-.29.07-.58.2-.89.11-.31.29-.59.53-.86.22-.27.5-.49.86-.66.33-.15.73-.23,1.19-.23.55,0,.99.1,1.32.3.33.22.68.5,1.06.83.22.2.5.35.83.46.33.13.68.22,1.06.27.35.07.71.11,1.06.13.35.02.67.04.96.04,1.04,0,1.89-.14,2.55-.43.64-.29.96-.78.96-1.49,0-.28-.04-.5-.13-.66-.11-.17-.33-.34-.66-.5-.35-.13-.73-.26-1.12-.4-.4-.11-.78-.21-1.16-.3-.38-.09-.66-.14-.86-.17-.97-.24-1.94-.52-2.91-.83-.97-.31-1.84-.73-2.61-1.25-.77-.51-1.4-1.17-1.88-1.99-.49-.8-.73-1.81-.73-3.05,0-1.04.22-2,.66-2.88.44-.88,1.05-1.64,1.82-2.28.75-.61,1.65-1.1,2.71-1.46,1.06-.35,2.19-.53,3.4-.53s2.44.18,3.54.53c1.08.36,2.04.96,2.87,1.82.53.53.8,1.15.8,1.85,0,.29-.06.59-.16.89-.13.31-.31.59-.53.83-.24.24-.53.44-.86.6-.35.18-.76.27-1.22.27-.71,0-1.32-.22-1.85-.66-.22-.18-.42-.33-.59-.47-.18-.11-.35-.2-.53-.26-.2-.07-.41-.11-.63-.14-.22-.02-.49-.03-.79-.03-.88,0-1.61.18-2.19.53-.57.36-.86.85-.86,1.49,0,.31.04.52.13.63.15.18.4.33.73.46.31.16.66.29,1.06.4.38.11.75.2,1.13.26.35.09.64.16.86.2.97.22,1.94.49,2.91.79.97.31,1.84.73,2.61,1.26.77.53,1.4,1.19,1.88,1.99.46.82.7,1.83.7,3.04,0,1.15-.23,2.16-.7,3.05-.46.88-1.09,1.62-1.88,2.22-.82.62-1.77,1.08-2.87,1.39-1.1.33-2.29.5-3.57.5Z"/>
      <path class="cls-12" d="M148.65.1h14.08c.46,0,.87.08,1.22.23.33.18.62.39.86.63.24.24.43.52.56.83.11.31.16.61.16.89s-.06.58-.16.89c-.11.33-.28.62-.5.86-.24.24-.54.44-.89.6-.35.18-.76.27-1.22.27h-3.84c-.07,0-.16.04-.27.13-.11.09-.17.22-.17.4v15.09c0,.28-.06.58-.17.89-.11.31-.28.58-.5.83-.24.26-.54.47-.89.63-.35.18-.76.27-1.22.27s-.86-.09-1.19-.27c-.35-.15-.64-.36-.86-.63-.24-.27-.42-.55-.53-.86-.13-.31-.2-.6-.2-.89V5.79c0-.18-.04-.31-.13-.4-.11-.09-.21-.14-.3-.14h-3.84c-.44,0-.84-.08-1.19-.23-.35-.13-.65-.32-.89-.56-.24-.24-.43-.52-.56-.83-.13-.29-.2-.6-.2-.93,0-.28.07-.58.2-.89.11-.31.29-.59.53-.86.24-.24.54-.45.89-.63.33-.15.73-.23,1.19-.23Z"/>
      <path class="cls-8" d="M172.93,23.49c-.42,0-.81-.08-1.16-.23-.37-.13-.68-.32-.93-.56-.26-.24-.46-.52-.6-.83-.15-.31-.23-.63-.23-.96V2.68c0-.29.07-.58.2-.89.11-.31.29-.6.53-.86.24-.24.54-.45.89-.63.33-.15.73-.23,1.19-.23h9.36c.46,0,.87.08,1.22.23.33.18.62.39.86.63.24.24.43.52.56.83.11.31.16.62.16.93,0,.28-.06.58-.16.89-.11.31-.28.58-.5.83-.24.24-.54.44-.89.59-.35.18-.76.27-1.22.27h-6.15c-.07,0-.16.05-.27.14-.11.09-.17.22-.17.4v2.28c0,.17.06.29.17.36.11.09.2.14.27.14h4.43c.46,0,.87.08,1.22.23.33.18.62.39.86.63.24.24.43.52.56.83.11.31.17.62.17.93,0,.28-.05.58-.17.89-.13.31-.31.58-.53.83-.24.26-.53.47-.86.63-.35.18-.76.27-1.22.27h-4.43c-.07,0-.16.04-.27.13-.11.09-.17.22-.17.4v3.44c0,.18.06.3.17.37.11.09.2.13.27.13h6.15c.46,0,.87.08,1.22.23.33.18.62.39.86.63.24.24.43.52.56.83.11.31.17.62.17.93,0,.29-.06.59-.17.89-.11.31-.28.58-.5.83-.24.26-.54.47-.89.63-.35.18-.76.27-1.22.27h-9.36Z"/>
      <path class="cls-5" d="M201.56,13.6c.07.15.19.38.37.66.18.26.38.56.6.89.2.36.42.72.66,1.09.46.75.9,1.44,1.32,2.08.4.64.65,1.05.76,1.22.26.4.4.84.4,1.32,0,.29-.06.59-.17.89-.13.33-.31.62-.53.86-.24.24-.53.44-.86.59-.35.18-.76.27-1.22.27-.55,0-1.03-.12-1.42-.37-.42-.24-.75-.55-.99-.92l-4.63-7.45c-.13-.18-.27-.27-.43-.27-.02,0-.07.01-.14.04-.06.04-.1.14-.1.3v6.06c0,.29-.06.59-.17.89-.11.31-.28.58-.5.83-.24.26-.54.47-.89.63-.35.18-.76.27-1.22.27s-.86-.09-1.19-.27c-.35-.15-.64-.36-.86-.63-.24-.26-.42-.55-.53-.86-.13-.31-.2-.6-.2-.89V2.64c0-.31.07-.62.2-.93.11-.31.29-.59.53-.86.24-.24.54-.45.89-.63.33-.15.73-.23,1.19-.23h5.39c1.24,0,2.34.2,3.31.59.94.42,1.75.97,2.41,1.66.64.68,1.13,1.46,1.49,2.32.33.88.5,1.77.5,2.68,0,1.52-.34,2.78-1.03,3.77-.68,1.01-1.66,1.87-2.94,2.58ZM195.15,8.7c0,.18.06.31.17.4.11.09.2.14.27.14h2.18c.68,0,1.21-.18,1.59-.53.35-.33.53-.82.53-1.46s-.18-1.14-.53-1.49c-.38-.33-.91-.5-1.59-.5h-2.18c-.07,0-.16.05-.27.14-.11.09-.17.22-.17.4v2.91Z"/>
      <path class="cls-10" d="M219.29,23.43c-.75,0-1.51-.05-2.28-.14-.77-.09-1.52-.24-2.25-.46-.75-.2-1.45-.48-2.12-.86-.66-.37-1.25-.86-1.75-1.46-.44-.5-.66-1.07-.66-1.69,0-.29.07-.58.2-.89.11-.31.29-.59.53-.86.22-.27.5-.49.86-.66.33-.15.73-.23,1.19-.23.55,0,.99.1,1.32.3.33.22.68.5,1.06.83.22.2.5.35.83.46.33.13.68.22,1.06.27.35.07.71.11,1.06.13.35.02.67.04.96.04,1.04,0,1.89-.14,2.55-.43.64-.29.96-.78.96-1.49,0-.28-.04-.5-.14-.66-.11-.17-.33-.34-.66-.5-.35-.13-.73-.26-1.12-.4-.4-.11-.78-.21-1.16-.3-.37-.09-.66-.14-.86-.17-.97-.24-1.94-.52-2.91-.83-.97-.31-1.84-.73-2.61-1.25-.77-.51-1.4-1.17-1.89-1.99-.48-.8-.73-1.81-.73-3.05,0-1.04.22-2,.66-2.88.44-.88,1.05-1.64,1.82-2.28.75-.61,1.65-1.1,2.71-1.46,1.06-.35,2.19-.53,3.4-.53s2.44.18,3.54.53c1.08.36,2.04.96,2.87,1.82.53.53.8,1.15.8,1.85,0,.29-.06.59-.17.89-.13.31-.31.59-.53.83-.24.24-.53.44-.86.6-.36.18-.76.27-1.22.27-.71,0-1.32-.22-1.86-.66-.22-.18-.41-.33-.59-.47-.18-.11-.35-.2-.53-.26-.2-.07-.41-.11-.63-.14-.22-.02-.48-.03-.79-.03-.88,0-1.61.18-2.19.53-.57.36-.86.85-.86,1.49,0,.31.04.52.13.63.15.18.4.33.73.46.31.16.66.29,1.06.4.38.11.75.2,1.13.26.35.09.64.16.86.2.97.22,1.94.49,2.91.79.97.31,1.84.73,2.61,1.26.77.53,1.4,1.19,1.89,1.99.46.82.7,1.83.7,3.04,0,1.15-.23,2.16-.7,3.05-.46.88-1.09,1.62-1.89,2.22-.82.62-1.77,1.08-2.87,1.39-1.1.33-2.29.5-3.57.5Z"/>
    </g>
  </g>
  <g class="cls-4">
    <g>
      <path class="cls-3" d="M39.44,34.89h149.54c3.09,0,5.6,2.51,5.6,5.6v6.87c0,3.09-2.51,5.6-5.6,5.6H39.44c-3.09,0-5.6-2.51-5.6-5.6v-6.87c0-3.09,2.51-5.6,5.6-5.6Z"/>
      <path class="cls-2" d="M47.99,44.68h-.64s-.05.01-.08.04c-.03.03-.05.07-.05.12v1.72c0,.08-.02.17-.05.26-.03.09-.08.17-.15.25-.07.08-.16.14-.27.18-.1.05-.22.08-.36.08s-.25-.03-.35-.08c-.1-.04-.19-.1-.25-.18-.07-.08-.13-.17-.16-.26-.04-.09-.06-.18-.06-.26v-5.34c0-.09.02-.18.06-.27.03-.09.08-.17.16-.25.07-.07.16-.14.26-.19.1-.05.21-.07.35-.07h1.58c.36,0,.69.06.97.18.28.12.51.29.71.49.19.2.33.43.43.68.1.26.15.52.15.78s-.05.53-.15.78c-.1.26-.25.49-.44.68-.19.2-.43.36-.71.49-.28.12-.61.18-.97.18ZM47.23,42.97c0,.05.02.09.05.12.03.03.06.04.08.04h.64c.2,0,.36-.05.47-.16.1-.1.16-.24.16-.43s-.05-.33-.16-.44c-.11-.1-.27-.15-.47-.15h-.64s-.05.01-.08.04c-.03.03-.05.07-.05.12v.86Z"/>
      <path class="cls-13" d="M61.1,41.2v4.44c0,.05.02.09.05.11.03.03.06.04.08.04h1.91c.14,0,.26.02.36.07.1.05.18.11.25.18.07.07.13.16.17.25.03.09.05.18.05.27,0,.08-.02.17-.05.26-.03.09-.08.17-.15.25-.07.08-.16.14-.26.18-.1.05-.22.08-.36.08h-2.85c-.14,0-.25-.03-.35-.08-.1-.04-.19-.1-.25-.18-.07-.08-.12-.17-.16-.26-.04-.09-.06-.18-.06-.26v-5.34c0-.09.02-.18.06-.27.03-.09.09-.17.16-.25.07-.07.16-.14.26-.19.1-.05.21-.07.35-.07s.26.03.37.08c.1.05.18.12.25.2.06.08.11.16.15.25.03.09.04.17.04.25Z"/>
      <path class="cls-14" d="M77.04,41.02l2.09,5.25c.04.08.06.17.06.27,0,.08-.02.17-.05.26-.04.09-.09.17-.17.25-.07.07-.15.13-.25.18-.1.05-.22.08-.36.08-.2,0-.36-.05-.49-.16-.13-.1-.22-.22-.28-.35l-.53-1.37c-.03-.05-.07-.08-.12-.08h-1.64s-.03,0-.06.02c-.03.01-.05.03-.06.06l-.54,1.37c-.05.13-.14.25-.27.35-.13.1-.3.16-.5.16-.13,0-.25-.03-.35-.08-.1-.05-.19-.11-.25-.18-.07-.07-.13-.16-.16-.25-.04-.09-.06-.18-.06-.26,0-.1.02-.19.05-.27l2.09-5.25c.06-.16.18-.3.35-.43.16-.12.35-.18.58-.18s.42.06.58.19c.16.12.27.26.33.42ZM76.11,43.11c-.05.11-.1.22-.15.33-.05.11-.09.23-.14.35,0,.01,0,.03-.02.04h.58s0-.02-.02-.05c-.01-.05-.03-.11-.05-.17-.03-.06-.05-.12-.08-.18-.02-.06-.04-.12-.06-.17-.03-.05-.05-.11-.07-.16Z"/>
      <path class="cls-11" d="M89.67,42.73l1.2-1.92c.07-.1.16-.19.28-.26.12-.07.26-.11.42-.11.13,0,.25.02.36.07.1.05.19.11.27.19.06.08.11.16.15.25.03.09.05.18.05.26,0,.14-.04.27-.12.4l-1.75,2.81s-.03.05-.03.09v2.06c0,.08-.02.17-.05.26-.04.09-.09.17-.16.25-.07.08-.15.14-.25.18-.1.05-.22.08-.36.08s-.26-.03-.36-.08c-.1-.04-.19-.1-.26-.18-.07-.08-.12-.17-.16-.26-.04-.09-.06-.18-.06-.26v-2.06s-.01-.07-.03-.09l-1.76-2.81c-.08-.13-.12-.26-.12-.4,0-.08.02-.17.06-.26.03-.09.08-.17.16-.25.06-.07.15-.14.25-.19.1-.05.21-.07.35-.07.16,0,.3.04.43.11.12.07.21.16.28.26l1.2,1.93Z"/>
      <path class="cls-15" d="M102.61,43.88c0,.27.04.52.13.75.08.23.2.43.36.6.16.17.36.31.6.41.24.1.52.15.84.15.09,0,.19,0,.3-.02.11-.01.22-.03.32-.06.1-.03.2-.06.3-.1.09-.04.16-.08.22-.13.03-.03.06-.05.07-.08,0-.02.01-.06.01-.11,0-.05-.02-.09-.05-.12-.03-.02-.06-.03-.08-.03h-1.25c-.14,0-.25-.03-.35-.08-.1-.05-.19-.11-.25-.19-.07-.08-.13-.16-.16-.25-.04-.09-.06-.18-.06-.27s.02-.17.06-.26c.03-.09.08-.17.16-.25.06-.08.15-.15.25-.2.1-.05.22-.07.36-.07h2.19c.13,0,.25.02.35.07.1.05.19.11.26.19.07.07.13.15.17.24.03.09.05.18.05.27v1.37c0,.1-.02.2-.05.28-.04.08-.09.16-.17.24-.32.35-.71.61-1.18.79-.47.18-.96.27-1.46.27s-.98-.08-1.41-.25c-.44-.16-.82-.4-1.14-.7-.31-.3-.56-.66-.75-1.09-.18-.42-.27-.89-.27-1.41s.09-.99.27-1.41c.18-.42.43-.78.75-1.09.32-.3.7-.53,1.14-.7.43-.16.9-.25,1.41-.25.23,0,.47.02.72.06.25.05.49.11.72.2.23.09.46.2.67.33.21.13.39.29.54.47.14.16.21.33.21.52,0,.08-.02.17-.05.26-.04.09-.09.17-.16.25-.07.08-.16.14-.26.18-.1.05-.22.08-.36.08-.17,0-.3-.03-.39-.1-.1-.07-.2-.15-.31-.26-.18-.16-.39-.28-.62-.35-.24-.07-.48-.11-.71-.11-.32,0-.6.05-.84.15-.24.1-.45.24-.61.42-.16.17-.28.38-.36.61-.09.23-.13.48-.13.75Z"/>
      <path class="cls-16" d="M120.13,44.41s.06.11.11.2c.05.08.11.16.18.26.06.1.12.21.19.32.14.22.27.43.39.61.12.19.19.31.23.36.08.11.12.24.12.39,0,.08-.02.17-.05.26-.04.1-.09.18-.15.26-.07.07-.16.13-.26.18-.1.05-.22.08-.36.08-.16,0-.3-.04-.42-.11-.12-.07-.22-.17-.29-.28l-1.36-2.18c-.04-.05-.08-.08-.12-.08,0,0-.02,0-.04.01-.02.01-.03.04-.03.09v1.78c0,.08-.02.17-.05.26-.03.09-.08.17-.15.25-.07.08-.16.14-.27.19-.1.05-.22.08-.36.08s-.25-.03-.35-.08c-.1-.05-.19-.11-.25-.19-.07-.08-.13-.17-.16-.26-.04-.09-.06-.18-.06-.26v-5.34c0-.09.02-.18.06-.27.03-.09.08-.17.16-.25.07-.07.16-.14.26-.19.1-.05.21-.07.35-.07h1.58c.36,0,.69.06.97.18.28.12.51.29.71.49.19.2.33.43.44.68.1.26.15.52.15.78,0,.45-.1.82-.3,1.11-.2.3-.49.55-.86.76ZM118.25,42.97c0,.05.01.09.04.12.03.03.06.04.08.04h.64c.2,0,.36-.05.47-.16.1-.1.16-.24.16-.43s-.05-.33-.16-.44c-.11-.1-.27-.15-.47-.15h-.64s-.05.01-.08.04c-.03.03-.04.07-.04.12v.86Z"/>
      <path class="cls-9" d="M133.81,47.31c-.51,0-.97-.08-1.41-.25-.44-.16-.82-.4-1.14-.7-.31-.3-.56-.66-.75-1.09-.18-.42-.27-.89-.27-1.41s.09-.99.27-1.41c.18-.42.43-.78.75-1.09.32-.3.7-.53,1.14-.7.43-.16.9-.25,1.41-.25s.97.08,1.4.25c.43.17.81.4,1.13.7.32.3.57.67.75,1.09.18.42.27.89.27,1.41s-.09.99-.27,1.41c-.18.43-.43.79-.75,1.09-.32.3-.69.54-1.13.7-.43.17-.9.25-1.4.25ZM135.72,43.86c0-.27-.04-.52-.12-.75-.08-.23-.2-.44-.36-.61-.16-.17-.36-.3-.6-.4-.24-.1-.51-.15-.83-.15s-.6.05-.84.15c-.24.1-.44.23-.6.4-.16.17-.28.38-.36.61-.09.23-.13.48-.13.75s.04.52.13.75c.08.23.2.43.36.6.16.17.36.31.6.41.24.1.52.15.84.15s.59-.05.83-.15c.24-.1.44-.23.6-.41.16-.17.28-.37.36-.6.08-.23.12-.48.12-.75Z"/>
      <path class="cls-12" d="M150.45,41.21c0-.09.02-.18.05-.27.03-.09.09-.17.16-.25.07-.07.16-.14.27-.19.1-.05.21-.07.35-.07s.26.02.36.07c.1.05.18.11.25.19.07.07.13.15.17.24.03.09.05.18.05.27v3.54c0,.3-.06.61-.19.91-.12.31-.3.59-.53.83-.22.25-.5.45-.83.6-.33.16-.71.24-1.13.24h-.33c-.42,0-.8-.08-1.13-.24-.33-.15-.61-.35-.83-.6-.23-.24-.41-.52-.54-.83-.12-.3-.19-.61-.19-.91v-3.54c0-.09.02-.18.06-.27.03-.09.09-.17.16-.25.07-.07.16-.14.26-.19.1-.05.21-.07.35-.07s.25.02.36.07c.1.05.18.11.26.19.07.07.13.15.17.24.03.09.05.18.05.27v3.54c0,.14.03.27.08.39.05.13.12.24.22.33.09.1.2.18.33.24.12.06.26.09.41.09h.33c.15,0,.29-.03.42-.09.12-.06.23-.14.33-.24.09-.09.17-.2.22-.33.05-.12.07-.25.07-.39l-.02-3.52Z"/>
      <path class="cls-5" d="M162.96,43.37v3.19c0,.08-.02.17-.05.26-.03.09-.08.17-.15.25-.07.08-.16.14-.26.18-.1.05-.22.08-.36.08s-.25-.03-.35-.08c-.1-.04-.19-.1-.25-.18-.07-.08-.12-.17-.16-.26-.04-.09-.06-.18-.06-.26v-5.34c0-.09.02-.18.06-.27.03-.09.09-.17.16-.25.07-.07.16-.14.26-.19.1-.05.21-.07.35-.07s.26.03.37.08c.11.06.2.13.28.21l3.13,3.63v-3.13c0-.08.02-.17.06-.26.03-.09.08-.17.16-.25.07-.07.16-.14.26-.19.1-.05.21-.07.35-.07s.26.02.36.07c.1.05.18.11.25.19.07.07.13.15.17.24.03.09.05.18.05.26v5.35c0,.08-.02.17-.05.26-.04.09-.09.17-.16.25-.07.08-.15.14-.25.18-.1.05-.22.08-.36.08s-.26-.03-.37-.09c-.11-.05-.2-.12-.27-.21l-3.16-3.66Z"/>
      <path class="cls-10" d="M179.26,47.32h-1.61c-.14,0-.26-.03-.36-.08-.11-.04-.2-.1-.26-.18-.07-.08-.12-.17-.16-.27-.04-.09-.06-.18-.06-.26v-5.33c0-.09.02-.18.06-.27.03-.09.09-.17.16-.25.06-.07.15-.14.26-.19.1-.05.22-.07.36-.07h1.61c.51,0,.98.08,1.42.25.43.17.81.4,1.12.7.32.3.57.67.75,1.09.18.43.28.9.28,1.42s-.09.99-.28,1.41c-.18.43-.43.79-.75,1.09-.31.3-.69.54-1.12.7-.44.17-.91.25-1.42.25ZM179.26,45.78c.32,0,.6-.05.84-.16.24-.1.44-.23.6-.41.16-.17.28-.37.37-.6.08-.23.12-.48.12-.75s-.04-.52-.12-.75c-.08-.23-.21-.44-.37-.61-.16-.17-.36-.3-.6-.4-.24-.1-.52-.15-.84-.15h-.68s-.05.01-.08.04c-.03.03-.05.07-.05.12v3.52c0,.05.02.09.05.11.03.03.06.04.08.04h.68Z"/>
    </g>
  </g>
</svg>