<svg xmlns="http://www.w3.org/2000/svg" xmlns:xlink="http://www.w3.org/1999/xlink" width="1080" zoomAndPan="magnify" viewBox="0 0 810 1439.999935" height="1920" preserveAspectRatio="xMidYMid meet" version="1.0"><defs><g/><radialGradient gradientTransform="matrix(1, 0, 0, 1, 0.0000182812, -0.00002)" gradientUnits="userSpaceOnUse" r="826.090448" cx="404.999982" id="ecb250256e" cy="719.999968" fx="404.999982" fy="719.999968"><stop stop-opacity="1" stop-color="rgb(100%, 95.246887%, 86.555481%)" offset="0"/><stop stop-opacity="1" stop-color="rgb(100%, 95.159912%, 86.326599%)" offset="0.00390625"/><stop stop-opacity="1" stop-color="rgb(100%, 95.074463%, 86.097717%)" offset="0.0078125"/><stop stop-opacity="1" stop-color="rgb(100%, 94.989014%, 85.870361%)" offset="0.0117188"/><stop stop-opacity="1" stop-color="rgb(100%, 94.903564%, 85.641479%)" offset="0.015625"/><stop stop-opacity="1" stop-color="rgb(100%, 94.816589%, 85.414124%)" offset="0.0195312"/><stop stop-opacity="1" stop-color="rgb(100%, 94.73114%, 85.185242%)" offset="0.0234375"/><stop stop-opacity="1" stop-color="rgb(100%, 94.645691%, 84.95636%)" offset="0.0273438"/><stop stop-opacity="1" stop-color="rgb(100%, 94.560242%, 84.729004%)" offset="0.03125"/><stop stop-opacity="1" stop-color="rgb(100%, 94.474792%, 84.500122%)" offset="0.0351562"/><stop stop-opacity="1" stop-color="rgb(100%, 94.387817%, 84.272766%)" offset="0.0390625"/><stop stop-opacity="1" stop-color="rgb(100%, 94.302368%, 84.043884%)" offset="0.0429688"/><stop stop-opacity="1" stop-color="rgb(100%, 94.216919%, 83.816528%)" offset="0.046875"/><stop stop-opacity="1" stop-color="rgb(100%, 94.13147%, 83.587646%)" offset="0.0507812"/><stop stop-opacity="1" stop-color="rgb(100%, 94.044495%, 83.358765%)" offset="0.0546875"/><stop stop-opacity="1" stop-color="rgb(100%, 93.959045%, 83.131409%)" offset="0.0585938"/><stop stop-opacity="1" stop-color="rgb(100%, 93.873596%, 82.902527%)" offset="0.0625"/><stop stop-opacity="1" stop-color="rgb(100%, 93.788147%, 82.675171%)" offset="0.0664062"/><stop stop-opacity="1" stop-color="rgb(100%, 93.702698%, 82.446289%)" offset="0.0703125"/><stop stop-opacity="1" stop-color="rgb(100%, 93.615723%, 82.218933%)" offset="0.0742188"/><stop stop-opacity="1" stop-color="rgb(100%, 93.530273%, 81.990051%)" offset="0.078125"/><stop stop-opacity="1" stop-color="rgb(100%, 93.444824%, 81.761169%)" offset="0.0820312"/><stop stop-opacity="1" stop-color="rgb(100%, 93.359375%, 81.533813%)" offset="0.0859375"/><stop stop-opacity="1" stop-color="rgb(100%, 93.273926%, 81.304932%)" offset="0.0898438"/><stop stop-opacity="1" stop-color="rgb(100%, 93.186951%, 81.077576%)" offset="0.09375"/><stop stop-opacity="1" stop-color="rgb(100%, 93.101501%, 80.848694%)" offset="0.0976562"/><stop stop-opacity="1" stop-color="rgb(100%, 93.016052%, 80.619812%)" offset="0.101562"/><stop stop-opacity="1" stop-color="rgb(100%, 92.930603%, 80.392456%)" offset="0.105469"/><stop stop-opacity="1" stop-color="rgb(100%, 92.843628%, 80.163574%)" offset="0.109375"/><stop stop-opacity="1" stop-color="rgb(100%, 92.758179%, 79.936218%)" offset="0.113281"/><stop stop-opacity="1" stop-color="rgb(100%, 92.672729%, 79.707336%)" offset="0.117188"/><stop stop-opacity="1" stop-color="rgb(100%, 92.58728%, 79.47998%)" offset="0.121094"/><stop stop-opacity="1" stop-color="rgb(100%, 92.501831%, 79.251099%)" offset="0.125"/><stop stop-opacity="1" stop-color="rgb(100%, 92.414856%, 79.022217%)" offset="0.128906"/><stop stop-opacity="1" stop-color="rgb(100%, 92.329407%, 78.794861%)" offset="0.132812"/><stop stop-opacity="1" stop-color="rgb(100%, 92.243958%, 78.565979%)" offset="0.136719"/><stop stop-opacity="1" stop-color="rgb(100%, 92.158508%, 78.338623%)" offset="0.140625"/><stop stop-opacity="1" stop-color="rgb(100%, 92.071533%, 78.109741%)" offset="0.144531"/><stop stop-opacity="1" stop-color="rgb(100%, 91.986084%, 77.880859%)" offset="0.148438"/><stop stop-opacity="1" stop-color="rgb(100%, 91.900635%, 77.653503%)" offset="0.152344"/><stop stop-opacity="1" stop-color="rgb(100%, 91.815186%, 77.424622%)" offset="0.15625"/><stop stop-opacity="1" stop-color="rgb(100%, 91.729736%, 77.197266%)" offset="0.160156"/><stop stop-opacity="1" stop-color="rgb(100%, 91.642761%, 76.968384%)" offset="0.164062"/><stop stop-opacity="1" stop-color="rgb(100%, 91.557312%, 76.741028%)" offset="0.167969"/><stop stop-opacity="1" stop-color="rgb(100%, 91.471863%, 76.512146%)" offset="0.171875"/><stop stop-opacity="1" stop-color="rgb(100%, 91.386414%, 76.283264%)" offset="0.175781"/><stop stop-opacity="1" stop-color="rgb(100%, 91.300964%, 76.055908%)" offset="0.179688"/><stop stop-opacity="1" stop-color="rgb(100%, 91.213989%, 75.827026%)" offset="0.183594"/><stop stop-opacity="1" stop-color="rgb(100%, 91.12854%, 75.59967%)" offset="0.1875"/><stop stop-opacity="1" stop-color="rgb(100%, 91.043091%, 75.370789%)" offset="0.191406"/><stop stop-opacity="1" stop-color="rgb(100%, 90.957642%, 75.143433%)" offset="0.195312"/><stop stop-opacity="1" stop-color="rgb(100%, 90.870667%, 74.914551%)" offset="0.199219"/><stop stop-opacity="1" stop-color="rgb(100%, 90.785217%, 74.685669%)" offset="0.203125"/><stop stop-opacity="1" stop-color="rgb(100%, 90.699768%, 74.458313%)" offset="0.207031"/><stop stop-opacity="1" stop-color="rgb(100%, 90.614319%, 74.229431%)" offset="0.210938"/><stop stop-opacity="1" stop-color="rgb(100%, 90.52887%, 74.002075%)" offset="0.214844"/><stop stop-opacity="1" stop-color="rgb(100%, 90.441895%, 73.773193%)" offset="0.21875"/><stop stop-opacity="1" stop-color="rgb(100%, 90.356445%, 73.544312%)" offset="0.222656"/><stop stop-opacity="1" stop-color="rgb(100%, 90.270996%, 73.316956%)" offset="0.226562"/><stop stop-opacity="1" stop-color="rgb(100%, 90.185547%, 73.088074%)" offset="0.230469"/><stop stop-opacity="1" stop-color="rgb(100%, 90.098572%, 72.860718%)" offset="0.234375"/><stop stop-opacity="1" stop-color="rgb(100%, 90.013123%, 72.631836%)" offset="0.238281"/><stop stop-opacity="1" stop-color="rgb(100%, 89.927673%, 72.40448%)" offset="0.242188"/><stop stop-opacity="1" stop-color="rgb(100%, 89.842224%, 72.175598%)" offset="0.246094"/><stop stop-opacity="1" stop-color="rgb(100%, 89.756775%, 71.946716%)" offset="0.25"/><stop stop-opacity="1" stop-color="rgb(100%, 89.6698%, 71.71936%)" offset="0.253906"/><stop stop-opacity="1" stop-color="rgb(100%, 89.584351%, 71.490479%)" offset="0.257812"/><stop stop-opacity="1" stop-color="rgb(100%, 89.498901%, 71.263123%)" offset="0.261719"/><stop stop-opacity="1" stop-color="rgb(100%, 89.413452%, 71.034241%)" offset="0.265625"/><stop stop-opacity="1" stop-color="rgb(100%, 89.328003%, 70.805359%)" offset="0.269531"/><stop stop-opacity="1" stop-color="rgb(100%, 89.241028%, 70.578003%)" offset="0.273438"/><stop stop-opacity="1" stop-color="rgb(100%, 89.155579%, 70.349121%)" offset="0.277344"/><stop stop-opacity="1" stop-color="rgb(100%, 89.070129%, 70.121765%)" offset="0.28125"/><stop stop-opacity="1" stop-color="rgb(100%, 88.98468%, 69.892883%)" offset="0.285156"/><stop stop-opacity="1" stop-color="rgb(100%, 88.897705%, 69.665527%)" offset="0.289062"/><stop stop-opacity="1" stop-color="rgb(100%, 88.812256%, 69.436646%)" offset="0.292969"/><stop stop-opacity="1" stop-color="rgb(100%, 88.726807%, 69.207764%)" offset="0.296875"/><stop stop-opacity="1" stop-color="rgb(100%, 88.641357%, 68.980408%)" offset="0.300781"/><stop stop-opacity="1" stop-color="rgb(100%, 88.555908%, 68.751526%)" offset="0.304688"/><stop stop-opacity="1" stop-color="rgb(100%, 88.468933%, 68.52417%)" offset="0.308594"/><stop stop-opacity="1" stop-color="rgb(100%, 88.383484%, 68.295288%)" offset="0.3125"/><stop stop-opacity="1" stop-color="rgb(100%, 88.298035%, 68.067932%)" offset="0.316406"/><stop stop-opacity="1" stop-color="rgb(100%, 88.212585%, 67.83905%)" offset="0.320312"/><stop stop-opacity="1" stop-color="rgb(100%, 88.12561%, 67.610168%)" offset="0.324219"/><stop stop-opacity="1" stop-color="rgb(100%, 88.040161%, 67.382812%)" offset="0.328125"/><stop stop-opacity="1" stop-color="rgb(100%, 87.954712%, 67.153931%)" offset="0.332031"/><stop stop-opacity="1" stop-color="rgb(100%, 87.869263%, 66.926575%)" offset="0.335938"/><stop stop-opacity="1" stop-color="rgb(100%, 87.783813%, 66.697693%)" offset="0.339844"/><stop stop-opacity="1" stop-color="rgb(100%, 87.696838%, 66.468811%)" offset="0.34375"/><stop stop-opacity="1" stop-color="rgb(100%, 87.611389%, 66.241455%)" offset="0.347656"/><stop stop-opacity="1" stop-color="rgb(100%, 87.52594%, 66.012573%)" offset="0.351562"/><stop stop-opacity="1" stop-color="rgb(100%, 87.440491%, 65.785217%)" offset="0.355469"/><stop stop-opacity="1" stop-color="rgb(100%, 87.355042%, 65.556335%)" offset="0.359375"/><stop stop-opacity="1" stop-color="rgb(100%, 87.268066%, 65.328979%)" offset="0.363281"/><stop stop-opacity="1" stop-color="rgb(100%, 87.182617%, 65.100098%)" offset="0.367188"/><stop stop-opacity="1" stop-color="rgb(100%, 87.097168%, 64.871216%)" offset="0.371094"/><stop stop-opacity="1" stop-color="rgb(100%, 87.011719%, 64.64386%)" offset="0.375"/><stop stop-opacity="1" stop-color="rgb(100%, 86.924744%, 64.414978%)" offset="0.378906"/><stop stop-opacity="1" stop-color="rgb(100%, 86.839294%, 64.187622%)" offset="0.382812"/><stop stop-opacity="1" stop-color="rgb(100%, 86.753845%, 63.95874%)" offset="0.386719"/><stop stop-opacity="1" stop-color="rgb(100%, 86.668396%, 63.729858%)" offset="0.390625"/><stop stop-opacity="1" stop-color="rgb(100%, 86.582947%, 63.502502%)" offset="0.394531"/><stop stop-opacity="1" stop-color="rgb(100%, 86.495972%, 63.273621%)" offset="0.398438"/><stop stop-opacity="1" stop-color="rgb(100%, 86.410522%, 63.046265%)" offset="0.402344"/><stop stop-opacity="1" stop-color="rgb(100%, 86.325073%, 62.817383%)" offset="0.40625"/><stop stop-opacity="1" stop-color="rgb(100%, 86.239624%, 62.590027%)" offset="0.410156"/><stop stop-opacity="1" stop-color="rgb(100%, 86.152649%, 62.361145%)" offset="0.414062"/><stop stop-opacity="1" stop-color="rgb(100%, 86.0672%, 62.132263%)" offset="0.417969"/><stop stop-opacity="1" stop-color="rgb(100%, 85.98175%, 61.904907%)" offset="0.421875"/><stop stop-opacity="1" stop-color="rgb(100%, 85.896301%, 61.676025%)" offset="0.425781"/><stop stop-opacity="1" stop-color="rgb(100%, 85.810852%, 61.448669%)" offset="0.429688"/><stop stop-opacity="1" stop-color="rgb(100%, 85.723877%, 61.219788%)" offset="0.433594"/><stop stop-opacity="1" stop-color="rgb(100%, 85.638428%, 60.992432%)" offset="0.4375"/><stop stop-opacity="1" stop-color="rgb(100%, 85.552979%, 60.76355%)" offset="0.441406"/><stop stop-opacity="1" stop-color="rgb(100%, 85.467529%, 60.534668%)" offset="0.445312"/><stop stop-opacity="1" stop-color="rgb(100%, 85.38208%, 60.307312%)" offset="0.449219"/><stop stop-opacity="1" stop-color="rgb(100%, 85.295105%, 60.07843%)" offset="0.453125"/><stop stop-opacity="1" stop-color="rgb(100%, 85.209656%, 59.851074%)" offset="0.457031"/><stop stop-opacity="1" stop-color="rgb(100%, 85.124207%, 59.622192%)" offset="0.460938"/><stop stop-opacity="1" stop-color="rgb(100%, 85.038757%, 59.393311%)" offset="0.464844"/><stop stop-opacity="1" stop-color="rgb(100%, 84.951782%, 59.165955%)" offset="0.46875"/><stop stop-opacity="1" stop-color="rgb(100%, 84.866333%, 58.937073%)" offset="0.472656"/><stop stop-opacity="1" stop-color="rgb(100%, 84.780884%, 58.709717%)" offset="0.476562"/><stop stop-opacity="1" stop-color="rgb(100%, 84.695435%, 58.480835%)" offset="0.480469"/><stop stop-opacity="1" stop-color="rgb(100%, 84.609985%, 58.253479%)" offset="0.484375"/><stop stop-opacity="1" stop-color="rgb(100%, 84.52301%, 58.024597%)" offset="0.488281"/><stop stop-opacity="1" stop-color="rgb(100%, 84.437561%, 57.795715%)" offset="0.492188"/><stop stop-opacity="1" stop-color="rgb(100%, 84.352112%, 57.568359%)" offset="0.496094"/><stop stop-opacity="1" stop-color="rgb(100%, 84.266663%, 57.339478%)" offset="0.5"/><stop stop-opacity="1" stop-color="rgb(100%, 84.179688%, 57.112122%)" offset="0.503906"/><stop stop-opacity="1" stop-color="rgb(100%, 84.094238%, 56.88324%)" offset="0.507812"/><stop stop-opacity="1" stop-color="rgb(100%, 84.008789%, 56.654358%)" offset="0.511719"/><stop stop-opacity="1" stop-color="rgb(100%, 83.92334%, 56.427002%)" offset="0.515625"/><stop stop-opacity="1" stop-color="rgb(100%, 83.837891%, 56.19812%)" offset="0.519531"/><stop stop-opacity="1" stop-color="rgb(100%, 83.750916%, 55.970764%)" offset="0.523438"/><stop stop-opacity="1" stop-color="rgb(100%, 83.665466%, 55.741882%)" offset="0.527344"/><stop stop-opacity="1" stop-color="rgb(100%, 83.580017%, 55.514526%)" offset="0.53125"/><stop stop-opacity="1" stop-color="rgb(100%, 83.494568%, 55.285645%)" offset="0.535156"/><stop stop-opacity="1" stop-color="rgb(100%, 83.409119%, 55.056763%)" offset="0.539062"/><stop stop-opacity="1" stop-color="rgb(100%, 83.322144%, 54.829407%)" offset="0.542969"/><stop stop-opacity="1" stop-color="rgb(100%, 83.236694%, 54.600525%)" offset="0.546875"/><stop stop-opacity="1" stop-color="rgb(100%, 83.151245%, 54.373169%)" offset="0.550781"/><stop stop-opacity="1" stop-color="rgb(100%, 83.065796%, 54.144287%)" offset="0.554688"/><stop stop-opacity="1" stop-color="rgb(100%, 82.978821%, 53.915405%)" offset="0.558594"/><stop stop-opacity="1" stop-color="rgb(100%, 82.893372%, 53.688049%)" offset="0.5625"/><stop stop-opacity="1" stop-color="rgb(100%, 82.807922%, 53.459167%)" offset="0.566406"/><stop stop-opacity="1" stop-color="rgb(100%, 82.722473%, 53.231812%)" offset="0.570312"/><stop stop-opacity="1" stop-color="rgb(100%, 82.637024%, 53.00293%)" offset="0.574219"/><stop stop-opacity="1" stop-color="rgb(100%, 82.550049%, 52.775574%)" offset="0.578125"/><stop stop-opacity="1" stop-color="rgb(100%, 82.4646%, 52.546692%)" offset="0.582031"/><stop stop-opacity="1" stop-color="rgb(100%, 82.37915%, 52.31781%)" offset="0.585938"/><stop stop-opacity="1" stop-color="rgb(100%, 82.293701%, 52.090454%)" offset="0.589844"/><stop stop-opacity="1" stop-color="rgb(100%, 82.206726%, 51.861572%)" offset="0.59375"/><stop stop-opacity="1" stop-color="rgb(100%, 82.121277%, 51.634216%)" offset="0.597656"/><stop stop-opacity="1" stop-color="rgb(100%, 82.035828%, 51.405334%)" offset="0.601562"/><stop stop-opacity="1" stop-color="rgb(100%, 81.950378%, 51.177979%)" offset="0.605469"/><stop stop-opacity="1" stop-color="rgb(100%, 81.864929%, 50.949097%)" offset="0.609375"/><stop stop-opacity="1" stop-color="rgb(100%, 81.777954%, 50.720215%)" offset="0.613281"/><stop stop-opacity="1" stop-color="rgb(100%, 81.692505%, 50.492859%)" offset="0.617188"/><stop stop-opacity="1" stop-color="rgb(100%, 81.607056%, 50.263977%)" offset="0.621094"/><stop stop-opacity="1" stop-color="rgb(100%, 81.521606%, 50.036621%)" offset="0.625"/><stop stop-opacity="1" stop-color="rgb(100%, 81.436157%, 49.807739%)" offset="0.628906"/><stop stop-opacity="1" stop-color="rgb(100%, 81.349182%, 49.578857%)" offset="0.632812"/><stop stop-opacity="1" stop-color="rgb(100%, 81.263733%, 49.351501%)" offset="0.636719"/><stop stop-opacity="1" stop-color="rgb(100%, 81.178284%, 49.12262%)" offset="0.640625"/><stop stop-opacity="1" stop-color="rgb(100%, 81.092834%, 48.895264%)" offset="0.644531"/><stop stop-opacity="1" stop-color="rgb(100%, 81.005859%, 48.666382%)" offset="0.648438"/><stop stop-opacity="1" stop-color="rgb(100%, 80.92041%, 48.439026%)" offset="0.652344"/><stop stop-opacity="1" stop-color="rgb(100%, 80.834961%, 48.210144%)" offset="0.65625"/><stop stop-opacity="1" stop-color="rgb(100%, 80.749512%, 47.981262%)" offset="0.660156"/><stop stop-opacity="1" stop-color="rgb(100%, 80.664062%, 47.753906%)" offset="0.664062"/><stop stop-opacity="1" stop-color="rgb(100%, 80.577087%, 47.525024%)" offset="0.667969"/><stop stop-opacity="1" stop-color="rgb(100%, 80.491638%, 47.297668%)" offset="0.671875"/><stop stop-opacity="1" stop-color="rgb(100%, 80.406189%, 47.068787%)" offset="0.675781"/><stop stop-opacity="1" stop-color="rgb(100%, 80.32074%, 46.839905%)" offset="0.679688"/><stop stop-opacity="1" stop-color="rgb(100%, 80.233765%, 46.612549%)" offset="0.683594"/><stop stop-opacity="1" stop-color="rgb(100%, 80.148315%, 46.383667%)" offset="0.6875"/><stop stop-opacity="1" stop-color="rgb(100%, 80.062866%, 46.156311%)" offset="0.691406"/><stop stop-opacity="1" stop-color="rgb(100%, 79.977417%, 45.927429%)" offset="0.695312"/><stop stop-opacity="1" stop-color="rgb(100%, 79.891968%, 45.700073%)" offset="0.699219"/><stop stop-opacity="1" stop-color="rgb(100%, 79.804993%, 45.471191%)" offset="0.703125"/><stop stop-opacity="1" stop-color="rgb(100%, 79.719543%, 45.24231%)" offset="0.707031"/><stop stop-opacity="1" stop-color="rgb(100%, 79.634094%, 45.014954%)" offset="0.710938"/><stop stop-opacity="1" stop-color="rgb(100%, 79.548645%, 44.786072%)" offset="0.714844"/><stop stop-opacity="1" stop-color="rgb(100%, 79.46167%, 44.558716%)" offset="0.71875"/><stop stop-opacity="1" stop-color="rgb(100%, 79.376221%, 44.329834%)" offset="0.722656"/><stop stop-opacity="1" stop-color="rgb(100%, 79.290771%, 44.102478%)" offset="0.726562"/><stop stop-opacity="1" stop-color="rgb(100%, 79.205322%, 43.873596%)" offset="0.730469"/><stop stop-opacity="1" stop-color="rgb(100%, 79.119873%, 43.644714%)" offset="0.734375"/><stop stop-opacity="1" stop-color="rgb(100%, 79.032898%, 43.417358%)" offset="0.738281"/><stop stop-opacity="1" stop-color="rgb(100%, 78.947449%, 43.188477%)" offset="0.742188"/><stop stop-opacity="1" stop-color="rgb(100%, 78.862%, 42.961121%)" offset="0.746094"/><stop stop-opacity="1" stop-color="rgb(100%, 78.77655%, 42.732239%)" offset="0.75"/><stop stop-opacity="1" stop-color="rgb(100%, 78.691101%, 42.503357%)" offset="0.753906"/><stop stop-opacity="1" stop-color="rgb(100%, 78.604126%, 42.276001%)" offset="0.757812"/><stop stop-opacity="1" stop-color="rgb(100%, 78.518677%, 42.047119%)" offset="0.761719"/><stop stop-opacity="1" stop-color="rgb(100%, 78.433228%, 41.819763%)" offset="0.765625"/><stop stop-opacity="1" stop-color="rgb(100%, 78.347778%, 41.590881%)" offset="0.769531"/><stop stop-opacity="1" stop-color="rgb(100%, 78.260803%, 41.363525%)" offset="0.773438"/><stop stop-opacity="1" stop-color="rgb(100%, 78.175354%, 41.134644%)" offset="0.777344"/><stop stop-opacity="1" stop-color="rgb(100%, 78.089905%, 40.905762%)" offset="0.78125"/><stop stop-opacity="1" stop-color="rgb(100%, 78.004456%, 40.678406%)" offset="0.785156"/><stop stop-opacity="1" stop-color="rgb(100%, 77.919006%, 40.449524%)" offset="0.789062"/><stop stop-opacity="1" stop-color="rgb(100%, 77.832031%, 40.222168%)" offset="0.792969"/><stop stop-opacity="1" stop-color="rgb(100%, 77.746582%, 39.993286%)" offset="0.796875"/><stop stop-opacity="1" stop-color="rgb(100%, 77.661133%, 39.764404%)" offset="0.800781"/><stop stop-opacity="1" stop-color="rgb(100%, 77.575684%, 39.537048%)" offset="0.804688"/><stop stop-opacity="1" stop-color="rgb(100%, 77.488708%, 39.308167%)" offset="0.808594"/><stop stop-opacity="1" stop-color="rgb(100%, 77.403259%, 39.080811%)" offset="0.8125"/><stop stop-opacity="1" stop-color="rgb(100%, 77.31781%, 38.851929%)" offset="0.816406"/><stop stop-opacity="1" stop-color="rgb(100%, 77.232361%, 38.624573%)" offset="0.820312"/><stop stop-opacity="1" stop-color="rgb(100%, 77.146912%, 38.395691%)" offset="0.824219"/><stop stop-opacity="1" stop-color="rgb(100%, 77.059937%, 38.166809%)" offset="0.828125"/><stop stop-opacity="1" stop-color="rgb(100%, 76.974487%, 37.939453%)" offset="0.832031"/><stop stop-opacity="1" stop-color="rgb(100%, 76.889038%, 37.710571%)" offset="0.835938"/><stop stop-opacity="1" stop-color="rgb(100%, 76.803589%, 37.483215%)" offset="0.839844"/><stop stop-opacity="1" stop-color="rgb(100%, 76.71814%, 37.254333%)" offset="0.84375"/><stop stop-opacity="1" stop-color="rgb(100%, 76.631165%, 37.026978%)" offset="0.847656"/><stop stop-opacity="1" stop-color="rgb(100%, 76.545715%, 36.798096%)" offset="0.851562"/><stop stop-opacity="1" stop-color="rgb(100%, 76.460266%, 36.569214%)" offset="0.855469"/><stop stop-opacity="1" stop-color="rgb(100%, 76.374817%, 36.341858%)" offset="0.859375"/><stop stop-opacity="1" stop-color="rgb(100%, 76.287842%, 36.112976%)" offset="0.863281"/><stop stop-opacity="1" stop-color="rgb(100%, 76.202393%, 35.88562%)" offset="0.867188"/><stop stop-opacity="1" stop-color="rgb(100%, 76.116943%, 35.656738%)" offset="0.871094"/><stop stop-opacity="1" stop-color="rgb(100%, 76.031494%, 35.427856%)" offset="0.875"/><stop stop-opacity="1" stop-color="rgb(100%, 75.946045%, 35.2005%)" offset="0.878906"/><stop stop-opacity="1" stop-color="rgb(100%, 75.85907%, 34.971619%)" offset="0.882812"/><stop stop-opacity="1" stop-color="rgb(100%, 75.773621%, 34.744263%)" offset="0.886719"/><stop stop-opacity="1" stop-color="rgb(100%, 75.688171%, 34.515381%)" offset="0.890625"/><stop stop-opacity="1" stop-color="rgb(100%, 75.602722%, 34.288025%)" offset="0.894531"/><stop stop-opacity="1" stop-color="rgb(100%, 75.515747%, 34.059143%)" offset="0.898438"/><stop stop-opacity="1" stop-color="rgb(100%, 75.430298%, 33.830261%)" offset="0.902344"/><stop stop-opacity="1" stop-color="rgb(100%, 75.344849%, 33.602905%)" offset="0.90625"/><stop stop-opacity="1" stop-color="rgb(100%, 75.259399%, 33.374023%)" offset="0.910156"/><stop stop-opacity="1" stop-color="rgb(100%, 75.17395%, 33.146667%)" offset="0.914062"/><stop stop-opacity="1" stop-color="rgb(100%, 75.086975%, 32.917786%)" offset="0.917969"/><stop stop-opacity="1" stop-color="rgb(100%, 75.001526%, 32.688904%)" offset="0.921875"/><stop stop-opacity="1" stop-color="rgb(100%, 74.916077%, 32.461548%)" offset="0.925781"/><stop stop-opacity="1" stop-color="rgb(100%, 74.830627%, 32.232666%)" offset="0.929688"/><stop stop-opacity="1" stop-color="rgb(100%, 74.745178%, 32.00531%)" offset="0.933594"/><stop stop-opacity="1" stop-color="rgb(100%, 74.658203%, 31.776428%)" offset="0.9375"/><stop stop-opacity="1" stop-color="rgb(100%, 74.572754%, 31.549072%)" offset="0.941406"/><stop stop-opacity="1" stop-color="rgb(100%, 74.487305%, 31.32019%)" offset="0.945312"/><stop stop-opacity="1" stop-color="rgb(100%, 74.401855%, 31.091309%)" offset="0.949219"/><stop stop-opacity="1" stop-color="rgb(100%, 74.31488%, 30.863953%)" offset="0.953125"/><stop stop-opacity="1" stop-color="rgb(100%, 74.229431%, 30.635071%)" offset="0.957031"/><stop stop-opacity="1" stop-color="rgb(100%, 74.143982%, 30.407715%)" offset="0.960938"/><stop stop-opacity="1" stop-color="rgb(100%, 74.058533%, 30.178833%)" offset="0.964844"/><stop stop-opacity="1" stop-color="rgb(100%, 73.973083%, 29.951477%)" offset="0.96875"/><stop stop-opacity="1" stop-color="rgb(100%, 73.886108%, 29.722595%)" offset="0.972656"/><stop stop-opacity="1" stop-color="rgb(100%, 73.800659%, 29.493713%)" offset="0.976562"/><stop stop-opacity="1" stop-color="rgb(100%, 73.71521%, 29.266357%)" offset="0.980469"/><stop stop-opacity="1" stop-color="rgb(100%, 73.629761%, 29.037476%)" offset="0.984375"/><stop stop-opacity="1" stop-color="rgb(100%, 73.542786%, 28.81012%)" offset="0.988281"/><stop stop-opacity="1" stop-color="rgb(100%, 73.457336%, 28.581238%)" offset="0.992188"/><stop stop-opacity="1" stop-color="rgb(100%, 73.371887%, 28.352356%)" offset="0.996094"/><stop stop-opacity="1" stop-color="rgb(100%, 73.329163%, 28.239441%)" offset="1"/></radialGradient><clipPath id="6f25f2960b"><rect x="0" width="728" y="0" height="115"/></clipPath><clipPath id="6e750dbf98"><rect x="0" width="504" y="0" height="60"/></clipPath></defs><rect x="-81" width="972" fill="#ffffff" y="-143.999994" height="1727.999922" fill-opacity="1"/><rect x="-81" fill="url(#ecb250256e)" width="972" y="-143.999994" height="1727.999922"/><g transform="matrix(1, 0, 0, 1, 41, 634)"><g clip-path="url(#6f25f2960b)"><g fill="#ffffff" fill-opacity="0.4"><g transform="translate(4.966779, 97.465081)"><g><path d="M 24.9375 -43.28125 L 24.9375 -7.9375 C 24.9375 -7.039062 24.765625 -6.113281 24.421875 -5.15625 C 24.078125 -4.1875 23.5625 -3.328125 22.875 -2.578125 C 22.125 -1.753906 21.195312 -1.101562 20.09375 -0.625 C 19 -0.0703125 17.726562 0.203125 16.28125 0.203125 C 14.84375 0.203125 13.609375 -0.0703125 12.578125 -0.625 C 11.472656 -1.101562 10.578125 -1.753906 9.890625 -2.578125 C 9.140625 -3.398438 8.59375 -4.289062 8.25 -5.25 C 7.832031 -6.21875 7.625 -7.144531 7.625 -8.03125 L 7.625 -64.8125 C 7.625 -65.707031 7.832031 -66.632812 8.25 -67.59375 C 8.59375 -68.5625 9.140625 -69.457031 9.890625 -70.28125 C 10.648438 -71.03125 11.578125 -71.679688 12.671875 -72.234375 C 13.703125 -72.710938 14.941406 -72.953125 16.390625 -72.953125 C 19.128906 -72.953125 21.289062 -72.0625 22.875 -70.28125 L 43.078125 -48.4375 L 63.78125 -70.078125 C 64.539062 -70.828125 65.503906 -71.441406 66.671875 -71.921875 C 67.765625 -72.398438 68.96875 -72.640625 70.28125 -72.640625 C 71.71875 -72.640625 72.988281 -72.398438 74.09375 -71.921875 C 75.125 -71.441406 76.015625 -70.828125 76.765625 -70.078125 C 77.523438 -69.242188 78.109375 -68.382812 78.515625 -67.5 C 78.859375 -66.53125 79.03125 -65.566406 79.03125 -64.609375 L 79.03125 -7.828125 C 79.03125 -6.929688 78.859375 -6.003906 78.515625 -5.046875 C 78.109375 -4.085938 77.5625 -3.226562 76.875 -2.46875 C 76.113281 -1.644531 75.21875 -0.992188 74.1875 -0.515625 C 73.09375 0.0351562 71.820312 0.3125 70.375 0.3125 C 68.9375 0.3125 67.703125 0.0351562 66.671875 -0.515625 C 65.566406 -0.992188 64.671875 -1.644531 63.984375 -2.46875 C 63.234375 -3.289062 62.6875 -4.1875 62.34375 -5.15625 C 61.925781 -6.113281 61.71875 -7.039062 61.71875 -7.9375 L 61.71875 -43.28125 L 48.015625 -29.0625 C 47.472656 -28.507812 46.820312 -28.023438 46.0625 -27.609375 C 45.238281 -27.203125 44.3125 -27 43.28125 -27 C 42.320312 -27 41.460938 -27.203125 40.703125 -27.609375 C 39.878906 -28.023438 39.191406 -28.507812 38.640625 -29.0625 Z M 24.9375 -43.28125 "/></g></g></g><g fill="#ffffff" fill-opacity="0.4"><g transform="translate(90.826777, 97.465081)"><g><path d="M 7.515625 -8.03125 L 7.515625 -64.8125 C 7.515625 -65.707031 7.722656 -66.632812 8.140625 -67.59375 C 8.484375 -68.5625 9.035156 -69.457031 9.796875 -70.28125 C 10.546875 -71.03125 11.472656 -71.679688 12.578125 -72.234375 C 13.609375 -72.710938 14.84375 -72.953125 16.28125 -72.953125 C 17.726562 -72.953125 19 -72.710938 20.09375 -72.234375 C 21.125 -71.679688 22.015625 -71.03125 22.765625 -70.28125 C 23.523438 -69.519531 24.113281 -68.660156 24.53125 -67.703125 C 24.875 -66.742188 25.046875 -65.78125 25.046875 -64.8125 L 25.046875 -8.140625 C 25.046875 -7.242188 24.875 -6.316406 24.53125 -5.359375 C 24.1875 -4.398438 23.671875 -3.539062 22.984375 -2.78125 C 22.222656 -1.957031 21.296875 -1.304688 20.203125 -0.828125 C 19.097656 -0.273438 17.828125 0 16.390625 0 C 15.015625 0 13.773438 -0.238281 12.671875 -0.71875 C 11.578125 -1.195312 10.648438 -1.816406 9.890625 -2.578125 C 9.140625 -3.328125 8.554688 -4.1875 8.140625 -5.15625 C 7.722656 -6.113281 7.515625 -7.070312 7.515625 -8.03125 Z M 7.515625 -8.03125 "/></g></g></g><g fill="#ffffff" fill-opacity="0.4"><g transform="translate(122.366152, 97.465081)"><g><path d="M 24.9375 -41.84375 L 24.9375 -8.03125 C 24.9375 -7.144531 24.765625 -6.21875 24.421875 -5.25 C 24.078125 -4.289062 23.5625 -3.429688 22.875 -2.671875 C 22.125 -1.847656 21.195312 -1.195312 20.09375 -0.71875 C 19 -0.164062 17.726562 0.109375 16.28125 0.109375 C 14.84375 0.109375 13.609375 -0.164062 12.578125 -0.71875 C 11.472656 -1.195312 10.578125 -1.847656 9.890625 -2.671875 C 9.140625 -3.503906 8.59375 -4.398438 8.25 -5.359375 C 7.832031 -6.316406 7.625 -7.242188 7.625 -8.140625 L 7.625 -64.8125 C 7.625 -65.78125 7.832031 -66.742188 8.25 -67.703125 C 8.59375 -68.660156 9.140625 -69.550781 9.890625 -70.375 C 10.648438 -71.132812 11.578125 -71.789062 12.671875 -72.34375 C 13.703125 -72.820312 14.941406 -73.0625 16.390625 -73.0625 C 17.828125 -73.0625 19.128906 -72.785156 20.296875 -72.234375 C 21.460938 -71.617188 22.425781 -70.898438 23.1875 -70.078125 L 56.46875 -31.53125 L 56.46875 -64.71875 C 56.46875 -65.601562 56.675781 -66.53125 57.09375 -67.5 C 57.4375 -68.457031 57.984375 -69.347656 58.734375 -70.171875 C 59.492188 -70.929688 60.421875 -71.585938 61.515625 -72.140625 C 62.546875 -72.617188 63.785156 -72.859375 65.234375 -72.859375 C 66.671875 -72.859375 67.941406 -72.617188 69.046875 -72.140625 C 70.078125 -71.585938 70.96875 -70.929688 71.71875 -70.171875 C 72.476562 -69.421875 73.0625 -68.5625 73.46875 -67.59375 C 73.8125 -66.632812 73.984375 -65.707031 73.984375 -64.8125 L 73.984375 -8.03125 C 73.984375 -7.144531 73.8125 -6.21875 73.46875 -5.25 C 73.0625 -4.289062 72.515625 -3.429688 71.828125 -2.671875 C 71.066406 -1.847656 70.171875 -1.195312 69.140625 -0.71875 C 68.046875 -0.164062 66.773438 0.109375 65.328125 0.109375 C 63.890625 0.109375 62.585938 -0.203125 61.421875 -0.828125 C 60.253906 -1.378906 59.289062 -2.097656 58.53125 -2.984375 Z M 24.9375 -41.84375 "/></g></g></g><g fill="#ffffff" fill-opacity="0.4"><g transform="translate(202.961151, 97.465081)"><g><path d="M 7.515625 -8.03125 L 7.515625 -64.8125 C 7.515625 -65.707031 7.722656 -66.632812 8.140625 -67.59375 C 8.484375 -68.5625 9.035156 -69.457031 9.796875 -70.28125 C 10.546875 -71.03125 11.472656 -71.679688 12.578125 -72.234375 C 13.609375 -72.710938 14.84375 -72.953125 16.28125 -72.953125 C 17.726562 -72.953125 19 -72.710938 20.09375 -72.234375 C 21.125 -71.679688 22.015625 -71.03125 22.765625 -70.28125 C 23.523438 -69.519531 24.113281 -68.660156 24.53125 -67.703125 C 24.875 -66.742188 25.046875 -65.78125 25.046875 -64.8125 L 25.046875 -8.140625 C 25.046875 -7.242188 24.875 -6.316406 24.53125 -5.359375 C 24.1875 -4.398438 23.671875 -3.539062 22.984375 -2.78125 C 22.222656 -1.957031 21.296875 -1.304688 20.203125 -0.828125 C 19.097656 -0.273438 17.828125 0 16.390625 0 C 15.015625 0 13.773438 -0.238281 12.671875 -0.71875 C 11.578125 -1.195312 10.648438 -1.816406 9.890625 -2.578125 C 9.140625 -3.328125 8.554688 -4.1875 8.140625 -5.15625 C 7.722656 -6.113281 7.515625 -7.070312 7.515625 -8.03125 Z M 7.515625 -8.03125 "/></g></g></g><g fill="#ffffff" fill-opacity="0.4"><g transform="translate(234.500526, 97.465081)"><g><path d="M 24.9375 -43.28125 L 24.9375 -7.9375 C 24.9375 -7.039062 24.765625 -6.113281 24.421875 -5.15625 C 24.078125 -4.1875 23.5625 -3.328125 22.875 -2.578125 C 22.125 -1.753906 21.195312 -1.101562 20.09375 -0.625 C 19 -0.0703125 17.726562 0.203125 16.28125 0.203125 C 14.84375 0.203125 13.609375 -0.0703125 12.578125 -0.625 C 11.472656 -1.101562 10.578125 -1.753906 9.890625 -2.578125 C 9.140625 -3.398438 8.59375 -4.289062 8.25 -5.25 C 7.832031 -6.21875 7.625 -7.144531 7.625 -8.03125 L 7.625 -64.8125 C 7.625 -65.707031 7.832031 -66.632812 8.25 -67.59375 C 8.59375 -68.5625 9.140625 -69.457031 9.890625 -70.28125 C 10.648438 -71.03125 11.578125 -71.679688 12.671875 -72.234375 C 13.703125 -72.710938 14.941406 -72.953125 16.390625 -72.953125 C 19.128906 -72.953125 21.289062 -72.0625 22.875 -70.28125 L 43.078125 -48.4375 L 63.78125 -70.078125 C 64.539062 -70.828125 65.503906 -71.441406 66.671875 -71.921875 C 67.765625 -72.398438 68.96875 -72.640625 70.28125 -72.640625 C 71.71875 -72.640625 72.988281 -72.398438 74.09375 -71.921875 C 75.125 -71.441406 76.015625 -70.828125 76.765625 -70.078125 C 77.523438 -69.242188 78.109375 -68.382812 78.515625 -67.5 C 78.859375 -66.53125 79.03125 -65.566406 79.03125 -64.609375 L 79.03125 -7.828125 C 79.03125 -6.929688 78.859375 -6.003906 78.515625 -5.046875 C 78.109375 -4.085938 77.5625 -3.226562 76.875 -2.46875 C 76.113281 -1.644531 75.21875 -0.992188 74.1875 -0.515625 C 73.09375 0.0351562 71.820312 0.3125 70.375 0.3125 C 68.9375 0.3125 67.703125 0.0351562 66.671875 -0.515625 C 65.566406 -0.992188 64.671875 -1.644531 63.984375 -2.46875 C 63.234375 -3.289062 62.6875 -4.1875 62.34375 -5.15625 C 61.925781 -6.113281 61.71875 -7.039062 61.71875 -7.9375 L 61.71875 -43.28125 L 48.015625 -29.0625 C 47.472656 -28.507812 46.820312 -28.023438 46.0625 -27.609375 C 45.238281 -27.203125 44.3125 -27 43.28125 -27 C 42.320312 -27 41.460938 -27.203125 40.703125 -27.609375 C 39.878906 -28.023438 39.191406 -28.507812 38.640625 -29.0625 Z M 24.9375 -43.28125 "/></g></g></g><g fill="#ffffff" fill-opacity="0.4"><g transform="translate(318.81647, 97.465081)"><g><path d="M 49.984375 -66.671875 L 72.140625 -11.03125 C 72.546875 -10.207031 72.75 -9.242188 72.75 -8.140625 C 72.75 -7.242188 72.578125 -6.316406 72.234375 -5.359375 C 71.828125 -4.398438 71.242188 -3.539062 70.484375 -2.78125 C 69.722656 -2.03125 68.832031 -1.410156 67.8125 -0.921875 C 66.707031 -0.378906 65.429688 -0.109375 63.984375 -0.109375 C 61.859375 -0.109375 60.109375 -0.65625 58.734375 -1.75 C 57.359375 -2.851562 56.394531 -4.09375 55.84375 -5.46875 L 50.1875 -19.984375 C 49.84375 -20.535156 49.429688 -20.8125 48.953125 -20.8125 L 31.53125 -20.8125 C 31.320312 -20.8125 31.117188 -20.742188 30.921875 -20.609375 C 30.640625 -20.472656 30.429688 -20.265625 30.296875 -19.984375 L 24.53125 -5.46875 C 23.976562 -4.09375 23.015625 -2.851562 21.640625 -1.75 C 20.265625 -0.65625 18.515625 -0.109375 16.390625 -0.109375 C 15.015625 -0.109375 13.773438 -0.378906 12.671875 -0.921875 C 11.578125 -1.410156 10.6875 -2.03125 10 -2.78125 C 9.238281 -3.539062 8.6875 -4.398438 8.34375 -5.359375 C 7.9375 -6.316406 7.734375 -7.242188 7.734375 -8.140625 C 7.734375 -9.171875 7.90625 -10.132812 8.25 -11.03125 L 30.40625 -66.671875 C 31.082031 -68.390625 32.316406 -69.898438 34.109375 -71.203125 C 35.828125 -72.441406 37.890625 -73.0625 40.296875 -73.0625 C 42.691406 -73.0625 44.75 -72.410156 46.46875 -71.109375 C 48.1875 -69.796875 49.359375 -68.316406 49.984375 -66.671875 Z M 40.1875 -44.625 C 39.632812 -43.457031 39.117188 -42.285156 38.640625 -41.109375 C 38.160156 -39.878906 37.679688 -38.644531 37.203125 -37.40625 C 37.203125 -37.269531 37.132812 -37.132812 37 -37 L 43.171875 -37 C 43.171875 -37.0625 43.101562 -37.234375 42.96875 -37.515625 C 42.832031 -38.054688 42.628906 -38.640625 42.359375 -39.265625 C 42.078125 -39.878906 41.800781 -40.53125 41.53125 -41.21875 C 41.320312 -41.832031 41.113281 -42.414062 40.90625 -42.96875 C 40.632812 -43.519531 40.394531 -44.070312 40.1875 -44.625 Z M 40.1875 -44.625 "/></g></g></g><g fill="#ffffff" fill-opacity="0.4"><g transform="translate(395.285524, 97.465081)"><g><path d="M 35.75 -0.203125 C 33.414062 -0.203125 31.046875 -0.34375 28.640625 -0.625 C 26.242188 -0.894531 23.910156 -1.375 21.640625 -2.0625 C 19.304688 -2.675781 17.109375 -3.566406 15.046875 -4.734375 C 12.984375 -5.898438 11.160156 -7.414062 9.578125 -9.28125 C 8.203125 -10.851562 7.515625 -12.601562 7.515625 -14.53125 C 7.515625 -15.425781 7.722656 -16.351562 8.140625 -17.3125 C 8.484375 -18.269531 9.035156 -19.160156 9.796875 -19.984375 C 10.472656 -20.816406 11.363281 -21.503906 12.46875 -22.046875 C 13.5 -22.523438 14.734375 -22.765625 16.171875 -22.765625 C 17.890625 -22.765625 19.265625 -22.457031 20.296875 -21.84375 C 21.328125 -21.15625 22.425781 -20.296875 23.59375 -19.265625 C 24.28125 -18.648438 25.140625 -18.171875 26.171875 -17.828125 C 27.203125 -17.410156 28.300781 -17.132812 29.46875 -17 C 30.570312 -16.789062 31.671875 -16.65625 32.765625 -16.59375 C 33.867188 -16.519531 34.863281 -16.484375 35.75 -16.484375 C 38.976562 -16.484375 41.625 -16.929688 43.6875 -17.828125 C 45.6875 -18.722656 46.6875 -20.269531 46.6875 -22.46875 C 46.6875 -23.351562 46.546875 -24.039062 46.265625 -24.53125 C 45.921875 -25.070312 45.234375 -25.585938 44.203125 -26.078125 C 43.109375 -26.484375 41.941406 -26.894531 40.703125 -27.3125 C 39.460938 -27.65625 38.257812 -27.960938 37.09375 -28.234375 C 35.925781 -28.503906 35.035156 -28.675781 34.421875 -28.75 C 31.398438 -29.507812 28.375 -30.367188 25.34375 -31.328125 C 22.320312 -32.285156 19.609375 -33.585938 17.203125 -35.234375 C 14.804688 -36.816406 12.847656 -38.878906 11.328125 -41.421875 C 9.816406 -43.898438 9.0625 -47.0625 9.0625 -50.90625 C 9.0625 -54.132812 9.75 -57.125 11.125 -59.875 C 12.5 -62.613281 14.390625 -64.984375 16.796875 -66.984375 C 19.128906 -68.898438 21.945312 -70.410156 25.25 -71.515625 C 28.539062 -72.609375 32.078125 -73.15625 35.859375 -73.15625 C 39.773438 -73.15625 43.453125 -72.609375 46.890625 -71.515625 C 50.253906 -70.410156 53.238281 -68.519531 55.84375 -65.84375 C 57.5 -64.195312 58.328125 -62.273438 58.328125 -60.078125 C 58.328125 -59.179688 58.15625 -58.253906 57.8125 -57.296875 C 57.394531 -56.328125 56.84375 -55.46875 56.15625 -54.71875 C 55.40625 -53.957031 54.515625 -53.335938 53.484375 -52.859375 C 52.378906 -52.304688 51.109375 -52.03125 49.671875 -52.03125 C 47.472656 -52.03125 45.546875 -52.71875 43.890625 -54.09375 C 43.210938 -54.644531 42.597656 -55.128906 42.046875 -55.546875 C 41.492188 -55.890625 40.941406 -56.160156 40.390625 -56.359375 C 39.773438 -56.566406 39.125 -56.707031 38.4375 -56.78125 C 37.75 -56.84375 36.925781 -56.875 35.96875 -56.875 C 33.21875 -56.875 30.945312 -56.328125 29.15625 -55.234375 C 27.375 -54.128906 26.484375 -52.582031 26.484375 -50.59375 C 26.484375 -49.632812 26.617188 -48.984375 26.890625 -48.640625 C 27.367188 -48.085938 28.125 -47.609375 29.15625 -47.203125 C 30.125 -46.710938 31.222656 -46.296875 32.453125 -45.953125 C 33.628906 -45.609375 34.800781 -45.335938 35.96875 -45.140625 C 37.0625 -44.859375 37.953125 -44.648438 38.640625 -44.515625 C 41.660156 -43.828125 44.679688 -43.003906 47.703125 -42.046875 C 50.734375 -41.078125 53.445312 -39.769531 55.84375 -38.125 C 58.25 -36.476562 60.207031 -34.414062 61.71875 -31.9375 C 63.164062 -29.394531 63.890625 -26.238281 63.890625 -22.46875 C 63.890625 -18.894531 63.164062 -15.734375 61.71875 -12.984375 C 60.28125 -10.234375 58.320312 -7.929688 55.84375 -6.078125 C 53.300781 -4.148438 50.316406 -2.707031 46.890625 -1.75 C 43.453125 -0.71875 39.738281 -0.203125 35.75 -0.203125 Z M 35.75 -0.203125 "/></g></g></g><g fill="#ffffff" fill-opacity="0.4"><g transform="translate(459.604593, 97.465081)"><g><path d="M 16.28125 -72.859375 L 60.171875 -72.859375 C 61.617188 -72.859375 62.890625 -72.617188 63.984375 -72.140625 C 65.015625 -71.585938 65.910156 -70.929688 66.671875 -70.171875 C 67.429688 -69.421875 68.015625 -68.5625 68.421875 -67.59375 C 68.765625 -66.632812 68.9375 -65.707031 68.9375 -64.8125 C 68.9375 -63.925781 68.765625 -63 68.421875 -62.03125 C 68.078125 -61 67.5625 -60.109375 66.875 -59.359375 C 66.125 -58.597656 65.195312 -57.976562 64.09375 -57.5 C 63 -56.945312 61.726562 -56.671875 60.28125 -56.671875 L 48.328125 -56.671875 C 48.117188 -56.671875 47.84375 -56.535156 47.5 -56.265625 C 47.15625 -55.984375 46.984375 -55.570312 46.984375 -55.03125 L 46.984375 -8.03125 C 46.984375 -7.144531 46.8125 -6.21875 46.46875 -5.25 C 46.125 -4.289062 45.609375 -3.429688 44.921875 -2.671875 C 44.171875 -1.847656 43.242188 -1.195312 42.140625 -0.71875 C 41.046875 -0.164062 39.773438 0.109375 38.328125 0.109375 C 36.890625 0.109375 35.65625 -0.164062 34.625 -0.71875 C 33.519531 -1.195312 32.625 -1.847656 31.9375 -2.671875 C 31.1875 -3.503906 30.640625 -4.398438 30.296875 -5.359375 C 29.878906 -6.316406 29.671875 -7.242188 29.671875 -8.140625 L 29.671875 -55.125 C 29.671875 -55.675781 29.535156 -56.085938 29.265625 -56.359375 C 28.921875 -56.640625 28.613281 -56.78125 28.34375 -56.78125 L 16.390625 -56.78125 C 15.015625 -56.78125 13.773438 -57.019531 12.671875 -57.5 C 11.578125 -57.914062 10.648438 -58.5 9.890625 -59.25 C 9.140625 -60.007812 8.554688 -60.867188 8.140625 -61.828125 C 7.722656 -62.722656 7.515625 -63.6875 7.515625 -64.71875 C 7.515625 -65.601562 7.722656 -66.53125 8.140625 -67.5 C 8.484375 -68.457031 9.035156 -69.347656 9.796875 -70.171875 C 10.546875 -70.929688 11.472656 -71.585938 12.578125 -72.140625 C 13.609375 -72.617188 14.84375 -72.859375 16.28125 -72.859375 Z M 16.28125 -72.859375 "/></g></g></g><g fill="#ffffff" fill-opacity="0.4"><g transform="translate(535.162397, 97.465081)"><g><path d="M 16.390625 0 C 15.078125 0 13.875 -0.238281 12.78125 -0.71875 C 11.613281 -1.132812 10.648438 -1.71875 9.890625 -2.46875 C 9.066406 -3.226562 8.445312 -4.085938 8.03125 -5.046875 C 7.550781 -6.003906 7.3125 -7 7.3125 -8.03125 L 7.3125 -64.8125 C 7.3125 -65.707031 7.519531 -66.632812 7.9375 -67.59375 C 8.28125 -68.5625 8.828125 -69.457031 9.578125 -70.28125 C 10.335938 -71.03125 11.265625 -71.679688 12.359375 -72.234375 C 13.390625 -72.710938 14.628906 -72.953125 16.078125 -72.953125 L 45.234375 -72.953125 C 46.679688 -72.953125 47.953125 -72.710938 49.046875 -72.234375 C 50.078125 -71.679688 50.972656 -71.03125 51.734375 -70.28125 C 52.484375 -69.519531 53.066406 -68.660156 53.484375 -67.703125 C 53.828125 -66.742188 54 -65.78125 54 -64.8125 C 54 -63.925781 53.828125 -63 53.484375 -62.03125 C 53.140625 -61.070312 52.625 -60.210938 51.9375 -59.453125 C 51.175781 -58.703125 50.25 -58.085938 49.15625 -57.609375 C 48.050781 -57.054688 46.78125 -56.78125 45.34375 -56.78125 L 26.171875 -56.78125 C 25.960938 -56.78125 25.6875 -56.640625 25.34375 -56.359375 C 25 -56.085938 24.828125 -55.675781 24.828125 -55.125 L 24.828125 -48.015625 C 24.828125 -47.472656 25 -47.097656 25.34375 -46.890625 C 25.6875 -46.609375 25.960938 -46.46875 26.171875 -46.46875 L 39.984375 -46.46875 C 41.421875 -46.46875 42.691406 -46.226562 43.796875 -45.75 C 44.828125 -45.195312 45.71875 -44.546875 46.46875 -43.796875 C 47.226562 -43.035156 47.8125 -42.175781 48.21875 -41.21875 C 48.5625 -40.257812 48.734375 -39.296875 48.734375 -38.328125 C 48.734375 -37.441406 48.5625 -36.515625 48.21875 -35.546875 C 47.8125 -34.585938 47.265625 -33.726562 46.578125 -32.96875 C 45.816406 -32.144531 44.921875 -31.492188 43.890625 -31.015625 C 42.796875 -30.460938 41.523438 -30.1875 40.078125 -30.1875 L 26.28125 -30.1875 C 26.070312 -30.1875 25.796875 -30.050781 25.453125 -29.78125 C 25.109375 -29.507812 24.9375 -29.097656 24.9375 -28.546875 L 24.9375 -17.828125 C 24.9375 -17.273438 25.109375 -16.894531 25.453125 -16.6875 C 25.796875 -16.414062 26.070312 -16.28125 26.28125 -16.28125 L 45.4375 -16.28125 C 46.882812 -16.28125 48.15625 -16.039062 49.25 -15.5625 C 50.28125 -15.007812 51.175781 -14.359375 51.9375 -13.609375 C 52.6875 -12.847656 53.269531 -11.988281 53.6875 -11.03125 C 54.03125 -10.0625 54.203125 -9.097656 54.203125 -8.140625 C 54.203125 -7.242188 54.03125 -6.316406 53.6875 -5.359375 C 53.34375 -4.398438 52.828125 -3.539062 52.140625 -2.78125 C 51.390625 -1.957031 50.460938 -1.304688 49.359375 -0.828125 C 48.253906 -0.273438 46.984375 0 45.546875 0 Z M 16.390625 0 "/></g></g></g><g fill="#ffffff" fill-opacity="0.4"><g transform="translate(595.861771, 97.465081)"><g><path d="M 44.921875 -30.8125 C 45.128906 -30.332031 45.507812 -29.644531 46.0625 -28.75 C 46.613281 -27.925781 47.234375 -27 47.921875 -25.96875 C 48.535156 -24.863281 49.222656 -23.726562 49.984375 -22.5625 C 51.421875 -20.226562 52.789062 -18.066406 54.09375 -16.078125 C 55.332031 -14.085938 56.125 -12.816406 56.46875 -12.265625 C 57.289062 -11.023438 57.703125 -9.648438 57.703125 -8.140625 C 57.703125 -7.242188 57.53125 -6.316406 57.1875 -5.359375 C 56.78125 -4.328125 56.234375 -3.429688 55.546875 -2.671875 C 54.785156 -1.921875 53.890625 -1.304688 52.859375 -0.828125 C 51.765625 -0.273438 50.492188 0 49.046875 0 C 47.328125 0 45.851562 -0.378906 44.625 -1.140625 C 43.3125 -1.890625 42.28125 -2.847656 41.53125 -4.015625 L 27.09375 -27.203125 C 26.6875 -27.753906 26.242188 -28.03125 25.765625 -28.03125 C 25.691406 -28.03125 25.550781 -27.992188 25.34375 -27.921875 C 25.144531 -27.785156 25.046875 -27.476562 25.046875 -27 L 25.046875 -8.140625 C 25.046875 -7.242188 24.875 -6.316406 24.53125 -5.359375 C 24.1875 -4.398438 23.671875 -3.539062 22.984375 -2.78125 C 22.222656 -1.957031 21.296875 -1.304688 20.203125 -0.828125 C 19.097656 -0.273438 17.828125 0 16.390625 0 C 14.941406 0 13.703125 -0.273438 12.671875 -0.828125 C 11.578125 -1.304688 10.6875 -1.957031 10 -2.78125 C 9.238281 -3.601562 8.6875 -4.5 8.34375 -5.46875 C 7.9375 -6.425781 7.734375 -7.351562 7.734375 -8.25 L 7.734375 -64.921875 C 7.734375 -65.878906 7.9375 -66.84375 8.34375 -67.8125 C 8.6875 -68.769531 9.238281 -69.660156 10 -70.484375 C 10.75 -71.242188 11.675781 -71.894531 12.78125 -72.4375 C 13.8125 -72.914062 15.046875 -73.15625 16.484375 -73.15625 L 33.28125 -73.15625 C 37.132812 -73.15625 40.570312 -72.539062 43.59375 -71.3125 C 46.539062 -70 49.046875 -68.28125 51.109375 -66.15625 C 53.097656 -64.03125 54.644531 -61.625 55.75 -58.9375 C 56.78125 -56.195312 57.296875 -53.414062 57.296875 -50.59375 C 57.296875 -45.851562 56.226562 -41.9375 54.09375 -38.84375 C 51.96875 -35.6875 48.910156 -33.007812 44.921875 -30.8125 Z M 24.9375 -46.0625 C 24.9375 -45.507812 25.109375 -45.097656 25.453125 -44.828125 C 25.796875 -44.546875 26.070312 -44.40625 26.28125 -44.40625 L 33.078125 -44.40625 C 35.203125 -44.40625 36.851562 -44.957031 38.03125 -46.0625 C 39.125 -47.09375 39.671875 -48.601562 39.671875 -50.59375 C 39.671875 -52.582031 39.125 -54.128906 38.03125 -55.234375 C 36.851562 -56.265625 35.203125 -56.78125 33.078125 -56.78125 L 26.28125 -56.78125 C 26.070312 -56.78125 25.796875 -56.640625 25.453125 -56.359375 C 25.109375 -56.085938 24.9375 -55.675781 24.9375 -55.125 Z M 24.9375 -46.0625 "/></g></g></g><g fill="#ffffff" fill-opacity="0.4"><g transform="translate(660.282091, 97.465081)"><g><path d="M 35.75 -0.203125 C 33.414062 -0.203125 31.046875 -0.34375 28.640625 -0.625 C 26.242188 -0.894531 23.910156 -1.375 21.640625 -2.0625 C 19.304688 -2.675781 17.109375 -3.566406 15.046875 -4.734375 C 12.984375 -5.898438 11.160156 -7.414062 9.578125 -9.28125 C 8.203125 -10.851562 7.515625 -12.601562 7.515625 -14.53125 C 7.515625 -15.425781 7.722656 -16.351562 8.140625 -17.3125 C 8.484375 -18.269531 9.035156 -19.160156 9.796875 -19.984375 C 10.472656 -20.816406 11.363281 -21.503906 12.46875 -22.046875 C 13.5 -22.523438 14.734375 -22.765625 16.171875 -22.765625 C 17.890625 -22.765625 19.265625 -22.457031 20.296875 -21.84375 C 21.328125 -21.15625 22.425781 -20.296875 23.59375 -19.265625 C 24.28125 -18.648438 25.140625 -18.171875 26.171875 -17.828125 C 27.203125 -17.410156 28.300781 -17.132812 29.46875 -17 C 30.570312 -16.789062 31.671875 -16.65625 32.765625 -16.59375 C 33.867188 -16.519531 34.863281 -16.484375 35.75 -16.484375 C 38.976562 -16.484375 41.625 -16.929688 43.6875 -17.828125 C 45.6875 -18.722656 46.6875 -20.269531 46.6875 -22.46875 C 46.6875 -23.351562 46.546875 -24.039062 46.265625 -24.53125 C 45.921875 -25.070312 45.234375 -25.585938 44.203125 -26.078125 C 43.109375 -26.484375 41.941406 -26.894531 40.703125 -27.3125 C 39.460938 -27.65625 38.257812 -27.960938 37.09375 -28.234375 C 35.925781 -28.503906 35.035156 -28.675781 34.421875 -28.75 C 31.398438 -29.507812 28.375 -30.367188 25.34375 -31.328125 C 22.320312 -32.285156 19.609375 -33.585938 17.203125 -35.234375 C 14.804688 -36.816406 12.847656 -38.878906 11.328125 -41.421875 C 9.816406 -43.898438 9.0625 -47.0625 9.0625 -50.90625 C 9.0625 -54.132812 9.75 -57.125 11.125 -59.875 C 12.5 -62.613281 14.390625 -64.984375 16.796875 -66.984375 C 19.128906 -68.898438 21.945312 -70.410156 25.25 -71.515625 C 28.539062 -72.609375 32.078125 -73.15625 35.859375 -73.15625 C 39.773438 -73.15625 43.453125 -72.609375 46.890625 -71.515625 C 50.253906 -70.410156 53.238281 -68.519531 55.84375 -65.84375 C 57.5 -64.195312 58.328125 -62.273438 58.328125 -60.078125 C 58.328125 -59.179688 58.15625 -58.253906 57.8125 -57.296875 C 57.394531 -56.328125 56.84375 -55.46875 56.15625 -54.71875 C 55.40625 -53.957031 54.515625 -53.335938 53.484375 -52.859375 C 52.378906 -52.304688 51.109375 -52.03125 49.671875 -52.03125 C 47.472656 -52.03125 45.546875 -52.71875 43.890625 -54.09375 C 43.210938 -54.644531 42.597656 -55.128906 42.046875 -55.546875 C 41.492188 -55.890625 40.941406 -56.160156 40.390625 -56.359375 C 39.773438 -56.566406 39.125 -56.707031 38.4375 -56.78125 C 37.75 -56.84375 36.925781 -56.875 35.96875 -56.875 C 33.21875 -56.875 30.945312 -56.328125 29.15625 -55.234375 C 27.375 -54.128906 26.484375 -52.582031 26.484375 -50.59375 C 26.484375 -49.632812 26.617188 -48.984375 26.890625 -48.640625 C 27.367188 -48.085938 28.125 -47.609375 29.15625 -47.203125 C 30.125 -46.710938 31.222656 -46.296875 32.453125 -45.953125 C 33.628906 -45.609375 34.800781 -45.335938 35.96875 -45.140625 C 37.0625 -44.859375 37.953125 -44.648438 38.640625 -44.515625 C 41.660156 -43.828125 44.679688 -43.003906 47.703125 -42.046875 C 50.734375 -41.078125 53.445312 -39.769531 55.84375 -38.125 C 58.25 -36.476562 60.207031 -34.414062 61.71875 -31.9375 C 63.164062 -29.394531 63.890625 -26.238281 63.890625 -22.46875 C 63.890625 -18.894531 63.164062 -15.734375 61.71875 -12.984375 C 60.28125 -10.234375 58.320312 -7.929688 55.84375 -6.078125 C 53.300781 -4.148438 50.316406 -2.707031 46.890625 -1.75 C 43.453125 -0.71875 39.738281 -0.203125 35.75 -0.203125 Z M 35.75 -0.203125 "/></g></g></g><g fill="#e50009" fill-opacity="1"><g transform="translate(0.412162, 92.910472)"><g><path d="M 24.9375 -43.28125 L 24.9375 -7.9375 C 24.9375 -7.039062 24.765625 -6.113281 24.421875 -5.15625 C 24.078125 -4.1875 23.5625 -3.328125 22.875 -2.578125 C 22.125 -1.753906 21.195312 -1.101562 20.09375 -0.625 C 19 -0.0703125 17.726562 0.203125 16.28125 0.203125 C 14.84375 0.203125 13.609375 -0.0703125 12.578125 -0.625 C 11.472656 -1.101562 10.578125 -1.753906 9.890625 -2.578125 C 9.140625 -3.398438 8.59375 -4.289062 8.25 -5.25 C 7.832031 -6.21875 7.625 -7.144531 7.625 -8.03125 L 7.625 -64.8125 C 7.625 -65.707031 7.832031 -66.632812 8.25 -67.59375 C 8.59375 -68.5625 9.140625 -69.457031 9.890625 -70.28125 C 10.648438 -71.03125 11.578125 -71.679688 12.671875 -72.234375 C 13.703125 -72.710938 14.941406 -72.953125 16.390625 -72.953125 C 19.128906 -72.953125 21.289062 -72.0625 22.875 -70.28125 L 43.078125 -48.4375 L 63.78125 -70.078125 C 64.539062 -70.828125 65.503906 -71.441406 66.671875 -71.921875 C 67.765625 -72.398438 68.96875 -72.640625 70.28125 -72.640625 C 71.71875 -72.640625 72.988281 -72.398438 74.09375 -71.921875 C 75.125 -71.441406 76.015625 -70.828125 76.765625 -70.078125 C 77.523438 -69.242188 78.109375 -68.382812 78.515625 -67.5 C 78.859375 -66.53125 79.03125 -65.566406 79.03125 -64.609375 L 79.03125 -7.828125 C 79.03125 -6.929688 78.859375 -6.003906 78.515625 -5.046875 C 78.109375 -4.085938 77.5625 -3.226562 76.875 -2.46875 C 76.113281 -1.644531 75.21875 -0.992188 74.1875 -0.515625 C 73.09375 0.0351562 71.820312 0.3125 70.375 0.3125 C 68.9375 0.3125 67.703125 0.0351562 66.671875 -0.515625 C 65.566406 -0.992188 64.671875 -1.644531 63.984375 -2.46875 C 63.234375 -3.289062 62.6875 -4.1875 62.34375 -5.15625 C 61.925781 -6.113281 61.71875 -7.039062 61.71875 -7.9375 L 61.71875 -43.28125 L 48.015625 -29.0625 C 47.472656 -28.507812 46.820312 -28.023438 46.0625 -27.609375 C 45.238281 -27.203125 44.3125 -27 43.28125 -27 C 42.320312 -27 41.460938 -27.203125 40.703125 -27.609375 C 39.878906 -28.023438 39.191406 -28.507812 38.640625 -29.0625 Z M 24.9375 -43.28125 "/></g></g></g><g fill="#e85706" fill-opacity="1"><g transform="translate(86.272161, 92.910472)"><g><path d="M 7.515625 -8.03125 L 7.515625 -64.8125 C 7.515625 -65.707031 7.722656 -66.632812 8.140625 -67.59375 C 8.484375 -68.5625 9.035156 -69.457031 9.796875 -70.28125 C 10.546875 -71.03125 11.472656 -71.679688 12.578125 -72.234375 C 13.609375 -72.710938 14.84375 -72.953125 16.28125 -72.953125 C 17.726562 -72.953125 19 -72.710938 20.09375 -72.234375 C 21.125 -71.679688 22.015625 -71.03125 22.765625 -70.28125 C 23.523438 -69.519531 24.113281 -68.660156 24.53125 -67.703125 C 24.875 -66.742188 25.046875 -65.78125 25.046875 -64.8125 L 25.046875 -8.140625 C 25.046875 -7.242188 24.875 -6.316406 24.53125 -5.359375 C 24.1875 -4.398438 23.671875 -3.539062 22.984375 -2.78125 C 22.222656 -1.957031 21.296875 -1.304688 20.203125 -0.828125 C 19.097656 -0.273438 17.828125 0 16.390625 0 C 15.015625 0 13.773438 -0.238281 12.671875 -0.71875 C 11.578125 -1.195312 10.648438 -1.816406 9.890625 -2.578125 C 9.140625 -3.328125 8.554688 -4.1875 8.140625 -5.15625 C 7.722656 -6.113281 7.515625 -7.070312 7.515625 -8.03125 Z M 7.515625 -8.03125 "/></g></g></g><g fill="#ed9305" fill-opacity="1"><g transform="translate(117.811536, 92.910472)"><g><path d="M 24.9375 -41.84375 L 24.9375 -8.03125 C 24.9375 -7.144531 24.765625 -6.21875 24.421875 -5.25 C 24.078125 -4.289062 23.5625 -3.429688 22.875 -2.671875 C 22.125 -1.847656 21.195312 -1.195312 20.09375 -0.71875 C 19 -0.164062 17.726562 0.109375 16.28125 0.109375 C 14.84375 0.109375 13.609375 -0.164062 12.578125 -0.71875 C 11.472656 -1.195312 10.578125 -1.847656 9.890625 -2.671875 C 9.140625 -3.503906 8.59375 -4.398438 8.25 -5.359375 C 7.832031 -6.316406 7.625 -7.242188 7.625 -8.140625 L 7.625 -64.8125 C 7.625 -65.78125 7.832031 -66.742188 8.25 -67.703125 C 8.59375 -68.660156 9.140625 -69.550781 9.890625 -70.375 C 10.648438 -71.132812 11.578125 -71.789062 12.671875 -72.34375 C 13.703125 -72.820312 14.941406 -73.0625 16.390625 -73.0625 C 17.828125 -73.0625 19.128906 -72.785156 20.296875 -72.234375 C 21.460938 -71.617188 22.425781 -70.898438 23.1875 -70.078125 L 56.46875 -31.53125 L 56.46875 -64.71875 C 56.46875 -65.601562 56.675781 -66.53125 57.09375 -67.5 C 57.4375 -68.457031 57.984375 -69.347656 58.734375 -70.171875 C 59.492188 -70.929688 60.421875 -71.585938 61.515625 -72.140625 C 62.546875 -72.617188 63.785156 -72.859375 65.234375 -72.859375 C 66.671875 -72.859375 67.941406 -72.617188 69.046875 -72.140625 C 70.078125 -71.585938 70.96875 -70.929688 71.71875 -70.171875 C 72.476562 -69.421875 73.0625 -68.5625 73.46875 -67.59375 C 73.8125 -66.632812 73.984375 -65.707031 73.984375 -64.8125 L 73.984375 -8.03125 C 73.984375 -7.144531 73.8125 -6.21875 73.46875 -5.25 C 73.0625 -4.289062 72.515625 -3.429688 71.828125 -2.671875 C 71.066406 -1.847656 70.171875 -1.195312 69.140625 -0.71875 C 68.046875 -0.164062 66.773438 0.109375 65.328125 0.109375 C 63.890625 0.109375 62.585938 -0.203125 61.421875 -0.828125 C 60.253906 -1.378906 59.289062 -2.097656 58.53125 -2.984375 Z M 24.9375 -41.84375 "/></g></g></g><g fill="#f3b13f" fill-opacity="1"><g transform="translate(198.406535, 92.910472)"><g><path d="M 7.515625 -8.03125 L 7.515625 -64.8125 C 7.515625 -65.707031 7.722656 -66.632812 8.140625 -67.59375 C 8.484375 -68.5625 9.035156 -69.457031 9.796875 -70.28125 C 10.546875 -71.03125 11.472656 -71.679688 12.578125 -72.234375 C 13.609375 -72.710938 14.84375 -72.953125 16.28125 -72.953125 C 17.726562 -72.953125 19 -72.710938 20.09375 -72.234375 C 21.125 -71.679688 22.015625 -71.03125 22.765625 -70.28125 C 23.523438 -69.519531 24.113281 -68.660156 24.53125 -67.703125 C 24.875 -66.742188 25.046875 -65.78125 25.046875 -64.8125 L 25.046875 -8.140625 C 25.046875 -7.242188 24.875 -6.316406 24.53125 -5.359375 C 24.1875 -4.398438 23.671875 -3.539062 22.984375 -2.78125 C 22.222656 -1.957031 21.296875 -1.304688 20.203125 -0.828125 C 19.097656 -0.273438 17.828125 0 16.390625 0 C 15.015625 0 13.773438 -0.238281 12.671875 -0.71875 C 11.578125 -1.195312 10.648438 -1.816406 9.890625 -2.578125 C 9.140625 -3.328125 8.554688 -4.1875 8.140625 -5.15625 C 7.722656 -6.113281 7.515625 -7.070312 7.515625 -8.03125 Z M 7.515625 -8.03125 "/></g></g></g><g fill="#94bf28" fill-opacity="1"><g transform="translate(229.945909, 92.910472)"><g><path d="M 24.9375 -43.28125 L 24.9375 -7.9375 C 24.9375 -7.039062 24.765625 -6.113281 24.421875 -5.15625 C 24.078125 -4.1875 23.5625 -3.328125 22.875 -2.578125 C 22.125 -1.753906 21.195312 -1.101562 20.09375 -0.625 C 19 -0.0703125 17.726562 0.203125 16.28125 0.203125 C 14.84375 0.203125 13.609375 -0.0703125 12.578125 -0.625 C 11.472656 -1.101562 10.578125 -1.753906 9.890625 -2.578125 C 9.140625 -3.398438 8.59375 -4.289062 8.25 -5.25 C 7.832031 -6.21875 7.625 -7.144531 7.625 -8.03125 L 7.625 -64.8125 C 7.625 -65.707031 7.832031 -66.632812 8.25 -67.59375 C 8.59375 -68.5625 9.140625 -69.457031 9.890625 -70.28125 C 10.648438 -71.03125 11.578125 -71.679688 12.671875 -72.234375 C 13.703125 -72.710938 14.941406 -72.953125 16.390625 -72.953125 C 19.128906 -72.953125 21.289062 -72.0625 22.875 -70.28125 L 43.078125 -48.4375 L 63.78125 -70.078125 C 64.539062 -70.828125 65.503906 -71.441406 66.671875 -71.921875 C 67.765625 -72.398438 68.96875 -72.640625 70.28125 -72.640625 C 71.71875 -72.640625 72.988281 -72.398438 74.09375 -71.921875 C 75.125 -71.441406 76.015625 -70.828125 76.765625 -70.078125 C 77.523438 -69.242188 78.109375 -68.382812 78.515625 -67.5 C 78.859375 -66.53125 79.03125 -65.566406 79.03125 -64.609375 L 79.03125 -7.828125 C 79.03125 -6.929688 78.859375 -6.003906 78.515625 -5.046875 C 78.109375 -4.085938 77.5625 -3.226562 76.875 -2.46875 C 76.113281 -1.644531 75.21875 -0.992188 74.1875 -0.515625 C 73.09375 0.0351562 71.820312 0.3125 70.375 0.3125 C 68.9375 0.3125 67.703125 0.0351562 66.671875 -0.515625 C 65.566406 -0.992188 64.671875 -1.644531 63.984375 -2.46875 C 63.234375 -3.289062 62.6875 -4.1875 62.34375 -5.15625 C 61.925781 -6.113281 61.71875 -7.039062 61.71875 -7.9375 L 61.71875 -43.28125 L 48.015625 -29.0625 C 47.472656 -28.507812 46.820312 -28.023438 46.0625 -27.609375 C 45.238281 -27.203125 44.3125 -27 43.28125 -27 C 42.320312 -27 41.460938 -27.203125 40.703125 -27.609375 C 39.878906 -28.023438 39.191406 -28.507812 38.640625 -29.0625 Z M 24.9375 -43.28125 "/></g></g></g><g fill="#2da969" fill-opacity="1"><g transform="translate(314.261854, 92.910472)"><g><path d="M 49.984375 -66.671875 L 72.140625 -11.03125 C 72.546875 -10.207031 72.75 -9.242188 72.75 -8.140625 C 72.75 -7.242188 72.578125 -6.316406 72.234375 -5.359375 C 71.828125 -4.398438 71.242188 -3.539062 70.484375 -2.78125 C 69.722656 -2.03125 68.832031 -1.410156 67.8125 -0.921875 C 66.707031 -0.378906 65.429688 -0.109375 63.984375 -0.109375 C 61.859375 -0.109375 60.109375 -0.65625 58.734375 -1.75 C 57.359375 -2.851562 56.394531 -4.09375 55.84375 -5.46875 L 50.1875 -19.984375 C 49.84375 -20.535156 49.429688 -20.8125 48.953125 -20.8125 L 31.53125 -20.8125 C 31.320312 -20.8125 31.117188 -20.742188 30.921875 -20.609375 C 30.640625 -20.472656 30.429688 -20.265625 30.296875 -19.984375 L 24.53125 -5.46875 C 23.976562 -4.09375 23.015625 -2.851562 21.640625 -1.75 C 20.265625 -0.65625 18.515625 -0.109375 16.390625 -0.109375 C 15.015625 -0.109375 13.773438 -0.378906 12.671875 -0.921875 C 11.578125 -1.410156 10.6875 -2.03125 10 -2.78125 C 9.238281 -3.539062 8.6875 -4.398438 8.34375 -5.359375 C 7.9375 -6.316406 7.734375 -7.242188 7.734375 -8.140625 C 7.734375 -9.171875 7.90625 -10.132812 8.25 -11.03125 L 30.40625 -66.671875 C 31.082031 -68.390625 32.316406 -69.898438 34.109375 -71.203125 C 35.828125 -72.441406 37.890625 -73.0625 40.296875 -73.0625 C 42.691406 -73.0625 44.75 -72.410156 46.46875 -71.109375 C 48.1875 -69.796875 49.359375 -68.316406 49.984375 -66.671875 Z M 40.1875 -44.625 C 39.632812 -43.457031 39.117188 -42.285156 38.640625 -41.109375 C 38.160156 -39.878906 37.679688 -38.644531 37.203125 -37.40625 C 37.203125 -37.269531 37.132812 -37.132812 37 -37 L 43.171875 -37 C 43.171875 -37.0625 43.101562 -37.234375 42.96875 -37.515625 C 42.832031 -38.054688 42.628906 -38.640625 42.359375 -39.265625 C 42.078125 -39.878906 41.800781 -40.53125 41.53125 -41.21875 C 41.320312 -41.832031 41.113281 -42.414062 40.90625 -42.96875 C 40.632812 -43.519531 40.394531 -44.070312 40.1875 -44.625 Z M 40.1875 -44.625 "/></g></g></g><g fill="#1c9c9a" fill-opacity="1"><g transform="translate(390.730907, 92.910472)"><g><path d="M 35.75 -0.203125 C 33.414062 -0.203125 31.046875 -0.34375 28.640625 -0.625 C 26.242188 -0.894531 23.910156 -1.375 21.640625 -2.0625 C 19.304688 -2.675781 17.109375 -3.566406 15.046875 -4.734375 C 12.984375 -5.898438 11.160156 -7.414062 9.578125 -9.28125 C 8.203125 -10.851562 7.515625 -12.601562 7.515625 -14.53125 C 7.515625 -15.425781 7.722656 -16.351562 8.140625 -17.3125 C 8.484375 -18.269531 9.035156 -19.160156 9.796875 -19.984375 C 10.472656 -20.816406 11.363281 -21.503906 12.46875 -22.046875 C 13.5 -22.523438 14.734375 -22.765625 16.171875 -22.765625 C 17.890625 -22.765625 19.265625 -22.457031 20.296875 -21.84375 C 21.328125 -21.15625 22.425781 -20.296875 23.59375 -19.265625 C 24.28125 -18.648438 25.140625 -18.171875 26.171875 -17.828125 C 27.203125 -17.410156 28.300781 -17.132812 29.46875 -17 C 30.570312 -16.789062 31.671875 -16.65625 32.765625 -16.59375 C 33.867188 -16.519531 34.863281 -16.484375 35.75 -16.484375 C 38.976562 -16.484375 41.625 -16.929688 43.6875 -17.828125 C 45.6875 -18.722656 46.6875 -20.269531 46.6875 -22.46875 C 46.6875 -23.351562 46.546875 -24.039062 46.265625 -24.53125 C 45.921875 -25.070312 45.234375 -25.585938 44.203125 -26.078125 C 43.109375 -26.484375 41.941406 -26.894531 40.703125 -27.3125 C 39.460938 -27.65625 38.257812 -27.960938 37.09375 -28.234375 C 35.925781 -28.503906 35.035156 -28.675781 34.421875 -28.75 C 31.398438 -29.507812 28.375 -30.367188 25.34375 -31.328125 C 22.320312 -32.285156 19.609375 -33.585938 17.203125 -35.234375 C 14.804688 -36.816406 12.847656 -38.878906 11.328125 -41.421875 C 9.816406 -43.898438 9.0625 -47.0625 9.0625 -50.90625 C 9.0625 -54.132812 9.75 -57.125 11.125 -59.875 C 12.5 -62.613281 14.390625 -64.984375 16.796875 -66.984375 C 19.128906 -68.898438 21.945312 -70.410156 25.25 -71.515625 C 28.539062 -72.609375 32.078125 -73.15625 35.859375 -73.15625 C 39.773438 -73.15625 43.453125 -72.609375 46.890625 -71.515625 C 50.253906 -70.410156 53.238281 -68.519531 55.84375 -65.84375 C 57.5 -64.195312 58.328125 -62.273438 58.328125 -60.078125 C 58.328125 -59.179688 58.15625 -58.253906 57.8125 -57.296875 C 57.394531 -56.328125 56.84375 -55.46875 56.15625 -54.71875 C 55.40625 -53.957031 54.515625 -53.335938 53.484375 -52.859375 C 52.378906 -52.304688 51.109375 -52.03125 49.671875 -52.03125 C 47.472656 -52.03125 45.546875 -52.71875 43.890625 -54.09375 C 43.210938 -54.644531 42.597656 -55.128906 42.046875 -55.546875 C 41.492188 -55.890625 40.941406 -56.160156 40.390625 -56.359375 C 39.773438 -56.566406 39.125 -56.707031 38.4375 -56.78125 C 37.75 -56.84375 36.925781 -56.875 35.96875 -56.875 C 33.21875 -56.875 30.945312 -56.328125 29.15625 -55.234375 C 27.375 -54.128906 26.484375 -52.582031 26.484375 -50.59375 C 26.484375 -49.632812 26.617188 -48.984375 26.890625 -48.640625 C 27.367188 -48.085938 28.125 -47.609375 29.15625 -47.203125 C 30.125 -46.710938 31.222656 -46.296875 32.453125 -45.953125 C 33.628906 -45.609375 34.800781 -45.335938 35.96875 -45.140625 C 37.0625 -44.859375 37.953125 -44.648438 38.640625 -44.515625 C 41.660156 -43.828125 44.679688 -43.003906 47.703125 -42.046875 C 50.734375 -41.078125 53.445312 -39.769531 55.84375 -38.125 C 58.25 -36.476562 60.207031 -34.414062 61.71875 -31.9375 C 63.164062 -29.394531 63.890625 -26.238281 63.890625 -22.46875 C 63.890625 -18.894531 63.164062 -15.734375 61.71875 -12.984375 C 60.28125 -10.234375 58.320312 -7.929688 55.84375 -6.078125 C 53.300781 -4.148438 50.316406 -2.707031 46.890625 -1.75 C 43.453125 -0.71875 39.738281 -0.203125 35.75 -0.203125 Z M 35.75 -0.203125 "/></g></g></g><g fill="#0289cf" fill-opacity="1"><g transform="translate(455.049977, 92.910472)"><g><path d="M 16.28125 -72.859375 L 60.171875 -72.859375 C 61.617188 -72.859375 62.890625 -72.617188 63.984375 -72.140625 C 65.015625 -71.585938 65.910156 -70.929688 66.671875 -70.171875 C 67.429688 -69.421875 68.015625 -68.5625 68.421875 -67.59375 C 68.765625 -66.632812 68.9375 -65.707031 68.9375 -64.8125 C 68.9375 -63.925781 68.765625 -63 68.421875 -62.03125 C 68.078125 -61 67.5625 -60.109375 66.875 -59.359375 C 66.125 -58.597656 65.195312 -57.976562 64.09375 -57.5 C 63 -56.945312 61.726562 -56.671875 60.28125 -56.671875 L 48.328125 -56.671875 C 48.117188 -56.671875 47.84375 -56.535156 47.5 -56.265625 C 47.15625 -55.984375 46.984375 -55.570312 46.984375 -55.03125 L 46.984375 -8.03125 C 46.984375 -7.144531 46.8125 -6.21875 46.46875 -5.25 C 46.125 -4.289062 45.609375 -3.429688 44.921875 -2.671875 C 44.171875 -1.847656 43.242188 -1.195312 42.140625 -0.71875 C 41.046875 -0.164062 39.773438 0.109375 38.328125 0.109375 C 36.890625 0.109375 35.65625 -0.164062 34.625 -0.71875 C 33.519531 -1.195312 32.625 -1.847656 31.9375 -2.671875 C 31.1875 -3.503906 30.640625 -4.398438 30.296875 -5.359375 C 29.878906 -6.316406 29.671875 -7.242188 29.671875 -8.140625 L 29.671875 -55.125 C 29.671875 -55.675781 29.535156 -56.085938 29.265625 -56.359375 C 28.921875 -56.640625 28.613281 -56.78125 28.34375 -56.78125 L 16.390625 -56.78125 C 15.015625 -56.78125 13.773438 -57.019531 12.671875 -57.5 C 11.578125 -57.914062 10.648438 -58.5 9.890625 -59.25 C 9.140625 -60.007812 8.554688 -60.867188 8.140625 -61.828125 C 7.722656 -62.722656 7.515625 -63.6875 7.515625 -64.71875 C 7.515625 -65.601562 7.722656 -66.53125 8.140625 -67.5 C 8.484375 -68.457031 9.035156 -69.347656 9.796875 -70.171875 C 10.546875 -70.929688 11.472656 -71.585938 12.578125 -72.140625 C 13.609375 -72.617188 14.84375 -72.859375 16.28125 -72.859375 Z M 16.28125 -72.859375 "/></g></g></g><g fill="#085ba6" fill-opacity="1"><g transform="translate(530.607781, 92.910472)"><g><path d="M 16.390625 0 C 15.078125 0 13.875 -0.238281 12.78125 -0.71875 C 11.613281 -1.132812 10.648438 -1.71875 9.890625 -2.46875 C 9.066406 -3.226562 8.445312 -4.085938 8.03125 -5.046875 C 7.550781 -6.003906 7.3125 -7 7.3125 -8.03125 L 7.3125 -64.8125 C 7.3125 -65.707031 7.519531 -66.632812 7.9375 -67.59375 C 8.28125 -68.5625 8.828125 -69.457031 9.578125 -70.28125 C 10.335938 -71.03125 11.265625 -71.679688 12.359375 -72.234375 C 13.390625 -72.710938 14.628906 -72.953125 16.078125 -72.953125 L 45.234375 -72.953125 C 46.679688 -72.953125 47.953125 -72.710938 49.046875 -72.234375 C 50.078125 -71.679688 50.972656 -71.03125 51.734375 -70.28125 C 52.484375 -69.519531 53.066406 -68.660156 53.484375 -67.703125 C 53.828125 -66.742188 54 -65.78125 54 -64.8125 C 54 -63.925781 53.828125 -63 53.484375 -62.03125 C 53.140625 -61.070312 52.625 -60.210938 51.9375 -59.453125 C 51.175781 -58.703125 50.25 -58.085938 49.15625 -57.609375 C 48.050781 -57.054688 46.78125 -56.78125 45.34375 -56.78125 L 26.171875 -56.78125 C 25.960938 -56.78125 25.6875 -56.640625 25.34375 -56.359375 C 25 -56.085938 24.828125 -55.675781 24.828125 -55.125 L 24.828125 -48.015625 C 24.828125 -47.472656 25 -47.097656 25.34375 -46.890625 C 25.6875 -46.609375 25.960938 -46.46875 26.171875 -46.46875 L 39.984375 -46.46875 C 41.421875 -46.46875 42.691406 -46.226562 43.796875 -45.75 C 44.828125 -45.195312 45.71875 -44.546875 46.46875 -43.796875 C 47.226562 -43.035156 47.8125 -42.175781 48.21875 -41.21875 C 48.5625 -40.257812 48.734375 -39.296875 48.734375 -38.328125 C 48.734375 -37.441406 48.5625 -36.515625 48.21875 -35.546875 C 47.8125 -34.585938 47.265625 -33.726562 46.578125 -32.96875 C 45.816406 -32.144531 44.921875 -31.492188 43.890625 -31.015625 C 42.796875 -30.460938 41.523438 -30.1875 40.078125 -30.1875 L 26.28125 -30.1875 C 26.070312 -30.1875 25.796875 -30.050781 25.453125 -29.78125 C 25.109375 -29.507812 24.9375 -29.097656 24.9375 -28.546875 L 24.9375 -17.828125 C 24.9375 -17.273438 25.109375 -16.894531 25.453125 -16.6875 C 25.796875 -16.414062 26.070312 -16.28125 26.28125 -16.28125 L 45.4375 -16.28125 C 46.882812 -16.28125 48.15625 -16.039062 49.25 -15.5625 C 50.28125 -15.007812 51.175781 -14.359375 51.9375 -13.609375 C 52.6875 -12.847656 53.269531 -11.988281 53.6875 -11.03125 C 54.03125 -10.0625 54.203125 -9.097656 54.203125 -8.140625 C 54.203125 -7.242188 54.03125 -6.316406 53.6875 -5.359375 C 53.34375 -4.398438 52.828125 -3.539062 52.140625 -2.78125 C 51.390625 -1.957031 50.460938 -1.304688 49.359375 -0.828125 C 48.253906 -0.273438 46.984375 0 45.546875 0 Z M 16.390625 0 "/></g></g></g><g fill="#803684" fill-opacity="1"><g transform="translate(591.307155, 92.910472)"><g><path d="M 44.921875 -30.8125 C 45.128906 -30.332031 45.507812 -29.644531 46.0625 -28.75 C 46.613281 -27.925781 47.234375 -27 47.921875 -25.96875 C 48.535156 -24.863281 49.222656 -23.726562 49.984375 -22.5625 C 51.421875 -20.226562 52.789062 -18.066406 54.09375 -16.078125 C 55.332031 -14.085938 56.125 -12.816406 56.46875 -12.265625 C 57.289062 -11.023438 57.703125 -9.648438 57.703125 -8.140625 C 57.703125 -7.242188 57.53125 -6.316406 57.1875 -5.359375 C 56.78125 -4.328125 56.234375 -3.429688 55.546875 -2.671875 C 54.785156 -1.921875 53.890625 -1.304688 52.859375 -0.828125 C 51.765625 -0.273438 50.492188 0 49.046875 0 C 47.328125 0 45.851562 -0.378906 44.625 -1.140625 C 43.3125 -1.890625 42.28125 -2.847656 41.53125 -4.015625 L 27.09375 -27.203125 C 26.6875 -27.753906 26.242188 -28.03125 25.765625 -28.03125 C 25.691406 -28.03125 25.550781 -27.992188 25.34375 -27.921875 C 25.144531 -27.785156 25.046875 -27.476562 25.046875 -27 L 25.046875 -8.140625 C 25.046875 -7.242188 24.875 -6.316406 24.53125 -5.359375 C 24.1875 -4.398438 23.671875 -3.539062 22.984375 -2.78125 C 22.222656 -1.957031 21.296875 -1.304688 20.203125 -0.828125 C 19.097656 -0.273438 17.828125 0 16.390625 0 C 14.941406 0 13.703125 -0.273438 12.671875 -0.828125 C 11.578125 -1.304688 10.6875 -1.957031 10 -2.78125 C 9.238281 -3.601562 8.6875 -4.5 8.34375 -5.46875 C 7.9375 -6.425781 7.734375 -7.351562 7.734375 -8.25 L 7.734375 -64.921875 C 7.734375 -65.878906 7.9375 -66.84375 8.34375 -67.8125 C 8.6875 -68.769531 9.238281 -69.660156 10 -70.484375 C 10.75 -71.242188 11.675781 -71.894531 12.78125 -72.4375 C 13.8125 -72.914062 15.046875 -73.15625 16.484375 -73.15625 L 33.28125 -73.15625 C 37.132812 -73.15625 40.570312 -72.539062 43.59375 -71.3125 C 46.539062 -70 49.046875 -68.28125 51.109375 -66.15625 C 53.097656 -64.03125 54.644531 -61.625 55.75 -58.9375 C 56.78125 -56.195312 57.296875 -53.414062 57.296875 -50.59375 C 57.296875 -45.851562 56.226562 -41.9375 54.09375 -38.84375 C 51.96875 -35.6875 48.910156 -33.007812 44.921875 -30.8125 Z M 24.9375 -46.0625 C 24.9375 -45.507812 25.109375 -45.097656 25.453125 -44.828125 C 25.796875 -44.546875 26.070312 -44.40625 26.28125 -44.40625 L 33.078125 -44.40625 C 35.203125 -44.40625 36.851562 -44.957031 38.03125 -46.0625 C 39.125 -47.09375 39.671875 -48.601562 39.671875 -50.59375 C 39.671875 -52.582031 39.125 -54.128906 38.03125 -55.234375 C 36.851562 -56.265625 35.203125 -56.78125 33.078125 -56.78125 L 26.28125 -56.78125 C 26.070312 -56.78125 25.796875 -56.640625 25.453125 -56.359375 C 25.109375 -56.085938 24.9375 -55.675781 24.9375 -55.125 Z M 24.9375 -46.0625 "/></g></g></g><g fill="#b80282" fill-opacity="1"><g transform="translate(655.727475, 92.910472)"><g><path d="M 35.75 -0.203125 C 33.414062 -0.203125 31.046875 -0.34375 28.640625 -0.625 C 26.242188 -0.894531 23.910156 -1.375 21.640625 -2.0625 C 19.304688 -2.675781 17.109375 -3.566406 15.046875 -4.734375 C 12.984375 -5.898438 11.160156 -7.414062 9.578125 -9.28125 C 8.203125 -10.851562 7.515625 -12.601562 7.515625 -14.53125 C 7.515625 -15.425781 7.722656 -16.351562 8.140625 -17.3125 C 8.484375 -18.269531 9.035156 -19.160156 9.796875 -19.984375 C 10.472656 -20.816406 11.363281 -21.503906 12.46875 -22.046875 C 13.5 -22.523438 14.734375 -22.765625 16.171875 -22.765625 C 17.890625 -22.765625 19.265625 -22.457031 20.296875 -21.84375 C 21.328125 -21.15625 22.425781 -20.296875 23.59375 -19.265625 C 24.28125 -18.648438 25.140625 -18.171875 26.171875 -17.828125 C 27.203125 -17.410156 28.300781 -17.132812 29.46875 -17 C 30.570312 -16.789062 31.671875 -16.65625 32.765625 -16.59375 C 33.867188 -16.519531 34.863281 -16.484375 35.75 -16.484375 C 38.976562 -16.484375 41.625 -16.929688 43.6875 -17.828125 C 45.6875 -18.722656 46.6875 -20.269531 46.6875 -22.46875 C 46.6875 -23.351562 46.546875 -24.039062 46.265625 -24.53125 C 45.921875 -25.070312 45.234375 -25.585938 44.203125 -26.078125 C 43.109375 -26.484375 41.941406 -26.894531 40.703125 -27.3125 C 39.460938 -27.65625 38.257812 -27.960938 37.09375 -28.234375 C 35.925781 -28.503906 35.035156 -28.675781 34.421875 -28.75 C 31.398438 -29.507812 28.375 -30.367188 25.34375 -31.328125 C 22.320312 -32.285156 19.609375 -33.585938 17.203125 -35.234375 C 14.804688 -36.816406 12.847656 -38.878906 11.328125 -41.421875 C 9.816406 -43.898438 9.0625 -47.0625 9.0625 -50.90625 C 9.0625 -54.132812 9.75 -57.125 11.125 -59.875 C 12.5 -62.613281 14.390625 -64.984375 16.796875 -66.984375 C 19.128906 -68.898438 21.945312 -70.410156 25.25 -71.515625 C 28.539062 -72.609375 32.078125 -73.15625 35.859375 -73.15625 C 39.773438 -73.15625 43.453125 -72.609375 46.890625 -71.515625 C 50.253906 -70.410156 53.238281 -68.519531 55.84375 -65.84375 C 57.5 -64.195312 58.328125 -62.273438 58.328125 -60.078125 C 58.328125 -59.179688 58.15625 -58.253906 57.8125 -57.296875 C 57.394531 -56.328125 56.84375 -55.46875 56.15625 -54.71875 C 55.40625 -53.957031 54.515625 -53.335938 53.484375 -52.859375 C 52.378906 -52.304688 51.109375 -52.03125 49.671875 -52.03125 C 47.472656 -52.03125 45.546875 -52.71875 43.890625 -54.09375 C 43.210938 -54.644531 42.597656 -55.128906 42.046875 -55.546875 C 41.492188 -55.890625 40.941406 -56.160156 40.390625 -56.359375 C 39.773438 -56.566406 39.125 -56.707031 38.4375 -56.78125 C 37.75 -56.84375 36.925781 -56.875 35.96875 -56.875 C 33.21875 -56.875 30.945312 -56.328125 29.15625 -55.234375 C 27.375 -54.128906 26.484375 -52.582031 26.484375 -50.59375 C 26.484375 -49.632812 26.617188 -48.984375 26.890625 -48.640625 C 27.367188 -48.085938 28.125 -47.609375 29.15625 -47.203125 C 30.125 -46.710938 31.222656 -46.296875 32.453125 -45.953125 C 33.628906 -45.609375 34.800781 -45.335938 35.96875 -45.140625 C 37.0625 -44.859375 37.953125 -44.648438 38.640625 -44.515625 C 41.660156 -43.828125 44.679688 -43.003906 47.703125 -42.046875 C 50.734375 -41.078125 53.445312 -39.769531 55.84375 -38.125 C 58.25 -36.476562 60.207031 -34.414062 61.71875 -31.9375 C 63.164062 -29.394531 63.890625 -26.238281 63.890625 -22.46875 C 63.890625 -18.894531 63.164062 -15.734375 61.71875 -12.984375 C 60.28125 -10.234375 58.320312 -7.929688 55.84375 -6.078125 C 53.300781 -4.148438 50.316406 -2.707031 46.890625 -1.75 C 43.453125 -0.71875 39.738281 -0.203125 35.75 -0.203125 Z M 35.75 -0.203125 "/></g></g></g></g></g><g transform="matrix(1, 0, 0, 1, 153, 761)"><g clip-path="url(#6e750dbf98)"><path fill="#fdf9ef" d="M 18.960938 1.394531 L 485.035156 1.394531 C 494.671875 1.394531 502.484375 9.207031 502.484375 18.84375 L 502.484375 40.234375 C 502.484375 49.871094 494.671875 57.683594 485.035156 57.683594 L 18.960938 57.683594 C 9.324219 57.683594 1.511719 49.871094 1.511719 40.234375 L 1.511719 18.84375 C 1.511719 9.207031 9.324219 1.394531 18.960938 1.394531 Z M 18.960938 1.394531 " fill-opacity="1" fill-rule="nonzero"/><g fill="#e50009" fill-opacity="1"><g transform="translate(35.883989, 40.069522)"><g><path d="M 9.734375 -8.203125 L 7.75 -8.203125 C 7.6875 -8.203125 7.601562 -8.160156 7.5 -8.078125 C 7.394531 -7.992188 7.34375 -7.875 7.34375 -7.71875 L 7.34375 -2.359375 C 7.34375 -2.097656 7.296875 -1.828125 7.203125 -1.546875 C 7.097656 -1.265625 6.945312 -1.007812 6.75 -0.78125 C 6.519531 -0.539062 6.242188 -0.351562 5.921875 -0.21875 C 5.597656 -0.0507812 5.226562 0.03125 4.8125 0.03125 C 4.382812 0.03125 4.019531 -0.0507812 3.71875 -0.21875 C 3.394531 -0.351562 3.132812 -0.539062 2.9375 -0.78125 C 2.707031 -1.03125 2.546875 -1.296875 2.453125 -1.578125 C 2.328125 -1.859375 2.265625 -2.128906 2.265625 -2.390625 L 2.265625 -19.03125 C 2.265625 -19.3125 2.328125 -19.59375 2.453125 -19.875 C 2.546875 -20.15625 2.707031 -20.414062 2.9375 -20.65625 C 3.15625 -20.882812 3.425781 -21.078125 3.75 -21.234375 C 4.050781 -21.378906 4.414062 -21.453125 4.84375 -21.453125 L 9.765625 -21.453125 C 10.898438 -21.453125 11.910156 -21.269531 12.796875 -20.90625 C 13.660156 -20.519531 14.394531 -20.015625 15 -19.390625 C 15.582031 -18.765625 16.023438 -18.054688 16.328125 -17.265625 C 16.628906 -16.460938 16.78125 -15.648438 16.78125 -14.828125 C 16.78125 -13.992188 16.628906 -13.1875 16.328125 -12.40625 C 16.003906 -11.59375 15.550781 -10.882812 14.96875 -10.28125 C 14.363281 -9.65625 13.628906 -9.148438 12.765625 -8.765625 C 11.878906 -8.390625 10.867188 -8.203125 9.734375 -8.203125 Z M 7.34375 -13.515625 C 7.34375 -13.359375 7.394531 -13.238281 7.5 -13.15625 C 7.601562 -13.070312 7.6875 -13.03125 7.75 -13.03125 L 9.734375 -13.03125 C 10.359375 -13.03125 10.84375 -13.191406 11.1875 -13.515625 C 11.507812 -13.816406 11.671875 -14.265625 11.671875 -14.859375 C 11.671875 -15.441406 11.507812 -15.894531 11.1875 -16.21875 C 10.84375 -16.519531 10.359375 -16.671875 9.734375 -16.671875 L 7.75 -16.671875 C 7.6875 -16.671875 7.601562 -16.628906 7.5 -16.546875 C 7.394531 -16.460938 7.34375 -16.34375 7.34375 -16.1875 Z M 7.34375 -13.515625 "/></g></g></g><g fill="#e85706" fill-opacity="1"><g transform="translate(79.168363, 40.069522)"><g><path d="M 7.296875 -19.03125 L 7.296875 -5.203125 C 7.296875 -5.046875 7.34375 -4.9375 7.4375 -4.875 C 7.539062 -4.789062 7.625 -4.75 7.6875 -4.75 L 13.640625 -4.75 C 14.066406 -4.75 14.441406 -4.675781 14.765625 -4.53125 C 15.066406 -4.375 15.328125 -4.1875 15.546875 -3.96875 C 15.765625 -3.738281 15.9375 -3.484375 16.0625 -3.203125 C 16.164062 -2.921875 16.21875 -2.640625 16.21875 -2.359375 C 16.21875 -2.097656 16.164062 -1.828125 16.0625 -1.546875 C 15.957031 -1.265625 15.804688 -1.007812 15.609375 -0.78125 C 15.390625 -0.539062 15.117188 -0.351562 14.796875 -0.21875 C 14.472656 -0.0507812 14.097656 0.03125 13.671875 0.03125 L 4.78125 0.03125 C 4.351562 0.03125 3.988281 -0.0507812 3.6875 -0.21875 C 3.363281 -0.351562 3.101562 -0.539062 2.90625 -0.78125 C 2.6875 -1.03125 2.523438 -1.296875 2.421875 -1.578125 C 2.296875 -1.859375 2.234375 -2.128906 2.234375 -2.390625 L 2.234375 -19.03125 C 2.234375 -19.3125 2.296875 -19.59375 2.421875 -19.875 C 2.523438 -20.15625 2.6875 -20.414062 2.90625 -20.65625 C 3.125 -20.882812 3.394531 -21.078125 3.71875 -21.234375 C 4.019531 -21.378906 4.382812 -21.453125 4.8125 -21.453125 C 5.25 -21.453125 5.628906 -21.367188 5.953125 -21.203125 C 6.253906 -21.046875 6.507812 -20.84375 6.71875 -20.59375 C 6.914062 -20.351562 7.066406 -20.09375 7.171875 -19.8125 C 7.253906 -19.53125 7.296875 -19.269531 7.296875 -19.03125 Z M 7.296875 -19.03125 "/></g></g></g><g fill="#ed9305" fill-opacity="1"><g transform="translate(121.46555, 40.069522)"><g><path d="M 14.671875 -19.578125 L 21.171875 -3.234375 C 21.296875 -2.992188 21.359375 -2.710938 21.359375 -2.390625 C 21.359375 -2.128906 21.304688 -1.859375 21.203125 -1.578125 C 21.085938 -1.296875 20.914062 -1.039062 20.6875 -0.8125 C 20.46875 -0.59375 20.207031 -0.410156 19.90625 -0.265625 C 19.582031 -0.109375 19.207031 -0.03125 18.78125 -0.03125 C 18.15625 -0.03125 17.644531 -0.191406 17.25 -0.515625 C 16.84375 -0.835938 16.554688 -1.203125 16.390625 -1.609375 L 14.734375 -5.875 C 14.628906 -6.03125 14.507812 -6.109375 14.375 -6.109375 L 9.25 -6.109375 C 9.195312 -6.109375 9.140625 -6.085938 9.078125 -6.046875 C 8.992188 -6.003906 8.929688 -5.945312 8.890625 -5.875 L 7.203125 -1.609375 C 7.035156 -1.203125 6.753906 -0.835938 6.359375 -0.515625 C 5.953125 -0.191406 5.4375 -0.03125 4.8125 -0.03125 C 4.40625 -0.03125 4.039062 -0.109375 3.71875 -0.265625 C 3.394531 -0.410156 3.132812 -0.59375 2.9375 -0.8125 C 2.707031 -1.039062 2.546875 -1.296875 2.453125 -1.578125 C 2.328125 -1.859375 2.265625 -2.128906 2.265625 -2.390625 C 2.265625 -2.691406 2.316406 -2.972656 2.421875 -3.234375 L 8.921875 -19.578125 C 9.117188 -20.078125 9.484375 -20.519531 10.015625 -20.90625 C 10.515625 -21.269531 11.117188 -21.453125 11.828125 -21.453125 C 12.535156 -21.453125 13.140625 -21.257812 13.640625 -20.875 C 14.148438 -20.488281 14.492188 -20.054688 14.671875 -19.578125 Z M 11.796875 -13.09375 C 11.640625 -12.75 11.488281 -12.40625 11.34375 -12.0625 C 11.195312 -11.707031 11.054688 -11.347656 10.921875 -10.984375 C 10.921875 -10.941406 10.898438 -10.898438 10.859375 -10.859375 L 12.671875 -10.859375 C 12.671875 -10.878906 12.648438 -10.929688 12.609375 -11.015625 C 12.566406 -11.171875 12.507812 -11.34375 12.4375 -11.53125 C 12.351562 -11.707031 12.269531 -11.894531 12.1875 -12.09375 C 12.125 -12.28125 12.066406 -12.453125 12.015625 -12.609375 C 11.929688 -12.773438 11.859375 -12.9375 11.796875 -13.09375 Z M 11.796875 -13.09375 "/></g></g></g><g fill="#f3b13f" fill-opacity="1"><g transform="translate(164.724612, 40.069522)"><g><path d="M 10.796875 -14.28125 L 14.546875 -20.265625 C 14.753906 -20.585938 15.046875 -20.859375 15.421875 -21.078125 C 15.785156 -21.304688 16.222656 -21.421875 16.734375 -21.421875 C 17.148438 -21.421875 17.519531 -21.347656 17.84375 -21.203125 C 18.164062 -21.046875 18.441406 -20.851562 18.671875 -20.625 C 18.867188 -20.382812 19.019531 -20.125 19.125 -19.84375 C 19.21875 -19.5625 19.265625 -19.289062 19.265625 -19.03125 C 19.265625 -18.601562 19.144531 -18.1875 18.90625 -17.78125 L 13.4375 -9.046875 C 13.375 -8.984375 13.34375 -8.890625 13.34375 -8.765625 L 13.34375 -2.359375 C 13.34375 -2.097656 13.289062 -1.828125 13.1875 -1.546875 C 13.0625 -1.265625 12.898438 -1.007812 12.703125 -0.78125 C 12.484375 -0.539062 12.222656 -0.351562 11.921875 -0.21875 C 11.597656 -0.0507812 11.222656 0.03125 10.796875 0.03125 C 10.367188 0.03125 10 -0.0507812 9.6875 -0.21875 C 9.363281 -0.351562 9.097656 -0.539062 8.890625 -0.78125 C 8.671875 -1.03125 8.507812 -1.296875 8.40625 -1.578125 C 8.289062 -1.859375 8.234375 -2.128906 8.234375 -2.390625 L 8.234375 -8.796875 C 8.234375 -8.921875 8.203125 -9.015625 8.140625 -9.078125 L 2.65625 -17.8125 C 2.414062 -18.21875 2.296875 -18.632812 2.296875 -19.0625 C 2.296875 -19.320312 2.359375 -19.59375 2.484375 -19.875 C 2.578125 -20.15625 2.738281 -20.414062 2.96875 -20.65625 C 3.164062 -20.882812 3.425781 -21.078125 3.75 -21.234375 C 4.050781 -21.378906 4.414062 -21.453125 4.84375 -21.453125 C 5.34375 -21.453125 5.785156 -21.335938 6.171875 -21.109375 C 6.535156 -20.890625 6.828125 -20.617188 7.046875 -20.296875 Z M 10.796875 -14.28125 "/></g></g></g><g fill="#94bf28" fill-opacity="1"><g transform="translate(208.489924, 40.069522)"><g><path d="M 7.34375 -10.671875 C 7.34375 -9.828125 7.476562 -9.050781 7.75 -8.34375 C 7.988281 -7.625 8.359375 -7 8.859375 -6.46875 C 9.367188 -5.925781 9.992188 -5.503906 10.734375 -5.203125 C 11.484375 -4.898438 12.351562 -4.75 13.34375 -4.75 C 13.625 -4.75 13.9375 -4.769531 14.28125 -4.8125 C 14.625 -4.851562 14.957031 -4.910156 15.28125 -4.984375 C 15.601562 -5.066406 15.914062 -5.171875 16.21875 -5.296875 C 16.5 -5.410156 16.726562 -5.539062 16.90625 -5.6875 C 17.007812 -5.769531 17.082031 -5.847656 17.125 -5.921875 C 17.144531 -5.984375 17.15625 -6.097656 17.15625 -6.265625 C 17.15625 -6.421875 17.101562 -6.539062 17 -6.625 C 16.894531 -6.6875 16.816406 -6.71875 16.765625 -6.71875 L 12.859375 -6.71875 C 12.429688 -6.71875 12.066406 -6.796875 11.765625 -6.953125 C 11.441406 -7.097656 11.179688 -7.289062 10.984375 -7.53125 C 10.753906 -7.769531 10.59375 -8.03125 10.5 -8.3125 C 10.375 -8.601562 10.3125 -8.878906 10.3125 -9.140625 C 10.3125 -9.398438 10.375 -9.671875 10.5 -9.953125 C 10.59375 -10.234375 10.753906 -10.492188 10.984375 -10.734375 C 11.179688 -10.984375 11.441406 -11.1875 11.765625 -11.34375 C 12.085938 -11.488281 12.460938 -11.5625 12.890625 -11.5625 L 19.71875 -11.5625 C 20.125 -11.5625 20.488281 -11.488281 20.8125 -11.34375 C 21.132812 -11.1875 21.40625 -10.992188 21.625 -10.765625 C 21.851562 -10.546875 22.023438 -10.296875 22.140625 -10.015625 C 22.242188 -9.734375 22.296875 -9.453125 22.296875 -9.171875 L 22.296875 -4.90625 C 22.296875 -4.582031 22.242188 -4.296875 22.140625 -4.046875 C 22.023438 -3.785156 21.851562 -3.535156 21.625 -3.296875 C 20.632812 -2.203125 19.40625 -1.382812 17.9375 -0.84375 C 16.46875 -0.28125 14.945312 0 13.375 0 C 11.800781 0 10.335938 -0.257812 8.984375 -0.78125 C 7.609375 -1.289062 6.425781 -2.019531 5.4375 -2.96875 C 4.457031 -3.894531 3.679688 -5.023438 3.109375 -6.359375 C 2.546875 -7.660156 2.265625 -9.117188 2.265625 -10.734375 C 2.265625 -12.347656 2.546875 -13.8125 3.109375 -15.125 C 3.679688 -16.4375 4.457031 -17.566406 5.4375 -18.515625 C 6.425781 -19.441406 7.609375 -20.164062 8.984375 -20.6875 C 10.335938 -21.195312 11.800781 -21.453125 13.375 -21.453125 C 14.09375 -21.453125 14.835938 -21.390625 15.609375 -21.265625 C 16.378906 -21.117188 17.125 -20.914062 17.84375 -20.65625 C 18.570312 -20.375 19.269531 -20.03125 19.9375 -19.625 C 20.582031 -19.207031 21.144531 -18.71875 21.625 -18.15625 C 22.050781 -17.664062 22.265625 -17.128906 22.265625 -16.546875 C 22.265625 -16.285156 22.210938 -16.015625 22.109375 -15.734375 C 21.992188 -15.453125 21.832031 -15.195312 21.625 -14.96875 C 21.40625 -14.726562 21.132812 -14.539062 20.8125 -14.40625 C 20.488281 -14.238281 20.113281 -14.15625 19.6875 -14.15625 C 19.164062 -14.15625 18.765625 -14.253906 18.484375 -14.453125 C 18.179688 -14.660156 17.859375 -14.925781 17.515625 -15.25 C 16.953125 -15.75 16.304688 -16.109375 15.578125 -16.328125 C 14.828125 -16.554688 14.09375 -16.671875 13.375 -16.671875 C 12.382812 -16.671875 11.515625 -16.519531 10.765625 -16.21875 C 10.003906 -15.894531 9.367188 -15.457031 8.859375 -14.90625 C 8.359375 -14.363281 7.988281 -13.726562 7.75 -13 C 7.476562 -12.28125 7.34375 -11.503906 7.34375 -10.671875 Z M 7.34375 -10.671875 "/></g></g></g><g fill="#2da969" fill-opacity="1"><g transform="translate(257.241798, 40.069522)"><g><path d="M 13.1875 -9.046875 C 13.25 -8.898438 13.359375 -8.695312 13.515625 -8.4375 C 13.679688 -8.195312 13.863281 -7.925781 14.0625 -7.625 C 14.25 -7.300781 14.453125 -6.96875 14.671875 -6.625 C 15.097656 -5.9375 15.5 -5.300781 15.875 -4.71875 C 16.238281 -4.132812 16.472656 -3.757812 16.578125 -3.59375 C 16.816406 -3.238281 16.9375 -2.835938 16.9375 -2.390625 C 16.9375 -2.128906 16.882812 -1.859375 16.78125 -1.578125 C 16.664062 -1.273438 16.507812 -1.007812 16.3125 -0.78125 C 16.082031 -0.5625 15.816406 -0.378906 15.515625 -0.234375 C 15.191406 -0.078125 14.820312 0 14.40625 0 C 13.894531 0 13.457031 -0.109375 13.09375 -0.328125 C 12.71875 -0.554688 12.414062 -0.84375 12.1875 -1.1875 L 7.953125 -7.984375 C 7.835938 -8.148438 7.707031 -8.234375 7.5625 -8.234375 C 7.539062 -8.234375 7.5 -8.222656 7.4375 -8.203125 C 7.375 -8.160156 7.34375 -8.066406 7.34375 -7.921875 L 7.34375 -2.390625 C 7.34375 -2.128906 7.296875 -1.859375 7.203125 -1.578125 C 7.097656 -1.296875 6.945312 -1.039062 6.75 -0.8125 C 6.519531 -0.570312 6.242188 -0.378906 5.921875 -0.234375 C 5.597656 -0.078125 5.226562 0 4.8125 0 C 4.382812 0 4.019531 -0.078125 3.71875 -0.234375 C 3.394531 -0.378906 3.132812 -0.570312 2.9375 -0.8125 C 2.707031 -1.0625 2.546875 -1.328125 2.453125 -1.609375 C 2.328125 -1.890625 2.265625 -2.160156 2.265625 -2.421875 L 2.265625 -19.0625 C 2.265625 -19.34375 2.328125 -19.625 2.453125 -19.90625 C 2.546875 -20.1875 2.707031 -20.445312 2.9375 -20.6875 C 3.15625 -20.914062 3.425781 -21.109375 3.75 -21.265625 C 4.050781 -21.410156 4.414062 -21.484375 4.84375 -21.484375 L 9.765625 -21.484375 C 10.898438 -21.484375 11.910156 -21.300781 12.796875 -20.9375 C 13.660156 -20.550781 14.394531 -20.046875 15 -19.421875 C 15.582031 -18.796875 16.035156 -18.085938 16.359375 -17.296875 C 16.660156 -16.492188 16.8125 -15.679688 16.8125 -14.859375 C 16.8125 -13.460938 16.5 -12.3125 15.875 -11.40625 C 15.25 -10.476562 14.351562 -9.691406 13.1875 -9.046875 Z M 7.328125 -13.515625 C 7.328125 -13.359375 7.375 -13.238281 7.46875 -13.15625 C 7.570312 -13.070312 7.65625 -13.03125 7.71875 -13.03125 L 9.703125 -13.03125 C 10.328125 -13.03125 10.8125 -13.191406 11.15625 -13.515625 C 11.476562 -13.816406 11.640625 -14.265625 11.640625 -14.859375 C 11.640625 -15.441406 11.476562 -15.894531 11.15625 -16.21875 C 10.8125 -16.519531 10.328125 -16.671875 9.703125 -16.671875 L 7.71875 -16.671875 C 7.65625 -16.671875 7.570312 -16.628906 7.46875 -16.546875 C 7.375 -16.460938 7.328125 -16.34375 7.328125 -16.1875 Z M 7.328125 -13.515625 "/></g></g></g><g fill="#1c9c9a" fill-opacity="1"><g transform="translate(299.690869, 40.069522)"><g><path d="M 13.375 0 C 11.800781 0 10.335938 -0.257812 8.984375 -0.78125 C 7.609375 -1.289062 6.425781 -2.019531 5.4375 -2.96875 C 4.457031 -3.894531 3.679688 -5.023438 3.109375 -6.359375 C 2.546875 -7.660156 2.265625 -9.117188 2.265625 -10.734375 C 2.265625 -12.347656 2.546875 -13.8125 3.109375 -15.125 C 3.679688 -16.4375 4.457031 -17.566406 5.4375 -18.515625 C 6.425781 -19.441406 7.609375 -20.164062 8.984375 -20.6875 C 10.335938 -21.195312 11.800781 -21.453125 13.375 -21.453125 C 14.945312 -21.453125 16.40625 -21.195312 17.75 -20.6875 C 19.101562 -20.164062 20.273438 -19.441406 21.265625 -18.515625 C 22.253906 -17.566406 23.03125 -16.4375 23.59375 -15.125 C 24.15625 -13.8125 24.4375 -12.347656 24.4375 -10.734375 C 24.4375 -9.117188 24.15625 -7.660156 23.59375 -6.359375 C 23.03125 -5.023438 22.253906 -3.894531 21.265625 -2.96875 C 20.273438 -2.019531 19.101562 -1.289062 17.75 -0.78125 C 16.40625 -0.257812 14.945312 0 13.375 0 Z M 19.328125 -10.734375 C 19.328125 -11.566406 19.207031 -12.34375 18.96875 -13.0625 C 18.707031 -13.789062 18.332031 -14.425781 17.84375 -14.96875 C 17.34375 -15.5 16.71875 -15.914062 15.96875 -16.21875 C 15.226562 -16.519531 14.363281 -16.671875 13.375 -16.671875 C 12.382812 -16.671875 11.515625 -16.519531 10.765625 -16.21875 C 10.023438 -15.914062 9.398438 -15.5 8.890625 -14.96875 C 8.390625 -14.425781 8.019531 -13.789062 7.78125 -13.0625 C 7.507812 -12.34375 7.375 -11.566406 7.375 -10.734375 C 7.375 -9.890625 7.507812 -9.113281 7.78125 -8.40625 C 8.019531 -7.6875 8.390625 -7.0625 8.890625 -6.53125 C 9.398438 -5.988281 10.023438 -5.566406 10.765625 -5.265625 C 11.515625 -4.960938 12.382812 -4.8125 13.375 -4.8125 C 14.363281 -4.8125 15.226562 -4.960938 15.96875 -5.265625 C 16.71875 -5.566406 17.34375 -5.988281 17.84375 -6.53125 C 18.332031 -7.0625 18.707031 -7.6875 18.96875 -8.40625 C 19.207031 -9.113281 19.328125 -9.890625 19.328125 -10.734375 Z M 19.328125 -10.734375 "/></g></g></g><g fill="#0289cf" fill-opacity="1"><g transform="translate(350.138672, 40.069522)"><g><path d="M 14.796875 -19 C 14.796875 -19.28125 14.851562 -19.5625 14.96875 -19.84375 C 15.070312 -20.125 15.234375 -20.382812 15.453125 -20.625 C 15.679688 -20.851562 15.957031 -21.046875 16.28125 -21.203125 C 16.582031 -21.347656 16.941406 -21.421875 17.359375 -21.421875 C 17.785156 -21.421875 18.160156 -21.347656 18.484375 -21.203125 C 18.785156 -21.046875 19.046875 -20.851562 19.265625 -20.625 C 19.492188 -20.40625 19.664062 -20.15625 19.78125 -19.875 C 19.882812 -19.59375 19.9375 -19.3125 19.9375 -19.03125 L 19.9375 -8.015625 C 19.9375 -7.066406 19.742188 -6.117188 19.359375 -5.171875 C 18.972656 -4.203125 18.425781 -3.335938 17.71875 -2.578125 C 17.019531 -1.804688 16.15625 -1.179688 15.125 -0.703125 C 14.09375 -0.210938 12.921875 0.03125 11.609375 0.03125 L 10.59375 0.03125 C 9.28125 0.03125 8.109375 -0.210938 7.078125 -0.703125 C 6.046875 -1.179688 5.179688 -1.804688 4.484375 -2.578125 C 3.753906 -3.335938 3.195312 -4.203125 2.8125 -5.171875 C 2.425781 -6.117188 2.234375 -7.066406 2.234375 -8.015625 L 2.234375 -19.03125 C 2.234375 -19.3125 2.296875 -19.59375 2.421875 -19.875 C 2.523438 -20.15625 2.6875 -20.414062 2.90625 -20.65625 C 3.125 -20.882812 3.394531 -21.078125 3.71875 -21.234375 C 4.019531 -21.378906 4.382812 -21.453125 4.8125 -21.453125 C 5.226562 -21.453125 5.597656 -21.378906 5.921875 -21.234375 C 6.222656 -21.078125 6.488281 -20.882812 6.71875 -20.65625 C 6.9375 -20.4375 7.109375 -20.1875 7.234375 -19.90625 C 7.328125 -19.625 7.375 -19.34375 7.375 -19.0625 L 7.375 -8.046875 C 7.375 -7.617188 7.457031 -7.21875 7.625 -6.84375 C 7.78125 -6.4375 8.007812 -6.09375 8.3125 -5.8125 C 8.601562 -5.507812 8.945312 -5.265625 9.34375 -5.078125 C 9.726562 -4.898438 10.15625 -4.8125 10.625 -4.8125 L 11.640625 -4.8125 C 12.109375 -4.8125 12.546875 -4.898438 12.953125 -5.078125 C 13.328125 -5.265625 13.664062 -5.507812 13.96875 -5.8125 C 14.257812 -6.09375 14.484375 -6.4375 14.640625 -6.84375 C 14.785156 -7.21875 14.859375 -7.617188 14.859375 -8.046875 Z M 14.796875 -19 "/></g></g></g><g fill="#803684" fill-opacity="1"><g transform="translate(396.612422, 40.069522)"><g><path d="M 7.328125 -12.28125 L 7.328125 -2.359375 C 7.328125 -2.097656 7.273438 -1.828125 7.171875 -1.546875 C 7.066406 -1.265625 6.914062 -1.007812 6.71875 -0.78125 C 6.488281 -0.539062 6.21875 -0.351562 5.90625 -0.21875 C 5.582031 -0.0507812 5.207031 0.03125 4.78125 0.03125 C 4.351562 0.03125 3.988281 -0.0507812 3.6875 -0.21875 C 3.363281 -0.351562 3.101562 -0.539062 2.90625 -0.78125 C 2.6875 -1.03125 2.523438 -1.296875 2.421875 -1.578125 C 2.296875 -1.859375 2.234375 -2.128906 2.234375 -2.390625 L 2.234375 -19.03125 C 2.234375 -19.3125 2.296875 -19.59375 2.421875 -19.875 C 2.523438 -20.15625 2.6875 -20.414062 2.90625 -20.65625 C 3.125 -20.882812 3.394531 -21.078125 3.71875 -21.234375 C 4.019531 -21.378906 4.382812 -21.453125 4.8125 -21.453125 C 5.226562 -21.453125 5.609375 -21.367188 5.953125 -21.203125 C 6.296875 -21.023438 6.582031 -20.8125 6.8125 -20.5625 L 16.578125 -9.25 L 16.578125 -19 C 16.578125 -19.257812 16.640625 -19.53125 16.765625 -19.8125 C 16.859375 -20.09375 17.019531 -20.351562 17.25 -20.59375 C 17.46875 -20.820312 17.738281 -21.015625 18.0625 -21.171875 C 18.363281 -21.316406 18.722656 -21.390625 19.140625 -21.390625 C 19.566406 -21.390625 19.941406 -21.316406 20.265625 -21.171875 C 20.566406 -21.015625 20.828125 -20.820312 21.046875 -20.59375 C 21.273438 -20.375 21.445312 -20.125 21.5625 -19.84375 C 21.664062 -19.5625 21.71875 -19.289062 21.71875 -19.03125 L 21.71875 -2.359375 C 21.71875 -2.097656 21.664062 -1.828125 21.5625 -1.546875 C 21.445312 -1.265625 21.285156 -1.007812 21.078125 -0.78125 C 20.859375 -0.539062 20.597656 -0.351562 20.296875 -0.21875 C 19.972656 -0.0507812 19.597656 0.03125 19.171875 0.03125 C 18.753906 0.03125 18.375 -0.0546875 18.03125 -0.234375 C 17.6875 -0.398438 17.40625 -0.613281 17.1875 -0.875 Z M 7.328125 -12.28125 "/></g></g></g><g fill="#b80282" fill-opacity="1"><g transform="translate(444.858046, 40.069522)"><g><path d="M 9.859375 0.03125 L 4.84375 0.03125 C 4.414062 0.03125 4.039062 -0.0507812 3.71875 -0.21875 C 3.375 -0.351562 3.101562 -0.539062 2.90625 -0.78125 C 2.6875 -1.03125 2.523438 -1.304688 2.421875 -1.609375 C 2.296875 -1.890625 2.234375 -2.160156 2.234375 -2.421875 L 2.234375 -19.03125 C 2.234375 -19.3125 2.296875 -19.59375 2.421875 -19.875 C 2.523438 -20.15625 2.6875 -20.414062 2.90625 -20.65625 C 3.101562 -20.882812 3.375 -21.078125 3.71875 -21.234375 C 4.039062 -21.378906 4.414062 -21.453125 4.84375 -21.453125 L 9.859375 -21.453125 C 11.453125 -21.453125 12.925781 -21.195312 14.28125 -20.6875 C 15.632812 -20.164062 16.800781 -19.441406 17.78125 -18.515625 C 18.769531 -17.566406 19.546875 -16.4375 20.109375 -15.125 C 20.679688 -13.789062 20.96875 -12.316406 20.96875 -10.703125 C 20.96875 -9.085938 20.679688 -7.628906 20.109375 -6.328125 C 19.546875 -4.992188 18.769531 -3.863281 17.78125 -2.9375 C 16.800781 -1.988281 15.632812 -1.257812 14.28125 -0.75 C 12.90625 -0.226562 11.429688 0.03125 9.859375 0.03125 Z M 9.859375 -4.78125 C 10.847656 -4.78125 11.71875 -4.941406 12.46875 -5.265625 C 13.207031 -5.566406 13.832031 -5.988281 14.34375 -6.53125 C 14.84375 -7.0625 15.222656 -7.6875 15.484375 -8.40625 C 15.722656 -9.132812 15.84375 -9.910156 15.84375 -10.734375 C 15.84375 -11.566406 15.722656 -12.34375 15.484375 -13.0625 C 15.222656 -13.789062 14.84375 -14.425781 14.34375 -14.96875 C 13.832031 -15.5 13.207031 -15.914062 12.46875 -16.21875 C 11.71875 -16.519531 10.847656 -16.671875 9.859375 -16.671875 L 7.75 -16.671875 C 7.6875 -16.671875 7.601562 -16.628906 7.5 -16.546875 C 7.394531 -16.460938 7.34375 -16.34375 7.34375 -16.1875 L 7.34375 -5.234375 C 7.34375 -5.066406 7.394531 -4.957031 7.5 -4.90625 C 7.601562 -4.820312 7.6875 -4.78125 7.75 -4.78125 Z M 9.859375 -4.78125 "/></g></g></g></g></g></svg>