<?xml version="1.0" encoding="UTF-8"?>
<svg id="Layer_2" data-name="Layer 2" xmlns="http://www.w3.org/2000/svg" xmlns:xlink="http://www.w3.org/1999/xlink" viewBox="0 0 636.32 604.98">
  <defs>
    <style>
      .cls-1 {
        fill: url(#linear-gradient-2);
      }

      .cls-2 {
        fill: #fff;
      }

      .cls-3 {
        fill: #f5ca78;
      }

      .cls-4 {
        fill: url(#linear-gradient);
      }
    </style>
    <linearGradient id="linear-gradient" x1="1523.05" y1="2525.04" x2="-2022" y2="-1475.79" gradientTransform="translate(564 840.98) scale(1 -1)" gradientUnits="userSpaceOnUse">
      <stop offset=".48" stop-color="#f8f5e3" stop-opacity="0"/>
      <stop offset=".5" stop-color="#f8f5e3" stop-opacity=".6"/>
      <stop offset=".51" stop-color="#f8f5e3" stop-opacity="0"/>
      <stop offset=".69" stop-color="#f8f5e3" stop-opacity="0"/>
      <stop offset=".9" stop-color="#f8f5e3" stop-opacity="0"/>
      <stop offset="1" stop-color="#f8f5e3" stop-opacity="0"/>
    </linearGradient>
    <linearGradient id="linear-gradient-2" x1="1439.11" y1="2082.64" x2="-1908.48" y2="-1036.79" xlink:href="#linear-gradient"/>
  </defs>
  <path class="cls-2" d="M324.91,569.19c-73.37,0-142.41-27.57-194.4-77.63-52.36-50.42-81.2-117.57-81.2-189.06s28.84-138.63,81.2-189.06c51.99-50.06,121.03-77.63,194.4-77.63s142.41,27.57,194.4,77.63c52.36,50.42,81.2,117.56,81.2,189.06s-28.84,138.63-81.2,189.06c-51.99,50.07-121.03,77.63-194.4,77.63Z"/>
  <path class="cls-2" d="M324.91,71.62c132.44,0,239.79,103.37,239.79,230.88s-107.36,230.89-239.79,230.89-239.79-103.38-239.79-230.89,107.36-230.88,239.79-230.88ZM324.91,0c-41.68,0-82.17,7.89-120.35,23.43-37.02,15.07-70.29,36.68-98.88,64.22-28.79,27.73-51.43,60.08-67.29,96.17-16.51,37.6-24.89,77.53-24.89,118.67s8.38,81.07,24.89,118.67c15.86,36.1,38.5,68.46,67.29,96.17,28.61,27.54,61.87,49.14,98.88,64.22,38.18,15.55,78.68,23.43,120.35,23.43s82.16-7.89,120.35-23.43c37.02-15.07,70.29-36.68,98.88-64.22,28.79-27.73,51.43-60.08,67.29-96.17,16.51-37.6,24.89-77.53,24.89-118.67s-8.38-81.07-24.89-118.67c-15.86-36.09-38.5-68.46-67.29-96.17-28.61-27.54-61.87-49.14-98.88-64.22C407.07,7.89,366.58,0,324.91,0Z"/>
  <path class="cls-2" d="M91.95,411.95c-28.15,0-52.07-20.93-55.65-48.7-.04-.33-.08-.66-.12-.99-1.82-15.79,3.19-31.67,13.76-43.55,10.61-11.95,25.85-18.83,41.83-18.89l91.84-.32c15.82,0,30.99,6.71,41.63,18.42,10.56,11.6,15.77,27.18,14.28,42.74-.11,1.15-.25,2.29-.41,3.42-3.9,27.3-27.77,47.89-55.53,47.89h-91.65v-.02Z"/>
  <path class="cls-2" d="M183.61,335.3c11.87,0,21.39,10.14,20.27,21.97-.05.58-.12,1.16-.21,1.73-1.41,9.9-10.09,17.15-20.08,17.15h-91.65c-10.13,0-18.84-7.43-20.13-17.47-.02-.17-.04-.36-.06-.53-1.38-11.98,8.08-22.48,20.14-22.52l91.65-.32h.07ZM183.61,263.69h-.32l-91.65.32c-26.15.09-51.11,11.36-68.49,30.92C5.84,314.42-2.39,340.46.6,366.34c.06.51.12.99.18,1.47,2.89,22.36,13.88,42.81,30.98,57.57,16.72,14.44,38.09,22.38,60.18,22.38h91.65c21.81,0,42.98-7.77,59.6-21.87,17.09-14.5,28.23-34.66,31.38-56.78.24-1.67.44-3.39.6-5.07,2.42-25.58-6.12-51.18-23.45-70.23-17.41-19.14-42.24-30.12-68.12-30.12h.01Z"/>
  <path class="cls-2" d="M112.03,481.37c-28.15,0-52.07-20.93-55.65-48.7-.04-.31-.08-.61-.11-.93-1.83-15.86,3.19-31.73,13.75-43.62,10.61-11.95,25.85-18.83,41.83-18.89l91.84-.32c15.82,0,30.99,6.71,41.63,18.41,10.56,11.6,15.77,27.18,14.28,42.75-.11,1.14-.25,2.28-.41,3.41-3.9,27.31-27.77,47.9-55.53,47.9h-91.65.01Z"/>
  <path class="cls-2" d="M203.7,404.72c11.87,0,21.39,10.14,20.27,21.97-.05.58-.12,1.16-.21,1.73-1.41,9.9-10.09,17.15-20.08,17.15h-91.65c-10.13,0-18.84-7.43-20.13-17.48-.02-.17-.04-.36-.06-.53-1.38-11.98,8.08-22.48,20.15-22.52l91.65-.32h.07ZM203.71,333.1h-.32l-91.65.32c-26.15.09-51.11,11.36-68.49,30.92-17.32,19.5-25.55,45.54-22.56,71.42.06.51.12.99.18,1.47,2.88,22.36,13.88,42.81,30.98,57.57,16.72,14.44,38.09,22.37,60.18,22.37h91.65c21.81,0,42.98-7.76,59.6-21.87,17.09-14.5,28.23-34.66,31.38-56.78.24-1.67.44-3.39.6-5.07,2.43-25.58-6.12-51.18-23.45-70.23-17.41-19.14-42.24-30.12-68.12-30.12h.01Z"/>
  <path class="cls-2" d="M131.31,551.4c-28.15,0-52.07-20.93-55.65-48.7l-.11-.93c-1.83-15.86,3.19-31.73,13.75-43.63,10.61-11.95,25.85-18.82,41.83-18.89l91.84-.32c15.82,0,30.99,6.71,41.63,18.41,10.56,11.6,15.77,27.18,14.28,42.74-.1,1.11-.25,2.27-.41,3.41-3.9,27.31-27.77,47.9-55.53,47.9h-91.65.01Z"/>
  <path class="cls-2" d="M222.99,474.75c11.87,0,21.39,10.14,20.27,21.97-.05.58-.12,1.15-.2,1.73-1.41,9.9-10.09,17.14-20.08,17.14h-91.65c-10.13,0-18.84-7.42-20.14-17.47-.02-.17-.04-.35-.06-.53-1.38-11.98,8.08-22.48,20.14-22.52l91.65-.32h.07ZM222.99,403.13h-.32l-91.65.32c-26.15.09-51.11,11.36-68.49,30.92-17.32,19.5-25.55,45.54-22.56,71.42.06.51.12,1,.18,1.48,2.89,22.36,13.88,42.8,30.98,57.57,16.72,14.43,38.09,22.37,60.18,22.37h91.65c21.81,0,42.98-7.77,59.6-21.88,17.09-14.5,28.23-34.66,31.38-56.78.24-1.67.44-3.39.6-5.07,2.42-25.58-6.12-51.18-23.45-70.23-17.41-19.14-42.24-30.12-68.12-30.12h.01Z"/>
  <path class="cls-3" d="M325.67,533.95c-19.81,0-39.7-2.31-59.13-7-10.99-2.64-17.75-13.69-15.11-24.68,2.64-10.98,13.7-17.75,24.68-15.11,90.05,21.67,184.55-18.75,224.68-96.11,32.99-63.59,24.49-145.72-21.18-204.37-52.49-67.42-145.42-92.79-226-61.7-74.22,28.64-124.07,99.66-127.01,180.97-.41,11.3-9.92,20.1-21.19,19.71-11.29-.41-20.11-9.89-19.7-21.19,1.73-47.72,17.09-93.48,44.4-132.34,27.37-38.93,64.98-68.42,108.78-85.33,97.28-37.53,209.55-6.79,273.03,74.75,26.64,34.22,43.38,75.32,48.42,118.85,5.24,45.36-2.78,90.14-23.2,129.51-23.68,45.63-63.66,82.46-112.57,103.72-31,13.47-64.83,20.32-98.87,20.32h-.01Z"/>
  <path class="cls-4" d="M325.67,533.95c-19.81,0-39.7-2.31-59.13-7-10.99-2.64-17.75-13.69-15.11-24.68,2.64-10.98,13.7-17.75,24.68-15.11,90.05,21.67,184.55-18.75,224.68-96.11,32.99-63.59,24.49-145.72-21.18-204.37-52.49-67.42-145.42-92.79-226-61.7-74.22,28.64-124.07,99.66-127.01,180.97-.41,11.3-9.92,20.1-21.19,19.71-11.29-.41-20.11-9.89-19.7-21.19,1.73-47.72,17.09-93.48,44.4-132.34,27.37-38.93,64.98-68.42,108.78-85.33,97.28-37.53,209.55-6.79,273.03,74.75,26.64,34.22,43.38,75.32,48.42,118.85,5.24,45.36-2.78,90.14-23.2,129.51-23.68,45.63-63.66,82.46-112.57,103.72-31,13.47-64.83,20.32-98.87,20.32h-.01Z"/>
  <path class="cls-3" d="M410.41,381.97c-3.95,0-7.94-1.15-11.46-3.52l-85.61-57.99c-5.74-3.89-9.12-10.41-8.98-17.33l1.96-102.15c.21-11.16,9.33-20.06,20.45-20.06h.4c11.29.21,20.28,9.56,20.06,20.85l-1.75,91.05,76.42,51.76c9.36,6.33,11.81,19.06,5.46,28.41-3.96,5.84-10.4,8.99-16.96,8.99h.01Z"/>
  <path class="cls-1" d="M410.41,381.97c-3.95,0-7.94-1.15-11.46-3.52l-85.61-57.99c-5.74-3.89-9.12-10.41-8.98-17.33l1.96-102.15c.21-11.16,9.33-20.06,20.45-20.06h.4c11.29.21,20.28,9.56,20.06,20.85l-1.75,91.05,76.42,51.76c9.36,6.33,11.81,19.06,5.46,28.41-3.96,5.84-10.4,8.99-16.96,8.99h.01Z"/>
  <path class="cls-3" d="M92.02,376.34c-11.28,0-20.44-9.14-20.46-20.43-.02-11.31,9.13-20.47,20.43-20.49l91.36-.15h.03c11.28,0,20.44,9.14,20.46,20.43.02,11.31-9.13,20.47-20.43,20.49l-91.36.15h-.03Z"/>
  <path class="cls-3" d="M112.45,445.75c-11.28,0-20.44-9.14-20.46-20.43-.02-11.31,9.13-20.47,20.43-20.49l91.36-.15h.03c11.28,0,20.44,9.14,20.46,20.43.02,11.31-9.13,20.47-20.43,20.49l-91.36.15h-.03Z"/>
  <path class="cls-3" d="M131.79,515.63c-11.29,0-20.44-9.14-20.46-20.43-.02-11.31,9.13-20.47,20.43-20.49l91.36-.15h.03c11.28,0,20.44,9.13,20.46,20.43.02,11.31-9.13,20.48-20.43,20.49l-91.36.15h-.03Z"/>
</svg>