<?xml version="1.0" encoding="UTF-8"?>
<svg id="Layer_1" data-name="Layer 1" xmlns="http://www.w3.org/2000/svg" xmlns:xlink="http://www.w3.org/1999/xlink" viewBox="0 0 1209.6 1209.6">
  <defs>
    <style>
      .cls-1 {
        fill: #e50009;
      }

      .cls-2 {
        fill: #fdf9ef;
      }

      .cls-3 {
        fill: #803684;
      }

      .cls-4 {
        fill: rgba(255, 255, 255, .4);
      }

      .cls-5 {
        fill: #085ba6;
      }

      .cls-6 {
        fill: none;
      }

      .cls-7 {
        fill: #1c9c9a;
      }

      .cls-8 {
        fill: #b80282;
      }

      .cls-9 {
        clip-path: url(#clippath-1);
      }

      .cls-10 {
        clip-path: url(#clippath-3);
      }

      .cls-11 {
        fill: #f3b13f;
      }

      .cls-12 {
        fill: #0289cf;
      }

      .cls-13 {
        fill: #e85706;
      }

      .cls-14 {
        fill: #ed9305;
      }

      .cls-15 {
        clip-path: url(#clippath-2);
      }

      .cls-16 {
        clip-path: url(#clippath);
      }

      .cls-17 {
        fill: #94bf28;
      }

      .cls-18 {
        fill: #2da969;
      }
    </style>
    <clipPath id="clippath">
      <rect class="cls-6" width="1209.6" height="1209.6"/>
    </clipPath>
    <clipPath id="clippath-1">
      <rect class="cls-6" x="212.05" y="753.92" width="785.49" height="76.8"/>
    </clipPath>
    <clipPath id="clippath-2">
      <rect class="cls-6" x="213.76" y="755.2" width="782.08" height="75.47"/>
    </clipPath>
    <clipPath id="clippath-3">
      <rect class="cls-6" x="82.77" y="335.36" width="1052.59" height="400.64"/>
    </clipPath>
  </defs>
  <g class="cls-16">
    <g>
      <g class="cls-9">
        <g>
          <g class="cls-15">
            <path class="cls-2" d="M232.7,755.3h744.2c4.97,0,9.74,1.98,13.26,5.49,3.52,3.52,5.49,8.29,5.49,13.26v37.51c0,4.97-1.98,9.74-5.49,13.26-3.52,3.52-8.29,5.49-13.26,5.49H232.7c-10.36,0-18.75-8.4-18.75-18.75v-37.51c0-10.36,8.4-18.75,18.75-18.75Z"/>
          </g>
          <path class="cls-1" d="M269.15,796.6h-3.25c-.1,0-.23.07-.39.2-.17.13-.25.33-.25.59v8.71c0,.43-.08.87-.25,1.33-.17.46-.41.87-.73,1.23-.37.4-.81.71-1.33.93-.53.26-1.13.39-1.82.39s-1.28-.13-1.77-.39c-.53-.23-.95-.54-1.28-.93-.36-.39-.62-.82-.79-1.28-.2-.46-.3-.9-.3-1.33v-27.05c0-.46.1-.92.3-1.38.16-.46.43-.88.79-1.28.36-.36.8-.67,1.33-.93.49-.23,1.08-.35,1.77-.35h8.01c1.84,0,3.48.3,4.92.89,1.41.62,2.61,1.44,3.59,2.46.95,1.02,1.67,2.17,2.17,3.45.49,1.31.73,2.64.73,3.98s-.25,2.66-.73,3.94c-.53,1.31-1.26,2.46-2.21,3.44-.99,1.02-2.19,1.84-3.59,2.46-1.45.62-3.09.93-4.92.93ZM265.27,787.95c0,.26.08.46.25.59.16.13.3.2.39.2h3.25c1.02,0,1.8-.26,2.36-.79.52-.49.79-1.22.79-2.17s-.26-1.69-.79-2.21c-.56-.49-1.34-.74-2.36-.74h-3.25c-.1,0-.23.07-.39.2-.17.13-.25.33-.25.59v4.33Z"/>
          <path class="cls-13" d="M335.56,778.99v22.48c0,.26.08.44.25.54.16.13.3.19.39.19h9.69c.69,0,1.3.12,1.82.35.49.26.92.57,1.28.93.36.37.64.78.83,1.23.16.46.25.92.25,1.37,0,.43-.08.87-.25,1.33-.17.46-.41.87-.73,1.23-.37.4-.81.71-1.33.93-.53.26-1.13.39-1.82.39h-14.46c-.69,0-1.28-.13-1.77-.39-.53-.23-.95-.54-1.28-.93-.36-.39-.62-.82-.79-1.28-.2-.46-.29-.9-.29-1.33v-27.05c0-.46.1-.92.29-1.38.16-.46.43-.88.79-1.28.36-.36.81-.67,1.33-.93.49-.23,1.08-.35,1.77-.35s1.35.13,1.87.39c.49.26.9.59,1.23.99.33.39.58.82.74,1.28.13.46.19.89.19,1.28Z"/>
          <path class="cls-14" d="M416.36,778.11l10.57,26.56c.2.4.3.86.3,1.38,0,.43-.08.87-.25,1.33-.2.46-.48.87-.84,1.23s-.79.66-1.28.89c-.53.26-1.13.39-1.82.39-1.01,0-1.85-.26-2.51-.79-.66-.53-1.12-1.12-1.38-1.77l-2.7-6.94c-.17-.26-.36-.39-.59-.39h-8.31c-.1,0-.2.03-.29.1-.13.07-.23.17-.3.29l-2.75,6.94c-.26.65-.72,1.25-1.37,1.77-.66.53-1.5.79-2.51.79-.65,0-1.24-.13-1.77-.39-.53-.23-.95-.53-1.28-.89-.36-.36-.62-.77-.79-1.23-.2-.46-.3-.9-.3-1.33,0-.49.08-.95.25-1.38l10.58-26.56c.33-.82.92-1.54,1.77-2.17.82-.59,1.81-.89,2.95-.89s2.13.31,2.95.93c.82.63,1.38,1.33,1.67,2.12ZM411.69,788.63c-.26.56-.51,1.11-.74,1.67-.23.59-.46,1.18-.69,1.77,0,.07-.03.13-.1.2h2.95s-.03-.11-.1-.25c-.07-.26-.17-.54-.29-.83-.13-.3-.27-.61-.39-.94-.1-.29-.2-.57-.3-.83-.13-.26-.24-.52-.34-.79Z"/>
          <path class="cls-11" d="M480.42,786.71l6.1-9.74c.33-.52.8-.97,1.43-1.33.59-.36,1.3-.54,2.12-.54.69,0,1.3.11,1.82.34.52.26.97.58,1.33.94.33.39.58.82.74,1.27.16.46.24.91.24,1.33,0,.69-.2,1.36-.59,2.01l-8.91,14.22c-.1.1-.15.25-.15.44v10.43c0,.43-.08.87-.25,1.33-.2.46-.46.87-.79,1.23-.36.4-.79.71-1.28.93-.53.26-1.13.39-1.82.39s-1.3-.13-1.82-.39c-.53-.23-.95-.54-1.28-.93-.36-.39-.62-.82-.79-1.28-.2-.46-.29-.9-.29-1.33v-10.43c0-.2-.05-.35-.15-.45l-8.91-14.21c-.39-.66-.59-1.33-.59-2.02,0-.43.1-.87.29-1.33.16-.46.43-.88.79-1.28.33-.36.76-.67,1.28-.93.49-.23,1.08-.35,1.77-.35.82,0,1.54.18,2.16.54.59.37,1.07.81,1.43,1.33l6.1,9.79Z"/>
          <path class="cls-17" d="M545.99,792.57c0,1.38.21,2.64.64,3.79.4,1.18,1,2.2,1.82,3.05.82.89,1.84,1.57,3.05,2.07,1.21.49,2.62.73,4.23.73.46,0,.97-.03,1.53-.09.56-.07,1.1-.17,1.62-.3.52-.13,1.03-.29,1.53-.49.46-.2.84-.41,1.13-.64.16-.13.28-.26.35-.39.03-.1.05-.28.05-.54s-.08-.46-.25-.59c-.17-.1-.3-.15-.39-.15h-6.35c-.69,0-1.28-.13-1.77-.39-.53-.23-.95-.54-1.27-.93-.37-.4-.63-.82-.79-1.28-.2-.46-.3-.9-.3-1.33s.1-.87.3-1.33c.16-.46.42-.88.79-1.28.32-.39.75-.72,1.27-.98.52-.23,1.13-.35,1.82-.35h11.12c.66,0,1.25.12,1.77.35.52.26.97.57,1.33.93s.64.77.83,1.23c.16.46.25.92.25,1.37v6.94c0,.53-.08.98-.25,1.37-.2.43-.47.84-.83,1.23-1.61,1.77-3.61,3.1-6,3.98-2.4.92-4.87,1.38-7.43,1.38s-4.94-.43-7.13-1.28c-2.23-.82-4.15-2-5.76-3.54-1.61-1.51-2.87-3.35-3.79-5.51-.92-2.13-1.38-4.51-1.38-7.13s.46-5,1.38-7.13c.92-2.13,2.18-3.97,3.79-5.51,1.61-1.51,3.53-2.69,5.76-3.54,2.2-.82,4.57-1.23,7.13-1.23,1.18,0,2.39.1,3.64.3,1.24.23,2.46.55,3.64.98,1.18.46,2.31,1.02,3.39,1.67,1.05.69,1.97,1.49,2.75,2.41.69.79,1.03,1.66,1.03,2.61,0,.43-.08.87-.25,1.33-.2.46-.46.87-.79,1.23-.36.4-.8.71-1.33.94-.53.26-1.13.39-1.82.39-.85,0-1.51-.16-1.97-.49-.49-.33-1.02-.76-1.58-1.28-.92-.82-1.97-1.41-3.15-1.77-1.21-.36-2.41-.54-3.59-.54-1.61,0-3.02.25-4.23.74-1.25.53-2.28,1.23-3.1,2.11-.82.89-1.43,1.92-1.82,3.1-.43,1.18-.64,2.45-.64,3.79Z"/>
          <path class="cls-18" d="M634.77,795.23c.1.23.28.55.54.98.26.4.56.84.89,1.33.3.53.63,1.07.99,1.63.69,1.12,1.34,2.15,1.97,3.1.59.95.97,1.56,1.13,1.82.39.59.59,1.25.59,1.97,0,.43-.08.87-.25,1.33-.2.49-.46.92-.79,1.28-.36.36-.79.66-1.28.89-.53.26-1.13.39-1.82.39-.82,0-1.52-.18-2.11-.54-.62-.36-1.11-.82-1.47-1.38l-6.89-11.07c-.2-.26-.41-.39-.64-.39-.04,0-.1.02-.2.05-.1.07-.15.22-.15.45v9c0,.43-.08.87-.25,1.33-.17.46-.41.87-.73,1.23-.37.39-.81.7-1.33.93-.53.26-1.13.39-1.82.39s-1.28-.13-1.77-.39c-.53-.23-.95-.54-1.28-.93-.36-.39-.62-.82-.79-1.28-.2-.46-.3-.9-.3-1.33v-27.06c0-.46.1-.92.3-1.37.16-.46.43-.89.79-1.28.36-.36.8-.67,1.33-.93.49-.23,1.08-.35,1.77-.35h8.01c1.84,0,3.48.3,4.92.89,1.41.62,2.61,1.44,3.59,2.46.95,1.01,1.69,2.16,2.21,3.44.49,1.31.74,2.64.74,3.99,0,2.26-.51,4.13-1.53,5.61-1.02,1.51-2.48,2.79-4.38,3.84ZM625.23,787.95c0,.26.08.46.25.59.16.13.3.2.39.2h3.25c1.01,0,1.8-.26,2.36-.79.52-.49.79-1.22.79-2.17s-.26-1.69-.79-2.21c-.56-.49-1.35-.74-2.36-.74h-3.25c-.1,0-.23.07-.39.2-.17.13-.25.33-.25.59v4.33Z"/>
          <path class="cls-7" d="M704.11,809.93c-2.56,0-4.94-.43-7.13-1.28-2.23-.82-4.15-2-5.76-3.54-1.61-1.51-2.87-3.35-3.79-5.51-.92-2.13-1.38-4.51-1.38-7.13s.46-5,1.38-7.13c.92-2.13,2.18-3.97,3.79-5.51,1.61-1.51,3.53-2.69,5.76-3.54,2.2-.82,4.57-1.23,7.13-1.23s4.93.41,7.13,1.23c2.2.85,4.1,2.03,5.71,3.54,1.61,1.54,2.87,3.38,3.79,5.51.92,2.13,1.37,4.51,1.37,7.13s-.46,5.01-1.37,7.13c-.92,2.17-2.19,4-3.79,5.51-1.61,1.54-3.51,2.72-5.71,3.54-2.2.85-4.57,1.28-7.13,1.28ZM713.8,792.47c0-1.34-.2-2.6-.59-3.79-.43-1.18-1.03-2.21-1.82-3.1-.82-.85-1.84-1.52-3.05-2.01s-2.62-.74-4.23-.74-3.02.25-4.23.74-2.23,1.17-3.05,2.01c-.82.89-1.43,1.92-1.82,3.1-.43,1.18-.64,2.45-.64,3.79s.21,2.64.64,3.79c.4,1.18,1,2.19,1.82,3.05.82.89,1.84,1.57,3.05,2.07s2.62.74,4.23.74,3.01-.25,4.23-.74,2.23-1.18,3.05-2.07c.79-.85,1.39-1.87,1.82-3.05.39-1.15.59-2.42.59-3.79Z"/>
          <path class="cls-12" d="M788.46,779.04c0-.46.1-.92.3-1.38.16-.46.42-.88.79-1.27.36-.36.8-.68,1.33-.94.49-.23,1.08-.34,1.77-.34s1.3.11,1.82.34c.49.26.91.58,1.27.94.36.36.64.77.84,1.23.16.46.25.92.25,1.38v17.91c0,1.54-.31,3.08-.93,4.62-.63,1.57-1.51,2.99-2.66,4.23-1.15,1.25-2.56,2.26-4.23,3.05-1.67.79-3.57,1.18-5.7,1.18h-1.67c-2.13,0-4.04-.39-5.71-1.18-1.68-.79-3.09-1.8-4.23-3.05-1.18-1.25-2.09-2.66-2.71-4.23-.62-1.54-.93-3.08-.93-4.62v-17.91c0-.46.1-.92.29-1.38.16-.46.43-.88.79-1.28.36-.36.81-.67,1.33-.93.49-.23,1.08-.35,1.77-.35s1.3.12,1.82.35c.49.26.92.57,1.28.93s.64.77.84,1.23c.16.46.24.92.24,1.37v17.91c0,.69.13,1.35.4,1.97.26.66.64,1.22,1.13,1.67.46.49,1.02.89,1.67,1.18.62.3,1.31.45,2.07.45h1.67c.76,0,1.46-.15,2.11-.45.62-.29,1.18-.69,1.67-1.18.46-.46.82-1.02,1.08-1.67.23-.62.35-1.28.35-1.97l-.1-17.81Z"/>
          <path class="cls-3" d="M851.9,789.96v16.13c0,.43-.08.87-.25,1.33-.17.46-.41.87-.74,1.23-.36.4-.8.71-1.33.93-.53.26-1.13.39-1.82.39s-1.28-.13-1.77-.39c-.53-.23-.95-.54-1.28-.93-.36-.39-.62-.82-.79-1.28-.2-.46-.29-.9-.29-1.33v-27.05c0-.46.1-.92.29-1.38.16-.46.43-.88.79-1.28.36-.36.81-.67,1.33-.93.49-.23,1.08-.35,1.77-.35s1.31.13,1.87.39c.56.3,1.01.64,1.37,1.03l15.89,18.4v-15.84c0-.43.1-.87.29-1.33.16-.46.43-.89.79-1.28.36-.36.8-.67,1.33-.93.49-.23,1.08-.35,1.77-.35s1.3.12,1.82.35c.49.26.92.57,1.28.93s.64.77.83,1.23c.16.46.25.91.25,1.33v27.1c0,.43-.08.87-.25,1.33-.2.46-.46.87-.79,1.23-.36.4-.79.71-1.28.93-.53.26-1.13.39-1.82.39s-1.31-.15-1.87-.44c-.56-.26-1.02-.61-1.38-1.03l-16.03-18.55Z"/>
          <path class="cls-8" d="M934.5,809.98h-8.17c-.69,0-1.3-.13-1.82-.39-.56-.23-1.01-.54-1.33-.93-.36-.39-.62-.83-.79-1.33-.2-.46-.29-.9-.29-1.33v-27.01c0-.46.1-.92.29-1.38.16-.46.43-.88.79-1.28.33-.36.77-.67,1.33-.93.52-.23,1.13-.35,1.82-.35h8.17c2.59,0,4.98.41,7.18,1.23,2.2.85,4.1,2.03,5.71,3.54,1.6,1.54,2.87,3.38,3.79,5.51.92,2.17,1.38,4.56,1.38,7.18s-.46,5-1.38,7.13c-.92,2.17-2.18,4-3.79,5.51-1.61,1.54-3.51,2.73-5.71,3.55-2.23.85-4.63,1.27-7.18,1.27ZM934.5,802.16c1.6,0,3.01-.26,4.23-.79,1.21-.49,2.23-1.18,3.05-2.07.82-.85,1.44-1.87,1.87-3.05.4-1.18.59-2.45.59-3.79s-.2-2.6-.59-3.79c-.43-1.18-1.05-2.21-1.87-3.1-.82-.85-1.84-1.52-3.05-2.01s-2.62-.74-4.23-.74h-3.45c-.1,0-.23.07-.39.2-.17.13-.25.33-.25.59v17.81c0,.26.08.45.25.55.16.13.3.19.39.19h3.45Z"/>
        </g>
      </g>
      <g class="cls-10">
        <g>
          <path class="cls-4" d="M170.69,646.57l41.71,32.41c1.05.82,1.99,1.87,2.81,3.16.82,1.29,1.36,2.68,1.63,4.18.28,1.65.2,3.35-.25,5.09-.36,1.8-1.2,3.55-2.53,5.25-1.32,1.7-2.78,2.91-4.37,3.63-1.57.85-3.16,1.31-4.76,1.36-1.67.13-3.23-.04-4.67-.51-1.51-.4-2.8-1.01-3.85-1.83l-67.01-52.06c-1.05-.82-1.96-1.91-2.71-3.28-.82-1.29-1.37-2.76-1.65-4.41-.2-1.59-.12-3.28.24-5.08.38-1.65,1.23-3.33,2.55-5.03,2.52-3.24,5.56-4.98,9.12-5.21l44.31-3.81-6.55-44.28c-.2-1.59-.05-3.29.46-5.11.44-1.74,1.26-3.38,2.46-4.92,1.32-1.7,2.77-2.98,4.35-3.83,1.51-.78,3.06-1.27,4.64-1.47,1.67-.14,3.22-.04,4.65.29,1.45.48,2.74,1.16,3.87,2.04l67.01,52.07c1.06.82,2,1.87,2.82,3.15.75,1.37,1.26,2.81,1.53,4.31.28,1.65.23,3.3-.15,4.95-.36,1.8-1.2,3.55-2.52,5.25-1.33,1.7-2.79,2.91-4.38,3.63-1.57.86-3.16,1.31-4.75,1.37-1.67.14-3.23-.03-4.68-.51-1.52-.39-2.8-1-3.85-1.81l-41.71-32.41,4.21,29.21c.15,1.15.12,2.37-.09,3.64-.28,1.35-.89,2.63-1.83,3.85-.89,1.14-1.92,1.97-3.09,2.48-1.25.59-2.44.96-3.59,1.11l-29.35,3.13Z"/>
          <path class="cls-4" d="M274.29,606.43l-57.43-62.47c-.9-.98-1.61-2.21-2.13-3.69-.6-1.4-.9-2.94-.9-4.61.07-1.6.43-3.25,1.08-4.97.65-1.57,1.77-3.09,3.35-4.55,1.59-1.46,3.23-2.48,4.93-3.07,1.69-.44,3.33-.62,4.93-.55,1.6.07,3.11.43,4.53,1.07,1.35.71,2.51,1.59,3.49,2.65l57.32,62.36c.9.98,1.65,2.18,2.25,3.59.6,1.4.9,2.87.91,4.39,0,1.67-.36,3.33-1.08,4.97-.66,1.72-1.78,3.3-3.37,4.76-1.51,1.39-3.12,2.38-4.81,2.96-1.69.58-3.34.84-4.93.77-1.6-.07-3.11-.42-4.53-1.05-1.43-.64-2.63-1.5-3.6-2.55Z"/>
          <path class="cls-4" d="M297.08,520.93l27.84,42.15c.73,1.12,1.28,2.42,1.65,3.9.36,1.49.43,2.98.2,4.49-.26,1.65-.88,3.23-1.86,4.73-.92,1.59-2.28,2.98-4.08,4.17-1.8,1.19-3.57,1.87-5.31,2.03-1.77.3-3.41.22-4.95-.24-1.62-.41-3.05-1.07-4.27-1.98-1.31-.86-2.33-1.85-3.06-2.97l-46.69-70.67c-.8-1.2-1.33-2.57-1.61-4.11-.36-1.48-.41-3.05-.15-4.71.32-1.56.94-3.14,1.85-4.73.89-1.44,2.23-2.76,4.03-3.95,1.8-1.19,3.65-1.93,5.56-2.21,1.97-.19,3.76-.08,5.39.33l73.25,20.64-27.33-41.38c-.74-1.12-1.25-2.44-1.52-3.99-.37-1.48-.42-3.04-.15-4.69.32-1.57.94-3.15,1.86-4.74.88-1.45,2.23-2.77,4.03-3.95,1.8-1.19,3.58-1.94,5.35-2.24,1.73-.16,3.38-.08,4.95.24,1.56.32,3,.9,4.31,1.76,1.22.92,2.2,1.94,2.93,3.05l46.77,70.8c.73,1.12,1.28,2.41,1.65,3.89.28,1.54.3,3.07.06,4.57-.26,1.65-.84,3.2-1.73,4.65-.92,1.59-2.27,2.98-4.07,4.17-1.8,1.19-3.68,1.88-5.65,2.07-1.91.27-3.71.16-5.38-.33l-73.89-20.77Z"/>
          <path class="cls-4" d="M400.35,518.09l-34.93-77.34c-.55-1.21-.84-2.6-.87-4.17-.12-1.52.08-3.08.6-4.67.57-1.49,1.43-2.95,2.58-4.37,1.11-1.29,2.65-2.38,4.61-3.27,1.97-.88,3.85-1.34,5.64-1.36,1.74.12,3.36.45,4.85,1.01,1.5.57,2.82,1.38,3.97,2.44,1.06,1.09,1.89,2.3,2.48,3.61l34.87,77.2c.55,1.21.88,2.58,1.01,4.11.13,1.52-.05,3.01-.52,4.45-.52,1.59-1.38,3.05-2.58,4.38-1.17,1.43-2.73,2.59-4.69,3.47-1.87.85-3.7,1.28-5.49,1.29-1.79.03-3.44-.24-4.93-.81-1.49-.56-2.81-1.37-3.97-2.43-1.16-1.06-2.03-2.24-2.62-3.55Z"/>
          <path class="cls-4" d="M448.27,441.76l13.44,51.09c.34,1.29.45,2.7.31,4.22-.13,1.52-.55,2.95-1.25,4.31-.78,1.49-1.87,2.78-3.27,3.89-1.38,1.21-3.12,2.09-5.2,2.63-2.09.55-3.98.63-5.68.23-1.77-.28-3.31-.88-4.61-1.81-1.41-.91-2.55-1.99-3.41-3.24-.96-1.24-1.61-2.5-1.95-3.79l-21.59-82.07c-.34-1.29-.4-2.71-.17-4.25.13-1.52.59-3.02,1.37-4.5.81-1.38,1.9-2.68,3.27-3.89,1.31-1.08,3-1.9,5.09-2.45,3.97-1.04,7.44-.58,10.41,1.4l37.5,23.9,21.71-39.16c.8-1.37,1.96-2.63,3.47-3.77,1.41-1.12,3.06-1.92,4.94-2.42,2.08-.55,4.01-.69,5.78-.41,1.68.31,3.2.86,4.58,1.67,1.4.9,2.58,1.92,3.51,3.05.86,1.26,1.48,2.59,1.84,3.97l21.59,82.07c.34,1.29.45,2.7.31,4.22-.23,1.55-.7,3-1.4,4.35-.78,1.48-1.83,2.76-3.14,3.85-1.37,1.21-3.1,2.09-5.19,2.64-2.09.55-3.98.62-5.68.22-1.77-.28-3.31-.88-4.61-1.81-1.41-.91-2.54-2-3.4-3.25-.97-1.23-1.62-2.49-1.96-3.78l-13.44-51.09-14.4,25.77c-.58,1-1.34,1.94-2.27,2.83-1.04.91-2.31,1.56-3.79,1.95-1.39.37-2.71.4-3.95.09-1.35-.28-2.53-.72-3.53-1.3l-25.21-15.35Z"/>
          <path class="cls-4" d="M611.01,381.84l35.35,82.24c.65,1.21,1,2.64,1.05,4.29.04,1.33-.19,2.73-.66,4.17-.58,1.45-1.42,2.76-2.51,3.92-1.1,1.16-2.41,2.12-3.93,2.88-1.62.87-3.51,1.33-5.66,1.39-3.18.09-5.82-.67-7.92-2.25-2.1-1.59-3.59-3.4-4.46-5.43l-9.05-21.47c-.54-.81-1.17-1.2-1.89-1.19l-26.02.71c-.31.01-.61.12-.91.34-.41.22-.71.53-.91.95l-8.03,21.94c-.77,2.08-2.16,3.96-4.17,5.65-2.01,1.7-4.6,2.6-7.78,2.68-2.05.06-3.91-.3-5.57-1.08-1.66-.67-3.02-1.56-4.08-2.67-1.16-1.1-2.02-2.36-2.57-3.78-.65-1.42-.99-2.79-1.03-4.13-.05-1.54.17-2.99.65-4.33l30.85-84.03c.96-2.6,2.74-4.9,5.36-6.92,2.52-1.92,5.57-2.93,9.17-3.03,3.59-.1,6.69.79,9.31,2.67,2.62,1.89,4.43,4.05,5.41,6.48ZM597.28,415.18c-.78,1.77-1.5,3.53-2.17,5.29-.67,1.86-1.33,3.73-2,5.6,0,.21-.09.41-.29.62l9.23-.25c0-.1-.11-.36-.33-.76-.23-.82-.57-1.68-1-2.59-.43-.92-.87-1.88-1.31-2.89-.33-.92-.66-1.79-.99-2.6-.43-.8-.81-1.61-1.14-2.43Z"/>
          <path class="cls-4" d="M695.49,488.81c-3.44-.62-6.89-1.45-10.35-2.49-3.46-1.04-6.77-2.37-9.93-3.98-3.27-1.53-6.26-3.42-8.99-5.69-2.72-2.26-5-4.97-6.83-8.11-1.61-2.69-2.15-5.45-1.64-8.27.24-1.32.78-2.63,1.65-3.93.76-1.33,1.81-2.5,3.14-3.51,1.23-1.03,2.73-1.8,4.49-2.32,1.64-.44,3.52-.46,5.64-.08,2.53.46,4.47,1.28,5.83,2.46,1.33,1.29,2.72,2.84,4.16,4.66.84,1.09,1.98,2.03,3.41,2.81,1.4.88,2.94,1.58,4.63,2.09,1.56.59,3.14,1.09,4.74,1.49,1.6.39,3.06.71,4.37.94,4.75.86,8.76.9,12.03.13,3.16-.78,5.04-2.79,5.62-6.02.24-1.32.22-2.36-.05-3.15-.37-.9-1.24-1.84-2.63-2.82-1.51-.89-3.12-1.81-4.83-2.75-1.73-.84-3.42-1.61-5.06-2.32-1.65-.71-2.91-1.2-3.8-1.47-4.25-1.92-8.47-3.98-12.66-6.19-4.19-2.21-7.83-4.85-10.93-7.92-3.12-2.96-5.45-6.5-7-10.65-1.57-4.04-1.84-8.89-.82-14.55.85-4.75,2.65-8.96,5.4-12.64,2.75-3.68,6.16-6.66,10.23-8.95,3.94-2.21,8.48-3.69,13.63-4.43,5.14-.74,10.49-.61,16.05.39,5.76,1.04,11.02,2.82,15.78,5.35,4.66,2.51,8.55,6.08,11.69,10.71,1.99,2.86,2.7,5.91,2.11,9.15-.24,1.31-.73,2.63-1.49,3.95-.86,1.31-1.9,2.43-3.11,3.35-1.32.91-2.79,1.58-4.43,2.02-1.76.51-3.7.58-5.83.19-3.23-.58-5.88-2.1-7.94-4.56-.87-.99-1.65-1.86-2.34-2.61-.73-.64-1.46-1.19-2.21-1.65-.85-.47-1.78-.84-2.77-1.12-.99-.28-2.19-.55-3.61-.81-4.04-.73-7.52-.52-10.44.61-2.92,1.15-4.65,3.19-5.17,6.12-.25,1.41-.22,2.41.09,2.99.56.94,1.54,1.85,2.95,2.72,1.29.97,2.8,1.86,4.53,2.69,1.63.82,3.27,1.53,4.93,2.14,1.54.7,2.8,1.24,3.78,1.62,4.27,1.81,8.49,3.83,12.67,6.04,4.2,2.22,7.84,4.86,10.94,7.92,3.1,3.07,5.44,6.62,7.01,10.65,1.44,4.12,1.67,8.96.67,14.52-.95,5.25-2.85,9.71-5.69,13.37-2.85,3.66-6.35,6.53-10.47,8.6-4.25,2.16-9.02,3.48-14.33,3.99-5.33.61-10.92.38-16.78-.67Z"/>
          <path class="cls-4" d="M790.34,399.86l61.21,23.63c2.01.78,3.65,1.8,4.92,3.06,1.15,1.32,2.04,2.71,2.69,4.17.64,1.46,1,2.97,1.06,4.53-.05,1.53-.31,2.91-.79,4.15-.48,1.25-1.22,2.45-2.21,3.61-1.04,1.25-2.24,2.22-3.6,2.9-1.46.65-3.08,1.01-4.87,1.09-1.83.18-3.75-.12-5.76-.9l-16.67-6.43c-.29-.11-.74-.07-1.37.13-.63.2-1.09.69-1.38,1.45l-25.29,65.51c-.48,1.24-1.22,2.44-2.22,3.6-1,1.16-2.18,2.07-3.55,2.75-1.5.75-3.14,1.16-4.93,1.24-1.83.17-3.75-.13-5.76-.91-2.01-.78-3.59-1.83-4.73-3.15-1.27-1.26-2.17-2.65-2.68-4.17-.61-1.56-.9-3.09-.85-4.61-.06-1.57.15-2.98.63-4.22l25.29-65.52c.3-.76.33-1.41.09-1.94-.34-.57-.7-.93-1.07-1.07l-16.67-6.43c-1.92-.74-3.51-1.74-4.78-3-1.31-1.17-2.29-2.49-2.94-3.95-.65-1.46-1-2.97-1.05-4.53-.1-1.47.13-2.92.69-4.35.48-1.24,1.27-2.43,2.37-3.55,1-1.15,2.24-2.1,3.74-2.83,1.46-.65,3.1-1.07,4.93-1.24,1.7-.12,3.55.22,5.56.99Z"/>
          <path class="cls-4" d="M845.21,542.72c-1.65-1.04-2.98-2.3-3.99-3.79-1.15-1.45-1.9-2.95-2.25-4.51-.44-1.61-.54-3.19-.29-4.73.16-1.6.65-3.05,1.47-4.36l45.23-71.79c.71-1.13,1.71-2.14,3-3.03,1.2-.94,2.6-1.63,4.21-2.08,1.56-.35,3.25-.44,5.08-.25,1.69.22,3.44.9,5.27,2.05l36.88,23.23c1.82,1.15,3.24,2.47,4.25,3.95.86,1.52,1.47,3.05,1.83,4.61.35,1.56.4,3.11.16,4.65-.33,1.49-.88,2.85-1.65,4.07-.71,1.13-1.67,2.17-2.87,3.11-1.2.94-2.53,1.62-4,2.02-1.56.36-3.23.4-4.99.13-1.83-.18-3.66-.85-5.49-1.99l-24.23-15.27c-.26-.16-.72-.21-1.37-.14-.65.08-1.19.47-1.63,1.16l-5.67,8.99c-.44.7-.53,1.31-.26,1.85.22.62.46,1.02.72,1.18l17.46,11c1.83,1.15,3.24,2.47,4.25,3.95.86,1.52,1.47,3.05,1.83,4.61.35,1.56.41,3.11.17,4.65-.34,1.49-.89,2.85-1.65,4.06-.71,1.13-1.67,2.17-2.86,3.11-1.29.88-2.67,1.53-4.14,1.93-1.61.45-3.27.56-4.95.34-1.83-.18-3.65-.84-5.47-1.99l-17.47-11.01c-.26-.16-.71-.2-1.37-.13-.65.07-1.2.45-1.64,1.15l-8.53,13.55c-.44.7-.53,1.31-.25,1.85.22.63.46,1.02.71,1.18l24.24,15.27c1.82,1.15,3.24,2.46,4.24,3.95.87,1.51,1.48,3.04,1.83,4.6.36,1.56.42,3.11.17,4.66-.33,1.49-.88,2.85-1.65,4.06-.71,1.13-1.67,2.16-2.87,3.11-1.2.94-2.53,1.62-3.99,2.03-1.62.44-3.31.52-5.08.25-1.83-.18-3.66-.84-5.49-1.99l-36.87-23.23Z"/>
          <path class="cls-4" d="M974.85,583.42c-.25.74-.52,1.88-.81,3.43-.23,1.46-.49,3.1-.76,4.93-.43,1.84-.81,3.78-1.16,5.83-.76,4.03-1.42,7.8-1.99,11.32-.65,3.44-1.06,5.64-1.23,6.59-.34,2.2-1.27,4.13-2.79,5.8-.9.98-2.02,1.83-3.37,2.55-1.49.72-3,1.15-4.53,1.29-1.59.08-3.2-.14-4.82-.65-1.77-.5-3.45-1.47-5.04-2.93-1.9-1.73-3.15-3.64-3.75-5.73-.68-2.15-.84-4.25-.49-6.29l7.45-40.13c.1-1.03-.12-1.78-.65-2.26-.08-.08-.26-.18-.55-.31-.37-.05-.8.19-1.28.71l-19.01,20.81c-.9.98-2.03,1.83-3.38,2.55-1.35.72-2.78,1.15-4.29,1.29-1.67.15-3.35-.07-5.05-.65-1.77-.5-3.45-1.48-5.04-2.93-1.59-1.45-2.68-3-3.26-4.65-.73-1.64-1.06-3.26-.98-4.87,0-1.67.29-3.21.87-4.61.52-1.48,1.22-2.7,2.12-3.69l57.13-62.54c.97-1.07,2.16-1.92,3.59-2.57,1.36-.72,2.86-1.15,4.53-1.3,1.6-.07,3.28.15,5.05.65,1.62.51,3.22,1.49,4.81,2.95l18.53,16.93c4.25,3.88,7.42,8.02,9.51,12.43,1.95,4.42,2.98,8.84,3.11,13.27.05,4.36-.67,8.57-2.16,12.63-1.63,4.07-3.86,7.66-6.7,10.77-4.78,5.23-9.9,8.48-15.37,9.75-5.54,1.34-11.62,1.21-18.23-.38ZM968.18,546.44c-.56.61-.79,1.24-.69,1.89.1.65.27,1.08.49,1.29l7.51,6.86c2.35,2.15,4.73,3.2,7.13,3.16,2.25-.03,4.38-1.15,6.39-3.35,2.01-2.2,2.96-4.45,2.86-6.77-.25-2.31-1.56-4.54-3.91-6.69l-7.51-6.86c-.23-.2-.67-.33-1.32-.38-.66-.04-1.26.25-1.81.85l-9.14,10.01Z"/>
          <path class="cls-4" d="M991.28,672.07c-2.08-2.8-4.03-5.77-5.84-8.91-1.81-3.13-3.32-6.36-4.51-9.69-1.34-3.36-2.23-6.79-2.66-10.31-.44-3.51-.25-7.04.57-10.59.68-3.06,2.17-5.44,4.47-7.16,1.08-.8,2.37-1.38,3.89-1.74,1.46-.44,3.02-.58,4.69-.41,1.6.09,3.22.55,4.85,1.38,1.5.81,2.89,2.08,4.17,3.81,1.53,2.06,2.39,3.99,2.56,5.77.1,1.85.05,3.93-.15,6.25-.13,1.38.06,2.84.57,4.37.42,1.6,1.07,3.17,1.95,4.7.73,1.5,1.54,2.94,2.43,4.32.9,1.38,1.74,2.61,2.54,3.68,2.88,3.88,5.77,6.65,8.68,8.32,2.85,1.6,5.59,1.42,8.23-.54,1.08-.8,1.78-1.58,2.11-2.33.36-.9.36-2.19.02-3.85-.49-1.69-1.03-3.46-1.64-5.31-.69-1.79-1.39-3.51-2.1-5.15-.71-1.64-1.3-2.86-1.77-3.67-1.79-4.3-3.45-8.7-4.99-13.18-1.54-4.48-2.4-8.9-2.56-13.26-.25-4.29.48-8.48,2.19-12.55,1.62-4.02,4.74-7.74,9.35-11.17,3.88-2.88,8.07-4.71,12.59-5.51,4.52-.8,9.05-.64,13.59.47,4.39,1.09,8.71,3.11,12.97,6.09,4.26,2.98,8.07,6.74,11.43,11.27,3.49,4.7,6.1,9.6,7.85,14.7,1.68,5.02,2.08,10.29,1.19,15.81-.51,3.44-2.08,6.15-4.72,8.11-1.07.8-2.34,1.42-3.79,1.86-1.52.36-3.04.47-4.56.32-1.58-.24-3.12-.76-4.61-1.57-1.64-.83-3.1-2.11-4.39-3.84-1.96-2.64-2.85-5.56-2.67-8.76.04-1.31.07-2.48.07-3.51-.08-.97-.23-1.87-.47-2.71-.31-.92-.73-1.83-1.25-2.72-.53-.88-1.23-1.9-2.08-3.05-2.45-3.3-5.13-5.53-8.03-6.7-2.92-1.16-5.57-.85-7.96.92-1.15.86-1.81,1.61-1.97,2.24-.24,1.07-.14,2.4.29,4,.28,1.59.76,3.27,1.45,5.06.63,1.71,1.34,3.36,2.14,4.95.65,1.56,1.2,2.81,1.64,3.76,1.87,4.24,3.58,8.6,5.11,13.09,1.54,4.48,2.39,8.9,2.55,13.25.16,4.36-.57,8.54-2.19,12.56-1.77,4-4.92,7.68-9.45,11.05-4.29,3.18-8.72,5.13-13.3,5.85-4.58.72-9.09.42-13.52-.9-4.57-1.33-8.96-3.63-13.17-6.9-4.3-3.2-8.23-7.19-11.77-11.97Z"/>
          <path class="cls-1" d="M163.88,639.76l41.71,32.41c1.05.82,1.99,1.87,2.81,3.16.82,1.29,1.36,2.68,1.63,4.18.28,1.65.2,3.35-.25,5.09-.36,1.8-1.2,3.55-2.53,5.25-1.32,1.7-2.78,2.91-4.37,3.63-1.57.85-3.16,1.31-4.76,1.36-1.67.13-3.23-.04-4.67-.51-1.51-.4-2.8-1.01-3.85-1.83l-67.01-52.06c-1.05-.82-1.96-1.91-2.71-3.28-.82-1.29-1.37-2.76-1.65-4.41-.2-1.59-.12-3.28.24-5.08.38-1.65,1.23-3.33,2.55-5.03,2.52-3.24,5.56-4.98,9.12-5.21l44.31-3.81-6.55-44.28c-.2-1.59-.05-3.29.46-5.11.44-1.74,1.26-3.38,2.46-4.92,1.32-1.7,2.77-2.98,4.35-3.83,1.51-.78,3.06-1.27,4.64-1.47,1.67-.14,3.22-.04,4.65.29,1.45.48,2.74,1.16,3.87,2.04l67.01,52.07c1.06.82,2,1.87,2.82,3.15.75,1.37,1.26,2.81,1.53,4.31.28,1.65.23,3.3-.15,4.95-.36,1.8-1.2,3.55-2.52,5.25-1.33,1.7-2.79,2.91-4.38,3.63-1.57.86-3.16,1.31-4.75,1.37-1.67.14-3.23-.03-4.68-.51-1.52-.39-2.8-1-3.85-1.81l-41.71-32.41,4.21,29.21c.15,1.15.12,2.37-.09,3.64-.28,1.35-.89,2.63-1.83,3.85-.89,1.14-1.92,1.97-3.09,2.48-1.25.59-2.44.96-3.59,1.11l-29.35,3.13Z"/>
          <path class="cls-13" d="M267.48,599.63l-57.43-62.47c-.9-.98-1.61-2.21-2.13-3.69-.6-1.4-.9-2.94-.9-4.61.07-1.6.43-3.25,1.08-4.97.65-1.57,1.77-3.09,3.35-4.55,1.59-1.46,3.23-2.48,4.93-3.07,1.69-.44,3.33-.62,4.93-.55,1.6.07,3.11.43,4.53,1.07,1.35.71,2.51,1.59,3.49,2.65l57.32,62.36c.9.98,1.65,2.18,2.25,3.59.6,1.4.9,2.87.91,4.39,0,1.67-.36,3.33-1.08,4.97-.66,1.72-1.78,3.3-3.37,4.76-1.51,1.39-3.12,2.38-4.81,2.96-1.69.58-3.34.84-4.93.77-1.6-.07-3.11-.42-4.53-1.05-1.43-.64-2.63-1.5-3.6-2.55Z"/>
          <path class="cls-14" d="M290.28,514.12l27.84,42.15c.73,1.12,1.28,2.42,1.65,3.9.36,1.49.43,2.98.2,4.49-.26,1.65-.88,3.23-1.86,4.73-.92,1.59-2.28,2.98-4.08,4.17-1.8,1.19-3.57,1.87-5.31,2.03-1.77.3-3.41.22-4.95-.24-1.62-.41-3.05-1.07-4.27-1.98-1.31-.86-2.33-1.85-3.06-2.97l-46.69-70.67c-.8-1.2-1.33-2.57-1.61-4.11-.36-1.48-.41-3.05-.15-4.71.32-1.56.94-3.14,1.85-4.73.89-1.44,2.23-2.76,4.03-3.95,1.8-1.19,3.65-1.93,5.56-2.21,1.97-.19,3.76-.08,5.39.33l73.25,20.64-27.33-41.38c-.74-1.12-1.25-2.44-1.52-3.99-.37-1.48-.42-3.04-.15-4.69.32-1.57.94-3.15,1.86-4.74.88-1.45,2.23-2.77,4.03-3.95,1.8-1.19,3.58-1.94,5.35-2.24,1.73-.16,3.38-.08,4.95.24,1.56.32,3,.9,4.31,1.76,1.22.92,2.2,1.94,2.93,3.05l46.77,70.8c.73,1.12,1.28,2.41,1.65,3.89.28,1.54.3,3.07.06,4.57-.26,1.65-.84,3.2-1.73,4.65-.92,1.59-2.27,2.98-4.07,4.17-1.8,1.19-3.68,1.88-5.65,2.07-1.91.27-3.71.16-5.38-.33l-73.89-20.77Z"/>
          <path class="cls-11" d="M393.54,511.28l-34.93-77.34c-.55-1.21-.84-2.6-.87-4.17-.12-1.52.08-3.08.6-4.67.57-1.49,1.43-2.95,2.58-4.37,1.11-1.29,2.65-2.38,4.61-3.27,1.97-.88,3.85-1.34,5.64-1.36,1.74.12,3.36.45,4.85,1.01,1.5.57,2.82,1.38,3.97,2.44,1.06,1.09,1.89,2.3,2.48,3.61l34.87,77.2c.55,1.21.88,2.58,1.01,4.11.13,1.52-.05,3.01-.52,4.45-.52,1.59-1.38,3.05-2.58,4.38-1.17,1.43-2.73,2.59-4.69,3.47-1.87.85-3.7,1.28-5.49,1.29-1.79.03-3.44-.24-4.93-.81-1.49-.56-2.81-1.37-3.97-2.43-1.16-1.06-2.03-2.24-2.62-3.55Z"/>
          <path class="cls-17" d="M441.47,434.95l13.44,51.09c.34,1.29.45,2.7.31,4.22-.13,1.52-.55,2.95-1.25,4.31-.78,1.49-1.87,2.78-3.27,3.89-1.38,1.21-3.12,2.09-5.2,2.63-2.09.55-3.98.63-5.68.23-1.77-.28-3.31-.88-4.61-1.81-1.41-.91-2.55-1.99-3.41-3.24-.96-1.24-1.61-2.5-1.95-3.79l-21.59-82.07c-.34-1.29-.4-2.71-.17-4.25.13-1.52.59-3.02,1.37-4.5.81-1.38,1.9-2.68,3.27-3.89,1.31-1.08,3-1.9,5.09-2.45,3.97-1.04,7.44-.58,10.41,1.4l37.5,23.9,21.71-39.16c.8-1.37,1.96-2.63,3.47-3.77,1.41-1.12,3.06-1.92,4.94-2.42,2.08-.55,4.01-.69,5.78-.41,1.68.31,3.2.86,4.58,1.67,1.4.9,2.58,1.92,3.51,3.05.86,1.26,1.48,2.59,1.84,3.97l21.59,82.07c.34,1.29.45,2.7.31,4.22-.23,1.55-.7,3-1.4,4.35-.78,1.48-1.83,2.76-3.14,3.85-1.37,1.21-3.1,2.09-5.19,2.64-2.09.55-3.98.62-5.68.22-1.77-.28-3.31-.88-4.61-1.81-1.41-.91-2.54-2-3.4-3.25-.97-1.23-1.62-2.49-1.96-3.78l-13.44-51.09-14.4,25.77c-.58,1-1.34,1.94-2.27,2.83-1.04.91-2.31,1.56-3.79,1.95-1.39.37-2.71.4-3.95.09-1.35-.28-2.53-.72-3.53-1.3l-25.21-15.35Z"/>
          <path class="cls-18" d="M604.2,375.03l35.35,82.24c.65,1.21,1,2.64,1.05,4.29.04,1.33-.19,2.73-.66,4.17-.58,1.45-1.42,2.76-2.51,3.92-1.1,1.16-2.41,2.12-3.93,2.88-1.62.87-3.51,1.33-5.66,1.39-3.18.09-5.82-.67-7.92-2.25-2.1-1.59-3.59-3.4-4.46-5.43l-9.05-21.47c-.54-.81-1.17-1.2-1.89-1.19l-26.02.71c-.31.01-.61.12-.91.34-.41.22-.71.53-.91.95l-8.03,21.94c-.77,2.08-2.16,3.96-4.17,5.65-2.01,1.7-4.6,2.6-7.78,2.68-2.05.06-3.91-.3-5.57-1.08-1.66-.67-3.02-1.56-4.08-2.67-1.16-1.1-2.02-2.36-2.57-3.78-.65-1.42-.99-2.79-1.03-4.13-.05-1.54.17-2.99.65-4.33l30.85-84.03c.96-2.6,2.74-4.9,5.36-6.92,2.52-1.92,5.57-2.93,9.17-3.03,3.59-.1,6.69.79,9.31,2.67,2.62,1.89,4.43,4.05,5.41,6.48ZM590.47,408.38c-.78,1.77-1.5,3.53-2.17,5.29-.67,1.86-1.33,3.73-2,5.6,0,.21-.09.41-.29.62l9.23-.25c0-.1-.11-.36-.33-.76-.23-.82-.57-1.68-1-2.59-.43-.92-.87-1.88-1.31-2.89-.33-.92-.66-1.79-.99-2.6-.43-.8-.81-1.61-1.14-2.43Z"/>
          <path class="cls-7" d="M688.68,482c-3.44-.62-6.89-1.45-10.35-2.49-3.46-1.04-6.77-2.37-9.93-3.98-3.27-1.53-6.26-3.42-8.99-5.69-2.72-2.26-5-4.97-6.83-8.11-1.61-2.69-2.15-5.45-1.64-8.27.24-1.32.78-2.63,1.65-3.93.76-1.33,1.81-2.5,3.14-3.51,1.23-1.03,2.73-1.8,4.49-2.32,1.64-.44,3.52-.46,5.64-.08,2.53.46,4.47,1.28,5.83,2.46,1.33,1.29,2.72,2.84,4.16,4.66.84,1.09,1.98,2.03,3.41,2.81,1.4.88,2.94,1.58,4.63,2.09,1.56.59,3.14,1.09,4.74,1.49,1.6.39,3.06.71,4.37.94,4.75.86,8.76.9,12.03.13,3.16-.78,5.04-2.79,5.62-6.02.24-1.32.22-2.36-.05-3.15-.37-.9-1.24-1.84-2.63-2.82-1.51-.89-3.12-1.81-4.83-2.75-1.73-.84-3.42-1.61-5.06-2.32-1.65-.71-2.91-1.2-3.8-1.47-4.25-1.92-8.47-3.98-12.66-6.19-4.19-2.21-7.83-4.85-10.93-7.92-3.12-2.96-5.45-6.5-7-10.65-1.57-4.04-1.84-8.89-.82-14.55.85-4.75,2.65-8.96,5.4-12.64,2.75-3.68,6.16-6.66,10.23-8.95,3.94-2.21,8.48-3.69,13.63-4.43,5.14-.74,10.49-.61,16.05.39,5.76,1.04,11.02,2.82,15.78,5.35,4.66,2.51,8.55,6.08,11.69,10.71,1.99,2.86,2.7,5.91,2.11,9.15-.24,1.31-.73,2.63-1.49,3.95-.86,1.31-1.9,2.43-3.11,3.35-1.32.91-2.79,1.58-4.43,2.02-1.76.51-3.7.58-5.83.19-3.23-.58-5.88-2.1-7.94-4.56-.87-.99-1.65-1.86-2.34-2.61-.73-.64-1.46-1.19-2.21-1.65-.85-.47-1.78-.84-2.77-1.12-.99-.28-2.19-.55-3.61-.81-4.04-.73-7.52-.52-10.44.61-2.92,1.15-4.65,3.19-5.17,6.12-.25,1.41-.22,2.41.09,2.99.56.94,1.54,1.85,2.95,2.72,1.29.97,2.8,1.86,4.53,2.69,1.63.82,3.27,1.53,4.93,2.14,1.54.7,2.8,1.24,3.78,1.62,4.27,1.81,8.49,3.83,12.67,6.04,4.2,2.22,7.84,4.86,10.94,7.92,3.1,3.07,5.44,6.62,7.01,10.65,1.44,4.12,1.67,8.96.67,14.52-.95,5.25-2.85,9.71-5.69,13.37-2.85,3.66-6.35,6.53-10.47,8.6-4.25,2.16-9.02,3.48-14.33,3.99-5.33.61-10.92.38-16.78-.67Z"/>
          <path class="cls-12" d="M783.53,393.06l61.21,23.63c2.01.78,3.65,1.8,4.92,3.06,1.15,1.32,2.04,2.71,2.69,4.17.64,1.46,1,2.97,1.06,4.53-.05,1.53-.31,2.91-.79,4.15-.48,1.25-1.22,2.45-2.21,3.61-1.04,1.25-2.24,2.22-3.6,2.9-1.46.65-3.08,1.01-4.87,1.09-1.83.18-3.75-.12-5.76-.9l-16.67-6.43c-.29-.11-.74-.07-1.37.13-.63.2-1.09.69-1.38,1.45l-25.29,65.51c-.48,1.24-1.22,2.44-2.22,3.6-1,1.16-2.18,2.07-3.55,2.75-1.5.75-3.14,1.16-4.93,1.24-1.83.17-3.75-.13-5.76-.91-2.01-.78-3.59-1.83-4.73-3.15-1.27-1.26-2.17-2.65-2.68-4.17-.61-1.56-.9-3.09-.85-4.61-.06-1.57.15-2.98.63-4.22l25.29-65.52c.3-.76.33-1.41.09-1.94-.34-.57-.7-.93-1.07-1.07l-16.67-6.43c-1.92-.74-3.51-1.74-4.78-3-1.31-1.17-2.29-2.49-2.94-3.95-.65-1.46-1-2.97-1.05-4.53-.1-1.47.13-2.92.69-4.35.48-1.24,1.27-2.43,2.37-3.55,1-1.15,2.24-2.1,3.74-2.83,1.46-.65,3.1-1.07,4.93-1.24,1.7-.12,3.55.22,5.56.99Z"/>
          <path class="cls-5" d="M838.41,535.91c-1.65-1.04-2.98-2.3-3.99-3.79-1.15-1.45-1.9-2.95-2.25-4.51-.44-1.61-.54-3.19-.29-4.73.16-1.6.65-3.05,1.47-4.36l45.23-71.79c.71-1.13,1.71-2.14,3-3.03,1.2-.94,2.6-1.63,4.21-2.08,1.56-.35,3.25-.44,5.08-.25,1.69.22,3.44.9,5.27,2.05l36.88,23.23c1.82,1.15,3.24,2.47,4.25,3.95.86,1.52,1.47,3.05,1.83,4.61.35,1.56.4,3.11.16,4.65-.33,1.49-.88,2.85-1.65,4.07-.71,1.13-1.67,2.17-2.87,3.11-1.2.94-2.53,1.62-4,2.02-1.56.36-3.23.4-4.99.13-1.83-.18-3.66-.85-5.49-1.99l-24.23-15.27c-.26-.16-.72-.21-1.37-.14-.65.08-1.19.47-1.63,1.16l-5.67,8.99c-.44.7-.53,1.31-.26,1.85.22.62.46,1.02.72,1.18l17.46,11c1.83,1.15,3.24,2.47,4.25,3.95.86,1.52,1.47,3.05,1.83,4.61.35,1.56.41,3.11.17,4.65-.34,1.49-.89,2.85-1.65,4.06-.71,1.13-1.67,2.17-2.86,3.11-1.29.88-2.67,1.53-4.14,1.93-1.61.45-3.27.56-4.95.34-1.83-.18-3.65-.84-5.47-1.99l-17.47-11.01c-.26-.16-.71-.2-1.37-.13-.65.07-1.2.45-1.64,1.15l-8.53,13.55c-.44.7-.53,1.31-.25,1.85.22.63.46,1.02.71,1.18l24.24,15.27c1.82,1.15,3.24,2.46,4.24,3.95.87,1.51,1.48,3.04,1.83,4.6.36,1.56.42,3.11.17,4.66-.33,1.49-.88,2.85-1.65,4.06-.71,1.13-1.67,2.16-2.87,3.11-1.2.94-2.53,1.62-3.99,2.03-1.62.44-3.31.52-5.08.25-1.83-.18-3.66-.84-5.49-1.99l-36.87-23.23Z"/>
          <path class="cls-3" d="M968.04,576.61c-.25.74-.52,1.88-.81,3.43-.23,1.46-.49,3.1-.76,4.93-.43,1.84-.81,3.78-1.16,5.83-.76,4.03-1.42,7.8-1.99,11.32-.65,3.44-1.06,5.64-1.23,6.59-.34,2.2-1.27,4.13-2.79,5.8-.9.98-2.02,1.83-3.37,2.55-1.49.72-3,1.15-4.53,1.29-1.59.08-3.2-.14-4.82-.65-1.77-.5-3.45-1.47-5.04-2.93-1.9-1.73-3.15-3.64-3.75-5.73-.68-2.15-.84-4.25-.49-6.29l7.45-40.13c.1-1.03-.12-1.78-.65-2.26-.08-.08-.26-.18-.55-.31-.37-.05-.8.19-1.28.71l-19.01,20.81c-.9.98-2.03,1.83-3.38,2.55-1.35.72-2.78,1.15-4.29,1.29-1.67.15-3.35-.07-5.05-.65-1.77-.5-3.45-1.48-5.04-2.93-1.59-1.45-2.68-3-3.26-4.65-.73-1.64-1.06-3.26-.98-4.87,0-1.67.29-3.21.87-4.61.52-1.48,1.22-2.7,2.12-3.69l57.13-62.54c.97-1.07,2.16-1.92,3.59-2.57,1.36-.72,2.86-1.15,4.53-1.3,1.6-.07,3.28.15,5.05.65,1.62.51,3.22,1.49,4.81,2.95l18.53,16.93c4.25,3.88,7.42,8.02,9.51,12.43,1.95,4.42,2.98,8.84,3.11,13.27.05,4.36-.67,8.57-2.16,12.63-1.63,4.07-3.86,7.66-6.7,10.77-4.78,5.23-9.9,8.48-15.37,9.75-5.54,1.34-11.62,1.21-18.23-.38ZM961.37,539.63c-.56.61-.79,1.24-.69,1.89.1.65.27,1.08.49,1.29l7.51,6.86c2.35,2.15,4.73,3.2,7.13,3.16,2.25-.03,4.38-1.15,6.39-3.35,2.01-2.2,2.96-4.45,2.86-6.77-.25-2.31-1.56-4.54-3.91-6.69l-7.51-6.86c-.23-.2-.67-.33-1.32-.38-.66-.04-1.26.25-1.81.85l-9.14,10.01Z"/>
          <path class="cls-8" d="M984.48,665.27c-2.08-2.8-4.03-5.77-5.84-8.91-1.81-3.13-3.32-6.36-4.51-9.69-1.34-3.36-2.23-6.79-2.66-10.31-.44-3.51-.25-7.04.57-10.59.68-3.06,2.17-5.44,4.47-7.16,1.08-.8,2.37-1.38,3.89-1.74,1.46-.44,3.02-.58,4.69-.41,1.6.09,3.22.55,4.85,1.38,1.5.81,2.89,2.08,4.17,3.81,1.53,2.06,2.39,3.99,2.56,5.77.1,1.85.05,3.93-.15,6.25-.13,1.38.06,2.84.57,4.37.42,1.6,1.07,3.17,1.95,4.7.73,1.5,1.54,2.94,2.43,4.32.9,1.38,1.74,2.61,2.54,3.68,2.88,3.88,5.77,6.65,8.68,8.32,2.85,1.6,5.59,1.42,8.23-.54,1.08-.8,1.78-1.58,2.11-2.33.36-.9.36-2.19.02-3.85-.49-1.69-1.03-3.46-1.64-5.31-.69-1.79-1.39-3.51-2.1-5.15-.71-1.64-1.3-2.86-1.77-3.67-1.79-4.3-3.45-8.7-4.99-13.18-1.54-4.48-2.4-8.9-2.56-13.26-.25-4.29.48-8.48,2.19-12.55,1.62-4.02,4.74-7.74,9.35-11.17,3.88-2.88,8.07-4.71,12.59-5.51,4.52-.8,9.05-.64,13.59.47,4.39,1.09,8.71,3.11,12.97,6.09,4.26,2.98,8.07,6.74,11.43,11.27,3.49,4.7,6.1,9.6,7.85,14.7,1.68,5.02,2.08,10.29,1.19,15.81-.51,3.44-2.08,6.15-4.72,8.11-1.07.8-2.34,1.42-3.79,1.86-1.52.36-3.04.47-4.56.32-1.58-.24-3.12-.76-4.61-1.57-1.64-.83-3.1-2.11-4.39-3.84-1.96-2.64-2.85-5.56-2.67-8.76.04-1.31.07-2.48.07-3.51-.08-.97-.23-1.87-.47-2.71-.31-.92-.73-1.83-1.25-2.72-.53-.88-1.23-1.9-2.08-3.05-2.45-3.3-5.13-5.53-8.03-6.7-2.92-1.16-5.57-.85-7.96.92-1.15.86-1.81,1.61-1.97,2.24-.24,1.07-.14,2.4.29,4,.28,1.59.76,3.27,1.45,5.06.63,1.71,1.34,3.36,2.14,4.95.65,1.56,1.2,2.81,1.64,3.76,1.87,4.24,3.58,8.6,5.11,13.09,1.54,4.48,2.39,8.9,2.55,13.25.16,4.36-.57,8.54-2.19,12.56-1.77,4-4.92,7.68-9.45,11.05-4.29,3.18-8.72,5.13-13.3,5.85-4.58.72-9.09.42-13.52-.9-4.57-1.33-8.96-3.63-13.17-6.9-4.3-3.2-8.23-7.19-11.77-11.97Z"/>
        </g>
      </g>
    </g>
  </g>
</svg>