<?xml version="1.0" encoding="UTF-8"?><svg id="a" xmlns="http://www.w3.org/2000/svg" width="809.99" height="738.68" xmlns:xlink="http://www.w3.org/1999/xlink" viewBox="0 0 809.99 738.68"><defs><mask id="b" x="0" y="0" width="810" height="738.68" maskUnits="userSpaceOnUse"><g id="c"><path d="M810,0H0v738.68h810V0Z" fill="#fff"/></g></mask><linearGradient id="d" x1="2125.61" y1="2782.46" x2="-2181.89" y2="-1890.04" gradientTransform="translate(564 974.68) scale(1 -1)" gradientUnits="userSpaceOnUse"><stop offset=".48" stop-color="#f8f5e3" stop-opacity="0"/><stop offset=".5" stop-color="#f8f5e3" stop-opacity=".6"/><stop offset=".51" stop-color="#f8f5e3" stop-opacity="0"/><stop offset=".69" stop-color="#f8f5e3" stop-opacity="0"/><stop offset=".9" stop-color="#f8f5e3" stop-opacity="0"/><stop offset="1" stop-color="#f8f5e3" stop-opacity="0"/></linearGradient><linearGradient id="e" x1="1848.59" y1="2905.21" x2="-2448.91" y2="-1489.79" xlink:href="#d"/></defs><g mask="url(#b)"><g opacity=".5"><path d="M541.04,254.14c-127.79,0-233.3,99.45-233.3,224.44s105.51,224.45,233.3,224.45c37.08,0,72.25-8.34,103.5-23.25,2.72-1.3,5.09-1.35,6.59-.98l46.26,11.85c36.9,9.46,75.17-22.99,63.94-63.21l-12.37-44.29c-.16-.57-.31-2.04.84-4.24l1.45-2.85c14.79-29.48,23.11-62.59,23.11-97.51,0-124.99-105.51-224.44-233.29-224.44h-.02v.02Z" fill="#fff"/><path d="M541.04,728.5c-68.63,0-133.33-25.72-182.17-72.42-49.39-47.22-76.6-110.26-76.6-177.5s27.21-130.29,76.6-177.5c48.85-46.69,113.54-72.41,182.17-72.41s133.32,25.72,182.17,72.41c49.39,47.23,76.6,110.27,76.6,177.5,0,36.89-8.12,72.4-24.15,105.56l10.19,36.45c7.38,26.45.46,53.84-18.57,73.28-19.78,20.21-48.99,28.44-76.22,21.47l-40.34-10.33c-34.44,15.6-71.32,23.49-109.67,23.49ZM541.04,279.6c-114.6,0-207.83,89.25-207.83,198.96s93.24,198.98,207.83,198.98c32.5,0,63.64-7,92.54-20.76,7.69-3.68,16.17-4.64,23.84-2.67l46.29,11.85c9.65,2.47,20.07-.49,27.17-7.74,4.47-4.58,9.13-12.44,5.92-23.94l-12.37-44.27c-2.06-7.3-1.11-15.38,2.71-22.76l1.39-2.71c13.51-26.94,20.36-55.88,20.36-86,0-109.7-93.25-198.96-207.84-198.96v.02Z" fill="#fff"/></g><g opacity=".5"><path d="M268.96,35.66c127.79,0,233.31,99.45,233.31,224.44s-105.51,224.45-233.31,224.45c-37.09,0-72.26-8.35-103.5-23.24-2.72-1.31-5.08-1.35-6.59-.98l-46.27,11.85c-36.91,9.45-75.18-22.99-63.93-63.21l12.38-44.29c.16-.57.3-2.04-.85-4.24l-1.46-2.84c-14.81-29.48-23.11-62.59-23.11-97.5,0-124.99,105.51-224.44,233.3-224.44h0v.02Z" fill="#fff"/><path d="M268.96,510.01c-38.37,0-75.24-7.91-109.68-23.49l-40.35,10.33c-27.24,6.97-56.43-1.25-76.23-21.47-19.02-19.44-25.96-46.83-18.57-73.28l10.19-36.46c-16.03-33.16-24.16-68.65-24.16-105.57,0-67.25,27.21-130.29,76.6-177.5C135.63,35.91,200.33,10.19,268.96,10.19s133.33,25.72,182.17,72.41c49.39,47.23,76.6,110.26,76.6,177.5s-27.2,130.29-76.6,177.5c-48.85,46.69-113.54,72.41-182.17,72.41h0ZM160.64,434.65c5.3,0,10.71,1.23,15.79,3.66,28.89,13.78,60.03,20.76,92.54,20.76,114.6,0,207.84-89.26,207.84-198.97S383.55,61.14,268.96,61.13c-114.6,0-207.83,89.25-207.83,198.97,0,30.11,6.84,59.05,20.36,85.99l1.38,2.71c3.79,7.36,4.76,15.42,2.72,22.72l-12.38,44.3c-3.21,11.49,1.45,19.35,5.92,23.94,7.09,7.25,17.51,10.22,27.16,7.75l46.27-11.85c2.62-.68,5.33-1.01,8.07-1.01h.02Z" fill="#fff"/></g><g opacity=".5"><path d="M541.04,254.14c-127.79,0-233.3,99.45-233.3,224.44s105.51,224.45,233.3,224.45c37.08,0,72.25-8.34,103.5-23.25,2.72-1.3,5.09-1.35,6.59-.98l46.26,11.85c36.9,9.46,75.17-22.99,63.94-63.21l-12.37-44.29c-.16-.57-.31-2.04.84-4.24l1.45-2.85c14.79-29.48,23.11-62.59,23.11-97.51,0-124.99-105.51-224.44-233.29-224.44h-.02v.02Z" fill="#fff"/><path d="M541.04,728.5c-68.63,0-133.33-25.72-182.17-72.42-49.39-47.22-76.6-110.26-76.6-177.5s27.21-130.29,76.6-177.5c48.85-46.69,113.54-72.41,182.17-72.41s133.32,25.72,182.17,72.41c49.39,47.23,76.6,110.27,76.6,177.5,0,36.89-8.12,72.4-24.15,105.56l10.19,36.45c7.38,26.45.46,53.84-18.57,73.28-19.78,20.21-48.99,28.44-76.22,21.47l-40.34-10.33c-34.44,15.6-71.32,23.49-109.67,23.49ZM541.04,279.6c-114.6,0-207.83,89.25-207.83,198.96s93.24,198.98,207.83,198.98c32.5,0,63.64-7,92.54-20.76,7.69-3.68,16.17-4.64,23.84-2.67l46.29,11.85c9.65,2.47,20.07-.49,27.17-7.74,4.47-4.58,9.13-12.44,5.92-23.94l-12.37-44.27c-2.06-7.3-1.11-15.38,2.71-22.76l1.39-2.71c13.51-26.94,20.36-55.88,20.36-86,0-109.7-93.25-198.96-207.84-198.96v.02Z" fill="#fff"/></g><g opacity=".5"><path d="M268.96,35.66c127.79,0,233.31,99.45,233.31,224.44s-105.51,224.45-233.31,224.45c-37.09,0-72.26-8.35-103.5-23.24-2.72-1.31-5.08-1.35-6.59-.98l-46.27,11.85c-36.91,9.45-75.18-22.99-63.93-63.21l12.38-44.29c.16-.57.3-2.04-.85-4.24l-1.46-2.84c-14.81-29.48-23.11-62.59-23.11-97.5,0-124.99,105.51-224.44,233.3-224.44h0v.02Z" fill="#fff"/><path d="M268.96,510.01c-38.37,0-75.24-7.91-109.68-23.49l-40.35,10.33c-27.24,6.97-56.43-1.25-76.23-21.47-19.02-19.44-25.96-46.83-18.57-73.28l10.19-36.46c-16.03-33.16-24.16-68.65-24.16-105.57,0-67.25,27.21-130.29,76.6-177.5C135.63,35.91,200.33,10.19,268.96,10.19s133.33,25.72,182.17,72.41c49.39,47.23,76.6,110.26,76.6,177.5s-27.2,130.29-76.6,177.5c-48.85,46.69-113.54,72.41-182.17,72.41h0ZM160.64,434.65c5.3,0,10.71,1.23,15.79,3.66,28.89,13.78,60.03,20.76,92.54,20.76,114.6,0,207.84-89.26,207.84-198.97S383.55,61.14,268.96,61.13c-114.6,0-207.83,89.25-207.83,198.97,0,30.11,6.84,59.05,20.36,85.99l1.38,2.71c3.79,7.36,4.76,15.42,2.72,22.72l-12.38,44.3c-3.21,11.49,1.45,19.35,5.92,23.94,7.09,7.25,17.51,10.22,27.16,7.75l46.27-11.85c2.62-.68,5.33-1.01,8.07-1.01h.02Z" fill="#fff"/></g><g opacity=".5"><path d="M541.04,254.14c-127.79,0-233.3,99.45-233.3,224.44s105.51,224.45,233.3,224.45c37.08,0,72.25-8.34,103.5-23.25,2.72-1.3,5.09-1.35,6.59-.98l46.26,11.85c36.9,9.46,75.17-22.99,63.94-63.21l-12.37-44.29c-.16-.57-.31-2.04.84-4.24l1.45-2.85c14.79-29.48,23.11-62.59,23.11-97.51,0-124.99-105.51-224.44-233.29-224.44h-.02v.02Z" fill="#fff"/><path d="M541.04,728.5c-68.63,0-133.33-25.72-182.17-72.42-49.39-47.22-76.6-110.26-76.6-177.5s27.21-130.29,76.6-177.5c48.85-46.69,113.54-72.41,182.17-72.41s133.32,25.72,182.17,72.41c49.39,47.23,76.6,110.27,76.6,177.5,0,36.89-8.12,72.4-24.15,105.56l10.19,36.45c7.38,26.45.46,53.84-18.57,73.28-19.78,20.21-48.99,28.44-76.22,21.47l-40.34-10.33c-34.44,15.6-71.32,23.49-109.67,23.49ZM541.04,279.6c-114.6,0-207.83,89.25-207.83,198.96s93.24,198.98,207.83,198.98c32.5,0,63.64-7,92.54-20.76,7.69-3.68,16.17-4.64,23.84-2.67l46.29,11.85c9.65,2.47,20.07-.49,27.17-7.74,4.47-4.58,9.13-12.44,5.92-23.94l-12.37-44.27c-2.06-7.3-1.11-15.38,2.71-22.76l1.39-2.71c13.51-26.94,20.36-55.88,20.36-86,0-109.7-93.25-198.96-207.84-198.96v.02Z" fill="#fff"/></g><g opacity=".5"><path d="M268.96,35.66c127.79,0,233.31,99.45,233.31,224.44s-105.51,224.45-233.31,224.45c-37.09,0-72.26-8.35-103.5-23.24-2.72-1.31-5.08-1.35-6.59-.98l-46.27,11.85c-36.91,9.45-75.18-22.99-63.93-63.21l12.38-44.29c.16-.57.3-2.04-.85-4.24l-1.46-2.84c-14.81-29.48-23.11-62.59-23.11-97.5,0-124.99,105.51-224.44,233.3-224.44h0v.02Z" fill="#fff"/><path d="M268.96,510.01c-38.37,0-75.24-7.91-109.68-23.49l-40.35,10.33c-27.24,6.97-56.43-1.25-76.23-21.47-19.02-19.44-25.96-46.83-18.57-73.28l10.19-36.46c-16.03-33.16-24.16-68.65-24.16-105.57,0-67.25,27.21-130.29,76.6-177.5C135.63,35.91,200.33,10.19,268.96,10.19s133.33,25.72,182.17,72.41c49.39,47.23,76.6,110.26,76.6,177.5s-27.2,130.29-76.6,177.5c-48.85,46.69-113.54,72.41-182.17,72.41h0ZM160.64,434.65c5.3,0,10.71,1.23,15.79,3.66,28.89,13.78,60.03,20.76,92.54,20.76,114.6,0,207.84-89.26,207.84-198.97S383.55,61.14,268.96,61.13c-114.6,0-207.83,89.25-207.83,198.97,0,30.11,6.84,59.05,20.36,85.99l1.38,2.71c3.79,7.36,4.76,15.42,2.72,22.72l-12.38,44.3c-3.21,11.49,1.45,19.35,5.92,23.94,7.09,7.25,17.51,10.22,27.16,7.75l46.27-11.85c2.62-.68,5.33-1.01,8.07-1.01h.02Z" fill="#fff"/></g><g opacity=".5"><path d="M541.04,254.14c-127.79,0-233.3,99.45-233.3,224.44s105.51,224.45,233.3,224.45c37.08,0,72.25-8.34,103.5-23.25,2.72-1.3,5.09-1.35,6.59-.98l46.26,11.85c36.9,9.46,75.17-22.99,63.94-63.21l-12.37-44.29c-.16-.57-.31-2.04.84-4.24l1.45-2.85c14.79-29.48,23.11-62.59,23.11-97.51,0-124.99-105.51-224.44-233.29-224.44h-.02v.02Z" fill="#fff"/><path d="M541.04,728.5c-68.63,0-133.33-25.72-182.17-72.42-49.39-47.22-76.6-110.26-76.6-177.5s27.21-130.29,76.6-177.5c48.85-46.69,113.54-72.41,182.17-72.41s133.32,25.72,182.17,72.41c49.39,47.23,76.6,110.27,76.6,177.5,0,36.89-8.12,72.4-24.15,105.56l10.19,36.45c7.38,26.45.46,53.84-18.57,73.28-19.78,20.21-48.99,28.44-76.22,21.47l-40.34-10.33c-34.44,15.6-71.32,23.49-109.67,23.49ZM541.04,279.6c-114.6,0-207.83,89.25-207.83,198.96s93.24,198.98,207.83,198.98c32.5,0,63.64-7,92.54-20.76,7.69-3.68,16.17-4.64,23.84-2.67l46.29,11.85c9.65,2.47,20.07-.49,27.17-7.74,4.47-4.58,9.13-12.44,5.92-23.94l-12.37-44.27c-2.06-7.3-1.11-15.38,2.71-22.76l1.39-2.71c13.51-26.94,20.36-55.88,20.36-86,0-109.7-93.25-198.96-207.84-198.96v.02Z" fill="#fff"/></g><g opacity=".5"><path d="M268.96,35.66c127.79,0,233.31,99.45,233.31,224.44s-105.51,224.45-233.31,224.45c-37.09,0-72.26-8.35-103.5-23.24-2.72-1.31-5.08-1.35-6.59-.98l-46.27,11.85c-36.91,9.45-75.18-22.99-63.93-63.21l12.38-44.29c.16-.57.3-2.04-.85-4.24l-1.46-2.84c-14.81-29.48-23.11-62.59-23.11-97.5,0-124.99,105.51-224.44,233.3-224.44h0v.02Z" fill="#fff"/><path d="M268.96,510.01c-38.37,0-75.24-7.91-109.68-23.49l-40.35,10.33c-27.24,6.97-56.43-1.25-76.23-21.47-19.02-19.44-25.96-46.83-18.57-73.28l10.19-36.46c-16.03-33.16-24.16-68.65-24.16-105.57,0-67.25,27.21-130.29,76.6-177.5C135.63,35.91,200.33,10.19,268.96,10.19s133.33,25.72,182.17,72.41c49.39,47.23,76.6,110.26,76.6,177.5s-27.2,130.29-76.6,177.5c-48.85,46.69-113.54,72.41-182.17,72.41h0ZM160.64,434.65c5.3,0,10.71,1.23,15.79,3.66,28.89,13.78,60.03,20.76,92.54,20.76,114.6,0,207.84-89.26,207.84-198.97S383.55,61.14,268.96,61.13c-114.6,0-207.83,89.25-207.83,198.97,0,30.11,6.84,59.05,20.36,85.99l1.38,2.71c3.79,7.36,4.76,15.42,2.72,22.72l-12.38,44.3c-3.21,11.49,1.45,19.35,5.92,23.94,7.09,7.25,17.51,10.22,27.16,7.75l46.27-11.85c2.62-.68,5.33-1.01,8.07-1.01h.02Z" fill="#fff"/></g><g opacity=".5"><path d="M541.04,254.14c-127.79,0-233.3,99.45-233.3,224.44s105.51,224.45,233.3,224.45c37.08,0,72.25-8.34,103.5-23.25,2.72-1.3,5.09-1.35,6.59-.98l46.26,11.85c36.9,9.46,75.17-22.99,63.94-63.21l-12.37-44.29c-.16-.57-.31-2.04.84-4.24l1.45-2.85c14.79-29.48,23.11-62.59,23.11-97.51,0-124.99-105.51-224.44-233.29-224.44h-.02v.02Z" fill="#fff"/><path d="M541.04,728.5c-68.63,0-133.33-25.72-182.17-72.42-49.39-47.22-76.6-110.26-76.6-177.5s27.21-130.29,76.6-177.5c48.85-46.69,113.54-72.41,182.17-72.41s133.32,25.72,182.17,72.41c49.39,47.23,76.6,110.27,76.6,177.5,0,36.89-8.12,72.4-24.15,105.56l10.19,36.45c7.38,26.45.46,53.84-18.57,73.28-19.78,20.21-48.99,28.44-76.22,21.47l-40.34-10.33c-34.44,15.6-71.32,23.49-109.67,23.49ZM541.04,279.6c-114.6,0-207.83,89.25-207.83,198.96s93.24,198.98,207.83,198.98c32.5,0,63.64-7,92.54-20.76,7.69-3.68,16.17-4.64,23.84-2.67l46.29,11.85c9.65,2.47,20.07-.49,27.17-7.74,4.47-4.58,9.13-12.44,5.92-23.94l-12.37-44.27c-2.06-7.3-1.11-15.38,2.71-22.76l1.39-2.71c13.51-26.94,20.36-55.88,20.36-86,0-109.7-93.25-198.96-207.84-198.96v.02Z" fill="#fff"/></g><g opacity=".5"><path d="M268.96,35.66c127.79,0,233.31,99.45,233.31,224.44s-105.51,224.45-233.31,224.45c-37.09,0-72.26-8.35-103.5-23.24-2.72-1.31-5.08-1.35-6.59-.98l-46.27,11.85c-36.91,9.45-75.18-22.99-63.93-63.21l12.38-44.29c.16-.57.3-2.04-.85-4.24l-1.46-2.84c-14.81-29.48-23.11-62.59-23.11-97.5,0-124.99,105.51-224.44,233.3-224.44h0v.02Z" fill="#fff"/><path d="M268.96,510.01c-38.37,0-75.24-7.91-109.68-23.49l-40.35,10.33c-27.24,6.97-56.43-1.25-76.23-21.47-19.02-19.44-25.96-46.83-18.57-73.28l10.19-36.46c-16.03-33.16-24.16-68.65-24.16-105.57,0-67.25,27.21-130.29,76.6-177.5C135.63,35.91,200.33,10.19,268.96,10.19s133.33,25.72,182.17,72.41c49.39,47.23,76.6,110.26,76.6,177.5s-27.2,130.29-76.6,177.5c-48.85,46.69-113.54,72.41-182.17,72.41h0ZM160.64,434.65c5.3,0,10.71,1.23,15.79,3.66,28.89,13.78,60.03,20.76,92.54,20.76,114.6,0,207.84-89.26,207.84-198.97S383.55,61.14,268.96,61.13c-114.6,0-207.83,89.25-207.83,198.97,0,30.11,6.84,59.05,20.36,85.99l1.38,2.71c3.79,7.36,4.76,15.42,2.72,22.72l-12.38,44.3c-3.21,11.49,1.45,19.35,5.92,23.94,7.09,7.25,17.51,10.22,27.16,7.75l46.27-11.85c2.62-.68,5.33-1.01,8.07-1.01h.02Z" fill="#fff"/></g><g opacity=".5"><path d="M541.04,254.14c-127.79,0-233.3,99.45-233.3,224.44s105.51,224.45,233.3,224.45c37.08,0,72.25-8.34,103.5-23.25,2.72-1.3,5.09-1.35,6.59-.98l46.26,11.85c36.9,9.46,75.17-22.99,63.94-63.21l-12.37-44.29c-.16-.57-.31-2.04.84-4.24l1.45-2.85c14.79-29.48,23.11-62.59,23.11-97.51,0-124.99-105.51-224.44-233.29-224.44h-.02v.02Z" fill="#fff"/><path d="M541.04,728.5c-68.63,0-133.33-25.72-182.17-72.42-49.39-47.22-76.6-110.26-76.6-177.5s27.21-130.29,76.6-177.5c48.85-46.69,113.54-72.41,182.17-72.41s133.32,25.72,182.17,72.41c49.39,47.23,76.6,110.27,76.6,177.5,0,36.89-8.12,72.4-24.15,105.56l10.19,36.45c7.38,26.45.46,53.84-18.57,73.28-19.78,20.21-48.99,28.44-76.22,21.47l-40.34-10.33c-34.44,15.6-71.32,23.49-109.67,23.49ZM541.04,279.6c-114.6,0-207.83,89.25-207.83,198.96s93.24,198.98,207.83,198.98c32.5,0,63.64-7,92.54-20.76,7.69-3.68,16.17-4.64,23.84-2.67l46.29,11.85c9.65,2.47,20.07-.49,27.17-7.74,4.47-4.58,9.13-12.44,5.92-23.94l-12.37-44.27c-2.06-7.3-1.11-15.38,2.71-22.76l1.39-2.71c13.51-26.94,20.36-55.88,20.36-86,0-109.7-93.25-198.96-207.84-198.96v.02Z" fill="#fff"/></g><g opacity=".5"><path d="M268.96,35.66c127.79,0,233.31,99.45,233.31,224.44s-105.51,224.45-233.31,224.45c-37.09,0-72.26-8.35-103.5-23.24-2.72-1.31-5.08-1.35-6.59-.98l-46.27,11.85c-36.91,9.45-75.18-22.99-63.93-63.21l12.38-44.29c.16-.57.3-2.04-.85-4.24l-1.46-2.84c-14.81-29.48-23.11-62.59-23.11-97.5,0-124.99,105.51-224.44,233.3-224.44h0v.02Z" fill="#fff"/><path d="M268.96,510.01c-38.37,0-75.24-7.91-109.68-23.49l-40.35,10.33c-27.24,6.97-56.43-1.25-76.23-21.47-19.02-19.44-25.96-46.83-18.57-73.28l10.19-36.46c-16.03-33.16-24.16-68.65-24.16-105.57,0-67.25,27.21-130.29,76.6-177.5C135.63,35.91,200.33,10.19,268.96,10.19s133.33,25.72,182.17,72.41c49.39,47.23,76.6,110.26,76.6,177.5s-27.2,130.29-76.6,177.5c-48.85,46.69-113.54,72.41-182.17,72.41h0ZM160.64,434.65c5.3,0,10.71,1.23,15.79,3.66,28.89,13.78,60.03,20.76,92.54,20.76,114.6,0,207.84-89.26,207.84-198.97S383.55,61.14,268.96,61.13c-114.6,0-207.83,89.25-207.83,198.97,0,30.11,6.84,59.05,20.36,85.99l1.38,2.71c3.79,7.36,4.76,15.42,2.72,22.72l-12.38,44.3c-3.21,11.49,1.45,19.35,5.92,23.94,7.09,7.25,17.51,10.22,27.16,7.75l46.27-11.85c2.62-.68,5.33-1.01,8.07-1.01h.02Z" fill="#fff"/></g><g opacity=".5"><path d="M541.04,254.14c-127.79,0-233.3,99.45-233.3,224.44s105.51,224.45,233.3,224.45c37.08,0,72.25-8.34,103.5-23.25,2.72-1.3,5.09-1.35,6.59-.98l46.26,11.85c36.9,9.46,75.17-22.99,63.94-63.21l-12.37-44.29c-.16-.57-.31-2.04.84-4.24l1.45-2.85c14.79-29.48,23.11-62.59,23.11-97.51,0-124.99-105.51-224.44-233.29-224.44h-.02v.02Z" fill="#fff"/><path d="M541.04,728.5c-68.63,0-133.33-25.72-182.17-72.42-49.39-47.22-76.6-110.26-76.6-177.5s27.21-130.29,76.6-177.5c48.85-46.69,113.54-72.41,182.17-72.41s133.32,25.72,182.17,72.41c49.39,47.23,76.6,110.27,76.6,177.5,0,36.89-8.12,72.4-24.15,105.56l10.19,36.45c7.38,26.45.46,53.84-18.57,73.28-19.78,20.21-48.99,28.44-76.22,21.47l-40.34-10.33c-34.44,15.6-71.32,23.49-109.67,23.49ZM541.04,279.6c-114.6,0-207.83,89.25-207.83,198.96s93.24,198.98,207.83,198.98c32.5,0,63.64-7,92.54-20.76,7.69-3.68,16.17-4.64,23.84-2.67l46.29,11.85c9.65,2.47,20.07-.49,27.17-7.74,4.47-4.58,9.13-12.44,5.92-23.94l-12.37-44.27c-2.06-7.3-1.11-15.38,2.71-22.76l1.39-2.71c13.51-26.94,20.36-55.88,20.36-86,0-109.7-93.25-198.96-207.84-198.96v.02Z" fill="#fff"/></g><g opacity=".5"><path d="M268.96,35.66c127.79,0,233.31,99.45,233.31,224.44s-105.51,224.45-233.31,224.45c-37.09,0-72.26-8.35-103.5-23.24-2.72-1.31-5.08-1.35-6.59-.98l-46.27,11.85c-36.91,9.45-75.18-22.99-63.93-63.21l12.38-44.29c.16-.57.3-2.04-.85-4.24l-1.46-2.84c-14.81-29.48-23.11-62.59-23.11-97.5,0-124.99,105.51-224.44,233.3-224.44h0v.02Z" fill="#fff"/><path d="M268.96,510.01c-38.37,0-75.24-7.91-109.68-23.49l-40.35,10.33c-27.24,6.97-56.43-1.25-76.23-21.47-19.02-19.44-25.96-46.83-18.57-73.28l10.19-36.46c-16.03-33.16-24.16-68.65-24.16-105.57,0-67.25,27.21-130.29,76.6-177.5C135.63,35.91,200.33,10.19,268.96,10.19s133.33,25.72,182.17,72.41c49.39,47.23,76.6,110.26,76.6,177.5s-27.2,130.29-76.6,177.5c-48.85,46.69-113.54,72.41-182.17,72.41h0ZM160.64,434.65c5.3,0,10.71,1.23,15.79,3.66,28.89,13.78,60.03,20.76,92.54,20.76,114.6,0,207.84-89.26,207.84-198.97S383.55,61.14,268.96,61.13c-114.6,0-207.83,89.25-207.83,198.97,0,30.11,6.84,59.05,20.36,85.99l1.38,2.71c3.79,7.36,4.76,15.42,2.72,22.72l-12.38,44.3c-3.21,11.49,1.45,19.35,5.92,23.94,7.09,7.25,17.51,10.22,27.16,7.75l46.27-11.85c2.62-.68,5.33-1.01,8.07-1.01h.02Z" fill="#fff"/></g><path d="M541.04,254.14c-127.79,0-233.3,99.45-233.3,224.44s105.51,224.45,233.3,224.45c37.08,0,72.25-8.34,103.5-23.25,2.71-1.3,5.09-1.35,6.59-.98l46.26,11.85c36.9,9.46,75.17-22.99,63.94-63.21l-12.37-44.29c-.17-.57-.31-2.04.83-4.24l1.45-2.85c14.79-29.48,23.11-62.59,23.11-97.51,0-124.99-105.52-224.44-233.3-224.44h-.02v.02Z" fill="#fff"/><path d="M541.04,738.68c-71.27,0-138.46-26.71-189.22-75.23-51.42-49.17-79.74-114.82-79.74-184.88s28.32-135.7,79.74-184.86c50.75-48.51,117.95-75.23,189.22-75.23s138.46,26.71,189.22,75.23c51.42,49.16,79.74,114.82,79.74,184.86,0,37.15-7.91,72.93-23.51,106.48l9.17,32.79c8.39,29.98.49,61.08-21.11,83.14-22.3,22.8-55.28,32.08-86.02,24.2l-36.9-9.45c-34.84,15.23-71.99,22.94-110.59,22.94h0ZM659.92,711.96s-.03,0-.05.02c0,0,.03,0,.05-.02ZM541.04,289.8c-108.98,0-197.64,84.69-197.64,188.78s88.66,188.79,197.64,188.79c30.98,0,60.64-6.65,88.14-19.77,9.84-4.7,20.76-5.89,30.74-3.35l46.3,11.86c7.36,1.88,13.95-1.51,17.36-4.99,5.69-5.82,3.96-12.03,3.39-14.07l-12.36-44.24c-2.74-9.8-1.52-20.5,3.45-30.17l1.37-2.66c12.77-25.51,19.26-52.9,19.26-81.4,0-104.09-88.68-188.77-197.65-188.78v-.02h0Z" fill="#fff"/><path d="M268.96,35.66c127.79,0,233.31,99.45,233.31,224.44s-105.51,224.45-233.31,224.45c-37.09,0-72.26-8.35-103.5-23.24-2.72-1.31-5.08-1.35-6.59-.98l-46.27,11.85c-36.91,9.45-75.18-22.99-63.93-63.21l12.38-44.29c.16-.57.3-2.04-.85-4.24l-1.46-2.84c-14.81-29.48-23.11-62.59-23.11-97.5,0-124.99,105.51-224.44,233.3-224.44h0v.02Z" fill="#fff"/><path d="M268.96,520.2c-38.61,0-75.76-7.71-110.58-22.94l-36.92,9.45c-30.75,7.87-63.71-1.4-86.02-24.2-21.6-22.07-29.48-53.16-21.1-83.14l9.16-32.79C7.91,333.03,0,297.25,0,260.1,0,190.04,28.32,124.4,79.74,75.23,130.5,26.71,197.7,0,268.96,0s138.46,26.71,189.22,75.23c51.43,49.16,79.74,114.82,79.74,184.86s-28.32,135.7-79.74,184.87c-50.75,48.52-117.96,75.23-189.22,75.23ZM160.63,424.46c6.8,0,13.72,1.57,20.18,4.65,27.52,13.12,57.18,19.77,88.16,19.77,108.98,0,197.65-84.69,197.65-188.79s-88.67-188.77-197.65-188.78c-108.98,0-197.64,84.69-197.64,188.78,0,28.51,6.48,55.89,19.27,81.41l1.34,2.64c4.97,9.65,6.2,20.34,3.48,30.13l-12.38,44.3c-.57,2.04-2.31,8.24,3.39,14.06,3.41,3.49,10,6.88,17.35,5l46.27-11.85c3.44-.89,6.99-1.32,10.6-1.32h-.02Z" fill="#fff"/><path d="M541.36,679.06c-114.78,0-207.83-89.08-207.83-198.96s93.05-198.97,207.83-198.97,207.83,89.08,207.83,198.97c0,31.83-7.81,61.91-21.68,88.6-3.69,7.09-4.92,15.19-2.78,22.84l12.37,44.29c5.36,19.23-12.99,36.81-33.09,31.68l-46.26-11.85c-7.99-2.05-16.46-.88-23.86,2.66-27.86,13.28-59.3,20.76-92.53,20.76h0Z" fill="#f6cb78"/><path d="M541.36,679.06c-114.78,0-207.83-89.08-207.83-198.96s93.05-198.97,207.83-198.97,207.83,89.08,207.83,198.97c0,31.83-7.81,61.91-21.68,88.6-3.69,7.09-4.92,15.19-2.78,22.84l12.37,44.29c5.36,19.23-12.99,36.81-33.09,31.68l-46.26-11.85c-7.99-2.05-16.46-.88-23.86,2.66-27.86,13.28-59.3,20.76-92.53,20.76h0Z" fill="url(#d)"/><path d="M561.81,509.8c0,11.85-9.3,21.45-20.77,21.45s-20.78-9.6-20.78-21.45,9.3-21.46,20.78-21.46,20.77,9.61,20.77,21.46Z" fill="#fff"/><path d="M644.95,509.8c0,11.85-9.31,21.45-20.79,21.45s-20.78-9.6-20.78-21.45,9.31-21.46,20.78-21.46,20.79,9.61,20.79,21.46Z" fill="#fff"/><path d="M478.68,509.8c0,11.85-9.3,21.45-20.78,21.45s-20.78-9.6-20.78-21.45,9.3-21.46,20.78-21.46,20.78,9.61,20.78,21.46Z" fill="#fff"/><path d="M269.77,459.88c114.78,0,207.83-89.08,207.83-198.96S384.55,61.94,269.77,61.94,61.94,151.02,61.94,260.91c0,31.83,7.8,61.91,21.68,88.6,3.69,7.09,4.92,15.19,2.78,22.84l-12.38,44.29c-5.36,19.22,13,36.81,33.09,31.68l46.27-11.85c7.99-2.05,16.46-.88,23.86,2.66,27.86,13.28,59.29,20.76,92.53,20.76h0Z" fill="#f6cb78"/><path d="M269.77,459.88c114.78,0,207.83-89.08,207.83-198.96S384.55,61.94,269.77,61.94,61.94,151.02,61.94,260.91c0,31.83,7.8,61.91,21.68,88.6,3.69,7.09,4.92,15.19,2.78,22.84l-12.38,44.29c-5.36,19.22,13,36.81,33.09,31.68l46.27-11.85c7.99-2.05,16.46-.88,23.86,2.66,27.86,13.28,59.29,20.76,92.53,20.76h0Z" fill="url(#e)"/><path d="M269.44,191.83c-11.74,0-21.25,9.82-21.25,21.95,0,8.08-6.35,14.63-14.17,14.63s-14.17-6.56-14.17-14.63c0-28.28,22.2-51.21,49.6-51.21s49.6,22.93,49.6,51.21c0,13.87-5.36,26.47-14.02,35.68-1.74,1.86-3.4,3.56-4.99,5.2-4.08,4.21-7.65,7.88-10.79,12.05-4.14,5.49-5.62,9.53-5.62,12.9v14.63c0,8.08-6.35,14.63-14.17,14.63s-14.17-6.56-14.17-14.63v-14.63c0-12.78,5.76-23.13,11.61-30.88,4.32-5.74,9.75-11.33,14.16-15.88,1.33-1.37,2.56-2.65,3.65-3.8,3.73-3.96,6.01-9.34,6.01-15.29,0-12.12-9.52-21.95-21.25-21.95h-.03Z" fill="#fff"/><path d="M269.43,372.27c10.44,0,18.89-8.73,18.89-19.52s-8.45-19.51-18.89-19.51-18.89,8.73-18.89,19.51,8.45,19.52,18.89,19.52Z" fill="#fff"/></g></svg>