<svg width="366" height="357" viewBox="0 0 366 357" fill="none" xmlns="http://www.w3.org/2000/svg">
<g filter="url(#filter0_d_1341_264)">
<path d="M180.474 248.995L178.434 250.088L173.477 252.821L138.955 271.731L134.115 274.409L79.5922 304.25L70.9613 308.949L14.0475 340.102L9.67371 342.452L6 344.474V153.517L6.29204 153.68L36.0897 169.967L54.3423 179.968L81.1663 194.671L84.6067 196.528L131.724 222.325L136.448 224.894L158.198 236.808L161.406 238.557L166.071 241.125L172.136 244.404L173.885 245.388L174.818 245.88L180.3 248.886L180.474 248.995Z" fill="#DAFEE7"/>
<path d="M355.475 153.517V344.474L355.416 344.426L355.124 344.238L354.889 344.098H354.831L185.563 251.789L182.58 250.145L180.475 248.971L187.143 245.356L187.319 245.262L187.494 245.168L193.635 241.835L355.475 153.517Z" fill="#DAFEE7"/>
<path d="M355.474 314.993V344.256H355.123L350.094 344.475H24.101L23.8677 339.943C29.7738 336.176 37.6081 331.098 42.696 327.877L43.3966 327.44L60.4719 316.466L87.1359 299.269L94.8545 294.301L175.842 242.163L181.279 238.613C182.566 237.85 184.027 237.194 185.606 236.758C187.478 236.157 189.524 235.775 191.571 235.611C192.273 235.557 192.915 235.502 193.617 235.557C194.319 235.447 195.021 235.447 195.723 235.447C197.594 235.393 199.407 235.557 201.161 235.884C203.031 236.211 204.727 236.758 206.248 237.522L267.646 269.406L297.994 285.183L305.888 289.278L334.482 304.127L353.31 313.9C353.837 314.174 354.421 314.446 355.006 314.774C355.123 314.829 355.299 314.938 355.474 314.993Z" fill="#67CD8A"/>
<path d="M355.474 325.315V344.474H6V325.315C12.1318 321.822 20.1915 317.072 25.4479 314.125L26.1483 313.689L39.5218 305.883L43.7266 303.481L71.2334 287.542L79.1761 282.902L150.951 241.253L152.412 240.434L155.391 238.688L158.427 236.941L162.633 234.485L168.239 231.209C171.159 229.572 174.955 228.753 178.693 228.698C179.393 228.643 180.035 228.643 180.737 228.698C181.438 228.643 182.138 228.643 182.839 228.698C184.475 228.698 186.051 228.863 187.57 229.19C189.672 229.572 191.599 230.282 193.235 231.209L201.352 235.904L203.104 236.941L206.141 238.688L208.711 240.162L210.58 241.254L252.862 265.818L282.296 282.903L289.947 287.379L317.746 303.482L321.893 305.884L336.026 314.127C336.551 314.4 337.077 314.672 337.661 315.001C341.399 317.238 346.188 320.022 350.685 322.587C352.321 323.568 353.956 324.496 355.474 325.315Z" fill="#A6EDBE"/>
</g>
<defs>
<filter id="filter0_d_1341_264" x="0" y="149.517" width="365.475" height="206.958" filterUnits="userSpaceOnUse" color-interpolation-filters="sRGB">
<feFlood flood-opacity="0" result="BackgroundImageFix"/>
<feColorMatrix in="SourceAlpha" type="matrix" values="0 0 0 0 0 0 0 0 0 0 0 0 0 0 0 0 0 0 127 0" result="hardAlpha"/>
<feOffset dx="2" dy="4"/>
<feGaussianBlur stdDeviation="4"/>
<feComposite in2="hardAlpha" operator="out"/>
<feColorMatrix type="matrix" values="0 0 0 0 0 0 0 0 0 0 0 0 0 0 0 0 0 0 0.25 0"/>
<feBlend mode="normal" in2="BackgroundImageFix" result="effect1_dropShadow_1341_264"/>
<feBlend mode="normal" in="SourceGraphic" in2="effect1_dropShadow_1341_264" result="shape"/>
</filter>
</defs>
</svg>
