<svg width="366" height="361" viewBox="0 0 366 361" fill="none" xmlns="http://www.w3.org/2000/svg">
<g filter="url(#filter0_d_1341_264)">
<path d="M355.527 157.972L352.197 160.995L349.452 163.429L325.738 184.922L319.195 190.799L239.29 262.832L234.909 266.778L211.663 287.766L210.436 288.857L209.151 290.034L207.282 291.713L189.583 307.663L187.948 309.259L187.773 309.343L187.598 309.511L180.997 315.471L180.764 315.639L175.331 310.77L174.338 309.846L174.163 309.678L166.628 302.878L154.245 291.713L152.843 290.453L149.865 287.766L126.617 266.778L122.236 262.832L51.56 199.026L43.2074 191.554L36.5483 185.51L6.40871 158.308L6 157.972L6.40871 157.637L6.70124 157.385L36.5483 130.436L43.2074 124.391L85.7301 86.0237L90.0523 82.0785L113.3 61.0892L117.622 57.2276L176.558 4H184.969L238.414 52.2745L280.294 90.0533L319.195 125.146L323.635 129.176L325.738 131.107L340.924 144.792L355.235 157.722L355.527 157.972Z" fill="#67CD8A"/>
<path d="M356 318.993V348.256H355.649L350.62 348.475H24.6264L24.3931 343.943C30.2992 340.176 38.1335 335.098 43.2214 331.877L43.922 331.44L60.9973 320.466L87.6613 303.269L95.3799 298.301L176.367 246.163L181.805 242.613C183.091 241.85 184.553 241.194 186.132 240.758C188.003 240.157 190.05 239.775 192.096 239.611C192.798 239.557 193.441 239.502 194.143 239.557C194.844 239.447 195.547 239.447 196.248 239.447C198.119 239.393 199.932 239.557 201.686 239.884C203.557 240.211 205.253 240.758 206.773 241.522L268.171 273.406L298.519 289.183L306.414 293.278L335.007 308.127L353.835 317.9C354.362 318.174 354.947 318.446 355.532 318.774C355.649 318.829 355.824 318.938 356 318.993Z" fill="#67CD8A"/>
</g>
<defs>
<filter id="filter0_d_1341_264" x="0" y="0" width="366" height="360.475" filterUnits="userSpaceOnUse" color-interpolation-filters="sRGB">
<feFlood flood-opacity="0" result="BackgroundImageFix"/>
<feColorMatrix in="SourceAlpha" type="matrix" values="0 0 0 0 0 0 0 0 0 0 0 0 0 0 0 0 0 0 127 0" result="hardAlpha"/>
<feOffset dx="2" dy="4"/>
<feGaussianBlur stdDeviation="4"/>
<feComposite in2="hardAlpha" operator="out"/>
<feColorMatrix type="matrix" values="0 0 0 0 0 0 0 0 0 0 0 0 0 0 0 0 0 0 0.25 0"/>
<feBlend mode="normal" in2="BackgroundImageFix" result="effect1_dropShadow_1341_264"/>
<feBlend mode="normal" in="SourceGraphic" in2="effect1_dropShadow_1341_264" result="shape"/>
</filter>
</defs>
</svg>
