<?xml version="1.0" encoding="UTF-8"?>
<svg id="Layer_1" data-name="Layer 1" xmlns="http://www.w3.org/2000/svg" xmlns:xlink="http://www.w3.org/1999/xlink" viewBox="0 0 936.84 784.96">
  <defs>
    <style>
      .cls-1 {
        mask: url(#mask-1);
      }

      .cls-2 {
        fill: #fff;
      }

      .cls-3 {
        mask: url(#mask);
      }

      .cls-4 {
        mask: url(#mask-2);
      }

      .cls-5 {
        fill: #f9f9f9;
        stroke: #fff;
        stroke-width: .56px;
      }

      .cls-6 {
        fill: url(#linear-gradient);
      }
    </style>
    <mask id="mask" x="0" y="268.61" width="940.32" height="251.46" maskUnits="userSpaceOnUse">
      <g id="mask0_512_27586" data-name="mask0 512 27586">
        <path class="cls-2" d="M1.63,271.68h938.69v248.39H1.63v-248.39Z"/>
      </g>
    </mask>
    <mask id="mask-1" x="-1.83" y="238.24" width="944.62" height="311.16" maskUnits="userSpaceOnUse">
      <g id="mask1_512_27586" data-name="mask1 512 27586">
        <path class="cls-2" d="M-1.83,310.58l925.76-72.35,18.86,238.81L17.02,549.4-1.83,310.58Z"/>
      </g>
    </mask>
    <mask id="mask-2" x="-3.57" y="236.5" width="944.62" height="311.16" maskUnits="userSpaceOnUse">
      <g id="mask2_512_27586" data-name="mask2 512 27586">
        <path class="cls-2" d="M-3.57,308.85l925.76-72.35,18.86,238.81L15.29,547.66-3.57,308.85Z"/>
      </g>
    </mask>
    <linearGradient id="linear-gradient" x1="-194" y1="498.32" x2="742.84" y2="498.32" gradientTransform="translate(194 890.65) scale(1 -1)" gradientUnits="userSpaceOnUse">
      <stop offset=".03" stop-color="#9adbb0"/>
      <stop offset=".23" stop-color="#67cd8a"/>
      <stop offset=".46" stop-color="#6cce8d"/>
      <stop offset=".76" stop-color="#a5deb9"/>
      <stop offset="1" stop-color="#73d093"/>
    </linearGradient>
  </defs>
  <g class="cls-3">
    <g class="cls-1">
      <g class="cls-4">
        <path class="cls-6" d="M936.84,430.63c-157.71-32.62-310.12,1.76-462.54,36.15-152.42,34.38-304.83,68.77-462.54,36.15,24.92-19.26,49.68-40.47,74.31-63.29-28.55-26.81-57.24-55.24-86.07-85.62,157.72,32.62,310.12-1.76,462.54-36.15,152.42-34.38,304.83-68.77,462.54-36.15-24.92,19.26-49.68,40.46-74.31,63.28,28.55,26.82,57.24,55.24,86.07,85.63Z"/>
      </g>
    </g>
  </g>
  <path class="cls-5" d="M194.23,406.17h.03s0,0,0,0c.88-.02,1.71.48,2.09,1.26l.17-.16.06.95,1.15,18.71v.22c-.04,1.11-.96,2.01-2.07,2.08h0c-1.22.06-2.22-.87-2.3-2.05h0s-.73-12-.73-12l-3.43,5.45h0c-.39.61-1.01.98-1.72,1.01h-.02s0,0,0,0h-.05c-.69.03-1.37-.25-1.83-.81h0s-4.04-5.03-4.04-5.03l.73,11.98v.22c-.04,1.1-.93,2.01-2.07,2.08h-.22c-1.09-.05-2.01-.94-2.08-2.05h0s-1.15-18.71-1.15-18.71c-.08-1.19.85-2.23,2.03-2.3h.12c.63-.03,1.35.25,1.78.83h0l6.41,7.92,5.41-8.59h0c.39-.61,1.01-.98,1.72-1.01h.02s0,0,0,0Z"/>
  <path class="cls-5" d="M208.46,405.2c.84-.08,1.64.34,2.08,1.07l.08.15h0s8.49,18.14,8.49,18.14h0s.08.22.08.22c.34,1.05-.1,2.22-1.14,2.72h0c-.21.1-.47.16-.75.17h-.01s0,0,0,0c-.85.05-1.71-.39-2.1-1.24l-1.75-3.73-7.04.53-1.12,3.94h0c-.28.9-1.06,1.48-1.93,1.55h0c-.27.02-.51,0-.75-.06h-.01c-1.18-.35-1.82-1.58-1.52-2.73h0s5.42-19.18,5.42-19.18h0c.28-.89,1.09-1.52,1.97-1.55h0ZM207.61,418.76l3.85-.29-2.35-5-1.5,5.29Z"/>
  <path class="cls-5" d="M228.22,403.51c.85-.1,1.65.32,2.09,1.03l.09.16,8.85,17.98h0c.5,1.1.09,2.41-1.01,2.95h0c-.22.11-.48.17-.73.2-.85.08-1.74-.35-2.14-1.2l-1.83-3.7-7.02.66-1.04,3.97h0c-.27.91-1.04,1.5-1.89,1.58h0c-.27.02-.5,0-.74-.05h-.02c-1.18-.33-1.85-1.54-1.58-2.71h0s5.04-19.28,5.04-19.28h0c.26-.9,1.06-1.55,1.94-1.58h0ZM227.65,417.07l3.84-.36-2.44-4.95-1.4,5.31Z"/>
  <path class="cls-5" d="M253.99,401.58c.76-.96,2.09-1.11,3.05-.34l.16.15c.78.76.88,2.02.22,2.91h0s0,0,0,0l-5.82,7.39,7.82,8.14c.89.83.88,2.22.04,3.07h0c-.35.39-.8.6-1.3.66-.61.07-1.24-.15-1.71-.6h-.02v-.02l-7.51-7.81-2.44,3.16.52,4.3.02.22c.02,1.09-.77,2.07-1.92,2.19h0c-1.16.13-2.17-.67-2.38-1.76l-.02-.02-.02-.15-2.25-18.45h0c-.13-1.14.67-2.27,1.9-2.41,1.22-.14,2.28.78,2.41,1.92l.98,8.01,8.26-10.56h0Z"/>
  <path class="cls-5" d="M281.52,396.28c2.75-.43,5.52.11,7.8,1.38h0c1.12.59,1.51,1.99.96,3.06h0c-.58,1.06-1.97,1.48-3.06.86h0c-1.35-.73-2.96-1.1-4.61-.92l-.33.04c-2.13.33-3.85,1.43-4.93,2.99h0s0,.01,0,.01c-1.15,1.55-1.66,3.48-1.33,5.49l.07.36c.38,1.67,1.35,3.13,2.71,4.17l.3.22h.01c1.55,1.16,3.53,1.67,5.68,1.34,1.38-.22,2.63-.82,3.66-1.61l-.61-3.61-4.03.63h0c-1.2.18-2.37-.66-2.57-1.86l-.03-.23c-.08-1.15.74-2.13,1.86-2.3l6.14-.96h.03s.07,0,.07,0c1.2-.18,2.35.58,2.56,1.82h0l1.18,6.93.02.21c0,.06,0,.12,0,.17,0,.12-.01.16-.01.24v.05s-.01.05-.01.05c0,.02,0,.03-.01.06,0,.01,0,.03-.01.05v.06c-.07.41-.26.77-.59,1.09h0c-1.76,1.91-4.15,3.25-6.9,3.67h0c-6.52,1.02-12.75-3.27-13.9-9.74v-.02s-.02-.07-.02-.07c-1.12-6.55,3.37-12.59,9.93-13.62h0Z"/>
  <path class="cls-5" d="M307.4,392.34c1.13-.22,2.31.53,2.56,1.74.25,1.2-.56,2.37-1.69,2.57h0s-7.96,1.49-7.96,1.49l.99,4.86,6.79-1.27h0c1.17-.22,2.33.61,2.56,1.74l.03.22c.12,1.12-.62,2.14-1.73,2.35h0s-6.78,1.27-6.78,1.27l1,4.89,7.97-1.49h0c1.13-.21,2.32.57,2.56,1.77l.03.22c.1,1.09-.67,2.13-1.73,2.33h0l-9.97,1.87h0s-.16.03-.16.03c-1.08.2-2.09-.42-2.46-1.39h-.04s-.07-.35-.07-.35l-3.74-18.4-.03-.23c-.12-1.12.61-2.11,1.74-2.32h.04s.01,0,.01,0c0,0,0,0,0,0h.02s.02,0,.02,0l10.04-1.88ZM297.28,394.24s0,0,0,0c0,0,0,0,.01,0,0,0,0,0,0,0Z"/>
  <path class="cls-5" d="M319.53,389.91c3.47-.71,6.91,1.54,7.69,5.03h0c.28,1.28.17,2.52-.24,3.64,2.05.92,3.7,2.77,4.23,5.13l.07.37c.65,3.79-1.77,7.41-5.53,8.18l-5.46,1.11h-.07s-.02.02-.02.02h-.02s-.03,0-.05.01h-.02s0,0,0,0c-1.02.18-2.03-.42-2.41-1.35h-.05s-.07-.34-.07-.34l-4.07-18.33-.04-.22c-.14-1.12.6-2.13,1.69-2.35h0s0,0,0,0c0,0,0,0,0,0,0,0,0,0,.02,0,.01,0,.04,0,.07-.01h.04s.02,0,.02,0l4.22-.87h0ZM326.83,404.32c-.46-1.37-1.87-2.2-3.31-1.93l-3.42.7,1.24,5.58,3.44-.7c1.52-.34,2.48-1.8,2.13-3.36l-.08-.28ZM322.88,395.62c-.33-1.02-1.37-1.63-2.41-1.41h0l-2.22.45.91,4.12,2.23-.46.2-.05c.98-.32,1.58-1.37,1.35-2.45l-.06-.21Z"/>
  <path class="cls-5" d="M338.3,385.94c3.78-.81,7.51,1.51,8.57,5.21l.09.36h0c.46,2,.05,3.96-1.01,5.55.34.2.68.44,1,.75h0c.78.72,1.42,1.68,1.79,2.84l.14.51h0c.14.72.31,1.21.43,1.52.56.12,1.05.46,1.38.98l.42.66h-.15c.21.9-.17,1.85-.98,2.34h-.02s-.02.02-.02.02c-.1.05-.38.19-.74.27h-.05s-.05.01-.05.01c-.37.08-.9.11-1.46-.1h0c-.54-.2-1.03-.57-1.41-1h0s0-.02,0-.02c-.69-.87-1.18-2-1.59-3.73h0c-.15-.53-.34-.84-.57-1.07v-.02s.31-.29.31-.29l-.32.29c-.2-.22-.56-.43-.97-.58h0c-.65-.26-1.4-.33-1.71-.35l-3.14.67,1.47,6.3c.27,1.17-.47,2.34-1.66,2.6h0c-1.12.25-2.19-.42-2.54-1.45l-.06-.21-4.26-18.29-.04-.22c-.15-1.11.55-2.13,1.66-2.37h.04s.03,0,.03,0l5.43-1.18h0ZM342.68,392.45c-.36-1.57-1.89-2.54-3.41-2.22h0s-3.36.72-3.36.72l1.29,5.54,3.37-.73c1.42-.31,2.34-1.64,2.16-3.04l-.05-.28Z"/>
  <path class="cls-5" d="M365.15,380.11c1.1-.13,2.13.57,2.39,1.69l2.62,11.02c1.23,5.16-1.93,10.29-7.09,11.42-5.19,1.14-10.31-2.17-11.53-7.32l-2.62-11.02h0c-.28-1.19.42-2.33,1.61-2.6h0c1.14-.25,2.36.45,2.64,1.64l2.62,11.02c.67,2.8,3.49,4.6,6.27,3.99,2.8-.62,4.51-3.39,3.83-6.19h0s-2.62-11.02-2.62-11.02c-.28-1.2.46-2.34,1.65-2.6l.22-.04Z"/>
  <path class="cls-5" d="M374.22,378.09c1.14-.26,2.36.44,2.64,1.64h0l4.36,18.26h0c.27,1.13-.39,2.21-1.43,2.55l-.21.06c-1.11.24-2.19-.38-2.55-1.44l-.06-.22-4.36-18.26h0c-.28-1.19.42-2.33,1.61-2.59h0Z"/>
  <path class="cls-5" d="M394.93,374.35c.61-.98,1.8-1.28,2.8-.78l.2.11h0c1,.63,1.33,1.98.72,3h0s-4.94,7.96-4.94,7.96l8.7,7.26h0c.97.73,1.13,2.11.38,3.04h0c-.31.43-.74.68-1.23.79h0c-.59.13-1.23-.02-1.77-.42h-.02s.28-.35.28-.35l-.28.33-8.36-6.97-2.06,3.41,1.01,4.23h0c.28,1.16-.42,2.33-1.61,2.6h0c-1.19.26-2.34-.5-2.61-1.65l-.09-.39h.02s-4.25-17.74-4.25-17.74c-.27-1.12.41-2.33,1.61-2.6,1.2-.27,2.35.54,2.62,1.65h0l1.88,7.88,7.01-11.37h0Z"/>
  <path class="cls-5" d="M426.97,368.07c.21-1.17,1.33-1.96,2.5-1.74h0s0,0,0,0c0,0,0,0,.01,0h0c1.18.2,1.96,1.35,1.79,2.49h0s-3.29,19.76-3.29,19.76v.02s0,.02,0,.02c0,0,0,0,0,.01,0,.01,0,.05-.01.08,0,.03-.01.08-.03.13-.01.05-.04.11-.08.18v.02s-.02.01-.02.01c0,.01,0,.02,0,.03-.02.03-.04.06-.05.08,0,0,0,.02-.01.02,0,0,0,.01,0,.02,0,.01,0,.03-.02.05-.02.05-.04.08-.04.1v.02c-.05.08-.1.13-.13.16-.03.04-.04.04-.04.05l-.04.06-.11.09s.02-.02,0,0c-.01.02-.02.02-.05.05-.02.02-.05.05-.08.09-.02.02-.06.05-.09.08h0s0,0,0,0c0,0,0,0,0,0,0,0-.02.02-.04.03l-.08.07-.1.02s-.01,0-.02.02c0,0-.02,0-.03.02,0,0-.02.02-.03.02l-.11.07h-.07c-.13.05-.24.09-.34.11-.05,0-.18.04-.32.04l-.09.04-.15-.04s0,0,0,0c0,0,0,0-.01,0-.01,0-.02,0-.04,0,0,0,0,0,0,0l-.53.17v-.3s-.03-.01-.05-.02h0l-.06-.02h-.03s-.07-.03-.07-.03l-.06-.04s0,0-.02,0c0,0-.02,0-.05-.02-.02,0-.05-.02-.08-.03l-.29-.1v-.13s-.05-.04-.08-.07c-.03-.02-.07-.05-.1-.09l-.02-.03s-.02-.02-.02-.02c-.02-.02-.03-.03-.04-.05-.01-.01-.02-.03-.03-.03h.01s-.08-.04-.08-.04l-.05-.07-11.85-16.42h0c-.66-.89-.53-2.17.33-2.88l.18-.14c.88-.64,2.11-.47,2.85.35l.14.17h0s8.8,12.18,8.8,12.18l2.41-14.63h0ZM425.96,390.34h.02s0,0,0,0c0,0-.02,0-.02,0h0ZM424.64,389.95s0,0,0,0h0s0,0,0,0c0,0-.02-.02-.03-.04.01.02.02.03.03.03Z"/>
  <path class="cls-5" d="M439.17,363.8c.84-.22,1.7.1,2.25.76l.1.14h0s11.12,16.77,11.12,16.77h0c.63,1.03.41,2.37-.61,3.05h0c-.21.14-.48.23-.7.28h-.01c-.84.18-1.77-.14-2.28-.92l-2.3-3.46-6.88,1.51-.51,4.05h0c-.14.94-.84,1.61-1.68,1.8h0c-.26.06-.49.07-.73.05h-.01s-.01,0-.01,0c-1.21-.18-2.03-1.29-1.91-2.48h0s0-.01,0-.01l2.48-19.73h0c.14-.91.83-1.64,1.69-1.8ZM440.41,377.34l3.76-.82-3.07-4.62-.69,5.44Z"/>
  <path class="cls-5" d="M466.59,358.11c1.08-.23,2.18.41,2.54,1.42l.06.21h0s4.24,18,4.24,18h0c.27,1.17-.46,2.34-1.62,2.59h0c-.63.14-1.27-.05-1.75-.42-.01,0-.02-.02-.04-.03-.02-.01-.04-.03-.07-.04-.03-.02-.07-.06-.12-.11l-12.06-10.72,2.72,11.53.05.24-.02.02c.12,1.07-.57,2.11-1.63,2.33-1.19.26-2.33-.51-2.61-1.66h0s-4.24-18.01-4.24-18.01v-.05s-.01-.04-.01-.04c-.17-.64-.02-1.37.44-1.9h.01c.8-.87,2.14-.98,3.03-.18l12.18,10.79-2.69-11.44h0c-.26-1.12.42-2.31,1.6-2.56Z"/>
  <path class="cls-5" d="M494.48,351.15c2.68-.57,5.5-.03,7.78,1.36v-.03l.68.47c2.47,1.69,4.37,4.26,5.1,7.44.74,3.18.15,6.31-1.34,8.82h0c-1.41,2.51-3.92,4.47-6.88,5.1-3.08.66-6.22-.1-8.66-1.78h0c-2.47-1.67-4.31-4.28-5.04-7.45-.73-3.17-.21-6.26,1.28-8.81l.29-.47c1.49-2.32,3.89-4.05,6.78-4.66h0ZM500.52,356.63c-1.53-1.06-3.32-1.46-5.04-1.09h0c-1.85.39-3.29,1.49-4.2,3.06h0c-.92,1.54-1.25,3.56-.78,5.56.44,1.88,1.51,3.48,2.88,4.49l.28.2h0c1.53,1.06,3.33,1.5,5.17,1.11,1.71-.37,3.15-1.49,4.07-3.07h0c.9-1.51,1.26-3.52.79-5.53-.47-2-1.68-3.68-3.18-4.72Z"/>
  <path class="cls-5" d="M525.17,345.6c1.09-.23,2.19.43,2.53,1.44l.06.21,4.12,18.03.04.22c.14,1.09-.58,2.14-1.68,2.37h0c-.63.13-1.27-.06-1.76-.44h0s-.07-.05-.1-.07c-.03-.02-.07-.06-.12-.11l-11.99-10.79,2.64,11.55.12.53h-.08c-.02.97-.69,1.85-1.66,2.05h0c-1.19.25-2.33-.53-2.6-1.67h0s-4.12-18.03-4.12-18.03v-.05s-.01-.04-.01-.04c-.17-.65,0-1.37.45-1.9h.01s.16-.16.16-.16c.81-.71,2.06-.75,2.88,0h0l12.11,10.86-2.62-11.45-.04-.21c-.13-1.06.55-2.1,1.65-2.33h0Z"/>
  <path class="cls-5" d="M542.12,341.11c2.47-.36,4.62.33,6.24.94l.71.27h.01s.18.1.18.1c.89.49,1.38,1.58.99,2.57h0c-.38,1.08-1.58,1.61-2.66,1.18h0c-1.82-.73-3.42-1.3-5.16-.94h0c-1.3.27-2.35.91-2.98,1.63h0c-.62.72-.74,1.34-.64,1.83.07.32.16.47.3.62.16.16.44.35.87.54.85.36,2.28.57,3.98.53h.68c1.44,0,2.8.12,4.04.42h0c1.44.37,2.83.98,3.87,2.06h0c.68.71,1.21,1.65,1.45,2.7.48,2.15-.31,4.23-1.67,5.75h0c-1.33,1.5-3.27,2.61-5.54,3.08h0c-3.47.69-6.76-.45-8.87-1.51h0c-1.02-.53-1.42-1.79-.95-2.79l.03-.07.02-.02c.54-.96,1.77-1.31,2.75-.8l.63.3c1.56.69,3.72,1.22,5.51.83h0s.54-.13.54-.13c1.22-.35,2.21-.98,2.82-1.68.7-.8.86-1.51.73-2.12l-.07-.22c-.07-.2-.17-.35-.33-.51-.21-.23-.5-.45-.98-.64h0c-.95-.37-2.52-.59-4.38-.55h-.06s-.57,0-.57,0c-1.33,0-2.62-.1-3.79-.39-1.36-.33-2.62-.92-3.62-1.95h0c-.68-.71-1.17-1.6-1.39-2.61-.45-2.02.29-4,1.54-5.43h0c1.28-1.43,3.11-2.46,5.21-2.89l.58-.1Z"/>
  <path class="cls-5" d="M571.05,335.83c3.91-.79,7.73,1.76,8.58,5.69.44,2.01-.01,3.96-1.08,5.53.34.21.68.46,1,.77.76.73,1.4,1.7,1.75,2.86l.13.51h0c.13.72.29,1.2.41,1.51.56.13,1.05.47,1.38,1h0c.63,1.05.27,2.38-.76,2.99h-.02s-.3.14-.3.14c-.13.05-.29.11-.47.14h-.04s-.04,0-.04,0c-.37.08-.91.1-1.47-.12h0c-.55-.2-1.03-.6-1.39-1.01h-.01s0-.02,0-.02c-.68-.88-1.15-2.02-1.54-3.75l-.12-.36c-.12-.32-.27-.54-.44-.72h-.01s0-.02,0-.02c-.19-.22-.55-.43-.96-.59h0c-.65-.27-1.41-.35-1.7-.36l-3.16.64,1.38,6.32h0c.25,1.17-.5,2.33-1.7,2.57-1.2.24-2.33-.54-2.58-1.7l-4-18.34h0c-.26-1.19.47-2.32,1.66-2.57h.04s.03,0,.03,0l5.46-1.11h0ZM572.27,340.08l-.28.04-3.37.67,1.21,5.56,3.39-.68c1.53-.31,2.48-1.79,2.15-3.29v-.04c-.35-1.46-1.68-2.4-3.09-2.26Z"/>
  <path class="cls-5" d="M595.52,330.98c1.12-.21,2.32.51,2.57,1.72l.04.23c.12,1.12-.64,2.16-1.7,2.37h0l-7.95,1.56,1.02,4.84,6.79-1.32c1.09-.21,2.19.49,2.51,1.51l.06.21c.24,1.19-.5,2.36-1.67,2.59l-6.78,1.32,1.04,4.88,7.96-1.56h0c1.13-.22,2.32.56,2.58,1.74h0c.25,1.17-.55,2.34-1.68,2.56h0s-9.95,1.95-9.95,1.95l-.16.03c-1.21.24-2.33-.56-2.57-1.72l-.05-.23h0s-3.85-18.14-3.85-18.14l-.04-.23c-.13-1.12.59-2.11,1.71-2.34h.04s.01,0,.01,0c0,0,0,0,0,0h.02s.02,0,.02,0l10.02-1.96h0Z"/>
  <path class="cls-5" d="M610.04,327.56c2.48-.31,4.61.41,6.22,1.05l.71.29h.01c1.01.46,1.56,1.65,1.11,2.7h0c-.41,1.06-1.6,1.56-2.66,1.11h0c-1.81-.76-3.4-1.36-5.14-1.03h0c-1.31.25-2.37.88-3.01,1.58-.64.7-.77,1.32-.67,1.8.06.31.15.47.29.63h0c.15.16.43.36.86.56l.34.13c.86.3,2.13.48,3.63.47h.07c1.45,0,2.84.1,4.12.37l.54.13h0c1.44.39,2.81,1.02,3.83,2.12.59.63,1.05,1.44,1.3,2.33l.09.38h0c.44,2.16-.39,4.23-1.78,5.72h0c-1.36,1.48-3.32,2.56-5.6,2.99h0c-3.48.63-6.76-.57-8.84-1.66h0c-1.01-.55-1.38-1.81-.89-2.8h0c.53-1.02,1.8-1.38,2.8-.84h0c1.55.84,4.07,1.66,6.11,1.24h0c1.47-.28,2.68-.97,3.39-1.75.71-.79.89-1.51.77-2.11l-.06-.22c-.07-.2-.17-.35-.32-.52-.2-.22-.49-.45-.97-.65h0c-.82-.35-2.12-.57-3.69-.62h-.69s-.06-.01-.06-.01c-1.53,0-3.01-.11-4.36-.47h0c-1.35-.35-2.61-.97-3.58-2.01-.68-.72-1.14-1.62-1.35-2.63-.41-2.03.37-3.99,1.65-5.4h0c1.3-1.42,3.16-2.4,5.25-2.8l.58-.09Z"/>
  <path class="cls-5" d="M635.83,323.47c1.16-.2,2.31.55,2.54,1.75h0c.22,1.16-.53,2.35-1.72,2.56l-4.5.8,3.17,16.24.03.23c.11,1.11-.62,2.11-1.75,2.31h0c-1.16.2-2.31-.55-2.55-1.75h0s-3.17-16.25-3.17-16.25l-4.48.81c-1.21.22-2.32-.63-2.55-1.79l-.03-.23c-.11-1.11.62-2.11,1.75-2.31l13.24-2.38h0Z"/>
  <path class="cls-5" d="M647.2,321.54c.85-.18,1.69.18,2.2.87l.1.14h0s10.26,17.27,10.26,17.27h0c.58,1.05.28,2.4-.77,3.02h0c-.2.12-.47.21-.72.25-.85.15-1.76-.22-2.23-1.03h0s-2.12-3.56-2.12-3.56l-6.95,1.17-.72,4.03h0c-.19.92-.91,1.58-1.77,1.72-.26.04-.5.05-.75,0h0c-1.2-.24-1.96-1.39-1.79-2.56h0s3.48-19.6,3.48-19.6h0c.18-.91.92-1.6,1.78-1.72ZM647.75,335.13l3.81-.64-2.84-4.76-.97,5.4Z"/>
  <path class="cls-5" d="M675.88,316.94c1.21-.18,2.29.62,2.49,1.82h0l1.85,11.17c.86,5.22-2.64,10.14-7.87,10.94l-.5.08v-.02c-5.07.51-9.67-3.06-10.51-8.11h0s-1.85-11.17-1.85-11.17c-.2-1.21.58-2.3,1.79-2.48,1.16-.18,2.32.6,2.53,1.82l1.85,11.17h0c.47,2.85,3.16,4.81,5.98,4.38,2.84-.44,4.73-3.09,4.26-5.93l-1.85-11.17-.03-.23c-.07-1.12.72-2.1,1.85-2.27Z"/>
  <path class="cls-5" d="M691.41,314.77c3.97-.53,7.58,2.27,8.16,6.25h0c.29,2.04-.29,3.95-1.47,5.44.33.23.64.49.93.82.71.78,1.27,1.79,1.54,2.98l.1.52h0c.08.73.2,1.23.3,1.54.54.17,1.01.55,1.3,1.09l.33.63h-.14c.16.92-.31,1.87-1.18,2.31h-.02s-.02.02-.02.02c-.12.04-.4.16-.77.21h-.03s-.05,0-.05,0c-.37.05-.9.04-1.45-.22-.52-.24-.98-.65-1.32-1.09h0s0-.02,0-.02c-.62-.93-1.01-2.1-1.27-3.85l-.09-.36c-.1-.33-.23-.56-.39-.74l-.02-.02c-.18-.24-.51-.46-.91-.66h0c-.62-.31-1.37-.44-1.67-.47l-3.2.42.93,6.39.02.22c.04,1.1-.75,2.09-1.89,2.23h0c-1.21.16-2.28-.7-2.45-1.88l-2.69-18.56-.02-.23c-.05-1.12.73-2.07,1.86-2.22h.03s.02,0,.02,0l5.54-.74ZM692.02,319.12l-3.41.45.81,5.62,3.42-.45.28-.05c1.39-.33,2.31-1.67,2.1-3.09-.23-1.59-1.66-2.68-3.21-2.48Z"/>
  <path class="cls-5" d="M711.82,312.3c.85-.13,1.68.27,2.16.98l.09.15h0s0,.01,0,.01l9.23,17.8h0s0,0,0,0c.52,1.07.15,2.39-.93,2.95h0c-.22.12-.5.18-.74.21h0c-.85.09-1.74-.31-2.17-1.16h0s-1.91-3.67-1.91-3.67l-7.03.8-.96,3.98h0s-.42-.1-.42-.1l.42.11c-.24.9-1,1.51-1.86,1.61h0c-.27.03-.51.01-.73-.03h-.03c-1.19-.31-1.87-1.51-1.63-2.67h0s4.63-19.38,4.63-19.38h0c.24-.89,1-1.54,1.88-1.61ZM711.56,325.88l3.83-.43-2.55-4.9-1.29,5.34Z"/>
  <path class="cls-5" d="M740.04,309.7c1.11-.11,2.12.67,2.35,1.72l.04.21h0s1.9,18.36,1.9,18.36v.22c.01,1.1-.83,2.05-1.94,2.16h0c-.64.06-1.26-.21-1.68-.63-.07-.06-.16-.13-.22-.22l-10.59-12.05,1.22,11.77.02.21-.02.02c0,1.02-.73,1.93-1.7,2.12l-.21.03c-1.22.12-2.26-.79-2.38-1.97l-1.9-18.36v-.02s0-.04,0-.04c-.09-.66.15-1.38.68-1.86h0s.17-.14.17-.14c.89-.61,2.13-.51,2.86.33h0l10.71,12.15-1.21-11.68v-.21c-.02-1.07.79-2.02,1.9-2.13Z"/>
  <path class="cls-5" d="M762.97,307.49c1.09.02,2.03.86,2.13,2.01.1,1.18-.77,2.29-1.97,2.38l-.46.04h0s-4.1.32-4.1.32l1.44,16.46v.23c0,1.12-.83,2.03-1.98,2.12h0c-1.18.1-2.25-.78-2.35-2l-1.44-16.47-4.54.36h0c-1.23.1-2.25-.86-2.35-2.03h0c-.1-1.21.75-2.25,1.97-2.35l13.43-1.07h.22Z"/>
  <path class="cls-5" d="M143.98,462.82c1.16.01,2.24.93,2.25,2.19,0,1.24-1.06,2.21-2.23,2.22l-8.49.05.04,4.93,7.25-.04c1.21,0,2.25,1.01,2.26,2.18,0,1.24-1.01,2.21-2.23,2.22l-7.25.04.04,4.96,8.5-.05c1.17,0,2.25.97,2.26,2.21,0,1.21-1.06,2.19-2.23,2.19l-10.7.06h-.03s-.01,0-.02,0h-.02c-1.05,0-1.92-.68-2.18-1.6l-.11.04v-.6s-.12-18.74-.12-18.74c0-1.24.99-2.19,2.23-2.19l10.78-.06Z"/>
  <path class="cls-5" d="M166.01,462.7c1.2-.03,2.27.91,2.31,2.09l.53,18.45v.22c-.09,1.03-.92,1.87-1.96,2l-.23.02c-.66.02-1.26-.28-1.68-.72h0s-.07-.06-.11-.1c-.02-.02-.06-.07-.1-.12l-10.14-12.82.34,11.87v.22c-.09,1.1-1.04,1.99-2.15,2.01-1.25.03-2.27-.92-2.31-2.12l-.52-18.45v-.05h0c-.05-.68.27-1.38.85-1.83h.02s.19-.13.19-.13c.96-.54,2.22-.36,2.91.53l10.24,12.91-.34-11.78c-.03-1.17.94-2.17,2.15-2.2Z"/>
  <path class="cls-5" d="M195.76,460.38c2.9-.17,5.71.62,7.93,2.11h0c1.1.69,1.36,2.14.64,3.16h0c-.72.99-2.18,1.26-3.23.55h0c-1.32-.86-2.95-1.38-4.69-1.35h-.35c-2.27.15-4.17,1.07-5.48,2.52h0c-1.38,1.45-2.13,3.32-2,5.34.12,1.84.98,3.51,2.37,4.76l.29.24h.01c1.49,1.31,3.49,2.01,5.76,1.88l.58-.05c1.25-.16,2.41-.61,3.43-1.22l-.24-3.65-4.27.25c-1.24.07-2.37-.87-2.45-2.11-.08-1.28.94-2.27,2.17-2.34l6.48-.37h.06c1.26-.08,2.4.79,2.48,2.07l.45,7h0c0,.16,0,.28-.02.38-.02.11-.03.16-.04.23v.07s-.03.07-.03.07c0,0,0,0,0,.02,0,0,0,.02-.01.03v.03l-.02.06c-.11.4-.35.74-.72,1.02h0c-2.04,1.72-4.66,2.83-7.55,2.99-6.83.39-12.8-4.4-13.31-10.92h-.01s-.01-.18-.01-.18c-.42-6.64,4.93-12.21,11.83-12.6h0Z"/>
  <path class="cls-5" d="M223.42,459.05c1.16-.09,2.32.75,2.42,2,.1,1.23-.87,2.29-2.05,2.38h0l-8.47.67.43,4.93,7.23-.56c1.22-.09,2.32.83,2.42,2h0c.1,1.23-.84,2.29-2.05,2.38l-7.22.56.43,4.97,8.48-.67h.22c1.02.02,1.97.76,2.18,1.8l.03.22h0c.1,1.21-.88,2.27-2.06,2.35l-10.54.83h0s-.19.02-.19.02c-1.18.09-2.21-.71-2.4-1.83l-.03-.02-.02-.17-1.61-18.67h0c-.1-1.23.81-2.25,2.06-2.35h.01s.11,0,.11,0l10.62-.83Z"/>
  <path class="cls-5" d="M245.37,457.27c1.2-.11,2.34.75,2.46,1.91l1.99,18.36h0c.12,1.2-.79,2.27-2,2.39h0c-.66.07-1.3-.19-1.75-.6-.07-.05-.16-.12-.23-.22l-11.12-12.01,1.28,11.8h0c.12,1.19-.78,2.27-1.97,2.39-1.24.12-2.34-.74-2.46-1.95l-1.99-18.36v-.02s0-.05,0-.05c-.1-.68.17-1.39.7-1.86h.01c.93-.76,2.31-.72,3.12.17l11.24,12.11-1.27-11.71c-.13-1.17.76-2.24,1.98-2.36Z"/>
  <path class="cls-5" d="M255.66,455.81c1.11-.02,2.16.75,2.31,1.91h0s2.33,18.6,2.33,18.6l.02.23c.02,1.15-.9,2.07-2.01,2.19h0c-1.24.14-2.33-.68-2.49-1.9h0s-2.34-18.6-2.34-18.6l-.06-.48h.06c.09-1.01.9-1.82,1.96-1.94h.22Z"/>
  <path class="cls-5" d="M275.43,453.31c1.16-.15,2.36.63,2.53,1.87.17,1.23-.75,2.33-1.92,2.48h0s-8.42,1.11-8.42,1.11l.7,4.9,7.18-.94c1.21-.16,2.36.71,2.53,1.87h0c.17,1.22-.7,2.33-1.92,2.48h0s-7.18.94-7.18.94l.7,4.93,8.43-1.1h0c1.17-.15,2.36.67,2.53,1.89h0c.17,1.2-.75,2.3-1.92,2.46h0l-10.58,1.38h-.03s-.02,0-.02,0h-.05c-1.23.16-2.35-.66-2.53-1.84h0s-2.65-18.57-2.65-18.57h0c-.17-1.23.68-2.3,1.93-2.46h.02s.02,0,.02,0c0,0,.02,0,.05,0h0l10.58-1.38h0Z"/>
  <path class="cls-5" d="M295.36,450.21c1.12-.18,2.22.48,2.53,1.57l.05.22h0c.18,1.06-.47,2.1-1.47,2.44v.05l-.37.06-4.73.76,2.85,16.3.03.23c.08,1.13-.72,2.1-1.87,2.29h0c-1.19.19-2.37-.57-2.59-1.79h0s-2.86-16.31-2.86-16.31l-4.71.76c-1.24.2-2.38-.65-2.6-1.82h0c-.22-1.23.62-2.32,1.84-2.52h0l13.87-2.23h0Z"/>
  <path class="cls-5" d="M325.73,445.99c.24-1.18,1.44-1.94,2.62-1.71h0s0,0,0,0c0,0,0,0,.01,0h0c1.21.21,2,1.37,1.79,2.52h0s-4.01,19.77-4.01,19.77v.02s0,0-.01.03c0,.02,0,.05-.01.08,0,.03-.02.08-.03.12-.01.04-.04.1-.07.16l-.02.03h0s0,0,0,0c0,.01,0,.03-.01.04-.02.03-.04.07-.05.08,0,0-.01.02-.01.02h0c-.02.07-.05.15-.1.22-.04.05-.08.1-.1.12-.02.02-.03.04-.04.05l-.04.05-.05.04-.05.04s.01-.01,0,0c0,0-.04.04-.06.06-.03.03-.09.08-.17.14h0s0,0,0,0c0,0,0,0-.01,0,0,0-.02.02-.04.03l-.09.07-.11.02s-.02,0-.03.02c-.02,0-.04.03-.07.04l-.1.06h-.09c-.13.05-.25.08-.3.09-.11.03-.26.05-.41.05l-.08.02-.12-.03s0,0-.02,0c-.01,0-.03,0-.04,0h-.02l-.1.03v.26s-.27-.19-.27-.19l-.16.05v-.16s-.26-.19-.26-.19c0,0,0,0-.02,0-.01,0-.03-.01-.05-.02-.02,0-.05-.02-.09-.03l-.27-.11v-.12s-.05-.04-.08-.06c-.03-.02-.06-.04-.1-.08-.02-.02-.04-.04-.05-.07,0,0,0,0,0,0-.02-.02-.03-.03-.05-.05-.01-.02-.03-.03-.04-.04-.01,0-.01-.01,0,0l-.06-.04-.04-.06-11.85-16.56h0c-.68-.91-.49-2.19.41-2.9l.19-.13c.99-.67,2.36-.42,3.07.56l8.85,12.32,2.95-14.68h0ZM324,468.3h0s0,0,0,0h0Z"/>
  <path class="cls-5" d="M338.19,441.79c.9-.23,1.85.14,2.4.89h0s0,.01,0,.01l11.33,16.75h0c.65,1.04.38,2.39-.67,3.06h0c-.21.14-.48.24-.74.29h0s0,0,0,0h0c-.86.18-1.81-.13-2.34-.92l-2.33-3.44-7.24,1.54-.6,4.07h0c-.16.94-.89,1.62-1.77,1.8h0c-.27.05-.51.07-.75.05h-.01s-.01,0-.01,0c-1.24-.18-2.09-1.28-1.95-2.49h0s2.9-19.79,2.9-19.79h0c.16-.93.91-1.65,1.79-1.8ZM339.22,455.35l3.98-.84-3.16-4.66-.82,5.51Z"/>
  <path class="cls-5" d="M366.66,435.89c1.17-.25,2.41.46,2.68,1.61l4.27,18h0c.26,1.1-.41,2.21-1.48,2.55l-.22.06c-.64.14-1.29-.04-1.8-.39-.09-.05-.18-.11-.26-.19l-12.53-10.63,2.74,11.57h0c.27,1.17-.5,2.35-1.66,2.6h0c-1.22.27-2.41-.47-2.69-1.64h0s-4.27-18-4.27-18v-.05s-.01-.04-.01-.04c-.18-.66,0-1.39.47-1.92h.01s0-.01,0-.01c.83-.85,2.21-.97,3.13-.19l12.67,10.73-2.72-11.48c-.28-1.15.47-2.31,1.66-2.58h0Z"/>
  <path class="cls-5" d="M396.16,428.41c2.89-.48,5.9.21,8.23,1.79l.47.32c2.34,1.66,4.12,4.08,4.83,7.06.76,3.18.14,6.33-1.41,8.88h0c-1.47,2.53-4.09,4.52-7.16,5.2h0c-3.2.7-6.46,0-8.99-1.63h0c-2.57-1.63-4.49-4.21-5.25-7.39l-.13-.6c-.56-2.97.02-5.85,1.48-8.27,1.54-2.58,4.16-4.54,7.36-5.25l.58-.11ZM401.59,433.73c-1.53-.89-3.28-1.21-4.97-.83h0c-1.94.43-3.44,1.56-4.41,3.15h0c-.96,1.57-1.31,3.58-.84,5.57.45,1.87,1.56,3.46,2.99,4.45l.29.19h0s.3.19.3.19c1.53.9,3.3,1.23,5.11.83l.33-.08c1.65-.46,3.03-1.57,3.93-3.07h0c.94-1.53,1.32-3.56.84-5.55l-.07-.3c-.53-1.85-1.74-3.4-3.21-4.37l-.3-.19Z"/>
  <path class="cls-5" d="M427.59,422.44c1.17-.25,2.41.46,2.68,1.61h0l4.29,17.99h0c.28,1.17-.5,2.35-1.69,2.61h0c-.64.14-1.29-.04-1.8-.39-.08-.05-.17-.11-.25-.18l-12.55-10.63,2.76,11.56.06.24-.02.02c.12,1.08-.62,2.12-1.7,2.35h0c-1.22.27-2.41-.47-2.69-1.63l-4.29-17.99v-.05s-.01-.04-.01-.04c-.18-.66,0-1.39.47-1.92h.01s0-.01,0-.01c.83-.85,2.21-.97,3.12-.19h0l12.67,10.71-2.73-11.48c-.28-1.15.47-2.31,1.67-2.58h0Z"/>
  <path class="cls-5" d="M444.6,417.77c2.82-.61,5.27.08,7.09.7l.74.26h.01c1.04.41,1.66,1.59,1.22,2.66h0c-.39,1.09-1.63,1.62-2.73,1.23h0c-1.78-.65-3.37-1.17-5.06-.9l-.34.06c-1.37.3-2.47.97-3.12,1.7-.65.73-.78,1.35-.66,1.83h0c.07.3.16.46.31.61.13.12.32.26.6.39l.31.13h0c.88.34,2.36.53,4.12.46h0s.05-.02.05-.02h.05c1.73-.05,3.37.02,4.85.34h0c1.42.32,2.76.85,3.83,1.78l.21.19h0c.71.7,1.27,1.63,1.51,2.67l.08.4c.33,2.01-.48,3.94-1.81,5.39h0c-1.38,1.54-3.4,2.69-5.76,3.2h0c-3.61.75-7.03-.32-9.23-1.33h0c-1.02-.49-1.45-1.68-1.04-2.68v-.06l.05-.09c.53-1.03,1.83-1.42,2.86-.92l.66.29c1.63.66,3.89,1.16,5.76.73h0c1.54-.34,2.78-1.07,3.52-1.89.73-.82.9-1.55.75-2.13h0c-.07-.32-.2-.51-.41-.72-.16-.17-.37-.33-.68-.47l-.34-.14c-.99-.35-2.61-.54-4.54-.47h0s-.05.02-.05.02h-.05c-1.59.06-3.13,0-4.54-.31-1.41-.3-2.73-.87-3.77-1.88h0c-.71-.7-1.22-1.58-1.46-2.59-.48-2.03.3-4.02,1.6-5.47h0s.26-.27.26-.27c1.31-1.32,3.12-2.27,5.14-2.71Z"/>
  <path class="cls-5" d="M469.96,412.87c1.21-.26,2.44.46,2.71,1.64l3.78,16.13,8.3-1.79h0c1.15-.24,2.41.48,2.69,1.68h0c.27,1.19-.55,2.35-1.69,2.61h0s-10.42,2.26-10.42,2.26h-.05s-.02,0-.02,0h-.04c-1.22.27-2.41-.47-2.69-1.64l-.12-.53h.02l-4.16-17.76c-.27-1.18.47-2.34,1.7-2.61Z"/>
  <path class="cls-5" d="M498.65,406.69c1.14-.24,2.4.44,2.68,1.66h0c.28,1.21-.54,2.39-1.7,2.64l-8.29,1.77,1.12,4.83,7.08-1.51c1.19-.26,2.41.52,2.68,1.66h0c.29,1.21-.5,2.38-1.7,2.64h0l-7.07,1.51,1.13,4.85,8.3-1.78c1.15-.25,2.4.48,2.68,1.68l.04.22c.13,1.11-.67,2.15-1.75,2.38l-10.42,2.24h0s-.05,0-.07.01h-.03c-1.22.27-2.41-.48-2.68-1.65l-.12-.52h0l-4.13-17.76-.04-.23c-.15-1.12.61-2.14,1.75-2.38h.04s.02,0,.02,0c0,0,0,0,0,0h.01s.01,0,.01,0l10.42-2.24h0ZM488.16,408.95s0,0,0,0c0,0,0,0,.02,0,0,0,0,0,0,0Z"/>
  <path class="cls-5" d="M519.49,402.93c.72-.88,1.97-1.09,2.97-.48,1.04.64,1.34,1.99.7,3.02h0s-5.3,7.98-5.3,7.98l8.92,7.26h0c1,.73,1.14,2.1.37,3.03h0c-.33.45-.79.7-1.29.81h0c-.61.13-1.27-.02-1.81-.42h-.01s.27-.35.27-.35l-.27.34-8.6-7-2.23,3.44.97,4.23.04.22c.14,1.1-.6,2.14-1.75,2.38-1.15.24-2.26-.41-2.61-1.45l-.03-.02-.05-.2-4.18-18.14-.04-.21c-.13-1.07.59-2.15,1.75-2.39,1.15-.24,2.26.43,2.61,1.45l.06.21h0s1.82,7.91,1.82,7.91l7.56-11.45.14-.19Z"/>
  <path class="cls-5" d="M542.49,398.26c.69-1.03,2.05-1.31,3.1-.65h0c1.04.64,1.33,2,.69,3.02h0s-5.33,7.96-5.33,7.96l8.89,7.3c1,.73,1.12,2.11.35,3.04h0c-.33.44-.78.69-1.29.8h0c-.61.13-1.27-.02-1.81-.42h-.01s-8.58-7.04-8.58-7.04l-2.24,3.44.95,4.23c.26,1.18-.49,2.34-1.72,2.6-1.22.26-2.4-.49-2.68-1.66l-.05-.24h.01s-4.06-17.94-4.06-17.94h0c-.25-1.14.49-2.34,1.72-2.6,1.15-.24,2.26.44,2.61,1.46l.06.21h0s1.79,7.92,1.79,7.92l7.59-11.42Z"/>
  <path class="cls-5" d="M564.05,392.98c1.14-.23,2.39.45,2.66,1.68l.04.23c.13,1.13-.68,2.17-1.76,2.4h0s-8.3,1.71-8.3,1.71l1.07,4.84,7.09-1.45c1.19-.25,2.41.54,2.67,1.68h0c.27,1.21-.52,2.38-1.72,2.63h0l-7.08,1.45,1.08,4.87,8.31-1.71.22-.03c1.01-.1,2.05.52,2.39,1.52l.06.22h0c.25,1.12-.48,2.21-1.52,2.54l-.21.05-10.44,2.14h-.01s-.01,0-.01,0h-.07c-1.22.27-2.4-.49-2.67-1.66v-.05s0,0,0,0l-4.07-18.28-.04-.23c-.14-1.13.63-2.13,1.77-2.36h.04s.02,0,.02,0c0,0,0,0,0,0h.02s.01,0,.01,0l10.44-2.14h0Z"/>
  <path class="cls-5" d="M579.08,389.94c3.92-.59,7.66,1.88,8.49,5.7.44,2.01-.05,3.97-1.17,5.55.36.21.7.45,1.03.76h0c.9.83,1.62,1.97,1.92,3.37h0c.13.72.29,1.2.41,1.5.49.1.93.37,1.26.77l.16.22h0c.66,1.07.26,2.4-.81,3.01h-.02s-.02.02-.02.02c-.12.05-.41.19-.78.26h-.04s-.04,0-.04,0c-.38.08-.94.11-1.53-.11h0c-.56-.2-1.06-.58-1.44-1l-.02-.02c-.7-.88-1.19-2.02-1.57-3.75l-.12-.36c-.12-.32-.27-.53-.45-.71l-.02-.02c-.19-.22-.56-.42-1-.59-.68-.26-1.48-.34-1.79-.36l-3.32.66,1.38,6.32h0c.25,1.19-.55,2.34-1.77,2.59-1.22.24-2.4-.51-2.66-1.69l-3.99-18.35c-.26-1.21.52-2.34,1.74-2.58h.04s.03,0,.03,0l5.7-1.15.38-.07ZM583.14,396.54c-.34-1.56-1.9-2.56-3.52-2.24h0s-3.54.71-3.54.71l1.21,5.56,3.55-.71c1.62-.33,2.62-1.84,2.3-3.32h0Z"/>
  <path class="cls-5" d="M604.24,384.98c1.07-.21,2.24.4,2.58,1.48l.06.22.03.23c.11,1.13-.69,2.16-1.79,2.37h0s-8.32,1.62-8.32,1.62l1.03,4.84,7.11-1.38c1.19-.23,2.4.56,2.64,1.7h0c.25,1.22-.56,2.37-1.75,2.6h0l-7.09,1.38,1.03,4.88,8.33-1.62c1.15-.22,2.4.52,2.65,1.74h0c.24,1.12-.5,2.2-1.54,2.52l-.21.05-10.47,2.03h-.02s0,0,0,0h-.07c-1.22.25-2.4-.51-2.64-1.69l-.1-.52h0l-3.78-17.84h0c-.25-1.22.53-2.34,1.76-2.57h.04s.01,0,.01,0c0,0,0,0,.01,0h.02s.02,0,.02,0l10.47-2.03Z"/>
  <path class="cls-5" d="M638.76,378.53c1.15-.15,2.36.55,2.6,1.73v.04s0,0,0,0l3.62,18.37h0c.23,1.19-.64,2.35-1.83,2.56h0c-1.23.22-2.39-.56-2.62-1.74h0s-2.34-11.87-2.34-11.87l-2.87,5.92h0c-.32.66-.92,1.09-1.64,1.22h-.03s-.03,0-.03,0h0c-.71.13-1.45-.05-2-.55h0s-4.89-4.51-4.89-4.51l2.34,11.84.03.22c.1,1.11-.71,2.13-1.86,2.33h0c-1.11.2-2.24-.46-2.56-1.52l-.05-.22-3.63-18.42h0c-.23-1.18.59-2.33,1.79-2.55l.1-.02h0c.63-.11,1.4.05,1.94.57l7.72,7.05,4.5-9.26h0c.32-.66.92-1.09,1.64-1.21h.04s.06,0,.06,0Z"/>
  <path class="cls-5" d="M659.39,374.99c1.15-.19,2.38.54,2.6,1.77h0c.23,1.22-.66,2.36-1.82,2.56h0l-8.37,1.41.9,4.88,7.14-1.2c1.19-.2,2.39.61,2.6,1.77l.03.23c.09,1.13-.72,2.14-1.85,2.33h0s-7.13,1.2-7.13,1.2l.9,4.9,8.38-1.41h0c1.09-.18,2.23.49,2.55,1.58l.05.22c.22,1.19-.66,2.33-1.82,2.52h0s-10.45,1.77-10.45,1.77h0s-.17.03-.17.03c-1.23.21-2.38-.59-2.6-1.77l-.04-.23h0s-3.35-18.24-3.35-18.24l-.03-.23c-.1-1.13.7-2.11,1.85-2.3h.03s.01,0,.01,0c0,0,0,0,0,0h.02s.02-.01.02-.01l10.52-1.78h0Z"/>
  <path class="cls-5" d="M682.12,371.75c1.12-.17,2.22.52,2.52,1.57l.05.21,3.01,18.23.02.22c.06,1.11-.76,2.1-1.89,2.28-.65.1-1.29-.12-1.76-.5l-.13-.1s-.08-.07-.12-.12l-11.78-11.43,1.88,11.36h0l.06.37c.18,1.11-.56,2.17-1.61,2.44l-.22.05c-1.23.19-2.37-.63-2.58-1.81h0s-3.01-18.23-3.01-18.23v-.03s0-.04,0-.04c-.13-.66.08-1.38.6-1.89h.01c.88-.8,2.27-.85,3.13,0l11.89,11.52-1.93-11.63-.02-.22c-.07-1.08.73-2.07,1.86-2.24Z"/>
  <path class="cls-5" d="M707.64,368c1.24-.16,2.35.65,2.52,1.87l1.57,11.2.06.49c.44,5.07-3.31,9.63-8.59,10.31h0c-5.48.7-10.46-3-11.21-8.25h0s-1.57-11.21-1.57-11.21c-.17-1.23.69-2.29,1.92-2.45l.22-.02c1.11-.04,2.17.72,2.34,1.89l1.57,11.21.04.26c.53,2.7,3.19,4.59,6.07,4.22h0c2.92-.37,4.92-2.87,4.68-5.6l-.03-.26-1.57-11.21h0c-.17-1.24.73-2.3,1.96-2.46Z"/>
  <path class="cls-5" d="M729.93,366.33c.79-.95,2.16-1.1,3.15-.33l.17.15c.81.76.9,2.04.19,2.93h0s-6.15,7.39-6.15,7.39l8.07,8.14h0c.91.83.9,2.21.03,3.06-.37.41-.86.62-1.37.67-.63.07-1.26-.15-1.75-.6h0s0-.02,0-.02l-7.77-7.85-2.6,3.2.5,4.31h0c.14,1.19-.73,2.27-1.98,2.41-1.25.14-2.34-.74-2.49-1.92l-.02-.13v-.02s-2.12-18.34-2.12-18.34v-.22c-.02-1.08.81-2.07,1.98-2.2,1.17-.13,2.21.67,2.45,1.71l.04.21h0s.93,8.05.93,8.05l8.78-10.61h0Z"/>
  <path class="cls-5" d="M747.39,363.89c.87-.12,1.73.3,2.2,1.03l.09.15h0s9.09,17.99,9.09,17.99h0c.52,1.11.07,2.41-1.05,2.96-.22.12-.51.18-.77.2h0c-.88.08-1.79-.34-2.21-1.2h0s-1.88-3.7-1.88-3.7l-7.39.66-1.12,3.97h0c-.28.92-1.1,1.49-1.97,1.57h0c-.27.02-.52,0-.76-.05h-.02c-1.21-.33-1.92-1.53-1.62-2.71h0s5.42-19.28,5.42-19.28h0c.27-.9,1.1-1.52,1.99-1.57h0ZM746.68,377.46l4.05-.37-2.54-5-1.51,5.36Z"/>
  <path class="cls-5" d="M768.89,362.1c.88-.11,1.72.32,2.18,1.06l.09.15h0s8.8,18.11,8.8,18.11h0c.5,1.13.03,2.43-1.11,2.94h0c-.21.1-.49.16-.76.18h0c-.88.07-1.79-.38-2.19-1.23h0s-1.82-3.73-1.82-3.73l-7.39.56-1.18,3.95h0s-.41-.13-.41-.13l.41.14c-.3.89-1.12,1.46-2,1.53h0c-.27.02-.52,0-.78-.06h0c-1.21-.34-1.9-1.55-1.57-2.73h0s5.72-19.2,5.72-19.2v-.02h0c.29-.87,1.11-1.48,2-1.53ZM767.97,375.68l4.06-.31-2.46-5.04-1.6,5.34Z"/>
  <path class="cls-5" d="M790.35,360.61c3.97-.05,7.31,2.91,7.58,6.8.14,2.05-.63,3.92-1.97,5.33.32.25.62.54.89.88l.28.37c.54.76.92,1.68,1.08,2.71l.06.53h0s0,.01,0,.01c.03.72.11,1.22.19,1.53.55.2,1.01.6,1.27,1.18l.19.44-.08.02c.19,1.01-.39,2.01-1.37,2.41h-.02s-.02.02-.02.02c-.12.03-.42.13-.8.15h-.35c-.35-.01-.78-.09-1.21-.32h0c-.52-.27-.96-.71-1.28-1.19h0s0-.02,0-.02c-.56-.96-.88-2.16-1-3.92l-.07-.37c-.08-.33-.19-.57-.34-.76h0s0-.02,0-.02c-.16-.24-.5-.5-.9-.72h0c-.62-.35-1.4-.54-1.71-.6l-3.39.2.44,6.44v.23c-.04,1.11-.96,2.02-2.13,2.09-1.16.07-2.17-.72-2.36-1.81l-.03-.22-1.26-18.7h0c-.08-1.23.85-2.24,2.1-2.31h.03s5.86-.36,5.86-.36h.39ZM790.23,365.01l-3.61.22.39,5.66,3.61-.22c1.66-.1,2.87-1.46,2.77-2.98h0s-.03-.3-.03-.3c-.25-1.44-1.57-2.49-3.12-2.39Z"/>
  <path class="cls-5" d="M816.98,359.22c1.2-.06,2.29.83,2.35,2.06v.22c-.06,1.11-.98,2.04-2.13,2.09l-.45.02h0s-4.35.2-4.35.2l.87,16.51c.07,1.23-.88,2.23-2.13,2.28h0s0,0,0,0c-1.13.05-2.15-.73-2.32-1.84l-.02-.23-.87-16.51-4.77.23c-1.18.06-2.17-.79-2.34-1.88l-.02-.22c-.07-1.23.89-2.23,2.13-2.28l14.06-.66h0s0,0,0,0Z"/>
</svg>