<svg width="440" height="650" viewBox="0 0 440 650" fill="none" xmlns="http://www.w3.org/2000/svg">
<g clip-path="url(#clip0_512_27769)">
<path d="M481.351 65.8132C477.152 64.2856 473.316 64.9231 469.261 66.7198C468.911 67.0047 468.562 67.2365 468.215 67.4152C468.01 67.5203 467.809 67.6219 467.609 67.7228C467.375 67.8431 467.145 67.9591 466.917 68.0772C466.532 68.2716 466.15 68.4673 465.766 68.6638C465.213 68.9458 464.658 69.2307 464.105 69.5127C462.612 70.274 461.12 71.0373 459.628 71.8027C459.473 71.8831 459.322 71.9599 459.173 72.0361C455.828 73.753 452.498 75.4988 449.18 77.2655C447.077 78.3863 444.969 79.495 442.838 80.5641C440.121 81.9243 437.422 83.3148 434.734 84.7289C434.526 84.8375 434.326 84.9431 434.124 85.0495C432.458 85.9252 430.792 86.8029 429.127 87.6807C427.661 88.4527 426.196 89.2269 424.73 89.9969C424.524 90.1048 424.322 90.2112 424.122 90.3168C421.743 91.5681 419.365 92.8165 416.948 93.9965C414.787 95.0487 412.655 96.1479 410.529 97.2653C409.822 97.6366 409.116 98.0071 408.409 98.3784C403.841 100.767 398.522 102.875 396.339 107.846C396.266 108.018 396.197 108.187 396.127 108.354C395.447 109.771 395.139 111.044 395.033 112.588C395.007 113.009 394.981 113.43 394.955 113.85C394.94 114.08 394.925 114.302 394.911 114.526C394.839 115.644 394.763 116.762 394.682 117.881C394.641 118.455 394.577 119.351 394.491 120.57C394.475 120.806 394.459 121.039 394.442 121.269C394.223 124.362 394.009 127.455 393.812 130.549C393.638 133.29 393.449 136.031 393.255 138.77C392.988 142.545 392.725 146.318 392.47 150.093C392.455 150.322 392.438 150.545 392.424 150.77C392.365 151.646 392.306 152.522 392.249 153.397C392.032 156.628 391.813 159.858 391.589 163.087C391.557 163.544 391.526 163.999 391.494 164.456C391.471 164.775 391.45 165.091 391.427 165.41C391.288 167.42 391.149 169.431 391.015 171.442C391.001 171.666 390.987 171.884 390.97 172.1C390.955 172.327 390.941 172.545 390.925 172.765C390.895 173.215 390.865 173.664 390.834 174.112C390.818 174.344 390.804 174.568 390.789 174.791C390.576 177.97 390.355 181.151 390.12 184.329C389.916 187.08 389.733 189.831 389.565 192.583C389.45 194.471 389.335 196.359 389.19 198.246C389.176 198.414 389.163 198.58 389.151 198.744C389.091 199.524 389.028 200.303 388.963 201.083C388.951 201.229 388.937 201.369 388.927 201.51C388.905 201.785 388.883 202.053 388.861 202.321C388.806 202.979 388.763 203.629 388.766 204.289C388.769 204.475 388.772 204.657 388.774 204.839C388.777 205.028 388.78 205.212 388.781 205.394C388.783 205.537 388.786 205.677 388.788 205.817C384.886 207.17 380.986 208.525 377.085 209.883C376.928 209.939 376.773 209.992 376.62 210.045C367.12 213.35 357.633 216.685 348.162 220.07C347.884 220.169 347.615 220.265 347.346 220.361C344.061 221.535 340.778 222.711 337.497 223.889C337.242 223.98 336.994 224.068 336.746 224.157C336.678 224.007 336.611 223.86 336.545 223.714C336.453 223.516 336.366 223.323 336.278 223.131C335.893 222.288 335.466 221.526 334.925 220.77C334.827 220.639 334.731 220.508 334.636 220.38C333.281 218.53 331.839 216.777 330.26 215.106C322.347 206.747 317.637 197.455 317.522 185.82C317.489 182.179 317.409 178.713 316.124 175.282C316.072 175.143 316.022 175.01 315.969 174.875C315.256 172.943 314.554 171.034 313.413 169.301C313.253 169.082 313.097 168.87 312.941 168.656C312.756 168.396 312.57 168.137 312.385 167.877C308.299 162.362 302.119 158.335 295.174 157.227C294.562 157.148 294.043 157.045 293.445 156.873C293.094 156.324 293.08 155.974 293.099 155.33C293.141 154.65 293.091 154.021 293.022 153.346C293.002 153.18 292.985 153.019 292.968 152.858C292.846 151.633 292.653 150.454 292.374 149.256C292.047 149.22 291.721 149.219 291.394 149.253C291.206 149.279 291.025 149.305 290.842 149.329C290.654 149.355 290.47 149.38 290.286 149.404C290.14 149.424 290.001 149.444 289.86 149.465C289.955 149.243 290.147 149.013 290.435 148.775C290.747 148.495 291.061 148.214 291.372 147.931C291.493 147.822 291.608 147.717 291.726 147.611C292.374 147.027 293.019 146.441 293.661 145.855C297.064 142.757 300.475 139.669 303.898 136.596C306.852 133.944 309.803 131.287 312.746 128.623C314.441 127.09 316.137 125.557 317.843 124.036C318.011 123.887 318.174 123.742 318.336 123.598C319.102 122.915 319.867 122.231 320.636 121.55C320.913 121.305 321.189 121.057 321.467 120.812C321.596 120.695 321.724 120.583 321.85 120.47C322.57 119.836 323.219 119.234 323.716 118.412C323.517 118.436 323.321 118.459 323.126 118.481C322.855 118.515 322.586 118.549 322.32 118.581C316.934 119.234 310.775 121.602 306.228 124.513C306.072 124.617 305.919 124.715 305.766 124.815C301.676 127.476 298.076 130.896 295.509 135.009C295.359 135.25 295.215 135.485 295.069 135.717C293.71 137.749 292.713 139.849 291.748 142.074C291.693 142.199 291.64 142.322 291.588 142.444C290.903 140.051 290.159 137.689 289.322 135.343C289.13 134.806 288.937 134.271 288.748 133.733C288.08 131.85 287.403 129.985 286.561 128.172C286.475 127.992 286.392 127.818 286.309 127.644C285.419 125.75 284.579 123.846 282.901 122.505C281.842 122.055 280.885 121.885 279.736 122.148C278.251 122.642 277.515 123.275 276.771 124.651C276.353 125.88 276.657 127.509 277.683 129.536C278.711 131.526 279.536 133.547 280.281 135.655C280.485 136.241 280.69 136.828 280.898 137.412C282.606 142.196 283.898 147.122 284.26 152.22C284.312 152.997 284.378 153.768 284.449 154.543C284.479 154.863 284.508 155.182 284.538 155.503C284.552 155.649 284.565 155.79 284.577 155.93C284.597 156.151 284.618 156.366 284.638 156.58C282.202 156.652 279.866 157.325 277.574 158.116C277.296 158.215 277.02 158.314 276.748 158.411C274.2 159.309 271.831 160.344 269.673 161.98C269.516 162.105 269.363 162.223 269.21 162.344C265.66 165.119 262.642 168.404 260.776 172.484C260.668 172.731 260.564 172.971 260.458 173.21C258.87 176.613 258.257 180.004 257.901 183.674C257.416 188.678 256.455 193.91 253.879 198.369C253.567 198.871 253.266 199.367 252.988 199.887C250.898 203.8 248.009 207.297 244.672 210.268C239.455 214.895 234.804 220.15 231.37 226.173C231.111 226.628 230.849 227.081 230.579 227.531C230.114 228.305 229.708 229.067 229.37 229.899C229.156 230.446 228.936 230.991 228.692 231.526C227.578 233.909 226.605 236.274 225.858 238.79C225.805 238.971 225.754 239.145 225.702 239.321C223.938 245.205 223.194 251.268 223.332 257.365C223.34 257.625 223.347 257.876 223.355 258.127C223.381 259.059 223.441 259.965 223.52 260.897C223.722 261.913 223.919 262.899 224.115 263.885C218.91 265.664 213.859 267.391 208.807 269.119C206.947 266.734 205.135 264.338 203.186 262.028C203.016 261.831 202.851 261.638 202.689 261.447C200.978 259.441 199.218 257.484 197.394 255.577C196.915 255.078 196.435 254.583 195.959 254.08C192.798 250.736 189.535 247.512 186.173 244.36C185.965 244.167 185.766 243.977 185.565 243.789C183.008 241.392 180.429 239.037 177.742 236.78C177.669 236.902 177.598 237.023 177.527 237.142C177.432 237.304 177.34 237.461 177.247 237.617C175.674 240.283 174.169 241.787 171.322 243.185L171.177 242.78C172.4 242.343 174.141 239.97 176.4 235.659C176.255 235.52 176.111 235.383 175.968 235.246C175.773 235.062 175.585 234.883 175.396 234.703C174.75 234.088 174.134 233.542 173.362 233.086C173.226 233.384 173.085 233.681 172.946 233.978C170.295 239.353 166.382 245.832 160.339 248.018C161.483 247.331 163.053 245.665 165.047 243.02C165.234 242.773 165.42 242.523 165.609 242.275C166.872 240.611 168.11 238.933 169.285 237.208C169.848 236.384 170.425 235.568 171.002 234.754C171.136 234.567 171.265 234.383 171.394 234.203C171.741 233.713 172.087 233.224 172.435 232.736C172.51 232.63 172.584 232.528 172.656 232.424C171.637 231.442 170.572 230.528 169.482 229.624C169.262 229.442 169.049 229.266 168.835 229.089C167.492 227.975 166.142 226.869 164.777 225.781C163.899 225.082 163.023 224.38 162.151 223.671C158.281 220.527 154.383 217.43 150.377 214.451C149.581 213.864 148.788 213.274 148 212.677C145.07 210.445 142.073 207.751 138.605 206.319C138.434 206.256 138.267 206.195 138.101 206.133C134.685 204.849 131.49 204.308 127.826 204.385C121.879 204.62 114.893 208.898 106.869 217.221C106.727 217.37 106.59 217.513 106.45 217.656C105.873 216.731 105.312 215.806 104.809 214.838C102.005 208.905 101.333 203.507 103.479 197.217C104.157 195.24 104.646 193.368 104.575 191.281C104.117 186.209 100.682 182.647 96.9056 179.483C95.3654 178.206 93.7657 176.967 92.36 175.546C89.3969 172.234 89.4038 167.928 89.6302 163.749C89.7919 161.077 89.9769 158.431 89.6699 155.77C89.6398 155.541 89.6099 155.319 89.5806 155.098C89.2983 152.975 88.8319 150.593 87.3523 148.959C85.9928 147.596 84.647 147.015 82.673 147.002C80.0818 147.317 77.6745 148.502 75.8693 150.353C72.8738 153.445 69.3122 155.886 64.8745 156.327C64.6915 156.335 64.5128 156.342 64.3347 156.35C61.1924 156.505 57.9256 156.02 55.2703 154.342C52.4258 152.509 49.0806 150.922 45.6524 150.493C45.4477 150.473 45.2455 150.453 45.0459 150.435C42.4798 150.173 39.401 150.552 37.4682 152.481C36.0547 154.41 35.3732 157.889 35.4239 162.919C35.4764 167.741 35.0301 171.6 31.891 175.508C28.976 179.122 25.6302 182.761 25.0001 187.47C24.8582 190.046 25.8608 191.933 27.5771 193.782C30.9577 197.131 34.9675 198.669 39.791 198.748C40.8272 198.751 41.8068 198.747 42.8191 198.966C43.8093 199.433 44.3361 199.953 44.7939 200.933C44.8802 201.195 44.9657 201.447 45.0492 201.701C45.2781 202.369 45.4958 203.032 45.6552 203.722C45.889 204.793 46.1921 205.814 46.5575 206.844C46.627 207.039 46.6943 207.228 46.7644 207.417C47.3397 209.05 47.9083 210.636 48.9226 212.055C51.2204 214.782 53.752 216.404 57.4114 216.933C61.3892 217.452 65.4172 217.907 68.4971 220.597C68.62 220.709 68.7425 220.819 68.8644 220.928C71.0981 223.803 72.798 226.986 73.9641 230.478C74.2208 231.191 74.4789 231.901 74.7398 232.612C74.8241 232.84 74.907 233.065 74.9885 233.289C75.8322 235.674 76.817 237.299 79.1529 238.511C81.834 239.576 85.9898 239.185 91.6203 237.337C91.7525 237.292 91.8813 237.251 92.0114 237.207C90.1854 240.331 88.4138 243.516 87.0544 246.861C87.0006 246.996 86.947 247.129 86.8937 247.261C85.4159 250.926 84.8624 255.269 85.7106 259.11C87.7006 266.045 91.3286 270.713 97.6432 274.352C97.7846 274.431 97.9211 274.511 98.0569 274.588C98.4566 274.818 98.8569 275.043 99.2607 275.265C99.3868 275.332 99.512 275.4 99.6362 275.467C100.307 275.83 100.744 276.072 101.517 276.075C102.689 275.701 105.09 273.034 108.72 268.075C109.561 266.924 110.405 265.775 111.261 264.633C112.527 262.945 113.781 261.25 115.028 259.548C115.801 258.492 116.567 257.433 117.369 256.397C118.221 255.303 119.021 254.196 119.778 253.04C120.263 252.284 120.738 251.589 121.386 250.953C121.038 251.667 120.691 252.38 120.341 253.095C120.197 253.391 120.05 253.685 119.907 253.981C119.024 255.793 118.13 257.588 117.132 259.346C117.022 259.533 116.918 259.717 116.811 259.899C115.776 261.699 114.692 263.459 113.502 265.168C113.345 265.389 113.193 265.601 113.041 265.815C111.622 267.819 110.002 269.603 108.279 271.361C108.141 271.502 108.006 271.637 107.873 271.773C106.182 273.503 104.5 274.81 102.339 275.94C102.128 276.047 101.918 276.153 101.709 276.258C101.806 276.528 102.048 276.78 102.435 277.014C102.736 277.176 103.035 277.342 103.331 277.508C103.559 277.644 103.778 277.778 103.999 277.909C104.242 278.056 104.479 278.199 104.716 278.341C105.464 278.794 105.81 279.073 106.704 279.047C107.659 278.287 108.967 276.763 110.625 274.475C110.981 273.982 111.336 273.488 111.697 272.996C113.306 270.804 114.903 268.606 116.497 266.403C117.097 265.572 117.7 264.742 118.3 263.913C118.542 263.58 118.783 263.247 119.024 262.914C119.297 262.538 119.568 262.163 119.84 261.787C119.529 262.931 119.15 263.978 118.627 265.051C118.54 265.226 118.453 265.398 118.367 265.569C117.517 267.276 116.621 268.944 115.588 270.554C115.504 270.682 115.423 270.809 115.34 270.934C113.536 273.711 111.455 276.101 108.736 278.063C108.071 278.525 107.494 278.84 107.131 279.578C108.322 280.323 109.529 281.023 110.789 281.652C112.002 282.255 113.196 282.864 114.359 283.553C115.509 284.236 117.391 285.237 120.003 286.553C120.772 286.939 121.538 287.327 122.294 287.731C123.09 288.167 123.884 288.585 124.715 288.956C125.209 289.175 125.69 289.401 126.167 289.656C127.056 290.15 127.95 290.611 128.881 291.03C129.883 291.479 130.877 291.924 131.833 292.459C132.591 292.883 133.368 293.253 134.16 293.614C134.317 293.684 134.468 293.753 134.62 293.823C134.927 293.963 135.233 294.102 135.541 294.239C135.779 294.346 136.009 294.451 136.242 294.556C127.715 297.594 119.188 300.632 110.661 303.673C109.635 304.039 108.606 304.406 107.579 304.773C107.368 304.848 107.163 304.921 106.959 304.994C103.636 306.18 100.311 307.364 96.9877 308.548C93.567 309.768 90.1449 310.985 86.7242 312.205C84.6163 312.958 82.5062 313.711 80.3976 314.461C78.9387 314.981 77.4799 315.502 76.0231 316.022C75.1821 316.322 74.3389 316.623 73.4978 316.923C72.7172 317.201 71.9367 317.48 71.1561 317.758C70.8723 317.86 70.5885 317.961 70.3046 318.062C70.0333 318.159 69.7682 318.254 69.5032 318.348C69.2548 318.437 69.0127 318.523 68.7727 318.609C68.372 318.752 67.9742 318.903 67.5813 319.062C64.414 320.827 62.0997 323.513 60.7789 326.814C59.2471 331.205 60.3688 335.186 62.2491 339.202C62.427 339.575 62.6048 339.948 62.7805 340.322C63.0359 340.866 63.2913 341.411 63.5495 341.956C63.9547 342.815 64.3592 343.672 64.7645 344.53C65.1684 345.392 65.5743 346.253 65.9803 347.113C66.8346 348.927 67.6875 350.744 68.5258 352.565C69.9254 355.611 71.3507 358.642 72.7781 361.673C74.1359 364.555 75.4888 367.436 76.8223 370.329C77.7381 372.315 78.6622 374.299 79.596 376.276C81.6803 380.686 83.7485 385.104 85.8119 389.521C86.2882 390.54 86.7625 391.559 87.2389 392.577C88.0446 394.301 88.8502 396.025 89.6531 397.747C90.5778 399.726 91.5012 401.707 92.426 403.685C93.3343 405.63 94.2419 407.574 95.1502 409.519C95.5326 410.34 95.9178 411.162 96.3002 411.984C98.2115 416.074 100.123 420.164 102.013 424.261C103.012 426.428 104.023 428.588 105.04 430.746C106.439 433.709 107.837 436.671 109.209 439.646C110.882 443.281 112.582 446.903 114.283 450.524C114.539 451.068 114.797 451.614 115.052 452.158C115.12 452.303 115.187 452.443 115.254 452.584C116.321 454.855 117.385 457.126 118.448 459.4C119.149 460.903 119.852 462.405 120.556 463.909C121.058 464.98 121.559 466.053 122.059 467.125C122.541 468.158 123.023 469.192 123.506 470.224C123.686 470.61 123.869 470.996 124.049 471.382C124.301 471.925 124.554 472.467 124.808 473.01C124.887 473.178 124.965 473.342 125.041 473.505C126.27 476.163 128.105 478.271 130.602 479.883C134.123 481.831 137.814 482.244 141.778 481.254C142.389 481.093 143.003 480.936 143.617 480.783C143.98 480.693 144.343 480.602 144.708 480.511C146.577 480.04 148.451 479.586 150.327 479.143C150.486 479.105 150.642 479.069 150.796 479.033C151.437 478.882 152.076 478.729 152.716 478.578C158.182 477.286 163.643 475.975 169.093 474.618C173.094 473.62 177.1 472.647 181.111 471.698C185.691 470.614 190.268 469.514 194.835 468.375C199.399 467.238 203.97 466.135 208.547 465.05C213.009 463.993 217.469 462.929 221.917 461.81C226.198 460.733 230.493 459.706 234.788 458.689C239.277 457.627 243.762 456.552 248.237 455.438C252.491 454.377 256.75 453.337 261.018 452.328C265.598 451.244 270.175 450.144 274.742 449.005C279.305 447.868 283.876 446.765 288.454 445.68C292.916 444.623 297.376 443.559 301.824 442.44C306.105 441.363 310.399 440.336 314.695 439.319C319.184 438.257 323.668 437.182 328.143 436.067C332.397 435.007 336.657 433.967 340.925 432.958C344.995 431.997 349.063 431.025 353.123 430.015C355.463 429.431 357.802 428.853 360.144 428.275C360.605 428.161 361.063 428.048 361.524 427.934C363.459 427.456 365.395 426.98 367.333 426.51C368.208 426.298 369.083 426.087 369.956 425.871C370.787 425.666 371.619 425.46 372.451 425.259C372.759 425.186 373.069 425.112 373.376 425.037C373.67 424.964 373.961 424.89 374.255 424.817C374.529 424.753 374.8 424.689 375.069 424.625C375.89 424.426 376.324 424.357 377.138 424.574C377.352 424.66 377.561 424.743 377.769 424.827C378.174 424.972 378.58 425.115 378.983 425.262C379.999 425.631 381.015 425.997 382.037 426.35C383.204 426.745 384.369 427.143 385.528 427.561C386.749 428.003 387.974 428.442 389.205 428.857C390.133 429.172 391.06 429.495 391.984 429.829C392.968 430.186 393.951 430.541 394.943 430.882C396.702 431.477 398.449 432.095 400.194 432.727C402.001 433.38 403.805 434.037 405.628 434.655C406.557 434.97 407.484 435.293 408.407 435.626C409.628 436.068 410.853 436.506 412.084 436.922C413.013 437.237 413.939 437.56 414.863 437.893C416.084 438.335 417.309 438.774 418.539 439.189C419.468 439.504 420.395 439.827 421.319 440.161C422.54 440.602 423.765 441.041 424.995 441.456C425.924 441.772 426.851 442.095 427.775 442.428C428.759 442.785 429.742 443.141 430.734 443.481C430.977 443.564 431.216 443.645 431.454 443.725C431.944 443.893 432.437 444.06 432.927 444.228C437.41 445.693 441.451 447.873 444.585 451.374C444.764 451.584 444.935 451.788 445.11 451.993C446.348 453.439 447.12 454.852 447.777 456.62C448.799 459.498 449.435 462.478 448.005 465.42C447.91 465.589 447.817 465.752 447.727 465.915C446.211 468.728 442.98 470.79 439.998 471.87C439.681 471.983 439.368 472.102 439.053 472.221C436.096 473.349 433.091 474.31 430.069 475.244C425.428 476.679 420.808 478.17 416.196 479.692C416.015 479.752 415.84 479.81 415.666 479.867C411.193 481.345 406.725 482.829 402.256 484.316C401.828 484.46 401.396 484.603 400.968 484.747C399.085 485.373 397.206 486 395.324 486.628C394.542 486.889 393.76 487.15 392.977 487.41C392.607 487.533 392.237 487.656 391.868 487.781C389.849 488.456 387.829 489.122 385.799 489.757C383.35 490.524 380.913 491.316 378.482 492.14C372.644 494.12 366.792 496.058 360.933 497.981C359.593 498.421 358.254 498.862 356.913 499.304C355.839 499.657 354.766 500.011 353.692 500.364C353.178 500.534 352.664 500.701 352.15 500.871C349.468 501.755 346.784 502.633 344.085 503.463C342.388 503.982 340.703 504.528 339.021 505.094C334.397 506.662 329.758 508.189 325.117 509.7C320.687 511.139 316.259 512.584 311.852 514.086C306.42 515.935 300.964 517.708 295.505 519.473C293.655 520.072 291.805 520.67 289.957 521.268C289.723 521.344 289.495 521.417 289.268 521.491C284.861 522.917 280.461 524.352 276.063 525.801C275.894 525.856 275.73 525.91 275.566 525.964C271.359 527.349 267.157 528.746 262.957 530.151C262.74 530.224 262.524 530.296 262.31 530.368C260.578 530.947 258.844 531.527 257.112 532.108C251.921 533.846 246.729 535.581 241.512 537.248C236.309 538.908 231.123 540.614 225.944 542.346C219.087 544.638 212.222 546.907 205.349 549.154C196.965 551.894 188.584 554.643 180.208 557.407C180.059 557.456 179.912 557.505 179.767 557.553C179.621 557.602 179.474 557.651 179.327 557.699C178.464 557.984 177.601 558.269 176.738 558.554C171.563 560.259 166.388 561.957 161.247 563.762C160.85 563.904 160.451 564.044 160.054 564.183C159.505 564.374 158.955 564.566 158.408 564.761C158.239 564.822 158.076 564.88 157.914 564.938C157.621 565.04 157.326 565.145 157.035 565.251C153.973 566.568 151.835 569.457 150.497 572.354C149.081 575.62 149.139 578.998 150.403 582.245C150.493 582.464 150.581 582.677 150.669 582.891C151.792 585.808 154.385 587.996 157.13 589.457C160.536 590.952 164.145 591.118 167.731 589.957C167.954 589.882 168.168 589.81 168.384 589.738C168.867 589.581 169.352 589.422 169.835 589.266C171.108 588.846 172.385 588.434 173.662 588.026C174.184 587.86 174.706 587.692 175.227 587.524C175.495 587.438 175.755 587.355 176.014 587.271C176.542 587.101 177.068 586.934 177.595 586.764C180.796 585.736 183.99 584.706 187.224 583.785C185.941 585.306 184.884 586.821 183.998 588.593C180.702 595.391 179.97 602.452 182.45 609.513C182.502 609.659 182.554 609.803 182.604 609.945C183.523 612.566 184.569 614.965 186.332 617.142C186.473 617.311 186.611 617.474 186.747 617.638C187.929 619.059 189.135 620.407 190.573 621.582C190.803 621.761 191.031 621.938 191.257 622.113C196.403 626.137 202.72 627.976 209.306 627.918C209.486 627.915 209.662 627.912 209.839 627.908C212.4 627.879 214.847 627.234 217.262 626.391C217.529 626.295 217.789 626.2 218.049 626.105C219.304 625.653 220.554 625.2 221.77 624.652C228.418 621.365 232.904 615.283 235.491 608.634C238.003 601.517 237.06 594.172 233.883 587.526C229.969 580.974 224.374 576.366 216.898 574.167C216.748 574.123 216.602 574.081 216.455 574.04C219.052 573.102 221.655 572.189 224.275 571.32C224.854 571.13 225.432 570.937 226.012 570.744C227.72 570.175 229.426 569.603 231.147 569.078C233.552 568.346 237.246 567.145 242.227 565.474C244.442 564.732 246.656 563.992 248.871 563.252C249.1 563.175 249.326 563.099 249.551 563.025C253.597 561.673 257.644 560.329 261.697 558.999C261.851 558.949 262 558.9 262.15 558.851C266.962 557.271 271.78 555.705 276.599 554.139C278.94 553.379 281.282 552.619 283.622 551.857C284.261 551.649 284.9 551.442 285.539 551.234C294.644 548.275 303.744 545.298 312.821 542.251C313.556 542.005 314.29 541.759 315.024 541.51C315.203 541.451 315.377 541.391 315.55 541.334C317.827 540.57 320.109 539.817 322.399 539.093C325.32 538.172 328.229 537.214 331.138 536.252C332.192 535.903 333.248 535.553 334.303 535.205C335.902 534.675 337.502 534.148 339.101 533.618C339.321 533.546 339.539 533.473 339.755 533.401L342.558 532.474C346.108 531.298 349.658 530.125 353.208 528.95C354.799 528.423 356.39 527.897 357.983 527.369C359.093 527 360.203 526.634 361.314 526.267C361.84 526.093 362.366 525.919 362.892 525.745C365.649 524.833 368.403 523.925 371.176 523.066C373.043 522.491 374.899 521.881 376.748 521.256C381.532 519.622 386.325 518.028 391.133 516.468C398.024 514.233 404.906 511.964 411.784 509.691C419.288 507.209 426.796 504.729 434.31 502.274C434.476 502.219 434.64 502.166 434.803 502.114C436.833 501.451 438.86 500.79 440.889 500.127C440.772 500.247 440.658 500.363 440.544 500.479C435.709 505.978 433.158 512.892 433.36 520.083C433.671 527.148 436.89 533.855 442.232 538.558C442.413 538.708 442.586 538.852 442.761 538.998C444.609 540.558 446.543 541.883 448.748 542.925C455.193 545.847 462.626 546.673 469.466 544.221C469.985 544.029 470.504 543.839 471.027 543.657C473.169 542.916 475.074 542.076 476.923 540.764C477.143 540.602 477.358 540.445 477.572 540.288C478.038 539.946 478.5 539.603 478.951 539.241C479.085 539.131 479.216 539.022 479.345 538.913C482.456 536.343 484.897 533.175 486.617 529.576C489.747 522.754 490.367 515.49 487.682 508.522C487.579 508.264 487.478 508.014 487.375 507.765C486.983 506.753 486.571 505.769 486.081 504.799C482.441 498.475 476.411 493.768 469.212 491.844C468.955 491.783 468.703 491.722 468.453 491.663C466.434 491.167 464.511 490.928 462.433 490.913C461.903 490.91 461.374 490.905 460.844 490.89C460.434 490.876 460.025 490.865 459.614 490.854C459.481 490.849 459.351 490.847 459.22 490.843C463.657 487.42 467.399 483.42 470.173 478.602C470.316 478.355 470.453 478.114 470.591 477.873C471.261 476.758 471.862 475.68 472.321 474.467C472.442 474.147 472.568 473.828 472.698 473.512C472.77 473.341 472.842 473.172 472.912 473.004C473.069 472.619 473.225 472.234 473.383 471.851C474.725 468.695 475.494 465.445 476.064 462.09C476.097 461.891 476.128 461.697 476.16 461.503C476.953 456.793 475.87 452.229 474.296 447.825C474.241 447.671 474.187 447.52 474.134 447.37C473.742 446.285 473.336 445.207 472.907 444.138C468.211 433.042 457.661 424.827 446.573 420.325C446.004 420.096 445.436 419.869 444.869 419.632C444.181 419.313 443.513 419.008 442.793 418.76C440.987 418.195 439.208 417.559 437.43 416.916C436.358 416.529 435.283 416.149 434.202 415.783C433.273 415.467 432.346 415.144 431.423 414.811C430.201 414.369 428.977 413.931 427.746 413.515C426.817 413.2 425.89 412.877 424.967 412.544C423.746 412.102 422.521 411.664 421.29 411.248C420.362 410.933 419.435 410.61 418.511 410.277C417.29 409.835 416.065 409.397 414.835 408.981C413.753 408.615 412.679 408.235 411.607 407.847C410.78 407.548 409.951 407.25 409.118 406.966C407.004 406.256 404.92 405.48 402.834 404.693C402.805 403.542 402.808 402.403 402.889 401.252C402.902 401.085 402.914 400.925 402.926 400.763C402.953 400.397 402.978 400.032 403.005 399.665C403.064 398.856 403.124 398.046 403.181 397.237C403.213 396.805 403.244 396.372 403.273 395.94C403.43 393.761 403.579 391.583 403.724 389.403C403.981 385.573 404.242 381.743 404.51 377.912C404.783 374.055 405.051 370.198 405.308 366.34C405.514 363.247 405.724 360.155 405.943 357.063C406.171 353.807 406.395 350.55 406.615 347.295C406.858 343.677 407.104 340.061 407.359 336.443C407.62 332.746 407.876 329.046 408.126 325.348C408.142 325.116 408.156 324.891 408.172 324.666C408.245 323.578 408.318 322.489 408.391 321.402C408.605 318.211 408.819 315.019 409.045 311.828C409.061 311.603 409.076 311.388 409.092 311.169C409.109 310.939 409.123 310.717 409.14 310.494L409.239 309.096C409.255 308.856 409.273 308.618 409.291 308.383C409.541 304.82 409.788 301.258 410.027 297.696C410.042 297.467 410.059 297.244 410.073 297.02C410.146 295.931 410.218 294.842 410.292 293.756C410.506 290.564 410.72 287.373 410.946 284.182C410.962 283.956 410.977 283.741 410.993 283.523C411.01 283.293 411.024 283.07 411.041 282.847L411.14 281.45C411.156 281.209 411.173 280.972 411.192 280.737C411.442 277.173 411.689 273.611 411.93 270.047C411.944 269.819 411.96 269.594 411.976 269.372C412.098 267.564 412.219 265.754 412.339 263.947C412.501 261.533 412.663 259.119 412.842 256.706C413.153 252.483 413.461 248.262 413.73 244.036C413.936 240.776 414.145 237.518 414.373 234.262C414.387 234.063 414.401 233.871 414.415 233.678C414.482 232.708 414.55 231.738 414.619 230.769C414.754 228.847 414.89 226.922 415.023 225C415.037 224.805 415.05 224.611 415.063 224.419C415.294 221.11 415.52 217.802 415.741 214.492C415.969 211.094 416.202 207.699 416.442 204.302C416.715 200.445 416.983 196.588 417.239 192.73C417.446 189.637 417.655 186.545 417.874 183.453C418.103 180.197 418.326 176.94 418.545 173.683C418.79 170.044 419.037 166.404 419.294 162.765C419.311 162.529 419.327 162.299 419.344 162.069C419.424 160.922 419.505 159.776 419.587 158.629C419.94 153.631 420.297 148.631 420.618 143.63C420.769 141.27 420.927 138.91 421.092 136.552C421.134 135.952 421.176 135.349 421.218 134.749C421.341 132.991 421.462 131.234 421.593 129.476C421.646 128.741 421.699 128.007 421.752 127.273C421.776 126.93 421.802 126.588 421.826 126.245C421.861 125.764 421.897 125.285 421.933 124.804C421.943 124.657 421.953 124.511 421.964 124.365C422.017 123.643 422.054 122.98 421.971 122.262C421.944 122.107 421.917 121.959 421.89 121.809C422.82 121.514 423.652 121.117 424.51 120.659C424.869 120.465 425.23 120.272 425.591 120.082C425.789 119.977 425.982 119.874 426.174 119.771C429.307 118.095 432.446 116.427 435.622 114.831C439.373 112.947 443.087 110.993 446.795 109.025C449.605 107.533 452.424 106.061 455.264 104.625C457.943 103.271 460.612 101.903 463.268 100.505C463.445 100.412 463.617 100.321 463.789 100.23C465.005 99.5902 466.221 98.9485 467.437 98.3067C468.84 97.5658 470.242 96.8257 471.646 96.0848C471.82 95.9929 471.989 95.9053 472.157 95.8156C474.319 94.6759 476.486 93.5464 478.677 92.4605C482.28 90.6902 486.269 88.7752 488.171 85.0592C488.241 84.9041 488.309 84.7519 488.378 84.6016C488.479 84.3917 488.576 84.1881 488.675 83.9837C490.326 80.3686 490.552 76.9739 489.194 73.308C487.735 69.7058 485.003 67.3255 481.384 65.8218L481.351 65.8132ZM154 425.756C154.605 427.821 155.285 429.859 155.977 431.895C157.942 437.699 159.781 443.54 161.605 449.389C158.849 450.244 156.081 450.958 153.271 451.611C152.855 451.709 152.435 451.806 152.019 451.904C150.933 452.159 149.848 452.414 148.762 452.667C147.648 452.927 146.534 453.19 145.42 453.45C143.245 453.961 141.071 454.469 138.895 454.977C137.059 451.079 135.224 447.183 133.393 443.284C132.62 441.64 131.846 439.997 131.071 438.353C130.702 437.571 130.334 436.788 129.965 436.005C129.803 435.663 129.642 435.318 129.478 434.977C128.491 432.897 127.635 430.815 126.905 428.63C131.01 427.133 135.138 425.738 139.3 424.405C140.018 424.175 140.735 423.944 141.455 423.712C145.022 422.565 148.595 421.429 152.169 420.3C152.312 420.69 152.455 421.083 152.599 421.472C152.705 421.764 152.814 422.056 152.92 422.347C153.325 423.469 153.667 424.606 154.001 425.751L154 425.756ZM140.053 382.69C140.124 382.902 140.196 383.116 140.268 383.331C141.101 385.817 141.904 388.31 142.671 390.817C143.267 392.756 143.91 394.677 144.558 396.598C146.2 401.472 147.719 406.381 149.194 411.31C143.89 413.267 138.546 415.085 133.169 416.83C132.692 416.984 132.216 417.14 131.739 417.294C130.976 417.542 130.212 417.789 129.447 418.037C129.031 418.171 128.616 418.306 128.2 418.441C126.371 419.03 124.53 419.568 122.678 420.087C121.566 417.992 120.536 415.871 119.536 413.723C119.378 413.386 119.22 413.047 119.064 412.71C118.641 411.8 118.218 410.893 117.795 409.984C117.351 409.029 116.904 408.075 116.46 407.121C115.715 405.52 114.97 403.92 114.225 402.319C113.365 400.471 112.503 398.623 111.642 396.775C110.9 395.184 110.158 393.593 109.415 392C108.973 391.052 108.531 390.103 108.089 389.155C107.675 388.265 107.258 387.374 106.844 386.484C106.693 386.159 106.541 385.831 106.39 385.506C106.181 385.059 105.975 384.614 105.766 384.167C105.649 383.919 105.534 383.67 105.415 383.413C105.108 382.713 104.845 382.009 104.6 381.288C109.921 379.359 115.268 377.525 120.645 375.761C121.382 375.519 122.117 375.277 122.854 375.035C126.204 373.931 129.554 372.831 132.915 371.758C133.149 371.683 133.383 371.606 133.624 371.53C133.836 371.463 134.046 371.395 134.266 371.325C134.448 371.268 134.63 371.21 134.818 371.149C135.132 371.066 135.521 371.018 135.987 371.004C137.403 374.88 138.747 378.779 140.055 382.694L140.053 382.69ZM125.038 336.175C125.349 337.131 125.66 338.09 125.971 339.046C126.407 340.387 126.842 341.731 127.279 343.073C127.778 344.618 128.282 346.161 128.783 347.705C129.273 349.21 129.761 350.714 130.251 352.219C130.455 352.852 130.662 353.485 130.868 354.12C131.109 354.863 131.35 355.604 131.59 356.349C131.718 356.746 131.849 357.145 131.978 357.542C132.447 358.993 132.865 360.449 133.221 361.933C125.762 364.498 118.276 366.966 110.772 369.395C110.065 369.624 109.359 369.854 108.655 370.082C107.533 370.446 106.411 370.81 105.288 371.171C104.869 371.307 104.449 371.443 104.029 371.579C103.452 371.767 102.875 371.952 102.297 372.138C102.126 372.195 101.953 372.251 101.779 372.307C101.001 372.556 100.508 372.633 100.299 372.538C100 371.939 99.7125 371.337 99.4319 370.729C99.3422 370.537 99.2525 370.345 99.1607 370.147C98.8629 369.504 98.5643 368.858 98.2665 368.215C98.0556 367.762 97.8467 367.309 97.6351 366.854C97.071 365.636 96.5077 364.42 95.9437 363.202C95.0179 361.201 94.0901 359.201 93.1623 357.201C92.8164 356.456 92.4698 355.709 92.124 354.964C90.8287 352.172 89.5294 349.381 88.2174 346.594L87.7907 345.688C87.1659 344.36 86.539 343.031 85.9129 341.705C85.6969 341.245 85.4817 340.787 85.2637 340.328C85.1705 340.133 85.0773 339.937 84.9812 339.734C84.3126 338.309 83.8198 336.915 83.2845 335.414L120.225 322.232C121.88 326.871 123.521 331.494 125.035 336.178L125.038 336.175ZM207.572 407.66C207.833 408.424 208.091 409.187 208.352 409.951C209.399 413.017 210.434 416.083 211.378 419.183C212.113 421.59 212.92 423.972 213.721 426.355C214.467 428.576 215.202 430.8 215.89 433.039C215.949 433.23 216.009 433.419 216.069 433.615C216.123 433.792 216.177 433.969 216.233 434.151C216.281 434.305 216.326 434.46 216.377 434.62C216.488 435.065 216.538 435.488 216.567 435.946C214.737 436.652 212.869 437.108 210.967 437.559C210.616 437.643 210.262 437.728 209.911 437.812C209.157 437.992 208.405 438.174 207.65 438.354C205.845 438.786 204.039 439.224 202.235 439.662C201.179 439.918 200.122 440.174 199.065 440.43C198.852 440.481 198.641 440.533 198.424 440.586C197.164 440.891 195.903 441.195 194.642 441.499C193.613 441.747 192.582 441.996 191.553 442.245C191.349 442.294 191.148 442.343 190.938 442.393C188.553 442.97 186.17 443.551 183.788 444.142C183.558 444.2 183.326 444.258 183.092 444.315C181.992 444.589 180.892 444.86 179.792 445.136C176.922 445.849 174.041 446.505 171.15 447.125C168.829 440.821 166.733 434.458 164.723 428.047C163.969 425.643 163.184 423.246 162.391 420.853C162.33 420.667 162.269 420.483 162.205 420.291C161.875 419.294 161.543 418.299 161.211 417.302C163.93 416.297 166.682 415.411 169.442 414.527C170.269 414.262 171.099 413.995 171.926 413.73C174.134 413.02 176.342 412.312 178.551 411.604C180.424 411.004 182.296 410.402 184.166 409.801C184.308 409.755 184.451 409.709 184.597 409.663C189.285 408.157 193.956 406.609 198.614 405.02C201.025 404.199 203.438 403.42 205.889 402.73C206.449 404.373 207.009 406.015 207.567 407.658L207.572 407.66ZM191.411 357.756C191.643 358.439 191.872 359.12 192.104 359.803C193.274 363.253 194.082 365.732 194.528 367.241C195.49 370.498 196.581 373.713 197.644 376.937C197.935 377.816 198.223 378.696 198.514 379.578C198.859 380.624 199.202 381.672 199.548 382.719C200.77 386.433 201.985 390.15 203.201 393.867C194.929 396.677 186.633 399.406 178.325 402.103C177.016 402.529 175.709 402.955 174.4 403.381C172.956 403.85 171.51 404.321 170.066 404.79C169.463 404.987 168.86 405.182 168.259 405.378C165.023 406.432 161.784 407.469 158.523 408.436C158.215 407.588 157.908 406.74 157.603 405.892C157.5 405.604 157.396 405.319 157.291 405.031C156.62 403.191 156.017 401.343 155.466 399.462C154.799 397.209 154.037 394.989 153.285 392.764C152.357 390.017 151.448 387.265 150.599 384.492C149.992 382.512 149.34 380.546 148.681 378.583C147.495 375.041 146.34 371.494 145.242 367.923C148.264 366.831 151.298 365.78 154.346 364.759C155.046 364.525 155.744 364.288 156.446 364.051C158.939 363.213 160.808 362.618 162.053 362.267C164.129 361.682 166.162 360.97 168.205 360.273C172.553 358.79 176.916 357.354 181.297 355.969C181.535 355.893 181.776 355.817 182.02 355.741C184.643 354.91 187.271 354.098 189.919 353.349C190.417 354.817 190.915 356.285 191.411 357.754L191.411 357.756ZM176.304 311.082C176.362 311.252 176.42 311.424 176.479 311.598C176.678 312.189 176.871 312.781 177.064 313.375C177.134 313.589 177.205 313.806 177.277 314.026C177.771 315.534 178.256 317.045 178.738 318.555C179.216 320.053 179.698 321.549 180.18 323.043C180.23 323.202 180.282 323.362 180.334 323.523C181.736 327.873 183.167 332.214 184.6 336.552C184.665 336.746 184.729 336.941 184.793 337.139C185.58 339.521 186.365 341.901 187.152 344.283C182.684 345.907 179.387 347.037 177.261 347.673C175.888 348.085 174.53 348.526 173.173 348.988C172.967 349.057 172.76 349.129 172.547 349.2C172.117 349.346 171.689 349.492 171.259 349.639C167.095 351.056 162.918 352.419 158.723 353.745C153.309 355.452 147.924 357.239 142.547 359.059C140.066 352.41 137.931 345.641 135.754 338.887C135.337 337.594 134.92 336.301 134.501 335.008C133.992 333.435 133.485 331.863 132.977 330.288C132.833 329.846 132.691 329.401 132.547 328.959C131.495 325.7 130.458 322.439 129.484 319.155C134.079 317.44 138.68 315.743 143.289 314.061C145.43 313.282 147.568 312.496 149.7 311.699C151.562 311.002 153.425 310.317 155.295 309.642C156.283 309.285 157.269 308.924 158.251 308.551C162.978 306.756 166.257 306.218 168.086 306.936C168.583 307.168 169.055 307.415 169.526 307.688C170.135 308.022 170.776 308.196 171.449 308.374C171.655 308.433 171.863 308.492 172.074 308.55C172.27 308.604 172.465 308.658 172.666 308.714C172.877 308.773 173.09 308.832 173.304 308.893C174.097 309.115 174.887 309.332 175.69 309.52C175.939 310.044 176.127 310.532 176.304 311.082ZM264.577 399.626C264.823 400.372 265.067 401.117 265.312 401.864C265.553 402.596 265.794 403.331 266.034 404.063C266.147 404.407 266.259 404.748 266.373 405.092C267.013 407.039 267.623 408.992 268.203 410.959C268.598 412.304 269.026 413.636 269.474 414.964C269.548 415.185 269.623 415.408 269.699 415.634C269.93 416.321 270.162 417.009 270.393 417.697C270.553 418.17 270.71 418.644 270.87 419.12C271.254 420.267 271.639 421.412 272.024 422.559C269.374 423.36 266.699 424.045 264.011 424.71C263.31 424.882 262.61 425.056 261.909 425.234C259.798 425.758 257.687 426.265 255.56 426.715C254.039 427.054 252.531 427.451 251.021 427.841C248.196 428.568 245.37 429.279 242.521 429.905C240.112 430.436 237.722 431.042 235.328 431.64C233.522 432.09 231.713 432.533 229.907 432.976L228.793 433.25C227.925 433.464 227.055 433.676 226.188 433.889C224.999 430.668 223.948 427.4 222.889 424.135C222.685 423.506 222.481 422.88 222.277 422.251C221.796 420.77 221.316 419.287 220.837 417.805C220.342 416.281 219.848 414.758 219.354 413.236C218.927 411.921 218.5 410.604 218.075 409.288C217.822 408.505 217.568 407.723 217.313 406.941C217.075 406.208 216.836 405.472 216.6 404.738C216.473 404.343 216.344 403.948 216.214 403.553C215.821 402.331 215.467 401.127 215.223 399.866C218.825 398.553 222.44 397.29 226.083 396.091C226.257 396.033 226.432 395.976 226.611 395.916C228.347 395.342 230.084 394.784 231.843 394.28C234.278 393.58 236.669 392.745 239.068 391.93C241.708 391.034 244.344 390.139 247.018 389.352C249.182 388.712 251.319 387.982 253.458 387.264C254.013 387.077 254.566 386.894 255.121 386.709C255.285 386.653 255.447 386.6 255.615 386.542C256.961 386.094 258.324 385.727 259.695 385.37C261.418 390.094 263.016 394.853 264.58 399.632L264.577 399.626ZM247.374 346.61C247.963 348.564 248.613 350.497 249.261 352.432C250.701 356.724 252.079 361.034 253.43 365.354C253.573 365.813 253.717 366.271 253.861 366.732C253.93 366.954 254 367.176 254.07 367.404C254.708 369.442 255.36 371.474 256.016 373.505C256.064 373.652 256.112 373.799 256.162 373.953C256.415 374.734 256.67 375.515 256.925 376.295C252.571 377.915 248.15 379.312 243.728 380.726C241.523 381.43 239.319 382.137 237.115 382.845C236.9 382.915 236.685 382.983 236.463 383.055C233.181 384.11 229.905 385.183 226.639 386.289C221.868 387.905 217.06 389.394 212.245 390.868C209.823 383.77 207.492 376.643 205.175 369.512C204.945 368.801 204.713 368.091 204.48 367.379C202.631 361.703 200.833 356.017 199.174 350.28C209.421 346.742 219.727 343.394 230.042 340.058C231.974 339.433 233.906 338.807 235.836 338.176C236.166 338.067 236.495 337.961 236.826 337.852C237.416 337.66 238.006 337.465 238.595 337.271C240.266 336.725 241.946 336.231 243.645 335.782C245.517 340.945 246.759 344.555 247.372 346.611L247.374 346.61ZM231.086 296.349C231.862 298.901 232.715 301.428 233.559 303.959C234.16 305.762 234.742 307.571 235.295 309.391C236.287 312.651 237.353 315.888 238.409 319.127C238.69 319.984 238.968 320.843 239.248 321.7C239.792 323.371 240.336 325.04 240.88 326.71C235.101 328.801 231.161 330.163 229.059 330.796C227.112 331.386 225.186 332.034 223.255 332.682C219.242 334.03 215.217 335.338 211.181 336.62C206.198 338.204 201.228 339.825 196.27 341.484C195.109 338.322 194.05 335.132 193.044 331.917C191.643 327.443 190.208 322.985 188.71 318.544C188.002 316.442 187.347 314.336 186.76 312.196C187.573 312.159 188.334 312.15 189.135 312.278C189.314 312.306 189.496 312.333 189.68 312.361C189.872 312.389 190.066 312.419 190.261 312.448C197.886 313.493 206.707 313.344 213.269 308.681C216.887 305.858 219.062 302.189 219.773 297.732C220.146 294.194 219.529 290.937 218.879 287.481L227.019 284.576C229.095 290.334 230.451 294.257 231.085 296.347L231.086 296.349ZM315.879 374.508C316.229 375.561 316.576 376.612 316.925 377.664C318.722 383.078 319.932 386.82 320.556 388.893C321.143 390.834 321.796 392.751 322.449 394.671C324.092 399.522 325.614 404.405 327.061 409.318C324.279 410.099 321.493 410.839 318.674 411.47C315.587 412.169 312.522 412.955 309.452 413.728C307.379 414.248 305.307 414.752 303.216 415.195C301.692 415.533 300.183 415.932 298.67 416.321C295.414 417.158 292.153 417.958 288.868 418.676C287.707 418.935 286.55 419.222 285.395 419.506C284.543 419.709 283.689 419.886 282.832 420.064C282.556 420.121 282.28 420.179 281.995 420.237C281.785 420.28 281.574 420.323 281.358 420.369C279.082 413.563 276.836 406.749 274.605 399.93C274.175 398.612 273.742 397.292 273.309 395.975C272.97 394.937 272.629 393.898 272.29 392.86C272.13 392.373 271.971 391.888 271.811 391.402C270.819 388.376 269.861 385.342 268.944 382.291C270.503 381.76 272.059 381.23 273.619 380.701C274.342 380.454 275.067 380.209 275.79 379.962C279.436 378.719 282.124 377.835 283.854 377.309C286.055 376.638 288.238 375.918 290.419 375.192C290.6 375.132 290.782 375.072 290.966 375.011C291.908 374.697 292.848 374.385 293.79 374.069C300.378 371.874 306.972 369.724 313.621 367.719C314.373 369.984 315.124 372.246 315.873 374.511L315.879 374.508ZM298.956 322.236C299.112 322.699 299.267 323.163 299.423 323.624C300.282 326.183 301.121 328.747 301.905 331.331C302.64 333.741 303.449 336.126 304.251 338.514C304.957 340.611 305.652 342.71 306.283 344.833C307.072 347.485 307.966 350.103 308.852 352.726C309.068 353.364 309.282 354.003 309.496 354.642C309.562 354.834 309.626 355.026 309.693 355.221C310.08 356.377 310.391 357.527 310.65 358.719C309.569 359.112 308.486 359.5 307.406 359.888C307.041 360.019 306.674 360.152 306.31 360.284C304.424 360.966 302.54 361.629 300.616 362.197C298.594 362.795 296.596 363.451 294.594 364.113C294.426 364.168 294.257 364.224 294.083 364.281C293.191 364.577 292.3 364.872 291.409 365.169C289.499 365.803 287.591 366.436 285.68 367.067C285.486 367.132 285.293 367.196 285.092 367.261C280.916 368.644 276.734 370.008 272.55 371.371C272.389 371.424 272.225 371.477 272.059 371.53C270.123 372.159 268.188 372.788 266.251 373.418C264.63 368.982 263.134 364.506 261.66 360.02C261.471 359.445 261.284 358.872 261.093 358.298C259.398 353.153 257.713 348.003 256.048 342.85C255.909 342.419 255.769 341.987 255.629 341.557C254.701 338.684 253.78 335.813 252.97 332.905C258.52 330.865 264.104 328.943 269.73 327.125C269.88 327.076 270.029 327.027 270.184 326.979C274.701 325.521 279.225 324.082 283.75 322.653C288.373 321.19 292.978 319.675 297.578 318.132C298.038 319.499 298.497 320.866 298.955 322.234L298.956 322.236ZM294.679 309.343C293.016 309.955 291.359 310.528 289.66 311.029C287.256 311.75 284.874 312.536 282.492 313.326C281.699 313.589 280.906 313.851 280.114 314.113C277.862 314.857 275.611 315.604 273.358 316.35C271.702 316.9 270.046 317.448 268.39 317.995C268.118 318.085 267.847 318.175 267.569 318.268C261.798 320.174 256.007 322.017 250.211 323.84C247.962 317.677 245.873 311.472 243.88 305.222C243.594 304.327 243.307 303.431 243.018 302.537C242.737 301.664 242.458 300.79 242.178 299.919C242.046 299.509 241.915 299.096 241.783 298.686C240.919 295.992 240.34 294.005 240.047 292.728C240.885 293.083 241.509 293.6 242.197 294.176C246.426 297.633 251.714 300.678 256.935 302.471C257.18 302.564 257.427 302.657 257.681 302.754C268.342 306.779 280.485 308.089 291.925 306.898C292.099 306.879 292.274 306.862 292.456 306.843C292.884 306.798 293.313 306.752 293.739 306.708L294.679 309.343ZM370.699 359.869C370.767 360.077 370.835 360.285 370.904 360.495C371.043 360.926 371.184 361.353 371.323 361.783C371.781 363.179 372.257 364.565 372.748 365.946C374.616 371.24 376.175 375.742 375.139 381.384C374.929 382.636 374.873 383.888 374.804 385.151C374.772 385.642 374.738 386.135 374.704 386.627C374.687 386.882 374.67 387.137 374.653 387.399C374.554 388.87 374.455 390.34 374.354 391.809C374.331 392.147 374.309 392.481 374.286 392.819C374.157 394.739 374.01 396.656 373.814 398.572C373.065 398.696 372.333 398.767 371.575 398.812C369.984 398.943 368.474 399.326 366.928 399.715C366.593 399.798 366.258 399.881 365.923 399.964C365.143 400.158 364.363 400.352 363.583 400.546C361.124 401.16 358.663 401.767 356.202 402.373C355.251 402.607 354.3 402.844 353.348 403.078C350.287 403.837 347.224 404.583 344.146 405.267C342.699 405.589 341.263 405.937 339.833 406.326C339.448 406.429 339.067 406.534 338.681 406.634C338.523 406.677 338.362 406.721 338.199 406.766C337.669 406.89 337.141 406.974 336.604 407.049C335.288 403.48 334.113 399.866 332.927 396.252C332.75 395.708 332.57 395.164 332.39 394.621C330.349 388.415 328.333 382.198 326.33 375.978C326.116 375.312 325.902 374.646 325.686 373.98C325.346 372.929 325.008 371.877 324.67 370.825C324.546 370.437 324.421 370.048 324.295 369.661C324.123 369.128 323.952 368.595 323.781 368.062C323.731 367.908 323.681 367.755 323.628 367.595C323.338 366.682 323.121 365.783 322.95 364.843C329.28 362.52 335.654 360.376 342.078 358.328C342.353 358.242 342.627 358.153 342.908 358.064C343.18 357.978 343.454 357.89 343.73 357.803C346.115 357.041 348.49 356.253 350.862 355.457C356.336 353.62 361.843 351.883 367.347 350.145C368.51 353.371 369.63 356.61 370.692 359.869L370.699 359.869ZM353.978 308.356C354.747 310.88 355.566 313.387 356.392 315.892C356.653 316.683 356.914 317.472 357.173 318.264C357.679 319.802 358.186 321.34 358.692 322.878C359.381 324.968 360.068 327.057 360.755 329.147C361.007 329.914 361.261 330.683 361.513 331.45C362.59 334.718 363.635 337.995 364.656 341.28C362.254 342.151 359.848 342.985 357.414 343.759C356.886 343.927 356.356 344.096 355.828 344.266C355.055 344.512 354.282 344.76 353.511 345.006C351.416 345.674 349.321 346.344 347.226 347.016C347.006 347.085 346.787 347.156 346.561 347.228C340.917 349.036 335.282 350.869 329.648 352.703C329.403 352.784 329.161 352.861 328.91 352.944C325.933 353.912 322.955 354.883 319.98 355.854C318.387 351.522 316.956 347.142 315.541 342.749C315.229 341.782 314.916 340.815 314.604 339.847C314.015 338.026 313.429 336.203 312.841 334.379C312.172 332.3 311.501 330.22 310.83 328.142C309.453 323.875 308.076 319.608 306.701 315.338C307.697 314.98 308.694 314.622 309.691 314.264C310.029 314.143 310.367 314.023 310.706 313.902C312.928 313.102 315.153 312.354 317.42 311.684C318.584 311.34 319.736 310.956 320.888 310.57C321.092 310.502 321.299 310.433 321.508 310.363C322.132 310.154 322.753 309.943 323.377 309.732C325.785 308.919 328.194 308.112 330.624 307.368C332.69 306.736 334.747 306.07 336.799 305.4C336.957 305.348 337.115 305.296 337.275 305.244C338.742 304.764 340.21 304.283 341.676 303.801C342.489 303.534 343.302 303.269 344.115 303.002C344.418 302.903 344.722 302.803 345.025 302.702C347.13 302.01 349.247 301.369 351.38 300.766C351.677 301.578 351.972 302.392 352.265 303.206C352.344 303.427 352.428 303.649 352.512 303.877C353.045 305.36 353.525 306.85 353.98 308.356L353.978 308.356ZM343.961 277.628C344.008 277.765 344.054 277.902 344.102 278.042C345.636 282.585 347.142 287.135 348.614 291.695C343.966 293.401 339.282 294.951 334.562 296.441C332.558 297.074 330.557 297.711 328.554 298.348C328.349 298.414 328.144 298.478 327.933 298.546C322.694 300.217 317.474 301.945 312.257 303.685C311.557 303.919 310.856 304.151 310.156 304.385C309.681 304.543 309.209 304.702 308.733 304.861C307.146 305.39 305.562 305.876 303.934 306.267L303.5 305.05C303.739 304.968 303.975 304.886 304.222 304.8C305.127 304.486 306.032 304.168 306.935 303.85C307.321 303.712 307.709 303.578 308.098 303.444C311.683 302.201 315.11 300.727 318.405 298.845C318.594 298.736 318.784 298.63 318.978 298.519C328.912 292.824 338.237 283.575 341.732 272.594C341.78 272.449 341.829 272.302 341.879 272.155L342.088 272.081C342.714 273.928 343.338 275.776 343.963 277.626L343.961 277.628ZM224.185 594.218C225.821 598.308 225.806 602.665 224.069 606.796C222.161 610.66 219.048 613.778 214.918 615.333C214.156 615.603 213.388 615.845 212.616 616.082C212.433 616.143 212.248 616.204 212.061 616.266C208.295 617.37 203.948 616.325 200.581 614.663C196.097 612.106 193.982 608.317 192.62 603.562C191.702 599.776 192.813 595.597 194.798 592.252C198.216 587.313 203.652 584.098 209.784 584.41C209.933 584.417 210.078 584.422 210.231 584.429C212.314 584.531 214.075 585.009 215.951 585.866C216.12 585.932 216.292 585.998 216.466 586.064C220.093 587.512 222.704 590.768 224.185 594.218ZM466.265 502.714C470.548 504.088 474.204 506.817 476.216 510.819C478.105 515.025 478.492 519.439 476.807 523.85C475.299 527.535 472.498 530.599 468.863 532.412C464.457 534.247 460.157 535.087 455.591 533.453C455.41 533.38 455.226 533.307 455.039 533.232C454.831 533.15 454.626 533.07 454.413 532.986C452.837 532.322 451.553 531.454 450.253 530.369C450.124 530.266 449.995 530.161 449.863 530.055C449.495 529.736 449.167 529.403 448.839 529.045C448.7 528.898 448.557 528.75 448.414 528.598C445.924 525.617 444.453 521.086 444.852 517.212C445.463 512.384 447.757 508.402 451.624 505.338C455.741 502.351 461.4 501.417 466.265 502.714ZM381.167 293.421C381.148 293.667 381.129 293.915 381.11 294.165C381.09 294.433 381.068 294.701 381.047 294.977C381.001 295.573 380.958 296.172 380.913 296.77C380.901 296.928 380.889 297.087 380.877 297.25C380.738 299.134 380.615 301.018 380.492 302.904C380.266 306.339 380.032 309.776 379.789 313.211C379.772 313.445 379.757 313.682 379.738 313.924C379.672 314.855 379.607 315.785 379.541 316.716C379.412 318.531 379.288 320.344 379.161 322.158C379.13 322.611 379.098 323.063 379.067 323.517C378.972 324.879 378.879 326.24 378.787 327.603C378.712 328.686 378.638 329.771 378.563 330.853C378.534 331.275 378.505 331.699 378.476 332.121C378.437 332.708 378.395 333.297 378.355 333.883C378.342 334.059 378.332 334.234 378.318 334.414C378.264 335.186 378.192 335.947 378.09 336.715L373.707 338.279C371.039 330.373 368.446 322.442 365.882 314.503C365.467 313.223 365.053 311.942 364.637 310.66C364.229 309.404 363.823 308.146 363.417 306.89C363.178 306.148 362.937 305.407 362.696 304.665C362.43 303.848 362.167 303.032 361.904 302.214C361.825 301.975 361.748 301.738 361.668 301.489C361.265 300.232 360.913 298.982 360.635 297.689C364.709 296.19 368.835 294.85 372.961 293.503C373.897 293.197 374.832 292.891 375.767 292.584C377.589 291.987 379.41 291.392 381.233 290.796C381.245 291.676 381.236 292.539 381.167 293.421ZM385.395 230.499C385.39 230.666 385.388 230.831 385.383 231C385.351 232.295 385.271 233.581 385.158 234.874C384.971 237.132 384.806 239.392 384.651 241.655C384.639 241.821 384.628 241.988 384.616 242.157C384.548 243.141 384.482 244.122 384.414 245.106C384.367 245.804 384.319 246.502 384.271 247.198C384.202 248.198 384.134 249.199 384.068 250.201C384.002 251.159 383.937 252.115 383.871 253.073C383.718 255.307 383.567 257.542 383.419 259.777C382.954 266.834 382.474 273.889 381.949 280.944C379.289 281.921 376.596 282.795 373.9 283.666C373.432 283.817 372.964 283.97 372.496 284.121C371.274 284.516 370.051 284.913 368.83 285.308C367.579 285.713 366.327 286.119 365.076 286.524C362.63 287.317 360.18 288.109 357.733 288.9C356.258 284.896 354.949 280.838 353.626 276.783C353.564 276.597 353.505 276.41 353.441 276.218C352.866 274.455 352.291 272.691 351.72 270.927C350.993 268.692 350.265 266.461 349.532 264.229C349.012 262.646 348.497 261.063 347.983 259.48C347.678 258.539 347.373 257.599 347.062 256.661C345.813 252.877 344.662 249.249 344.382 245.24C344.32 244.572 344.188 243.933 344.042 243.279C345.958 242.588 347.874 241.9 349.79 241.214C349.942 241.16 350.096 241.105 350.255 241.048C357.845 238.331 365.462 235.683 373.077 233.035C373.228 232.981 373.382 232.927 373.539 232.874C377.506 231.495 381.472 230.116 385.439 228.738C385.425 229.325 385.412 229.915 385.396 230.504L385.395 230.499Z" fill="white" fill-opacity="0.25"/>
<path d="M210.745 592.14C210.547 592.108 210.351 592.077 210.157 592.048C206.508 591.467 203.571 593.39 201.384 596.09C200.26 597.808 199.63 600.163 200.043 602.17C200.798 604.847 201.905 606.998 204.384 608.488C206.605 609.588 209.232 609.948 211.657 609.195C214.235 608.163 216.314 606.354 217.425 603.85C218.321 601.133 217.961 598.627 216.771 596.084C215.252 594.003 213.342 592.653 210.742 592.138L210.745 592.14Z" fill="white" fill-opacity="0.25"/>
<path d="M45.049 150.45C45.2486 150.468 45.4508 150.488 45.6555 150.507C49.0817 150.937 52.4269 152.525 55.2734 154.357C57.9287 156.035 61.1955 156.52 64.3378 156.365C64.5157 156.358 64.6956 156.35 64.8776 156.342C69.3146 155.899 72.877 153.46 75.8724 150.368C77.6756 148.518 80.0828 147.332 82.6761 147.017C84.6501 147.03 85.9959 147.61 87.3555 148.974C88.835 150.608 89.3015 152.99 89.5838 155.113C89.6137 155.336 89.6437 155.558 89.673 155.785C89.9801 158.446 89.7929 161.093 89.6334 163.764C89.4048 167.944 89.4008 172.251 92.3631 175.561C93.7688 176.982 95.3686 178.221 96.9088 179.497C100.685 182.661 104.12 186.221 104.578 191.296C104.649 193.383 104.16 195.255 103.482 197.232C101.336 203.522 102.008 208.92 104.813 214.853C105.316 215.821 105.876 216.746 106.453 217.671C106.591 217.528 106.729 217.383 106.872 217.236C114.896 208.913 121.882 204.635 127.829 204.4C131.493 204.322 134.689 204.866 138.104 206.148C138.27 206.209 138.438 206.271 138.608 206.334C142.079 207.765 145.075 210.46 148.004 212.692C148.791 213.289 149.585 213.878 150.38 214.465C154.386 217.444 158.284 220.542 162.155 223.686C163.026 224.395 163.902 225.097 164.78 225.796C166.145 226.886 167.495 227.99 168.838 229.104C169.052 229.281 169.265 229.457 169.485 229.638C170.577 230.542 171.641 231.459 172.659 232.439C172.585 232.543 172.513 232.644 172.438 232.751C172.091 233.241 171.745 233.73 171.397 234.217C171.267 234.401 171.139 234.582 171.005 234.769C170.428 235.583 169.851 236.399 169.289 237.223C168.113 238.948 166.875 240.626 165.612 242.29C165.425 242.537 165.236 242.786 165.05 243.035C163.056 245.68 161.487 247.346 160.342 248.033C166.383 245.848 170.298 239.368 172.95 233.993C173.091 233.695 173.229 233.399 173.366 233.101C174.138 233.557 174.754 234.103 175.399 234.718C175.588 234.898 175.776 235.077 175.972 235.261C176.114 235.398 176.258 235.535 176.403 235.674C174.144 239.985 172.403 242.358 171.18 242.794L171.325 243.2C174.174 241.802 175.677 240.298 177.25 237.632C177.343 237.476 177.435 237.319 177.53 237.157C177.601 237.038 177.672 236.917 177.745 236.795C180.434 239.049 183.013 241.406 185.568 243.804C185.769 243.992 185.97 244.179 186.176 244.375C189.538 247.527 192.802 250.75 195.962 254.095C196.438 254.597 196.916 255.094 197.397 255.592C200.741 259.088 203.845 262.78 206.871 266.541C207.014 266.717 207.159 266.896 207.305 267.077C207.434 267.241 207.564 267.402 207.697 267.57C207.811 267.71 207.923 267.853 208.038 267.997C208.221 268.264 208.409 268.667 208.602 269.208L185.644 277.4C184.072 275.429 182.992 274.038 182.405 273.229C181.802 272.395 181.184 271.58 180.526 270.786C180.407 270.643 180.29 270.498 180.166 270.35C179.936 270.074 179.703 269.798 179.469 269.523C178.948 268.893 178.688 268.386 178.69 268.002C178.834 267.422 179.054 266.949 179.327 266.415C179.432 266.208 179.536 266 179.644 265.787C179.756 265.569 179.867 265.351 179.982 265.125C180.895 263.307 181.684 261.524 182.351 259.608C182.637 258.891 182.933 258.178 183.234 257.465C182.775 258.145 182.382 258.831 182.028 259.566C181.523 260.61 180.956 261.605 180.362 262.604C180.286 262.731 180.21 262.86 180.132 262.989C179.878 263.416 179.624 263.845 179.369 264.272C179.286 264.409 179.205 264.545 179.122 264.687C178.329 266.009 177.758 266.732 177.409 266.857C177.242 266.672 177.076 266.484 176.905 266.294C176.209 265.518 175.51 264.746 174.813 263.973C174.358 263.47 173.908 262.966 173.455 262.461C170.42 259.08 167.286 255.81 164.055 252.609C163.764 252.322 163.475 252.032 163.184 251.745C160.781 249.355 158.276 247.097 155.691 244.896C155.528 244.755 155.363 244.617 155.194 244.472C155.032 244.336 154.873 244.198 154.707 244.056C154.551 243.924 154.395 243.791 154.236 243.655C153.946 243.409 153.656 243.163 153.366 242.917C152.702 242.354 152.082 241.791 151.522 241.125C151.578 241.004 151.633 240.884 151.692 240.758C153.768 236.584 155.427 232.285 156.67 227.86C156.042 229.092 155.459 230.342 154.922 231.613C154.681 232.243 154.396 232.801 154.045 233.381C153.141 234.927 152.4 236.551 151.64 238.166C151.524 238.407 151.409 238.646 151.288 238.895C151.185 239.113 151.082 239.332 150.974 239.556C150.771 239.89 150.462 240.132 150.044 240.281C149.483 239.907 148.964 239.528 148.437 239.113C148.117 238.868 147.799 238.623 147.479 238.38C147.318 238.257 147.158 238.134 146.991 238.008C145.012 236.523 142.91 235.216 140.745 234.002C140.468 233.845 140.192 233.685 139.915 233.528C132.765 229.475 125.014 227.295 116.659 227.698C116.488 227.705 116.314 227.712 116.136 227.721C112.901 227.913 109.844 228.69 106.808 229.808C106.298 229.995 105.787 230.177 105.275 230.357C103.377 231.039 101.595 231.794 99.8556 232.821C99.6829 232.924 99.5074 233.026 99.3291 233.133C98.8373 233.429 98.3513 233.735 97.8667 234.045C97.6957 234.155 97.5232 234.266 97.3495 234.376C95.5596 235.545 93.8279 236.837 92.3769 238.402C92.055 238.709 91.6613 238.869 91.1957 238.883C91.4657 238.334 91.7357 237.785 92.0138 237.22C91.8858 237.263 91.755 237.305 91.6227 237.35C85.9922 239.198 81.8364 239.589 79.1553 238.524C76.8173 237.313 75.8326 235.687 74.9909 233.302C74.908 233.079 74.8252 232.853 74.7423 232.625C74.4813 231.914 74.2232 231.204 73.9665 230.491C72.8018 226.998 71.1019 223.815 68.8669 220.94C68.7463 220.831 68.6238 220.721 68.4995 220.61C65.4196 217.92 61.3909 217.463 57.4138 216.946C53.7545 216.417 51.2228 214.795 48.925 212.067C47.9107 210.649 47.3421 209.062 46.7668 207.43C46.6995 207.242 46.6315 207.051 46.56 206.857C46.1917 205.825 45.8928 204.803 45.6576 203.735C45.499 203.047 45.2785 202.383 45.0516 201.714C44.9682 201.46 44.8826 201.207 44.7963 200.946C44.3386 199.966 43.8117 199.446 42.8215 198.979C41.8092 198.759 40.8317 198.763 39.7934 198.761C34.9699 198.681 30.9602 197.143 27.5795 193.795C25.8633 191.946 24.8614 190.061 25.0025 187.483C25.6326 182.774 28.9784 179.135 31.8934 175.521C35.0326 171.613 35.4788 167.753 35.4263 162.932C35.3766 157.9 36.058 154.421 37.4706 152.493C39.4035 150.565 42.4823 150.186 45.0483 150.448L45.049 150.45Z" fill="white" fill-opacity="0.25"/>
<path d="M135.906 205.376C136.644 205.618 137.37 205.877 138.095 206.149C138.26 206.211 138.428 206.272 138.599 206.335C142.069 207.766 145.066 210.46 147.994 212.693C148.781 213.29 149.575 213.879 150.371 214.466C154.377 217.445 158.275 220.543 162.145 223.687C163.017 224.395 163.893 225.097 164.771 225.797C166.136 226.887 167.485 227.991 168.829 229.105C169.043 229.282 169.256 229.457 169.476 229.639C170.568 230.543 171.631 231.46 172.649 232.44C172.576 232.543 172.503 232.647 172.429 232.752C172.081 233.242 171.736 233.731 171.388 234.218C171.258 234.4 171.127 234.584 170.996 234.769C170.418 235.584 169.841 236.4 169.279 237.224C168.104 238.949 166.865 240.627 165.603 242.291C165.416 242.538 165.227 242.786 165.04 243.036C163.046 245.681 161.477 247.347 160.333 248.034C166.374 245.849 170.289 239.369 172.94 233.993C173.081 233.696 173.22 233.4 173.356 233.102C174.128 233.558 174.744 234.104 175.39 234.719C175.578 234.899 175.767 235.078 175.962 235.262C176.105 235.399 176.248 235.535 176.394 235.675C174.135 239.985 172.394 242.359 171.171 242.795L171.315 243.201C174.165 241.803 175.668 240.299 177.241 237.633C177.334 237.477 177.426 237.32 177.521 237.158C177.592 237.039 177.661 236.919 177.735 236.796C180.424 239.05 183.004 241.407 185.558 243.805C185.76 243.993 185.96 244.18 186.167 244.376C189.529 247.528 192.792 250.751 195.953 254.096C196.428 254.598 196.907 255.095 197.388 255.593C200.732 259.089 203.835 262.781 206.862 266.542C207.005 266.719 207.148 266.895 207.295 267.078C207.425 267.242 207.555 267.403 207.688 267.571C207.801 267.711 207.913 267.854 208.028 267.998C208.211 268.264 208.399 268.668 208.592 269.209L185.635 277.401C184.062 275.43 182.983 274.039 182.396 273.229C181.792 272.396 181.174 271.581 180.517 270.787C180.398 270.644 180.28 270.499 180.157 270.351C179.926 270.074 179.694 269.799 179.459 269.524C178.938 268.894 178.679 268.387 178.681 268.003C178.825 267.423 179.044 266.95 179.317 266.416C179.422 266.209 179.527 266 179.634 265.788C179.746 265.57 179.859 265.349 179.972 265.126C180.886 263.308 181.675 261.524 182.342 259.609C182.627 258.892 182.923 258.179 183.224 257.466C182.766 258.146 182.373 258.832 182.019 259.567C181.513 260.609 180.947 261.606 180.352 262.604C180.277 262.732 180.201 262.86 180.123 262.99C179.868 263.417 179.614 263.846 179.36 264.273C179.277 264.41 179.196 264.546 179.112 264.688C178.32 266.01 177.749 266.733 177.4 266.858C177.233 266.673 177.068 266.487 176.895 266.295C176.2 265.519 175.501 264.747 174.804 263.974C174.349 263.471 173.899 262.967 173.445 262.461C170.411 259.081 167.277 255.811 164.046 252.61C163.755 252.323 163.466 252.033 163.175 251.746C160.771 249.356 158.267 247.098 155.681 244.897C155.518 244.756 155.354 244.618 155.184 244.473C155.023 244.336 154.863 244.199 154.697 244.057C154.542 243.925 154.385 243.791 154.227 243.656C153.937 243.41 153.647 243.164 153.357 242.918C152.692 242.355 152.073 241.792 151.512 241.126C151.568 241.005 151.624 240.885 151.683 240.759C153.759 236.585 155.418 232.286 156.661 227.861C156.032 229.093 155.45 230.343 154.913 231.614C154.672 232.244 154.387 232.802 154.036 233.382C153.131 234.928 152.391 236.552 151.631 238.167C151.516 238.408 151.399 238.651 151.279 238.896C151.176 239.113 151.073 239.333 150.964 239.557C150.762 239.891 150.452 240.133 150.035 240.282C149.473 239.908 148.955 239.529 148.428 239.114C148.107 238.869 147.789 238.624 147.47 238.381C147.308 238.258 147.149 238.135 146.982 238.009C145.002 236.524 142.901 235.217 140.736 234.003C140.459 233.846 140.183 233.686 139.906 233.529C132.756 229.476 125.004 227.296 116.65 227.699C116.478 227.706 116.304 227.713 116.126 227.722C112.891 227.914 109.835 228.691 106.799 229.809C106.289 229.995 105.778 230.178 105.265 230.358C103.368 231.04 101.585 231.795 99.8463 232.822C99.6735 232.925 99.498 233.027 99.3198 233.134C98.828 233.43 98.3419 233.736 97.8573 234.046C97.6867 234.155 97.5169 234.266 97.3401 234.377C95.5503 235.546 93.8186 236.838 92.3675 238.403C92.0457 238.71 91.6519 238.87 91.1863 238.884C92.3499 236.672 93.6238 234.565 95.0211 232.487C95.1213 232.34 95.2194 232.193 95.3224 232.039C96.0388 230.975 96.7624 229.916 97.4922 228.863C97.5856 228.729 97.679 228.595 97.7731 228.457C99.0928 226.557 100.502 224.745 101.984 222.961C102.288 222.594 102.59 222.228 102.892 221.86C111.185 211.825 121.671 201.023 135.898 205.374L135.906 205.376Z" fill="white" fill-opacity="0.05"/>
<path d="M280.836 122.012C282.233 122.123 283.166 122.581 284.077 123.618C285.012 124.853 285.661 126.269 286.316 127.662C286.398 127.837 286.482 128.013 286.567 128.19C287.41 130.003 288.087 131.869 288.754 133.751C288.946 134.289 289.137 134.824 289.329 135.361C290.166 137.707 290.912 140.069 291.595 142.463C291.648 142.34 291.701 142.217 291.754 142.092C292.72 139.867 293.715 137.768 295.076 135.735C295.221 135.501 295.366 135.268 295.515 135.028C298.085 130.915 301.684 127.497 305.773 124.833C305.926 124.733 306.079 124.632 306.235 124.531C310.781 121.62 316.943 119.252 322.326 118.599C322.592 118.566 322.858 118.533 323.133 118.499C323.327 118.475 323.521 118.454 323.722 118.43C323.225 119.252 322.576 119.854 321.857 120.488C321.73 120.601 321.603 120.713 321.473 120.83C321.197 121.078 320.92 121.323 320.642 121.568C319.874 122.249 319.109 122.933 318.343 123.616C318.18 123.761 318.018 123.905 317.85 124.055C316.143 125.575 314.448 127.108 312.753 128.641C309.809 131.305 306.859 133.962 303.904 136.614C300.479 139.688 297.068 142.774 293.668 145.873C293.023 146.46 292.379 147.046 291.732 147.629C291.615 147.735 291.499 147.84 291.378 147.949C291.067 148.23 290.754 148.513 290.442 148.793C290.154 149.033 289.963 149.263 289.867 149.483C290.008 149.462 290.147 149.445 290.292 149.422C290.476 149.397 290.662 149.371 290.849 149.347C291.031 149.321 291.213 149.298 291.401 149.271C291.727 149.237 292.054 149.238 292.381 149.274C293.24 153.028 293.225 156.809 293.148 160.656C293.144 160.842 293.142 161.028 293.138 161.22C293.089 163.106 292.964 164.28 291.719 165.757C290.92 166.47 289.852 166.748 288.824 166.998C287.458 166.878 286.403 166.262 285.354 165.437C284.32 163.831 284.46 161.859 284.524 160.019C284.536 159.506 284.546 158.994 284.556 158.481C284.561 158.237 284.566 157.995 284.571 157.745C284.588 156.473 284.509 155.216 284.4 153.95C284.379 153.626 284.358 153.304 284.337 152.981C283.958 147.619 282.699 142.471 280.902 137.436C280.694 136.852 280.489 136.264 280.285 135.679C279.54 133.57 278.714 131.547 277.687 129.56C276.661 127.531 276.356 125.903 276.775 124.675C277.668 123.024 278.891 122.107 280.836 122.019L280.836 122.012Z" fill="white" fill-opacity="0.25"/>
<path d="M196.968 295.302L218.674 287.556C220.5 292.673 220.68 297.872 218.346 302.931C216.802 305.975 214.603 308.227 211.61 309.96C211.438 310.063 211.264 310.169 211.085 310.276C210.198 310.73 209.282 311.063 208.345 311.398C208.151 311.467 207.956 311.536 207.756 311.608C205.733 312.309 203.728 312.775 201.584 312.853C201.446 311.866 201.338 310.904 201.356 309.906C201.347 307.646 200.682 305.518 199.914 303.425C199.839 303.216 199.765 303.007 199.688 302.792C199.413 302.026 199.134 301.264 198.856 300.5C198.234 298.783 197.613 297.069 196.972 295.3L196.968 295.302Z" fill="white" fill-opacity="0.25"/>
<path d="M323.724 118.427L324.213 118.481C321.817 128.302 316.561 137.75 307.608 143.314C304.725 145.052 301.633 146.548 298.422 147.584C298.05 147.703 297.68 147.826 297.307 147.948C296.568 148.191 295.83 148.431 295.09 148.67C294.85 148.749 294.607 148.829 294.359 148.911C294.128 148.984 293.9 149.056 293.664 149.131C293.458 149.197 293.25 149.264 293.041 149.331C292.411 149.478 291.899 149.475 291.26 149.436C290.723 149.47 290.189 149.508 289.654 149.552C290.072 148.898 290.509 148.388 291.092 147.866C291.257 147.716 291.423 147.568 291.594 147.413C291.774 147.253 291.954 147.09 292.139 146.924C292.328 146.753 292.519 146.583 292.714 146.405C293.339 145.842 293.965 145.28 294.59 144.719C295.026 144.326 295.464 143.932 295.9 143.538C296.682 142.834 297.466 142.129 298.247 141.425C299.53 140.273 300.812 139.116 302.09 137.958C302.263 137.802 302.438 137.644 302.615 137.483C302.958 137.173 303.301 136.861 303.644 136.551C305.852 134.555 308.062 132.559 310.277 130.571C310.444 130.42 310.613 130.268 310.786 130.113C311.62 129.365 312.455 128.617 313.287 127.87C314.998 126.336 316.702 124.793 318.397 123.242C318.747 122.923 319.095 122.605 319.444 122.286C320.108 121.679 320.769 121.072 321.429 120.462C321.725 120.192 322.023 119.919 322.319 119.648C322.456 119.522 322.59 119.397 322.729 119.267C323.048 118.975 323.382 118.698 323.717 118.423L323.724 118.427Z" fill="white" fill-opacity="0.7"/>
<path d="M49.7064 171.414L49.9151 171.339C49.9756 171.482 50.0381 171.624 50.1021 171.771C53.0886 178.67 56.9452 184.598 61.677 190.454C61.8508 190.671 62.026 190.885 62.2048 191.109C64.6628 194.14 67.2414 197.034 69.9663 199.837C70.071 199.946 70.1767 200.055 70.2833 200.165C75.3561 205.387 80.6119 210.444 86.163 215.18C86.6855 215.629 87.2039 216.086 87.7195 216.542C91.4871 219.873 95.3751 223.055 99.3535 226.147C98.8173 227.251 98.3841 228.015 98.0539 228.439L97.6365 228.588C96.4776 227.575 95.3207 226.562 94.1632 225.546C93.4442 224.916 92.7238 224.289 92.0035 223.661C86.1411 218.54 80.4793 213.204 75.0897 207.608C74.9807 207.494 74.8703 207.382 74.7578 207.265C68.7159 201.008 62.8151 194.401 57.9323 187.219C57.8156 187.05 57.7011 186.881 57.5802 186.707C54.7339 182.548 52.091 178.281 50.4356 173.51C50.3633 173.307 50.2909 173.104 50.2185 172.895C50.0448 172.401 49.8732 171.907 49.7023 171.415L49.7064 171.414Z" fill="white"/>
<path d="M156.733 227.383C156.982 228.082 156.924 228.204 156.664 228.879C156.598 229.054 156.531 229.23 156.465 229.408C156.398 229.585 156.325 229.773 156.247 229.97C156.1 230.356 155.954 230.739 155.807 231.126C155.735 231.311 155.665 231.498 155.59 231.69C155.356 232.308 155.139 232.932 154.924 233.557C154.391 235.048 153.729 236.484 153.078 237.93C152.796 238.563 152.525 239.201 152.256 239.839C151.881 240.72 151.486 241.585 151.052 242.44C150.982 242.586 150.912 242.732 150.841 242.883C150.357 243.887 149.834 244.856 149.268 245.819C148.95 246.373 148.647 246.934 148.347 247.498C147.491 249.095 146.541 250.613 145.513 252.111C145.218 252.543 144.926 252.977 144.633 253.41C140.918 258.921 136.775 264.204 132.014 268.902C131.679 269.236 131.348 269.574 131.017 269.911C125.494 275.498 121.791 278.349 119.91 278.464C120.046 278.34 120.186 278.217 120.326 278.089C125.11 273.784 129.583 269.315 133.712 264.397C133.851 264.233 133.99 264.067 134.135 263.899C137.509 259.904 140.666 255.736 143.506 251.365C143.761 250.972 144.019 250.581 144.277 250.189C145.413 248.461 146.499 246.711 147.548 244.931C147.801 244.505 148.054 244.081 148.307 243.655C150.093 240.663 151.72 237.626 153.231 234.495C153.825 233.271 154.294 232.383 154.638 231.831C154.987 231.267 155.244 230.746 155.479 230.134C155.851 229.192 156.274 228.292 156.734 227.387L156.733 227.383Z" fill="white"/>
<path d="M183.087 257.06C183.399 257.936 183.008 258.542 182.661 259.37C182.593 259.537 182.523 259.706 182.452 259.876C182.241 260.386 182.027 260.894 181.812 261.4C181.753 261.542 181.693 261.684 181.633 261.828C180.235 265.149 178.701 268.434 176.694 271.454C176.495 271.761 176.296 272.065 176.097 272.371C173.727 275.989 171.092 279.288 168.165 282.497C168.026 282.656 167.888 282.815 167.745 282.981C166.748 284.077 165.877 284.612 164.455 285.037C164.284 285.093 164.111 285.148 163.936 285.206C163.521 285.34 163.103 285.469 162.686 285.597C163.155 284.863 163.692 284.251 164.297 283.617C164.493 283.408 164.692 283.197 164.894 282.983C164.998 282.873 165.1 282.763 165.208 282.652C167.312 280.422 169.292 278.139 171.161 275.716C171.37 275.45 171.577 275.186 171.785 274.92C174.325 271.665 176.645 268.284 178.784 264.769C178.87 264.628 178.955 264.491 179.045 264.347C180.5 261.976 181.885 259.56 183.092 257.061L183.087 257.06Z" fill="white"/>
<path d="M121.241 250.561C121.524 251.354 121.261 251.697 120.902 252.437C120.816 252.607 120.731 252.777 120.644 252.954C120.557 253.132 120.469 253.309 120.379 253.492C120.194 253.869 120.006 254.247 119.818 254.623C119.536 255.19 119.256 255.758 118.977 256.326C117.988 258.329 116.955 260.254 115.723 262.129C115.543 262.417 115.361 262.704 115.182 262.992C111.802 268.31 107.482 273.835 101.575 276.548C101.459 276.439 101.342 276.33 101.222 276.217C101.411 276.069 101.599 275.922 101.794 275.769C102.05 275.563 102.306 275.357 102.562 275.152C102.685 275.055 102.808 274.959 102.935 274.861C104.872 273.292 106.242 271.151 107.688 269.165C108.009 268.726 108.329 268.29 108.65 267.85C108.805 267.64 108.96 267.427 109.12 267.21C109.708 266.405 110.303 265.606 110.9 264.806C111.001 264.669 111.103 264.532 111.206 264.392C111.602 263.86 112 263.327 112.398 262.794C115.46 258.79 118.408 254.712 121.241 250.559L121.241 250.561Z" fill="white"/>
<path d="M119.769 261.6C120.077 262.461 119.692 263.005 119.32 263.803C119.249 263.959 119.176 264.117 119.102 264.279C118.878 264.765 118.649 265.252 118.422 265.737C118.356 265.882 118.29 266.026 118.221 266.175C115.7 271.652 112.005 276.245 106.924 279.668L106.634 278.857C106.811 278.68 106.988 278.502 107.17 278.321C108.993 276.454 110.49 274.485 111.958 272.347C112.674 271.322 113.424 270.318 114.169 269.312C115.435 267.598 116.683 265.873 117.905 264.13C118.507 263.273 119.124 262.429 119.769 261.6Z" fill="white"/>
<path d="M172.864 232.369C173.083 232.617 173.273 232.93 173.434 233.308C173.242 233.882 173.042 234.337 172.755 234.864C172.678 235.013 172.601 235.159 172.521 235.311C171.801 236.674 171.012 237.991 170.153 239.278C170.074 239.398 169.993 239.52 169.913 239.645C167.586 243.14 164.331 246.93 160.202 248.314C160.289 247.666 160.54 247.567 161.054 247.153C163.219 245.316 164.823 243.091 166.469 240.821C166.689 240.521 166.908 240.219 167.128 239.919C168.455 238.099 169.761 236.266 171.058 234.428C171.168 234.269 171.281 234.11 171.397 233.948C171.496 233.807 171.595 233.666 171.695 233.524C172.17 232.862 172.559 232.477 172.864 232.369Z" fill="white"/>
<path d="M176.606 235.604C176.98 235.998 177.354 236.393 177.739 236.799C176.629 239.221 175.452 241.581 172.837 242.704C172.334 242.883 171.832 243.053 171.319 243.204L171.174 242.799C171.357 242.63 171.541 242.459 171.726 242.287C173.453 240.521 174.785 238.384 175.909 236.221C176.094 235.908 176.325 235.702 176.604 235.603L176.606 235.604Z" fill="white"/>
<path d="M49.7064 171.414L49.9151 171.339C49.9756 171.482 50.0381 171.625 50.1021 171.771C51.7858 175.659 53.6174 179.347 55.9254 182.907L55.508 183.056L55.4439 183.536C53.059 179.675 51.1138 175.727 49.7064 171.414Z" fill="#FDF1D9"/>
<path d="M187.334 298.468C187.599 298.38 187.865 298.29 188.139 298.199C188.341 298.133 188.547 298.069 188.756 298.004C188.365 298.799 187.927 298.978 187.098 299.304C186.874 299.382 186.652 299.458 186.421 299.536C186.195 299.617 185.969 299.693 185.736 299.774C185.564 299.833 185.393 299.892 185.216 299.95C185.714 298.986 186.315 298.799 187.333 298.466L187.334 298.468Z" fill="white"/>
</g>
<defs>
<clipPath id="clip0_512_27769">
<rect width="491.6" height="514.721" fill="white" transform="translate(0 165.22) rotate(-19.6386)"/>
</clipPath>
</defs>
</svg>
