<svg width="203" height="459" viewBox="0 0 203 459" fill="none" xmlns="http://www.w3.org/2000/svg">
<mask id="mask0_512_27694" style="mask-type:luminance" maskUnits="userSpaceOnUse" x="-165" y="101" width="355" height="349">
<path d="M171.304 101.042L-164.499 151.798L-146.497 449.668L189.305 398.912L171.304 101.042Z" fill="white"/>
</mask>
<g mask="url(#mask0_512_27694)">
<mask id="mask1_512_27694" style="mask-type:luminance" maskUnits="userSpaceOnUse" x="-324" y="-69" width="639" height="607">
<path d="M118.153 -68.2284L-323.929 200.51L-127.957 537.833L314.125 269.095L118.153 -68.2284Z" fill="white"/>
</mask>
<g mask="url(#mask1_512_27694)">
<mask id="mask2_512_27694" style="mask-type:luminance" maskUnits="userSpaceOnUse" x="-324" y="-69" width="639" height="607">
<path d="M118.557 -68.2285L-323.929 207.406L-128.361 537.832L314.125 262.198L118.557 -68.2285Z" fill="white"/>
</mask>
<g mask="url(#mask2_512_27694)">
<path fill-rule="evenodd" clip-rule="evenodd" d="M91.4371 398.723C-27.0835 432.284 -275.787 301.644 -53.156 157.213C-51.8146 156.454 -50.6688 155.732 -49.3181 155.139C188.9 34.8608 194.724 304.928 108.298 389.132C103.416 393.751 98.0599 396.953 91.2508 398.926L91.4371 398.723Z" fill="white" fill-opacity="0.15"/>
</g>
</g>
</g>
<mask id="mask3_512_27694" style="mask-type:luminance" maskUnits="userSpaceOnUse" x="-199" y="6" width="321" height="249">
<path d="M110.128 6.8369L-198.168 55.5322L-186.333 254.757L121.964 206.061L110.128 6.8369Z" fill="white"/>
</mask>
<g mask="url(#mask3_512_27694)">
<mask id="mask4_512_27694" style="mask-type:luminance" maskUnits="userSpaceOnUse" x="-324" y="-69" width="639" height="607">
<path d="M118.386 -68.2241L-323.927 204.105L-128.185 537.837L314.128 265.508L118.386 -68.2241Z" fill="white"/>
</mask>
<g mask="url(#mask4_512_27694)">
<mask id="mask5_512_27694" style="mask-type:luminance" maskUnits="userSpaceOnUse" x="-324" y="-69" width="639" height="607">
<path d="M118.629 -68.2238L-323.926 209.709L-128.427 537.837L314.128 259.904L118.629 -68.2238Z" fill="white"/>
</mask>
<g mask="url(#mask5_512_27694)">
<path fill-rule="evenodd" clip-rule="evenodd" d="M-80.125 128.422C-131.809 148.71 -121.866 193.228 -182.641 222.319C-183.591 222.819 -184.33 223.603 -184.478 224.438C-184.618 225.434 -184.194 226.001 -183.19 226.46C-151.931 239.543 -125.017 234.531 -97.8966 191.511C-97.1762 190.408 -95.8388 189.836 -94.4564 190.063C-93.2676 190.326 -92.4301 191.301 -92.7543 192.493C-96.4508 206.753 -96.6802 220.044 -88.2054 231.553C-87.5615 232.564 -85.9854 232.755 -84.4635 231.987C-49.3726 212.365 -35.0268 189.174 -41.4441 162.095C-41.5072 160.976 -40.9804 159.908 -39.8457 159.212C-38.7109 158.516 -37.3285 158.743 -36.518 159.239C-13.8003 176.981 15.1174 176.282 50.3929 156.464C51.7212 155.732 52.23 154.344 51.5771 153.174C44.6333 141.056 31.9664 135.014 16.4943 131.271C15.2965 130.848 14.6525 129.837 14.9767 128.645C15.4945 127.418 16.6203 126.562 18.1873 126.593C72.0602 124.316 89.1484 104.654 91.273 72.9137C91.219 71.9543 90.7957 71.3869 89.7915 70.9276C88.99 70.5922 87.8282 70.8085 86.8871 71.4685C31.9478 106.904 -5.36859 80.0858 -47.5423 109.428C-48.4834 110.088 -49.6451 110.305 -50.6403 110.005C-51.6445 109.546 -52.0768 108.819 -51.9372 107.823C-49.3124 88.4309 -42.9503 65.919 -33.0443 47.2712C-32.3329 46.0077 -32.7922 44.8007 -34.1836 44.4135C-50.9436 38.6484 -62.1739 40.7398 -76.2499 47.885C-77.0063 48.349 -77.3756 48.7409 -77.7358 49.2927C-83.9 61.4273 -82.5035 86.2104 -77.9547 125.271C-77.8916 126.39 -78.8057 127.53 -79.9494 128.066L-80.125 128.422Z" fill="white" fill-opacity="0.15"/>
</g>
</g>
</g>
<mask id="mask6_512_27694" style="mask-type:luminance" maskUnits="userSpaceOnUse" x="-135" y="154" width="273" height="269">
<path d="M123.976 154.739L-134.973 197.133L-121.781 422.897L137.169 380.503L123.976 154.739Z" fill="white"/>
</mask>
<g mask="url(#mask6_512_27694)">
<mask id="mask7_512_27694" style="mask-type:luminance" maskUnits="userSpaceOnUse" x="-324" y="-69" width="639" height="607">
<path d="M118.44 -68.2267L-323.926 204.375L-128.238 537.834L314.128 265.232L118.44 -68.2267Z" fill="white"/>
</mask>
<g mask="url(#mask7_512_27694)">
<mask id="mask8_512_27694" style="mask-type:luminance" maskUnits="userSpaceOnUse" x="-324" y="-69" width="639" height="607">
<path d="M118.671 -68.2269L-323.926 209.856L-128.468 537.834L314.129 259.751L118.671 -68.2269Z" fill="white"/>
</mask>
<g mask="url(#mask8_512_27694)">
<path fill-rule="evenodd" clip-rule="evenodd" d="M105.776 238.821C103.846 236.054 105.393 231.946 109.216 229.712C113.047 227.641 117.415 228.114 119.355 231.045L122.584 235.877C124.328 238.846 122.977 242.916 119.145 244.986C115.509 247.019 110.945 246.584 109.006 243.653L105.776 238.821ZM-65.5702 337.081C-67.3145 334.111 -65.9534 330.205 -62.131 327.971C-58.2994 325.901 -53.7362 326.335 -51.9919 329.305L-48.7624 334.136C-46.8229 337.067 -48.3792 341.011 -52.2016 343.245C-56.0331 345.316 -60.5963 344.881 -62.3406 341.912L-65.5702 337.081ZM-8.39262 304.26C-10.1369 301.291 -8.77583 297.385 -4.95341 295.151C-1.31709 293.118 3.24611 293.553 5.18564 296.484L8.41516 301.316C10.3547 304.247 8.79838 308.191 4.97596 310.425C1.14442 312.496 -3.22355 312.023 -5.16309 309.092L-8.39262 304.26ZM-106.466 300.869C-108.201 298.063 -106.849 293.994 -103.027 291.759C-99.3997 289.563 -94.8274 290.161 -92.8879 293.093L-89.6584 297.924C-87.7188 300.856 -89.266 304.963 -93.0975 307.034C-96.92 309.268 -101.297 308.632 -103.237 305.7L-106.466 300.869ZM-56.1616 272.201C-58.1012 269.27 -56.5449 265.326 -52.7224 263.092C-48.8909 261.021 -44.5229 261.494 -42.5834 264.425L-39.3539 269.256C-37.6095 272.226 -38.9706 276.132 -42.793 278.366C-46.4294 280.398 -50.9926 279.964 -52.9321 277.032L-56.1616 272.201ZM-6.06148 243.408C-7.80579 240.438 -6.45382 236.369 -2.62228 234.298C1.20013 232.064 5.77247 232.662 7.51677 235.632L10.7463 240.463C12.6767 243.231 11.1295 247.338 7.30711 249.572C3.48469 251.807 -0.892428 251.17 -2.83196 248.239L-6.06148 243.408ZM44.0387 214.614C42.1082 211.846 43.6554 207.739 47.4779 205.505C51.1142 203.472 55.6774 203.907 57.6169 206.838L60.8464 211.669C62.5908 214.639 61.2388 218.708 57.4073 220.779C53.7801 222.975 49.2077 222.377 47.2682 219.445L44.0387 214.614ZM94.1388 185.821C92.3945 182.851 93.7465 178.782 97.578 176.711C101.4 174.477 105.973 175.075 107.717 178.045L110.947 182.876C112.877 185.644 111.33 189.751 107.507 191.985C103.676 194.056 99.1126 193.621 97.3683 190.652L94.1388 185.821ZM77.78 373.844C76.0357 370.875 77.3877 366.805 81.2192 364.735C84.8464 362.539 89.4188 363.137 91.3583 366.069L94.5878 370.9C96.5182 373.668 94.971 377.775 91.1486 380.009C87.3171 382.08 82.9491 381.607 81.0096 378.676L77.78 373.844ZM-11.1051 365.353C-12.8494 362.383 -11.4974 358.314 -7.66588 356.243C-4.03869 354.047 0.533658 354.645 2.47319 357.577L5.7027 362.408C7.63311 365.176 6.08593 369.283 2.26352 371.518C-1.56803 373.588 -5.93602 373.116 -7.87555 370.184L-11.1051 365.353ZM110.904 295.407C108.964 292.476 110.512 288.368 114.343 286.298C118.166 284.064 122.738 284.662 124.482 287.631L127.712 292.463C129.447 295.269 128.095 299.338 124.273 301.572C120.441 303.643 115.878 303.208 114.134 300.239L110.904 295.407ZM51.6301 333.104C49.8858 330.135 51.2377 326.065 55.0693 323.995C58.6965 321.798 63.2688 322.397 65.2083 325.328L68.2426 330.197C70.173 332.965 68.6259 337.073 64.8035 339.307C61.1671 341.339 56.6039 340.905 54.6644 337.973L51.4349 333.142L51.6301 333.104ZM48.7849 271.44C46.8454 268.508 48.4017 264.565 52.2241 262.33C55.8604 260.298 60.4237 260.732 62.3632 263.664L65.3975 268.533C67.337 271.465 65.7898 275.572 61.9583 277.643C58.322 279.675 53.7588 279.241 51.8192 276.309L48.7849 271.44Z" fill="#F8F5E3"/>
</g>
</g>
</g>
<mask id="mask9_512_27694" style="mask-type:luminance" maskUnits="userSpaceOnUse" x="10" y="101" width="180" height="334">
<path d="M171.791 101.027L10.9639 127.8L28.667 434.453L189.494 407.68L171.791 101.027Z" fill="white"/>
</mask>
<g mask="url(#mask9_512_27694)">
<mask id="mask10_512_27694" style="mask-type:luminance" maskUnits="userSpaceOnUse" x="-324" y="-69" width="639" height="607">
<path d="M118.492 -68.2279L-323.933 204.27L-128.303 537.833L314.122 265.336L118.492 -68.2279Z" fill="white"/>
</mask>
<g mask="url(#mask10_512_27694)">
<mask id="mask11_512_27694" style="mask-type:luminance" maskUnits="userSpaceOnUse" x="-324" y="-69" width="639" height="607">
<path d="M118.725 -68.2277L-323.933 209.756L-128.536 537.833L314.122 259.849L118.725 -68.2277Z" fill="white"/>
</mask>
<g mask="url(#mask11_512_27694)">
<path fill-rule="evenodd" clip-rule="evenodd" d="M121.775 311.176C117.775 313.403 113.012 312.969 111.19 309.819L107.818 304.698C105.793 301.591 107.407 297.211 111.407 294.984C115.397 292.583 120.17 293.192 121.992 296.341L125.364 301.462C127.176 304.437 125.765 308.775 121.775 311.176ZM105.829 249.639L102.457 244.518C100.441 241.585 102.056 237.205 106.046 234.804C110.045 232.577 114.605 233.053 116.631 236.161L120.003 241.282C121.824 244.431 120.413 248.769 116.414 250.996C112.618 253.181 107.854 252.747 105.829 249.639ZM44.0381 186.386C85.5963 218.913 124.032 348.572 99.9727 409.663C101.953 408.202 103.721 406.608 105.692 404.972C174.682 336.452 187.35 154.081 78.2615 130.259C66.5492 142.163 47.1564 149.299 16.3382 151.024C14.8925 150.968 13.5137 152.13 12.9596 153.3C12.6188 154.602 13.2971 155.696 14.558 156.142C30.8364 159.856 44.1723 166.285 51.496 179.578C52.1742 180.672 51.6488 182.364 50.2508 183.178C48.0568 184.507 46.057 185.621 44.0572 186.734L44.0381 186.386ZM93.6724 193.314L90.3003 188.193C88.4789 185.044 89.8897 180.706 93.8892 178.479C97.8793 176.078 102.653 176.687 104.474 179.836L107.846 184.957C109.862 187.89 108.247 192.27 104.257 194.671C100.258 196.898 95.4938 196.463 93.6724 193.314Z" fill="white" fill-opacity="0.15"/>
</g>
</g>
</g>
<mask id="mask12_512_27694" style="mask-type:luminance" maskUnits="userSpaceOnUse" x="-73" y="6" width="191" height="189">
<path d="M108.379 6.83751L-72.8662 36.5103L-63.6328 194.528L117.612 164.856L108.379 6.83751Z" fill="white"/>
</mask>
<g mask="url(#mask12_512_27694)">
<mask id="mask13_512_27694" style="mask-type:luminance" maskUnits="userSpaceOnUse" x="-324" y="-69" width="639" height="607">
<path d="M118.441 -68.2242L-323.925 204.378L-128.236 537.837L314.129 265.235L118.441 -68.2242Z" fill="white"/>
</mask>
<g mask="url(#mask13_512_27694)">
<mask id="mask14_512_27694" style="mask-type:luminance" maskUnits="userSpaceOnUse" x="-324" y="-69" width="639" height="607">
<path d="M118.673 -68.2247L-323.924 209.859L-128.467 537.836L314.13 259.753L118.673 -68.2247Z" fill="white"/>
</mask>
<g mask="url(#mask14_512_27694)">
<path fill-rule="evenodd" clip-rule="evenodd" d="M-30.9131 127.273C-4.31949 136.504 19.8705 148.695 41.6569 163.844C43.5747 162.805 45.4926 161.766 47.5968 160.525C48.9374 159.764 49.4506 158.336 48.7912 157.138C41.7783 144.738 28.9901 138.613 13.3708 134.867C12.1616 134.44 11.5113 133.405 11.8382 132.18C12.3605 130.916 13.4966 130.03 15.0784 130.052C44.6324 128.581 63.2302 121.954 74.4631 110.795C83.8238 101.495 87.8836 89.2507 88.829 74.2973C88.7742 73.3124 88.3467 72.7323 87.3329 72.267C86.5238 71.9276 85.3511 72.1571 84.4013 72.8409C28.9538 109.581 -8.72258 82.275 -51.2857 112.676C-52.2355 113.36 -53.4081 113.59 -54.4128 113.288C-55.4266 112.823 -55.8631 112.079 -55.7226 111.056C-53.0787 91.1236 -46.6632 67.9641 -36.6692 48.7504C-35.9514 47.4483 -36.4154 46.2117 -37.8201 45.8229C-51.1214 41.1254 -60.9758 41.5609 -71.42 45.5966C-61.5086 53.2808 -59.5749 73.8103 -65.8146 107.223C-66.6764 113.034 -63.0797 117.308 -54.8472 119.679C-46.6238 121.886 -38.7822 124.333 -30.9314 126.945L-30.9131 127.273Z" fill="white" fill-opacity="0.15"/>
</g>
</g>
</g>
</svg>
