<svg width="204" height="150" viewBox="0 0 204 150" fill="none" xmlns="http://www.w3.org/2000/svg">
<g filter="url(#filter0_d_512_25512)">
<path d="M161.38 123.489C157.535 123.489 152.226 122.877 148.747 119.999C146.257 117.929 144.451 114.257 144.243 110.858C143.828 103.97 147.624 92.9149 149.748 88.5267C150.956 86.0266 152.384 83.9301 153.776 81.9248C153.666 78.7476 153.824 75.4793 153.971 72.302C154.032 71.0129 154.093 69.7368 154.13 68.4998C147.856 71.3645 141.521 74.3985 135.382 77.3283C127.327 81.1826 118.99 85.1542 110.691 88.8392C110.569 88.8913 110.386 88.9825 110.178 89.0866C108.067 90.1023 106.553 90.7794 104.869 90.7794H104.588L104.259 90.7534C102.696 90.5971 101.451 89.8679 100.243 89.1778C100.036 89.0606 99.8402 88.9434 99.6816 88.8522C92.1631 85.5708 84.6812 82.003 77.4435 78.5523L72.0609 75.9871C62.614 71.4947 53.045 66.8461 43.8055 62.3406L28.8296 55.0487L104.735 19.0966L107.163 20.1904C118.234 25.1645 129.316 30.5424 140.045 35.7379C147.221 39.2146 154.654 42.8216 161.978 46.2462C162.295 46.3894 162.637 46.5066 162.991 46.6368C164.48 47.1707 166.518 47.9129 168.227 49.6838L170.058 51.585L170.228 81.6254C174.732 88.1361 177.71 95.4411 179.114 103.384L179.285 104.296C179.968 107.968 181.25 114.817 175.465 119.609C171.254 123.112 164.211 123.489 161.392 123.489H161.38Z" fill="white"/>
<path d="M104.796 26.1933C123.201 34.4619 141.241 43.642 159.524 52.2101C161.001 52.9002 162.905 53.2518 163.967 54.3456L164.138 83.8521C168.739 89.9592 171.754 96.8475 173.121 104.582C173.756 108.15 174.818 111.9 171.717 114.465C169.752 116.093 165.493 116.966 161.379 116.966C157.754 116.966 154.239 116.288 152.494 114.843C151.395 113.932 150.419 111.939 150.334 110.429C150.041 105.52 153.007 95.962 155.167 91.5087C156.51 88.7482 158.316 86.3653 160 83.8521C159.366 76.5471 160.867 67.5103 160.025 60.4006C159.915 59.4891 159.451 59.1505 158.816 59.1505C157.266 59.1505 154.691 61.1558 153.776 61.5725C138.592 68.4478 123.592 76.0523 108.359 82.8104C107.639 83.1359 105.528 84.2428 104.881 84.2428C104.869 84.2428 104.844 84.2428 104.832 84.2428C104.332 84.1907 102.782 83.1359 102.086 82.8365C92.8221 78.7998 83.8145 74.4116 74.5629 70.0104C64.2494 65.1143 53.9847 60.1011 43.72 55.1009L104.796 26.1803M160.305 54.3326H117.684C117.172 54.3326 115.609 57.4708 118.844 57.7833H160.012L160.305 54.3326ZM104.673 12L99.8523 14.2918L38.7768 43.2123L14 54.9446L38.6548 66.9503L41.1935 68.1874C50.4818 72.7188 60.0874 77.3935 69.6075 81.9119C71.4139 82.7713 73.2203 83.6308 75.0267 84.4902C82.2034 87.9148 89.6243 91.4566 97.1306 94.738C97.2038 94.7771 97.277 94.8292 97.3625 94.8682C98.8637 95.7407 100.914 96.9386 103.734 97.2121L104.295 97.2642H104.905C108.03 97.2642 110.52 96.0662 112.717 95.0115C112.863 94.9333 113.01 94.8682 113.107 94.8292C121.431 91.1311 129.804 87.1335 137.896 83.2662C141.106 81.7296 144.377 80.1671 147.661 78.6175C147.661 79.0342 147.661 79.4379 147.661 79.8546C146.55 81.5343 145.39 83.3834 144.353 85.5319C142.107 90.1675 137.64 102.551 138.177 111.275C138.494 116.497 141.18 121.94 145.024 125.13C149.87 129.154 156.607 130 161.404 130C165.7 130 173.719 129.323 179.224 124.752C187.987 117.486 186.022 106.978 185.278 103.02C185.229 102.733 185.168 102.447 185.119 102.173C183.666 93.9698 180.713 86.3653 176.331 79.529L176.185 54.2675L176.148 48.8245L172.499 45.0223C169.801 42.2097 166.762 41.1159 164.956 40.4648C164.76 40.3997 164.577 40.3346 164.394 40.2565C157.12 36.8448 149.723 33.264 142.583 29.8003C131.83 24.5917 120.711 19.2008 109.568 14.1876L104.698 12H104.673Z" fill="white"/>
<path d="M108.286 117.799C100.096 117.799 79.9697 116.718 70.0101 106.744C69.0093 105.741 65.7383 102.186 65.7383 98.5533V67.2889L71.8776 67.1977C74.7214 67.1977 76.6743 68.578 77.7239 69.3072C77.846 69.3853 77.9558 69.4765 78.0779 69.5546C82.4474 71.7683 87.0976 73.9168 91.5892 76.0002C95.9343 78.0185 100.414 80.102 104.82 82.3156C115.353 78.0576 126.216 72.6016 136.712 67.3149L141.241 65.0362C142.498 64.4112 144.17 63.6559 145.952 63.4736L152.628 62.7965V97.3032C152.628 102.343 147.953 106.679 147.014 107.499C139.617 113.958 125.129 117.799 108.262 117.799H108.286Z" fill="white"/>
<path d="M146.538 69.9583V97.3033C146.538 98.8658 144.292 101.47 143.157 102.447C136.529 108.228 122.347 111.275 108.274 111.275C94.2013 111.275 80.458 108.28 74.1723 101.978C73.6597 101.47 71.8289 99.0742 71.8289 98.5403V73.6955C71.8289 73.6955 71.8533 73.6955 71.8655 73.6955C73.3423 73.6955 74.2455 74.8153 75.3684 75.3752C84.9008 80.2062 94.7627 84.347 104.271 89.243C104.515 89.3732 104.759 89.4383 104.979 89.4383C105.857 89.4383 106.529 88.5659 106.919 88.4096C119.234 83.4355 131.952 76.8727 143.828 70.9089C144.622 70.5182 145.683 70.0234 146.526 69.9453M158.743 55.6348L145.378 56.989C142.669 57.2624 140.362 58.2781 138.653 59.1375C137.164 59.8928 135.651 60.648 134.125 61.4163C124.519 66.2472 114.609 71.2344 105.027 75.245C101.329 73.435 97.631 71.7162 94.006 70.0364C89.5022 67.94 85.2425 65.9607 81.0195 63.8383C79.6403 62.8617 76.4791 60.6871 71.8655 60.6871H71.6458L59.6113 60.8694V98.5533C59.6113 102.746 61.3689 105.78 63.0899 108.189C63.6391 108.957 64.7376 110.416 65.7994 111.497C77.3457 123.073 99.3397 124.323 108.25 124.323C117.16 124.323 138.678 123.177 150.858 112.551C153.214 110.494 158.706 104.882 158.706 97.3163V55.6478L158.743 55.6348Z" fill="white"/>
<path d="M152.494 114.856C151.395 113.945 150.419 111.952 150.333 110.442C150.04 105.533 153.006 95.9751 155.167 91.5218C156.509 88.7612 158.316 86.3783 160 83.8652C159.365 76.5602 160.867 67.5233 160.024 60.4136C159.646 57.2624 155.069 60.9996 153.775 61.5856C138.592 68.4609 123.591 76.0653 108.359 82.8235C107.615 83.149 105.418 84.3079 104.832 84.2558C104.331 84.2037 102.781 83.149 102.086 82.8495C92.8218 78.8129 83.8143 74.4247 74.5626 70.0234C64.2491 65.1274 53.9844 60.1141 43.7197 55.1139L104.795 26.1934C123.201 34.462 141.24 43.642 159.524 52.2101C161.001 52.9003 162.905 53.2518 163.967 54.3456L164.138 83.8522C168.739 89.9592 171.754 96.8475 173.121 104.582C173.755 108.15 174.817 111.9 171.717 114.465C168.007 117.539 156.204 117.916 152.506 114.856H152.494ZM160.305 54.3326H117.684C117.171 54.3326 115.609 57.4708 118.844 57.7833H160.012L160.305 54.3326Z" fill="#F5CA78"/>
<path d="M152.494 114.856C151.395 113.945 150.419 111.952 150.333 110.442C150.04 105.533 153.006 95.9751 155.167 91.5218C156.509 88.7612 158.316 86.3783 160 83.8652C159.365 76.5602 160.867 67.5233 160.024 60.4136C159.646 57.2624 155.069 60.9996 153.775 61.5856C138.592 68.4609 123.591 76.0653 108.359 82.8235C107.615 83.149 105.418 84.3079 104.832 84.2558C104.331 84.2037 102.781 83.149 102.086 82.8495C92.8218 78.8129 83.8143 74.4247 74.5626 70.0234C64.2491 65.1274 53.9844 60.1141 43.7197 55.1139L104.795 26.1934C123.201 34.462 141.24 43.642 159.524 52.2101C161.001 52.9003 162.905 53.2518 163.967 54.3456L164.138 83.8522C168.739 89.9592 171.754 96.8475 173.121 104.582C173.755 108.15 174.817 111.9 171.717 114.465C168.007 117.539 156.204 117.916 152.506 114.856H152.494ZM160.305 54.3326H117.684C117.171 54.3326 115.609 57.4708 118.844 57.7833H160.012L160.305 54.3326Z" fill="url(#paint0_linear_512_25512)"/>
<path d="M146.538 69.9583V97.3032C146.538 98.8658 144.292 101.47 143.157 102.447C129.951 113.971 86.7928 114.635 74.1725 101.991C73.6599 101.483 71.8291 99.0871 71.8291 98.5533V73.7084C73.3304 73.6824 74.2458 74.8152 75.3809 75.3882C84.9132 80.2191 94.7751 84.3599 104.283 89.256C105.516 89.9201 106.431 88.6179 106.919 88.4226C119.235 83.4484 131.953 76.8856 143.828 70.9218C144.622 70.5312 145.684 70.0364 146.526 69.9583H146.538Z" fill="#F5CA78"/>
<path d="M146.538 69.9583V97.3032C146.538 98.8658 144.292 101.47 143.157 102.447C129.951 113.971 86.7928 114.635 74.1725 101.991C73.6599 101.483 71.8291 99.0871 71.8291 98.5533V73.7084C73.3304 73.6824 74.2458 74.8152 75.3809 75.3882C84.9132 80.2191 94.7751 84.3599 104.283 89.256C105.516 89.9201 106.431 88.6179 106.919 88.4226C119.235 83.4484 131.953 76.8856 143.828 70.9218C144.622 70.5312 145.684 70.0364 146.526 69.9583H146.538Z" fill="url(#paint1_linear_512_25512)"/>
<path d="M173.109 104.582C171.742 96.8345 168.727 89.9462 164.126 83.8522L163.955 54.3457C163.113 53.4732 161.721 53.0696 160.452 52.5878L160.013 57.7703C159.805 58.2781 159.598 58.786 159.378 59.2808C159.707 59.4501 159.952 59.7886 160.025 60.4006C160.879 67.4973 159.366 76.5341 160 83.8522C158.316 86.3653 156.51 88.7482 155.167 91.5088C153.007 95.9621 150.029 105.52 150.334 110.429C150.431 111.939 151.396 113.932 152.494 114.843C156.192 117.916 168.007 117.526 171.705 114.452C174.793 111.887 173.731 108.137 173.109 104.569V104.582Z" fill="#F5CA78"/>
</g>
<defs>
<filter id="filter0_d_512_25512" x="0" y="0" width="204" height="150" filterUnits="userSpaceOnUse" color-interpolation-filters="sRGB">
<feFlood flood-opacity="0" result="BackgroundImageFix"/>
<feColorMatrix in="SourceAlpha" type="matrix" values="0 0 0 0 0 0 0 0 0 0 0 0 0 0 0 0 0 0 127 0" result="hardAlpha"/>
<feOffset dx="2" dy="4"/>
<feGaussianBlur stdDeviation="8"/>
<feColorMatrix type="matrix" values="0 0 0 0 0.137255 0 0 0 0 0.121569 0 0 0 0 0.12549 0 0 0 0.25 0"/>
<feBlend mode="normal" in2="BackgroundImageFix" result="effect1_dropShadow_512_25512"/>
<feBlend mode="normal" in="SourceGraphic" in2="effect1_dropShadow_512_25512" result="shape"/>
</filter>
<linearGradient id="paint0_linear_512_25512" x1="584.5" y1="-370.5" x2="72.5001" y2="742.5" gradientUnits="userSpaceOnUse">
<stop offset="0.48" stop-color="#F8F5E3" stop-opacity="0"/>
<stop offset="0.5" stop-color="#F8F5E3" stop-opacity="0.6"/>
<stop offset="0.51" stop-color="#F8F5E3" stop-opacity="0"/>
<stop offset="0.68" stop-color="#F8F5E3" stop-opacity="0"/>
<stop offset="0.9" stop-color="#F8F5E3" stop-opacity="0"/>
<stop offset="1" stop-color="#F8F5E3" stop-opacity="0"/>
</linearGradient>
<linearGradient id="paint1_linear_512_25512" x1="708.5" y1="-302.5" x2="147" y2="806.5" gradientUnits="userSpaceOnUse">
<stop offset="0.48" stop-color="#F8F5E3" stop-opacity="0"/>
<stop offset="0.5" stop-color="#F8F5E3" stop-opacity="0.6"/>
<stop offset="0.51" stop-color="#F8F5E3" stop-opacity="0"/>
<stop offset="0.68" stop-color="#F8F5E3" stop-opacity="0"/>
<stop offset="0.9" stop-color="#F8F5E3" stop-opacity="0"/>
<stop offset="1" stop-color="#F8F5E3" stop-opacity="0"/>
</linearGradient>
</defs>
</svg>
