<svg width="336" height="424" viewBox="0 0 336 424" fill="none" xmlns="http://www.w3.org/2000/svg">
<path d="M227.1 169.563L253.679 95.4482L247.281 60.1376L282.016 -4.10039e-07L319.183 14.2571L307.705 83.4709L280.591 105.927L253.909 179.847L227.1 169.563ZM238.034 261.323L191.717 390.48C189.86 395.657 183.825 397.991 178.036 395.771C172.248 393.55 169.144 387.71 170.897 382.338L217.318 253.376L172.029 236.158L124.533 368.118C117.302 388.281 129.822 411.837 152.366 420.485C174.909 429.132 199.252 419.717 206.483 399.554L253.875 267.4L238.034 261.323ZM35.0629 87.0644L87.79 117.364C95.1188 121.57 97.8492 129.902 93.9866 136.324L72.8914 171.473C71.5061 173.886 69.3046 175.676 66.4881 176.765C62.2633 178.4 57.205 178.009 52.7272 175.516L8.73461e-05 145.217C1.20157 168.925 15.3419 192.792 39.7713 206.813C62.2635 219.47 87.8539 221.072 108.576 213.058C114.812 210.646 120.434 207.533 125.538 203.446L303.148 271.577C302.947 296.297 317.001 321.371 342.35 336.209C364.848 349.334 390.944 350.975 411.867 342.883C413.476 342.261 415.287 341.56 416.793 340.743L364.261 309.898C357.134 305.614 354.403 297.283 358.266 290.86L379.769 256.024C381.155 253.61 383.356 251.82 385.971 250.809C390.196 249.175 395.456 249.487 399.836 252.252L452.264 282.903C451.465 259.039 437.324 235.171 413.096 221.073C390.598 207.948 364.703 206.229 343.78 214.322C338.147 216.5 332.928 219.458 328.019 222.999L148.886 154.284C148.484 129.797 134.033 105.346 108.891 90.8974C86.5999 78.162 61.0096 76.5598 40.2879 84.5742C38.2761 85.3523 36.4654 86.0526 34.5571 87.0254L35.0629 87.0644Z" fill="#F6CB78" fill-opacity="0.22"/>
</svg>
