<svg width="177" height="161" viewBox="0 0 177 161" fill="none" xmlns="http://www.w3.org/2000/svg">
<g filter="url(#filter0_d_512_27162)">
<path d="M96.9877 134.935C96.6936 134.935 96.3995 134.935 96.0937 134.923H95.8584L40.2308 128.376L31.7144 96.4528L35.455 93.9712C42.1364 89.5444 48.1356 86.7012 53.7937 85.2921C57.4755 84.3693 61.4044 83.9329 65.8038 83.9329C74.2144 83.9329 82.7897 85.5914 91.0826 87.1875C96.8465 88.2974 102.305 89.3573 107.374 89.7938C107.539 89.7938 107.692 89.7938 107.845 89.7938C113.009 89.7938 117.491 93.2355 118.726 98.1611C118.785 98.3981 118.832 98.635 118.879 98.8719C120.149 98.3607 121.408 97.8743 122.643 97.4005C124.537 96.6772 126.325 95.9914 128.066 95.2307C129.783 94.495 131.877 93.4849 134.088 92.4125C139.182 89.9559 144.44 87.3995 148.745 86.3271C149.71 86.0902 150.674 85.9655 151.604 85.9655C155.568 85.9655 158.932 88.1477 160.367 91.6767C161.849 95.3055 161.002 99.4206 158.097 102.7L157.368 103.523L156.415 104.022C148.581 108.125 140.664 112.888 133.006 117.477C124.702 122.465 116.114 127.615 107.445 132.08C104.387 133.651 101.493 134.948 96.9642 134.948L96.9877 134.935Z" fill="white"/>
<path d="M65.8272 90.1802C79.5312 90.1802 94.435 95.0061 107.327 96.0536C107.516 96.0411 107.692 96.0287 107.88 96.0287C112.903 96.0287 115.479 101.939 110.574 104.92L82.2132 105.082C79.2724 105.518 78.8254 109.484 83.0248 109.858C86.3303 110.157 90.8943 110.294 95.4819 110.294C100.328 110.294 105.222 110.145 108.739 109.858C112.515 109.559 114.55 107.538 117.844 106.042C121.914 104.197 126.219 102.775 130.324 101.017C135.959 98.5975 144.593 93.784 150.145 92.3999C150.674 92.2627 151.18 92.2004 151.651 92.2004C155.003 92.2004 156.568 95.3802 153.862 98.4354C137.382 107.077 121.42 117.988 104.928 126.468C102.069 127.939 100.128 128.713 97.0111 128.713C96.7876 128.713 96.5524 128.713 96.3171 128.713L44.8536 122.665L38.6192 99.2833C43.6656 95.9414 49.3354 92.8488 55.1816 91.3898C58.6164 90.5418 62.1924 90.1927 65.8507 90.1927M65.8272 77.7102C60.9691 77.7102 56.605 78.209 52.4644 79.244C46.1711 80.8152 39.5955 83.9078 32.3495 88.7088L24.8682 93.6718L27.2678 102.675L33.5023 126.056L35.6549 134.137L43.5244 135.06L94.9879 141.108L95.4467 141.158H95.9054C96.2818 141.183 96.6347 141.195 96.9876 141.195C102.763 141.195 106.598 139.462 110.045 137.703C118.879 133.152 127.56 127.952 135.947 122.914C143.534 118.362 151.38 113.649 159.061 109.621L160.967 108.623L162.426 106.99C166.919 101.927 168.213 95.1183 165.813 89.22C163.426 83.3716 158.003 79.7428 151.651 79.7428C150.263 79.7428 148.839 79.9174 147.439 80.279C142.57 81.5011 137.041 84.1697 131.7 86.7634C129.548 87.8109 127.513 88.796 125.913 89.4819C124.666 90.0181 123.36 90.5418 121.996 91.0656C118.879 86.4891 113.668 83.5836 107.904 83.5836C107.798 83.5836 107.704 83.5836 107.598 83.5836C102.904 83.1471 97.6934 82.1495 92.1883 81.0896C83.6365 79.4435 74.8024 77.7351 65.8507 77.7351L65.8272 77.7102Z" fill="white"/>
<path d="M78.6958 93.4226V41.061H108.809V97.8495L78.6958 93.4226Z" fill="white"/>
<path d="M102.928 47.2959V90.6916L84.5775 87.998V47.2959H102.928ZM114.691 34.8259H72.8145V98.8594L82.966 100.343L101.316 103.037L114.691 104.995V34.8259Z" fill="white"/>
<path d="M22.6094 138.776L21.9154 136.406C18.3982 124.46 14.9987 112.738 12.2344 100.717L11.9756 99.595L12.1167 98.4478C12.4696 95.5173 14.34 93.148 17.0102 92.2876L17.4454 92.1504L17.9042 92.0881C19.1628 91.901 21.0567 91.1528 22.8917 90.442C25.3737 89.4694 27.9498 88.4718 30.4789 88.16C30.82 88.1226 31.1612 88.0977 31.5023 88.0977C34.7607 88.0977 37.5132 90.1552 38.5131 93.3475L38.5954 93.6094L48.1471 128.887V129.76C48.1471 133.177 46.2062 136.02 43.183 137.005L27.5381 141.731L22.6329 138.813L22.6094 138.776Z" fill="white"/>
<path d="M31.4906 94.3077C32.1376 94.3077 32.7022 94.5695 32.9257 95.3053L42.2421 129.747C42.2421 130.358 42.0068 130.832 41.4422 131.019L28.2558 134.997L27.5147 134.561C24.0799 122.914 20.6686 111.117 17.9278 99.2458C17.9866 98.747 18.2571 98.4103 18.7041 98.2607C22.5154 97.687 27.5147 94.794 31.1259 94.3451C31.2436 94.3326 31.3612 94.3201 31.4671 94.3201M31.4906 81.8377C30.926 81.8377 30.3613 81.8751 29.785 81.9374C26.5619 82.3365 23.527 83.5211 20.845 84.5686C19.6099 85.0549 17.7396 85.7782 17.0573 85.8904L16.1515 86.0276L15.2811 86.3144C10.3641 87.9106 6.91752 92.2501 6.27055 97.6621L6 99.9441L6.51758 102.176C9.32895 114.384 12.752 126.206 16.3045 138.252L17.6925 142.978L21.7625 145.41L22.5036 145.846L26.7736 148.403L31.4906 146.981L44.677 143.003L44.7946 142.966L44.9123 142.928C50.3821 141.145 54.0404 135.833 54.0287 129.698V127.964L53.5699 126.293L44.2535 91.8511L44.183 91.5892L44.1006 91.3273C42.2773 85.5537 37.3368 81.8252 31.5024 81.8252L31.4906 81.8377Z" fill="white"/>
<path d="M111.468 102.002C111.35 100.593 111.185 99.7823 111.091 99.3957C110.868 99.1089 110.55 98.7473 110.35 98.5353C110.103 98.4106 109.55 98.3108 108.691 98.1737C107.903 98.049 107.021 97.9118 106.021 97.6499L101.563 96.4777V65.3152H134.5V101.316L112.138 110.207L111.468 102.014V102.002Z" fill="white"/>
<path d="M128.618 71.5376V96.9764L117.326 101.466C117.196 99.9443 116.926 97.7745 116.302 96.4028C116.055 95.8541 114.514 94.0585 114.067 93.6844C112.021 91.9635 109.844 92.2254 107.433 91.5894V71.5376H128.607M140.381 59.0676H95.6816V101.341L104.61 103.698C104.998 103.798 105.374 103.885 105.727 103.96L106.939 118.924L121.466 113.15L132.759 108.661L140.393 105.631V59.0801L140.381 59.0676Z" fill="white"/>
<path d="M85.9418 41.061H47.3589V73.2835H85.9418V41.061Z" fill="white"/>
<path d="M80.0604 47.2959V67.0484H53.2406V47.2959H80.0604ZM91.8235 34.8259H41.4775V79.5184H91.8235V34.8259Z" fill="white"/>
<path d="M140.146 41.061H101.563V73.2835H140.146V41.061Z" fill="white"/>
<path d="M134.265 47.2959V67.0484H107.445V47.2959H134.265ZM146.028 34.8259H95.6816V79.5184H146.028V34.8259Z" fill="white"/>
<path d="M91.3409 47.1208C87.6708 43.0805 90.2822 38.928 94.5875 32.0445C96.7166 28.6527 99.2927 24.762 100.01 23.8143C106.821 14.7362 113.079 10.3218 119.149 10.3218C122.043 10.3218 126.23 11.3693 129.747 16.3448C132.229 19.8364 133.041 23.8268 132.112 27.8546C130.112 36.5337 120.784 41.8709 117.973 43.2925C114.361 45.1256 107.645 47.5822 103.104 48.3428C101.869 48.5548 100.657 48.5798 99.5868 48.6047C98.7281 48.6296 97.6459 48.6546 97.1754 48.7918L93.7759 49.8143L91.3291 47.1208H91.3409Z" fill="white"/>
<path d="M119.161 16.5569C121.243 16.5569 123.266 17.5545 125.054 20.0859C130.277 27.4682 121.102 34.8005 115.444 37.6811C112.044 39.4145 105.892 41.5718 102.198 42.1953C100.163 42.532 97.6342 42.1953 95.5757 42.8063C94.964 42.1329 103.598 29.0519 104.621 27.7051C107.786 23.4902 113.679 16.5694 119.161 16.5694M119.161 4.08691C111.185 4.08691 103.41 9.27444 95.411 19.9363C94.5052 21.1459 91.7762 25.2735 89.6941 28.5905C88.3179 30.7852 87.2239 32.6183 86.4358 34.0523C85.8241 35.1746 85.3653 36.0725 85.0124 36.908C82.4128 43.0682 84.389 48.4552 87.1063 51.448L91.9997 56.8351L98.4929 54.8773C98.787 54.8523 99.3281 54.8399 99.7398 54.8274C100.928 54.8024 102.41 54.765 104.033 54.4907C109.174 53.6303 116.455 50.9741 120.525 48.9041C123.925 47.1708 135.217 40.649 137.829 29.3137C139.17 23.4902 137.97 17.5421 134.453 12.579C130.583 7.10466 125.148 4.08691 119.161 4.08691Z" fill="white"/>
<path d="M91.0942 49.0168C90.953 49.0168 90.8119 49.0293 90.6825 49.0418C90.259 49.0667 89.8473 49.0917 89.4474 49.0917C89.0004 49.0917 88.5769 49.0667 88.177 49.0044C87.3771 48.8922 86.636 48.6428 85.9537 48.2562C85.9302 48.2562 85.9067 48.2562 85.8832 48.2562C84.9539 48.2437 83.907 48.2188 82.86 48.0192C77.6725 47.0466 61.6865 41.9339 56.5107 31.5464C54.464 27.4562 54.3228 23.0668 56.099 18.8768C57.8635 14.6994 62.6393 10.2476 68.0268 10.2227C77.9431 10.2227 87.4241 22.9047 93.6468 33.554C97.0228 39.3277 99.4342 43.4677 95.7289 47.2711L93.7409 49.3161L91.106 49.0044L91.0942 49.0168Z" fill="white"/>
<path d="M68.0974 16.47C75.7317 16.47 84.9892 30.5861 88.6475 36.846C89.071 37.5693 91.953 42.4824 91.6354 42.8067C91.4824 42.7942 91.3178 42.7817 91.1531 42.7817C90.5884 42.7817 89.9885 42.869 89.4474 42.869C89.271 42.869 89.0945 42.869 88.9299 42.8316C88.4005 42.7568 88.5652 42.2705 88.3299 42.2206C87.1183 41.9338 85.1186 42.1333 83.8835 41.8964C76.4963 40.5122 56.7813 32.5064 61.4631 21.4455C62.51 18.964 65.4154 16.4825 68.0621 16.47C68.0739 16.47 68.0857 16.47 68.0974 16.47ZM68.0974 4H67.9916C60.8867 4.03741 53.7818 9.1127 50.7234 16.3453C48.2178 22.2686 48.4178 28.7156 51.3115 34.4892C57.6165 47.1213 75.4846 52.9822 81.8367 54.1793C82.8601 54.3664 83.8129 54.4412 84.6716 54.4786C85.5421 54.8278 86.4596 55.0772 87.4124 55.2019C88.0711 55.2892 88.7416 55.339 89.4474 55.339C90.0473 55.339 90.5649 55.3016 90.9531 55.2767L95.8465 55.8503L99.8225 51.7601C100.846 50.7002 105.775 45.0014 101.999 36.5343C101.669 35.7861 101.222 34.9132 100.658 33.8657C100.105 32.8431 99.4343 31.6585 98.6579 30.3242C88.4476 12.8412 78.1784 4 68.0974 4Z" fill="white"/>
<path d="M78.9425 93.5224C74.9431 92.7118 70.2261 91.8763 65.5914 91.8763C63.5446 91.8763 61.6626 92.026 59.8393 92.3502L52.9932 93.5473V65.2903H85.9298V94.9315L78.9425 93.5099V93.5224Z" fill="white"/>
<path d="M80.0602 71.5376V87.3995C75.2844 86.4268 70.4497 85.6412 65.6033 85.6412C63.3683 85.6412 61.1334 85.8033 58.8866 86.2024V71.5376H80.0602ZM91.8232 59.0676H47.1235V100.905L60.804 98.4978C62.3097 98.2359 63.8742 98.1112 65.5916 98.1112C69.7322 98.1112 74.108 98.8844 77.8369 99.645L91.8115 102.488V59.0676H91.8232Z" fill="white"/>
<path d="M44.8301 122.665L38.5957 99.2835C43.6421 95.9416 49.3119 92.849 55.1581 91.39C71.4265 87.3373 90.9885 94.7445 107.327 96.0663C112.703 95.6174 115.656 101.84 110.562 104.932L82.2015 105.095C79.2607 105.531 78.8137 109.496 83.0131 109.871C89.8122 110.482 101.881 110.419 108.727 109.871C112.503 109.571 114.538 107.551 117.832 106.055C121.902 104.209 126.207 102.788 130.312 101.029C135.947 98.6101 144.581 93.7967 150.133 92.4126C154.486 91.3277 156.932 94.9814 153.85 98.448C137.37 107.09 121.408 118.001 104.916 126.481C101.858 128.052 99.8343 128.837 96.3054 128.713L44.8419 122.665H44.8301Z" fill="#F6CB78"/>
<path d="M44.8301 122.665L38.5957 99.2835C43.6421 95.9416 49.3119 92.849 55.1581 91.39C71.4265 87.3373 90.9885 94.7445 107.327 96.0663C112.703 95.6174 115.656 101.84 110.562 104.932L82.2015 105.095C79.2607 105.531 78.8137 109.496 83.0131 109.871C89.8122 110.482 101.881 110.419 108.727 109.871C112.503 109.571 114.538 107.551 117.832 106.055C121.902 104.209 126.207 102.788 130.312 101.029C135.947 98.6101 144.581 93.7967 150.133 92.4126C154.486 91.3277 156.932 94.9814 153.85 98.448C137.37 107.09 121.408 118.001 104.916 126.481C101.858 128.052 99.8343 128.837 96.3054 128.713L44.8419 122.665H44.8301Z" fill="url(#paint0_linear_512_27162)"/>
<path d="M102.928 47.3083V90.704L84.5771 88.0105V47.3083H102.928Z" fill="#F6CB78"/>
<path d="M102.928 47.3083V90.704L84.5771 88.0105V47.3083H102.928Z" fill="url(#paint1_linear_512_27162)"/>
<path d="M31.1494 94.3455C31.9376 94.2457 32.6551 94.4577 32.9257 95.3181L42.242 129.76C42.242 130.371 42.0068 130.845 41.4421 131.032L28.2557 135.01L27.5146 134.574C24.0798 122.927 20.6685 111.13 17.9277 99.2587C17.9865 98.7599 18.2571 98.4232 18.7041 98.2735C22.5153 97.6999 27.5146 94.8069 31.1259 94.3579L31.1494 94.3455Z" fill="#F5CA78"/>
<path d="M128.618 71.55V96.9889L117.326 101.478C117.196 99.9567 116.926 97.787 116.302 96.4153C116.055 95.8666 114.514 94.0709 114.067 93.6968C112.021 91.9759 109.845 92.2378 107.433 91.6018V71.55H128.607H128.618Z" fill="#F6CB78"/>
<path d="M128.618 71.55V96.9889L117.326 101.478C117.196 99.9567 116.926 97.787 116.302 96.4153C116.055 95.8666 114.514 94.0709 114.067 93.6968C112.021 91.9759 109.845 92.2378 107.433 91.6018V71.55H128.607H128.618Z" fill="url(#paint2_linear_512_27162)"/>
<path d="M80.0606 47.3083H53.2407V67.0608H80.0606V47.3083Z" fill="#F6CB78"/>
<path d="M80.0606 47.3083H53.2407V67.0608H80.0606V47.3083Z" fill="url(#paint3_linear_512_27162)"/>
<path d="M134.265 47.3083H107.445V67.0608H134.265V47.3083Z" fill="#F5CA78"/>
<path d="M95.5876 42.8185C94.976 42.1451 103.61 29.0641 104.633 27.7173C108.998 21.8938 118.561 10.9202 125.066 20.0981C130.289 27.4804 121.114 34.8127 115.455 37.6933C112.056 39.4266 105.904 41.584 102.21 42.2075C100.175 42.5441 97.6462 42.2075 95.5876 42.8185Z" fill="#F6CB78"/>
<path d="M80.0603 71.55V87.4119C73.073 85.9903 65.9799 84.9678 58.8867 86.2148V71.55H80.0603Z" fill="#F6CB78"/>
<path d="M91.7056 42.8068C92.3173 42.1334 83.6832 29.0523 82.6598 27.7056C78.2957 21.8821 68.7323 10.9085 62.2273 20.0864C57.0045 27.4687 66.1797 34.801 71.8377 37.6816C75.2373 39.4149 81.3894 41.5722 85.083 42.1957C87.118 42.5324 89.647 42.1957 91.7056 42.8068Z" fill="#F6CB78"/>
</g>
<defs>
<filter id="filter0_d_512_27162" x="0" y="0" width="177" height="160.403" filterUnits="userSpaceOnUse" color-interpolation-filters="sRGB">
<feFlood flood-opacity="0" result="BackgroundImageFix"/>
<feColorMatrix in="SourceAlpha" type="matrix" values="0 0 0 0 0 0 0 0 0 0 0 0 0 0 0 0 0 0 127 0" result="hardAlpha"/>
<feOffset dx="2" dy="4"/>
<feGaussianBlur stdDeviation="4"/>
<feColorMatrix type="matrix" values="0 0 0 0 0 0 0 0 0 0 0 0 0 0 0 0 0 0 0.25 0"/>
<feBlend mode="normal" in2="BackgroundImageFix" result="effect1_dropShadow_512_27162"/>
<feBlend mode="normal" in="SourceGraphic" in2="effect1_dropShadow_512_27162" result="shape"/>
</filter>
<linearGradient id="paint0_linear_512_27162" x1="442.5" y1="-164.5" x2="-116" y2="446" gradientUnits="userSpaceOnUse">
<stop offset="0.48" stop-color="#F8F5E3" stop-opacity="0"/>
<stop offset="0.5" stop-color="#F8F5E3" stop-opacity="0.6"/>
<stop offset="0.51" stop-color="#F8F5E3" stop-opacity="0"/>
<stop offset="0.69" stop-color="#F8F5E3" stop-opacity="0"/>
<stop offset="0.9" stop-color="#F8F5E3" stop-opacity="0"/>
<stop offset="1" stop-color="#F8F5E3" stop-opacity="0"/>
</linearGradient>
<linearGradient id="paint1_linear_512_27162" x1="443.5" y1="-229.5" x2="-176.5" y2="453" gradientUnits="userSpaceOnUse">
<stop offset="0.48" stop-color="#F8F5E3" stop-opacity="0"/>
<stop offset="0.5" stop-color="#F8F5E3" stop-opacity="0.6"/>
<stop offset="0.51" stop-color="#F8F5E3" stop-opacity="0"/>
<stop offset="0.69" stop-color="#F8F5E3" stop-opacity="0"/>
<stop offset="0.9" stop-color="#F8F5E3" stop-opacity="0"/>
<stop offset="1" stop-color="#F8F5E3" stop-opacity="0"/>
</linearGradient>
<linearGradient id="paint2_linear_512_27162" x1="403" y1="-268" x2="-155.5" y2="465.5" gradientUnits="userSpaceOnUse">
<stop offset="0.48" stop-color="#F8F5E3" stop-opacity="0"/>
<stop offset="0.5" stop-color="#F8F5E3" stop-opacity="0.6"/>
<stop offset="0.51" stop-color="#F8F5E3" stop-opacity="0"/>
<stop offset="0.69" stop-color="#F8F5E3" stop-opacity="0"/>
<stop offset="0.9" stop-color="#F8F5E3" stop-opacity="0"/>
<stop offset="1" stop-color="#F8F5E3" stop-opacity="0"/>
</linearGradient>
<linearGradient id="paint3_linear_512_27162" x1="401.5" y1="-215" x2="-141" y2="421.5" gradientUnits="userSpaceOnUse">
<stop offset="0.48" stop-color="#F8F5E3" stop-opacity="0"/>
<stop offset="0.5" stop-color="#F8F5E3" stop-opacity="0.6"/>
<stop offset="0.51" stop-color="#F8F5E3" stop-opacity="0"/>
<stop offset="0.69" stop-color="#F8F5E3" stop-opacity="0"/>
<stop offset="0.9" stop-color="#F8F5E3" stop-opacity="0"/>
<stop offset="1" stop-color="#F8F5E3" stop-opacity="0"/>
</linearGradient>
</defs>
</svg>
