<svg width="155" height="150" viewBox="0 0 155 150" fill="none" xmlns="http://www.w3.org/2000/svg">
<g filter="url(#filter0_d_512_27137)">
<path d="M75.4694 27.0066C104.209 26.5266 126.079 52.2266 120.179 79.8466C115.999 99.4166 98.5894 113.657 78.2194 114.667C75.6194 114.797 66.7794 114.517 64.8194 113.137C63.1794 111.987 63.9594 109.147 66.0794 109.137C67.5894 109.127 70.4594 110.117 72.2994 110.247C111.779 112.997 132.409 66.1566 102.619 40.8566C78.2794 20.1866 40.0094 34.9066 36.0894 65.9966C35.9094 67.4166 36.0194 71.5166 35.6294 72.4366C35.0394 73.8366 32.2694 74.1766 31.6794 72.4566C30.5094 69.0666 32.5794 60.1366 33.7994 56.5766C39.7994 39.1266 56.6694 27.3166 75.4894 27.0066H75.4694Z" fill="white" stroke="white" stroke-width="30" stroke-miterlimit="10"/>
<path d="M30.3495 81.2568L48.6095 81.2168C51.0095 81.5868 50.5495 85.0368 48.3295 85.3168H30.5795C28.7395 84.8468 28.3095 81.7068 30.3495 81.2568Z" fill="white" stroke="white" stroke-width="30" stroke-miterlimit="10"/>
<path d="M76.0195 46.5668C77.6995 46.4068 78.4195 47.7368 78.5995 49.1668C79.2295 54.3068 77.3795 64.7768 79.6095 68.8668C81.9595 73.1668 91.3495 76.0068 95.2795 79.1968C97.3195 80.8768 94.9895 83.6268 92.8095 82.7168C86.1095 78.1068 75.0795 75.6568 74.1195 66.2368C73.6895 62.0168 73.6895 52.7968 74.0995 48.5668C74.2095 47.4368 74.7895 46.6868 76.0195 46.5768V46.5668Z" fill="white" stroke="white" stroke-width="30" stroke-miterlimit="10"/>
<path d="M34.5497 94.8564L52.8097 94.8164C55.2097 95.1864 54.7497 98.6364 52.5297 98.9164H34.7797C32.9397 98.4464 32.5097 95.3064 34.5497 94.8564Z" fill="white" stroke="white" stroke-width="30" stroke-miterlimit="10"/>
<path d="M38.7796 108.447L57.0396 108.407C59.4396 108.777 58.9796 112.227 56.7596 112.507H39.0096C37.1696 112.037 36.7396 108.897 38.7796 108.447Z" fill="white" stroke="white" stroke-width="30" stroke-miterlimit="10"/>
<path d="M75.9896 108.406C93.7621 108.406 108.17 91.559 108.17 70.7765C108.17 49.994 93.7621 33.1465 75.9896 33.1465C58.217 33.1465 43.8096 49.994 43.8096 70.7765C43.8096 91.559 58.217 108.406 75.9896 108.406Z" fill="white"/>
<path d="M76.3898 26.9368C105.13 26.4568 127 52.1568 121.1 79.7768C116.92 99.3468 99.5098 113.587 79.1398 114.597C76.5398 114.727 67.6998 114.447 65.7398 113.067C64.0998 111.917 64.8798 109.077 66.9998 109.067C68.5098 109.057 71.3798 110.047 73.2198 110.177C112.7 112.927 133.33 66.0868 103.54 40.7868C79.1998 20.1168 40.9298 34.8368 37.0098 65.9268C36.8298 67.3468 36.9398 71.4468 36.5498 72.3668C35.9598 73.7668 33.1898 74.1068 32.5998 72.3868C31.4298 68.9968 33.4998 60.0668 34.7198 56.5068C40.7198 39.0568 57.5898 27.2468 76.4098 26.9368H76.3898Z" fill="#F5CA78"/>
<path d="M76.3898 26.9368C105.13 26.4568 127 52.1568 121.1 79.7768C116.92 99.3468 99.5098 113.587 79.1398 114.597C76.5398 114.727 67.6998 114.447 65.7398 113.067C64.0998 111.917 64.8798 109.077 66.9998 109.067C68.5098 109.057 71.3798 110.047 73.2198 110.177C112.7 112.927 133.33 66.0868 103.54 40.7868C79.1998 20.1168 40.9298 34.8368 37.0098 65.9268C36.8298 67.3468 36.9398 71.4468 36.5498 72.3668C35.9598 73.7668 33.1898 74.1068 32.5998 72.3868C31.4298 68.9968 33.4998 60.0668 34.7198 56.5068C40.7198 39.0568 57.5898 27.2468 76.4098 26.9368H76.3898Z" stroke="#F5CA78" stroke-width="5" stroke-miterlimit="10"/>
<path d="M76.3898 26.9368C105.13 26.4568 127 52.1568 121.1 79.7768C116.92 99.3468 99.5098 113.587 79.1398 114.597C76.5398 114.727 67.6998 114.447 65.7398 113.067C64.0998 111.917 64.8798 109.077 66.9998 109.067C68.5098 109.057 71.3798 110.047 73.2198 110.177C112.7 112.927 133.33 66.0868 103.54 40.7868C79.1998 20.1168 40.9298 34.8368 37.0098 65.9268C36.8298 67.3468 36.9398 71.4468 36.5498 72.3668C35.9598 73.7668 33.1898 74.1068 32.5998 72.3868C31.4298 68.9968 33.4998 60.0668 34.7198 56.5068C40.7198 39.0568 57.5898 27.2468 76.4098 26.9368H76.3898Z" stroke="url(#paint0_linear_512_27137)" stroke-width="5" stroke-miterlimit="10"/>
<path d="M31.2596 81.187L49.5196 81.147C51.9196 81.517 51.4596 84.967 49.2396 85.247H31.4896C29.6496 84.777 29.2196 81.637 31.2596 81.187Z" fill="#F5CA78" stroke="#F5CA78" stroke-width="5" stroke-miterlimit="10"/>
<path d="M76.9296 46.497C78.6096 46.337 79.3296 47.667 79.5096 49.097C80.1396 54.237 78.2896 64.707 80.5196 68.797C82.8696 73.097 92.2596 75.937 96.1896 79.127C98.2296 80.807 95.8996 83.557 93.7196 82.647C87.0196 78.037 75.9896 75.587 75.0296 66.167C74.5996 61.947 74.5996 52.727 75.0096 48.497C75.1196 47.367 75.6996 46.617 76.9296 46.507V46.497Z" fill="#F5CA78"/>
<path d="M76.9296 46.497C78.6096 46.337 79.3296 47.667 79.5096 49.097C80.1396 54.237 78.2896 64.707 80.5196 68.797C82.8696 73.097 92.2596 75.937 96.1896 79.127C98.2296 80.807 95.8996 83.557 93.7196 82.647C87.0196 78.037 75.9896 75.587 75.0296 66.167C74.5996 61.947 74.5996 52.727 75.0096 48.497C75.1196 47.367 75.6996 46.617 76.9296 46.507V46.497Z" stroke="#F5CA78" stroke-width="5" stroke-miterlimit="10"/>
<path d="M76.9296 46.497C78.6096 46.337 79.3296 47.667 79.5096 49.097C80.1396 54.237 78.2896 64.707 80.5196 68.797C82.8696 73.097 92.2596 75.937 96.1896 79.127C98.2296 80.807 95.8996 83.557 93.7196 82.647C87.0196 78.037 75.9896 75.587 75.0296 66.167C74.5996 61.947 74.5996 52.727 75.0096 48.497C75.1196 47.367 75.6996 46.617 76.9296 46.507V46.497Z" stroke="url(#paint1_linear_512_27137)" stroke-width="5" stroke-miterlimit="10"/>
<path d="M35.4696 94.7866L53.7296 94.7466C56.1296 95.1166 55.6696 98.5666 53.4496 98.8466H35.6996C33.8596 98.3766 33.4296 95.2366 35.4696 94.7866Z" fill="#F5CA78" stroke="#F5CA78" stroke-width="5" stroke-miterlimit="10"/>
<path d="M38.7796 108.447L57.0396 108.407C59.4396 108.777 58.9796 112.227 56.7596 112.507H39.0096C37.1696 112.037 36.7396 108.897 38.7796 108.447Z" fill="#F5CA78" stroke="#F5CA78" stroke-width="5" stroke-miterlimit="10"/>
</g>
<defs>
<filter id="filter0_d_512_27137" x="0" y="0" width="154.162" height="149.695" filterUnits="userSpaceOnUse" color-interpolation-filters="sRGB">
<feFlood flood-opacity="0" result="BackgroundImageFix"/>
<feColorMatrix in="SourceAlpha" type="matrix" values="0 0 0 0 0 0 0 0 0 0 0 0 0 0 0 0 0 0 127 0" result="hardAlpha"/>
<feOffset dx="2" dy="4"/>
<feGaussianBlur stdDeviation="8"/>
<feColorMatrix type="matrix" values="0 0 0 0 0.137255 0 0 0 0 0.121569 0 0 0 0 0.12549 0 0 0 0.25 0"/>
<feBlend mode="normal" in2="BackgroundImageFix" result="effect1_dropShadow_512_27137"/>
<feBlend mode="normal" in="SourceGraphic" in2="effect1_dropShadow_512_27137" result="shape"/>
</filter>
<linearGradient id="paint0_linear_512_27137" x1="631.698" y1="-401.07" x2="-318.802" y2="680.43" gradientUnits="userSpaceOnUse">
<stop offset="0.48" stop-color="#F8F5E3" stop-opacity="0"/>
<stop offset="0.5" stop-color="#F8F5E3" stop-opacity="0.6"/>
<stop offset="0.51" stop-color="#F8F5E3" stop-opacity="0"/>
<stop offset="0.69" stop-color="#F8F5E3" stop-opacity="0"/>
<stop offset="0.9" stop-color="#F8F5E3" stop-opacity="0"/>
<stop offset="1" stop-color="#F8F5E3" stop-opacity="0"/>
</linearGradient>
<linearGradient id="paint1_linear_512_27137" x1="316.198" y1="-163.07" x2="-138.802" y2="331.93" gradientUnits="userSpaceOnUse">
<stop offset="0.48" stop-color="#F8F5E3" stop-opacity="0"/>
<stop offset="0.5" stop-color="#F8F5E3" stop-opacity="0.6"/>
<stop offset="0.51" stop-color="#F8F5E3" stop-opacity="0"/>
<stop offset="0.69" stop-color="#F8F5E3" stop-opacity="0"/>
<stop offset="0.9" stop-color="#F8F5E3" stop-opacity="0"/>
<stop offset="1" stop-color="#F8F5E3" stop-opacity="0"/>
</linearGradient>
</defs>
</svg>
