<svg width="246" height="561" viewBox="0 0 246 561" fill="none" xmlns="http://www.w3.org/2000/svg">
<path fill-rule="evenodd" clip-rule="evenodd" d="M1.5773 31.6652C14.9602 27.6035 29.0376 34.4481 32.4101 47.3349C36.1172 60.0328 27.9752 73.6672 14.5923 77.7288C1.13087 82.0403 -12.612 75.0069 -16.3191 62.3089C-20.0262 49.6109 -11.8842 35.9766 1.5773 31.6652ZM216.398 398.085L223.129 395.929L175.366 224.245L168.636 226.4L148.266 232.557L-27.5411 286.802L-39.0741 290.23L-45.8048 292.386L1.95794 464.07L8.68865 461.915L20.2216 458.486L195.95 404.491L216.398 398.085ZM25.3992 116.822C85.996 98.2308 148.685 129.814 164.521 187.022L171.581 211.796L-49 279.81L-56.0596 255.035C-71.8952 197.828 -35.1975 135.413 25.3992 116.822ZM120.484 408.262C120.484 408.262 119.638 408.329 119.461 408.018C119.205 407.957 119.362 407.457 119.697 407.269C144.247 378.21 142.401 348.233 106.943 334.147C106.687 334.086 106.175 333.964 106.018 334.464C105.861 334.963 105.782 335.213 105.96 335.524C130.402 363.634 83.877 378.596 79.6158 398.257C77.8682 406.433 81.3158 412.088 90.4704 415.343C90.7263 415.404 90.9036 415.715 91.0023 416.275C90.9237 416.525 90.8451 416.775 90.2546 416.903C34.4766 428.049 21.1216 371.701 45.2552 336.099C45.4124 335.599 45.9243 335.721 46.1802 335.782C46.692 335.904 46.8694 336.215 46.7908 336.464C41.886 367.787 74.1319 375.469 64.7217 334.56C59.0989 309.591 65.8791 288.92 84.216 272.612C84.2946 272.362 84.8851 272.234 85.0624 272.545C85.3183 272.606 85.4956 272.917 85.3384 273.417C78.421 295.398 87.168 309.565 111.343 316.668C167.273 332.14 172.731 381.237 120.426 409.322L120.484 408.262ZM226.502 408.816L244.191 472.373C248.293 487.313 238.774 503.573 222.872 508.645L60.192 558.768C44.0343 563.78 27.8893 555.637 23.6101 540.386L6.17685 476.89L226.757 408.877L226.502 408.816ZM31.5233 83.3736L31.2674 83.3126L31.1102 83.8122L30.8543 83.7512L30.3625 84.4396L30.1066 84.3786C30.1066 84.3786 29.2803 85.2558 28.6899 85.3837L28.3553 85.5725L28.1981 86.0721L26.9386 86.5776L26.2696 86.9552L25.6005 87.3329L25.4433 87.8325L24.9315 87.7105L23.8493 88.5268L23.5934 88.4658L23.5148 88.7156C23.1803 88.9044 22.5898 89.0323 22.2553 89.2211L21.9993 89.1601L20.9958 89.7266L20.0708 90.0432L19.1458 90.3599L17.2959 90.9932L16.3709 91.3099L15.4459 91.6266L14.521 91.9433L13.596 92.2599L12.8282 92.077L12.4151 92.5156L10.8997 92.9602L10.3878 92.8382L9.79736 92.9661L9.54144 92.9051L8.951 93.0329L8.43916 92.911L7.59279 92.9779L6.82505 92.795L6.74644 93.0448L6.2346 92.9228L5.97867 92.8619L5.46683 92.7399L4.87638 92.8678L4.36454 92.7458L3.51817 92.8127L2.75041 92.6298L1.98264 92.4469L1.4708 92.3249L0.703047 92.142L-0.32063 91.8981L-0.832479 91.7762L-4.92721 90.8007L-5.69496 90.6178L-7.23049 90.2519L-7.74234 90.13L-8.51009 89.9471L-9.02193 89.8251L-9.7897 89.6422L-10.5575 89.4593L-11.0693 89.3374L-10.9907 89.0876C-11.5025 88.9656 -12.0144 88.8437 -12.1917 88.5329L-12.9594 88.35L-13.3141 87.7285L-14.0818 87.5456L-15.1256 86.4914C-15.6375 86.3694 -15.8148 86.0587 -16.248 85.6869L-16.8586 85.0044C-17.5477 84.5717 -18.1583 83.8892 -18.7688 83.2067L-19.5366 83.0238L-19.8126 82.1525L-20.4231 81.47L-20.935 81.3481L-21.4669 80.4158C-22.2548 79.4225 -23.1213 78.6791 -23.6532 77.7468C-26.0114 85.2405 -26.2436 92.9722 -24.2712 100.692L-17.665 124.285C-5.91817 115.805 7.48299 109.063 22.3813 104.557C37.0236 99.9895 51.6477 98.1032 66.0762 98.5869L63.8278 89.9957L32.0352 83.4955L31.5233 83.3736ZM-11.2667 88.2163C-11.2667 88.2163 -12.2904 87.9724 -12.4677 87.6616L-11.1881 87.9665L-11.2667 88.2163ZM-125.776 415.38L-81.5925 401.739C-73.3463 399.139 -64.8406 403.582 -62.8683 411.302L-61.9415 414.477C-59.7132 422.257 -64.8463 430.701 -73.0139 433.052L-117.197 446.692C-125.443 449.292 -133.949 444.849 -135.921 437.129L-136.848 433.955C-139.076 426.174 -133.943 417.73 -125.697 415.13L-125.776 415.38ZM-91.184 391.13L-123.165 400.965L-160.318 267.252C-177.83 204.006 -137.474 135.213 -70.4815 114.655L-38.1659 104.632L-29.9822 133.702C-29.9822 133.702 -31.4775 134.957 -31.9692 135.645L-62.1003 144.846C-111.499 160.198 -141.451 210.794 -128.416 257.668L-91.2626 391.38L-91.184 391.13ZM-68.9722 445.561L-40.7118 511.368C-39.8051 513.732 -39.9221 515.852 -40.9641 518.289C-42.1834 520.415 -44.0918 522.109 -46.5322 522.87L-93.1556 537.271C-95.596 538.033 -97.9779 537.734 -100.124 536.685C-102.191 535.387 -103.511 533.462 -103.906 531.22L-113.903 459.829L-113.647 459.89L-69.3854 445.999L-69.1295 446.06L-68.9722 445.561ZM41.8315 71.5979C46.0597 64.2812 47.886 55.8552 46.6613 47.5078L116.467 61.7218L113.285 73.5839C111.497 80.1394 104.393 84.3545 97.6606 83.019L41.8315 71.5979ZM45.793 43.2732L99.659 26.8378C106.39 24.682 110.461 17.8649 108.607 11.5159L105.353 -1.68161e-05L30.3703 23.2193C37.7737 27.6682 43.2887 34.621 45.7144 43.523L45.793 43.2732Z" fill="white" fill-opacity="0.25"/>
</svg>
