<svg width="365" height="504" viewBox="0 0 365 504" fill="none" xmlns="http://www.w3.org/2000/svg">
<path d="M71.2308 376.19L156.929 352.136C146.857 363.156 141.298 377.347 141.21 392.255L81.3169 409.541C80.4665 405.207 69.1849 378.303 69.8703 376.751C70.0651 376.306 71.2087 376.279 71.2308 376.19Z" fill="#F8F5E3" fill-opacity="0.25"/>
<path d="M318.394 338.02L506.048 283.041C506.076 290.637 507.258 300.156 510.056 307.376L273.399 376.712C270.962 368.695 266.984 361.148 261.685 354.463L318.398 338.018L318.394 338.02Z" fill="#FFFEFD" fill-opacity="0.25"/>
<path d="M80.5138 408.952L140.511 391.569C140.449 399.642 141.996 407.717 145.07 415.354L85.1692 432.251C69.7434 430.721 67.1815 414.552 80.5179 408.951L80.5138 408.952Z" fill="#FFFEFD" fill-opacity="0.25"/>
<path d="M265.591 376.835C276.67 407.562 259.917 439.794 228.178 448.832C196.438 457.87 161.725 440.29 150.647 409.567C139.57 378.844 156.321 346.609 188.061 337.57C219.8 328.532 254.513 346.113 265.591 376.835ZM233.509 385.156C228.569 371.455 213.088 363.612 198.93 367.644C184.772 371.675 177.303 386.05 182.244 399.754C187.186 413.459 202.665 421.298 216.823 417.266C230.981 413.235 238.45 398.86 233.509 385.156Z" fill="#FFE6B7" fill-opacity="0.25"/>
<path d="M128.769 193.934C118.861 196.837 108.822 199.519 98.9565 202.528C96.8938 193.694 85.5129 177.931 98.5833 172.868C101.612 171.694 108.218 169.76 111.4 169.416C122.847 168.167 125.582 186.597 128.771 193.938L128.769 193.934Z" fill="#FFEBA2" fill-opacity="0.25"/>
<path d="M263.495 188.203C282.604 238.963 299.6 290.432 318.516 341.251L263.439 356.812C246.091 335.289 216.968 325.86 190.708 333.264L138.576 188.253C171.547 178.712 204.581 169.19 237.787 160.303C256.015 161.31 258.388 174.642 263.495 188.203ZM149.177 205.578L170.467 264.798L263.961 238.104L242.671 178.884L149.177 205.578Z" fill="white" fill-opacity="0.25"/>
<path d="M96.2914 201.863C106.02 198.923 115.923 196.311 125.695 193.477C126.754 193.171 127.814 192.877 128.873 192.571L181.339 338.104C172.475 341.596 164.634 346.967 158.385 353.829L74.3914 377.163C75.0477 374.763 58.3639 335.218 56.9962 329.033C58.3719 298.933 61.7997 268.278 65.7164 238.311C67.1154 227.616 66.7973 216.106 76.3793 209.084C81.9466 205.002 89.5581 203.898 96.2874 201.864L96.2914 201.863ZM132.351 211.968L81.4908 226.472L75.0311 293.728L153.705 271.291L132.351 211.968ZM137.72 287.743L139.939 293.906L159.011 288.467L156.793 282.303L137.72 287.743Z" fill="#FFEFCF" fill-opacity="0.25"/>
<path d="M138.101 190.627L187.879 333.937C185.875 334.518 183.907 335.202 181.983 335.987L132.038 192.412C134.051 191.811 136.088 191.228 138.101 190.627Z" fill="#FFEFCF" fill-opacity="0.25"/>
<path d="M157.85 281.098L138.398 286.676L140.66 293L160.112 287.421L157.85 281.098Z" fill="#FFEFCF" fill-opacity="0.25"/>
<path d="M287.612 181.237C295.232 204.407 303.773 227.446 311.834 250.495C313.96 256.572 316.097 262.683 318.223 268.76L340.582 332.691L319.437 338.882C301.211 288.596 284.883 237.654 266.467 187.428L287.612 181.237Z" fill="white" fill-opacity="0.25"/>
<path d="M332.133 130.052C410.68 107.116 489.558 84.6064 568.444 62.6161C579.336 59.5812 591.87 54.9311 602.74 52.799C617.691 49.8641 627.988 58.3525 631.48 72.2137C524.519 101.957 418.189 133.667 311.286 163.583L314.943 173.751L356.08 162.012L371.828 205.793L330.695 217.531L334.352 227.699C440.878 196.744 548.072 167.438 654.54 136.323L675.912 195.741L575.097 224.511C537.999 223.83 508.675 250.112 509.031 285.605L345.307 332.327L321.685 266.654L626.55 179.655L619.801 160.891L314.936 247.891C306.419 224.213 297.407 200.544 289.345 176.745C285.686 165.94 279.428 154.304 289.218 145.04C296.483 138.165 321.189 133.249 332.133 130.052ZM629.506 153.988C625.347 156.619 627.882 164.284 633.163 164.923C635.999 165.265 647.581 162.037 650.374 160.74C656.55 157.87 654.043 148.947 648.405 148.802C646.192 148.744 631.275 152.875 629.507 153.992L629.506 153.988ZM635.693 171.188C631.701 173.715 633.719 181.536 639.363 182.098C642.421 182.402 653.619 179.305 656.561 177.94C662.736 175.07 660.229 166.147 654.592 166.002C652.379 165.944 637.462 170.075 635.694 171.192L635.693 171.188ZM643.536 187.95C637.88 190.758 639.617 198.961 645.339 199.711C647.28 199.968 661.277 195.96 663.547 194.903C669.063 192.338 666.502 184.043 660.612 183.517C657.613 183.252 646.401 186.52 643.534 187.946L643.536 187.95Z" fill="#FFEFCF" fill-opacity="0.25"/>
<path d="M633.838 71.3596C638.448 70.0629 643.06 68.673 647.665 67.3603L651.195 77.2855C651.361 78.1446 639.213 81.2406 637.521 81.7424C630.231 83.9013 622.86 85.943 615.564 88.086L631.433 132.812C638.752 130.737 646.066 128.531 653.39 126.468C658 125.172 662.612 123.782 667.217 122.469L670.747 132.394C670.913 133.253 658.765 136.349 657.073 136.851C549.721 168.615 441.637 198.529 334.223 230.13L330.538 219.744L372.016 207.76L356.148 163.034L314.674 175.016L310.989 164.63C418.776 134.092 525.988 101.721 633.838 71.3596ZM392.743 152.461L364.28 160.685L380.149 205.411L408.611 197.187L392.743 152.461ZM428.524 142.124L400.875 150.112L416.743 194.838L444.393 186.85L428.524 142.124ZM465.119 131.551L436.657 139.774L452.525 184.5L480.987 176.277L465.119 131.551ZM499.274 121.683L473.251 129.202L489.12 173.928L515.143 166.409L499.274 121.683ZM535.056 111.346L507.406 119.334L523.275 164.06L550.924 156.072L535.056 111.346ZM573.277 100.303L543.188 108.996L559.056 153.722L589.145 145.029L573.277 100.303ZM607.432 90.4355L581.409 97.9538L597.278 142.68L623.301 135.161L607.432 90.4355Z" fill="#FFE3AE" fill-opacity="0.25"/>
<path d="M572.418 64.8276C492.653 87.579 412.897 110.868 333.476 134.6C329.205 124.034 334.085 111.992 344.151 107.37L544.796 48.7493C556.257 45.8224 569.068 53.5418 572.42 64.8316L572.418 64.8276Z" fill="#FFFBF2" fill-opacity="0.25"/>
<path d="M312.343 249.007L620.844 158.544L627.664 178.085L319.162 268.548C316.894 262.047 314.612 255.509 312.343 249.007Z" fill="#FFEBC5" fill-opacity="0.25"/>
<path d="M392.023 154.439L364.256 162.367L379.747 205.454L407.514 197.527L392.023 154.439Z" fill="#FFEFCF" fill-opacity="0.25"/>
</svg>
